<?xml version="1.0" standalone="no"?>
<!DOCTYPE svg PUBLIC "-//W3C//DTD SVG 1.1//EN" "http://www.w3.org/Graphics/SVG/1.1/DTD/svg11.dtd" >
<svg xmlns="http://www.w3.org/2000/svg" xmlns:xlink="http://www.w3.org/1999/xlink" version="1.1">
<metadata>
Created by FontForge 20170731 at Thu Dec  2 10:15:22 2021
 By Aleksey,,,
Copyright (c) 2016 by Alberto Romanos. All rights reserved.
</metadata>
<defs>
<font id="BwModelicaSS02-HairlineItalic" horiz-adv-x="0" >
  <font-face 
    font-family="Bw Modelica SS02 Hairline"
    font-weight="250"
    font-style="italic"
    font-stretch="normal"
    units-per-em="2048"
    panose-1="0 0 3 0 0 0 0 0 0 0"
    ascent="1597"
    descent="-451"
    x-height="1065"
    cap-height="1516"
    bbox="-1722 -473 2587 2089"
    underline-thickness="102"
    underline-position="-307"
    slope="-10"
    unicode-range="U+000D-FB02"
  />
<missing-glyph horiz-adv-x="2609" 
d="M244 -20q-15 0 -25 10.5t-10 25.5q0 21 10 31l701 698h-664q-47 0 -47 39q0 16 14 33l697 701h-670q-41 0 -41 38v3q0 38 41 38h758q47 0 47 -41q0 -20 -17 -34l-698 -697h676q17 0 29 -12t12 -29v-669l694 692q13 16 35 16q37 0 37 -45v-663l696 692q13 16 33 16
q15 0 25 -12t10 -27q0 -18 -13 -28l-753 -762q-14 -14 -35 -14q-41 0 -41 47v663l-694 -696q-14 -14 -35 -14q-41 0 -41 47v663l-696 -696q-14 -14 -35 -14z" />
    <glyph glyph-name="fi" unicode="fi" horiz-adv-x="1140" 
d="M430 1561l-88 -496h430l-6 -37h-430l-182 -1028h-41l182 1028h-195l6 37h195l94 532h479l-6 -36h-438zM1075 1505q17 0 29 -12t12 -31q0 -21 -14.5 -34t-34.5 -13q-17 0 -29 12t-12 31q0 21 14.5 34t34.5 13zM795 0l188 1065h41l-188 -1065h-41z" />
    <glyph glyph-name="fl" unicode="fl" horiz-adv-x="1193" 
d="M430 1561l-88 -496h430l-6 -37h-430l-182 -1028h-41l182 1028h-195l6 37h195l94 532h479l-6 -36h-438zM1122 1597l-276 -1560h246l-7 -37h-286l282 1597h41z" />
    <glyph glyph-name=".notdef" horiz-adv-x="2609" 
d="M244 -20q-15 0 -25 10.5t-10 25.5q0 21 10 31l701 698h-664q-47 0 -47 39q0 16 14 33l697 701h-670q-41 0 -41 38v3q0 38 41 38h758q47 0 47 -41q0 -20 -17 -34l-698 -697h676q17 0 29 -12t12 -29v-669l694 692q13 16 35 16q37 0 37 -45v-663l696 692q13 16 33 16
q15 0 25 -12t10 -27q0 -18 -13 -28l-753 -762q-14 -14 -35 -14q-41 0 -41 47v663l-694 -696q-14 -14 -35 -14q-41 0 -41 47v663l-696 -696q-14 -14 -35 -14z" />
    <glyph glyph-name=".null" 
 />
    <glyph glyph-name="nonmarkingreturn" horiz-adv-x="682" 
 />
    <glyph glyph-name="CR" unicode="&#xd;" horiz-adv-x="491" 
 />
    <glyph glyph-name="space" unicode=" " horiz-adv-x="573" 
 />
    <glyph glyph-name="exclam" unicode="!" horiz-adv-x="477" 
d="M147 248l222 1268h49l-230 -1268h-41zM125 -20q-17 0 -29 12t-12 31q0 21 14.5 34t34.5 13q17 0 29 -12t12 -31q0 -21 -14.5 -34t-34.5 -13z" />
    <glyph glyph-name="quotedbl" unicode="&#x22;" horiz-adv-x="575" 
d="M244 1155l75 442h50l-80 -442h-45zM465 1155l76 442h49l-80 -442h-45z" />
    <glyph glyph-name="numbersign" unicode="#" horiz-adv-x="1308" 
d="M1274 940h-248l-186 -453h252l-17 -38h-252l-182 -449h-43l182 449h-446l-182 -449h-43l182 449h-248l16 38h248l187 453h-252l16 39h250l186 455h43l-186 -455h446l187 455h43l-187 -455h250zM797 487l186 453h-446l-187 -453h447z" />
    <glyph glyph-name="dollar" unicode="$" horiz-adv-x="1232" 
d="M807 1536q276 -5 397 -176l-35 -31q-120 163 -370 166l-123 -700l16 -7q54 -17 92 -31.5t89 -37.5t85.5 -49.5t67 -61.5t48.5 -80t16 -98q0 -130 -76 -232t-201.5 -157t-280.5 -61l-28 -164h-45l28 164q-140 2 -250 43.5t-163 123.5l30 35q121 -162 392 -162l129 738
l-82 26q-65 20 -114 44t-94.5 60t-70 87.5t-24.5 116.5q0 126 69.5 226t187.5 156t265 62l29 164h45zM575 825l58 -18l121 688q-200 -9 -331.5 -121t-131.5 -276q0 -58 22 -103.5t65 -77t88 -52t109 -40.5zM1040 422q0 60 -26.5 109.5t-79 87.5t-115.5 67t-151 57l-127 -720
q213 11 356 122t143 277z" />
    <glyph glyph-name="percent" unicode="%" horiz-adv-x="1417" 
d="M164 -20l-31 24l1167 1532l33 -25zM428 877q-118 0 -187 69.5t-69 188.5q0 167 104 284t263 117q118 0 186 -69.5t68 -188.5q0 -167 -104 -284t-261 -117zM430 913q135 0 225 108.5t90 258.5q0 102 -55 160.5t-153 58.5q-93 0 -167 -52.5t-112.5 -135.5t-38.5 -178
q0 -102 56 -161t155 -59zM922 -20q-118 0 -187 69.5t-69 188.5q0 167 103.5 284t262.5 117q118 0 186 -69.5t68 -188.5q0 -167 -103.5 -284t-260.5 -117zM924 16q135 0 225 108.5t90 258.5q0 102 -55.5 160.5t-153.5 58.5q-93 0 -167 -52.5t-112 -135.5t-38 -178
q0 -102 56 -161t155 -59z" />
    <glyph glyph-name="ampersand" unicode="&#x26;" horiz-adv-x="1587" 
d="M1057 795l-94 -537q-7 -40 -7 -65q0 -82 50 -129.5t137 -47.5q130 0 243 41l-2 -37q-97 -40 -254 -40q-100 0 -157.5 55.5t-57.5 150.5v17q-64 -112 -188 -167.5t-270 -55.5q-178 0 -281.5 91.5t-103.5 245.5q0 194 125.5 329t324.5 169q-111 28 -173 103.5t-62 185.5
q0 191 140 311.5t345 120.5q165 0 261.5 -80.5t96.5 -216.5q0 -33 -6 -70l-59 -338h444l-6 -36h-446zM330 1098q0 -122 85.5 -194.5t233.5 -72.5h375l59 336q7 40 7 64q0 123 -85.5 195.5t-234.5 72.5q-187 0 -313.5 -116t-126.5 -285zM934 330l82 465h-371
q-224 0 -375 -133.5t-151 -337.5q0 -142 93.5 -225t258.5 -83q105 0 202.5 35t170 108.5t90.5 170.5z" />
    <glyph glyph-name="quotesingle" unicode="'" horiz-adv-x="354" 
d="M244 1155l75 442h50l-80 -442h-45z" />
    <glyph glyph-name="parenleft" unicode="(" horiz-adv-x="524" 
d="M246 -369q-156 329 -156 701q0 341 134.5 660.5t367.5 604.5h37q-113 -149 -197.5 -289.5t-153.5 -301t-105 -336t-36 -361.5q0 -54 3 -106t10.5 -101.5t14 -89.5t19 -86.5t19.5 -73.5t22 -69.5t20 -57t20 -53.5t16 -41h-35z" />
    <glyph glyph-name="parenright" unicode=")" horiz-adv-x="522" 
d="M-113 -369q113 153 195.5 291t152.5 299t106 337t36 364q0 116 -14 222t-43.5 205t-42.5 134.5t-44 113.5h37q154 -340 154 -698q0 -343 -135 -666t-367 -602h-35z" />
    <glyph glyph-name="asterisk" unicode="*" horiz-adv-x="786" 
d="M768 1305l-246 -70l115 -195l-43 -28l-107 198l-172 -198l-34 28l180 195l-221 70l22 47l217 -82l39 246h49l-51 -246l246 82z" />
    <glyph glyph-name="plus" unicode="+" horiz-adv-x="1030" 
d="M934 723l-6 -37h-385l-66 -375h-41l66 375h-385l6 37h387l65 375h41l-65 -375h383z" />
    <glyph glyph-name="comma" unicode="," horiz-adv-x="374" 
d="M-125 -297l207 383h57l-219 -383h-45z" />
    <glyph glyph-name="hyphen" unicode="-" horiz-adv-x="819" 
d="M145 565l7 37h499l-6 -37h-500z" />
    <glyph glyph-name="period" unicode="." horiz-adv-x="382" 
d="M88 -20q-21 0 -34 14t-13 35q0 23 18 40t41 17q21 0 34 -14t13 -35q0 -23 -18 -40t-41 -17z" />
    <glyph glyph-name="slash" unicode="/" horiz-adv-x="739" 
d="M-45 -205l807 1802h43l-807 -1802h-43z" />
    <glyph glyph-name="zero" unicode="0" horiz-adv-x="1236" 
d="M516 -20q-183 0 -286 144.5t-103 395.5q0 120 21 242t60 235t97.5 211.5t129.5 171t161 114.5t188 42q183 0 286.5 -146t103.5 -397q0 -182 -47.5 -361.5t-130.5 -325t-209 -236t-271 -90.5zM520 20q108 0 205.5 59t169.5 158t125 225t79.5 264t26.5 271
q0 231 -90.5 364.5t-253.5 133.5q-91 0 -175 -41.5t-149.5 -113t-119.5 -166.5t-89.5 -203.5t-55 -224t-19.5 -226.5q0 -233 91 -366.5t255 -133.5z" />
    <glyph glyph-name="one" unicode="1" horiz-adv-x="606" 
d="M217 0l260 1475h-311l8 41h358l-268 -1516h-47z" />
    <glyph glyph-name="two" unicode="2" horiz-adv-x="1099" 
d="M-10 0l6 33l536 485q15 13 46 41q45 40 69 61.5t67.5 63t68.5 68.5t62 69t59 74.5t47 76t38.5 82t23 83t9.5 88.5q0 127 -85.5 198.5t-236.5 71.5q-173 0 -296.5 -99.5t-151.5 -260.5l-49 6q32 179 168 287t331 108q171 0 271 -83t100 -228q0 -83 -34.5 -172t-77 -154.5
t-123.5 -152.5t-128 -130t-137 -123q-12 -11 -18 -16l-487 -436h825l-8 -41h-895z" />
    <glyph glyph-name="three" unicode="3" horiz-adv-x="1120" 
d="M1130 1516l-6 -33l-737 -666q81 19 172 19q193 0 304.5 -94t111.5 -253q0 -147 -78 -264.5t-209 -181t-289 -63.5q-141 0 -241.5 47.5t-145.5 140.5l27 33q96 -181 360 -181q146 0 266 60.5t189.5 169t69.5 242.5q0 139 -102 221t-279 82q-147 0 -267 -54l-10 27l785 707
h-762l8 41h833z" />
    <glyph glyph-name="four" unicode="4" horiz-adv-x="1189" 
d="M725 0l63 356h-788l8 45l985 1115h47l-198 -1119h245l-6 -41h-245l-64 -356h-47zM59 397h738l184 1043z" />
    <glyph glyph-name="five" unicode="5" horiz-adv-x="1132" 
d="M403 -20q-278 0 -397 149l21 35q115 -144 376 -144q230 0 384.5 142t154.5 354q0 147 -94.5 233.5t-259.5 86.5q-154 0 -340 -50l-37 7l233 723h668l-8 -41h-621l-213 -646q172 48 330 48q183 0 288 -97.5t105 -261.5q0 -156 -79 -280t-213.5 -191t-297.5 -67z" />
    <glyph glyph-name="six" unicode="6" horiz-adv-x="1105" 
d="M614 907q179 0 282 -98t103 -266q0 -155 -71.5 -284t-198.5 -204t-283 -75q-181 0 -284 98t-103 266q0 101 36.5 200.5t101.5 176.5l663 795h58l-578 -689q129 80 274 80zM455 20q141 0 254.5 70.5t175 188.5t61.5 258q0 151 -91.5 240t-250.5 89q-141 0 -255 -71
t-176 -189t-62 -258q0 -151 92 -239.5t252 -88.5z" />
    <glyph glyph-name="seven" unicode="7" horiz-adv-x="980" 
d="M180 1516h907l-833 -1516h-53l811 1475h-840z" />
    <glyph glyph-name="eight" unicode="8" horiz-adv-x="1181" 
d="M754 784q123 -29 191.5 -112.5t68.5 -204.5q0 -140 -71.5 -252t-194.5 -173.5t-273 -61.5q-184 0 -289.5 90t-105.5 243q0 178 111 306t288 167q-106 29 -164.5 106.5t-58.5 186.5q0 200 140.5 328.5t348.5 128.5q166 0 263.5 -84.5t97.5 -226.5q0 -163 -97.5 -281.5
t-254.5 -159.5zM305 1075q0 -125 82.5 -197.5t228.5 -72.5q188 0 313.5 121t125.5 297q0 125 -83.5 198.5t-228.5 73.5q-187 0 -312.5 -121t-125.5 -299zM479 20q206 0 345 128.5t139 320.5q0 134 -93.5 214.5t-255.5 80.5q-204 0 -344.5 -129.5t-140.5 -319.5
q0 -136 94 -215.5t256 -79.5z" />
    <glyph glyph-name="nine" unicode="9" horiz-adv-x="1105" 
d="M700 1536q180 0 283.5 -98.5t103.5 -266.5q0 -101 -36 -200t-101 -176l-663 -795h-58l578 688q-129 -80 -275 -80q-179 0 -282 98.5t-103 266.5q0 155 71.5 284t198.5 204t283 75zM543 649q141 0 255 71t176 189t62 258q0 151 -92 239.5t-252 88.5q-141 0 -254.5 -70.5
t-175 -188t-61.5 -257.5q0 -152 91.5 -241t250.5 -89z" />
    <glyph glyph-name="colon" unicode=":" horiz-adv-x="425" 
d="M276 979q-21 0 -34 14t-13 35q0 23 18 40t42 17q21 0 34 -14t13 -35q0 -23 -18 -40t-42 -17zM100 -20q-21 0 -34 14t-13 35q0 23 18 40t42 17q21 0 34 -14t13 -35q0 -23 -18 -40t-42 -17z" />
    <glyph glyph-name="semicolon" unicode=";" horiz-adv-x="544" 
d="M346 979q-21 0 -34 14t-13 35q0 23 18 40t41 17q21 0 34.5 -14t13.5 -35q0 -23 -18 -40t-42 -17zM-25 -297l207 383h58l-220 -383h-45z" />
    <glyph glyph-name="less" unicode="&#x3c;" horiz-adv-x="993" 
d="M780 287l-694 420l4 20l842 420l-8 -43l-772 -389l636 -385z" />
    <glyph glyph-name="equal" unicode="=" horiz-adv-x="1150" 
d="M217 932l6 37h811l-6 -37h-811zM131 440l6 37h811l-6 -37h-811z" />
    <glyph glyph-name="greater" unicode="&#x3e;" horiz-adv-x="989" 
d="M84 287l8 43l778 387l-643 387l9 43l694 -420l-4 -20z" />
    <glyph glyph-name="question" unicode="?" horiz-adv-x="1024" 
d="M436 246l-39 4q15 84 37 157.5t43.5 126t53.5 101.5t55 78.5t61 63.5t59 50.5t60 44.5q56 42 91 73.5t66.5 73.5t45.5 92.5t14 113.5q0 125 -86.5 197.5t-239.5 72.5q-167 0 -289 -94t-153 -246l-47 6q35 169 169.5 272t321.5 103q173 0 274 -83.5t101 -223.5
q0 -69 -16 -125.5t-50.5 -103.5t-73.5 -83.5t-99 -80.5q-40 -30 -60.5 -46t-58.5 -50t-60 -62t-53 -74.5t-51.5 -95.5t-41 -116.5t-34.5 -145.5zM373 -20q-17 0 -29 12t-12 31q0 21 14.5 34t34.5 13q17 0 29 -12t12 -31q0 -21 -14.5 -34t-34.5 -13z" />
    <glyph glyph-name="at" unicode="@" horiz-adv-x="2101" 
d="M1223 1542q353 0 560.5 -194.5t207.5 -522.5q0 -130 -31.5 -259t-88 -235.5t-144 -172.5t-189.5 -66q-92 0 -143.5 56t-51.5 151q0 6 5 51q-60 -121 -168.5 -192.5t-255.5 -71.5q-164 0 -257.5 93t-93.5 251q0 148 62.5 271.5t178.5 197.5t261 74q144 0 229.5 -72
t104.5 -196l10 59l33 192h41l-102 -589q-7 -44 -7 -68q0 -80 40.5 -125t115.5 -45q73 0 139 43t114 114t83 161.5t52.5 187.5t17.5 190q0 311 -195.5 495.5t-529.5 184.5q-242 0 -445.5 -86t-345 -240t-220.5 -375t-79 -485q0 -339 205.5 -546t540.5 -207q119 0 278 22
t285 60l16 -33q-128 -39 -287.5 -62.5t-287.5 -23.5q-236 0 -416.5 98t-279.5 277t-99 413q0 273 82 501t230 387.5t360 248t465 88.5zM930 123q168 0 292 112.5t156 294.5l2 11q6 43 6 84q0 144 -82 227.5t-227 83.5q-131 0 -237.5 -71t-164 -186t-57.5 -247
q0 -143 83 -226t229 -83z" />
    <glyph glyph-name="A" unicode="A" horiz-adv-x="1429" 
d="M1253 0l-127 473h-880l-295 -473h-53l948 1516h47l412 -1516h-52zM270 514h846l-254 950z" />
    <glyph glyph-name="B" unicode="B" horiz-adv-x="1357" 
d="M891 784q145 -15 228 -97.5t83 -211.5q0 -137 -71.5 -246.5t-192.5 -169t-268 -59.5h-553l268 1516h492q182 0 287.5 -84t105.5 -224q0 -167 -103.5 -277t-275.5 -147zM424 1475l-119 -676h440q200 0 337 115t137 290q0 124 -98.5 197.5t-266.5 73.5h-430zM659 41
q207 0 349.5 122.5t142.5 305.5q0 133 -97.5 211t-265.5 78h-489l-127 -717h487z" />
    <glyph glyph-name="C" unicode="C" horiz-adv-x="1394" 
d="M733 -20q-281 0 -443.5 162.5t-162.5 439.5q0 154 41.5 298.5t120 262.5t184.5 206.5t243 137.5t288 49q255 0 423 -152l-8 -47q-152 158 -418 158q-177 0 -332.5 -74.5t-262.5 -199.5t-168.5 -291t-61.5 -346q0 -259 150 -411.5t411 -152.5q269 0 488 166l-11 -57
q-213 -149 -481 -149z" />
    <glyph glyph-name="D" unicode="D" horiz-adv-x="1523" 
d="M829 1516q284 0 446.5 -161.5t162.5 -436.5q0 -190 -66 -359t-180.5 -292t-277.5 -195t-349 -72h-448l268 1516h444zM549 41q179 0 336 69.5t266.5 187.5t172 278.5t62.5 338.5q0 258 -154.5 409t-426.5 151h-381l-252 -1434h377z" />
    <glyph glyph-name="E" unicode="E" horiz-adv-x="1232" 
d="M1233 1475h-809l-119 -678h768l-8 -41h-768l-125 -715h829l-8 -41h-876l268 1516h856z" />
    <glyph glyph-name="F" unicode="F" horiz-adv-x="1089" 
d="M1151 1475h-727l-127 -719h668l-9 -41h-665l-127 -715h-47l268 1516h774z" />
    <glyph glyph-name="G" unicode="G" horiz-adv-x="1599" 
d="M1542 764v-6q0 -141 -45 -265.5t-123.5 -217t-182.5 -160t-224.5 -101.5t-247.5 -34q-275 0 -432.5 161.5t-157.5 438.5q0 153 40 297t116.5 263t180.5 208t239 138.5t284 49.5q147 0 253.5 -32.5t205.5 -114.5l-35 -33q-160 139 -426 139q-140 0 -267.5 -48.5t-225 -135
t-169.5 -201t-109.5 -251t-37.5 -279.5q0 -258 146 -409t401 -151q115 0 226 31.5t207 93t170 145.5t117.5 196t47.5 237h-561l8 41h602z" />
    <glyph glyph-name="H" unicode="H" horiz-adv-x="1591" 
d="M1470 1516h48l-269 -1516h-47l133 748h-1038l-133 -748h-47l268 1516h47l-129 -728h1038z" />
    <glyph glyph-name="I" unicode="I" horiz-adv-x="505" 
d="M117 0l268 1516h47l-268 -1516h-47z" />
    <glyph glyph-name="J" unicode="J" horiz-adv-x="808" 
d="M172 -20q-75 0 -141 27t-99 73l19 31q37 -44 97.5 -67.5t127.5 -23.5q120 0 203.5 78t105.5 205l215 1213h48l-218 -1229q-25 -142 -119.5 -224.5t-238.5 -82.5z" />
    <glyph glyph-name="K" unicode="K" horiz-adv-x="1339" 
d="M1450 1516l-713 -738l459 -778h-57l-447 758h-393l-135 -758h-47l268 1516h47l-127 -717h393l691 717h61z" />
    <glyph glyph-name="L" unicode="L" horiz-adv-x="1040" 
d="M172 41h754l-8 -41h-801l268 1516h47z" />
    <glyph glyph-name="M" unicode="M" horiz-adv-x="2002" 
d="M1851 1536h37l-188 -1536h-47l174 1411l-916 -1411h-45l-415 1417l-326 -1417h-47l352 1536h37l430 -1475z" />
    <glyph glyph-name="N" unicode="N" horiz-adv-x="1673" 
d="M117 0l268 1516h35l880 -1426l252 1426h47l-268 -1516h-35l-880 1425l-252 -1425h-47z" />
    <glyph glyph-name="O" unicode="O" horiz-adv-x="1695" 
d="M733 -20q-281 0 -443.5 162.5t-162.5 439.5q0 154 41.5 298.5t120 262.5t184.5 206.5t243 137.5t288 49q282 0 444 -163.5t162 -442.5q0 -153 -41.5 -296.5t-120 -261t-185 -206t-243 -137.5t-287.5 -49zM737 20q176 0 331.5 75t262.5 200.5t168.5 291.5t61.5 345
q0 259 -150 411t-410 152q-177 0 -332.5 -74.5t-262.5 -199.5t-168.5 -291t-61.5 -346q0 -259 150 -411.5t411 -152.5z" />
    <glyph glyph-name="P" unicode="P" horiz-adv-x="1273" 
d="M883 1516q185 0 292 -96.5t107 -258.5q0 -223 -156 -374.5t-387 -151.5h-463l-112 -635h-47l268 1516h498zM721 676q217 0 363.5 140.5t146.5 342.5q0 145 -98.5 230.5t-266.5 85.5h-442l-141 -799h438z" />
    <glyph glyph-name="Q" unicode="Q" horiz-adv-x="1699" 
d="M1610 930q0 -202 -72.5 -384.5t-202.5 -314.5l246 -231h-63l-213 201q-242 -221 -572 -221q-281 0 -443.5 162.5t-162.5 439.5q0 154 41.5 298.5t120 262.5t184.5 206.5t243 137.5t288 49q282 0 444 -163.5t162 -442.5zM737 20q307 0 533 213l-264 248h63l231 -217
q124 128 192.5 302.5t68.5 365.5q0 259 -150 411t-410 152q-177 0 -332.5 -74.5t-262.5 -199.5t-168.5 -291t-61.5 -346q0 -259 150 -411.5t411 -152.5z" />
    <glyph glyph-name="R" unicode="R" horiz-adv-x="1376" 
d="M1305 1169q0 -189 -124.5 -323t-318.5 -168l336 -678h-57l-332 670q-20 -2 -64 -2h-462l-119 -668h-47l268 1516h496q196 0 310 -94t114 -253zM741 709q217 0 363.5 130t146.5 328q0 142 -103 225t-282 83h-442l-135 -766h452z" />
    <glyph glyph-name="S" unicode="S" horiz-adv-x="1214" 
d="M477 -20q-145 0 -259 41.5t-169 125.5l31 35q121 -162 393 -162q149 0 272.5 50t197 143t73.5 209q0 62 -28 112t-83.5 89t-120.5 68.5t-157 58.5l-109 34q-65 20 -114 44t-94.5 60t-70 87.5t-24.5 116.5q0 130 74 232t200 157t279 55q286 0 412 -176l-35 -31
q-123 166 -383 166q-212 0 -354 -113.5t-142 -283.5q0 -47 16 -86t40.5 -66.5t64 -51t77 -38.5t87.5 -31l117 -37q66 -21 111 -38.5t104 -49t95 -66.5t61.5 -88t25.5 -116q0 -134 -80 -238t-213 -158t-295 -54z" />
    <glyph glyph-name="T" unicode="T" horiz-adv-x="1110" 
d="M1241 1516l-8 -41h-510l-260 -1475h-47l260 1475h-510l8 41h1067z" />
    <glyph glyph-name="U" unicode="U" horiz-adv-x="1597" 
d="M686 -20q-235 0 -371.5 116.5t-136.5 313.5q0 44 10 106l177 1000h47l-179 -1002q-8 -47 -8 -98q0 -182 123.5 -289t339.5 -107q244 0 418.5 137.5t214.5 360.5l176 998h47l-178 -1004q-43 -241 -229.5 -386.5t-450.5 -145.5z" />
    <glyph glyph-name="V" unicode="V" horiz-adv-x="1433" 
d="M580 0l-412 1516h51l389 -1469l914 1469h53l-948 -1516h-47z" />
    <glyph glyph-name="W" unicode="W" horiz-adv-x="2199" 
d="M469 0l-289 1516h51l273 -1453l725 1453h51l211 -1453l786 1453h52l-826 -1516h-47l-213 1440l-727 -1440h-47z" />
    <glyph glyph-name="X" unicode="X" horiz-adv-x="1236" 
d="M1321 1516l-645 -736l430 -780h-55l-414 741l-672 -741h-55l704 778l-383 738h56l366 -697l613 697h55z" />
    <glyph glyph-name="Y" unicode="Y" horiz-adv-x="1277" 
d="M502 0l116 659l-425 857h57l397 -807l686 807h62l-729 -857l-117 -659h-47z" />
    <glyph glyph-name="Z" unicode="Z" horiz-adv-x="1112" 
d="M1196 1516l-1163 -1475h915l-8 -41h-993l1163 1475h-891l8 41h969z" />
    <glyph glyph-name="bracketleft" unicode="[" horiz-adv-x="663" 
d="M39 -369l346 1966h399l-6 -36h-358l-334 -1893h358l-6 -37h-399z" />
    <glyph glyph-name="backslash" unicode="\" horiz-adv-x="722" 
d="M436 -205l-172 1802h43l172 -1802h-43z" />
    <glyph glyph-name="bracketright" unicode="]" horiz-adv-x="663" 
d="M616 1597l-346 -1966h-399l6 37h359l333 1893h-358l6 36h399z" />
    <glyph glyph-name="asciicircum" unicode="^" horiz-adv-x="868" 
d="M766 684h-49l-174 537l-359 -537h-53l395 586h49z" />
    <glyph glyph-name="underscore" unicode="_" horiz-adv-x="968" 
d="M-68 -37l7 37h866l-6 -37h-867z" />
    <glyph glyph-name="grave" unicode="`" horiz-adv-x="1228" 
d="M424 1270l-227 286h63l207 -286h-43z" />
    <glyph glyph-name="a" unicode="a" horiz-adv-x="1103" 
d="M225 1065h766l-188 -1065h-41l39 217l16 88q-77 -150 -218 -237.5t-298 -87.5q-133 0 -211 65t-78 176q0 112 67 196t174 125.5t236 41.5q199 0 367 -49l88 493h-725zM313 16q63 0 130 20t132.5 61.5t121 98t96.5 135t57 167.5q-168 49 -358 49q-183 0 -310 -89
t-127 -235q0 -96 68.5 -151.5t189.5 -55.5z" />
    <glyph glyph-name="b" unicode="b" horiz-adv-x="1337" 
d="M793 1085q198 0 312 -116t114 -314q0 -137 -46.5 -261t-127.5 -215t-197 -145t-248 -54q-192 0 -298.5 91t-127.5 246l-14 -79l-43 -238h-41l282 1597h41l-149 -847q74 155 212.5 245t330.5 90zM594 16q167 0 302 89.5t207.5 235t72.5 314.5q0 181 -106 287.5t-292 106.5
q-213 0 -369.5 -143.5t-197.5 -375.5l-2 -16q-8 -49 -8 -104q0 -181 105 -287.5t288 -106.5z" />
    <glyph glyph-name="c" unicode="c" horiz-adv-x="970" 
d="M500 -20q-194 0 -306 116t-112 312q0 135 45.5 258.5t124.5 216t194 147.5t246 55q143 0 242 -96l-6 -43q-92 103 -240 103q-162 0 -292.5 -92t-199.5 -238t-69 -313q0 -180 100.5 -285t276.5 -105q148 0 278 105l-8 -49q-128 -92 -274 -92z" />
    <glyph glyph-name="d" unicode="d" horiz-adv-x="1335" 
d="M1276 1597h41l-283 -1597h-41l43 238l15 75q-75 -154 -213.5 -243.5t-329.5 -89.5q-198 0 -312 116t-114 314q0 183 78.5 337.5t221 246t318.5 91.5q192 0 298.5 -91t127.5 -246zM522 16q213 0 370 143.5t198 375.5l2 8q8 55 8 112q0 181 -105 287.5t-288 106.5
q-167 0 -302 -89.5t-207.5 -235t-72.5 -314.5q0 -181 105.5 -287.5t291.5 -106.5z" />
    <glyph glyph-name="e" unicode="e" horiz-adv-x="1167" 
d="M1049 514h-914q-8 -47 -8 -108q0 -180 94 -285t260 -105q125 0 244 62t213 168l27 -31q-204 -235 -488 -235q-185 0 -290 115t-105 313q0 181 73 335t209 248t306 94q185 0 291 -112t106 -303q0 -82 -18 -156zM666 1049q-201 0 -343 -143t-182 -355h869q12 61 12 119
q0 176 -94.5 277.5t-261.5 101.5z" />
    <glyph glyph-name="f" unicode="f" horiz-adv-x="714" 
d="M868 1561h-438l-88 -496h430l-6 -37h-430l-182 -1028h-41l182 1028h-195l6 37h195l94 532h479z" />
    <glyph glyph-name="g" unicode="g" horiz-adv-x="1337" 
d="M1186 1065h41l-269 -1516h-1003l6 37h965l127 729q-74 -155 -212.5 -245t-330.5 -90q-198 0 -312 116t-114 314q0 183 78.5 337.5t221 246t318.5 91.5q192 0 298.5 -91t127.5 -246l15 79zM524 16q213 0 370 143.5t198 375.5q10 59 10 120q0 181 -105 287.5t-288 106.5
q-167 0 -302 -89.5t-207.5 -235t-72.5 -314.5q0 -181 105.5 -287.5t291.5 -106.5z" />
    <glyph glyph-name="h" unicode="h" horiz-adv-x="1269" 
d="M725 1085q179 0 283 -90t104 -243q0 -22 -8 -80l-119 -672h-41l117 659q8 58 8 80q0 143 -94 226.5t-256 83.5q-188 0 -321.5 -108.5t-164.5 -285.5l-116 -655h-41l282 1597h41l-135 -770q132 258 461 258z" />
    <glyph glyph-name="i" unicode="i" horiz-adv-x="425" 
d="M352 1415q-17 0 -29 12t-12 31q0 21 14.5 34t34.5 13q17 0 29 -12t12 -31q0 -21 -14.5 -34t-34.5 -13zM80 0l188 1065h41l-188 -1065h-41z" />
    <glyph glyph-name="j" unicode="j" horiz-adv-x="425" 
d="M352 1415q-17 0 -29 12t-12 31q0 21 14.5 34t34.5 13q17 0 29 -12t12 -31q0 -21 -14.5 -34t-34.5 -13zM0 -451l268 1516h41l-268 -1516h-41z" />
    <glyph glyph-name="k" unicode="k" horiz-adv-x="1101" 
d="M1135 1065l-562 -506l398 -559h-56l-383 541h-319l-96 -541h-41l282 1597h41l-180 -1019h313l543 487h60z" />
    <glyph glyph-name="l" unicode="l" horiz-adv-x="479" 
d="M84 0l283 1597h41l-277 -1560h246l-6 -37h-287z" />
    <glyph glyph-name="m" unicode="m" horiz-adv-x="1972" 
d="M1466 1085q164 0 257.5 -87.5t93.5 -237.5q0 -42 -9 -88l-118 -672h-41l116 659q9 46 9 89q0 139 -83 220t-227 81q-169 0 -291 -108.5t-153 -285.5l-117 -655h-41l117 659q8 41 8 89q0 139 -82.5 220t-226.5 81q-169 0 -291.5 -108.5t-153.5 -285.5l-116 -655h-41
l188 1065h41l-41 -231q126 251 420 251q150 0 241 -77.5t103 -210.5q59 131 169.5 209.5t268.5 78.5z" />
    <glyph glyph-name="n" unicode="n" horiz-adv-x="1269" 
d="M725 1085q179 0 283 -90t104 -243q0 -22 -8 -80l-119 -672h-41l117 659q8 58 8 80q0 143 -94 226.5t-256 83.5q-188 0 -321.5 -108.5t-164.5 -285.5l-116 -655h-41l188 1065h41l-43 -240q133 260 463 260z" />
    <glyph glyph-name="o" unicode="o" horiz-adv-x="1263" 
d="M518 -20q-203 0 -319.5 117.5t-116.5 316.5q0 184 80.5 337.5t225 243.5t323.5 90q201 0 317.5 -117.5t116.5 -316.5q0 -183 -80.5 -336.5t-225 -244t-321.5 -90.5zM522 16q166 0 300 89t206 234.5t72 315.5q0 181 -105 287.5t-288 106.5q-126 0 -235.5 -52t-184 -139
t-117.5 -204t-43 -244q0 -181 105 -287.5t290 -106.5z" />
    <glyph glyph-name="p" unicode="p" horiz-adv-x="1335" 
d="M791 1085q198 0 312 -116t114 -314q0 -137 -46.5 -261t-127.5 -215t-197 -145t-248 -54q-192 0 -298.5 91t-127.5 246l-135 -768h-41l268 1516h41l-43 -238l-14 -75q75 154 213.5 243.5t329.5 89.5zM592 16q167 0 302 89.5t207.5 235t72.5 314.5q0 181 -106 287.5
t-292 106.5q-213 0 -369.5 -143.5t-197.5 -375.5l-2 -16q-8 -49 -8 -104q0 -181 105 -287.5t288 -106.5z" />
    <glyph glyph-name="q" unicode="q" horiz-adv-x="1337" 
d="M1184 1065h41l-269 -1516h-41l136 766q-74 -155 -212.5 -245t-330.5 -90q-198 0 -312 116t-114 314q0 183 78.5 337.5t221 246t318.5 91.5q192 0 298.5 -91t127.5 -246l15 79zM522 16q213 0 370 143.5t198 375.5l2 16q8 49 8 104q0 181 -105 287.5t-288 106.5
q-167 0 -302 -89.5t-207.5 -235t-72.5 -314.5q0 -181 105.5 -287.5t291.5 -106.5z" />
    <glyph glyph-name="r" unicode="r" horiz-adv-x="698" 
d="M76 0l188 1065h41l-43 -238q68 134 190.5 196t305.5 62l-8 -36q-216 0 -350 -105.5t-167 -288.5l-116 -655h-41z" />
    <glyph glyph-name="s" unicode="s" horiz-adv-x="915" 
d="M338 -20q-107 0 -191.5 26.5t-126.5 75.5l27 27q93 -93 293 -93q155 0 264 81.5t109 199.5q0 143 -219 211l-129 41q-109 35 -167.5 84t-58.5 133q0 140 111.5 229.5t277.5 89.5q183 0 316 -86l-25 -34q-113 84 -291 84q-147 0 -245.5 -78.5t-98.5 -194.5q0 -72 50 -113
t147 -73l129 -41q246 -78 246 -246q0 -94 -56 -168.5t-151 -114.5t-211 -40z" />
    <glyph glyph-name="t" unicode="t" horiz-adv-x="622" 
d="M727 1065l-6 -37h-299l-182 -1028h-41l182 1028h-299l6 37h299l55 313h41l-55 -313h299z" />
    <glyph glyph-name="u" unicode="u" horiz-adv-x="1241" 
d="M508 -20q-179 0 -282 89.5t-103 241.5q0 24 8 82l119 672h41l-117 -659q-8 -58 -8 -82q0 -142 91.5 -225t250.5 -83q184 0 315 108.5t162 285.5l117 655h41l-119 -676q-32 -185 -174 -297t-342 -112z" />
    <glyph glyph-name="v" unicode="v" horiz-adv-x="1097" 
d="M414 0l-308 1065h48l290 -1014l652 1014h47l-684 -1065h-45z" />
    <glyph glyph-name="w" unicode="w" horiz-adv-x="1849" 
d="M356 0l-245 1065h47l229 -1014l590 1014h47l229 -1014l590 1014h47l-622 -1065h-45l-232 1010l-590 -1010h-45z" />
    <glyph glyph-name="x" unicode="x" horiz-adv-x="1044" 
d="M1059 1065l-522 -518l358 -547h-55l-338 516l-520 -516h-56l553 545l-340 520h54l321 -490l492 490h53z" />
    <glyph glyph-name="y" unicode="y" horiz-adv-x="1253" 
d="M1100 1065h41l-269 -1516h-882l6 37h844l114 650q-133 -256 -452 -256q-176 0 -277.5 90t-101.5 241q0 24 8 82l119 672h41l-117 -659q-8 -58 -8 -82q0 -142 91.5 -225t250.5 -83q184 0 315 108.5t162 285.5z" />
    <glyph glyph-name="z" unicode="z" horiz-adv-x="954" 
d="M-47 0l915 1028h-725l7 37h804l-915 -1028h743l-6 -37h-823z" />
    <glyph glyph-name="braceleft" unicode="{" horiz-adv-x="745" 
d="M328 -389q-91 0 -144 56t-53 151q0 28 6 63l74 420q10 54 10 113q0 180 -139 180h-23l9 41h18q82 0 147.5 82.5t88.5 214.5l75 420q22 122 99 194t186 72q94 0 180 -25l-8 -41q-95 25 -180 25t-149 -65t-83 -169l-73 -419q-22 -120 -77.5 -205t-125.5 -105q48 -15 75 -66
t27 -134q0 -62 -10 -113l-74 -420q-6 -30 -6 -61q0 -77 40.5 -122.5t111.5 -45.5q92 0 194 24l-8 -41q-94 -24 -188 -24z" />
    <glyph glyph-name="bar" unicode="|" horiz-adv-x="483" 
d="M25 -451l362 2048h47l-362 -2048h-47z" />
    <glyph glyph-name="braceright" unicode="}" horiz-adv-x="747" 
d="M410 1618q91 0 143.5 -56t52.5 -151q0 -29 -6 -63l-74 -420q-10 -54 -10 -113q0 -180 139 -180h23l-8 -41h-19q-82 0 -147 -82.5t-88 -214.5l-76 -420q-22 -122 -99 -194t-186 -72q-97 0 -180 24l8 41q92 -24 180 -24q85 0 149 64.5t83 168.5l74 420q22 120 77 204.5
t125 104.5q-48 15 -75 66.5t-27 134.5q0 62 10 113l74 420q6 30 6 61q0 77 -40 122.5t-111 45.5q-89 0 -195 -25l8 41q98 25 189 25z" />
    <glyph glyph-name="asciitilde" unicode="~" horiz-adv-x="1136" 
d="M737 500q-46 0 -85.5 17.5t-68 43t-56 51t-63.5 43t-77 17.5q-73 0 -130 -41.5t-69 -110.5h-41q15 86 85 141.5t159 55.5q46 0 86 -17.5t68.5 -43t56.5 -51t63.5 -43t75.5 -17.5q73 0 130 41.5t69 109.5h41q-13 -86 -83.5 -141t-160.5 -55z" />
    <glyph glyph-name="uni00A0" unicode="&#xa0;" horiz-adv-x="573" 
 />
    <glyph glyph-name="exclamdown" unicode="&#xa1;" horiz-adv-x="446" 
d="M291 995q-17 0 -29 12t-12 31q0 21 14.5 34t34.5 13q17 0 29 -12t12 -31q0 -21 -14.5 -34t-34.5 -13zM6 -451l230 1268h40l-221 -1268h-49z" />
    <glyph glyph-name="cent" unicode="&#xa2;" horiz-adv-x="1120" 
d="M1026 1047q-109 101 -281 104l-182 -1032q92 2 183.5 36t166.5 97l23 -35q-159 -132 -379 -135l-29 -164h-43l29 164q-187 9 -293 124.5t-106 305.5q0 178 74.5 328.5t211.5 243.5t308 102l28 166h43l-28 -164q183 -3 305 -113zM160 512q0 -171 96 -276t264 -115
l182 1028q-158 -9 -283 -99t-192 -232t-67 -306z" />
    <glyph glyph-name="sterling" unicode="&#xa3;" horiz-adv-x="1134" 
d="M772 1536q150 0 236 -80.5t86 -216.5q0 -29 -7 -76l-47 -2q7 44 7 72q0 121 -73.5 191.5t-203.5 70.5q-149 0 -258 -95t-137 -249l-76 -430h651l-6 -41h-653l-111 -639h719l-6 -41h-891l8 41h123l113 639h-103l7 41h102l80 446q29 167 149.5 268t290.5 101z" />
    <glyph glyph-name="currency" unicode="&#xa4;" horiz-adv-x="1196" 
d="M1055 776q0 -103 -45.5 -199.5t-124.5 -168.5l84 -105l-31 -31l-88 107q-145 -113 -315 -113t-277 113l-125 -107l-27 29l127 107q-71 93 -71 223q0 104 47 200.5t127 169.5l-88 105l37 29l84 -105q143 111 315 111t277 -115l124 109l25 -31l-125 -107q70 -95 70 -221z
M279 418q94 -115 258 -115q121 0 231 67t177 177t67 231q0 139 -93 232.5t-237 93.5q-120 0 -230.5 -66.5t-178.5 -176.5t-68 -228q0 -120 65 -203z" />
    <glyph glyph-name="yen" unicode="&#xa5;" horiz-adv-x="1333" 
d="M1417 1516l-723 -848h373l-8 -41h-377l-25 -142h377l-8 -41h-377l-78 -444h-47l78 444h-377l8 41h377l25 142h-377l8 41h371l-422 848h57l398 -807l686 807h61z" />
    <glyph glyph-name="brokenbar" unicode="&#xa6;" horiz-adv-x="477" 
d="M240 778l145 819h47l-145 -819h-47zM23 -451l145 820h47l-145 -820h-47z" />
    <glyph glyph-name="section" unicode="&#xa7;" horiz-adv-x="1148" 
d="M743 1618q260 0 373 -176l-33 -31q-111 166 -346 166q-193 0 -322.5 -115t-129.5 -288q0 -56 19.5 -99.5t59 -75t78.5 -51.5t97 -41l102 -37q59 -21 99.5 -38.5t93.5 -48.5t85 -65.5t55 -86.5t23 -113q0 -101 -45.5 -189.5t-122.5 -148.5q76 -86 76 -198
q0 -132 -74.5 -237t-197.5 -160.5t-271 -55.5q-132 0 -236 42t-153 126l31 35q107 -162 354 -162q136 0 249 50.5t180 144t67 210.5q0 61 -24.5 110.5t-74 88t-107.5 67.5t-140 58l-98 35q-59 21 -103 44.5t-84.5 59t-62 85t-21.5 112.5q0 102 44.5 192t125.5 150
q-76 76 -76 190q0 132 68.5 236t184.5 159.5t257 55.5zM602 831l-98 35q-95 32 -162 82q-71 -56 -111.5 -136.5t-40.5 -170.5q0 -56 19.5 -99.5t59 -74.5t78.5 -51t97 -41l103 -37q177 -65 250 -127q71 57 111 136t40 161q0 61 -24.5 110.5t-74 88t-107.5 67t-140 57.5z" />
    <glyph glyph-name="dieresis" unicode="&#xa8;" horiz-adv-x="1228" 
d="M365 1415q-17 0 -28 12t-11 29q0 23 16.5 36t34.5 13q17 0 28 -12t11 -29q0 -23 -16.5 -36t-34.5 -13zM711 1415q-17 0 -28 12t-11 29q0 23 16.5 36t34.5 13q17 0 28 -12t11 -29q0 -23 -16.5 -36t-34.5 -13z" />
    <glyph glyph-name="copyright" unicode="&#xa9;" horiz-adv-x="1728" 
d="M750 -20q-289 0 -454 163t-165 441q0 195 66 369.5t182 303t282.5 204t358.5 75.5q289 0 454.5 -164t165.5 -444q0 -193 -67 -367t-183 -302t-283 -203.5t-357 -75.5zM754 20q180 0 337.5 74t266 198.5t171 290.5t62.5 347q0 261 -153 413t-420 152q-181 0 -338.5 -74
t-266.5 -198t-171 -290t-62 -347q0 -261 153 -413.5t421 -152.5zM821 324q-160 0 -252 90t-92 245q0 143 63 262.5t176 189t253 69.5q181 0 284 -140l-34 -26q-89 125 -250 125q-127 0 -229.5 -66.5t-158 -176t-55.5 -237.5q0 -137 79 -217t218 -80q94 0 179.5 42t146.5 112
l29 -35q-147 -157 -357 -157z" />
    <glyph glyph-name="ordfeminine" unicode="&#xaa;" horiz-adv-x="792" 
d="M535 1536q99 0 156 -54.5t57 -144.5q0 -18 -5 -53l-71 -403h-43l24 137l4 29q-45 -83 -126 -131t-169 -48q-83 0 -130.5 40.5t-47.5 109.5q0 102 84 160.5t205 58.5q107 0 213 -27l12 68q4 24 4 49q0 80 -47 126t-131 46q-118 0 -207 -86l-18 33q96 90 236 90zM375 903
q94 0 184.5 70t118.5 186l2 19q-99 26 -201 26q-105 0 -177.5 -50t-72.5 -134q0 -54 38.5 -85.5t107.5 -31.5z" />
    <glyph glyph-name="guillemotleft" unicode="&#xab;" horiz-adv-x="1028" 
d="M365 102l-275 451l434 451h45l-428 -451l269 -451h-45zM772 102l-274 451l434 451h45l-428 -451l268 -451h-45z" />
    <glyph glyph-name="logicalnot" unicode="&#xac;" horiz-adv-x="1144" 
d="M1014 825l-58 -325h-41l52 288h-770l6 37h811z" />
    <glyph glyph-name="uni00AD" unicode="&#xad;" horiz-adv-x="819" 
d="M145 565l7 37h499l-6 -37h-500z" />
    <glyph glyph-name="registered" unicode="&#xae;" horiz-adv-x="856" 
d="M594 1618q118 0 187 -66.5t69 -179.5q0 -160 -102.5 -268.5t-258.5 -108.5q-118 0 -185.5 66.5t-67.5 181.5q0 157 102 266t256 109zM496 1022q140 0 231.5 105t91.5 247q0 99 -62 158t-169 59q-92 0 -167 -50t-115 -130.5t-40 -171.5q0 -100 61.5 -158.5t168.5 -58.5z
M678 1386q0 -39 -24.5 -67t-63.5 -39l69 -141h-43l-63 135h-6h-86l-25 -135h-37l60 334h129q41 0 65.5 -24t24.5 -63zM545 1305q40 0 68 22.5t28 58.5q0 27 -17 42.5t-49 15.5h-83l-27 -139h80z" />
    <glyph glyph-name="macron" unicode="&#xaf;" horiz-adv-x="1228" 
d="M309 1362l6 37h562l-7 -37h-561z" />
    <glyph glyph-name="degree" unicode="&#xb0;" horiz-adv-x="708" 
d="M444 1155q-96 0 -151 50.5t-55 137.5q0 119 80.5 197t201.5 78q96 0 151.5 -50.5t55.5 -137.5q0 -119 -81 -197t-202 -78zM449 1192q101 0 167 69.5t66 165.5q0 71 -44 112.5t-122 41.5q-101 0 -167 -69.5t-66 -165.5q0 -71 44 -112.5t122 -41.5z" />
    <glyph glyph-name="plusminus" unicode="&#xb1;" horiz-adv-x="1142" 
d="M625 838h364l-6 -39h-365l-65 -373h-39l66 373h-365l6 39h365l65 372h39zM115 225l6 39h768l-6 -39h-768z" />
    <glyph glyph-name="uni00B2" unicode="&#xb2;" horiz-adv-x="692" 
d="M102 811l7 31l323 295q7 7 35.5 32.5t39 35t37 35t38.5 38.5t34 38t32.5 42t25.5 42t21.5 46t12 45.5t5.5 48.5q0 72 -48 112t-133 40q-98 0 -168 -56.5t-85 -148.5l-50 6q20 108 104 174t202 66q105 0 166 -51t61 -140q0 -37 -11.5 -75.5t-24.5 -67.5t-44.5 -69.5
t-48 -60.5t-60.5 -62t-56.5 -53.5t-59.5 -53.5l-281 -250l481 2l-8 -41h-547z" />
    <glyph glyph-name="uni00B3" unicode="&#xb3;" horiz-adv-x="698" 
d="M791 1720l-7 -30l-419 -379q36 8 86 8q116 0 182.5 -57t66.5 -154q0 -135 -101 -222t-249 -87q-177 0 -237 110l24 33q55 -102 213 -102q127 0 214 76t87 192q0 79 -58 125.5t-159 46.5q-82 0 -158 -31l-10 25l447 405h-434l6 41h506z" />
    <glyph glyph-name="acute" unicode="&#xb4;" horiz-adv-x="1228" 
d="M416 1270l307 286h70l-328 -286h-49z" />
    <glyph glyph-name="paragraph" unicode="&#xb6;" horiz-adv-x="1064" 
d="M977 1516l-348 -1967h-47l340 1926h-256l-340 -1926h-47l235 1332h-137q-102 0 -158.5 63.5t-56.5 173.5q0 166 102 282t258 116h455z" />
    <glyph glyph-name="periodcentered" unicode="&#xb7;" horiz-adv-x="425" 
d="M197 532q-21 0 -34 14.5t-13 35.5q0 23 18 40t41 17q21 0 34 -14t13 -35q0 -23 -18 -40.5t-41 -17.5z" />
    <glyph glyph-name="cedilla" unicode="&#xb8;" horiz-adv-x="1228" 
d="M129 -152q87 0 137.5 -36.5t50.5 -98.5q0 -85 -74 -134.5t-180 -49.5q-115 0 -180 65l25 31q55 -55 153 -55q87 0 148 40t61 103q0 46 -41 72.5t-112 26.5q-58 0 -117 -19l-10 25l151 182h47l-133 -158q34 6 74 6z" />
    <glyph glyph-name="uni00B9" unicode="&#xb9;" horiz-adv-x="397" 
d="M236 811l153 868h-180l6 41h227l-159 -909h-47z" />
    <glyph glyph-name="ordmasculine" unicode="&#xba;" horiz-adv-x="868" 
d="M475 868q-125 0 -196.5 71.5t-71.5 193.5q0 169 108.5 286t272.5 117q124 0 196 -71.5t72 -192.5q0 -169 -109 -286.5t-272 -117.5zM477 905q144 0 238 109t94 260q0 102 -59.5 162.5t-163.5 60.5q-144 0 -239 -108.5t-95 -258.5q0 -103 60 -164t165 -61z" />
    <glyph glyph-name="guillemotright" unicode="&#xbb;" horiz-adv-x="1028" 
d="M225 1004l275 -451l-434 -451h-46l429 451l-269 451h45zM633 1004l274 -451l-434 -451h-45l428 451l-268 451h45z" />
    <glyph glyph-name="onequarter" unicode="&#xbc;" horiz-adv-x="1437" 
d="M27 -20l-31 24l1167 1532l33 -25zM199 606l153 869h-180l6 41h228l-160 -910h-47zM1085 0l37 209h-467l7 39l587 661h43l-116 -659h145l-8 -41h-144l-36 -209h-48zM711 248h419l103 583z" />
    <glyph glyph-name="onehalf" unicode="&#xbd;" horiz-adv-x="1447" 
d="M27 -20l-31 24l1167 1532l33 -25zM199 606l153 869h-180l6 41h228l-160 -910h-47zM715 0l6 31l323 295q7 7 35.5 32.5t39 35t37 35t38.5 38.5t34 38t32.5 42t25.5 42t21.5 46t12 45.5t5.5 48.5q0 72 -47.5 112t-132.5 40q-99 0 -169 -56.5t-85 -148.5l-49 6
q20 108 103.5 174t201.5 66q105 0 166 -51t61 -140q0 -37 -11.5 -75.5t-24.5 -67.5t-44.5 -69.5t-48 -60.5t-60.5 -62t-56.5 -53.5t-59.5 -53.5l-281 -250l482 2l-8 -41h-547z" />
    <glyph glyph-name="threequarters" unicode="&#xbe;" horiz-adv-x="1738" 
d="M1464 1536l33 -25l-1169 -1531l-31 24zM664 903q0 -135 -101.5 -222t-249.5 -87q-177 0 -237 111l24 32q55 -102 213 -102q127 0 214 76t87 192q0 79 -58 125.5t-159 46.5q-81 0 -157 -31l-11 25l447 406h-434l6 41h506l-6 -31l-420 -379q36 8 86 8q116 0 183 -57
t67 -154zM1477 250h145l-8 -41h-144l-36 -209h-48l37 209h-467l7 39l587 661h43zM1432 248l102 583l-522 -583h420z" />
    <glyph glyph-name="questiondown" unicode="&#xbf;" horiz-adv-x="1005" 
d="M596 995q-17 0 -29 12t-12 31q0 21 14.5 34t34.5 13q17 0 29 -12t12 -31q0 -21 -14.5 -34t-34.5 -13zM317 -471q-172 0 -273 83.5t-101 223.5q0 69 16 125.5t50.5 103.5t73.5 83.5t99 80.5q40 30 60.5 46t58.5 50t60 62t53 74.5t51.5 95.5t41 116.5t34.5 145.5l39 -4
q-15 -84 -37 -157.5t-43.5 -126t-53.5 -101.5t-55 -78.5t-61 -63.5t-59 -50.5t-60 -44.5q-56 -42 -91 -73.5t-66.5 -73.5t-45.5 -92.5t-14 -113.5q0 -125 86 -197.5t239 -72.5q167 0 289.5 94t153.5 246l47 -6q-35 -169 -170 -272t-322 -103z" />
    <glyph glyph-name="Agrave" unicode="&#xc0;" horiz-adv-x="1429" 
d="M928 1720h-43l-228 287h64zM1253 0l-127 473h-880l-295 -473h-53l948 1516h47l412 -1516h-52zM270 514h846l-254 950z" />
    <glyph glyph-name="Aacute" unicode="&#xc1;" horiz-adv-x="1429" 
d="M1251 2007l-327 -287h-50l308 287h69zM1253 0l-127 473h-880l-295 -473h-53l948 1516h47l412 -1516h-52zM270 514h846l-254 950z" />
    <glyph glyph-name="Acircumflex" unicode="&#xc2;" horiz-adv-x="1429" 
d="M950 1976l-286 -256h-50l314 287h57l211 -287h-49zM1253 0l-127 473h-880l-295 -473h-53l948 1516h47l412 -1516h-52zM270 514h846l-254 950z" />
    <glyph glyph-name="Atilde" unicode="&#xc3;" horiz-adv-x="1429" 
d="M776 1921q-57 0 -103.5 -41.5t-58.5 -110.5h-41q13 86 73 141.5t134 55.5q40 0 74.5 -17.5t59 -43t48.5 -51t54.5 -43t64.5 -17.5q57 0 103.5 41.5t58.5 110.5h41q-15 -86 -74.5 -141.5t-132.5 -55.5q-40 0 -74.5 17.5t-59 43t-48.5 51t-54.5 43t-64.5 17.5zM1253 0
l-127 473h-880l-295 -473h-53l948 1516h47l412 -1516h-52zM270 514h846l-254 950z" />
    <glyph glyph-name="Adieresis" unicode="&#xc4;" horiz-adv-x="1429" 
d="M760 1866q-17 0 -28 12t-11 29q0 23 16.5 36t34.5 13q17 0 28 -12t11 -29q0 -23 -16.5 -36t-34.5 -13zM1106 1866q-17 0 -28 12t-11 29q0 23 16.5 36t34.5 13q17 0 28 -12t11 -29q0 -23 -16.5 -36t-34.5 -13zM1253 0l-127 473h-880l-295 -473h-53l948 1516h47l412 -1516
h-52zM270 514h846l-254 950z" />
    <glyph glyph-name="Aring" unicode="&#xc5;" horiz-adv-x="1429" 
d="M895 1647q-81 0 -128.5 45.5t-47.5 122.5q0 109 69.5 181t176.5 72q83 0 130.5 -46t47.5 -124q0 -106 -71.5 -178.5t-176.5 -72.5zM963 2034q-89 0 -146 -66t-57 -156q0 -60 36.5 -95.5t100.5 -35.5q89 0 147 67t58 153q0 62 -36.5 97.5t-102.5 35.5zM1253 0l-127 473
h-880l-295 -473h-53l948 1516h47l412 -1516h-52zM270 514h846l-254 950z" />
    <glyph glyph-name="AE" unicode="&#xc6;" horiz-adv-x="2148" 
d="M2146 1475h-1069l80 -678h830l-9 -41h-817l84 -715h670l-8 -41h-709l-53 473h-856l-355 -473h-51l1133 1516h1138zM319 514h822l-109 954z" />
    <glyph glyph-name="Ccedilla" unicode="&#xc7;" horiz-adv-x="1394" 
d="M1004 1536q255 0 423 -152l-8 -47q-152 158 -418 158q-177 0 -332.5 -74.5t-262.5 -199.5t-168.5 -291t-61.5 -346q0 -259 150 -411.5t411 -152.5q269 0 488 166l-11 -57q-202 -143 -464 -149l-117 -138q35 6 74 6q87 0 137.5 -36.5t50.5 -98.5q0 -85 -74 -134.5
t-180 -49.5q-115 0 -180 65l24 31q55 -55 154 -55q87 0 148 40t61 103q0 46 -41.5 72.5t-112.5 26.5q-57 0 -116 -19l-11 25l135 162q-267 9 -421 171.5t-154 430.5q0 154 41.5 298.5t120 262.5t184.5 206.5t243 137.5t288 49z" />
    <glyph glyph-name="Egrave" unicode="&#xc8;" horiz-adv-x="1232" 
d="M870 1720h-43l-227 287h64zM1233 1475h-809l-119 -678h768l-8 -41h-768l-125 -715h829l-8 -41h-876l268 1516h856z" />
    <glyph glyph-name="Eacute" unicode="&#xc9;" horiz-adv-x="1232" 
d="M1194 2007l-328 -287h-49l307 287h70zM1233 1475h-809l-119 -678h768l-8 -41h-768l-125 -715h829l-8 -41h-876l268 1516h856z" />
    <glyph glyph-name="Ecircumflex" unicode="&#xca;" horiz-adv-x="1232" 
d="M893 1976l-287 -256h-49l313 287h58l211 -287h-49zM1233 1475h-809l-119 -678h768l-8 -41h-768l-125 -715h829l-8 -41h-876l268 1516h856z" />
    <glyph glyph-name="Edieresis" unicode="&#xcb;" horiz-adv-x="1232" 
d="M702 1866q-17 0 -27.5 11.5t-10.5 29.5q0 23 16.5 36t34.5 13q17 0 28 -12t11 -29q0 -23 -17 -36t-35 -13zM1049 1866q-17 0 -28 12t-11 29q0 23 16.5 36t34.5 13q17 0 28 -12t11 -29q0 -23 -16.5 -36t-34.5 -13zM1233 1475h-809l-119 -678h768l-8 -41h-768l-125 -715
h829l-8 -41h-876l268 1516h856z" />
    <glyph glyph-name="Igrave" unicode="&#xcc;" horiz-adv-x="505" 
d="M424 1720l-227 287h63l207 -287h-43zM117 0l268 1516h47l-268 -1516h-47z" />
    <glyph glyph-name="Iacute" unicode="&#xcd;" horiz-adv-x="505" 
d="M414 1720l307 287h70l-328 -287h-49zM117 0l268 1516h47l-268 -1516h-47z" />
    <glyph glyph-name="Icircumflex" unicode="&#xce;" horiz-adv-x="505" 
d="M735 1720h-49l-197 256l-286 -256h-49l313 287h57zM117 0l268 1516h47l-268 -1516h-47z" />
    <glyph glyph-name="Idieresis" unicode="&#xcf;" horiz-adv-x="505" 
d="M299 1866q-17 0 -28 12t-11 29q0 23 16.5 36t34.5 13q17 0 28 -12t11 -29q0 -23 -16.5 -36t-34.5 -13zM645 1866q-17 0 -28 12t-11 29q0 23 16.5 36t34.5 13q17 0 28 -12t11 -29q0 -23 -16.5 -36t-34.5 -13zM117 0l268 1516h47l-268 -1516h-47z" />
    <glyph glyph-name="Eth" unicode="&#xd0;" horiz-adv-x="1523" 
d="M829 1516q284 0 446.5 -161.5t162.5 -436.5q0 -190 -66 -359t-180.5 -292t-277.5 -195t-349 -72h-448l131 743h-185l7 37h184l131 736h444zM549 41q179 0 336 69.5t266.5 187.5t172 278.5t62.5 338.5q0 258 -154.5 409t-426.5 151h-381l-123 -695h473l-6 -37h-473
l-123 -702h377z" />
    <glyph glyph-name="Ntilde" unicode="&#xd1;" horiz-adv-x="1673" 
d="M1200 1749q-40 0 -74.5 17.5t-59 43t-48.5 51t-54.5 43t-64.5 17.5q-57 0 -103.5 -41.5t-58.5 -110.5h-41q13 86 73 141.5t134 55.5q40 0 74.5 -17.5t59 -43t48.5 -51t54.5 -43t64.5 -17.5q57 0 103.5 41.5t58.5 110.5h41q-15 -86 -74.5 -141.5t-132.5 -55.5zM117 0
l268 1516h35l880 -1426l252 1426h47l-268 -1516h-35l-880 1425l-252 -1425h-47z" />
    <glyph glyph-name="Ograve" unicode="&#xd2;" horiz-adv-x="1695" 
d="M1018 1720l-227 287h63l207 -287h-43zM733 -20q-281 0 -443.5 162.5t-162.5 439.5q0 154 41.5 298.5t120 262.5t184.5 206.5t243 137.5t288 49q282 0 444 -163.5t162 -442.5q0 -153 -41.5 -296.5t-120 -261t-185 -206t-243 -137.5t-287.5 -49zM737 20q176 0 331.5 75
t262.5 200.5t168.5 291.5t61.5 345q0 259 -150 411t-410 152q-177 0 -332.5 -74.5t-262.5 -199.5t-168.5 -291t-61.5 -346q0 -259 150 -411.5t411 -152.5z" />
    <glyph glyph-name="Oacute" unicode="&#xd3;" horiz-adv-x="1695" 
d="M1008 1720l307 287h69l-327 -287h-49zM733 -20q-281 0 -443.5 162.5t-162.5 439.5q0 154 41.5 298.5t120 262.5t184.5 206.5t243 137.5t288 49q282 0 444 -163.5t162 -442.5q0 -153 -41.5 -296.5t-120 -261t-185 -206t-243 -137.5t-287.5 -49zM737 20q176 0 331.5 75
t262.5 200.5t168.5 291.5t61.5 345q0 259 -150 411t-410 152q-177 0 -332.5 -74.5t-262.5 -199.5t-168.5 -291t-61.5 -346q0 -259 150 -411.5t411 -152.5z" />
    <glyph glyph-name="Ocircumflex" unicode="&#xd4;" horiz-adv-x="1695" 
d="M1083 1976l-286 -256h-49l313 287h57l211 -287h-49zM1004 1536q282 0 444 -163.5t162 -442.5q0 -153 -41.5 -296.5t-120 -261t-185 -206t-243 -137.5t-287.5 -49q-281 0 -443.5 162.5t-162.5 439.5q0 154 41.5 298.5t120 262.5t184.5 206.5t243 137.5t288 49zM737 20
q176 0 331.5 75t262.5 200.5t168.5 291.5t61.5 345q0 259 -150 411t-410 152q-177 0 -332.5 -74.5t-262.5 -199.5t-168.5 -291t-61.5 -346q0 -259 150 -411.5t411 -152.5z" />
    <glyph glyph-name="Otilde" unicode="&#xd5;" horiz-adv-x="1695" 
d="M1210 1749q-40 0 -74.5 17.5t-59 43t-48.5 51t-54.5 43t-64.5 17.5q-57 0 -103 -41.5t-58 -110.5h-41q13 86 73 141.5t133 55.5q40 0 74.5 -17.5t59 -43t48.5 -51t54.5 -43t64.5 -17.5q57 0 103.5 41.5t58.5 110.5h41q-15 -86 -74.5 -141.5t-132.5 -55.5zM733 -20
q-281 0 -443.5 162.5t-162.5 439.5q0 154 41.5 298.5t120 262.5t184.5 206.5t243 137.5t288 49q282 0 444 -163.5t162 -442.5q0 -153 -41.5 -296.5t-120 -261t-185 -206t-243 -137.5t-287.5 -49zM737 20q176 0 331.5 75t262.5 200.5t168.5 291.5t61.5 345q0 259 -150 411
t-410 152q-177 0 -332.5 -74.5t-262.5 -199.5t-168.5 -291t-61.5 -346q0 -259 150 -411.5t411 -152.5z" />
    <glyph glyph-name="Odieresis" unicode="&#xd6;" horiz-adv-x="1695" 
d="M893 1866q-17 0 -28 12t-11 29q0 23 16.5 36t34.5 13q17 0 28 -12t11 -29q0 -23 -16.5 -36t-34.5 -13zM1239 1866q-17 0 -28 12t-11 29q0 23 16.5 36t34.5 13q17 0 28 -12t11 -29q0 -23 -16.5 -36t-34.5 -13zM733 -20q-281 0 -443.5 162.5t-162.5 439.5q0 154 41.5 298.5
t120 262.5t184.5 206.5t243 137.5t288 49q282 0 444 -163.5t162 -442.5q0 -153 -41.5 -296.5t-120 -261t-185 -206t-243 -137.5t-287.5 -49zM737 20q176 0 331.5 75t262.5 200.5t168.5 291.5t61.5 345q0 259 -150 411t-410 152q-177 0 -332.5 -74.5t-262.5 -199.5
t-168.5 -291t-61.5 -346q0 -259 150 -411.5t411 -152.5z" />
    <glyph glyph-name="multiply" unicode="&#xd7;" horiz-adv-x="989" 
d="M903 1020l-373 -318l261 -315l-31 -27l-260 318l-373 -318l-23 27l373 318l-260 315l31 27l260 -316l373 316z" />
    <glyph glyph-name="Oslash" unicode="&#xd8;" horiz-adv-x="1695" 
d="M1724 1503l-219 -200q105 -151 105 -373q0 -153 -41.5 -296.5t-120 -261t-185 -206t-243 -137.5t-287.5 -49q-309 0 -471 192l-211 -192l-28 32l213 195q-109 153 -109 375q0 154 41.5 298.5t120 262.5t184.5 206.5t243 137.5t288 49q153 0 274.5 -51t200.5 -146l215 197
zM176 584q0 -205 94 -344l1174 1067q-149 188 -443 188q-177 0 -332.5 -74.5t-262.5 -199.5t-168.5 -291t-61.5 -346zM1561 932q0 195 -93 340l-1171 -1067q149 -185 440 -185q176 0 331.5 75t262.5 200.5t168.5 291.5t61.5 345z" />
    <glyph glyph-name="Ugrave" unicode="&#xd9;" horiz-adv-x="1597" 
d="M969 1720l-228 287h64l207 -287h-43zM686 -20q-235 0 -371.5 116.5t-136.5 313.5q0 44 10 106l177 1000h47l-179 -1002q-8 -47 -8 -98q0 -182 123.5 -289t339.5 -107q244 0 418.5 137.5t214.5 360.5l176 998h47l-178 -1004q-43 -241 -229.5 -386.5t-450.5 -145.5z" />
    <glyph glyph-name="Uacute" unicode="&#xda;" horiz-adv-x="1597" 
d="M958 1720l308 287h69l-327 -287h-50zM686 -20q-235 0 -371.5 116.5t-136.5 313.5q0 44 10 106l177 1000h47l-179 -1002q-8 -47 -8 -98q0 -182 123.5 -289t339.5 -107q244 0 418.5 137.5t214.5 360.5l176 998h47l-178 -1004q-43 -241 -229.5 -386.5t-450.5 -145.5z" />
    <glyph glyph-name="Ucircumflex" unicode="&#xdb;" horiz-adv-x="1597" 
d="M1034 1976l-286 -256h-50l314 287h57l211 -287h-49zM1497 1516h47l-178 -1004q-43 -241 -229.5 -386.5t-450.5 -145.5q-235 0 -371.5 116.5t-136.5 313.5q0 44 10 106l177 1000h47l-179 -1002q-8 -47 -8 -98q0 -182 123.5 -289t339.5 -107q244 0 418.5 137.5t214.5 360.5
z" />
    <glyph glyph-name="Udieresis" unicode="&#xdc;" horiz-adv-x="1597" 
d="M844 1866q-17 0 -28 12t-11 29q0 23 16.5 36t34.5 13q17 0 28 -12t11 -29q0 -23 -16.5 -36t-34.5 -13zM1190 1866q-17 0 -28 12t-11 29q0 23 16.5 36t34.5 13q17 0 28 -12t11 -29q0 -23 -16.5 -36t-34.5 -13zM686 -20q-235 0 -371.5 116.5t-136.5 313.5q0 44 10 106
l177 1000h47l-179 -1002q-8 -47 -8 -98q0 -182 123.5 -289t339.5 -107q244 0 418.5 137.5t214.5 360.5l176 998h47l-178 -1004q-43 -241 -229.5 -386.5t-450.5 -145.5z" />
    <glyph glyph-name="Yacute" unicode="&#xdd;" horiz-adv-x="1277" 
d="M799 1720l307 287h70l-328 -287h-49zM502 0l116 659l-425 857h57l397 -807l686 807h62l-729 -857l-117 -659h-47z" />
    <glyph glyph-name="Thorn" unicode="&#xde;" horiz-adv-x="1282" 
d="M829 1208q185 0 292.5 -96t107.5 -258q0 -223 -156 -374.5t-387 -151.5h-465l-57 -328h-47l268 1516h47l-55 -308h452zM668 369q217 0 363.5 140.5t146.5 342.5q0 145 -98 230t-267 85h-442l-142 -798h439z" />
    <glyph glyph-name="germandbls" unicode="&#xdf;" horiz-adv-x="1204" 
d="M492 -20q-83 0 -148 24l6 37q65 -25 144 -25q149 0 270.5 65t190.5 178t69 251q0 150 -104 238t-285 88l6 36q189 0 317.5 123.5t128.5 307.5q0 128 -84 203t-231 75q-167 0 -287.5 -98t-148.5 -258l-217 -1225h-41l217 1235q31 173 162 278t317 105q165 0 262 -85
t97 -228q0 -164 -102 -288t-265 -161q141 -28 221 -121t80 -231q0 -150 -76.5 -270.5t-207.5 -187t-291 -66.5z" />
    <glyph glyph-name="agrave" unicode="&#xe0;" horiz-adv-x="1103" 
d="M668 1270h-43l-228 286h64zM225 1065h766l-188 -1065h-41l39 217l16 88q-77 -150 -218 -237.5t-298 -87.5q-133 0 -211 65t-78 176q0 112 67 196t174 125.5t236 41.5q199 0 367 -49l88 493h-725zM313 16q63 0 130 20t132.5 61.5t121 98t96.5 135t57 167.5
q-168 49 -358 49q-183 0 -310 -89t-127 -235q0 -96 68.5 -151.5t189.5 -55.5z" />
    <glyph glyph-name="aacute" unicode="&#xe1;" horiz-adv-x="1103" 
d="M991 1556l-327 -286h-50l308 286h69zM219 1028l6 37h766l-188 -1065h-41l39 217l16 88q-77 -150 -218 -237.5t-298 -87.5q-133 0 -211 65t-78 176q0 112 67 196t174 125.5t236 41.5q199 0 367 -49l88 493h-725zM313 16q63 0 130 20t132.5 61.5t121 98t96.5 135t57 167.5
q-168 49 -358 49q-183 0 -310 -89t-127 -235q0 -96 68.5 -151.5t189.5 -55.5z" />
    <glyph glyph-name="acircumflex" unicode="&#xe2;" horiz-adv-x="1103" 
d="M690 1526l-287 -256h-49l314 286h57l211 -286h-49zM225 1065h766l-188 -1065h-41l39 217l16 88q-77 -150 -218 -237.5t-298 -87.5q-133 0 -211 65t-78 176q0 112 67 196t174 125.5t236 41.5q199 0 367 -49l88 493h-725zM313 16q63 0 130 20t132.5 61.5t121 98t96.5 135
t57 167.5q-168 49 -358 49q-183 0 -310 -89t-127 -235q0 -96 68.5 -151.5t189.5 -55.5z" />
    <glyph glyph-name="atilde" unicode="&#xe3;" horiz-adv-x="1103" 
d="M516 1470q-57 0 -103.5 -41.5t-58.5 -109.5h-41q13 86 73 141.5t134 55.5q40 0 74.5 -18t59 -43t48.5 -50.5t54.5 -43.5t64.5 -18q57 0 103.5 41.5t58.5 110.5h41q-15 -86 -74.5 -141.5t-132.5 -55.5q-40 0 -74.5 17.5t-59 43t-48.5 51t-54.5 43t-64.5 17.5zM219 1028
l6 37h766l-188 -1065h-41l39 217l16 88q-77 -150 -218 -237.5t-298 -87.5q-133 0 -211 65t-78 176q0 112 67 196t174 125.5t236 41.5q199 0 367 -49l88 493h-725zM313 16q63 0 130 20t132.5 61.5t121 98t96.5 135t57 167.5q-168 49 -358 49q-183 0 -310 -89t-127 -235
q0 -96 68.5 -151.5t189.5 -55.5z" />
    <glyph glyph-name="adieresis" unicode="&#xe4;" horiz-adv-x="1103" 
d="M500 1415q-17 0 -28 12t-11 29q0 23 16.5 36t34.5 13q17 0 28 -12t11 -29q0 -23 -16.5 -36t-34.5 -13zM846 1415q-17 0 -28 12t-11 29q0 23 16.5 36t34.5 13q17 0 28 -12t11 -29q0 -23 -16.5 -36t-34.5 -13zM225 1065h766l-188 -1065h-41l39 217l16 88
q-77 -150 -218 -237.5t-298 -87.5q-133 0 -211 65t-78 176q0 112 67 196t174 125.5t236 41.5q199 0 367 -49l88 493h-725zM313 16q63 0 130 20t132.5 61.5t121 98t96.5 135t57 167.5q-168 49 -358 49q-183 0 -310 -89t-127 -235q0 -96 68.5 -151.5t189.5 -55.5z" />
    <glyph glyph-name="aring" unicode="&#xe5;" horiz-adv-x="1103" 
d="M635 1196q-81 0 -128.5 45.5t-47.5 122.5q0 109 69.5 181.5t176.5 72.5q83 0 130.5 -46t47.5 -124q0 -106 -71.5 -179t-176.5 -73zM702 1583q-89 0 -145.5 -65.5t-56.5 -155.5q0 -60 36.5 -95.5t100.5 -35.5q89 0 147 66.5t58 152.5q0 62 -37 97.5t-103 35.5zM225 1065
h766l-188 -1065h-41l39 217l16 88q-77 -150 -218 -237.5t-298 -87.5q-133 0 -211 65t-78 176q0 112 67 196t174 125.5t236 41.5q199 0 367 -49l88 493h-725zM313 16q63 0 130 20t132.5 61.5t121 98t96.5 135t57 167.5q-168 49 -358 49q-183 0 -310 -89t-127 -235
q0 -96 68.5 -151.5t189.5 -55.5z" />
    <glyph glyph-name="ae" unicode="&#xe6;" horiz-adv-x="1933" 
d="M1815 514h-914q-8 -47 -8 -108q0 -180 94 -285t260 -105q125 0 244 62t213 168l27 -31q-204 -235 -488 -235q-171 0 -274 101t-115 275q-69 -172 -221 -274t-328 -102q-133 0 -211 65t-78 176q0 112 67 196t174.5 125.5t236.5 41.5q194 0 366 -49l23 124q8 41 8 89
q0 139 -82 220t-227 81q-205 0 -355 -150l-20 35q151 151 383 151q160 0 252 -87t92 -236q76 148 206.5 235.5t295.5 87.5q185 0 291 -112t106 -303q0 -29 -6 -82.5t-12 -73.5zM1432 1049q-201 0 -343 -143t-182 -355h869q12 61 12 119q0 176 -94.5 277.5t-261.5 101.5z
M317 16q61 0 127.5 19.5t131 59t119.5 94t96.5 130.5t58.5 162l4 17q-168 49 -358 49q-183 0 -310 -89t-127 -235q0 -96 68.5 -151.5t189.5 -55.5z" />
    <glyph glyph-name="ccedilla" unicode="&#xe7;" horiz-adv-x="970" 
d="M692 1085q143 0 242 -96l-6 -43q-92 103 -240 103q-162 0 -292.5 -92t-199.5 -238t-69 -313q0 -180 100.5 -285t276.5 -105q148 0 278 105l-8 -49q-125 -89 -268 -92l-117 -138q34 6 74 6q87 0 137.5 -36.5t50.5 -98.5q0 -85 -74 -134.5t-180 -49.5q-115 0 -180 65l25 31
q55 -55 153 -55q87 0 148 40t61 103q0 46 -41 72.5t-112 26.5q-58 0 -117 -19l-10 25l135 164q-176 12 -276.5 126.5t-100.5 299.5q0 135 45.5 258.5t124.5 216t194 147.5t246 55z" />
    <glyph glyph-name="egrave" unicode="&#xe8;" horiz-adv-x="1167" 
d="M725 1270h-43l-227 286h63zM1049 514h-914q-8 -47 -8 -108q0 -180 94 -285t260 -105q125 0 244 62t213 168l27 -31q-204 -235 -488 -235q-185 0 -290 115t-105 313q0 181 73 335t209 248t306 94q185 0 291 -112t106 -303q0 -82 -18 -156zM666 1049q-201 0 -343 -143
t-182 -355h869q12 61 12 119q0 176 -94.5 277.5t-261.5 101.5z" />
    <glyph glyph-name="eacute" unicode="&#xe9;" horiz-adv-x="1167" 
d="M1049 1556l-328 -286h-49l307 286h70zM1049 514h-914q-8 -47 -8 -108q0 -180 94 -285t260 -105q125 0 244 62t213 168l27 -31q-204 -235 -488 -235q-185 0 -290 115t-105 313q0 181 73 335t209 248t306 94q185 0 291 -112t106 -303q0 -82 -18 -156zM666 1049
q-201 0 -343 -143t-182 -355h869q12 61 12 119q0 176 -94.5 277.5t-261.5 101.5z" />
    <glyph glyph-name="ecircumflex" unicode="&#xea;" horiz-adv-x="1167" 
d="M748 1526l-287 -256h-49l313 286h57l211 -286h-49zM1049 514h-914q-8 -47 -8 -108q0 -180 94 -285t260 -105q125 0 244 62t213 168l27 -31q-204 -235 -488 -235q-185 0 -290 115t-105 313q0 181 73 335t209 248t306 94q185 0 291 -112t106 -303q0 -82 -18 -156zM666 1049
q-201 0 -343 -143t-182 -355h869q12 61 12 119q0 176 -94.5 277.5t-261.5 101.5z" />
    <glyph glyph-name="edieresis" unicode="&#xeb;" horiz-adv-x="1167" 
d="M557 1415q-17 0 -28 12t-11 29q0 23 16.5 36t34.5 13q17 0 28 -12t11 -29q0 -23 -16.5 -36t-34.5 -13zM903 1415q-17 0 -28 12t-11 29q0 23 16.5 36t34.5 13q17 0 28 -12t11 -29q0 -23 -16.5 -36t-34.5 -13zM1049 514h-914q-8 -47 -8 -108q0 -180 94 -285t260 -105
q125 0 244 62t213 168l27 -31q-204 -235 -488 -235q-185 0 -290 115t-105 313q0 181 73 335t209 248t306 94q185 0 291 -112t106 -303q0 -82 -18 -156zM666 1049q-201 0 -343 -143t-182 -355h869q12 61 12 119q0 176 -94.5 277.5t-261.5 101.5z" />
    <glyph glyph-name="igrave" unicode="&#xec;" horiz-adv-x="425" 
d="M303 1270l-227 286h63l207 -286h-43zM80 0l188 1065h41l-188 -1065h-41z" />
    <glyph glyph-name="iacute" unicode="&#xed;" horiz-adv-x="425" 
d="M293 1270l307 286h70l-328 -286h-49zM80 0l188 1065h41l-188 -1065h-41z" />
    <glyph glyph-name="icircumflex" unicode="&#xee;" horiz-adv-x="425" 
d="M614 1270h-49l-196 256l-287 -256h-49l313 286h57zM80 0l188 1065h41l-188 -1065h-41z" />
    <glyph glyph-name="idieresis" unicode="&#xef;" horiz-adv-x="425" 
d="M178 1415q-17 0 -28 12t-11 29q0 23 16.5 36t34.5 13q17 0 28 -12t11 -29q0 -23 -16.5 -36t-34.5 -13zM524 1415q-17 0 -28 12t-11 29q0 23 17 36t35 13q17 0 27.5 -11.5t10.5 -29.5q0 -23 -16.5 -36t-34.5 -13zM80 0l188 1065h41l-188 -1065h-41z" />
    <glyph glyph-name="eth" unicode="&#xf0;" horiz-adv-x="1269" 
d="M795 1458q360 -320 360 -731q0 -205 -77 -374t-224 -271t-336 -102q-203 0 -319.5 117.5t-116.5 316.5q0 182 79 335.5t221.5 244.5t317.5 91q162 0 266 -70.5t144 -193.5q-47 351 -352 615l-226 -138l-28 25l225 137q-83 71 -186 133l37 25q108 -68 186 -135l223 135
l29 -25zM522 16q214 0 370.5 144t197.5 377q10 57 10 116q0 182 -105.5 289t-287.5 107q-126 0 -235.5 -52t-184 -139t-117.5 -204t-43 -244q0 -181 105 -287.5t290 -106.5z" />
    <glyph glyph-name="ntilde" unicode="&#xf1;" horiz-adv-x="1269" 
d="M625 1470q-57 0 -103.5 -41.5t-58.5 -109.5h-41q13 86 73 141.5t134 55.5q40 0 74.5 -18t59 -43t48.5 -50.5t54.5 -43.5t64.5 -18q57 0 103.5 41.5t58.5 110.5h41q-15 -86 -74.5 -141.5t-132.5 -55.5q-40 0 -74.5 17.5t-59 43t-48.5 51t-54.5 43t-64.5 17.5zM725 1085
q179 0 283 -90t104 -243q0 -22 -8 -80l-119 -672h-41l117 659q8 58 8 80q0 143 -94 226.5t-256 83.5q-188 0 -321.5 -108.5t-164.5 -285.5l-116 -655h-41l188 1065h41l-43 -240q133 260 463 260z" />
    <glyph glyph-name="ograve" unicode="&#xf2;" horiz-adv-x="1263" 
d="M721 1270l-227 286h63l207 -286h-43zM518 -20q-203 0 -319.5 117.5t-116.5 316.5q0 184 80.5 337.5t225 243.5t323.5 90q201 0 317.5 -117.5t116.5 -316.5q0 -183 -80.5 -336.5t-225 -244t-321.5 -90.5zM522 16q166 0 300 89t206 234.5t72 315.5q0 181 -105 287.5
t-288 106.5q-126 0 -235.5 -52t-184 -139t-117.5 -204t-43 -244q0 -181 105 -287.5t290 -106.5z" />
    <glyph glyph-name="oacute" unicode="&#xf3;" horiz-adv-x="1263" 
d="M711 1270l307 286h69l-327 -286h-49zM518 -20q-203 0 -319.5 117.5t-116.5 316.5q0 184 80.5 337.5t225 243.5t323.5 90q201 0 317.5 -117.5t116.5 -316.5q0 -183 -80.5 -336.5t-225 -244t-321.5 -90.5zM522 16q166 0 300 89t206 234.5t72 315.5q0 181 -105 287.5
t-288 106.5q-126 0 -235.5 -52t-184 -139t-117.5 -204t-43 -244q0 -181 105 -287.5t290 -106.5z" />
    <glyph glyph-name="ocircumflex" unicode="&#xf4;" horiz-adv-x="1263" 
d="M786 1526l-286 -256h-49l313 286h57l211 -286h-49zM711 1085q201 0 317.5 -117.5t116.5 -316.5q0 -183 -80.5 -336.5t-225 -244t-321.5 -90.5q-203 0 -319.5 117.5t-116.5 316.5q0 184 80.5 337.5t225 243.5t323.5 90zM522 16q166 0 300 89t206 234.5t72 315.5
q0 181 -105 287.5t-288 106.5q-126 0 -235.5 -52t-184 -139t-117.5 -204t-43 -244q0 -181 105 -287.5t290 -106.5z" />
    <glyph glyph-name="otilde" unicode="&#xf5;" horiz-adv-x="1263" 
d="M913 1298q-40 0 -74.5 17.5t-59 43t-48.5 51t-54.5 43t-64.5 17.5q-57 0 -103 -41t-58 -110h-41q13 86 73 141.5t133 55.5q40 0 74.5 -18t59.5 -43t49 -50.5t54.5 -43.5t64.5 -18q57 0 103 41.5t58 110.5h41q-15 -86 -74.5 -141.5t-132.5 -55.5zM518 -20
q-203 0 -319.5 117.5t-116.5 316.5q0 184 80.5 337.5t225 243.5t323.5 90q201 0 317.5 -117.5t116.5 -316.5q0 -183 -80.5 -336.5t-225 -244t-321.5 -90.5zM522 16q166 0 300 89t206 234.5t72 315.5q0 181 -105 287.5t-288 106.5q-126 0 -235.5 -52t-184 -139t-117.5 -204
t-43 -244q0 -181 105 -287.5t290 -106.5z" />
    <glyph glyph-name="odieresis" unicode="&#xf6;" horiz-adv-x="1263" 
d="M596 1415q-17 0 -28 12t-11 29q0 23 16.5 36t34.5 13q17 0 28 -12t11 -29q0 -23 -16.5 -36t-34.5 -13zM942 1415q-17 0 -28 12t-11 29q0 23 16.5 36t34.5 13q17 0 28 -12t11 -29q0 -23 -16.5 -36t-34.5 -13zM518 -20q-203 0 -319.5 117.5t-116.5 316.5q0 184 80.5 337.5
t225 243.5t323.5 90q201 0 317.5 -117.5t116.5 -316.5q0 -183 -80.5 -336.5t-225 -244t-321.5 -90.5zM522 16q166 0 300 89t206 234.5t72 315.5q0 181 -105 287.5t-288 106.5q-126 0 -235.5 -52t-184 -139t-117.5 -204t-43 -244q0 -181 105 -287.5t290 -106.5z" />
    <glyph glyph-name="divide" unicode="&#xf7;" horiz-adv-x="1144" 
d="M623 928q-17 0 -28 12t-11 29q0 23 16.5 36t34.5 13q17 0 28 -12t11 -29q0 -23 -16.5 -36t-34.5 -13zM172 686l6 37h811l-6 -37h-811zM528 391q-17 0 -28 12t-11 29q0 23 17 36t35 13q17 0 28 -12t11 -29q0 -23 -17 -36t-35 -13z" />
    <glyph glyph-name="oslash" unicode="&#xf8;" horiz-adv-x="1263" 
d="M1225 1057l-154 -139q74 -113 74 -267q0 -183 -80.5 -336.5t-225 -244t-321.5 -90.5q-217 0 -336 135l-149 -135l-27 28l152 137q-76 112 -76 269q0 184 80.5 337.5t225 243.5t323.5 90q218 0 336 -137l151 137zM127 410q0 -139 63 -236l826 746q-107 129 -309 129
q-126 0 -235.5 -52t-184 -139t-117.5 -204t-43 -244zM1100 655q0 139 -62 234l-825 -746q105 -127 309 -127q166 0 300 89t206 234.5t72 315.5z" />
    <glyph glyph-name="ugrave" unicode="&#xf9;" horiz-adv-x="1241" 
d="M711 1270l-228 286h64l207 -286h-43zM508 -20q-179 0 -282 89.5t-103 241.5q0 24 8 82l119 672h41l-117 -659q-8 -58 -8 -82q0 -142 91.5 -225t250.5 -83q184 0 315 108.5t162 285.5l117 655h41l-119 -676q-32 -185 -174 -297t-342 -112z" />
    <glyph glyph-name="uacute" unicode="&#xfa;" horiz-adv-x="1241" 
d="M700 1270l308 286h69l-327 -286h-50zM508 -20q-179 0 -282 89.5t-103 241.5q0 24 8 82l119 672h41l-117 -659q-8 -58 -8 -82q0 -142 91.5 -225t250.5 -83q184 0 315 108.5t162 285.5l117 655h41l-119 -676q-32 -185 -174 -297t-342 -112z" />
    <glyph glyph-name="ucircumflex" unicode="&#xfb;" horiz-adv-x="1241" 
d="M776 1526l-287 -256h-49l314 286h57l211 -286h-49zM1102 1065h41l-119 -676q-32 -185 -174 -297t-342 -112q-179 0 -282 89.5t-103 241.5q0 24 8 82l119 672h41l-117 -659q-8 -58 -8 -82q0 -142 91.5 -225t250.5 -83q184 0 315 108.5t162 285.5z" />
    <glyph glyph-name="udieresis" unicode="&#xfc;" horiz-adv-x="1241" 
d="M586 1415q-17 0 -28 12t-11 29q0 23 16.5 36t34.5 13q17 0 28 -12t11 -29q0 -23 -16.5 -36t-34.5 -13zM932 1415q-17 0 -28 12t-11 29q0 23 16.5 36t34.5 13q17 0 28 -12t11 -29q0 -23 -16.5 -36t-34.5 -13zM508 -20q-179 0 -282 89.5t-103 241.5q0 24 8 82l119 672h41
l-117 -659q-8 -58 -8 -82q0 -142 91.5 -225t250.5 -83q184 0 315 108.5t162 285.5l117 655h41l-119 -676q-32 -185 -174 -297t-342 -112z" />
    <glyph glyph-name="yacute" unicode="&#xfd;" horiz-adv-x="1253" 
d="M1071 1556l-328 -286h-49l307 286h70zM1100 1065h41l-269 -1516h-882l6 37h844l114 650q-133 -256 -452 -256q-176 0 -277.5 90t-101.5 241q0 24 8 82l119 672h41l-117 -659q-8 -58 -8 -82q0 -142 91.5 -225t250.5 -83q184 0 315 108.5t162 285.5z" />
    <glyph glyph-name="thorn" unicode="&#xfe;" horiz-adv-x="1335" 
d="M791 1085q198 0 312 -116t114 -314q0 -137 -46.5 -261t-127.5 -215t-197 -145t-248 -54q-192 0 -298.5 91t-127.5 246l-135 -768h-41l362 2048h41l-151 -845q75 154 213.5 243.5t329.5 89.5zM592 16q167 0 302 89.5t207.5 235t72.5 314.5q0 181 -106 287.5t-292 106.5
q-213 0 -369.5 -143.5t-197.5 -375.5q-10 -59 -10 -120q0 -181 105 -287.5t288 -106.5z" />
    <glyph glyph-name="ydieresis" unicode="&#xff;" horiz-adv-x="1253" 
d="M580 1415q-17 0 -28 12t-11 29q0 23 16.5 36t34.5 13q17 0 28 -12t11 -29q0 -23 -16.5 -36t-34.5 -13zM926 1415q-17 0 -28 12t-11 29q0 23 16.5 36t34.5 13q17 0 28 -12t11 -29q0 -23 -16.5 -36t-34.5 -13zM1100 1065h41l-269 -1516h-882l6 37h844l114 650
q-133 -256 -452 -256q-176 0 -277.5 90t-101.5 241q0 24 8 82l119 672h41l-117 -659q-8 -58 -8 -82q0 -142 91.5 -225t250.5 -83q184 0 315 108.5t162 285.5z" />
    <glyph glyph-name="Amacron" unicode="&#x100;" horiz-adv-x="1429" 
d="M1208 1849l-6 -37h-561l6 37h561zM1253 0l-127 473h-880l-295 -473h-53l948 1516h47l412 -1516h-52zM270 514h846l-254 950z" />
    <glyph glyph-name="amacron" unicode="&#x101;" horiz-adv-x="1103" 
d="M948 1399l-6 -37h-561l6 37h561zM225 1065h766l-188 -1065h-41l39 217l16 88q-77 -150 -218 -237.5t-298 -87.5q-133 0 -211 65t-78 176q0 112 67 196t174 125.5t236 41.5q199 0 367 -49l88 493h-725zM313 16q63 0 130 20t132.5 61.5t121 98t96.5 135t57 167.5
q-168 49 -358 49q-183 0 -310 -89t-127 -235q0 -96 68.5 -151.5t189.5 -55.5z" />
    <glyph glyph-name="Abreve" unicode="&#x102;" horiz-adv-x="1429" 
d="M905 1700q-115 0 -181.5 65t-66.5 174q0 28 7 68h45q-7 -40 -7 -63q0 -96 54.5 -151.5t150.5 -55.5q112 0 193.5 74.5t103.5 195.5h45q-25 -140 -118.5 -223.5t-225.5 -83.5zM1253 0l-127 473h-880l-295 -473h-53l948 1516h47l412 -1516h-52zM270 514h846l-254 950z" />
    <glyph glyph-name="abreve" unicode="&#x103;" horiz-adv-x="1103" 
d="M645 1249q-115 0 -181.5 65.5t-66.5 174.5q0 32 6 67h46q-7 -40 -7 -63q0 -96 54.5 -151.5t150.5 -55.5q112 0 193.5 74.5t103.5 195.5h45q-25 -140 -118.5 -223.5t-225.5 -83.5zM225 1065h766l-188 -1065h-41l39 217l16 88q-77 -150 -218 -237.5t-298 -87.5
q-133 0 -211 65t-78 176q0 112 67 196t174 125.5t236 41.5q199 0 367 -49l88 493h-725zM313 16q63 0 130 20t132.5 61.5t121 98t96.5 135t57 167.5q-168 49 -358 49q-183 0 -310 -89t-127 -235q0 -96 68.5 -151.5t189.5 -55.5z" />
    <glyph glyph-name="Aogonek" unicode="&#x104;" horiz-adv-x="1429" 
d="M1087 -434q78 0 148 57l2 -37q-72 -57 -156 -57q-60 0 -94.5 32.5t-34.5 86.5q0 85 77.5 179t221.5 183l-125 463h-880l-295 -473h-53l948 1516h47l412 -1516q-153 -92 -230.5 -180.5t-77.5 -165.5q0 -40 24.5 -64t65.5 -24zM270 514h846l-254 950z" />
    <glyph glyph-name="aogonek" unicode="&#x105;" horiz-adv-x="1103" 
d="M803 0q-153 -92 -230 -180.5t-77 -165.5q0 -40 24.5 -64t65.5 -24q77 0 147 57l2 -37q-72 -57 -155 -57q-60 0 -94.5 32.5t-34.5 86.5q0 88 81.5 185t233.5 187l35 197l16 88q-77 -150 -218 -237.5t-298 -87.5q-133 0 -211 65t-78 176q0 112 67 196t174 125.5t236 41.5
q199 0 367 -49l88 493h-725l6 37h766zM313 16q63 0 130 20t132.5 61.5t121 98t96.5 135t57 167.5q-168 49 -358 49q-183 0 -310 -89t-127 -235q0 -96 68.5 -151.5t189.5 -55.5z" />
    <glyph glyph-name="Cacute" unicode="&#x106;" horiz-adv-x="1394" 
d="M995 1720l308 287h69l-328 -287h-49zM733 -20q-281 0 -443.5 162.5t-162.5 439.5q0 154 41.5 298.5t120 262.5t184.5 206.5t243 137.5t288 49q255 0 423 -152l-8 -47q-152 158 -418 158q-177 0 -332.5 -74.5t-262.5 -199.5t-168.5 -291t-61.5 -346q0 -259 150 -411.5
t411 -152.5q269 0 488 166l-11 -57q-213 -149 -481 -149z" />
    <glyph glyph-name="cacute" unicode="&#x107;" horiz-adv-x="970" 
d="M678 1270l307 286h70l-328 -286h-49zM500 -20q-194 0 -306 116t-112 312q0 135 45.5 258.5t124.5 216t194 147.5t246 55q143 0 242 -96l-6 -43q-92 103 -240 103q-162 0 -292.5 -92t-199.5 -238t-69 -313q0 -180 100.5 -285t276.5 -105q148 0 278 105l-8 -49
q-128 -92 -274 -92z" />
    <glyph glyph-name="Cdotaccent" unicode="&#x10a;" horiz-adv-x="1394" 
d="M1057 1866q-17 0 -29 12t-12 31q0 21 14.5 34t34.5 13q17 0 29 -12t12 -31q0 -21 -14.5 -34t-34.5 -13zM733 -20q-281 0 -443.5 162.5t-162.5 439.5q0 154 41.5 298.5t120 262.5t184.5 206.5t243 137.5t288 49q255 0 423 -152l-8 -47q-152 158 -418 158
q-177 0 -332.5 -74.5t-262.5 -199.5t-168.5 -291t-61.5 -346q0 -259 150 -411.5t411 -152.5q269 0 488 166l-11 -57q-213 -149 -481 -149z" />
    <glyph glyph-name="cdotaccent" unicode="&#x10b;" horiz-adv-x="970" 
d="M739 1415q-17 0 -29 12t-12 31q0 21 15 34t35 13q17 0 28.5 -12t11.5 -31q0 -21 -14.5 -34t-34.5 -13zM500 -20q-194 0 -306 116t-112 312q0 135 45.5 258.5t124.5 216t194 147.5t246 55q143 0 242 -96l-6 -43q-92 103 -240 103q-162 0 -292.5 -92t-199.5 -238t-69 -313
q0 -180 100.5 -285t276.5 -105q148 0 278 105l-8 -49q-128 -92 -274 -92z" />
    <glyph glyph-name="Ccaron" unicode="&#x10c;" horiz-adv-x="1394" 
d="M1055 1720h-58l-211 287h50l196 -256l287 256h49zM1004 1536q255 0 423 -152l-8 -47q-152 158 -418 158q-177 0 -332.5 -74.5t-262.5 -199.5t-168.5 -291t-61.5 -346q0 -259 150 -411.5t411 -152.5q269 0 488 166l-11 -57q-213 -149 -481 -149q-281 0 -443.5 162.5
t-162.5 439.5q0 154 41.5 298.5t120 262.5t184.5 206.5t243 137.5t288 49z" />
    <glyph glyph-name="ccaron" unicode="&#x10d;" horiz-adv-x="970" 
d="M737 1270h-57l-211 286h49l197 -256l286 256h50zM82 408q0 135 45.5 258.5t124.5 216t194 147.5t246 55q143 0 242 -96l-6 -43q-92 103 -240 103q-162 0 -292.5 -92t-199.5 -238t-69 -313q0 -180 100.5 -285t276.5 -105q148 0 278 105l-8 -49q-128 -92 -274 -92
q-194 0 -306 116t-112 312z" />
    <glyph glyph-name="Dcaron" unicode="&#x10e;" horiz-adv-x="1523" 
d="M844 1720h-58l-211 287h50l196 -256l287 256h49zM829 1516q284 0 446.5 -161.5t162.5 -436.5q0 -190 -66 -359t-180.5 -292t-277.5 -195t-349 -72h-448l268 1516h444zM549 41q179 0 336 69.5t266.5 187.5t172 278.5t62.5 338.5q0 258 -154.5 409t-426.5 151h-381
l-252 -1434h377z" />
    <glyph glyph-name="dcaron" unicode="&#x10f;" horiz-adv-x="1345" 
d="M1126 748l150 849h41l-283 -1597h-41l43 238l15 75q-75 -154 -213.5 -243.5t-329.5 -89.5q-198 0 -312 116t-114 314q0 183 78.5 337.5t221 246t318.5 91.5q192 0 298.5 -91t127.5 -246zM1554 1597h45l-215 -383h-36zM522 16q213 0 370 143.5t198 375.5l2 8q8 55 8 112
q0 181 -105 287.5t-288 106.5q-167 0 -302 -89.5t-207.5 -235t-72.5 -314.5q0 -181 105.5 -287.5t291.5 -106.5z" />
    <glyph glyph-name="Dcroat" unicode="&#x110;" horiz-adv-x="1523" 
d="M829 1516q284 0 446.5 -161.5t162.5 -436.5q0 -190 -66 -359t-180.5 -292t-277.5 -195t-349 -72h-448l131 743h-185l7 37h184l131 736h444zM549 41q179 0 336 69.5t266.5 187.5t172 278.5t62.5 338.5q0 258 -154.5 409t-426.5 151h-381l-123 -695h473l-6 -37h-473
l-123 -702h377z" />
    <glyph glyph-name="dcroat" unicode="&#x111;" horiz-adv-x="1335" 
d="M1464 1360l-6 -37h-190l-234 -1323h-41l43 238l15 75q-75 -154 -213.5 -243.5t-329.5 -89.5q-198 0 -312 116t-114 314q0 183 78.5 337.5t221 246t318.5 91.5q192 0 298.5 -91t127.5 -246l103 575h-475l6 37h475l41 237h41l-43 -237h190zM522 16q213 0 370 143.5
t198 375.5l2 8q8 55 8 112q0 181 -105 287.5t-288 106.5q-167 0 -302 -89.5t-207.5 -235t-72.5 -314.5q0 -181 105.5 -287.5t291.5 -106.5z" />
    <glyph glyph-name="Emacron" unicode="&#x112;" horiz-adv-x="1232" 
d="M1151 1849l-6 -37h-561l6 37h561zM1233 1475h-809l-119 -678h768l-8 -41h-768l-125 -715h829l-8 -41h-876l268 1516h856z" />
    <glyph glyph-name="emacron" unicode="&#x113;" horiz-adv-x="1167" 
d="M1006 1399l-7 -37h-561l6 37h562zM1049 514h-914q-8 -47 -8 -108q0 -180 94 -285t260 -105q125 0 244 62t213 168l27 -31q-204 -235 -488 -235q-185 0 -290 115t-105 313q0 181 73 335t209 248t306 94q185 0 291 -112t106 -303q0 -82 -18 -156zM666 1049
q-201 0 -343 -143t-182 -355h869q12 61 12 119q0 176 -94.5 277.5t-261.5 101.5z" />
    <glyph glyph-name="Edotaccent" unicode="&#x116;" horiz-adv-x="1232" 
d="M879 1866q-17 0 -29 12t-12 31q0 21 14.5 34t34.5 13q17 0 29 -12t12 -31q0 -21 -14.5 -34t-34.5 -13zM1233 1475h-809l-119 -678h768l-8 -41h-768l-125 -715h829l-8 -41h-876l268 1516h856z" />
    <glyph glyph-name="edotaccent" unicode="&#x117;" horiz-adv-x="1167" 
d="M733 1415q-17 0 -29 12t-12 31q0 21 14.5 34t34.5 13q17 0 29 -12t12 -31q0 -21 -14.5 -34t-34.5 -13zM1049 514h-914q-8 -47 -8 -108q0 -180 94 -285t260 -105q125 0 244 62t213 168l27 -31q-204 -235 -488 -235q-185 0 -290 115t-105 313q0 181 73 335t209 248t306 94
q185 0 291 -112t106 -303q0 -82 -18 -156zM666 1049q-201 0 -343 -143t-182 -355h869q12 61 12 119q0 176 -94.5 277.5t-261.5 101.5z" />
    <glyph glyph-name="Eogonek" unicode="&#x118;" horiz-adv-x="1232" 
d="M1233 1475h-809l-119 -678h768l-8 -41h-768l-125 -715h829l-8 -41q-153 -92 -230 -180.5t-77 -165.5q0 -40 24.5 -64t65.5 -24q78 0 148 57l2 -37q-72 -57 -156 -57q-60 0 -94.5 32.5t-34.5 86.5q0 83 73 173.5t210 178.5h-807l268 1516h856z" />
    <glyph glyph-name="eogonek" unicode="&#x119;" horiz-adv-x="1167" 
d="M1049 514h-914q-8 -47 -8 -108q0 -180 94 -285t260 -105q125 0 244 62t213 168l27 -31q-145 -167 -332 -215q-153 -92 -230 -180.5t-77 -165.5q0 -40 24.5 -64t65.5 -24q77 0 147 57l2 -37q-72 -57 -155 -57q-60 0 -94.5 32.5t-34.5 86.5q0 78 66 164.5t190 169.5
q-20 -2 -60 -2q-185 0 -290 115t-105 313q0 181 73 335t209 248t306 94q185 0 291 -112t106 -303q0 -82 -18 -156zM666 1049q-201 0 -343 -143t-182 -355h869q12 61 12 119q0 176 -94.5 277.5t-261.5 101.5z" />
    <glyph glyph-name="Ecaron" unicode="&#x11a;" horiz-adv-x="1232" 
d="M877 1720h-58l-211 287h49l197 -256l287 256h49zM1233 1475h-809l-119 -678h768l-8 -41h-768l-125 -715h829l-8 -41h-876l268 1516h856z" />
    <glyph glyph-name="ecaron" unicode="&#x11b;" horiz-adv-x="1167" 
d="M731 1270h-57l-211 286h49l197 -256l286 256h49zM1049 514h-914q-8 -47 -8 -108q0 -180 94 -285t260 -105q125 0 244 62t213 168l27 -31q-204 -235 -488 -235q-185 0 -290 115t-105 313q0 181 73 335t209 248t306 94q185 0 291 -112t106 -303q0 -82 -18 -156zM666 1049
q-201 0 -343 -143t-182 -355h869q12 61 12 119q0 176 -94.5 277.5t-261.5 101.5z" />
    <glyph glyph-name="Gbreve" unicode="&#x11e;" horiz-adv-x="1599" 
d="M1024 1700q-115 0 -181.5 65t-66.5 174q0 33 6 68h45q-6 -35 -6 -63q0 -96 54.5 -151.5t150.5 -55.5q112 0 193.5 74.5t103.5 195.5h45q-25 -140 -118.5 -223.5t-225.5 -83.5zM1542 764v-6q0 -141 -45 -265.5t-123.5 -217t-182.5 -160t-224.5 -101.5t-247.5 -34
q-275 0 -432.5 161.5t-157.5 438.5q0 153 40 297t116.5 263t180.5 208t239 138.5t284 49.5q147 0 253.5 -32.5t205.5 -114.5l-35 -33q-160 139 -426 139q-140 0 -267.5 -48.5t-225 -135t-169.5 -201t-109.5 -251t-37.5 -279.5q0 -258 146 -409t401 -151q115 0 226 31.5
t207 93t170 145.5t117.5 196t47.5 237h-561l8 41h602z" />
    <glyph glyph-name="gbreve" unicode="&#x11f;" horiz-adv-x="1337" 
d="M768 1249q-115 0 -181.5 65.5t-66.5 174.5q0 32 6 67h45q-6 -35 -6 -63q0 -96 54.5 -151.5t150.5 -55.5q112 0 193.5 74.5t103.5 195.5h45q-25 -140 -118.5 -223.5t-225.5 -83.5zM1186 1065h41l-269 -1516h-1003l6 37h965l127 729q-74 -155 -212.5 -245t-330.5 -90
q-198 0 -312 116t-114 314q0 183 78.5 337.5t221 246t318.5 91.5q192 0 298.5 -91t127.5 -246l15 79zM524 16q213 0 370 143.5t198 375.5q10 59 10 120q0 181 -105 287.5t-288 106.5q-167 0 -302 -89.5t-207.5 -235t-72.5 -314.5q0 -181 105.5 -287.5t291.5 -106.5z" />
    <glyph glyph-name="Gdotaccent" unicode="&#x120;" horiz-adv-x="1599" 
d="M1055 1866q-17 0 -29 12t-12 31q0 21 14.5 34t34.5 13q17 0 29 -12t12 -31q0 -21 -14.5 -34t-34.5 -13zM1542 764v-6q0 -141 -45 -265.5t-123.5 -217t-182.5 -160t-224.5 -101.5t-247.5 -34q-275 0 -432.5 161.5t-157.5 438.5q0 153 40 297t116.5 263t180.5 208
t239 138.5t284 49.5q147 0 253.5 -32.5t205.5 -114.5l-35 -33q-160 139 -426 139q-140 0 -267.5 -48.5t-225 -135t-169.5 -201t-109.5 -251t-37.5 -279.5q0 -258 146 -409t401 -151q115 0 226 31.5t207 93t170 145.5t117.5 196t47.5 237h-561l8 41h602z" />
    <glyph glyph-name="gdotaccent" unicode="&#x121;" horiz-adv-x="1337" 
d="M799 1415q-17 0 -29 12t-12 31q0 21 14.5 34t34.5 13q17 0 29 -12t12 -31q0 -21 -14.5 -34t-34.5 -13zM1186 1065h41l-269 -1516h-1003l6 37h965l127 729q-74 -155 -212.5 -245t-330.5 -90q-198 0 -312 116t-114 314q0 183 78.5 337.5t221 246t318.5 91.5
q192 0 298.5 -91t127.5 -246l15 79zM524 16q213 0 370 143.5t198 375.5q10 59 10 120q0 181 -105 287.5t-288 106.5q-167 0 -302 -89.5t-207.5 -235t-72.5 -314.5q0 -181 105.5 -287.5t291.5 -106.5z" />
    <glyph glyph-name="Gcommaaccent" unicode="&#x122;" horiz-adv-x="1599" 
d="M1542 764v-6q0 -141 -45 -265.5t-123.5 -217t-182.5 -160t-224.5 -101.5t-247.5 -34q-275 0 -432.5 161.5t-157.5 438.5q0 153 40 297t116.5 263t180.5 208t239 138.5t284 49.5q147 0 253.5 -32.5t205.5 -114.5l-35 -33q-160 139 -426 139q-140 0 -267.5 -48.5t-225 -135
t-169.5 -201t-109.5 -251t-37.5 -279.5q0 -258 146 -409t401 -151q115 0 226 31.5t207 93t170 145.5t117.5 196t47.5 237h-561l8 41h602zM508 -451l186 345h45l-194 -345h-37z" />
    <glyph glyph-name="gcommaaccent" unicode="&#x123;" horiz-adv-x="1337" 
d="M961 1597l-207 -383h-45l215 383h37zM1186 1065h41l-269 -1516h-1003l6 37h965l127 729q-74 -155 -212.5 -245t-330.5 -90q-198 0 -312 116t-114 314q0 183 78.5 337.5t221 246t318.5 91.5q192 0 298.5 -91t127.5 -246l15 79zM524 16q213 0 370 143.5t198 375.5
q10 59 10 120q0 181 -105 287.5t-288 106.5q-167 0 -302 -89.5t-207.5 -235t-72.5 -314.5q0 -181 105.5 -287.5t291.5 -106.5z" />
    <glyph glyph-name="Hbar" unicode="&#x126;" horiz-adv-x="1591" 
d="M1657 1196l-6 -37h-197l-205 -1159h-47l133 748h-1038l-133 -748h-47l205 1159h-195l6 37h195l57 320h47l-57 -320h1038l57 320h48l-58 -320h197zM1341 788l66 371h-1038l-66 -371h1038z" />
    <glyph glyph-name="hbar" unicode="&#x127;" horiz-adv-x="1269" 
d="M725 1085q179 0 283 -90t104 -243q0 -22 -8 -80l-119 -672h-41l117 659q8 58 8 80q0 143 -94 226.5t-256 83.5q-188 0 -321.5 -108.5t-164.5 -285.5l-116 -655h-41l233 1323h-186l6 37h186l43 237h41l-41 -237h476l-7 -37h-477l-86 -496q132 258 461 258z" />
    <glyph glyph-name="Imacron" unicode="&#x12a;" horiz-adv-x="505" 
d="M180 1812l6 37h562l-7 -37h-561zM117 0l268 1516h47l-268 -1516h-47z" />
    <glyph glyph-name="imacron" unicode="&#x12b;" horiz-adv-x="425" 
d="M59 1362l7 37h561l-6 -37h-562zM80 0l188 1065h41l-188 -1065h-41z" />
    <glyph glyph-name="Iogonek" unicode="&#x12e;" horiz-adv-x="505" 
d="M164 0q-153 -92 -230 -180.5t-77 -165.5q0 -40 24.5 -64t65.5 -24q77 0 147 57l2 -37q-72 -57 -155 -57q-60 0 -94.5 32.5t-34.5 86.5q0 86 79.5 181.5t227.5 186.5l266 1500h47z" />
    <glyph glyph-name="iogonek" unicode="&#x12f;" horiz-adv-x="425" 
d="M362 1505q17 0 29 -12t12 -31q0 -21 -14.5 -34t-34.5 -13q-17 0 -29 12t-12 31q0 21 14.5 34t34.5 13zM84 20l184 1045h41l-188 -1065q-153 -92 -230 -180.5t-77 -165.5q0 -40 24.5 -64t65.5 -24q77 0 147 57l2 -37q-72 -57 -155 -57q-60 0 -94.5 32.5t-34.5 86.5
q0 88 81.5 185t233.5 187z" />
    <glyph glyph-name="Idotaccent" unicode="&#x130;" horiz-adv-x="505" 
d="M475 1866q-17 0 -29 12t-12 31q0 21 14.5 34t34.5 13q17 0 29 -12t12 -31q0 -21 -14.5 -34t-34.5 -13zM117 0l268 1516h47l-268 -1516h-47z" />
    <glyph glyph-name="dotlessi" unicode="&#x131;" horiz-adv-x="425" 
d="M80 0l188 1065h41l-188 -1065h-41z" />
    <glyph glyph-name="Kcommaaccent" unicode="&#x136;" horiz-adv-x="1339" 
d="M1450 1516l-713 -738l459 -778h-57l-447 758h-393l-135 -758h-47l268 1516h47l-127 -717h393l691 717h61zM403 -451l187 345h45l-195 -345h-37z" />
    <glyph glyph-name="kcommaaccent" unicode="&#x137;" horiz-adv-x="1101" 
d="M1135 1065l-562 -506l398 -559h-56l-383 541h-319l-96 -541h-41l282 1597h41l-180 -1019h313l543 487h60zM246 -451l186 345h45l-194 -345h-37z" />
    <glyph glyph-name="Lacute" unicode="&#x139;" horiz-adv-x="1040" 
d="M791 2007l-328 -287h-49l307 287h70zM172 41h754l-8 -41h-801l268 1516h47z" />
    <glyph glyph-name="lacute" unicode="&#x13a;" horiz-adv-x="479" 
d="M391 1802l307 287h70l-328 -287h-49zM84 0l283 1597h41l-277 -1560h246l-6 -37h-287z" />
    <glyph glyph-name="Lcommaaccent" unicode="&#x13b;" horiz-adv-x="1040" 
d="M172 41h754l-8 -41h-801l268 1516h47zM264 -451l187 345h45l-195 -345h-37z" />
    <glyph glyph-name="lcommaaccent" unicode="&#x13c;" horiz-adv-x="479" 
d="M84 0l283 1597h41l-277 -1560h246l-6 -37h-287zM4 -451l186 345h46l-195 -345h-37z" />
    <glyph glyph-name="Lcaron" unicode="&#x13d;" horiz-adv-x="1011" 
d="M432 1516l-260 -1475h754l-8 -41h-801l268 1516h47zM1038 1516l-215 -383h-37l207 383h45z" />
    <glyph glyph-name="lcaron" unicode="&#x13e;" horiz-adv-x="479" 
d="M84 0l283 1597h41l-277 -1560h246l-6 -37h-287zM438 1214l207 383h45l-215 -383h-37z" />
    <glyph glyph-name="Lslash" unicode="&#x141;" horiz-adv-x="1040" 
d="M172 41h754l-8 -41h-801l139 786l-209 -131l8 45l209 131l121 685h47l-117 -656l258 160l-8 -45l-256 -160z" />
    <glyph glyph-name="lslash" unicode="&#x142;" horiz-adv-x="479" 
d="M506 975l-234 -146l-141 -792h246l-6 -37h-287l143 805l-239 -150l8 45l237 150l134 747h41l-129 -723l235 146z" />
    <glyph glyph-name="Nacute" unicode="&#x143;" horiz-adv-x="1673" 
d="M997 1720l308 287h69l-327 -287h-50zM117 0l268 1516h35l880 -1426l252 1426h47l-268 -1516h-35l-880 1425l-252 -1425h-47z" />
    <glyph glyph-name="nacute" unicode="&#x144;" horiz-adv-x="1269" 
d="M1100 1556l-328 -286h-49l307 286h70zM725 1085q179 0 283 -90t104 -243q0 -22 -8 -80l-119 -672h-41l117 659q8 58 8 80q0 143 -94 226.5t-256 83.5q-188 0 -321.5 -108.5t-164.5 -285.5l-116 -655h-41l188 1065h41l-43 -240q133 260 463 260z" />
    <glyph glyph-name="Ncommaaccent" unicode="&#x145;" horiz-adv-x="1673" 
d="M117 0l268 1516h35l880 -1426l252 1426h47l-268 -1516h-35l-880 1425l-252 -1425h-47zM522 -451l187 345h45l-195 -345h-37z" />
    <glyph glyph-name="ncommaaccent" unicode="&#x146;" horiz-adv-x="1269" 
d="M725 1085q179 0 283 -90t104 -243q0 -22 -8 -80l-119 -672h-41l117 659q8 58 8 80q0 143 -94 226.5t-256 83.5q-188 0 -321.5 -108.5t-164.5 -285.5l-116 -655h-41l188 1065h41l-43 -240q133 260 463 260zM328 -451l186 345h45l-194 -345h-37z" />
    <glyph glyph-name="Ncaron" unicode="&#x147;" horiz-adv-x="1673" 
d="M1057 1720h-58l-211 287h50l196 -256l287 256h49zM1552 1516h47l-268 -1516h-35l-880 1425l-252 -1425h-47l268 1516h35l880 -1426z" />
    <glyph glyph-name="ncaron" unicode="&#x148;" horiz-adv-x="1269" 
d="M782 1270h-57l-211 286h49l197 -256l287 256h49zM725 1085q179 0 283 -90t104 -243q0 -22 -8 -80l-119 -672h-41l117 659q8 58 8 80q0 143 -94 226.5t-256 83.5q-188 0 -321.5 -108.5t-164.5 -285.5l-116 -655h-41l188 1065h41l-43 -240q133 260 463 260z" />
    <glyph glyph-name="Eng" unicode="&#x14a;" horiz-adv-x="1673" 
d="M1552 1516h47l-268 -1516l-28 -166q-25 -143 -119.5 -225t-239.5 -82q-75 0 -140.5 27t-98.5 73l18 31q37 -44 97.5 -67t127.5 -23q120 0 203.5 77.5t105.5 204.5l29 166l-870 1409l-252 -1425h-47l268 1516h35l880 -1426z" />
    <glyph glyph-name="eng" unicode="&#x14b;" horiz-adv-x="1269" 
d="M725 1085q179 0 283 -90t104 -243q0 -22 -8 -80l-152 -856q-23 -132 -109 -209.5t-206 -77.5q-96 0 -156 31l8 37q64 -31 150 -31q101 0 177.5 72.5t96.5 187.5l148 833q8 58 8 80q0 143 -94 226.5t-256 83.5q-188 0 -321.5 -108.5t-164.5 -285.5l-116 -655h-41l188 1065
h41l-43 -240q133 260 463 260z" />
    <glyph glyph-name="Omacron" unicode="&#x14c;" horiz-adv-x="1695" 
d="M774 1812l6 37h561l-6 -37h-561zM733 -20q-281 0 -443.5 162.5t-162.5 439.5q0 154 41.5 298.5t120 262.5t184.5 206.5t243 137.5t288 49q282 0 444 -163.5t162 -442.5q0 -153 -41.5 -296.5t-120 -261t-185 -206t-243 -137.5t-287.5 -49zM737 20q176 0 331.5 75
t262.5 200.5t168.5 291.5t61.5 345q0 259 -150 411t-410 152q-177 0 -332.5 -74.5t-262.5 -199.5t-168.5 -291t-61.5 -346q0 -259 150 -411.5t411 -152.5z" />
    <glyph glyph-name="omacron" unicode="&#x14d;" horiz-adv-x="1263" 
d="M477 1362l6 37h561l-6 -37h-561zM518 -20q-203 0 -319.5 117.5t-116.5 316.5q0 184 80.5 337.5t225 243.5t323.5 90q201 0 317.5 -117.5t116.5 -316.5q0 -183 -80.5 -336.5t-225 -244t-321.5 -90.5zM522 16q166 0 300 89t206 234.5t72 315.5q0 181 -105 287.5t-288 106.5
q-126 0 -235.5 -52t-184 -139t-117.5 -204t-43 -244q0 -181 105 -287.5t290 -106.5z" />
    <glyph glyph-name="Ohungarumlaut" unicode="&#x150;" horiz-adv-x="1695" 
d="M891 1720l268 287h66l-289 -287h-45zM1116 1720l268 287h66l-289 -287h-45zM733 -20q-281 0 -443.5 162.5t-162.5 439.5q0 154 41.5 298.5t120 262.5t184.5 206.5t243 137.5t288 49q282 0 444 -163.5t162 -442.5q0 -153 -41.5 -296.5t-120 -261t-185 -206t-243 -137.5
t-287.5 -49zM737 20q176 0 331.5 75t262.5 200.5t168.5 291.5t61.5 345q0 259 -150 411t-410 152q-177 0 -332.5 -74.5t-262.5 -199.5t-168.5 -291t-61.5 -346q0 -259 150 -411.5t411 -152.5z" />
    <glyph glyph-name="ohungarumlaut" unicode="&#x151;" horiz-adv-x="1263" 
d="M594 1270l268 286h66l-289 -286h-45zM819 1270l268 286h66l-289 -286h-45zM518 -20q-203 0 -319.5 117.5t-116.5 316.5q0 184 80.5 337.5t225 243.5t323.5 90q201 0 317.5 -117.5t116.5 -316.5q0 -183 -80.5 -336.5t-225 -244t-321.5 -90.5zM522 16q166 0 300 89
t206 234.5t72 315.5q0 181 -105 287.5t-288 106.5q-126 0 -235.5 -52t-184 -139t-117.5 -204t-43 -244q0 -181 105 -287.5t290 -106.5z" />
    <glyph glyph-name="OE" unicode="&#x152;" horiz-adv-x="2529" 
d="M2529 1475h-809l-118 -678h768l-9 -41h-768l-125 -715h830l-8 -41h-877l82 465q-110 -222 -310 -353.5t-452 -131.5q-281 0 -443.5 162.5t-162.5 439.5q0 154 41.5 298.5t120 262.5t184.5 206.5t243 137.5t288 49q250 0 406 -133t187 -365l84 478h856zM737 20
q176 0 331.5 75t262.5 200.5t168.5 291.5t61.5 345q0 259 -150 411t-410 152q-177 0 -332.5 -74.5t-262.5 -199.5t-168.5 -291t-61.5 -346q0 -259 150 -411.5t411 -152.5z" />
    <glyph glyph-name="oe" unicode="&#x153;" horiz-adv-x="2164" 
d="M2046 514h-913q-9 -52 -9 -108q0 -180 94.5 -285t260.5 -105q125 0 243.5 62t212.5 168l27 -31q-204 -235 -487 -235q-178 0 -280 111.5t-105 303.5q-67 -187 -220 -301t-352 -114q-203 0 -319.5 117.5t-116.5 316.5q0 184 80.5 337.5t225 243.5t323.5 90
q193 0 305.5 -111t118.5 -302q63 186 204 299.5t328 113.5q185 0 291 -112t106 -303q0 -75 -18 -156zM522 16q166 0 300 89t206 234.5t72 315.5q0 181 -105 287.5t-288 106.5q-126 0 -235.5 -52t-184 -139t-117.5 -204t-43 -244q0 -181 105 -287.5t290 -106.5zM1663 1049
q-201 0 -342.5 -143t-181.5 -355h868q12 61 12 119q0 176 -94.5 277.5t-261.5 101.5z" />
    <glyph glyph-name="Racute" unicode="&#x154;" horiz-adv-x="1376" 
d="M1194 2007l-328 -287h-49l307 287h70zM1305 1169q0 -189 -124.5 -323t-318.5 -168l336 -678h-57l-332 670q-20 -2 -64 -2h-462l-119 -668h-47l268 1516h496q196 0 310 -94t114 -253zM741 709q217 0 363.5 130t146.5 328q0 142 -103 225t-282 83h-442l-135 -766h452z" />
    <glyph glyph-name="racute" unicode="&#x155;" horiz-adv-x="698" 
d="M481 1270l307 286h70l-328 -286h-49zM76 0l188 1065h41l-43 -238q68 134 190.5 196t305.5 62l-8 -36q-216 0 -350 -105.5t-167 -288.5l-116 -655h-41z" />
    <glyph glyph-name="Rcommaaccent" unicode="&#x156;" horiz-adv-x="1376" 
d="M1305 1169q0 -189 -124.5 -323t-318.5 -168l336 -678h-57l-332 670q-20 -2 -64 -2h-462l-119 -668h-47l268 1516h496q196 0 310 -94t114 -253zM741 709q217 0 363.5 130t146.5 328q0 142 -103 225t-282 83h-442l-135 -766h452zM383 -451l186 345h45l-194 -345h-37z" />
    <glyph glyph-name="rcommaaccent" unicode="&#x157;" horiz-adv-x="698" 
d="M76 0l188 1065h41l-43 -238q68 134 190.5 196t305.5 62l-8 -36q-216 0 -350 -105.5t-167 -288.5l-116 -655h-41zM-92 -451l186 345h45l-194 -345h-37z" />
    <glyph glyph-name="Rcaron" unicode="&#x158;" horiz-adv-x="1376" 
d="M877 1720h-58l-211 287h49l197 -256l287 256h49zM1305 1169q0 -189 -124.5 -323t-318.5 -168l336 -678h-57l-332 670q-20 -2 -64 -2h-462l-119 -668h-47l268 1516h496q196 0 310 -94t114 -253zM741 709q217 0 363.5 130t146.5 328q0 142 -103 225t-282 83h-442l-135 -766
h452z" />
    <glyph glyph-name="rcaron" unicode="&#x159;" horiz-adv-x="698" 
d="M541 1270h-58l-211 286h50l196 -256l287 256h49zM262 827q68 134 190.5 196t305.5 62l-8 -36q-216 0 -350 -105.5t-167 -288.5l-116 -655h-41l188 1065h41z" />
    <glyph glyph-name="Sacute" unicode="&#x15a;" horiz-adv-x="1214" 
d="M782 1720l308 287h69l-328 -287h-49zM477 -20q-145 0 -259 41.5t-169 125.5l31 35q121 -162 393 -162q149 0 272.5 50t197 143t73.5 209q0 62 -28 112t-83.5 89t-120.5 68.5t-157 58.5l-109 34q-65 20 -114 44t-94.5 60t-70 87.5t-24.5 116.5q0 130 74 232t200 157
t279 55q286 0 412 -176l-35 -31q-123 166 -383 166q-212 0 -354 -113.5t-142 -283.5q0 -47 16 -86t40.5 -66.5t64 -51t77 -38.5t87.5 -31l117 -37q66 -21 111 -38.5t104 -49t95 -66.5t61.5 -88t25.5 -116q0 -134 -80 -238t-213 -158t-295 -54z" />
    <glyph glyph-name="sacute" unicode="&#x15b;" horiz-adv-x="915" 
d="M549 1270l307 286h70l-328 -286h-49zM338 -20q-107 0 -191.5 26.5t-126.5 75.5l27 27q93 -93 293 -93q155 0 264 81.5t109 199.5q0 143 -219 211l-129 41q-109 35 -167.5 84t-58.5 133q0 140 111.5 229.5t277.5 89.5q183 0 316 -86l-25 -34q-113 84 -291 84
q-147 0 -245.5 -78.5t-98.5 -194.5q0 -72 50 -113t147 -73l129 -41q246 -78 246 -246q0 -94 -56 -168.5t-151 -114.5t-211 -40z" />
    <glyph glyph-name="Scedilla" unicode="&#x15e;" horiz-adv-x="1214" 
d="M768 1536q286 0 412 -176l-35 -31q-123 166 -383 166q-212 0 -354 -113.5t-142 -283.5q0 -47 16 -86t40.5 -66.5t64 -51t77 -38.5t87.5 -31l117 -37q66 -21 111 -38.5t104 -49t95 -66.5t61.5 -88t25.5 -116q0 -126 -70.5 -225.5t-189.5 -156t-266 -66.5l-117 -140
q34 6 74 6q87 0 137.5 -36.5t50.5 -98.5q0 -85 -74 -134.5t-180 -49.5q-115 0 -180 65l24 31q55 -55 154 -55q87 0 148 40t61 103q0 46 -41.5 72.5t-112.5 26.5q-57 0 -116 -19l-11 25l136 162h-15q-145 0 -259 41.5t-169 125.5l31 35q121 -162 393 -162q149 0 272.5 50
t197 143t73.5 209q0 62 -28 112t-83.5 89t-120.5 68.5t-157 58.5l-109 34q-65 20 -114 44t-94.5 60t-70 87.5t-24.5 116.5q0 130 74 232t200 157t279 55z" />
    <glyph glyph-name="scedilla" unicode="&#x15f;" horiz-adv-x="915" 
d="M528 1049q-147 0 -245.5 -78.5t-98.5 -194.5q0 -72 50 -113t147 -73l129 -41q246 -78 246 -246q0 -133 -107 -221.5t-270 -99.5l-117 -140q34 6 74 6q87 0 137.5 -36.5t50.5 -98.5q0 -85 -74 -134.5t-180 -49.5q-115 0 -180 65l25 31q55 -55 153 -55q87 0 148 40t61 103
q0 46 -41 72.5t-112 26.5q-58 0 -117 -19l-10 25l135 162q-105 2 -187 28.5t-125 73.5l27 27q93 -93 293 -93q155 0 264 81.5t109 199.5q0 143 -219 211l-129 41q-109 35 -167.5 84t-58.5 133q0 140 111.5 229.5t277.5 89.5q183 0 316 -86l-25 -34q-113 84 -291 84z" />
    <glyph glyph-name="Scaron" unicode="&#x160;" horiz-adv-x="1214" 
d="M842 1720h-58l-211 287h50l196 -256l287 256h49zM768 1536q286 0 412 -176l-35 -31q-123 166 -383 166q-212 0 -354 -113.5t-142 -283.5q0 -47 16 -86t40.5 -66.5t64 -51t77 -38.5t87.5 -31l117 -37q66 -21 111 -38.5t104 -49t95 -66.5t61.5 -88t25.5 -116
q0 -134 -80 -238t-213 -158t-295 -54q-145 0 -259 41.5t-169 125.5l31 35q121 -162 393 -162q149 0 272.5 50t197 143t73.5 209q0 62 -28 112t-83.5 89t-120.5 68.5t-157 58.5l-109 34q-65 20 -114 44t-94.5 60t-70 87.5t-24.5 116.5q0 130 74 232t200 157t279 55z" />
    <glyph glyph-name="scaron" unicode="&#x161;" horiz-adv-x="915" 
d="M608 1270h-57l-211 286h49l197 -256l286 256h50zM139 766q0 140 111.5 229.5t277.5 89.5q183 0 316 -86l-25 -34q-113 84 -291 84q-147 0 -245.5 -78.5t-98.5 -194.5q0 -72 50 -113t147 -73l129 -41q246 -78 246 -246q0 -94 -56 -168.5t-151 -114.5t-211 -40
q-107 0 -191.5 26.5t-126.5 75.5l27 27q93 -93 293 -93q155 0 264 81.5t109 199.5q0 143 -219 211l-129 41q-109 35 -167.5 84t-58.5 133z" />
    <glyph glyph-name="uni0162" unicode="&#x162;" horiz-adv-x="1110" 
d="M723 1475l-260 -1475l-133 -158q35 6 73 6q87 0 138 -36.5t51 -98.5q0 -85 -74 -134.5t-180 -49.5q-115 0 -180 65l24 31q55 -55 154 -55q87 0 148 40t61 103q0 46 -41.5 72.5t-112.5 26.5q-58 0 -117 -19l-10 25l152 182l260 1475h-510l8 41h1067l-8 -41h-510z" />
    <glyph glyph-name="uni0163" unicode="&#x163;" horiz-adv-x="622" 
d="M422 1028l-182 -1028l-134 -160q31 8 78 8q87 0 138 -36.5t51 -98.5q0 -85 -74 -134.5t-180 -49.5q-115 0 -180 65l24 31q55 -55 154 -55q87 0 148 40t61 103q0 46 -41.5 72.5t-112.5 26.5q-58 0 -117 -19l-10 25l154 182l182 1028h-299l6 37h299l55 313h41l-55 -313h299
l-6 -37h-299z" />
    <glyph glyph-name="Tcaron" unicode="&#x164;" horiz-adv-x="1110" 
d="M770 1720h-57l-211 287h49l197 -256l286 256h49zM1241 1516l-8 -41h-510l-260 -1475h-47l260 1475h-510l8 41h1067z" />
    <glyph glyph-name="tcaron" unicode="&#x165;" horiz-adv-x="622" 
d="M899 1597l-215 -383h-37l207 383h45zM483 1378l-55 -313h299l-6 -37h-299l-182 -1028h-41l182 1028h-299l6 37h299l55 313h41z" />
    <glyph glyph-name="Tbar" unicode="&#x166;" horiz-adv-x="1110" 
d="M1233 1475h-510l-125 -717h338l-6 -37h-340l-127 -721h-47l127 721h-318l6 37h320l125 717h-510l8 41h1067z" />
    <glyph glyph-name="tbar" unicode="&#x167;" horiz-adv-x="714" 
d="M768 1028h-299l-84 -477h256l-6 -37h-258l-90 -514h-41l90 514h-258l6 37h260l84 477h-299l6 37h299l55 313h41l-55 -313h299z" />
    <glyph glyph-name="Umacron" unicode="&#x16a;" horiz-adv-x="1597" 
d="M725 1812l6 37h561l-6 -37h-561zM686 -20q-235 0 -371.5 116.5t-136.5 313.5q0 44 10 106l177 1000h47l-179 -1002q-8 -47 -8 -98q0 -182 123.5 -289t339.5 -107q244 0 418.5 137.5t214.5 360.5l176 998h47l-178 -1004q-43 -241 -229.5 -386.5t-450.5 -145.5z" />
    <glyph glyph-name="umacron" unicode="&#x16b;" horiz-adv-x="1241" 
d="M467 1362l6 37h561l-6 -37h-561zM508 -20q-179 0 -282 89.5t-103 241.5q0 24 8 82l119 672h41l-117 -659q-8 -58 -8 -82q0 -142 91.5 -225t250.5 -83q184 0 315 108.5t162 285.5l117 655h41l-119 -676q-32 -185 -174 -297t-342 -112z" />
    <glyph glyph-name="Uring" unicode="&#x16e;" horiz-adv-x="1597" 
d="M979 1647q-81 0 -128.5 45.5t-47.5 122.5q0 109 69.5 181t176.5 72q83 0 130.5 -46t47.5 -124q0 -106 -71.5 -178.5t-176.5 -72.5zM981 1681q89 0 147 67t58 153q0 62 -36.5 97.5t-102.5 35.5q-89 0 -146 -66t-57 -156q0 -60 36.5 -95.5t100.5 -35.5zM686 -20
q-235 0 -371.5 116.5t-136.5 313.5q0 44 10 106l177 1000h47l-179 -1002q-8 -47 -8 -98q0 -182 123.5 -289t339.5 -107q244 0 418.5 137.5t214.5 360.5l176 998h47l-178 -1004q-43 -241 -229.5 -386.5t-450.5 -145.5z" />
    <glyph glyph-name="uring" unicode="&#x16f;" horiz-adv-x="1241" 
d="M721 1196q-81 0 -128.5 45.5t-47.5 122.5q0 109 69.5 181.5t176.5 72.5q83 0 130.5 -46t47.5 -124q0 -106 -71.5 -179t-176.5 -73zM723 1231q89 0 147 66.5t58 152.5q0 62 -37 97.5t-103 35.5q-89 0 -145.5 -65.5t-56.5 -155.5q0 -60 36.5 -95.5t100.5 -35.5zM508 -20
q-179 0 -282 89.5t-103 241.5q0 24 8 82l119 672h41l-117 -659q-8 -58 -8 -82q0 -142 91.5 -225t250.5 -83q184 0 315 108.5t162 285.5l117 655h41l-119 -676q-32 -185 -174 -297t-342 -112z" />
    <glyph glyph-name="Uhungarumlaut" unicode="&#x170;" horiz-adv-x="1597" 
d="M842 1720l268 287h66l-289 -287h-45zM1067 1720l268 287h66l-289 -287h-45zM686 -20q-235 0 -371.5 116.5t-136.5 313.5q0 44 10 106l177 1000h47l-179 -1002q-8 -47 -8 -98q0 -182 123.5 -289t339.5 -107q244 0 418.5 137.5t214.5 360.5l176 998h47l-178 -1004
q-43 -241 -229.5 -386.5t-450.5 -145.5z" />
    <glyph glyph-name="uhungarumlaut" unicode="&#x171;" horiz-adv-x="1241" 
d="M584 1270l268 286h66l-289 -286h-45zM809 1270l268 286h66l-289 -286h-45zM508 -20q-179 0 -282 89.5t-103 241.5q0 24 8 82l119 672h41l-117 -659q-8 -58 -8 -82q0 -142 91.5 -225t250.5 -83q184 0 315 108.5t162 285.5l117 655h41l-119 -676q-32 -185 -174 -297
t-342 -112z" />
    <glyph glyph-name="Uogonek" unicode="&#x172;" horiz-adv-x="1597" 
d="M1497 1516h47l-178 -1004q-35 -197 -168.5 -332t-331.5 -180q-152 -92 -228.5 -180.5t-76.5 -165.5q0 -40 24.5 -64t65.5 -24q78 0 148 57l2 -37q-72 -57 -156 -57q-60 0 -94.5 32.5t-34.5 86.5q0 78 67 165.5t191 170.5q-58 -4 -88 -4q-235 0 -371.5 116.5t-136.5 313.5
q0 44 10 106l177 1000h47l-179 -1002q-8 -47 -8 -98q0 -182 123.5 -289t339.5 -107q244 0 418.5 137.5t214.5 360.5z" />
    <glyph glyph-name="uogonek" unicode="&#x173;" horiz-adv-x="1241" 
d="M1102 1065h41l-119 -676q-26 -147 -122 -249.5t-240 -141.5q-152 -90 -229 -178.5t-77 -165.5q0 -40 24.5 -64t65.5 -24q78 0 148 57l2 -37q-72 -57 -156 -57q-60 0 -94.5 32.5t-34.5 86.5q0 78 65.5 164.5t188.5 169.5q-18 -2 -57 -2q-179 0 -282 89.5t-103 241.5
q0 24 8 82l119 672h41l-117 -659q-8 -58 -8 -82q0 -142 91.5 -225t250.5 -83q184 0 315 108.5t162 285.5z" />
    <glyph glyph-name="Wcircumflex" unicode="&#x174;" horiz-adv-x="2199" 
d="M1335 1976l-286 -256h-50l314 287h57l211 -287h-49zM2277 1516h52l-826 -1516h-47l-213 1440l-727 -1440h-47l-289 1516h51l273 -1453l725 1453h51l211 -1453z" />
    <glyph glyph-name="wcircumflex" unicode="&#x175;" horiz-adv-x="1849" 
d="M1081 1526l-286 -256h-50l314 286h57l211 -286h-49zM1843 1065h47l-622 -1065h-45l-232 1010l-590 -1010h-45l-245 1065h47l229 -1014l590 1014h47l229 -1014z" />
    <glyph glyph-name="Ycircumflex" unicode="&#x176;" horiz-adv-x="1277" 
d="M874 1976l-286 -256h-49l313 287h57l211 -287h-49zM1333 1516h62l-729 -857l-117 -659h-47l116 659l-425 857h57l397 -807z" />
    <glyph glyph-name="ycircumflex" unicode="&#x177;" horiz-adv-x="1253" 
d="M770 1526l-287 -256h-49l314 286h57l211 -286h-49zM1100 1065h41l-269 -1516h-882l6 37h844l114 650q-133 -256 -452 -256q-176 0 -277.5 90t-101.5 241q0 24 8 82l119 672h41l-117 -659q-8 -58 -8 -82q0 -142 91.5 -225t250.5 -83q184 0 315 108.5t162 285.5z" />
    <glyph glyph-name="Ydieresis" unicode="&#x178;" horiz-adv-x="1277" 
d="M684 1866q-17 0 -28 12t-11 29q0 23 16.5 36t34.5 13q17 0 28 -12t11 -29q0 -23 -16.5 -36t-34.5 -13zM1030 1866q-17 0 -28 12t-11 29q0 23 16.5 36t34.5 13q17 0 28 -12t11 -29q0 -23 -16.5 -36t-34.5 -13zM502 0l116 659l-425 857h57l397 -807l686 807h62l-729 -857
l-117 -659h-47z" />
    <glyph glyph-name="Zacute" unicode="&#x179;" horiz-adv-x="1112" 
d="M1094 2007l-328 -287h-49l307 287h70zM1196 1516l-1163 -1475h915l-8 -41h-993l1163 1475h-891l8 41h969z" />
    <glyph glyph-name="zacute" unicode="&#x17a;" horiz-adv-x="954" 
d="M557 1270l307 286h70l-328 -286h-49zM-47 0l915 1028h-725l7 37h804l-915 -1028h743l-6 -37h-823z" />
    <glyph glyph-name="Zdotaccent" unicode="&#x17b;" horiz-adv-x="1112" 
d="M778 1866q-17 0 -29 12t-12 31q0 21 14.5 34t34.5 13q17 0 29 -12t12 -31q0 -21 -14.5 -34t-34.5 -13zM1196 1516l-1163 -1475h915l-8 -41h-993l1163 1475h-891l8 41h969z" />
    <glyph glyph-name="zdotaccent" unicode="&#x17c;" horiz-adv-x="954" 
d="M618 1415q-17 0 -28.5 12t-11.5 31q0 21 14.5 34t34.5 13q17 0 29 -12t12 -31q0 -21 -15 -34t-35 -13zM-47 0l915 1028h-725l7 37h804l-915 -1028h743l-6 -37h-823z" />
    <glyph glyph-name="Zcaron" unicode="&#x17d;" horiz-adv-x="1112" 
d="M776 1720h-57l-211 287h49l197 -256l286 256h50zM1196 1516l-1163 -1475h915l-8 -41h-993l1163 1475h-891l8 41h969z" />
    <glyph glyph-name="zcaron" unicode="&#x17e;" horiz-adv-x="954" 
d="M616 1270h-57l-211 286h49l197 -256l287 256h49zM954 1065l-915 -1028h743l-6 -37h-823l915 1028h-725l7 37h804z" />
    <glyph glyph-name="florin" unicode="&#x192;" horiz-adv-x="929" 
d="M903 1536q75 0 133 -25l-10 -38q-59 22 -141 22q-106 0 -203 -71.5t-141 -196.5l-176 -502h460l-8 -41h-467l-311 -889h-47l309 889h-182l8 41h188l179 510q51 146 157.5 223.5t251.5 77.5z" />
    <glyph glyph-name="Scommaaccent" unicode="&#x218;" horiz-adv-x="1214" 
d="M477 -20q-145 0 -259 41.5t-169 125.5l31 35q121 -162 393 -162q149 0 272.5 50t197 143t73.5 209q0 62 -28 112t-83.5 89t-120.5 68.5t-157 58.5l-109 34q-65 20 -114 44t-94.5 60t-70 87.5t-24.5 116.5q0 130 74 232t200 157t279 55q286 0 412 -176l-35 -31
q-123 166 -383 166q-212 0 -354 -113.5t-142 -283.5q0 -47 16 -86t40.5 -66.5t64 -51t77 -38.5t87.5 -31l117 -37q66 -21 111 -38.5t104 -49t95 -66.5t61.5 -88t25.5 -116q0 -134 -80 -238t-213 -158t-295 -54zM328 -451l186 345h45l-194 -345h-37z" />
    <glyph glyph-name="scommaaccent" unicode="&#x219;" horiz-adv-x="915" 
d="M338 -20q-107 0 -191.5 26.5t-126.5 75.5l27 27q93 -93 293 -93q155 0 264 81.5t109 199.5q0 143 -219 211l-129 41q-109 35 -167.5 84t-58.5 133q0 140 111.5 229.5t277.5 89.5q183 0 316 -86l-25 -34q-113 84 -291 84q-147 0 -245.5 -78.5t-98.5 -194.5q0 -72 50 -113
t147 -73l129 -41q246 -78 246 -246q0 -94 -56 -168.5t-151 -114.5t-211 -40zM168 -451l186 345h45l-194 -345h-37z" />
    <glyph glyph-name="uni021A" unicode="&#x21a;" horiz-adv-x="1110" 
d="M1241 1516l-8 -41h-510l-260 -1475h-47l260 1475h-510l8 41h1067zM236 -451l186 345h45l-195 -345h-36z" />
    <glyph glyph-name="uni021B" unicode="&#x21b;" horiz-adv-x="622" 
d="M727 1065l-6 -37h-299l-182 -1028h-41l182 1028h-299l6 37h299l55 313h41l-55 -313h299zM16 -451l187 345h45l-195 -345h-37z" />
    <glyph glyph-name="circumflex" unicode="&#x2c6;" horiz-adv-x="1228" 
d="M813 1270h-49l-197 256l-286 -256h-50l314 286h57z" />
    <glyph glyph-name="caron" unicode="&#x2c7;" horiz-adv-x="1228" 
d="M815 1556h49l-313 -286h-57l-211 286h49l196 -256z" />
    <glyph glyph-name="breve" unicode="&#x2d8;" horiz-adv-x="1228" 
d="M524 1249q-115 0 -181.5 65.5t-66.5 174.5q0 27 7 67h45q-6 -35 -6 -63q0 -96 54 -151.5t150 -55.5q112 0 193.5 74.5t103.5 195.5h45q-25 -140 -118.5 -223.5t-225.5 -83.5z" />
    <glyph glyph-name="dotaccent" unicode="&#x2d9;" horiz-adv-x="1228" 
d="M367 1415q-17 0 -29 12t-12 31q0 21 14.5 34t34.5 13q17 0 29 -12t12 -31q0 -21 -14.5 -34t-34.5 -13z" />
    <glyph glyph-name="ring" unicode="&#x2da;" horiz-adv-x="1228" 
d="M471 1196q-81 0 -128.5 45.5t-47.5 122.5q0 109 69.5 181.5t176.5 72.5q83 0 130.5 -46t47.5 -124q0 -106 -71.5 -179t-176.5 -73zM473 1231q89 0 147 66.5t58 152.5q0 62 -36.5 97.5t-102.5 35.5q-89 0 -146 -65.5t-57 -155.5q0 -60 36.5 -95.5t100.5 -35.5z" />
    <glyph glyph-name="ogonek" unicode="&#x2db;" horiz-adv-x="1228" 
d="M160 -471q-60 0 -94.5 32.5t-34.5 86.5q0 90 84.5 188.5t240.5 190.5l27 -27q-153 -92 -230 -180.5t-77 -165.5q0 -40 24.5 -64t65.5 -24q77 0 147 57l2 -37q-72 -57 -155 -57z" />
    <glyph glyph-name="tilde" unicode="&#x2dc;" horiz-adv-x="1228" 
d="M780 1298q-40 0 -74.5 17.5t-59 43t-48.5 51t-54.5 43t-64.5 17.5q-57 0 -103.5 -41.5t-58.5 -109.5h-41q13 86 73 141.5t134 55.5q40 0 74.5 -18t59 -43t48.5 -50.5t54.5 -43.5t64.5 -18q57 0 103.5 41.5t58.5 110.5h41q-15 -86 -74.5 -141.5t-132.5 -55.5z" />
    <glyph glyph-name="hungarumlaut" unicode="&#x2dd;" horiz-adv-x="1228" 
d="M442 1270l269 286h65l-289 -286h-45zM668 1270l268 286h65l-288 -286h-45z" />
    <glyph glyph-name="gravecomb" unicode="&#x300;" 
d="M-209 1270l-227 286h63l207 -286h-43z" />
    <glyph glyph-name="acutecomb" unicode="&#x301;" 
d="M-217 1270l307 286h70l-328 -286h-49z" />
    <glyph glyph-name="uni0302" unicode="&#x302;" 
d="M-10 1270h-49l-197 256l-287 -256h-49l313 286h58z" />
    <glyph glyph-name="tildecomb" unicode="&#x303;" 
d="M-176 1298q-40 0 -74.5 17.5t-59 43t-48.5 51t-54.5 43t-64.5 17.5q-57 0 -103.5 -41.5t-58.5 -109.5h-41q13 86 73 141.5t134 55.5q40 0 74.5 -18t59 -43t48.5 -50.5t54.5 -43.5t64.5 -18q57 0 103.5 41.5t58.5 110.5h41q-15 -86 -74.5 -141.5t-132.5 -55.5z" />
    <glyph glyph-name="uni0304" unicode="&#x304;" 
d="M-580 1362l7 37h561l-6 -37h-562z" />
    <glyph glyph-name="uni0306" unicode="&#x306;" 
d="M-266 1249q-115 0 -181.5 65.5t-66.5 174.5q0 32 6 67h45q-6 -35 -6 -63q0 -96 54.5 -151.5t150.5 -55.5q112 0 193.5 74.5t103.5 195.5h45q-25 -140 -118.5 -223.5t-225.5 -83.5z" />
    <glyph glyph-name="uni0307" unicode="&#x307;" 
d="M-47 1415q-17 0 -29 12t-12 31q0 21 14.5 34t34.5 13q17 0 29 -12t12 -31q0 -21 -14.5 -34t-34.5 -13z" />
    <glyph glyph-name="uni0308" unicode="&#x308;" 
d="M-395 1415q-17 0 -28 12t-11 29q0 23 16.5 36t34.5 13q17 0 28 -12t11 -29q0 -23 -16.5 -36t-34.5 -13zM-49 1415q-17 0 -28 12t-11 29q0 23 16.5 36t34.5 13q17 0 28 -12t11 -29q0 -23 -16.5 -36t-34.5 -13z" />
    <glyph glyph-name="uni030A" unicode="&#x30a;" 
d="M-233 1196q-81 0 -129 45.5t-48 122.5q0 109 69.5 181.5t176.5 72.5q83 0 130.5 -46t47.5 -124q0 -106 -71 -179t-176 -73zM-231 1231q89 0 146.5 66.5t57.5 152.5q0 62 -36.5 97.5t-102.5 35.5q-89 0 -146 -65.5t-57 -155.5q0 -60 37 -95.5t101 -35.5z" />
    <glyph glyph-name="uni030B" unicode="&#x30b;" 
d="M-477 1270l268 286h66l-289 -286h-45zM-252 1270l268 286h66l-289 -286h-45z" />
    <glyph glyph-name="uni030C" unicode="&#x30c;" 
d="M-8 1556h49l-313 -286h-58l-211 286h49l197 -256z" />
    <glyph glyph-name="uni0312" unicode="&#x312;" 
d="M-74 1214l215 383h37l-207 -383h-45z" />
    <glyph glyph-name="uni0326" unicode="&#x326;" 
d="M-369 -451l187 345h45l-195 -345h-37z" />
    <glyph glyph-name="uni0327" unicode="&#x327;" 
d="M-389 -152q87 0 137.5 -36.5t50.5 -98.5q0 -85 -74 -134.5t-180 -49.5q-115 0 -180 65l25 31q55 -55 153 -55q87 0 148 40t61 103q0 46 -41 72.5t-112 26.5q-58 0 -117 -19l-10 25l151 182h47l-133 -158q35 6 74 6z" />
    <glyph glyph-name="uni0328" unicode="&#x328;" 
d="M-358 -471q-60 0 -94.5 32.5t-34.5 86.5q0 90 84.5 188.5t240.5 190.5l27 -27q-153 -92 -230 -180.5t-77 -165.5q0 -40 24.5 -64t65.5 -24q77 0 147 57l2 -37q-72 -57 -155 -57z" />
    <glyph glyph-name="uni0335" unicode="&#x335;" 
d="M-1018 565l6 37h705l-6 -37h-705z" />
    <glyph glyph-name="uni0336" unicode="&#x336;" 
d="M-1722 565l6 37h1523l-6 -37h-1523z" />
    <glyph glyph-name="uni0337" unicode="&#x337;" 
d="M-512 877l8 45l258 159l-8 -45zM-772 717l8 45l260 164l-8 -45z" />
    <glyph glyph-name="uni0338" unicode="&#x338;" 
d="M-1020 -20l-31 24l1168 1532l33 -25z" />
    <glyph glyph-name="uni0394" unicode="&#x394;" horiz-adv-x="1548" 
d="M954 1516l412 -1516h-1407l948 1516h47zM37 41h1268l-381 1423z" />
    <glyph glyph-name="uni03A9" unicode="&#x3a9;" horiz-adv-x="1556" 
d="M20 0l9 41h438l47 258q-168 50 -260 173.5t-92 303.5q0 159 59.5 300t162.5 242t247 159.5t307 58.5q257 0 407 -137.5t150 -370.5q0 -258 -153.5 -460t-405.5 -269l-49 -258h440l-8 -41h-485l57 330q166 36 293 140.5t194.5 250.5t67.5 311q0 213 -137 338t-373 125
q-154 0 -289 -57t-230 -153.5t-149.5 -229.5t-54.5 -281q0 -173 92 -288.5t258 -155.5l-57 -330h-486z" />
    <glyph glyph-name="uni03BC" unicode="&#x3bc;" horiz-adv-x="1267" 
d="M1114 1065h41l-188 -1065h-41l41 233q-128 -253 -447 -253q-164 0 -253 70t-107 194l-123 -695h-41l268 1516h41l-117 -659q-31 -177 61 -283.5t275 -106.5q179 0 309 105t164 276l2 13z" />
    <glyph glyph-name="pi" unicode="&#x3c0;" horiz-adv-x="1372" 
d="M1051 1028l-150 -846q-4 -28 -4 -43q0 -57 30.5 -90t84.5 -33q87 0 162 41l-3 -37q-65 -40 -172 -40q-67 0 -105 40.5t-38 110.5q0 26 4 49l150 848h-555l-183 -1028h-41l183 1028h-303l6 37h1239l-6 -37h-299z" />
    <glyph glyph-name="Wgrave" unicode="&#x1e80;" horiz-adv-x="2199" 
d="M1270 1720l-228 287h64l207 -287h-43zM469 0l-289 1516h51l273 -1453l725 1453h51l211 -1453l786 1453h52l-826 -1516h-47l-213 1440l-727 -1440h-47z" />
    <glyph glyph-name="wgrave" unicode="&#x1e81;" horiz-adv-x="1849" 
d="M1016 1270l-228 286h64l207 -286h-43zM356 0l-245 1065h47l229 -1014l590 1014h47l229 -1014l590 1014h47l-622 -1065h-45l-232 1010l-590 -1010h-45z" />
    <glyph glyph-name="Wacute" unicode="&#x1e82;" horiz-adv-x="2199" 
d="M1260 1720l307 287h69l-327 -287h-49zM469 0l-289 1516h51l273 -1453l725 1453h51l211 -1453l786 1453h52l-826 -1516h-47l-213 1440l-727 -1440h-47z" />
    <glyph glyph-name="wacute" unicode="&#x1e83;" horiz-adv-x="1849" 
d="M1006 1270l307 286h69l-327 -286h-49zM356 0l-245 1065h47l229 -1014l590 1014h47l229 -1014l590 1014h47l-622 -1065h-45l-232 1010l-590 -1010h-45z" />
    <glyph glyph-name="Wdieresis" unicode="&#x1e84;" horiz-adv-x="2199" 
d="M1145 1866q-17 0 -28 12t-11 29q0 23 16.5 36t34.5 13q17 0 28 -12t11 -29q0 -23 -16.5 -36t-34.5 -13zM1491 1866q-17 0 -28 12t-11 29q0 23 16.5 36t34.5 13q17 0 28 -12t11 -29q0 -23 -16.5 -36t-34.5 -13zM469 0l-289 1516h51l273 -1453l725 1453h51l211 -1453
l786 1453h52l-826 -1516h-47l-213 1440l-727 -1440h-47z" />
    <glyph glyph-name="wdieresis" unicode="&#x1e85;" horiz-adv-x="1849" 
d="M891 1415q-17 0 -28 12t-11 29q0 23 16.5 36t34.5 13q17 0 28 -12t11 -29q0 -23 -16.5 -36t-34.5 -13zM1237 1415q-17 0 -28 12t-11 29q0 23 16.5 36t34.5 13q17 0 28 -12t11 -29q0 -23 -16.5 -36t-34.5 -13zM356 0l-245 1065h47l229 -1014l590 1014h47l229 -1014
l590 1014h47l-622 -1065h-45l-232 1010l-590 -1010h-45z" />
    <glyph glyph-name="uni1E9E" unicode="&#x1e9e;" horiz-adv-x="1333" 
d="M602 -20q-119 0 -209 45l6 41q87 -46 205 -46q142 0 262 56.5t191 159t71 227.5q0 142 -110.5 225.5t-300.5 83.5l6 41q194 0 328.5 117.5t134.5 288.5q0 128 -96 202t-263 74q-186 0 -317.5 -94t-159.5 -248l-203 -1153h-47l205 1163q31 169 174 271t350 102
q188 0 298 -85t110 -228q0 -155 -104 -273t-269 -155q146 -28 229 -117.5t83 -218.5q0 -142 -79 -253t-209 -168.5t-286 -57.5z" />
    <glyph glyph-name="Ygrave" unicode="&#x1ef2;" horiz-adv-x="1277" 
d="M809 1720l-227 287h63l207 -287h-43zM502 0l116 659l-425 857h57l397 -807l686 807h62l-729 -857l-117 -659h-47z" />
    <glyph glyph-name="ygrave" unicode="&#x1ef3;" horiz-adv-x="1253" 
d="M748 1270h-43l-228 286h64zM1100 1065h41l-269 -1516h-882l6 37h844l114 650q-133 -256 -452 -256q-176 0 -277.5 90t-101.5 241q0 24 8 82l119 672h41l-117 -659q-8 -58 -8 -82q0 -142 91.5 -225t250.5 -83q184 0 315 108.5t162 285.5z" />
    <glyph glyph-name="endash" unicode="&#x2013;" horiz-adv-x="1085" 
d="M145 565l7 37h766l-7 -37h-766z" />
    <glyph glyph-name="emdash" unicode="&#x2014;" horiz-adv-x="1718" 
d="M145 565l7 37h1398l-6 -37h-1399z" />
    <glyph glyph-name="quoteleft" unicode="&#x2018;" horiz-adv-x="397" 
d="M455 1516l-207 -383h-45l215 383h37z" />
    <glyph glyph-name="quoteright" unicode="&#x2019;" horiz-adv-x="395" 
d="M205 1133l207 383h45l-215 -383h-37z" />
    <glyph glyph-name="quotesinglbase" unicode="&#x201a;" horiz-adv-x="362" 
d="M-125 -295l207 383h45l-215 -383h-37z" />
    <glyph glyph-name="quotedblleft" unicode="&#x201c;" horiz-adv-x="608" 
d="M459 1513l-207 -383h-45l215 383h37zM664 1513l-207 -383h-45l215 383h37z" />
    <glyph glyph-name="quotedblright" unicode="&#x201d;" horiz-adv-x="600" 
d="M207 1135l207 383h45l-215 -383h-37zM412 1135l206 383h46l-215 -383h-37z" />
    <glyph glyph-name="quotedblbase" unicode="&#x201e;" horiz-adv-x="567" 
d="M-125 -295l207 383h45l-215 -383h-37zM80 -295l207 383h45l-215 -383h-37z" />
    <glyph glyph-name="dagger" unicode="&#x2020;" horiz-adv-x="1013" 
d="M1008 1065l-9 -41h-403l-260 -1475h-47l260 1475h-404l9 41h403l94 532h47l-94 -532h404z" />
    <glyph glyph-name="daggerdbl" unicode="&#x2021;" horiz-adv-x="1013" 
d="M999 1024h-403l-64 -369h404l-8 -41h-404l-188 -1065h-47l188 1065h-403l8 41h403l64 369h-404l9 41h403l94 532h47l-94 -532h404z" />
    <glyph glyph-name="bullet" unicode="&#x2022;" horiz-adv-x="690" 
d="M334 530q-57 0 -91 33.5t-34 89.5q0 66 43.5 110t109.5 44q57 0 91 -33.5t34 -89.5q0 -66 -43.5 -110t-109.5 -44z" />
    <glyph glyph-name="ellipsis" unicode="&#x2026;" horiz-adv-x="1038" 
d="M88 -20q-21 0 -34 14t-13 35q0 23 18 40t41 17q21 0 34 -14t13 -35q0 -23 -18 -40t-41 -17zM416 -20q-21 0 -34 14t-13 35q0 23 18 40t41 17q21 0 34 -14t13 -35q0 -23 -18 -40t-41 -17zM743 -20q-21 0 -34 14t-13 35q0 23 18 40t42 17q21 0 34 -14t13 -35q0 -23 -18 -40
t-42 -17z" />
    <glyph glyph-name="perthousand" unicode="&#x2030;" horiz-adv-x="2119" 
d="M164 -20l-31 24l1167 1532l33 -25zM428 877q-118 0 -187 69.5t-69 188.5q0 167 104 284t263 117q118 0 186 -69.5t68 -188.5q0 -167 -104 -284t-261 -117zM430 913q135 0 225 108.5t90 258.5q0 102 -55 160.5t-153 58.5q-93 0 -167 -52.5t-112.5 -135.5t-38.5 -178
q0 -102 56 -161t155 -59zM922 -20q-118 0 -187 69.5t-69 188.5q0 167 103.5 284t262.5 117q118 0 186 -69.5t68 -188.5q0 -167 -103.5 -284t-260.5 -117zM1630 -20q-118 0 -187 69.5t-69 188.5q0 167 104 284t263 117q118 0 186 -69.5t68 -188.5q0 -167 -104 -284t-261 -117
zM924 16q135 0 225 108.5t90 258.5q0 102 -55.5 160.5t-153.5 58.5q-93 0 -167 -52.5t-112 -135.5t-38 -178q0 -102 56 -161t155 -59zM1632 16q135 0 225.5 108.5t90.5 258.5q0 102 -55.5 160.5t-153.5 58.5q-93 0 -167 -52.5t-112.5 -135.5t-38.5 -178q0 -102 56 -161
t155 -59z" />
    <glyph glyph-name="guilsinglleft" unicode="&#x2039;" horiz-adv-x="620" 
d="M365 102l-275 451l434 451h45l-428 -451l269 -451h-45z" />
    <glyph glyph-name="guilsinglright" unicode="&#x203a;" horiz-adv-x="620" 
d="M225 1004l275 -451l-434 -451h-46l429 451l-269 451h45z" />
    <glyph glyph-name="fraction" unicode="&#x2044;" horiz-adv-x="358" 
d="M-371 -20l-30 24l1167 1532l33 -25z" />
    <glyph glyph-name="uni2070" unicode="&#x2070;" horiz-adv-x="768" 
d="M424 799q-112 0 -175 87.5t-63 239.5q0 147 48 285t141 230t209 92q113 0 177 -88t64 -240q0 -110 -29 -217.5t-79.5 -194.5t-127.5 -140.5t-165 -53.5zM430 840q101 0 183 89.5t123.5 217.5t41.5 260q0 133 -51.5 209t-144.5 76q-77 0 -145 -52.5t-112 -135t-69 -182.5
t-25 -198q0 -133 52 -208.5t147 -75.5z" />
    <glyph glyph-name="uni2074" unicode="&#x2074;" horiz-adv-x="745" 
d="M537 811l36 209h-467l7 39l587 661h43l-116 -659h145l-8 -41h-143l-37 -209h-47zM162 1059h420l102 583z" />
    <glyph glyph-name="uni2075" unicode="&#x2075;" horiz-adv-x="706" 
d="M350 799q-168 0 -241 88l18 35q70 -82 223 -82q133 0 223.5 80.5t90.5 201.5q0 84 -54 132.5t-147 48.5q-92 0 -197 -31l-35 6l142 442h409l-8 -41h-364l-121 -362q88 26 184 26q112 0 176 -59t64 -158q0 -144 -104.5 -235.5t-258.5 -91.5z" />
    <glyph glyph-name="uni2076" unicode="&#x2076;" horiz-adv-x="696" 
d="M487 1358q107 0 169.5 -60t62.5 -161q0 -141 -95.5 -239.5t-240.5 -98.5q-112 0 -176 59.5t-64 159.5q0 126 95 239l385 463h55l-336 -397q65 35 145 35zM391 840q122 0 200.5 86.5t78.5 206.5q0 86 -52 136t-143 50q-120 0 -200 -85t-80 -208q0 -87 52 -136.5t144 -49.5
z" />
    <glyph glyph-name="uni2077" unicode="&#x2077;" horiz-adv-x="618" 
d="M217 1720h553l-496 -909h-51l475 868h-487z" />
    <glyph glyph-name="uni2078" unicode="&#x2078;" horiz-adv-x="739" 
d="M582 1282q70 -22 108.5 -71t38.5 -119q0 -127 -95 -210t-233 -83q-113 0 -178 54.5t-65 147.5q0 105 63.5 180.5t165.5 100.5q-60 22 -92.5 67.5t-32.5 108.5q0 120 86 197.5t213 77.5q102 0 161.5 -52t59.5 -139q0 -95 -55 -164t-145 -96zM311 1454q0 -71 46 -111
t128 -40q105 0 176.5 68.5t71.5 168.5q0 70 -46.5 111t-127.5 41q-105 0 -176.5 -69t-71.5 -169zM403 840q117 0 197 73.5t80 182.5q0 75 -53.5 120.5t-143.5 45.5q-117 0 -196.5 -74t-79.5 -182q0 -77 52 -121.5t144 -44.5z" />
    <glyph glyph-name="uni2079" unicode="&#x2079;" horiz-adv-x="696" 
d="M539 1733q112 0 175.5 -59.5t63.5 -160.5q0 -127 -94 -239l-385 -463h-55l336 397q-64 -34 -146 -34q-107 0 -169 59.5t-62 161.5q0 141 95.5 239.5t240.5 98.5zM446 1212q120 0 200.5 85t80.5 208q0 87 -52.5 137t-144.5 50q-122 0 -200 -86.5t-78 -206.5q0 -87 52 -137
t142 -50z" />
    <glyph glyph-name="uni2080" unicode="&#x2080;" horiz-adv-x="768" 
d="M244 -217q-112 0 -175 88t-63 240q0 109 28.5 216.5t78.5 194.5t126.5 141t163.5 54q113 0 177.5 -88t64.5 -240q0 -110 -29 -217.5t-79.5 -194.5t-127.5 -140.5t-165 -53.5zM250 -176q101 0 183 89.5t123.5 217.5t41.5 260q0 133 -52 209t-145 76q-102 0 -184.5 -89
t-124 -217t-41.5 -261t52 -209t147 -76z" />
    <glyph glyph-name="uni2081" unicode="&#x2081;" horiz-adv-x="397" 
d="M55 -205l154 869h-180l6 41h227l-160 -910h-47z" />
    <glyph glyph-name="uni2082" unicode="&#x2082;" horiz-adv-x="692" 
d="M-78 -205l6 31l324 295q6 5 36 32t39 35.5t36.5 35t38.5 38.5t33.5 38t32.5 42.5t25 41.5t21.5 45.5t12 45.5t5.5 49q0 72 -47.5 112t-132.5 40q-98 0 -168.5 -56.5t-85.5 -148.5l-49 6q20 108 103.5 174t201.5 66q105 0 166.5 -51t61.5 -140q0 -49 -18.5 -99t-46 -91.5
t-69 -87t-76.5 -78t-81 -73.5q-10 -9 -15 -13l-280 -250l481 2l-8 -41h-547z" />
    <glyph glyph-name="uni2083" unicode="&#x2083;" horiz-adv-x="698" 
d="M610 705l-6 -31l-420 -379q36 8 86 8q116 0 183 -57t67 -154q0 -135 -101 -222t-249 -87q-85 0 -147 28.5t-91 82.5l25 32q55 -102 213 -102q127 0 214 76t87 192q0 79 -58 125.5t-159 46.5q-82 0 -158 -31l-10 25l446 406h-434l6 41h506z" />
    <glyph glyph-name="uni2084" unicode="&#x2084;" horiz-adv-x="745" 
d="M356 -205l37 209h-467l6 39l588 662h43l-117 -660h146l-8 -41h-144l-37 -209h-47zM-18 43h419l103 584z" />
    <glyph glyph-name="uni2085" unicode="&#x2085;" horiz-adv-x="706" 
d="M170 -217q-169 0 -242 88l19 35q70 -82 223 -82q133 0 223 80.5t90 201.5q0 84 -53.5 132.5t-146.5 48.5q-92 0 -197 -31l-35 6l142 443h409l-8 -41h-365l-120 -363q91 27 184 27q111 0 175 -59t64 -158q0 -144 -104.5 -236t-257.5 -92z" />
    <glyph glyph-name="uni2086" unicode="&#x2086;" horiz-adv-x="696" 
d="M307 342q107 0 169.5 -60t62.5 -161q0 -141 -95.5 -239.5t-240.5 -98.5q-112 0 -176 59.5t-64 159.5q0 128 94 240l385 463h56l-336 -398q65 35 145 35zM211 -176q122 0 200 86.5t78 206.5q0 86 -51.5 136t-142.5 50q-120 0 -200.5 -85t-80.5 -208q0 -86 52.5 -136
t144.5 -50z" />
    <glyph glyph-name="uni2087" unicode="&#x2087;" horiz-adv-x="618" 
d="M37 705h553l-496 -910h-51l475 869h-487z" />
    <glyph glyph-name="uni2088" unicode="&#x2088;" horiz-adv-x="739" 
d="M401 266q70 -22 109 -71t39 -119q0 -127 -95 -210t-233 -83q-113 0 -178.5 55t-65.5 148q0 105 64 180t166 100q-60 22 -92.5 67.5t-32.5 108.5q0 120 86 197.5t213 77.5q102 0 161.5 -52t59.5 -139q0 -95 -55.5 -164t-145.5 -96zM131 438q0 -71 46 -111t128 -40
q105 0 176.5 68.5t71.5 168.5q0 70 -46.5 111t-127.5 41q-105 0 -176.5 -69t-71.5 -169zM223 -176q117 0 197 73.5t80 182.5q0 75 -53.5 120.5t-143.5 45.5q-117 0 -196.5 -74t-79.5 -182q0 -77 52 -121.5t144 -44.5z" />
    <glyph glyph-name="uni2089" unicode="&#x2089;" horiz-adv-x="696" 
d="M358 717q112 0 176 -59.5t64 -159.5q0 -128 -94 -240l-385 -463h-56l336 398q-65 -35 -145 -35q-107 0 -169 59.5t-62 161.5q0 141 95.5 239.5t239.5 98.5zM266 197q120 0 200.5 84.5t80.5 207.5q0 87 -52.5 137t-144.5 50q-122 0 -200 -86.5t-78 -206.5q0 -86 51.5 -136
t142.5 -50z" />
    <glyph glyph-name="Euro" unicode="&#x20ac;" horiz-adv-x="1603" 
d="M1069 1536q175 0 297.5 -66t212.5 -184l-35 -26q-177 235 -469 235q-151 0 -287.5 -51.5t-240 -141.5t-177 -211.5t-108.5 -263.5h678l-8 -41h-678q-15 -67 -18 -141h671l-8 -41h-666v-16q0 -261 151.5 -414.5t414.5 -153.5q175 0 335 77.5t273 205.5l31 -37
q-123 -132 -289 -209t-352 -77q-285 0 -449 163t-164 441v20h-127l9 41h120q3 60 17 141h-113l8 41h113q48 204 167 363.5t299 252.5t392 93z" />
    <glyph glyph-name="uni20B9" unicode="&#x20b9;" horiz-adv-x="1333" 
d="M1389 1516l-9 -41h-479q103 -42 160 -128.5t57 -205.5q0 -24 -4 -70h184l-8 -41h-182q-29 -154 -133 -267.5t-256 -156.5l301 -606h-57l-295 596q-58 -10 -107 -10h-414l9 41h393q190 0 330.5 114t177.5 289h-832l8 41h832q4 46 4 70q0 154 -102 244t-279 90h-385l8 41
h1078z" />
    <glyph glyph-name="uni20BD" unicode="&#x20bd;" horiz-adv-x="1232" 
d="M705 696h-422l-25 -141h590l-8 -41h-590l-90 -514h-47l90 514h-103l9 41h102l25 141h-103l8 41h103l137 779h457q186 0 293.5 -90.5t107.5 -243.5q0 -140 -71.5 -252t-193 -173t-269.5 -61zM420 1475l-129 -738h397q212 0 357 126t145 315q0 136 -99 216.5t-270 80.5
h-401z" />
    <glyph glyph-name="trademark" unicode="&#x2122;" horiz-adv-x="1441" 
d="M680 1561h-201l-98 -549h-43l98 549h-198l6 36h442zM1366 1597h39l-70 -585h-43l62 499l-330 -499h-43l-150 504l-118 -504h-43l139 585h39l160 -546z" />
    <glyph glyph-name="oneeighth" unicode="&#x215b;" horiz-adv-x="1495" 
d="M1163 1536l33 -25l-1169 -1531l-31 24zM199 606l153 869h-180l6 41h228l-160 -910h-47zM1194 471q70 -22 108.5 -71t38.5 -119q0 -127 -94.5 -210t-232.5 -83q-113 0 -178.5 54.5t-65.5 147.5q0 105 63.5 180.5t165.5 100.5q-60 22 -92.5 67.5t-32.5 108.5
q0 120 86 197.5t214 77.5q102 0 161.5 -52t59.5 -139q0 -95 -55.5 -164t-145.5 -96zM924 643q0 -71 46 -111t128 -40q105 0 176.5 68.5t71.5 168.5q0 69 -47 110.5t-128 41.5q-105 0 -176 -69t-71 -169zM1016 29q117 0 196.5 73.5t79.5 182.5q0 75 -53 120.5t-143 45.5
q-117 0 -197 -74.5t-80 -181.5q0 -77 52.5 -121.5t144.5 -44.5z" />
    <glyph glyph-name="threeeighths" unicode="&#x215c;" horiz-adv-x="1796" 
d="M1464 1536l33 -25l-1169 -1531l-31 24zM664 903q0 -135 -101.5 -222t-249.5 -87q-177 0 -237 111l24 32q55 -102 213 -102q127 0 214 76t87 192q0 79 -58 125.5t-159 46.5q-81 0 -157 -31l-11 25l447 406h-434l6 41h506l-6 -31l-420 -379q36 8 86 8q116 0 183 -57
t67 -154zM1495 471q70 -22 108.5 -71t38.5 -119q0 -127 -94.5 -210t-232.5 -83q-113 0 -178.5 54.5t-65.5 147.5q0 105 63.5 180.5t165.5 100.5q-60 22 -92 67.5t-32 108.5q0 120 86 197.5t213 77.5q102 0 161.5 -52t59.5 -139q0 -95 -55.5 -164t-145.5 -96zM1225 643
q0 -71 46 -111t128 -40q105 0 176.5 68.5t71.5 168.5q0 70 -46.5 111t-127.5 41q-105 0 -176.5 -69t-71.5 -169zM1317 29q117 0 196.5 73.5t79.5 182.5q0 75 -53 120.5t-143 45.5q-117 0 -197 -74.5t-80 -181.5q0 -77 52.5 -121.5t144.5 -44.5z" />
    <glyph glyph-name="fiveeighths" unicode="&#x215d;" horiz-adv-x="1804" 
d="M1473 1536l32 -25l-1169 -1531l-31 24zM676 922q0 -144 -105 -236t-258 -92q-168 0 -241 88l18 35q70 -82 223 -82q133 0 223.5 81t90.5 202q0 83 -53.5 131.5t-147.5 48.5q-92 0 -197 -31l-34 6l141 443h409l-8 -41h-364l-121 -363q92 27 184 27q112 0 176 -59t64 -158z
M1503 471q70 -22 109 -71t39 -119q0 -127 -95 -210t-233 -83q-113 0 -178.5 54.5t-65.5 147.5q0 105 64 180.5t166 100.5q-60 22 -92.5 67.5t-32.5 108.5q0 120 86 197.5t213 77.5q102 0 161.5 -52t59.5 -139q0 -95 -55.5 -164t-145.5 -96zM1233 643q0 -71 46 -111t128 -40
q105 0 176.5 68.5t71.5 168.5q0 70 -46.5 111t-127.5 41q-105 0 -176.5 -69t-71.5 -169zM1325 29q117 0 197 73.5t80 182.5q0 75 -53.5 120.5t-143.5 45.5q-117 0 -197 -74.5t-80 -181.5q0 -77 52.5 -121.5t144.5 -44.5z" />
    <glyph glyph-name="seveneighths" unicode="&#x215e;" horiz-adv-x="1660" 
d="M1329 1536l33 -25l-1169 -1531l-31 24zM186 606l476 869h-488l6 41h553l-495 -910h-52zM1360 471q70 -22 108.5 -71t38.5 -119q0 -127 -94.5 -210t-232.5 -83q-113 0 -178.5 54.5t-65.5 147.5q0 105 63.5 180.5t165.5 100.5q-60 22 -92.5 67.5t-32.5 108.5
q0 120 86 197.5t213 77.5q102 0 162 -52t60 -139q0 -95 -55.5 -164t-145.5 -96zM1090 643q0 -71 46 -111t128 -40q105 0 176 68.5t71 168.5q0 70 -46.5 111t-127.5 41q-105 0 -176 -69t-71 -169zM1182 29q117 0 196.5 73.5t79.5 182.5q0 75 -53 120.5t-143 45.5
q-117 0 -197 -74.5t-80 -181.5q0 -77 52.5 -121.5t144.5 -44.5z" />
    <glyph glyph-name="partialdiff" unicode="&#x2202;" horiz-adv-x="1241" 
d="M760 1536q189 0 296 -146.5t107 -398.5q0 -194 -55.5 -375.5t-155 -323t-250 -227t-327.5 -85.5q-167 0 -265 79t-98 213q0 93 45 173t124.5 138t183.5 102.5t228 72t251 41.5t258 16q12 88 12 182q0 231 -96 364.5t-268 133.5q-241 0 -467 -240l-27 35q115 118 236 182
t268 64zM381 20q140 0 263 61.5t212 166.5t150 239.5t88 286.5q-149 -2 -292.5 -20.5t-279 -58.5t-237 -97t-163 -142.5t-61.5 -187.5q0 -114 85.5 -181t234.5 -67z" />
    <glyph glyph-name="emptyset" unicode="&#x2205;" horiz-adv-x="1341" 
d="M1288 1225l-153 -140q75 -110 75 -270q0 -183 -80 -336.5t-224.5 -244.5t-321.5 -91q-219 0 -338 138l-152 -138l-26 25l155 141q-76 112 -76 269q0 184 80.5 337.5t225 243.5t323.5 90q218 0 334 -135l150 135zM193 573q0 -138 63 -235l823 747q-105 127 -307 127
q-167 0 -301 -88.5t-206 -234t-72 -316.5zM1165 819q0 142 -63 236l-826 -746q107 -129 312 -129q166 0 299.5 89t205.5 234.5t72 315.5z" />
    <glyph glyph-name="product" unicode="&#x220f;" horiz-adv-x="1474" 
d="M1415 1597l-362 -2048h-47l354 2007h-922l-354 -2007h-47l362 2048h1016z" />
    <glyph glyph-name="summation" unicode="&#x2211;" horiz-adv-x="1208" 
d="M-123 -451l6 31l879 1000l-512 987l6 30h1020l-8 -41h-961l512 -976l-870 -990h993l-8 -41h-1057z" />
    <glyph glyph-name="minus" unicode="&#x2212;" horiz-adv-x="1144" 
d="M172 686l6 37h811l-6 -37h-811z" />
    <glyph glyph-name="radical" unicode="&#x221a;" horiz-adv-x="1521" 
d="M317 -451l-307 1065h47l289 -1013l1280 1996h51l-1315 -2048h-45z" />
    <glyph glyph-name="infinity" unicode="&#x221e;" horiz-adv-x="1435" 
d="M1047 901q116 0 182.5 -69t66.5 -187q0 -169 -102.5 -286t-259.5 -117q-104 0 -169 54t-79 150q-45 -93 -128.5 -148.5t-188.5 -55.5q-118 0 -186 68.5t-68 185.5q0 167 103 286t263 119q103 0 167.5 -55.5t78.5 -153.5q44 95 128.5 152t191.5 57zM373 279q92 0 165.5 53
t112.5 136t39 177q0 102 -55.5 160.5t-153.5 58.5q-137 0 -228 -108.5t-91 -257.5q0 -102 56 -160.5t155 -58.5zM934 279q92 0 165.5 53t112.5 136t39 177q0 102 -55.5 160.5t-153.5 58.5q-137 0 -228 -108.5t-91 -257.5q0 -102 56 -160.5t155 -58.5z" />
    <glyph glyph-name="integral" unicode="&#x222b;" horiz-adv-x="923" 
d="M29 -471q-63 0 -119.5 21.5t-85.5 58.5l18 31q67 -70 189 -70q100 0 170.5 61t87.5 160l278 1581q21 114 101 180t204 66q63 0 119.5 -21.5t85.5 -58.5l-18 -31q-67 70 -189 70q-100 0 -170.5 -61t-87.5 -160l-278 -1581q-21 -114 -101 -180t-204 -66z" />
    <glyph glyph-name="approxequal" unicode="&#x2248;" horiz-adv-x="1134" 
d="M774 705q-46 0 -85.5 17.5t-68 43t-56 51t-63.5 43t-77 17.5q-73 0 -130 -41.5t-69 -110.5h-41q15 86 85 141.5t159 55.5q46 0 86 -17.5t68.5 -43t56.5 -51t63.5 -43t75.5 -17.5q73 0 130 41.5t69 109.5h41q-13 -86 -83.5 -141t-160.5 -55zM700 295q-46 0 -85.5 17.5
t-68 43t-56 51t-63.5 43t-77 17.5q-73 0 -129.5 -41.5t-68.5 -110.5h-41q15 87 84.5 142t158.5 55q46 0 86 -17.5t69 -43t56.5 -51t63.5 -43t76 -17.5q73 0 129.5 41.5t68.5 110.5h41q-13 -86 -83.5 -141.5t-160.5 -55.5z" />
    <glyph glyph-name="notequal" unicode="&#x2260;" horiz-adv-x="1150" 
d="M1030 932h-321l-203 -455h444l-6 -37h-457l-100 -225h-43l100 225h-311l6 37h324l203 455h-447l6 37h459l100 225h43l-100 -225h309z" />
    <glyph glyph-name="lessequal" unicode="&#x2264;" horiz-adv-x="1124" 
d="M907 410l-704 358l4 20l831 359l-8 -43l-758 -328l643 -323zM109 225l6 37h768l-6 -37h-768z" />
    <glyph glyph-name="greaterequal" unicode="&#x2265;" horiz-adv-x="1114" 
d="M135 410l8 43l764 327l-649 324l8 43l705 -359l-4 -20zM104 225l7 37h768l-7 -37h-768z" />
    <glyph glyph-name="lozenge" unicode="&#x25ca;" horiz-adv-x="1046" 
d="M395 0l-303 635l526 635h29l305 -635l-528 -635h-29zM414 47l491 588l-278 590l-486 -590z" />
    <glyph glyph-name="i.loclTRK" horiz-adv-x="425" 
d="M354 1415q-17 0 -29 12t-12 31q0 21 14.5 34t34.5 13q17 0 29 -12t12 -31q0 -21 -14.5 -34t-34.5 -13zM80 0l188 1065h41l-188 -1065h-41z" />
    <glyph glyph-name="zero.lf" horiz-adv-x="1236" 
d="M516 -20q-183 0 -286 144.5t-103 395.5q0 120 21 242t60 235t97.5 211.5t129.5 171t161 114.5t188 42q183 0 286.5 -146t103.5 -397q0 -182 -47.5 -361.5t-130.5 -325t-209 -236t-271 -90.5zM520 20q108 0 205.5 59t169.5 158t125 225t79.5 264t26.5 271
q0 231 -90.5 364.5t-253.5 133.5q-91 0 -175 -41.5t-149.5 -113t-119.5 -166.5t-89.5 -203.5t-55 -224t-19.5 -226.5q0 -233 91 -366.5t255 -133.5z" />
    <glyph glyph-name="one.lf" horiz-adv-x="606" 
d="M217 0l260 1475h-311l8 41h358l-268 -1516h-47z" />
    <glyph glyph-name="two.lf" horiz-adv-x="1099" 
d="M-10 0l6 33l536 485q15 13 46 41q45 40 69 61.5t67.5 63t68.5 68.5t62 69t59 74.5t47 76t38.5 82t23 83t9.5 88.5q0 127 -85.5 198.5t-236.5 71.5q-173 0 -296.5 -99.5t-151.5 -260.5l-49 6q32 179 168 287t331 108q171 0 271 -83t100 -228q0 -83 -34.5 -172t-77 -154.5
t-123.5 -152.5t-128 -130t-137 -123q-12 -11 -18 -16l-487 -436h825l-8 -41h-895z" />
    <glyph glyph-name="three.lf" horiz-adv-x="1120" 
d="M1130 1516l-6 -33l-737 -666q81 19 172 19q193 0 304.5 -94t111.5 -253q0 -147 -78 -264.5t-209 -181t-289 -63.5q-141 0 -241.5 47.5t-145.5 140.5l27 33q96 -181 360 -181q146 0 266 60.5t189.5 169t69.5 242.5q0 139 -102 221t-279 82q-147 0 -267 -54l-10 27l785 707
h-762l8 41h833z" />
    <glyph glyph-name="four.lf" horiz-adv-x="1189" 
d="M725 0l63 356h-788l8 45l985 1115h47l-198 -1119h245l-6 -41h-245l-64 -356h-47zM59 397h738l184 1043z" />
    <glyph glyph-name="five.lf" horiz-adv-x="1132" 
d="M403 -20q-278 0 -397 149l21 35q115 -144 376 -144q230 0 384.5 142t154.5 354q0 147 -94.5 233.5t-259.5 86.5q-154 0 -340 -50l-37 7l233 723h668l-8 -41h-621l-213 -646q172 48 330 48q183 0 288 -97.5t105 -261.5q0 -156 -79 -280t-213.5 -191t-297.5 -67z" />
    <glyph glyph-name="six.lf" horiz-adv-x="1105" 
d="M614 907q179 0 282 -98t103 -266q0 -155 -71.5 -284t-198.5 -204t-283 -75q-181 0 -284 98t-103 266q0 101 36.5 200.5t101.5 176.5l663 795h58l-578 -689q129 80 274 80zM455 20q141 0 254.5 70.5t175 188.5t61.5 258q0 151 -91.5 240t-250.5 89q-141 0 -255 -71
t-176 -189t-62 -258q0 -151 92 -239.5t252 -88.5z" />
    <glyph glyph-name="seven.lf" horiz-adv-x="980" 
d="M180 1516h907l-833 -1516h-53l811 1475h-840z" />
    <glyph glyph-name="eight.lf" horiz-adv-x="1181" 
d="M754 784q123 -29 191.5 -112.5t68.5 -204.5q0 -140 -71.5 -252t-194.5 -173.5t-273 -61.5q-184 0 -289.5 90t-105.5 243q0 178 111 306t288 167q-106 29 -164.5 106.5t-58.5 186.5q0 200 140.5 328.5t348.5 128.5q166 0 263.5 -84.5t97.5 -226.5q0 -163 -97.5 -281.5
t-254.5 -159.5zM305 1075q0 -125 82.5 -197.5t228.5 -72.5q188 0 313.5 121t125.5 297q0 125 -83.5 198.5t-228.5 73.5q-187 0 -312.5 -121t-125.5 -299zM479 20q206 0 345 128.5t139 320.5q0 134 -93.5 214.5t-255.5 80.5q-204 0 -344.5 -129.5t-140.5 -319.5
q0 -136 94 -215.5t256 -79.5z" />
    <glyph glyph-name="nine.lf" horiz-adv-x="1105" 
d="M700 1536q180 0 283.5 -98.5t103.5 -266.5q0 -101 -36 -200t-101 -176l-663 -795h-58l578 688q-129 -80 -275 -80q-179 0 -282 98.5t-103 266.5q0 155 71.5 284t198.5 204t283 75zM543 649q141 0 255 71t176 189t62 258q0 151 -92 239.5t-252 88.5q-141 0 -254.5 -70.5
t-175 -188t-61.5 -257.5q0 -152 91.5 -241t250.5 -89z" />
    <glyph glyph-name="zero.osf" horiz-adv-x="1304" 
d="M549 -20q-203 0 -319.5 133t-116.5 360q0 217 84 403.5t237.5 300t341.5 113.5q203 0 319.5 -133t116.5 -360q0 -217 -83.5 -403t-237 -300t-342.5 -114zM555 16q132 0 248 66t195.5 174.5t125 250.5t45.5 292q0 209 -105 331.5t-290 122.5q-106 0 -202.5 -42t-171 -116
t-129.5 -171.5t-84 -213t-29 -235.5q0 -213 105 -336t292 -123z" />
    <glyph glyph-name="one.osf" horiz-adv-x="630" 
d="M252 0l217 1233h-293l6 37h334l-223 -1270h-41z" />
    <glyph glyph-name="two.osf" horiz-adv-x="1124" 
d="M8 0l6 33l545 368q74 50 126 88.5t117 98t105.5 115t68.5 127t28 145.5q0 128 -87.5 203t-240.5 75q-175 0 -301 -100.5t-154 -263.5l-43 6q32 179 168.5 287t331.5 108q170 0 269.5 -85t99.5 -228q0 -58 -16 -115t-40 -103.5t-64 -95t-77 -84.5t-90.5 -78.5t-93 -70
t-95.5 -65.5l-489 -328h827l-6 -37h-895z" />
    <glyph glyph-name="three.osf" horiz-adv-x="1148" 
d="M1108 1270l-6 -33l-744 -649q83 22 183 22q189 0 299 -91.5t110 -244.5q0 -146 -76 -261t-204.5 -176.5t-284.5 -61.5q-142 0 -243 48t-146 140l27 31q90 -182 360 -182q145 0 265 59.5t189.5 165t69.5 235.5q0 137 -103 219t-280 82q-146 0 -266 -57l-10 27l788 690
h-770l6 37h836z" />
    <glyph glyph-name="four.osf" horiz-adv-x="1171" 
d="M694 -225l39 225h-794l8 43l1003 1227h47l-217 -1233h246l-6 -37h-246l-39 -225h-41zM-12 37h753l207 1165z" />
    <glyph glyph-name="five.osf" horiz-adv-x="1140" 
d="M367 -225q-282 0 -398 149l17 31q114 -143 379 -143q150 0 272.5 62t193 173.5t70.5 249.5q0 144 -94 228.5t-260 84.5q-159 0 -342 -49l-35 6l227 703h668l-6 -37h-629l-209 -633q171 47 336 47q180 0 284.5 -94.5t104.5 -253.5q0 -152 -77.5 -272.5t-209.5 -186
t-292 -65.5z" />
    <glyph glyph-name="six.osf" horiz-adv-x="1097" 
d="M610 907q176 0 277.5 -97.5t101.5 -264.5q0 -154 -70.5 -283.5t-196.5 -205.5t-280 -76q-178 0 -280.5 96.5t-102.5 261.5q0 102 39.5 209t104.5 180l659 789h51l-579 -691q127 82 276 82zM451 20q141 0 254.5 70.5t175 188.5t61.5 258q0 151 -91.5 240t-250.5 89
q-141 0 -255 -71t-176.5 -189t-62.5 -258q0 -151 92 -239.5t253 -88.5z" />
    <glyph glyph-name="seven.osf" horiz-adv-x="1056" 
d="M186 1270h908l-809 -1479l-39 12l784 1430h-850z" />
    <glyph glyph-name="eight.osf" horiz-adv-x="1169" 
d="M745 784q122 -29 189 -111.5t67 -205.5q0 -140 -70.5 -252t-192 -173.5t-269.5 -61.5q-180 0 -284.5 89.5t-104.5 241.5q0 178 109.5 306t283.5 169q-103 29 -160 105.5t-57 185.5q0 199 138.5 329t344.5 130q163 0 259 -84.5t96 -226.5q0 -162 -97 -281.5t-252 -159.5z
M299 1075q0 -125 82.5 -197.5t228.5 -72.5q188 0 313.5 121t125.5 297q0 125 -83.5 198.5t-228.5 73.5q-187 0 -312.5 -121t-125.5 -299zM473 20q206 0 344.5 128.5t138.5 320.5q0 135 -93.5 215t-254.5 80q-204 0 -344.5 -129.5t-140.5 -319.5q0 -136 94 -215.5t256 -79.5z
" />
    <glyph glyph-name="nine.osf" horiz-adv-x="1103" 
d="M653 1290q178 0 281.5 -96.5t103.5 -261.5q0 -102 -39 -209t-104 -180l-629 -752l-41 12l537 639q-129 -80 -277 -80q-176 0 -277.5 98t-101.5 265q0 154 70.5 283.5t196.5 205.5t280 76zM154 737q0 -153 92 -243.5t252 -90.5q141 0 254.5 71t175 189.5t61.5 258.5
q0 151 -91.5 239t-250.5 88q-142 0 -256 -70t-175.5 -186.5t-61.5 -255.5z" />
    <glyph glyph-name="zero.tf" horiz-adv-x="1259" 
d="M516 -20q-162 0 -252 138t-90 378q0 138 26 283t79 280t124.5 241.5t171.5 171t211 64.5q162 0 252 -138.5t90 -379.5q0 -114 -19 -235t-54 -236.5t-89.5 -218t-120.5 -180.5t-151 -123t-178 -45zM520 20q100 0 191 63.5t157 168.5t115 236t73.5 269.5t24.5 266.5
q0 220 -78 345.5t-219 125.5q-101 0 -192.5 -63.5t-157.5 -168t-115 -235.5t-73.5 -269.5t-24.5 -266.5q0 -220 79 -346t220 -126z" />
    <glyph glyph-name="one.tf" horiz-adv-x="1259" 
d="M645 41h320l-7 -41h-849l6 41h483l252 1434h-373l8 41h420z" />
    <glyph glyph-name="two.tf" horiz-adv-x="1259" 
d="M70 0l6 33l536 485q15 13 46 41q45 40 69 61.5t67.5 63t68.5 68.5t62 69t59 74.5t47 76t38.5 82t23 83t9.5 88.5q0 127 -85.5 198.5t-236.5 71.5q-173 0 -296.5 -99.5t-151.5 -260.5l-49 6q32 179 168 287t331 108q171 0 271 -83t100 -228q0 -82 -33.5 -169t-73 -150
t-120.5 -150t-124.5 -127.5t-135.5 -123.5q-21 -19 -31 -28l-488 -436h826l-8 -41h-895z" />
    <glyph glyph-name="three.tf" horiz-adv-x="1259" 
d="M1200 1516l-6 -33l-737 -666q81 19 172 19q192 0 303.5 -94t111.5 -253q0 -147 -77.5 -264.5t-208.5 -181t-289 -63.5q-141 0 -241.5 47.5t-145.5 140.5l27 33q96 -181 360 -181q222 0 373 134.5t151 337.5q0 139 -102 221t-279 82q-146 0 -266 -54l-10 27l784 707h-762
l9 41h833z" />
    <glyph glyph-name="four.tf" horiz-adv-x="1259" 
d="M750 0l63 356h-766l8 45l963 1115h47l-199 -1121h246l-6 -39h-246l-63 -356h-47zM104 395h717l183 1037z" />
    <glyph glyph-name="five.tf" horiz-adv-x="1259" 
d="M467 -20q-278 0 -397 149l20 35q115 -144 377 -144q230 0 384.5 142t154.5 354q0 147 -95 233.5t-260 86.5q-154 0 -340 -50l-37 7l234 723h668l-9 -41h-620l-213 -646q172 48 330 48q183 0 288 -97.5t105 -261.5q0 -156 -79 -280t-213.5 -191t-297.5 -67z" />
    <glyph glyph-name="six.tf" horiz-adv-x="1259" 
d="M692 907q179 0 282 -98t103 -266q0 -155 -71.5 -284t-198.5 -204t-283 -75q-181 0 -284 98t-103 266q0 101 36 200.5t101 176.5l664 795h57l-577 -689q129 80 274 80zM532 20q141 0 254.5 70.5t175.5 188.5t62 258q0 151 -91.5 240t-250.5 89q-141 0 -255 -71
t-176.5 -189t-62.5 -258q0 -151 92 -239.5t252 -88.5z" />
    <glyph glyph-name="seven.tf" horiz-adv-x="1259" 
d="M319 1516h908l-834 -1516h-53l811 1475h-840z" />
    <glyph glyph-name="eight.tf" horiz-adv-x="1259" 
d="M795 784q123 -29 191.5 -112.5t68.5 -204.5q0 -140 -71.5 -252t-194.5 -173.5t-273 -61.5q-184 0 -289.5 90t-105.5 243q0 178 111 306t288 167q-106 29 -164.5 106.5t-58.5 186.5q0 200 140.5 328.5t348.5 128.5q166 0 263.5 -84.5t97.5 -226.5q0 -163 -97.5 -281.5
t-254.5 -159.5zM346 1075q0 -125 82.5 -197.5t228.5 -72.5q188 0 313.5 121t125.5 297q0 125 -83.5 198.5t-228.5 73.5q-187 0 -312.5 -121t-125.5 -299zM520 20q206 0 345 128.5t139 320.5q0 134 -93.5 214.5t-255.5 80.5q-204 0 -344.5 -129.5t-140.5 -319.5
q0 -136 94 -215.5t256 -79.5z" />
    <glyph glyph-name="nine.tf" horiz-adv-x="1259" 
d="M778 1536q180 0 283.5 -98.5t103.5 -266.5q0 -101 -36 -200t-101 -176l-663 -795h-58l578 688q-129 -80 -275 -80q-179 0 -282 98.5t-103 266.5q0 155 71.5 284t198.5 204t283 75zM621 649q141 0 255 71t176 189t62 258q0 151 -92 239.5t-252 88.5q-141 0 -254.5 -70.5
t-175 -188t-61.5 -257.5q0 -152 91.5 -241t250.5 -89z" />
    <glyph glyph-name="zero.tosf" horiz-adv-x="1259" 
d="M516 -20q-166 0 -260 124.5t-94 339.5q0 120 25.5 240.5t76 229t119 193t162 134t198.5 49.5q165 0 259 -125t94 -340q0 -150 -41 -299.5t-114 -271.5t-184.5 -198t-240.5 -76zM520 16q97 0 183.5 50t149 133t108.5 188.5t69 219t23 222.5q0 196 -82.5 310t-229.5 114
q-95 0 -181 -48t-149 -129.5t-110 -185.5t-70.5 -219t-23.5 -227q0 -199 82.5 -313.5t230.5 -114.5z" />
    <glyph glyph-name="one.tosf" horiz-adv-x="1259" 
d="M651 37h322l-6 -37h-850l6 37h487l211 1196h-354l6 37h395z" />
    <glyph glyph-name="two.tosf" horiz-adv-x="1259" 
d="M76 0l6 33l545 368q73 49 125.5 88t117 98.5t105 115t68.5 127t28 145.5q0 128 -87.5 203t-240.5 75q-175 0 -300.5 -100.5t-153.5 -263.5l-43 6q32 179 168 287t331 108q170 0 269.5 -85t99.5 -228q0 -58 -15.5 -115t-40 -103.5t-64 -95t-76.5 -85t-90.5 -78.5t-93 -70
t-95.5 -65l-489 -328h827l-6 -37h-895z" />
    <glyph glyph-name="three.tosf" horiz-adv-x="1259" 
d="M1163 1270l-6 -33l-743 -649q83 22 182 22q189 0 299.5 -91.5t110.5 -244.5q0 -146 -76 -261t-205 -176.5t-285 -61.5q-142 0 -243 48t-146 140l27 31q90 -182 360 -182q145 0 265 59.5t190 165t70 235.5q0 137 -103 219t-280 82q-147 0 -267 -57l-10 27l789 690h-770
l6 37h835z" />
    <glyph glyph-name="four.tosf" horiz-adv-x="1259" 
d="M727 -225l39 225h-772l8 43l981 1227h47l-217 -1233h246l-6 -37h-246l-39 -225h-41zM49 37h723l203 1155z" />
    <glyph glyph-name="five.tosf" horiz-adv-x="1259" 
d="M426 -225q-281 0 -397 149l16 31q114 -143 379 -143q229 0 383 138t154 347q0 144 -94.5 228.5t-260.5 84.5q-159 0 -342 -49l-35 6l228 703h667l-6 -37h-629l-208 -633q171 47 335 47q181 0 285.5 -94.5t104.5 -253.5q0 -152 -78 -272.5t-210 -186t-292 -65.5z" />
    <glyph glyph-name="six.tosf" horiz-adv-x="1259" 
d="M692 907q176 0 277.5 -97.5t101.5 -264.5q0 -154 -70.5 -283.5t-196.5 -205.5t-280 -76q-178 0 -280.5 96.5t-102.5 261.5q0 102 39.5 209t104.5 180l659 789h51l-579 -691q127 82 276 82zM532 20q141 0 254.5 70.5t175.5 188.5t62 258q0 151 -91.5 240t-250.5 89
q-141 0 -255 -71t-176.5 -189t-62.5 -258q0 -151 92 -239.5t252 -88.5z" />
    <glyph glyph-name="seven.tosf" horiz-adv-x="1259" 
d="M287 1270h907l-809 -1479l-39 12l784 1430h-849z" />
    <glyph glyph-name="eight.tosf" horiz-adv-x="1259" 
d="M791 784q122 -29 189 -111.5t67 -205.5q0 -140 -70.5 -252t-192.5 -173.5t-270 -61.5q-180 0 -284.5 89.5t-104.5 241.5q0 178 109.5 306t283.5 169q-103 29 -160 105.5t-57 185.5q0 199 138.5 329t344.5 130q163 0 259 -84.5t96 -226.5q0 -162 -96.5 -281.5
t-251.5 -159.5zM344 1075q0 -125 82.5 -197.5t228.5 -72.5q188 0 313.5 121t125.5 297q0 125 -83.5 198.5t-228.5 73.5q-187 0 -312.5 -121t-125.5 -299zM518 20q206 0 344.5 128.5t138.5 320.5q0 135 -93.5 215t-254.5 80q-204 0 -344.5 -129.5t-140.5 -319.5
q0 -136 94 -215.5t256 -79.5z" />
    <glyph glyph-name="nine.tosf" horiz-adv-x="1259" 
d="M733 1290q178 0 281.5 -96.5t103.5 -261.5q0 -102 -39 -209t-104 -180l-629 -752l-41 12l537 639q-129 -80 -277 -80q-176 0 -277.5 98t-101.5 265q0 154 70.5 283.5t196.5 205.5t280 76zM233 737q0 -153 92.5 -243.5t252.5 -90.5q141 0 254.5 71t175 189.5t61.5 258.5
q0 151 -91.5 239t-250.5 88q-142 0 -256 -70t-176 -186.5t-62 -255.5z" />
    <glyph glyph-name="zero.dnom" horiz-adv-x="768" 
d="M281 -12q-112 0 -175 87.5t-63 239.5q0 147 47.5 284.5t140.5 230t209 92.5q113 0 177.5 -88t64.5 -240q0 -110 -29 -217.5t-79.5 -194.5t-127.5 -140.5t-165 -53.5zM287 29q101 0 183 89.5t123.5 217.5t41.5 260q0 133 -52 209t-145 76q-77 0 -144.5 -52.5t-111.5 -135
t-69 -182.5t-25 -198q0 -133 52 -208.5t147 -75.5z" />
    <glyph glyph-name="one.dnom" horiz-adv-x="397" 
d="M92 0l154 868h-180l6 41h227l-160 -909h-47z" />
    <glyph glyph-name="two.dnom" horiz-adv-x="692" 
d="M-41 0l6 31l324 295q6 5 36 32t39 35.5t36.5 35t38.5 38.5t33.5 38t32.5 42.5t25 41.5t21.5 45.5t12 45.5t5.5 49q0 72 -47.5 112t-132.5 40q-99 0 -169 -56.5t-85 -148.5l-49 6q20 108 103.5 174t201.5 66q105 0 166 -51t61 -140q0 -37 -11.5 -75.5t-24.5 -67.5
t-44.5 -69.5t-48 -60.5t-60.5 -62t-56.5 -53.5t-59.5 -53.5l-280 -250l481 2l-8 -41h-547z" />
    <glyph glyph-name="three.dnom" horiz-adv-x="698" 
d="M647 909l-6 -30l-420 -379q36 8 86 8q116 0 183 -57t67 -154q0 -135 -101 -222t-249 -87q-178 0 -238 110l25 33q55 -102 213 -102q127 0 214 76t87 192q0 79 -58 125.5t-159 46.5q-82 0 -158 -31l-10 25l446 405h-434l6 41h506z" />
    <glyph glyph-name="four.dnom" horiz-adv-x="745" 
d="M393 0l37 209h-467l6 39l588 661h43l-117 -659h146l-8 -41h-144l-37 -209h-47zM18 248h420l103 583z" />
    <glyph glyph-name="five.dnom" horiz-adv-x="706" 
d="M207 -12q-169 0 -242 88l19 35q70 -82 223 -82q133 0 223 80.5t90 201.5q0 84 -54 132.5t-147 48.5q-91 0 -196 -31l-35 6l141 442h410l-8 -41h-365l-121 -362q88 26 185 26q111 0 175 -59t64 -158q0 -144 -104.5 -235.5t-257.5 -91.5z" />
    <glyph glyph-name="six.dnom" horiz-adv-x="696" 
d="M344 547q107 0 169 -59.5t62 -161.5q0 -141 -95.5 -239.5t-239.5 -98.5q-112 0 -176 59.5t-64 159.5q0 127 94 239l385 463h56l-336 -397q65 35 145 35zM248 29q122 0 200 86.5t78 206.5q0 86 -51.5 136t-142.5 50q-120 0 -200.5 -85t-80.5 -208q0 -86 52.5 -136
t144.5 -50z" />
    <glyph glyph-name="seven.dnom" horiz-adv-x="618" 
d="M74 909h553l-496 -909h-51l475 868h-487z" />
    <glyph glyph-name="eight.dnom" horiz-adv-x="739" 
d="M438 471q70 -22 109 -71t39 -119q0 -127 -95 -210t-233 -83q-113 0 -178.5 54.5t-65.5 147.5q0 105 64 180.5t166 100.5q-60 22 -92.5 67.5t-32.5 108.5q0 120 86 197.5t213 77.5q102 0 161.5 -52t59.5 -139q0 -95 -55.5 -164t-145.5 -96zM168 643q0 -71 46 -111t128 -40
q105 0 176.5 68.5t71.5 168.5q0 70 -46.5 111t-127.5 41q-105 0 -176.5 -69t-71.5 -169zM260 29q117 0 197 73.5t80 182.5q0 75 -53.5 120.5t-143.5 45.5q-117 0 -197 -74.5t-80 -181.5q0 -77 52.5 -121.5t144.5 -44.5z" />
    <glyph glyph-name="nine.dnom" horiz-adv-x="696" 
d="M395 922q112 0 176 -59.5t64 -160.5q0 -127 -94 -239l-385 -463h-56l336 397q-65 -35 -145 -35q-107 0 -169.5 60t-62.5 162q0 141 95.5 239.5t240.5 98.5zM303 401q120 0 200.5 85t80.5 208q0 87 -52.5 137t-144.5 50q-122 0 -200 -86.5t-78 -206.5q0 -87 52 -137
t142 -50z" />
    <glyph glyph-name="zero.numr" horiz-adv-x="768" 
d="M387 594q-112 0 -174.5 88t-62.5 240q0 109 28.5 216.5t78.5 194.5t126.5 141t163.5 54q113 0 177 -88t64 -240q0 -110 -29 -217.5t-79.5 -194.5t-127.5 -140.5t-165 -53.5zM393 635q101 0 183 89.5t123.5 217.5t41.5 260q0 133 -51.5 209t-144.5 76q-102 0 -184.5 -89
t-124 -217t-41.5 -261t52 -209t146 -76z" />
    <glyph glyph-name="one.numr" horiz-adv-x="397" 
d="M199 606l153 869h-180l6 41h228l-160 -910h-47z" />
    <glyph glyph-name="two.numr" horiz-adv-x="692" 
d="M66 606l6 31l323 295q7 7 35.5 32.5t39 35t37 35t38.5 38.5t34 38t32.5 42t25.5 42t21.5 46t12 45.5t5.5 48.5q0 72 -47.5 112t-132.5 40q-98 0 -168.5 -56.5t-85.5 -148.5l-49 6q20 108 103.5 174t201.5 66q105 0 166 -51t61 -140q0 -37 -11.5 -75.5t-24.5 -67.5
t-44.5 -69.5t-48 -60.5t-60.5 -62t-56.5 -53.5t-59.5 -53.5l-281 -250l482 2l-9 -41h-546z" />
    <glyph glyph-name="three.numr" horiz-adv-x="698" 
d="M754 1516l-6 -31l-420 -379q36 8 86 8q116 0 183 -57t67 -154q0 -135 -101.5 -222t-249.5 -87q-177 0 -237 111l24 32q55 -102 213 -102q127 0 214 76t87 192q0 79 -58 125.5t-159 46.5q-81 0 -157 -31l-11 25l447 406h-434l6 41h506z" />
    <glyph glyph-name="four.numr" horiz-adv-x="745" 
d="M500 606l37 209h-467l6 39l588 662h43l-117 -660h145l-8 -41h-143l-37 -209h-47zM125 854h420l102 584z" />
    <glyph glyph-name="five.numr" horiz-adv-x="706" 
d="M313 594q-168 0 -241 88l18 35q70 -82 223 -82q133 0 223.5 81t90.5 202q0 83 -53.5 131.5t-147.5 48.5q-92 0 -197 -31l-34 6l141 443h409l-8 -41h-364l-121 -363q92 27 184 27q112 0 176 -59t64 -158q0 -144 -105 -236t-258 -92z" />
    <glyph glyph-name="six.numr" horiz-adv-x="696" 
d="M451 1153q107 0 169 -59.5t62 -161.5q0 -141 -95.5 -239.5t-240.5 -98.5q-112 0 -176 59.5t-64 159.5q0 127 95 240l385 463h55l-336 -398q65 35 146 35zM354 635q122 0 200.5 86.5t78.5 206.5q0 86 -52 136t-143 50q-120 0 -200 -85t-80 -208q0 -87 52 -136.5t144 -49.5
z" />
    <glyph glyph-name="seven.numr" horiz-adv-x="618" 
d="M180 1516h553l-495 -910h-52l476 869h-488z" />
    <glyph glyph-name="eight.numr" horiz-adv-x="739" 
d="M545 1077q70 -22 108.5 -71t38.5 -119q0 -127 -94.5 -210t-232.5 -83q-113 0 -178.5 55t-65.5 148q0 105 63.5 180t165.5 100q-60 22 -92.5 67.5t-32.5 108.5q0 120 86 197.5t213 77.5q102 0 161.5 -52t59.5 -139q0 -95 -55 -164t-145 -96zM274 1249q0 -71 46.5 -111
t128.5 -40q105 0 176 68.5t71 168.5q0 70 -46.5 111t-127.5 41q-105 0 -176.5 -69t-71.5 -169zM367 635q117 0 196.5 73.5t79.5 182.5q0 75 -53.5 120.5t-143.5 45.5q-117 0 -196.5 -74t-79.5 -182q0 -77 52.5 -121.5t144.5 -44.5z" />
    <glyph glyph-name="nine.numr" horiz-adv-x="696" 
d="M502 1528q112 0 175.5 -59t63.5 -160q0 -128 -94 -240l-385 -463h-55l336 398q-65 -35 -146 -35q-107 0 -169 59.5t-62 161.5q0 141 95.5 239.5t240.5 98.5zM410 1008q120 0 200 84.5t80 207.5q0 87 -52 137t-144 50q-122 0 -200.5 -86.5t-78.5 -206.5q0 -86 52 -136
t143 -50z" />
    <glyph glyph-name="exclamdown.case" horiz-adv-x="499" 
d="M406 1536q17 0 28.5 -12t11.5 -31q0 -21 -14.5 -34t-34.5 -13q-17 0 -29 12t-12 31q0 21 15 34t35 13zM383 1268l-221 -1268h-49l229 1268h41z" />
    <glyph glyph-name="questiondown.case" horiz-adv-x="1021" 
d="M692 1536q17 0 29 -12t12 -31q0 -21 -14.5 -34t-34.5 -13q-17 0 -29 12t-12 31q0 21 14.5 34t34.5 13zM629 1270l39 -4q-15 -84 -37 -157.5t-43.5 -126t-53 -101.5t-55.5 -79t-61.5 -64t-58.5 -50.5t-60 -44.5q-57 -42 -91.5 -73t-66 -73t-45.5 -92.5t-14 -113.5
q0 -125 86.5 -198t239.5 -73q167 0 289 94t153 246l47 -6q-35 -169 -169.5 -271.5t-321.5 -102.5q-173 0 -274 83.5t-101 223.5q0 69 16 125.5t50.5 103.5t73.5 83.5t99 80.5q40 30 60.5 46t58.5 50t60 62t53 74.5t51.5 95.5t41 116.5t34.5 145.5z" />
    <glyph glyph-name="slash.case" horiz-adv-x="677" 
d="M-2 0l680 1516h43l-680 -1516h-43z" />
    <glyph glyph-name="braceleft.case" horiz-adv-x="784" 
d="M393 -102q-91 0 -143.5 55.5t-52.5 150.5q0 30 6 64l47 276q10 54 10 113q0 180 -139 180h-23l8 41h19q81 0 145.5 82t89.5 215l52 277q23 123 99 194.5t185 71.5q95 0 181 -25l-9 -41q-95 25 -180 25t-148.5 -64.5t-82.5 -169.5l-49 -276q-22 -120 -77.5 -204.5
t-125.5 -104.5q48 -15 75 -66.5t27 -134.5q0 -45 -10 -113l-47 -276q-6 -30 -6 -62q0 -77 40 -122t111 -45q93 0 195 24l-8 -41q-94 -24 -189 -24z" />
    <glyph glyph-name="braceright.case" horiz-adv-x="784" 
d="M434 1618q91 0 144 -56t53 -151q0 -29 -6 -63l-47 -277q-11 -59 -11 -113q0 -180 140 -180h22l-8 -41h-19q-81 0 -145.5 -82t-89.5 -215l-51 -276q-23 -123 -99.5 -194.5t-185.5 -71.5q-97 0 -180 24l8 41q91 -24 180 -24q85 0 149 64t83 169l49 277q22 120 77.5 204.5
t125.5 104.5q-103 33 -103 200q0 45 10 113l48 277q6 30 6 61q0 77 -40.5 122.5t-111.5 45.5q-88 0 -194 -25l8 41q98 25 188 25z" />
    <glyph glyph-name="bracketleft.case" horiz-adv-x="702" 
d="M102 -82l297 1679h400l-6 -36h-359l-284 -1606h358l-6 -37h-400z" />
    <glyph glyph-name="bracketright.case" horiz-adv-x="700" 
d="M641 1597l-297 -1679h-399l6 37h358l285 1606h-358l6 36h399z" />
    <glyph glyph-name="parenleft.case" horiz-adv-x="548" 
d="M301 -82q-174 299 -174 617q0 299 123.5 560t347.5 502h37q-195 -216 -326 -494.5t-131 -541.5q0 -187 49.5 -358.5t110.5 -284.5h-37z" />
    <glyph glyph-name="parenright.case" horiz-adv-x="548" 
d="M-45 -82q195 216 326 494.5t131 541.5q0 187 -49.5 358.5t-110.5 284.5h37q174 -299 174 -616q0 -300 -124 -561.5t-347 -501.5h-37z" />
    <glyph glyph-name="logo" horiz-adv-x="2609" 
d="M156 -20q-15 0 -25 10.5t-10 25.5q0 21 10 31l700 698h-663q-47 0 -47 39q0 16 14 33l696 701h-669q-41 0 -41 38v3q0 38 41 38h758q47 0 47 -41q0 -20 -17 -34l-698 -697h676q17 0 29 -12t12 -29v-669l694 692q13 16 35 16q37 0 37 -45v-663l696 692q13 16 33 16
q15 0 25 -12t10 -27q0 -18 -13 -28l-753 -762q-14 -14 -35 -14q-41 0 -41 47v663l-694 -696q-14 -14 -35 -14q-41 0 -41 47v663l-697 -696q-14 -14 -34 -14z" />
    </font>
</defs>
</svg>
