<?xml version="1.0" standalone="no"?>
<!DOCTYPE svg PUBLIC "-//W3C//DTD SVG 1.1//EN" "http://www.w3.org/Graphics/SVG/1.1/DTD/svg11.dtd" >
<svg xmlns="http://www.w3.org/2000/svg" xmlns:xlink="http://www.w3.org/1999/xlink" version="1.1">
<metadata>
Created by FontForge 20170731 at Thu Dec  2 10:15:24 2021
 By Aleksey,,,
Copyright (c) 2016 by Alberto Romanos. All rights reserved.
</metadata>
<defs>
<font id="BwModelicaSS02-BoldItalic" horiz-adv-x="0" >
  <font-face 
    font-family="Bw Modelica SS02 Bold"
    font-weight="700"
    font-style="italic"
    font-stretch="normal"
    units-per-em="2048"
    panose-1="0 0 8 0 0 0 0 0 0 0"
    ascent="1597"
    descent="-451"
    x-height="1104"
    cap-height="1516"
    bbox="-1804 -471 2585 2089"
    underline-thickness="102"
    underline-position="-307"
    slope="-10"
    unicode-range="U+000D-FB02"
  />
<missing-glyph horiz-adv-x="2609" 
d="M242 -20q-15 0 -25 10.5t-10 25.5q0 21 10 31l701 698h-664q-47 0 -47 39q0 16 14 33l697 701h-670q-41 0 -41 38v3q0 38 41 38h758q47 0 47 -41q0 -20 -17 -34l-698 -697h676q17 0 29 -12t12 -29v-669l694 692q13 16 35 16q37 0 37 -45v-663l696 692q13 16 33 16
q15 0 25 -12t10 -27q0 -18 -13 -28l-753 -762q-14 -14 -35 -14q-41 0 -41 47v663l-694 -696q-14 -14 -35 -14q-41 0 -41 47v663l-697 -696q-14 -14 -34 -14z" />
    <glyph glyph-name="fi" unicode="fi" horiz-adv-x="1390" 
d="M1264 1614q68 0 109.5 -41.5t41.5 -106.5q0 -77 -50.5 -129.5t-127.5 -52.5q-69 0 -111.5 41.5t-42.5 106.5q0 77 51.5 129.5t129.5 52.5zM879 1104l-39 -227h-293l-154 -877h-278l155 877h-180l41 227h178l88 493h588l-39 -227h-311l-47 -266h291zM856 0l197 1104h278
l-196 -1104h-279z" />
    <glyph glyph-name="fl" unicode="fl" horiz-adv-x="1484" 
d="M879 1104l-39 -227h-293l-154 -877h-278l155 877h-180l41 227h178l88 493h588l-39 -227h-311l-47 -266h291zM1419 1597l-241 -1368h206l-41 -229h-485l283 1597h278z" />
    <glyph glyph-name=".notdef" horiz-adv-x="2609" 
d="M242 -20q-15 0 -25 10.5t-10 25.5q0 21 10 31l701 698h-664q-47 0 -47 39q0 16 14 33l697 701h-670q-41 0 -41 38v3q0 38 41 38h758q47 0 47 -41q0 -20 -17 -34l-698 -697h676q17 0 29 -12t12 -29v-669l694 692q13 16 35 16q37 0 37 -45v-663l696 692q13 16 33 16
q15 0 25 -12t10 -27q0 -18 -13 -28l-753 -762q-14 -14 -35 -14q-41 0 -41 47v663l-694 -696q-14 -14 -35 -14q-41 0 -41 47v663l-697 -696q-14 -14 -34 -14z" />
    <glyph glyph-name=".null" 
 />
    <glyph glyph-name="nonmarkingreturn" horiz-adv-x="682" 
 />
    <glyph glyph-name="CR" unicode="&#xd;" horiz-adv-x="432" 
 />
    <glyph glyph-name="space" unicode=" " horiz-adv-x="507" 
 />
    <glyph glyph-name="exclam" unicode="!" horiz-adv-x="589" 
d="M139 444l164 1072h291l-215 -1072h-240zM195 -20q-69 0 -111.5 41.5t-42.5 107.5q0 77 51.5 129.5t128.5 52.5q69 0 110.5 -41.5t41.5 -107.5q0 -77 -50.5 -129.5t-127.5 -52.5z" />
    <glyph glyph-name="quotedbl" unicode="&#x22;" horiz-adv-x="827" 
d="M209 1155l72 442h223l-84 -442h-211zM582 1155l71 442h224l-82 -442h-213z" />
    <glyph glyph-name="numbersign" unicode="#" horiz-adv-x="1538" 
d="M1462 868h-254l-125 -309h254l-77 -182h-252l-154 -377h-207l154 377h-324l-153 -377h-205l153 377h-247l77 182h246l125 309h-246l74 183h248l156 383h204l-155 -383h323l156 383h207l-156 -383h252zM877 559l124 309h-323l-125 -309h324z" />
    <glyph glyph-name="dollar" unicode="$" horiz-adv-x="1337" 
d="M811 887q414 -120 414 -406q0 -128 -67.5 -233t-182.5 -170t-262 -88l-31 -174h-289l33 176q-231 38 -365 184l127 182q152 -139 394 -139q146 0 244 58.5t98 156.5q0 69 -66 111t-205 84l-82 26q-86 25 -149.5 55t-116.5 72.5t-80.5 102t-27.5 133.5q0 199 139 336.5
t360 171.5l31 174h289l-33 -178q195 -37 330 -166l-146 -189q-138 129 -346 129q-135 0 -228 -60t-93 -151q0 -28 11.5 -51t30 -39.5t50 -32t61 -26t74.5 -23.5z" />
    <glyph glyph-name="percent" unicode="%" horiz-adv-x="1769" 
d="M504 838q-159 0 -250.5 80t-91.5 217q0 177 124 289t310 112q157 0 248.5 -80.5t91.5 -214.5q0 -178 -123.5 -290.5t-308.5 -112.5zM403 -20l-139 90l1145 1466l139 -90zM528 1016q79 0 132 62.5t53 144.5q0 64 -37.5 98.5t-104.5 34.5q-80 0 -133 -62t-53 -143
q0 -64 37.5 -99.5t105.5 -35.5zM1217 -20q-158 0 -250.5 80.5t-92.5 215.5q0 177 124.5 289.5t310.5 112.5q159 0 249.5 -79.5t90.5 -215.5q0 -177 -123 -290t-309 -113zM1241 160q80 0 133 62t53 143q0 64 -37.5 99.5t-103.5 35.5q-81 0 -133.5 -62t-52.5 -145
q0 -64 37 -98.5t104 -34.5z" />
    <glyph glyph-name="ampersand" unicode="&#x26;" horiz-adv-x="1581" 
d="M1165 705l-55 -326q-6 -24 -6 -45q0 -55 32.5 -85t90.5 -30q98 0 194 41l-24 -233q-113 -47 -281 -47q-96 0 -166 39t-104 110q-166 -149 -389 -149q-188 0 -300 101t-112 267q0 171 98.5 293.5t264.5 181.5q-152 97 -152 271q0 135 76.5 237t201.5 153.5t277 51.5
q201 0 318.5 -93t117.5 -247q0 -32 -6 -70l-35 -204h324l-37 -217h-328zM784 1296q-104 0 -176.5 -64.5t-72.5 -158.5q0 -70 45.5 -110.5t128.5 -40.5h219l33 196q4 32 4 41q0 66 -48 101.5t-133 35.5zM549 219q109 0 192 62t105 182l41 242h-201q-143 0 -245.5 -87
t-102.5 -210q0 -88 56.5 -138.5t154.5 -50.5z" />
    <glyph glyph-name="quotesingle" unicode="'" horiz-adv-x="454" 
d="M209 1155l72 442h223l-84 -442h-211z" />
    <glyph glyph-name="parenleft" unicode="(" horiz-adv-x="688" 
d="M215 -369q-158 349 -158 709q0 336 134.5 659.5t363.5 597.5h262q-149 -203 -251.5 -402t-165 -438.5t-62.5 -486.5q0 -326 127 -639h-250z" />
    <glyph glyph-name="parenright" unicode=")" horiz-adv-x="686" 
d="M-143 -369q481 646 481 1325q0 333 -125 641h248q157 -351 157 -710q0 -343 -132.5 -660t-364.5 -596h-264z" />
    <glyph glyph-name="asterisk" unicode="*" horiz-adv-x="804" 
d="M809 1229l-182 -51l88 -144l-154 -102l-80 149l-125 -149l-129 102l133 146l-163 49l82 166l163 -62l27 183h174l-37 -181l178 60z" />
    <glyph glyph-name="plus" unicode="+" horiz-adv-x="1136" 
d="M1085 831l-41 -229h-342l-63 -354h-279l64 354h-348l41 229h346l63 357h279l-64 -357h344z" />
    <glyph glyph-name="comma" unicode="," horiz-adv-x="595" 
d="M-145 -297l243 561h326l-283 -561h-286z" />
    <glyph glyph-name="hyphen" unicode="-" horiz-adv-x="980" 
d="M100 494l35 198h725l-35 -198h-725z" />
    <glyph glyph-name="period" unicode="." horiz-adv-x="550" 
d="M180 -20q-72 0 -119 49t-47 121q0 83 56.5 138.5t142.5 55.5q72 0 119 -49t47 -123q0 -82 -56.5 -137t-142.5 -55z" />
    <glyph glyph-name="slash" unicode="/" horiz-adv-x="933" 
d="M-70 -205l807 1802h285l-807 -1802h-285z" />
    <glyph glyph-name="zero" unicode="0" horiz-adv-x="1323" 
d="M573 -20q-221 0 -348 157t-127 424q0 123 23.5 244t66.5 228.5t107.5 200t142.5 159.5t175 105t202 38q220 0 345.5 -157t125.5 -423q0 -148 -32.5 -291t-95.5 -266t-148.5 -217t-198.5 -148t-238 -54zM600 219q87 0 163 70t124.5 179.5t76 236.5t27.5 247q0 160 -54 252
t-153 92q-87 0 -163.5 -70t-125 -179.5t-76.5 -236.5t-28 -247q0 -160 55 -252t154 -92z" />
    <glyph glyph-name="one" unicode="1" horiz-adv-x="751" 
d="M172 0l225 1276h-233l41 240h524l-268 -1516h-289z" />
    <glyph glyph-name="two" unicode="2" horiz-adv-x="1208" 
d="M-31 0l33 182l588 531q126 114 178 173q125 143 125 259q0 71 -45.5 111t-126.5 40q-94 0 -164.5 -66.5t-89.5 -170.5l-285 47q35 197 188.5 313.5t372.5 116.5q205 0 324 -94.5t119 -253.5q0 -92 -35 -181.5t-104 -175.5t-141 -155.5t-175 -155.5l-338 -287l649 7
l-41 -240h-1032z" />
    <glyph glyph-name="three" unicode="3" horiz-adv-x="1189" 
d="M1178 1516l-33 -181l-463 -415q182 -9 286.5 -112.5t104.5 -268.5q0 -167 -86.5 -295.5t-234 -196t-332.5 -67.5q-145 0 -264.5 42t-182.5 115l136 197q97 -115 323 -115q144 0 244 79.5t100 199.5q0 94 -67.5 148t-186.5 54q-109 0 -207 -55l-61 152l504 479h-516
l43 240h893z" />
    <glyph glyph-name="four" unicode="4" horiz-adv-x="1316" 
d="M633 0l51 293h-700l32 199l945 1024h227l-172 -984h211l-43 -239h-211l-51 -293h-289zM360 524h375l99 533z" />
    <glyph glyph-name="five" unicode="5" horiz-adv-x="1212" 
d="M408 -20q-146 0 -260.5 36t-184.5 103l111 198q112 -98 336 -98q162 0 277.5 88.5t115.5 220.5q0 91 -56 142t-157 51q-128 0 -228 -82l-194 35l252 842h780l-41 -240h-528l-119 -336q89 21 160 21q196 0 314 -104.5t118 -276.5q0 -130 -55.5 -242.5t-150 -190.5
t-222 -122.5t-268.5 -44.5z" />
    <glyph glyph-name="six" unicode="6" horiz-adv-x="1204" 
d="M721 928q174 0 286.5 -102.5t112.5 -270.5q0 -162 -84 -294.5t-227 -206.5t-313 -74q-211 0 -333 104.5t-122 282.5q0 258 250 542l538 607h324l-549 -596q47 8 117 8zM537 219q122 0 200 89t78 210q0 88 -51.5 139.5t-140.5 51.5q-121 0 -201 -88t-80 -213
q0 -88 52 -138.5t143 -50.5z" />
    <glyph glyph-name="seven" unicode="7" horiz-adv-x="1103" 
d="M190 1516h1029l-781 -1516h-309l668 1276h-650z" />
    <glyph glyph-name="eight" unicode="8" horiz-adv-x="1257" 
d="M938 780q88 -46 136 -123t48 -176q0 -112 -47.5 -207t-128 -159t-189 -99.5t-229.5 -35.5q-218 0 -345.5 102.5t-127.5 273.5q0 155 86 269t232 170q-154 93 -154 272q0 137 75 245t200.5 166t275.5 58q200 0 317 -96t117 -258q0 -140 -71.5 -243t-194.5 -159zM741 1296
q-99 0 -165 -71.5t-66 -167.5q0 -71 44 -112.5t122 -41.5q98 0 164.5 72.5t66.5 167.5q0 72 -43.5 112.5t-122.5 40.5zM555 219q116 0 196 79t80 189q0 83 -53 131t-147 48q-118 0 -197.5 -80.5t-79.5 -190.5q0 -84 53.5 -130t147.5 -46z" />
    <glyph glyph-name="nine" unicode="9" horiz-adv-x="1204" 
d="M748 1536q211 0 332.5 -104.5t121.5 -282.5q0 -259 -250 -543l-536 -606h-326l549 596q-47 -8 -117 -8q-174 0 -286.5 102.5t-112.5 270.5q0 121 49.5 228.5t133.5 183t199.5 119.5t242.5 44zM428 997q0 -88 52 -139t141 -51q121 0 200.5 88t79.5 213q0 88 -51.5 138
t-142.5 50q-122 0 -200.5 -89t-78.5 -210z" />
    <glyph glyph-name="colon" unicode=":" horiz-adv-x="589" 
d="M330 762q-72 0 -119 49t-47 121q0 83 56 137.5t142 54.5q73 0 119.5 -48.5t46.5 -121.5q0 -83 -56 -137.5t-142 -54.5zM195 -20q-73 0 -119.5 48.5t-46.5 121.5q0 83 55.5 138.5t140.5 55.5q73 0 119.5 -49t46.5 -123q0 -82 -56 -137t-140 -55z" />
    <glyph glyph-name="semicolon" unicode=";" horiz-adv-x="657" 
d="M379 762q-72 0 -119 49t-47 121q0 83 56.5 137.5t142.5 54.5q72 0 119 -49t47 -121q0 -83 -56.5 -137.5t-142.5 -54.5zM-113 -297l244 561h326l-283 -561h-287z" />
    <glyph glyph-name="less" unicode="&#x3c;" horiz-adv-x="1177" 
d="M954 188l-884 439l30 180l1041 438l-45 -260l-662 -268l565 -268z" />
    <glyph glyph-name="equal" unicode="=" horiz-adv-x="1241" 
d="M168 829l39 230h971l-41 -230h-969zM88 377l39 229h971l-41 -229h-969z" />
    <glyph glyph-name="greater" unicode="&#x3e;" horiz-adv-x="1177" 
d="M61 188l45 261l664 268l-567 268l45 260l885 -438l-31 -180z" />
    <glyph glyph-name="question" unicode="?" horiz-adv-x="1132" 
d="M633 434l-234 21q18 103 48 180.5t73 132.5t78 86.5t90 71.5q76 56 117 108t41 119q0 69 -47 106t-133 37q-92 0 -160 -52.5t-90 -139.5l-260 33q39 183 185.5 291t350.5 108q208 0 329.5 -96t121.5 -254q0 -130 -56.5 -211.5t-183.5 -169.5q-47 -34 -71.5 -53t-63.5 -56
t-60.5 -70t-43 -83.5t-31.5 -108.5zM451 -20q-69 0 -111.5 41.5t-42.5 107.5q0 77 51.5 129.5t128.5 52.5q69 0 110.5 -41.5t41.5 -107.5q0 -77 -50.5 -129.5t-127.5 -52.5z" />
    <glyph glyph-name="at" unicode="@" horiz-adv-x="2304" 
d="M1675 985l-94 -534q-4 -18 -4 -43q0 -44 22 -69.5t62 -25.5q82 0 149 78.5t101.5 189t34.5 220.5q0 231 -170.5 364t-464.5 133q-216 0 -396.5 -68.5t-306 -191.5t-195 -298.5t-69.5 -385.5q0 -271 179.5 -428t502.5 -157q121 0 284 19.5t287 49.5l64 -219
q-143 -41 -329 -65.5t-333 -24.5q-440 0 -691 221t-251 596q0 265 92.5 487t258.5 376.5t404 240.5t521 86q413 0 652 -191t239 -520q0 -143 -41.5 -278t-114.5 -239.5t-180.5 -168t-230.5 -63.5q-113 0 -191.5 49.5t-109.5 136.5q-132 -188 -361 -188q-168 0 -272.5 104
t-104.5 275q0 144 65 269.5t181 202t256 76.5q182 0 260 -137l25 121h270zM1081 313q88 0 152.5 58.5t83.5 152.5v2l2 17q4 28 4 43q0 85 -45.5 130.5t-128.5 45.5q-104 0 -173 -83.5t-69 -191.5q0 -81 45.5 -127.5t128.5 -46.5z" />
    <glyph glyph-name="A" unicode="A" horiz-adv-x="1546" 
d="M1135 0l-68 301h-698l-179 -301h-313l916 1516h268l379 -1516h-305zM510 541h502l-140 616z" />
    <glyph glyph-name="B" unicode="B" horiz-adv-x="1449" 
d="M1124 799q99 -42 154 -121t55 -184q0 -145 -77 -258.5t-208 -174.5t-290 -61h-690l268 1516h665q171 0 272 -91.5t101 -244.5q0 -129 -66.5 -226t-183.5 -155zM883 1276h-303l-66 -379h283q125 0 199.5 62.5t74.5 168.5q0 70 -49 109t-139 39zM743 240q139 0 219 70
t80 182q0 78 -55 122.5t-153 44.5h-363l-74 -419h346z" />
    <glyph glyph-name="C" unicode="C" horiz-adv-x="1339" 
d="M782 -20q-318 0 -502 171t-184 461q0 194 70.5 365t193 294t296 194t370.5 71q210 0 358 -102l-45 -246q-117 108 -340 108q-129 0 -243 -54.5t-193 -145.5t-124.5 -212t-45.5 -253q0 -190 110 -301t304 -111q229 0 401 129l-49 -278q-160 -90 -377 -90z" />
    <glyph glyph-name="D" unicode="D" horiz-adv-x="1611" 
d="M922 1516q292 0 462 -165.5t170 -445.5q0 -253 -113 -460t-315.5 -326t-455.5 -119h-602l268 1516h586zM696 240q128 0 236 54.5t178.5 144.5t110 204t39.5 236q0 187 -99 292t-284 105h-297l-183 -1036h299z" />
    <glyph glyph-name="E" unicode="E" horiz-adv-x="1329" 
d="M1321 1276h-741l-68 -389h674l-41 -238h-676l-72 -409h758l-43 -240h-1044l268 1516h1026z" />
    <glyph glyph-name="F" unicode="F" horiz-adv-x="1212" 
d="M1249 1276h-669l-76 -430h573l-41 -238h-573l-109 -608h-286l268 1516h954z" />
    <glyph glyph-name="G" unicode="G" horiz-adv-x="1671" 
d="M1649 854q-5 -47 -17 -117q-17 -168 -91.5 -310.5t-189 -240t-265 -152t-318.5 -54.5q-310 0 -490 170.5t-180 459.5q0 194 69 365.5t189 294.5t290.5 194.5t365.5 71.5q321 0 518 -172l-209 -170q-119 102 -332 102q-170 0 -308.5 -95t-214 -247.5t-75.5 -326.5
q0 -188 108 -298t296 -110q193 0 341 109.5t183 285.5h-401l43 240h688z" />
    <glyph glyph-name="H" unicode="H" horiz-adv-x="1748" 
d="M1434 1516h288l-268 -1516h-289l115 653h-811l-115 -653h-286l268 1516h287l-111 -625h811z" />
    <glyph glyph-name="I" unicode="I" horiz-adv-x="649" 
d="M68 0l268 1516h287l-269 -1516h-286z" />
    <glyph glyph-name="J" unicode="J" horiz-adv-x="874" 
d="M207 -20q-194 0 -289 129l96 176q66 -66 168 -66q73 0 125 48t64 124l198 1125h289l-211 -1199q-28 -155 -148 -246t-292 -91z" />
    <glyph glyph-name="K" unicode="K" horiz-adv-x="1445" 
d="M1589 1516l-717 -744l467 -772h-338l-387 655h-143l-117 -655h-286l268 1516h287l-111 -623h133l590 623h354z" />
    <glyph glyph-name="L" unicode="L" horiz-adv-x="1157" 
d="M397 240h672l-45 -240h-956l268 1516h287z" />
    <glyph glyph-name="M" unicode="M" horiz-adv-x="2045" 
d="M1647 1524h317l-166 -1524h-289l125 1032l-647 -1032h-158l-282 1034l-240 -1034h-289l369 1524h320l284 -1051z" />
    <glyph glyph-name="N" unicode="N" horiz-adv-x="1777" 
d="M68 0l268 1516h174l774 -1027l178 1027h289l-268 -1516h-174l-774 1026l-181 -1026h-286z" />
    <glyph glyph-name="O" unicode="O" horiz-adv-x="1765" 
d="M782 -20q-318 0 -502 171t-184 461q0 194 70.5 365t193 294t296 194t370.5 71q316 0 499 -171t183 -460q0 -194 -70.5 -365.5t-192.5 -294.5t-294.5 -194t-368.5 -71zM807 219q130 0 244 55t192 147t123 213.5t45 252.5q0 190 -109.5 299.5t-302.5 109.5
q-130 0 -244.5 -54.5t-193.5 -145.5t-124.5 -212t-45.5 -253q0 -190 111 -301t305 -111z" />
    <glyph glyph-name="P" unicode="P" horiz-adv-x="1382" 
d="M940 1516q212 0 335.5 -111t123.5 -299q0 -127 -49 -237.5t-133 -187.5t-200.5 -121t-248.5 -44h-322l-92 -516h-286l268 1516h604zM774 756q145 0 236.5 91t91.5 232q0 93 -57.5 145t-161.5 52h-303l-93 -520h287z" />
    <glyph glyph-name="Q" unicode="Q" horiz-adv-x="1765" 
d="M1708 905q0 -186 -63 -349t-179 -288l240 -268h-342l-94 109q-219 -129 -488 -129q-318 0 -502 171t-184 461q0 194 70.5 365t193 294t296 194t370.5 71q316 0 499 -171t183 -460zM807 219q159 0 297 82l-232 268h326l86 -96q127 186 127 414q0 190 -109.5 299.5
t-302.5 109.5q-130 0 -244.5 -54.5t-193.5 -145.5t-124.5 -212t-45.5 -253q0 -190 111 -301t305 -111z" />
    <glyph glyph-name="R" unicode="R" horiz-adv-x="1490" 
d="M1421 1112q0 -180 -98 -311.5t-266 -194.5l289 -606h-330l-250 557h-313l-99 -557h-286l268 1516h625q212 0 336 -110t124 -294zM580 1276l-84 -479h284q162 0 253 80.5t91 205.5q0 91 -58 142t-163 51h-323z" />
    <glyph glyph-name="S" unicode="S" horiz-adv-x="1316" 
d="M555 -20q-161 0 -294.5 51t-221.5 145l129 182q152 -139 393 -139q146 0 244 58.5t98 156.5q0 69 -65.5 111t-204.5 84l-84 26q-85 25 -148 55t-116.5 72.5t-81 102t-27.5 133.5q0 151 83.5 270t226.5 183.5t319 64.5q298 0 487 -180l-145 -189q-138 129 -346 129
q-135 0 -228.5 -60t-93.5 -151q0 -28 12 -51t30 -39.5t50 -32t61.5 -26t74.5 -23.5l84 -26q413 -120 413 -406q0 -147 -88 -262.5t-235.5 -177t-325.5 -61.5z" />
    <glyph glyph-name="T" unicode="T" horiz-adv-x="1265" 
d="M1391 1516l-41 -240h-465l-226 -1276h-288l225 1276h-461l43 240h1213z" />
    <glyph glyph-name="U" unicode="U" horiz-adv-x="1650" 
d="M721 -20q-268 0 -425 134t-157 357q0 41 11 113l163 932h289l-164 -926q-8 -58 -8 -84q0 -135 83.5 -211t231.5 -76q167 0 290.5 103t152.5 266l162 928h288l-168 -953q-47 -266 -251.5 -424.5t-497.5 -158.5z" />
    <glyph glyph-name="V" unicode="V" horiz-adv-x="1548" 
d="M526 0l-379 1516h304l266 -1158l680 1158h311l-913 -1516h-269z" />
    <glyph glyph-name="W" unicode="W" horiz-adv-x="2324" 
d="M412 0l-256 1516h303l166 -1129l551 1129h270l153 -1129l562 1129h313l-791 -1516h-270l-164 1126l-569 -1126h-268z" />
    <glyph glyph-name="X" unicode="X" horiz-adv-x="1400" 
d="M1520 1516l-633 -723l413 -793h-339l-279 563l-475 -563h-326l682 778l-381 738h340l246 -506l426 506h326z" />
    <glyph glyph-name="Y" unicode="Y" horiz-adv-x="1413" 
d="M444 0l103 559l-373 957h301l260 -701l496 701h315l-710 -957l-103 -559h-289z" />
    <glyph glyph-name="Z" unicode="Z" horiz-adv-x="1245" 
d="M1333 1516l-905 -1276h688l-43 -240h-1136l907 1276h-664l41 240h1112z" />
    <glyph glyph-name="bracketleft" unicode="[" horiz-adv-x="798" 
d="M-14 -369l346 1966h577l-41 -239h-290l-263 -1487h291l-43 -240h-577z" />
    <glyph glyph-name="backslash" unicode="\" horiz-adv-x="911" 
d="M412 -205l-172 1802h276l172 -1802h-276z" />
    <glyph glyph-name="bracketright" unicode="]" horiz-adv-x="798" 
d="M803 1597l-346 -1966h-578l41 240h291l262 1487h-291l43 239h578z" />
    <glyph glyph-name="asciicircum" unicode="^" horiz-adv-x="1120" 
d="M1034 639h-278l-125 399l-264 -399h-275l453 670h272z" />
    <glyph glyph-name="underscore" unicode="_" horiz-adv-x="1212" 
d="M-96 -199l35 199h1108l-35 -199h-1108z" />
    <glyph glyph-name="grave" unicode="`" horiz-adv-x="1228" 
d="M434 1266l-307 329h319l220 -329h-232z" />
    <glyph glyph-name="a" unicode="a" horiz-adv-x="1193" 
d="M213 1104h922l-197 -1104h-266l20 147q-68 -82 -159.5 -124.5t-190.5 -42.5q-156 0 -248 79.5t-92 210.5q0 127 71.5 220t187.5 138.5t259 45.5q122 0 254 -29l43 240h-645zM430 178q102 0 192.5 78t118.5 203l2 6q-105 18 -188 18q-115 0 -190.5 -51.5t-75.5 -134.5
q0 -55 36 -87t105 -32z" />
    <glyph glyph-name="b" unicode="b" horiz-adv-x="1390" 
d="M854 1124q203 0 328 -125.5t125 -336.5q0 -182 -82 -339t-225.5 -250t-313.5 -93q-130 0 -219 52.5t-135 147.5l-37 -180h-268l282 1597h279l-113 -639q150 166 379 166zM659 219q154 0 257.5 120.5t103.5 281.5q0 124 -70 195t-194 71q-131 0 -229 -92.5t-124 -239.5v-2
q-6 -35 -6 -66q0 -127 69.5 -197.5t192.5 -70.5z" />
    <glyph glyph-name="c" unicode="c" horiz-adv-x="985" 
d="M569 -20q-238 0 -377 127.5t-139 343.5q0 189 88.5 343t245 242t350.5 88q60 0 122 -17t104 -44l-41 -242q-87 66 -203 66q-110 0 -198 -59.5t-134.5 -154t-46.5 -200.5q0 -117 67.5 -185.5t190.5 -68.5q139 0 238 76l-45 -262q-87 -53 -222 -53z" />
    <glyph glyph-name="d" unicode="d" horiz-adv-x="1384" 
d="M1137 1597h278l-282 -1597h-271l23 147q-148 -167 -383 -167q-202 0 -326.5 125.5t-124.5 336.5q0 182 81.5 339t224.5 250t313 93q255 0 350 -192zM600 219q131 0 227.5 91t124.5 237v2q6 38 6 67q0 129 -69.5 200t-192.5 71q-102 0 -186 -57.5t-129 -149t-45 -195.5
q0 -125 70 -195.5t194 -70.5z" />
    <glyph glyph-name="e" unicode="e" horiz-adv-x="1247" 
d="M1137 453h-803v-37q0 -102 54.5 -159.5t154.5 -57.5q164 0 305 137l201 -123q-94 -111 -226.5 -172t-281.5 -61q-227 0 -358.5 124.5t-131.5 337.5q0 140 48.5 265.5t132.5 217t204.5 145.5t257.5 54q223 0 350 -122.5t127 -331.5q0 -109 -34 -217zM690 905
q-114 0 -195.5 -72t-123.5 -192h518q2 14 2 39q0 109 -53 167t-148 58z" />
    <glyph glyph-name="f" unicode="f" horiz-adv-x="829" 
d="M946 1370h-311l-47 -266h291l-39 -227h-293l-154 -877h-278l155 877h-180l41 227h178l88 493h588z" />
    <glyph glyph-name="g" unicode="g" horiz-adv-x="1388" 
d="M1063 1104h270l-276 -1555h-1114l39 228h837l66 368q-149 -165 -381 -165q-201 0 -326 126t-125 336q0 182 82 339t225.5 250t313.5 93q256 0 352 -196zM604 219q131 0 228.5 92t123.5 238q7 44 7 67q0 129 -70 200t-195 71q-101 0 -184.5 -57.5t-128.5 -149t-45 -195.5
q0 -125 70 -195.5t194 -70.5z" />
    <glyph glyph-name="h" unicode="h" horiz-adv-x="1335" 
d="M838 1124q179 0 283 -96t104 -256q0 -26 -8 -88l-121 -684h-279l115 649q0 3 3 23t3 28q0 89 -58 138t-163 49q-113 0 -195.5 -64.5t-101.5 -165.5v-4l-115 -653h-278l280 1597h279l-107 -612q142 139 359 139z" />
    <glyph glyph-name="i" unicode="i" horiz-adv-x="561" 
d="M408 1284q-69 0 -111.5 41.5t-42.5 106.5q0 77 51.5 129.5t128.5 52.5q68 0 110 -41.5t42 -106.5q0 -77 -50.5 -129.5t-127.5 -52.5zM27 0l196 1104h279l-197 -1104h-278z" />
    <glyph glyph-name="j" unicode="j" horiz-adv-x="561" 
d="M406 1284q-68 0 -110 41.5t-42 106.5q0 77 50.5 129.5t127.5 52.5q69 0 111.5 -41.5t42.5 -106.5q0 -77 -50.5 -129.5t-129.5 -52.5zM-51 -451l274 1555h279l-275 -1555h-278z" />
    <glyph glyph-name="k" unicode="k" horiz-adv-x="1236" 
d="M1319 1104l-586 -526l406 -578h-336l-309 465h-107l-82 -465h-278l282 1597h279l-160 -903h80l448 410h363z" />
    <glyph glyph-name="l" unicode="l" horiz-adv-x="655" 
d="M29 0l282 1597h279l-242 -1368h207l-41 -229h-485z" />
    <glyph glyph-name="m" unicode="m" horiz-adv-x="2002" 
d="M1497 1124q181 0 287 -96t106 -256q0 -47 -8 -88l-121 -684h-278l114 645q5 34 5 60q0 86 -49.5 134t-137.5 48q-100 0 -173.5 -66t-92.5 -168l-117 -653h-278l112 645q6 27 6 60q0 86 -49 134t-137 48q-100 0 -174.5 -66t-91.5 -168l-115 -653h-278l192 1104h270
l-16 -115q135 135 334 135q109 0 189 -43.5t122 -122.5q144 166 379 166z" />
    <glyph glyph-name="n" unicode="n" horiz-adv-x="1335" 
d="M838 1124q179 0 283 -96t104 -256q0 -26 -8 -88l-121 -684h-279l115 649q0 3 3 23t3 28q0 89 -58 138t-163 49q-115 0 -197.5 -66t-99.5 -168l-115 -653h-278l192 1104h270l-18 -125q145 145 367 145z" />
    <glyph glyph-name="o" unicode="o" horiz-adv-x="1335" 
d="M567 -20q-237 0 -376.5 127.5t-139.5 341.5q0 190 89 344.5t245.5 242.5t349.5 88q237 0 375.5 -126.5t138.5 -342.5q0 -190 -88 -344.5t-244 -242.5t-350 -88zM604 219q101 0 184.5 57.5t129 149t45.5 195.5q0 123 -70 194.5t-193 71.5q-155 0 -258.5 -121t-103.5 -281
q0 -124 70.5 -195t195.5 -71z" />
    <glyph glyph-name="p" unicode="p" horiz-adv-x="1388" 
d="M852 1124q203 0 328 -125.5t125 -336.5q0 -182 -82 -339t-225.5 -250t-313.5 -93q-252 0 -350 192l-109 -623h-278l274 1555h268l-22 -152q148 172 385 172zM657 219q154 0 257.5 120.5t103.5 281.5q0 124 -70 195t-194 71q-131 0 -228 -91.5t-125 -238.5v-6
q-6 -34 -6 -64q0 -127 69.5 -197.5t192.5 -70.5z" />
    <glyph glyph-name="q" unicode="q" horiz-adv-x="1388" 
d="M1061 1104h270l-276 -1555h-279l107 596q-149 -165 -381 -165q-201 0 -326 126t-125 336q0 182 82 339t225.5 250t313.5 93q256 0 352 -196zM602 219q131 0 228.5 92t123.5 238l2 8q5 50 5 59q0 129 -70 200t-195 71q-101 0 -184.5 -57.5t-128.5 -149t-45 -195.5
q0 -125 70 -195.5t194 -70.5z" />
    <glyph glyph-name="r" unicode="r" horiz-adv-x="835" 
d="M27 0l194 1104h268l-24 -141q151 161 432 161l-47 -256q-171 0 -295 -80t-147 -204l-103 -584h-278z" />
    <glyph glyph-name="s" unicode="s" horiz-adv-x="1044" 
d="M410 -20q-273 0 -410 137l119 157q113 -75 297 -75q87 0 150 37.5t63 95.5q0 43 -39.5 69t-118.5 45l-90 23q-272 60 -272 258q0 170 140.5 283.5t344.5 113.5q256 0 407 -114l-135 -172q-98 67 -254 67q-90 0 -152.5 -33.5t-62.5 -89.5q0 -39 32.5 -59.5t105.5 -42.5
l88 -27q135 -40 212.5 -106.5t77.5 -177.5q0 -118 -68 -207.5t-181.5 -135.5t-253.5 -46z" />
    <glyph glyph-name="t" unicode="t" horiz-adv-x="802" 
d="M866 1104l-41 -227h-235l-156 -877h-278l155 877h-231l39 227h231l58 323h278l-57 -323h237z" />
    <glyph glyph-name="u" unicode="u" horiz-adv-x="1282" 
d="M539 -20q-211 0 -334 104.5t-123 277.5q0 48 8 89l115 653h278l-114 -649q-4 -40 -4 -58q0 -85 52 -131.5t146 -46.5q105 0 183.5 65.5t95.5 164.5l116 655h279l-119 -674q-37 -206 -194.5 -328t-384.5 -122z" />
    <glyph glyph-name="v" unicode="v" horiz-adv-x="1228" 
d="M360 0l-270 1104h301l158 -787l444 787h307l-661 -1104h-279z" />
    <glyph glyph-name="w" unicode="w" horiz-adv-x="1873" 
d="M301 0l-209 1104h301l117 -787l389 787h229l105 -787l401 787h310l-601 -1104h-278l-102 780l-383 -780h-279z" />
    <glyph glyph-name="x" unicode="x" horiz-adv-x="1189" 
d="M1247 1104l-499 -543l317 -561h-324l-192 365l-320 -365h-340l527 571l-297 533h323l172 -334l291 334h342z" />
    <glyph glyph-name="y" unicode="y" horiz-adv-x="1296" 
d="M958 1104h279l-274 -1555h-1022l39 228h743l59 336q-136 -133 -338 -133q-169 0 -266.5 95t-97.5 253q0 50 8 94l119 682h278l-112 -647q-4 -27 -4 -58q0 -86 51 -133t145 -47q107 0 183 64t96 170v2z" />
    <glyph glyph-name="z" unicode="z" horiz-adv-x="1079" 
d="M-57 0l680 877h-510l39 227h940l-680 -875h530l-39 -229h-960z" />
    <glyph glyph-name="braceleft" unicode="{" horiz-adv-x="851" 
d="M395 -389q-138 0 -218.5 73.5t-80.5 196.5q0 33 6 68l68 373q4 20 4 59q0 115 -121 115h-20l43 237h16q68 0 116.5 46.5t63.5 127.5l68 393q25 147 127.5 232.5t249.5 85.5q121 0 244 -29l-41 -221q-46 10 -111 10q-80 0 -132 -46.5t-67 -135.5l-59 -342
q-17 -94 -73.5 -158.5t-143.5 -85.5q65 -17 99 -70.5t34 -127.5q0 -24 -6 -58l-60 -342q-4 -28 -4 -45q0 -57 30.5 -87t84.5 -30q78 0 143 15l-41 -230q-108 -24 -219 -24z" />
    <glyph glyph-name="bar" unicode="|" horiz-adv-x="618" 
d="M-29 -451l363 2048h289l-363 -2048h-289z" />
    <glyph glyph-name="braceright" unicode="}" horiz-adv-x="854" 
d="M444 1618q138 0 218.5 -73.5t80.5 -196.5q0 -34 -6 -68l-67 -373q-4 -20 -4 -59q0 -115 120 -115h21l-43 -237h-16q-68 0 -117 -46.5t-64 -127.5l-67 -394q-25 -147 -127.5 -232t-249.5 -85q-121 0 -244 29l41 221q51 -11 111 -11q79 0 131 47t67 136l60 342
q17 93 73.5 157t143.5 86q-65 17 -99 71t-34 128q0 23 6 57l59 343q4 28 4 45q0 56 -30 86t-84 30q-84 0 -144 -14l41 229q113 25 219 25z" />
    <glyph glyph-name="asciitilde" unicode="~" horiz-adv-x="1228" 
d="M793 449q-65 0 -138 29t-138.5 58t-113.5 29q-128 0 -145 -96h-154q22 130 111.5 212.5t210.5 82.5q54 0 111.5 -18t98.5 -39.5t91 -39.5t90 -18q128 0 144 94h153q-23 -134 -111.5 -214t-209.5 -80z" />
    <glyph glyph-name="uni00A0" unicode="&#xa0;" horiz-adv-x="507" 
 />
    <glyph glyph-name="exclamdown" unicode="&#xa1;" horiz-adv-x="593" 
d="M338 793q-68 0 -111 42t-43 107q0 77 51.5 129.5t129.5 52.5q68 0 109.5 -41t41.5 -106q0 -78 -50 -131t-128 -53zM-41 -451l221 1113h240l-170 -1113h-291z" />
    <glyph glyph-name="cent" unicode="&#xa2;" horiz-adv-x="1196" 
d="M903 428l139 -201q-132 -112 -329 -139l-31 -170h-260l31 180q-168 38 -263.5 157.5t-95.5 295.5q0 257 155 441t402 225l31 174h260l-31 -179q138 -29 236 -118l-178 -179q-74 74 -207 74q-109 0 -197.5 -59.5t-136 -154t-47.5 -200.5q0 -119 69.5 -186t198.5 -67
q148 0 254 106z" />
    <glyph glyph-name="sterling" unicode="&#xa3;" horiz-adv-x="1263" 
d="M1237 1124h-283q4 28 4 41q0 62 -39 96.5t-106 34.5q-81 0 -135 -49.5t-68 -128.5l-51 -284h553l-43 -230h-551l-65 -375h637l-39 -229h-1065l39 225h137l67 379h-116l41 230h116l56 313q32 179 171.5 284t340.5 105q187 0 296 -92.5t109 -243.5q0 -36 -6 -76z" />
    <glyph glyph-name="currency" unicode="&#xa4;" horiz-adv-x="1308" 
d="M1110 932q33 -70 33 -162q0 -171 -111 -311l111 -127l-193 -170l-114 133q-112 -59 -238 -59q-133 0 -233 65l-162 -141l-146 170l162 141q-33 84 -33 166q0 173 111 313l-111 127l195 170l115 -133q111 57 235 57q131 0 236 -65l161 139l146 -170zM406 653
q0 -93 60.5 -152t156.5 -59q119 0 209 93.5t90 220.5q0 92 -59.5 152.5t-155.5 60.5q-120 0 -210.5 -94t-90.5 -222z" />
    <glyph glyph-name="yen" unicode="&#xa5;" horiz-adv-x="1492" 
d="M1579 1516l-588 -791h226l-31 -178h-320l-18 -98h319l-32 -181h-320l-49 -268h-289l49 268h-309l33 181h309l19 98h-312l31 178h217l-307 791h301l260 -701l496 701h315z" />
    <glyph glyph-name="brokenbar" unicode="&#xa6;" horiz-adv-x="614" 
d="M186 778l146 819h289l-146 -819h-289zM-31 -451l146 820h288l-145 -820h-289z" />
    <glyph glyph-name="section" unicode="&#xa7;" horiz-adv-x="1255" 
d="M1141 569q0 -98 -41 -189.5t-115 -160.5q59 -81 59 -190t-48.5 -203.5t-130.5 -159t-192.5 -101t-232.5 -36.5q-150 0 -272.5 51.5t-202.5 145.5l129 182q142 -139 355 -139q128 0 211 59t83 158q0 69 -56.5 112t-172.5 80l-74 25q-79 24 -137.5 54t-106.5 72t-73 100
t-25 130q0 100 39 195t109 166q-56 75 -56 172q0 153 79 274t213.5 186.5t297.5 65.5q271 0 451 -180l-150 -189q-126 129 -307 129q-115 0 -196.5 -61t-81.5 -156q0 -62 49.5 -98t148.5 -68l74 -26q373 -121 373 -400zM672 418q48 -16 108 -43q37 31 57.5 72.5t20.5 84.5
q0 70 -61.5 115t-184.5 84l-75 23q-50 15 -78 26q-76 -67 -76 -159q0 -66 52.5 -103.5t162.5 -75.5z" />
    <glyph glyph-name="dieresis" unicode="&#xa8;" horiz-adv-x="1228" 
d="M416 1284q-68 0 -110 41.5t-42 106.5q0 78 51 130t129 52q67 0 109.5 -41.5t42.5 -106.5q0 -78 -51 -130t-129 -52zM920 1284q-69 0 -111.5 41.5t-42.5 106.5q0 78 52 130t130 52q67 0 108.5 -41.5t41.5 -106.5q0 -78 -51 -130t-127 -52z" />
    <glyph glyph-name="copyright" unicode="&#xa9;" horiz-adv-x="1789" 
d="M797 -20q-322 0 -508.5 170.5t-186.5 459.5q0 195 70.5 367t194 294.5t297.5 193.5t374 71q320 0 505.5 -170.5t185.5 -458.5q0 -196 -70.5 -368t-193.5 -294.5t-296.5 -193.5t-371.5 -71zM799 106q227 0 404.5 104t273.5 284.5t96 404.5q0 235 -145.5 373.5
t-397.5 138.5q-226 0 -403.5 -104.5t-274 -285.5t-96.5 -405q0 -234 146 -372t397 -138zM850 324q-173 0 -274 96t-101 258q0 219 146 360.5t368 141.5q211 0 324 -144l-133 -106q-65 92 -201 92q-133 0 -223 -99t-90 -229q0 -99 58 -157t161 -58q150 0 252 131l104 -118
q-149 -168 -391 -168z" />
    <glyph glyph-name="ordfeminine" unicode="&#xaa;" horiz-adv-x="808" 
d="M543 1536q116 0 184 -59t68 -156q0 -21 -4 -49l-72 -412h-166l12 86q-86 -98 -207 -98q-95 0 -149.5 48t-54.5 128q0 115 88.5 179.5t222.5 64.5q64 0 151 -17l2 17q3 18 3 30q0 103 -123 103q-92 0 -170 -58l-64 111q119 82 279 82zM410 973q61 0 115.5 46t68.5 120
q-62 10 -98 10q-72 0 -118 -30.5t-46 -80.5q0 -65 78 -65z" />
    <glyph glyph-name="guillemotleft" unicode="&#xab;" horiz-adv-x="1368" 
d="M344 82l-289 471l449 471h305l-447 -471l271 -471h-289zM893 82l-289 471l449 471h305l-447 -471l271 -471h-289z" />
    <glyph glyph-name="logicalnot" unicode="&#xac;" horiz-adv-x="1224" 
d="M1139 940l-103 -565h-278l61 338h-692l41 227h971z" />
    <glyph glyph-name="uni00AD" unicode="&#xad;" horiz-adv-x="980" 
d="M100 494l35 198h725l-35 -198h-725z" />
    <glyph glyph-name="registered" unicode="&#xae;" horiz-adv-x="835" 
d="M571 1618q131 0 208 -72.5t77 -193.5q0 -159 -103 -264t-261 -105q-133 0 -210 73t-77 195q0 159 103.5 263t262.5 104zM494 1032q143 0 225 94t82 224q0 103 -62.5 162t-171.5 59q-143 0 -225 -94.5t-82 -225.5q0 -101 62.5 -160t171.5 -59zM674 1374q0 -79 -82 -110
l61 -131h-71l-54 120h-6h-57l-21 -120h-73l59 333h141q47 0 75 -23.5t28 -68.5zM532 1311q32 0 52 16t20 41q0 39 -49 39h-61l-19 -96h57z" />
    <glyph glyph-name="macron" unicode="&#xaf;" horiz-adv-x="1228" 
d="M211 1278l39 219h729l-39 -219h-729z" />
    <glyph glyph-name="degree" unicode="&#xb0;" horiz-adv-x="733" 
d="M459 1096q-120 0 -191 62t-71 165q0 128 91 211.5t230 83.5q119 0 188.5 -61t69.5 -162q0 -132 -88 -215.5t-229 -83.5zM469 1239q61 0 99 40t38 95q0 49 -27 76t-75 27q-61 0 -99 -41.5t-38 -96.5q0 -46 27.5 -73t74.5 -27z" />
    <glyph glyph-name="plusminus" unicode="&#xb1;" horiz-adv-x="1241" 
d="M823 1004h346l-41 -230h-344l-63 -356h-279l64 356h-346l41 230h344l63 354h279zM35 68l41 231h966l-38 -231h-969z" />
    <glyph glyph-name="uni00B2" unicode="&#xb2;" horiz-adv-x="745" 
d="M86 811l20 113l357 317q39 35 62.5 58.5t53 59t44 70t14.5 68.5q0 40 -26.5 64t-71.5 24q-55 0 -96 -39.5t-50 -99.5l-178 27q22 120 114 190t226 70q123 0 194.5 -57t71.5 -154q0 -55 -21 -108.5t-62 -104.5t-84.5 -93t-104.5 -92l-199 -168l387 2l-26 -147h-625z" />
    <glyph glyph-name="uni00B3" unicode="&#xb3;" horiz-adv-x="729" 
d="M813 1720l-20 -110l-273 -244q108 -7 169 -69t61 -160q0 -153 -111.5 -245.5t-282.5 -92.5q-87 0 -158 25.5t-110 68.5l84 123q58 -70 190 -70q86 0 145.5 47.5t59.5 118.5q0 54 -39.5 85.5t-109.5 31.5q-59 0 -123 -33l-39 94l297 283h-305l26 147h539z" />
    <glyph glyph-name="acute" unicode="&#xb4;" horiz-adv-x="1228" 
d="M344 1266l338 329h319l-426 -329h-231z" />
    <glyph glyph-name="paragraph" unicode="&#xb6;" horiz-adv-x="1277" 
d="M1235 1516l-348 -1967h-209l311 1766h-176l-311 -1766h-211l221 1252h-143q-108 0 -167 70.5t-59 193.5q0 120 53.5 223.5t149.5 165.5t213 62h676z" />
    <glyph glyph-name="periodcentered" unicode="&#xb7;" horiz-adv-x="573" 
d="M262 414q-73 0 -119.5 48.5t-46.5 121.5q0 83 56 138.5t141 55.5q73 0 119.5 -49t46.5 -123q0 -82 -56 -137t-141 -55z" />
    <glyph glyph-name="cedilla" unicode="&#xb8;" horiz-adv-x="1228" 
d="M162 -111q85 -3 134.5 -43t49.5 -104q0 -96 -85 -154.5t-218 -58.5q-126 0 -195 53l68 101q43 -37 117 -37q55 0 90 22.5t35 57.5q0 53 -88 53q-34 0 -80 -17l-25 66l127 172h158z" />
    <glyph glyph-name="uni00B9" unicode="&#xb9;" horiz-adv-x="471" 
d="M207 811l133 762h-137l24 147h322l-162 -909h-180z" />
    <glyph glyph-name="ordmasculine" unicode="&#xba;" horiz-adv-x="874" 
d="M481 848q-144 0 -228.5 76.5t-84.5 205.5q0 174 118 290t296 116q144 0 226.5 -76t82.5 -205q0 -173 -117.5 -290t-292.5 -117zM500 999q90 0 150.5 70.5t60.5 163.5q0 71 -40 113.5t-110 42.5q-91 0 -153 -70.5t-62 -163.5q0 -73 41 -114.5t113 -41.5z" />
    <glyph glyph-name="guillemotright" unicode="&#xbb;" horiz-adv-x="1370" 
d="M442 1024l289 -471l-448 -471h-303l444 471l-268 471h286zM991 1024l289 -471l-449 -471h-303l445 471l-268 471h286z" />
    <glyph glyph-name="onequarter" unicode="&#xbc;" horiz-adv-x="1667" 
d="M229 -20l-139 90l1116 1466l140 -90zM170 606l133 762h-137l24 148h322l-162 -910h-180zM1198 0l31 174h-420l20 123l568 612h141l-102 -585h125l-27 -150h-125l-31 -174h-180zM1042 317h218l51 289z" />
    <glyph glyph-name="onehalf" unicode="&#xbd;" horiz-adv-x="1673" 
d="M229 -20l-139 90l1116 1466l140 -90zM170 606l133 762h-137l24 148h322l-162 -910h-180zM870 0l21 113l356 317q39 35 62.5 58.5t53 59t44 70t14.5 68.5q0 40 -26.5 64t-71.5 24q-55 0 -95.5 -39t-49.5 -100l-179 27q22 120 114 190t226 70q123 0 195 -57t72 -154
q0 -55 -21 -108.5t-62 -104.5t-85 -93t-105 -92l-198 -168l387 2l-27 -147h-625z" />
    <glyph glyph-name="threequarters" unicode="&#xbe;" horiz-adv-x="1925" 
d="M1464 1536l140 -90l-1117 -1466l-139 90zM713 932q0 -153 -111.5 -245.5t-282.5 -92.5q-87 0 -158 25.5t-110 68.5l84 123q58 -70 191 -70q86 0 145 47.5t59 118.5q0 54 -39.5 85.5t-109.5 31.5q-59 0 -123 -33l-39 94l297 283h-305l27 148h538l-20 -111l-273 -244
q108 -7 169 -69t61 -160zM1694 324h125l-27 -150h-125l-31 -174h-180l31 174h-420l20 123l568 612h141zM1518 317l51 289l-269 -289h218z" />
    <glyph glyph-name="questiondown" unicode="&#xbf;" horiz-adv-x="1114" 
d="M616 793q-68 0 -110.5 42t-42.5 107q0 77 50.5 129.5t129.5 52.5q67 0 109.5 -41t42.5 -106q0 -77 -51 -130.5t-128 -53.5zM393 -471q-208 0 -330 96t-122 254q0 68 15.5 122t49 99.5t73 80.5t101.5 79q47 35 74.5 57.5t66.5 62.5t62.5 78t44.5 94t31 120l235 -21
q-20 -109 -50.5 -192t-74 -142.5t-82 -97t-96.5 -80.5q-78 -60 -114.5 -108.5t-36.5 -120.5q0 -69 46 -105t132 -36q89 0 159.5 53.5t90.5 138.5l262 -33q-41 -183 -188 -291t-349 -108z" />
    <glyph glyph-name="Agrave" unicode="&#xc0;" horiz-adv-x="1546" 
d="M1102 1677h-232l-307 330h320zM1135 0l-68 301h-698l-179 -301h-313l916 1516h268l379 -1516h-305zM510 541h502l-140 616z" />
    <glyph glyph-name="Aacute" unicode="&#xc1;" horiz-adv-x="1546" 
d="M1442 2007l-426 -330h-232l338 330h320zM793 1516h268l379 -1516h-305l-68 301h-698l-179 -301h-313zM510 541h502l-140 616z" />
    <glyph glyph-name="Acircumflex" unicode="&#xc2;" horiz-adv-x="1546" 
d="M987 1858l-182 -181h-250l328 330h266l209 -330h-252zM1135 0l-68 301h-698l-179 -301h-313l916 1516h268l379 -1516h-305zM510 541h502l-140 616z" />
    <glyph glyph-name="Atilde" unicode="&#xc3;" horiz-adv-x="1546" 
d="M823 1794q-92 0 -110 -94h-156q23 129 102.5 212t180.5 83q43 0 88.5 -18t77 -39.5t68.5 -39.5t67 -18q92 0 110 94h156q-23 -135 -100.5 -215t-182.5 -80q-41 0 -85.5 18t-77 39.5t-71 39.5t-67.5 18zM1135 0l-68 301h-698l-179 -301h-313l916 1516h268l379 -1516h-305z
M510 541h502l-140 616z" />
    <glyph glyph-name="Adieresis" unicode="&#xc4;" horiz-adv-x="1546" 
d="M721 1696q-68 0 -110 41t-42 106q0 78 51.5 130t129.5 52q67 0 109 -41t42 -106q0 -78 -51 -130t-129 -52zM1225 1696q-69 0 -111.5 41t-42.5 106q0 78 52 130t130 52q67 0 108.5 -41t41.5 -106q0 -78 -51 -130t-127 -52zM1135 0l-68 301h-698l-179 -301h-313l916 1516
h268l379 -1516h-305zM510 541h502l-140 616z" />
    <glyph glyph-name="Aring" unicode="&#xc5;" horiz-adv-x="1546" 
d="M958 1608q-101 0 -159 53t-58 141q0 111 75 179.5t190 68.5q99 0 158 -53.5t59 -141.5q0 -111 -74.5 -179t-190.5 -68zM995 1923q-48 0 -79 -34t-31 -81q0 -34 22 -54.5t60 -20.5q49 0 80.5 34.5t31.5 81.5q0 34 -23 54t-61 20zM1135 0l-68 301h-698l-179 -301h-313
l916 1516h268l379 -1516h-305zM510 541h502l-140 616z" />
    <glyph glyph-name="AE" unicode="&#xc6;" horiz-adv-x="2254" 
d="M2247 1276h-936l35 -389h765l-40 -238h-705l37 -409h678l-43 -240h-920l-20 301h-674l-227 -301h-336l1208 1516h1221zM606 541h477l-39 577z" />
    <glyph glyph-name="Ccedilla" unicode="&#xc7;" horiz-adv-x="1339" 
d="M999 1296q-129 0 -243 -54.5t-193 -145.5t-124.5 -212t-45.5 -253q0 -190 110 -301t304 -111q229 0 401 129l-49 -278q-146 -82 -330 -88l-71 -93q85 -3 134.5 -43t49.5 -104q0 -96 -85 -154.5t-218 -58.5q-126 0 -195 53l68 101q43 -37 117 -37q55 0 90 22.5t35 57.5
q0 53 -88 53q-34 0 -80 -17l-25 66l117 158q-273 28 -427.5 194.5t-154.5 431.5q0 194 70.5 365t193 294t296 194t370.5 71q210 0 358 -102l-45 -246q-117 108 -340 108z" />
    <glyph glyph-name="Egrave" unicode="&#xc8;" horiz-adv-x="1329" 
d="M1022 1677h-231l-308 330h320zM1321 1276h-741l-68 -389h674l-41 -238h-676l-72 -409h758l-43 -240h-1044l268 1516h1026z" />
    <glyph glyph-name="Eacute" unicode="&#xc9;" horiz-adv-x="1329" 
d="M1362 2007l-426 -330h-231l337 330h320zM1362 1516l-41 -240h-741l-68 -389h674l-41 -238h-676l-72 -409h758l-43 -240h-1044l268 1516h1026z" />
    <glyph glyph-name="Ecircumflex" unicode="&#xca;" horiz-adv-x="1329" 
d="M907 1858l-182 -181h-250l328 330h266l209 -330h-252zM1321 1276h-741l-68 -389h674l-41 -238h-676l-72 -409h758l-43 -240h-1044l268 1516h1026z" />
    <glyph glyph-name="Edieresis" unicode="&#xcb;" horiz-adv-x="1329" 
d="M641 1696q-68 0 -110 41t-42 106q0 78 51.5 130t129.5 52q67 0 109 -41t42 -106q0 -78 -51 -130t-129 -52zM1145 1696q-69 0 -111.5 41t-42.5 106q0 78 52.5 130t130.5 52q67 0 108 -41t41 -106q0 -78 -51 -130t-127 -52zM1321 1276h-741l-68 -389h674l-41 -238h-676
l-72 -409h758l-43 -240h-1044l268 1516h1026z" />
    <glyph glyph-name="Igrave" unicode="&#xcc;" horiz-adv-x="649" 
d="M422 1677l-307 330h319l219 -330h-231zM68 0l268 1516h287l-269 -1516h-286z" />
    <glyph glyph-name="Iacute" unicode="&#xcd;" horiz-adv-x="649" 
d="M336 1677l338 330h319l-426 -330h-231zM68 0l268 1516h287l-269 -1516h-286z" />
    <glyph glyph-name="Icircumflex" unicode="&#xce;" horiz-adv-x="649" 
d="M700 2007l209 -330h-252l-118 181l-183 -181h-250l328 330h266zM68 0l268 1516h287l-269 -1516h-286z" />
    <glyph glyph-name="Idieresis" unicode="&#xcf;" horiz-adv-x="649" 
d="M272 1696q-68 0 -109.5 41t-41.5 106q0 78 51 130t129 52q67 0 109.5 -41t42.5 -106q0 -78 -51.5 -130t-129.5 -52zM776 1696q-69 0 -111 41t-42 106q0 78 52 130t130 52q67 0 108 -41t41 -106q0 -78 -51 -130t-127 -52zM68 0l268 1516h287l-269 -1516h-286z" />
    <glyph glyph-name="Eth" unicode="&#xd0;" horiz-adv-x="1611" 
d="M922 1516q292 0 462 -165.5t170 -445.5q0 -253 -113 -460t-315.5 -326t-455.5 -119h-602l116 662h-159l34 198h160l117 656h586zM696 240q128 0 236 54.5t178.5 144.5t110 204t39.5 236q0 187 -99 292t-284 105h-297l-74 -416h340l-35 -198h-340l-74 -422h299z" />
    <glyph glyph-name="Ntilde" unicode="&#xd1;" horiz-adv-x="1777" 
d="M1241 1679q-41 0 -86 18t-77 39.5t-70.5 39.5t-67.5 18q-93 0 -111 -94h-155q23 129 102 212t180 83q43 0 88.5 -18t77 -39.5t68.5 -39.5t67 -18q93 0 111 94h156q-23 -135 -100.5 -215t-182.5 -80zM68 0l268 1516h174l774 -1027l178 1027h289l-268 -1516h-174l-774 1026
l-181 -1026h-286z" />
    <glyph glyph-name="Ograve" unicode="&#xd2;" horiz-adv-x="1765" 
d="M981 1677l-307 330h319l219 -330h-231zM782 -20q-318 0 -502 171t-184 461q0 194 70.5 365t193 294t296 194t370.5 71q316 0 499 -171t183 -460q0 -194 -70.5 -365.5t-192.5 -294.5t-294.5 -194t-368.5 -71zM807 219q130 0 244 55t192 147t123 213.5t45 252.5
q0 190 -109.5 299.5t-302.5 109.5q-130 0 -244.5 -54.5t-193.5 -145.5t-124.5 -212t-45.5 -253q0 -190 111 -301t305 -111z" />
    <glyph glyph-name="Oacute" unicode="&#xd3;" horiz-adv-x="1765" 
d="M895 1677l338 330h319l-426 -330h-231zM782 -20q-318 0 -502 171t-184 461q0 194 70.5 365t193 294t296 194t370.5 71q316 0 499 -171t183 -460q0 -194 -70.5 -365.5t-192.5 -294.5t-294.5 -194t-368.5 -71zM807 219q130 0 244 55t192 147t123 213.5t45 252.5
q0 190 -109.5 299.5t-302.5 109.5q-130 0 -244.5 -54.5t-193.5 -145.5t-124.5 -212t-45.5 -253q0 -190 111 -301t305 -111z" />
    <glyph glyph-name="Ocircumflex" unicode="&#xd4;" horiz-adv-x="1765" 
d="M1098 1858l-183 -181h-249l327 330h267l208 -330h-251zM1026 1536q316 0 499 -171t183 -460q0 -194 -70.5 -365.5t-192.5 -294.5t-294.5 -194t-368.5 -71q-318 0 -502 171t-184 461q0 194 70.5 365t193 294t296 194t370.5 71zM807 219q130 0 244 55t192 147t123 213.5
t45 252.5q0 190 -109.5 299.5t-302.5 109.5q-130 0 -244.5 -54.5t-193.5 -145.5t-124.5 -212t-45.5 -253q0 -190 111 -301t305 -111z" />
    <glyph glyph-name="Otilde" unicode="&#xd5;" horiz-adv-x="1765" 
d="M1235 1679q-41 0 -86 18t-77 39.5t-70.5 39.5t-67.5 18q-93 0 -111 -94h-155q23 129 102 212t180 83q43 0 88.5 -18t77 -39.5t68.5 -39.5t67 -18q93 0 111 94h156q-23 -135 -100.5 -215t-182.5 -80zM782 -20q-318 0 -502 171t-184 461q0 194 70.5 365t193 294t296 194
t370.5 71q316 0 499 -171t183 -460q0 -194 -70.5 -365.5t-192.5 -294.5t-294.5 -194t-368.5 -71zM807 219q130 0 244 55t192 147t123 213.5t45 252.5q0 190 -109.5 299.5t-302.5 109.5q-130 0 -244.5 -54.5t-193.5 -145.5t-124.5 -212t-45.5 -253q0 -190 111 -301t305 -111z
" />
    <glyph glyph-name="Odieresis" unicode="&#xd6;" horiz-adv-x="1765" 
d="M831 1696q-68 0 -109.5 41t-41.5 106q0 78 51 130t129 52q67 0 109.5 -41t42.5 -106q0 -78 -51.5 -130t-129.5 -52zM1335 1696q-69 0 -111 41t-42 106q0 78 52 130t130 52q67 0 108 -41t41 -106q0 -78 -51 -130t-127 -52zM782 -20q-318 0 -502 171t-184 461
q0 194 70.5 365t193 294t296 194t370.5 71q316 0 499 -171t183 -460q0 -194 -70.5 -365.5t-192.5 -294.5t-294.5 -194t-368.5 -71zM807 219q130 0 244 55t192 147t123 213.5t45 252.5q0 190 -109.5 299.5t-302.5 109.5q-130 0 -244.5 -54.5t-193.5 -145.5t-124.5 -212
t-45.5 -253q0 -190 111 -301t305 -111z" />
    <glyph glyph-name="multiply" unicode="&#xd7;" horiz-adv-x="1067" 
d="M1020 975l-305 -260l213 -256l-195 -170l-215 256l-299 -256l-147 170l303 258l-215 258l196 170l215 -258l303 258z" />
    <glyph glyph-name="Oslash" unicode="&#xd8;" horiz-adv-x="1765" 
d="M1812 1356l-172 -144q68 -133 68 -307q0 -194 -70.5 -365.5t-192.5 -294.5t-294.5 -194t-368.5 -71q-277 0 -458 135l-164 -135l-166 180l172 143q-70 137 -70 309q0 194 70.5 365t193 294t296 194t370.5 71q276 0 457 -135l164 135zM391 631q0 -54 15 -127l860 715
q-103 77 -267 77q-130 0 -244.5 -54.5t-193.5 -145.5t-124.5 -212t-45.5 -253zM1411 887q0 71 -14 123l-856 -713q104 -78 266 -78q130 0 244 55t192 147t123 213.5t45 252.5z" />
    <glyph glyph-name="Ugrave" unicode="&#xd9;" horiz-adv-x="1650" 
d="M922 1677l-308 330h320l219 -330h-231zM721 -20q-268 0 -425 134t-157 357q0 41 11 113l163 932h289l-164 -926q-8 -58 -8 -84q0 -135 83.5 -211t231.5 -76q167 0 290.5 103t152.5 266l162 928h288l-168 -953q-47 -266 -251.5 -424.5t-497.5 -158.5z" />
    <glyph glyph-name="Uacute" unicode="&#xda;" horiz-adv-x="1650" 
d="M836 1677l338 330h319l-426 -330h-231zM721 -20q-268 0 -425 134t-157 357q0 41 11 113l163 932h289l-164 -926q-8 -58 -8 -84q0 -135 83.5 -211t231.5 -76q167 0 290.5 103t152.5 266l162 928h288l-168 -953q-47 -266 -251.5 -424.5t-497.5 -158.5z" />
    <glyph glyph-name="Ucircumflex" unicode="&#xdb;" horiz-adv-x="1650" 
d="M1038 1858l-182 -181h-250l328 330h266l209 -330h-252zM1350 1516h288l-168 -953q-47 -266 -251.5 -424.5t-497.5 -158.5q-268 0 -425 134t-157 357q0 41 11 113l163 932h289l-164 -926q-8 -58 -8 -84q0 -135 83.5 -211t231.5 -76q167 0 290.5 103t152.5 266z" />
    <glyph glyph-name="Udieresis" unicode="&#xdc;" horiz-adv-x="1650" 
d="M772 1696q-68 0 -109.5 41t-41.5 106q0 78 51 130t129 52q67 0 109 -41t42 -106q0 -78 -51 -130t-129 -52zM1276 1696q-69 0 -111.5 41t-42.5 106q0 78 52.5 130t130.5 52q67 0 108 -41t41 -106q0 -78 -51 -130t-127 -52zM721 -20q-268 0 -425 134t-157 357q0 41 11 113
l163 932h289l-164 -926q-8 -58 -8 -84q0 -135 83.5 -211t231.5 -76q167 0 290.5 103t152.5 266l162 928h288l-168 -953q-47 -266 -251.5 -424.5t-497.5 -158.5z" />
    <glyph glyph-name="Yacute" unicode="&#xdd;" horiz-adv-x="1413" 
d="M719 1677l338 330h319l-426 -330h-231zM444 0l103 559l-373 957h301l260 -701l496 701h315l-710 -957l-103 -559h-289z" />
    <glyph glyph-name="Thorn" unicode="&#xde;" horiz-adv-x="1380" 
d="M899 1270q210 0 333.5 -111.5t123.5 -298.5q0 -170 -83 -305.5t-227 -210t-321 -74.5h-324l-47 -270h-286l268 1516h287l-43 -246h319zM733 510q145 0 235.5 92t90.5 234q0 91 -57.5 143.5t-159.5 52.5h-305l-93 -522h289z" />
    <glyph glyph-name="germandbls" unicode="&#xdf;" horiz-adv-x="1282" 
d="M598 -20q-90 0 -174 26l39 227q49 -14 117 -14q136 0 226.5 87t90.5 220q0 101 -67.5 160t-190.5 59l41 218q113 0 186.5 76t73.5 184q0 72 -47 113.5t-131 41.5q-97 0 -164.5 -58.5t-85.5 -152.5l-207 -1167h-278l215 1214q34 185 182 294.5t362 109.5q205 0 325 -96
t120 -256q0 -135 -71.5 -243t-201.5 -169q103 -45 161.5 -131t58.5 -201q0 -152 -77 -276.5t-210 -195t-293 -70.5z" />
    <glyph glyph-name="agrave" unicode="&#xe0;" horiz-adv-x="1193" 
d="M858 1266h-231l-308 329h320zM213 1104h922l-197 -1104h-266l20 147q-68 -82 -159.5 -124.5t-190.5 -42.5q-156 0 -248 79.5t-92 210.5q0 127 71.5 220t187.5 138.5t259 45.5q122 0 254 -29l43 240h-645zM430 178q102 0 192.5 78t118.5 203l2 6q-105 18 -188 18
q-115 0 -190.5 -51.5t-75.5 -134.5q0 -55 36 -87t105 -32z" />
    <glyph glyph-name="aacute" unicode="&#xe1;" horiz-adv-x="1193" 
d="M1198 1595l-426 -329h-231l338 329h319zM172 885l41 219h922l-197 -1104h-266l20 147q-68 -82 -159.5 -124.5t-190.5 -42.5q-156 0 -248 79.5t-92 210.5q0 127 71.5 220t187.5 138.5t259 45.5q122 0 254 -29l43 240h-645zM430 178q102 0 192.5 78t118.5 203l2 6
q-105 18 -188 18q-115 0 -190.5 -51.5t-75.5 -134.5q0 -55 36 -87t105 -32z" />
    <glyph glyph-name="acircumflex" unicode="&#xe2;" horiz-adv-x="1193" 
d="M743 1446l-182 -180h-250l328 329h266l209 -329h-252zM213 1104h922l-197 -1104h-266l20 147q-68 -82 -159.5 -124.5t-190.5 -42.5q-156 0 -248 79.5t-92 210.5q0 127 71.5 220t187.5 138.5t259 45.5q122 0 254 -29l43 240h-645zM430 178q102 0 192.5 78t118.5 203l2 6
q-105 18 -188 18q-115 0 -190.5 -51.5t-75.5 -134.5q0 -55 36 -87t105 -32z" />
    <glyph glyph-name="atilde" unicode="&#xe3;" horiz-adv-x="1193" 
d="M580 1382q-93 0 -111 -94h-156q23 129 102.5 212t180.5 83q43 0 88.5 -18t77 -39.5t68.5 -39.5t67 -18q93 0 111 95h155q-23 -136 -100 -215.5t-182 -79.5q-51 0 -108 28.5t-107 57t-86 28.5zM172 885l41 219h922l-197 -1104h-266l20 147q-68 -82 -159.5 -124.5
t-190.5 -42.5q-156 0 -248 79.5t-92 210.5q0 127 71.5 220t187.5 138.5t259 45.5q122 0 254 -29l43 240h-645zM430 178q102 0 192.5 78t118.5 203l2 6q-105 18 -188 18q-115 0 -190.5 -51.5t-75.5 -134.5q0 -55 36 -87t105 -32z" />
    <glyph glyph-name="adieresis" unicode="&#xe4;" horiz-adv-x="1193" 
d="M477 1284q-68 0 -109.5 41.5t-41.5 106.5q0 78 51 130t129 52q67 0 109 -41.5t42 -106.5q0 -78 -51 -130t-129 -52zM981 1284q-69 0 -111.5 41.5t-42.5 106.5q0 78 52.5 130t130.5 52q67 0 108 -41.5t41 -106.5q0 -78 -51 -130t-127 -52zM172 885l41 219h922l-197 -1104
h-266l20 147q-68 -82 -159.5 -124.5t-190.5 -42.5q-156 0 -248 79.5t-92 210.5q0 127 71.5 220t187.5 138.5t259 45.5q122 0 254 -29l43 240h-645zM430 178q102 0 192.5 78t118.5 203l2 6q-105 18 -188 18q-115 0 -190.5 -51.5t-75.5 -134.5q0 -55 36 -87t105 -32z" />
    <glyph glyph-name="aring" unicode="&#xe5;" horiz-adv-x="1193" 
d="M715 1196q-100 0 -158.5 53t-58.5 142q0 111 74.5 179t189.5 68q99 0 158 -53t59 -141q0 -111 -74.5 -179.5t-189.5 -68.5zM752 1511q-48 0 -79.5 -33.5t-31.5 -80.5q0 -34 22 -55t60 -21q49 0 81 35t32 82q0 34 -23 53.5t-61 19.5zM213 1104h922l-197 -1104h-266l20 147
q-68 -82 -159.5 -124.5t-190.5 -42.5q-156 0 -248 79.5t-92 210.5q0 127 71.5 220t187.5 138.5t259 45.5q122 0 254 -29l43 240h-645zM430 178q102 0 192.5 78t118.5 203l2 6q-105 18 -188 18q-115 0 -190.5 -51.5t-75.5 -134.5q0 -55 36 -87t105 -32z" />
    <glyph glyph-name="ae" unicode="&#xe6;" horiz-adv-x="1923" 
d="M1812 453h-802v-37q0 -102 54.5 -159.5t154.5 -57.5q168 0 305 137l200 -123q-91 -111 -218 -172t-269 -61q-145 0 -252 59.5t-164 165.5q-78 -108 -202.5 -166.5t-260.5 -58.5q-165 0 -261.5 79.5t-96.5 210.5q0 127 71.5 220t187.5 138.5t259 45.5q112 0 254 -27l6 33
q4 18 4 51q0 86 -54 130t-159 44q-153 0 -282 -94l-105 176q188 137 443 137q121 0 211 -47t139 -129q176 176 416 176q214 0 335 -121.5t121 -328.5q0 -121 -35 -221zM1366 905q-113 0 -194 -72t-123 -192h516q2 14 2 39q0 111 -51 168t-150 57zM428 178q104 0 195 79.5
t116 207.5q-105 18 -186 18q-115 0 -190.5 -51.5t-75.5 -134.5q0 -55 36 -87t105 -32z" />
    <glyph glyph-name="ccedilla" unicode="&#xe7;" horiz-adv-x="985" 
d="M719 887q-110 0 -198 -59.5t-134.5 -154t-46.5 -200.5q0 -117 67.5 -185.5t190.5 -68.5q139 0 238 76l-45 -262q-82 -49 -203 -53l-72 -91q85 -3 134.5 -43t49.5 -104q0 -96 -85 -154.5t-218 -58.5q-125 0 -194 53l67 101q43 -37 117 -37q55 0 90 22.5t35 57.5
q0 53 -88 53q-34 0 -80 -17l-25 66l121 162q-183 34 -285 155.5t-102 305.5q0 189 88.5 343t245 242t350.5 88q60 0 122 -17t104 -44l-41 -242q-87 66 -203 66z" />
    <glyph glyph-name="egrave" unicode="&#xe8;" horiz-adv-x="1247" 
d="M885 1266h-232l-307 329h320zM1137 453h-803v-37q0 -102 54.5 -159.5t154.5 -57.5q164 0 305 137l201 -123q-94 -111 -226.5 -172t-281.5 -61q-227 0 -358.5 124.5t-131.5 337.5q0 140 48.5 265.5t132.5 217t204.5 145.5t257.5 54q223 0 350 -122.5t127 -331.5
q0 -109 -34 -217zM690 905q-114 0 -195.5 -72t-123.5 -192h518q2 14 2 39q0 109 -53 167t-148 58z" />
    <glyph glyph-name="eacute" unicode="&#xe9;" horiz-adv-x="1247" 
d="M1225 1595l-426 -329h-232l338 329h320zM694 1124q223 0 350 -122.5t127 -331.5q0 -109 -34 -217h-803v-37q0 -102 54.5 -159.5t154.5 -57.5q164 0 305 137l201 -123q-94 -111 -226.5 -172t-281.5 -61q-227 0 -358.5 124.5t-131.5 337.5q0 140 48.5 265.5t132.5 217
t204.5 145.5t257.5 54zM690 905q-114 0 -195.5 -72t-123.5 -192h518q2 14 2 39q0 109 -53 167t-148 58z" />
    <glyph glyph-name="ecircumflex" unicode="&#xea;" horiz-adv-x="1247" 
d="M770 1446l-182 -180h-250l328 329h266l209 -329h-252zM1137 453h-803v-37q0 -102 54.5 -159.5t154.5 -57.5q164 0 305 137l201 -123q-94 -111 -226.5 -172t-281.5 -61q-227 0 -358.5 124.5t-131.5 337.5q0 140 48.5 265.5t132.5 217t204.5 145.5t257.5 54
q223 0 350 -122.5t127 -331.5q0 -109 -34 -217zM690 905q-114 0 -195.5 -72t-123.5 -192h518q2 14 2 39q0 109 -53 167t-148 58z" />
    <glyph glyph-name="edieresis" unicode="&#xeb;" horiz-adv-x="1247" 
d="M504 1284q-68 0 -110 41.5t-42 106.5q0 78 51 130t129 52q67 0 109.5 -41.5t42.5 -106.5q0 -78 -51 -130t-129 -52zM1008 1284q-69 0 -111.5 41.5t-42.5 106.5q0 78 52 130t130 52q67 0 108.5 -41.5t41.5 -106.5q0 -78 -51 -130t-127 -52zM694 1124q223 0 350 -122.5
t127 -331.5q0 -109 -34 -217h-803v-37q0 -102 54.5 -159.5t154.5 -57.5q164 0 305 137l201 -123q-94 -111 -226.5 -172t-281.5 -61q-227 0 -358.5 124.5t-131.5 337.5q0 140 48.5 265.5t132.5 217t204.5 145.5t257.5 54zM690 905q-114 0 -195.5 -72t-123.5 -192h518
q2 14 2 39q0 109 -53 167t-148 58z" />
    <glyph glyph-name="igrave" unicode="&#xec;" horiz-adv-x="561" 
d="M307 1266l-307 329h319l220 -329h-232zM27 0l196 1104h279l-197 -1104h-278z" />
    <glyph glyph-name="iacute" unicode="&#xed;" horiz-adv-x="561" 
d="M221 1266l338 329h320l-426 -329h-232zM27 0l196 1104h279l-197 -1104h-278z" />
    <glyph glyph-name="icircumflex" unicode="&#xee;" horiz-adv-x="561" 
d="M586 1595l209 -329h-252l-119 180l-182 -180h-250l327 329h267zM27 0l196 1104h279l-197 -1104h-278z" />
    <glyph glyph-name="idieresis" unicode="&#xef;" horiz-adv-x="561" 
d="M158 1284q-68 0 -110 41.5t-42 106.5q0 78 51 130t129 52q67 0 109.5 -41.5t42.5 -106.5q0 -78 -51 -130t-129 -52zM662 1284q-69 0 -111.5 41.5t-42.5 106.5q0 78 52 130t130 52q67 0 108.5 -41.5t41.5 -106.5q0 -78 -51 -130t-127 -52zM27 0l196 1104h279l-197 -1104
h-278z" />
    <glyph glyph-name="eth" unicode="&#xf0;" horiz-adv-x="1341" 
d="M961 1423q307 -287 307 -649q0 -160 -51.5 -305t-142.5 -253t-223 -172t-284 -64q-236 0 -375 127.5t-139 341.5q0 131 47.5 251.5t129 210t197 142.5t245.5 53q155 0 260 -78q-68 137 -207 260l-141 -82l-140 101l144 86q-52 34 -129 77l241 144q95 -59 125 -82l144 86
l135 -113zM602 219q132 0 231 94t125 246q7 51 7 72q0 120 -71.5 188t-195.5 68q-102 0 -185.5 -57.5t-128 -149t-44.5 -195.5q0 -124 69 -195t193 -71z" />
    <glyph glyph-name="ntilde" unicode="&#xf1;" horiz-adv-x="1335" 
d="M657 1382q-92 0 -110 -94h-156q23 129 102.5 212t180.5 83q43 0 88.5 -18t77 -39.5t68.5 -39.5t67 -18q92 0 110 95h156q-23 -135 -100.5 -215t-182.5 -80q-51 0 -108 28.5t-107 57t-86 28.5zM838 1124q179 0 283 -96t104 -256q0 -26 -8 -88l-121 -684h-279l115 649
q0 3 3 23t3 28q0 89 -58 138t-163 49q-115 0 -197.5 -66t-99.5 -168l-115 -653h-278l192 1104h270l-18 -125q145 145 367 145z" />
    <glyph glyph-name="ograve" unicode="&#xf2;" horiz-adv-x="1335" 
d="M692 1266l-307 329h320l219 -329h-232zM567 -20q-237 0 -376.5 127.5t-139.5 341.5q0 190 89 344.5t245.5 242.5t349.5 88q237 0 375.5 -126.5t138.5 -342.5q0 -190 -88 -344.5t-244 -242.5t-350 -88zM604 219q101 0 184.5 57.5t129 149t45.5 195.5q0 123 -70 194.5
t-193 71.5q-155 0 -258.5 -121t-103.5 -281q0 -124 70.5 -195t195.5 -71z" />
    <glyph glyph-name="oacute" unicode="&#xf3;" horiz-adv-x="1335" 
d="M606 1266l338 329h320l-426 -329h-232zM567 -20q-237 0 -376.5 127.5t-139.5 341.5q0 190 89 344.5t245.5 242.5t349.5 88q237 0 375.5 -126.5t138.5 -342.5q0 -190 -88 -344.5t-244 -242.5t-350 -88zM604 219q101 0 184.5 57.5t129 149t45.5 195.5q0 123 -70 194.5
t-193 71.5q-155 0 -258.5 -121t-103.5 -281q0 -124 70.5 -195t195.5 -71z" />
    <glyph glyph-name="ocircumflex" unicode="&#xf4;" horiz-adv-x="1335" 
d="M809 1446l-182 -180h-250l328 329h266l209 -329h-252zM735 1124q237 0 375.5 -126.5t138.5 -342.5q0 -190 -88 -344.5t-244 -242.5t-350 -88q-237 0 -376.5 127.5t-139.5 341.5q0 190 89 344.5t245.5 242.5t349.5 88zM604 219q101 0 184.5 57.5t129 149t45.5 195.5
q0 123 -70 194.5t-193 71.5q-155 0 -258.5 -121t-103.5 -281q0 -124 70.5 -195t195.5 -71z" />
    <glyph glyph-name="otilde" unicode="&#xf5;" horiz-adv-x="1335" 
d="M946 1268q-51 0 -108 28.5t-107 57t-86 28.5q-92 0 -110 -94h-156q23 129 102.5 212t180.5 83q43 0 88.5 -18t77 -39.5t68.5 -39.5t67 -18q92 0 110 95h156q-23 -135 -100.5 -215t-182.5 -80zM567 -20q-237 0 -376.5 127.5t-139.5 341.5q0 190 89 344.5t245.5 242.5
t349.5 88q237 0 375.5 -126.5t138.5 -342.5q0 -190 -88 -344.5t-244 -242.5t-350 -88zM604 219q101 0 184.5 57.5t129 149t45.5 195.5q0 123 -70 194.5t-193 71.5q-155 0 -258.5 -121t-103.5 -281q0 -124 70.5 -195t195.5 -71z" />
    <glyph glyph-name="odieresis" unicode="&#xf6;" horiz-adv-x="1335" 
d="M543 1284q-68 0 -110 41.5t-42 106.5q0 78 51 130t129 52q67 0 109.5 -41.5t42.5 -106.5q0 -78 -51 -130t-129 -52zM1047 1284q-69 0 -111.5 41.5t-42.5 106.5q0 78 52 130t130 52q67 0 108.5 -41.5t41.5 -106.5q0 -78 -51 -130t-127 -52zM567 -20q-237 0 -376.5 127.5
t-139.5 341.5q0 190 89 344.5t245.5 242.5t349.5 88q237 0 375.5 -126.5t138.5 -342.5q0 -190 -88 -344.5t-244 -242.5t-350 -88zM604 219q101 0 184.5 57.5t129 149t45.5 195.5q0 123 -70 194.5t-193 71.5q-155 0 -258.5 -121t-103.5 -281q0 -124 70.5 -195t195.5 -71z" />
    <glyph glyph-name="divide" unicode="&#xf7;" horiz-adv-x="1179" 
d="M657 940q-69 0 -111 41t-42 106q0 78 52 131.5t128 53.5q68 0 110 -42t42 -106q0 -78 -51.5 -131t-127.5 -53zM96 602l41 229h969l-39 -229h-971zM520 166q-68 0 -110.5 42t-42.5 109q0 74 52 127.5t128 53.5q68 0 110.5 -42.5t42.5 -109.5q0 -74 -52 -127t-128 -53z" />
    <glyph glyph-name="oslash" unicode="&#xf8;" horiz-adv-x="1335" 
d="M1319 985l-121 -102q51 -102 51 -228q0 -190 -88 -344.5t-244 -242.5t-350 -88q-195 0 -325 88l-105 -88l-157 141l122 102q-51 102 -51 226q0 190 89 344.5t245.5 242.5t349.5 88q196 0 326 -88l102 88zM338 485q0 -21 4 -57l502 426q-64 33 -144 33q-155 0 -258.5 -121
t-103.5 -281zM963 621q0 12 -5 57l-499 -426q64 -33 145 -33q101 0 184.5 57.5t129 149t45.5 195.5z" />
    <glyph glyph-name="ugrave" unicode="&#xf9;" horiz-adv-x="1282" 
d="M664 1266l-308 329h320l219 -329h-231zM539 -20q-211 0 -334 104.5t-123 277.5q0 48 8 89l115 653h278l-114 -649q-4 -40 -4 -58q0 -85 52 -131.5t146 -46.5q105 0 183.5 65.5t95.5 164.5l116 655h279l-119 -674q-37 -206 -194.5 -328t-384.5 -122z" />
    <glyph glyph-name="uacute" unicode="&#xfa;" horiz-adv-x="1282" 
d="M578 1266l337 329h320l-426 -329h-231zM539 -20q-211 0 -334 104.5t-123 277.5q0 48 8 89l115 653h278l-114 -649q-4 -40 -4 -58q0 -85 52 -131.5t146 -46.5q105 0 183.5 65.5t95.5 164.5l116 655h279l-119 -674q-37 -206 -194.5 -328t-384.5 -122z" />
    <glyph glyph-name="ucircumflex" unicode="&#xfb;" horiz-adv-x="1282" 
d="M780 1446l-182 -180h-250l328 329h266l209 -329h-252zM958 1104h279l-119 -674q-37 -206 -194.5 -328t-384.5 -122q-211 0 -334 104.5t-123 277.5q0 48 8 89l115 653h278l-114 -649q-4 -40 -4 -58q0 -85 52 -131.5t146 -46.5q105 0 183.5 65.5t95.5 164.5z" />
    <glyph glyph-name="udieresis" unicode="&#xfc;" horiz-adv-x="1282" 
d="M514 1284q-68 0 -110 41.5t-42 106.5q0 78 51.5 130t129.5 52q67 0 109 -41.5t42 -106.5q0 -78 -51 -130t-129 -52zM1018 1284q-69 0 -111.5 41.5t-42.5 106.5q0 78 52.5 130t130.5 52q67 0 108 -41.5t41 -106.5q0 -78 -51 -130t-127 -52zM539 -20q-211 0 -334 104.5
t-123 277.5q0 48 8 89l115 653h278l-114 -649q-4 -40 -4 -58q0 -85 52 -131.5t146 -46.5q105 0 183.5 65.5t95.5 164.5l116 655h279l-119 -674q-37 -206 -194.5 -328t-384.5 -122z" />
    <glyph glyph-name="yacute" unicode="&#xfd;" horiz-adv-x="1296" 
d="M1233 1595l-426 -329h-232l338 329h320zM958 1104h279l-274 -1555h-1022l39 228h743l59 336q-136 -133 -338 -133q-169 0 -266.5 95t-97.5 253q0 50 8 94l119 682h278l-112 -647q-4 -27 -4 -58q0 -86 51 -133t145 -47q107 0 183 64t96 170v2z" />
    <glyph glyph-name="thorn" unicode="&#xfe;" horiz-adv-x="1388" 
d="M852 1124q203 0 328 -125.5t125 -336.5q0 -182 -82 -339t-225.5 -250t-313.5 -93q-252 0 -350 192l-109 -623h-278l362 2048h275l-113 -641q149 168 381 168zM657 219q154 0 257.5 120.5t103.5 281.5q0 124 -70 195t-194 71q-131 0 -229 -92.5t-124 -239.5q-6 -37 -6 -68
q0 -127 69.5 -197.5t192.5 -70.5z" />
    <glyph glyph-name="ydieresis" unicode="&#xff;" horiz-adv-x="1296" 
d="M512 1284q-68 0 -110 41.5t-42 106.5q0 78 51.5 130t129.5 52q67 0 109 -41.5t42 -106.5q0 -78 -51 -130t-129 -52zM1016 1284q-69 0 -111.5 41.5t-42.5 106.5q0 78 52 130t130 52q67 0 108.5 -41.5t41.5 -106.5q0 -78 -51 -130t-127 -52zM958 1104h279l-274 -1555h-1022
l39 228h743l59 336q-136 -133 -338 -133q-169 0 -266.5 95t-97.5 253q0 50 8 94l119 682h278l-112 -647q-4 -27 -4 -58q0 -86 51 -133t145 -47q107 0 183 64t96 170v2z" />
    <glyph glyph-name="Amacron" unicode="&#x100;" horiz-adv-x="1546" 
d="M1360 1909l-39 -219h-729l39 219h729zM1135 0l-68 301h-698l-179 -301h-313l916 1516h268l379 -1516h-305zM510 541h502l-140 616z" />
    <glyph glyph-name="amacron" unicode="&#x101;" horiz-adv-x="1193" 
d="M1116 1497l-39 -219h-729l39 219h729zM213 1104h922l-197 -1104h-266l20 147q-68 -82 -159.5 -124.5t-190.5 -42.5q-156 0 -248 79.5t-92 210.5q0 127 71.5 220t187.5 138.5t259 45.5q122 0 254 -29l43 240h-645zM430 178q102 0 192.5 78t118.5 203l2 6q-105 18 -188 18
q-115 0 -190.5 -51.5t-75.5 -134.5q0 -55 36 -87t105 -32z" />
    <glyph glyph-name="Abreve" unicode="&#x102;" horiz-adv-x="1546" 
d="M969 1659q-152 0 -242 77t-90 203q0 33 6 68h209q-6 -24 -6 -51q0 -64 34 -99.5t99 -35.5q79 0 132 52.5t65 133.5h208q-28 -160 -140.5 -254t-274.5 -94zM1135 0l-68 301h-698l-179 -301h-313l916 1516h268l379 -1516h-305zM510 541h502l-140 616z" />
    <glyph glyph-name="abreve" unicode="&#x103;" horiz-adv-x="1193" 
d="M725 1247q-152 0 -242 77.5t-90 203.5q0 32 6 67h209q-6 -24 -6 -51q0 -64 34 -99.5t99 -35.5q79 0 132 52.5t65 133.5h209q-28 -160 -141 -254t-275 -94zM172 885l41 219h922l-197 -1104h-266l20 147q-68 -82 -159.5 -124.5t-190.5 -42.5q-156 0 -248 79.5t-92 210.5
q0 127 71.5 220t187.5 138.5t259 45.5q122 0 254 -29l43 240h-645zM430 178q102 0 192.5 78t118.5 203l2 6q-105 18 -188 18q-115 0 -190.5 -51.5t-75.5 -134.5q0 -55 36 -87t105 -32z" />
    <glyph glyph-name="Aogonek" unicode="&#x104;" horiz-adv-x="1546" 
d="M1206 -252q0 -26 17.5 -42.5t46.5 -16.5q57 0 104 35l-2 -138q-86 -57 -198 -57q-83 0 -131 42t-48 112q0 156 236 317h-96l-68 301h-698l-179 -301h-313l916 1516h268l379 -1516q-234 -133 -234 -252zM510 541h502l-140 616z" />
    <glyph glyph-name="aogonek" unicode="&#x105;" horiz-adv-x="1193" 
d="M938 0q-233 -133 -233 -252q0 -27 17 -43t46 -16q57 0 104 35l-2 -138q-86 -57 -198 -57q-82 0 -130 42t-48 112q0 157 235 317h-57l20 147q-68 -82 -159.5 -124.5t-190.5 -42.5q-156 0 -248 79.5t-92 210.5q0 127 71.5 220t187.5 138.5t259 45.5q122 0 254 -29l43 240
h-645l41 219h922zM430 178q102 0 192.5 78t118.5 203l2 6q-105 18 -188 18q-115 0 -190.5 -51.5t-75.5 -134.5q0 -55 36 -87t105 -32z" />
    <glyph glyph-name="Cacute" unicode="&#x106;" horiz-adv-x="1339" 
d="M879 1677l338 330h319l-426 -330h-231zM782 -20q-318 0 -502 171t-184 461q0 194 70.5 365t193 294t296 194t370.5 71q210 0 358 -102l-45 -246q-117 108 -340 108q-129 0 -243 -54.5t-193 -145.5t-124.5 -212t-45.5 -253q0 -190 110 -301t304 -111q229 0 401 129
l-49 -278q-160 -90 -377 -90z" />
    <glyph glyph-name="cacute" unicode="&#x107;" horiz-adv-x="985" 
d="M578 1266l337 329h320l-426 -329h-231zM569 -20q-238 0 -377 127.5t-139 343.5q0 189 88.5 343t245 242t350.5 88q60 0 122 -17t104 -44l-41 -242q-87 66 -203 66q-110 0 -198 -59.5t-134.5 -154t-46.5 -200.5q0 -117 67.5 -185.5t190.5 -68.5q139 0 238 76l-45 -262
q-87 -53 -222 -53z" />
    <glyph glyph-name="Cdotaccent" unicode="&#x10a;" horiz-adv-x="1339" 
d="M1067 1696q-68 0 -110 41t-42 106q0 77 51 129.5t130 52.5q67 0 109 -41t42 -106q0 -77 -50.5 -129.5t-129.5 -52.5zM782 -20q-318 0 -502 171t-184 461q0 194 70.5 365t193 294t296 194t370.5 71q210 0 358 -102l-45 -246q-117 108 -340 108q-129 0 -243 -54.5
t-193 -145.5t-124.5 -212t-45.5 -253q0 -190 110 -301t304 -111q229 0 401 129l-49 -278q-160 -90 -377 -90z" />
    <glyph glyph-name="cdotaccent" unicode="&#x10b;" horiz-adv-x="985" 
d="M766 1284q-68 0 -110 41.5t-42 106.5q0 77 51 129.5t130 52.5q67 0 109 -41.5t42 -106.5q0 -77 -50.5 -129.5t-129.5 -52.5zM569 -20q-238 0 -377 127.5t-139 343.5q0 189 88.5 343t245 242t350.5 88q60 0 122 -17t104 -44l-41 -242q-87 66 -203 66q-110 0 -198 -59.5
t-134.5 -154t-46.5 -200.5q0 -117 67.5 -185.5t190.5 -68.5q139 0 238 76l-45 -262q-87 -53 -222 -53z" />
    <glyph glyph-name="Ccaron" unicode="&#x10c;" horiz-adv-x="1339" 
d="M915 1677l-215 330h258l115 -176l178 176h252l-325 -330h-263zM96 612q0 194 70.5 365t193 294t296 194t370.5 71q210 0 358 -102l-45 -246q-117 108 -340 108q-129 0 -243 -54.5t-193 -145.5t-124.5 -212t-45.5 -253q0 -190 110 -301t304 -111q229 0 401 129l-49 -278
q-160 -90 -377 -90q-318 0 -502 171t-184 461z" />
    <glyph glyph-name="ccaron" unicode="&#x10d;" horiz-adv-x="985" 
d="M614 1266l-215 329h258l115 -176l178 176h252l-325 -329h-263zM53 451q0 189 88.5 343t245 242t350.5 88q60 0 122 -17t104 -44l-41 -242q-87 66 -203 66q-110 0 -198 -59.5t-134.5 -154t-46.5 -200.5q0 -117 67.5 -185.5t190.5 -68.5q139 0 238 76l-45 -262
q-87 -53 -222 -53q-238 0 -377 127.5t-139 343.5z" />
    <glyph glyph-name="Dcaron" unicode="&#x10e;" horiz-adv-x="1611" 
d="M741 1677l-215 330h258l115 -176l178 176h252l-325 -330h-263zM922 1516q292 0 462 -165.5t170 -445.5q0 -253 -113 -460t-315.5 -326t-455.5 -119h-602l268 1516h586zM696 240q128 0 236 54.5t178.5 144.5t110 204t39.5 236q0 187 -99 292t-284 105h-297l-183 -1036h299
z" />
    <glyph glyph-name="dcaron" unicode="&#x10f;" horiz-adv-x="1421" 
d="M1020 932l117 665h278l-282 -1597h-271l23 147q-148 -167 -383 -167q-202 0 -326.5 125.5t-124.5 336.5q0 182 81.5 339t224.5 250t313 93q255 0 350 -192zM1608 1597h256l-207 -383h-215zM600 219q131 0 227.5 91t124.5 237v2q6 38 6 67q0 129 -69.5 200t-192.5 71
q-102 0 -186 -57.5t-129 -149t-45 -195.5q0 -125 70 -195.5t194 -70.5z" />
    <glyph glyph-name="Dcroat" unicode="&#x110;" horiz-adv-x="1611" 
d="M922 1516q292 0 462 -165.5t170 -445.5q0 -253 -113 -460t-315.5 -326t-455.5 -119h-602l116 662h-159l34 198h160l117 656h586zM696 240q128 0 236 54.5t178.5 144.5t110 204t39.5 236q0 187 -99 292t-284 105h-297l-74 -416h340l-35 -198h-340l-74 -422h299z" />
    <glyph glyph-name="dcroat" unicode="&#x111;" horiz-adv-x="1384" 
d="M1540 1440l-35 -199h-153l-219 -1241h-271l23 147q-148 -167 -383 -167q-202 0 -326.5 125.5t-124.5 336.5q0 182 81.5 339t224.5 250t313 93q255 0 350 -192l53 309h-354l35 199h354l29 157h278l-29 -157h154zM600 219q131 0 227.5 91t124.5 237v2q6 38 6 67
q0 129 -69.5 200t-192.5 71q-102 0 -186 -57.5t-129 -149t-45 -195.5q0 -125 70 -195.5t194 -70.5z" />
    <glyph glyph-name="Emacron" unicode="&#x112;" horiz-adv-x="1329" 
d="M1280 1909l-39 -219h-729l39 219h729zM1321 1276h-741l-68 -389h674l-41 -238h-676l-72 -409h758l-43 -240h-1044l268 1516h1026z" />
    <glyph glyph-name="emacron" unicode="&#x113;" horiz-adv-x="1247" 
d="M1143 1497l-39 -219h-729l39 219h729zM1137 453h-803v-37q0 -102 54.5 -159.5t154.5 -57.5q164 0 305 137l201 -123q-94 -111 -226.5 -172t-281.5 -61q-227 0 -358.5 124.5t-131.5 337.5q0 140 48.5 265.5t132.5 217t204.5 145.5t257.5 54q223 0 350 -122.5t127 -331.5
q0 -109 -34 -217zM690 905q-114 0 -195.5 -72t-123.5 -192h518q2 14 2 39q0 109 -53 167t-148 58z" />
    <glyph glyph-name="Edotaccent" unicode="&#x116;" horiz-adv-x="1329" 
d="M893 1696q-68 0 -110 41t-42 106q0 77 51 129.5t130 52.5q67 0 109 -41t42 -106q0 -77 -50.5 -129.5t-129.5 -52.5zM1321 1276h-741l-68 -389h674l-41 -238h-676l-72 -409h758l-43 -240h-1044l268 1516h1026z" />
    <glyph glyph-name="edotaccent" unicode="&#x117;" horiz-adv-x="1247" 
d="M756 1284q-68 0 -110 41.5t-42 106.5q0 77 50.5 129.5t129.5 52.5q67 0 109.5 -41.5t42.5 -106.5q0 -77 -50.5 -129.5t-129.5 -52.5zM1137 453h-803v-37q0 -102 54.5 -159.5t154.5 -57.5q164 0 305 137l201 -123q-94 -111 -226.5 -172t-281.5 -61q-227 0 -358.5 124.5
t-131.5 337.5q0 140 48.5 265.5t132.5 217t204.5 145.5t257.5 54q223 0 350 -122.5t127 -331.5q0 -109 -34 -217zM690 905q-114 0 -195.5 -72t-123.5 -192h518q2 14 2 39q0 109 -53 167t-148 58z" />
    <glyph glyph-name="Eogonek" unicode="&#x118;" horiz-adv-x="1329" 
d="M1321 1276h-741l-68 -389h674l-41 -238h-676l-72 -409h758l-43 -240q-233 -133 -233 -252q0 -27 17 -43t46 -16q58 0 105 35l-3 -138q-86 -57 -198 -57q-82 0 -130 42t-48 112q0 157 235 317h-835l268 1516h1026z" />
    <glyph glyph-name="eogonek" unicode="&#x119;" horiz-adv-x="1247" 
d="M1137 453h-803v-37q0 -102 54.5 -159.5t154.5 -57.5q164 0 305 137l201 -123q-137 -162 -347 -213q-231 -133 -231 -252q0 -26 17.5 -42.5t46.5 -16.5q57 0 104 35l-2 -138q-86 -57 -199 -57q-82 0 -130 42t-48 112q0 149 211 301q-196 19 -308 141t-112 317
q0 140 48.5 265.5t132.5 217t204.5 145.5t257.5 54q223 0 350 -122.5t127 -331.5q0 -109 -34 -217zM690 905q-114 0 -195.5 -72t-123.5 -192h518q2 14 2 39q0 109 -53 167t-148 58z" />
    <glyph glyph-name="Ecaron" unicode="&#x11a;" horiz-adv-x="1329" 
d="M741 1677l-215 330h258l115 -176l178 176h252l-325 -330h-263zM1321 1276h-741l-68 -389h674l-41 -238h-676l-72 -409h758l-43 -240h-1044l268 1516h1026z" />
    <glyph glyph-name="ecaron" unicode="&#x11b;" horiz-adv-x="1247" 
d="M604 1266l-215 329h258l115 -176l178 176h252l-326 -329h-262zM694 1124q223 0 350 -122.5t127 -331.5q0 -109 -34 -217h-803v-37q0 -102 54.5 -159.5t154.5 -57.5q164 0 305 137l201 -123q-94 -111 -226.5 -172t-281.5 -61q-227 0 -358.5 124.5t-131.5 337.5
q0 140 48.5 265.5t132.5 217t204.5 145.5t257.5 54zM690 905q-114 0 -195.5 -72t-123.5 -192h518q2 14 2 39q0 109 -53 167t-148 58z" />
    <glyph glyph-name="Gbreve" unicode="&#x11e;" horiz-adv-x="1671" 
d="M1061 1659q-152 0 -242 77t-90 203q0 33 6 68h209q-6 -24 -6 -51q0 -64 34 -99.5t99 -35.5q79 0 132 52.5t65 133.5h209q-28 -160 -141 -254t-275 -94zM1649 854q-5 -47 -17 -117q-17 -168 -91.5 -310.5t-189 -240t-265 -152t-318.5 -54.5q-310 0 -490 170.5t-180 459.5
q0 194 69 365.5t189 294.5t290.5 194.5t365.5 71.5q321 0 518 -172l-209 -170q-119 102 -332 102q-170 0 -308.5 -95t-214 -247.5t-75.5 -326.5q0 -188 108 -298t296 -110q193 0 341 109.5t183 285.5h-401l43 240h688z" />
    <glyph glyph-name="gbreve" unicode="&#x11f;" horiz-adv-x="1388" 
d="M811 1247q-152 0 -242 77.5t-90 203.5q0 32 6 67h209q-6 -24 -6 -51q0 -64 34 -99.5t99 -35.5q79 0 132 52.5t65 133.5h209q-28 -160 -141 -254t-275 -94zM1063 1104h270l-276 -1555h-1114l39 228h837l66 368q-149 -165 -381 -165q-201 0 -326 126t-125 336q0 182 82 339
t225.5 250t313.5 93q256 0 352 -196zM604 219q131 0 228.5 92t123.5 238q7 44 7 67q0 129 -70 200t-195 71q-101 0 -184.5 -57.5t-128.5 -149t-45 -195.5q0 -125 70 -195.5t194 -70.5z" />
    <glyph glyph-name="Gdotaccent" unicode="&#x120;" horiz-adv-x="1671" 
d="M1065 1696q-68 0 -110 41t-42 106q0 77 51 129.5t130 52.5q67 0 109 -41t42 -106q0 -77 -50.5 -129.5t-129.5 -52.5zM1649 854q-5 -47 -17 -117q-17 -168 -91.5 -310.5t-189 -240t-265 -152t-318.5 -54.5q-310 0 -490 170.5t-180 459.5q0 194 69 365.5t189 294.5
t290.5 194.5t365.5 71.5q321 0 518 -172l-209 -170q-119 102 -332 102q-170 0 -308.5 -95t-214 -247.5t-75.5 -326.5q0 -188 108 -298t296 -110q193 0 341 109.5t183 285.5h-401l43 240h688z" />
    <glyph glyph-name="gdotaccent" unicode="&#x121;" horiz-adv-x="1388" 
d="M815 1284q-68 0 -109.5 41.5t-41.5 106.5q0 77 50.5 129.5t129.5 52.5q67 0 109 -41.5t42 -106.5q0 -77 -50.5 -129.5t-129.5 -52.5zM1063 1104h270l-276 -1555h-1114l39 228h837l66 368q-149 -165 -381 -165q-201 0 -326 126t-125 336q0 182 82 339t225.5 250t313.5 93
q256 0 352 -196zM604 219q131 0 228.5 92t123.5 238q7 44 7 67q0 129 -70 200t-195 71q-101 0 -184.5 -57.5t-128.5 -149t-45 -195.5q0 -125 70 -195.5t194 -70.5z" />
    <glyph glyph-name="Gcommaaccent" unicode="&#x122;" horiz-adv-x="1671" 
d="M1649 854q-5 -47 -17 -117q-17 -168 -91.5 -310.5t-189 -240t-265 -152t-318.5 -54.5q-310 0 -490 170.5t-180 459.5q0 194 69 365.5t189 294.5t290.5 194.5t365.5 71.5q321 0 518 -172l-209 -170q-119 102 -332 102q-170 0 -308.5 -95t-214 -247.5t-75.5 -326.5
q0 -188 108 -298t296 -110q193 0 341 109.5t183 285.5h-401l43 240h688zM442 -451l146 345h256l-187 -345h-215z" />
    <glyph glyph-name="gcommaaccent" unicode="&#x123;" horiz-adv-x="1388" 
d="M1055 1597l-166 -383h-254l205 383h215zM1063 1104h270l-276 -1555h-1114l39 228h837l66 368q-149 -165 -381 -165q-201 0 -326 126t-125 336q0 182 82 339t225.5 250t313.5 93q256 0 352 -196zM604 219q131 0 228.5 92t123.5 238q7 44 7 67q0 129 -70 200t-195 71
q-101 0 -184.5 -57.5t-128.5 -149t-45 -195.5q0 -125 70 -195.5t194 -70.5z" />
    <glyph glyph-name="Hbar" unicode="&#x126;" horiz-adv-x="1748" 
d="M1835 1307l-35 -199h-149l-197 -1108h-289l115 653h-811l-115 -653h-286l196 1108h-151l34 199h152l37 209h287l-37 -209h811l37 209h288l-36 -209h149zM1323 891l39 217h-811l-39 -217h811z" />
    <glyph glyph-name="hbar" unicode="&#x127;" horiz-adv-x="1335" 
d="M838 1124q179 0 283 -96t104 -256q0 -26 -8 -88l-121 -684h-279l115 649q0 3 3 23t3 28q0 89 -58 138t-163 49q-113 0 -195.5 -64.5t-101.5 -165.5v-4l-115 -653h-278l217 1241h-156l35 199h156l28 157h279l-29 -157h352l-35 -199h-352l-43 -256q142 139 359 139z" />
    <glyph glyph-name="Imacron" unicode="&#x12a;" horiz-adv-x="649" 
d="M143 1690l39 219h729l-39 -219h-729zM68 0l268 1516h287l-269 -1516h-286z" />
    <glyph glyph-name="imacron" unicode="&#x12b;" horiz-adv-x="561" 
d="M29 1278l39 219h729l-39 -219h-729zM27 0l196 1104h279l-197 -1104h-278z" />
    <glyph glyph-name="Iogonek" unicode="&#x12e;" horiz-adv-x="649" 
d="M354 0q-233 -133 -233 -252q0 -27 17 -43t46 -16q58 0 105 35l-2 -138q-86 -57 -199 -57q-82 0 -130 42t-48 112q0 157 235 317h-77l268 1516h287z" />
    <glyph glyph-name="iogonek" unicode="&#x12f;" horiz-adv-x="561" 
d="M438 1614q67 0 109.5 -41.5t42.5 -106.5q0 -77 -50.5 -129.5t-129.5 -52.5q-68 0 -110 41.5t-42 106.5q0 77 50.5 129.5t129.5 52.5zM27 0l196 1104h279l-197 -1104q-233 -133 -233 -252q0 -27 17 -43t46 -16q58 0 105 35l-2 -138q-86 -57 -199 -57q-82 0 -130 42
t-48 112q0 157 235 317h-69z" />
    <glyph glyph-name="Idotaccent" unicode="&#x130;" horiz-adv-x="649" 
d="M524 1696q-68 0 -109.5 41t-41.5 106q0 77 50.5 129.5t129.5 52.5q67 0 109.5 -41t42.5 -106q0 -77 -51 -129.5t-130 -52.5zM68 0l268 1516h287l-269 -1516h-286z" />
    <glyph glyph-name="dotlessi" unicode="&#x131;" horiz-adv-x="561" 
d="M27 0l196 1104h279l-197 -1104h-278z" />
    <glyph glyph-name="Kcommaaccent" unicode="&#x136;" horiz-adv-x="1445" 
d="M1589 1516l-717 -744l467 -772h-338l-387 655h-143l-117 -655h-286l268 1516h287l-111 -623h133l590 623h354zM360 -451l146 345h256l-187 -345h-215z" />
    <glyph glyph-name="kcommaaccent" unicode="&#x137;" horiz-adv-x="1236" 
d="M1319 1104l-586 -526l406 -578h-336l-309 465h-107l-82 -465h-278l282 1597h279l-160 -903h80l448 410h363zM240 -451l145 345h256l-186 -345h-215z" />
    <glyph glyph-name="Lacute" unicode="&#x139;" horiz-adv-x="1157" 
d="M993 2007l-426 -330h-231l338 330h319zM397 240h672l-45 -240h-956l268 1516h287z" />
    <glyph glyph-name="lacute" unicode="&#x13a;" horiz-adv-x="655" 
d="M309 1759l338 330h320l-426 -330h-232zM29 0l282 1597h279l-242 -1368h207l-41 -229h-485z" />
    <glyph glyph-name="Lcommaaccent" unicode="&#x13b;" horiz-adv-x="1157" 
d="M397 240h672l-45 -240h-956l268 1516h287zM205 -451l145 345h256l-186 -345h-215z" />
    <glyph glyph-name="lcommaaccent" unicode="&#x13c;" horiz-adv-x="655" 
d="M29 0l282 1597h279l-242 -1368h207l-41 -229h-485zM-23 -451l146 345h256l-186 -345h-216z" />
    <glyph glyph-name="Lcaron" unicode="&#x13d;" horiz-adv-x="1161" 
d="M623 1516l-226 -1276h672l-45 -240h-956l268 1516h287zM1262 1516l-228 -441h-254l187 441h295z" />
    <glyph glyph-name="lcaron" unicode="&#x13e;" horiz-adv-x="686" 
d="M29 0l282 1597h279l-242 -1368h207l-41 -229h-485zM618 1214l166 383h256l-206 -383h-216z" />
    <glyph glyph-name="Lslash" unicode="&#x141;" horiz-adv-x="1157" 
d="M397 240h672l-45 -240h-956l102 578l-139 -86l37 213l139 88l129 723h287l-99 -558l234 148l-39 -217l-234 -148z" />
    <glyph glyph-name="lslash" unicode="&#x142;" horiz-adv-x="655" 
d="M631 889l-187 -117l-96 -543h207l-41 -229h-485l108 612l-194 -120l37 213l194 120l137 772h279l-109 -610l189 119z" />
    <glyph glyph-name="Nacute" unicode="&#x143;" horiz-adv-x="1777" 
d="M901 1677l338 330h320l-426 -330h-232zM68 0l268 1516h174l774 -1027l178 1027h289l-268 -1516h-174l-774 1026l-181 -1026h-286z" />
    <glyph glyph-name="nacute" unicode="&#x144;" horiz-adv-x="1335" 
d="M1276 1595l-426 -329h-232l338 329h320zM838 1124q179 0 283 -96t104 -256q0 -26 -8 -88l-121 -684h-279l115 649q0 3 3 23t3 28q0 89 -58 138t-163 49q-115 0 -197.5 -66t-99.5 -168l-115 -653h-278l192 1104h270l-18 -125q145 145 367 145z" />
    <glyph glyph-name="Ncommaaccent" unicode="&#x145;" horiz-adv-x="1777" 
d="M68 0l268 1516h174l774 -1027l178 1027h289l-268 -1516h-174l-774 1026l-181 -1026h-286zM481 -451l146 345h256l-187 -345h-215z" />
    <glyph glyph-name="ncommaaccent" unicode="&#x146;" horiz-adv-x="1335" 
d="M838 1124q179 0 283 -96t104 -256q0 -26 -8 -88l-121 -684h-279l115 649q0 3 3 23t3 28q0 89 -58 138t-163 49q-115 0 -197.5 -66t-99.5 -168l-115 -653h-278l192 1104h270l-18 -125q145 145 367 145zM266 -451l146 345h256l-187 -345h-215z" />
    <glyph glyph-name="Ncaron" unicode="&#x147;" horiz-adv-x="1777" 
d="M938 1677l-215 330h258l115 -176l178 176h252l-326 -330h-262zM1462 1516h289l-268 -1516h-174l-774 1026l-181 -1026h-286l268 1516h174l774 -1027z" />
    <glyph glyph-name="ncaron" unicode="&#x148;" horiz-adv-x="1335" 
d="M655 1266l-215 329h258l115 -176l178 176h252l-325 -329h-263zM838 1124q179 0 283 -96t104 -256q0 -26 -8 -88l-121 -684h-279l115 649q0 3 3 23t3 28q0 89 -58 138t-163 49q-115 0 -197.5 -66t-99.5 -168l-115 -653h-278l192 1104h270l-18 -125q145 145 367 145z" />
    <glyph glyph-name="Eng" unicode="&#x14a;" horiz-adv-x="1777" 
d="M1462 1516h289l-268 -1516l-23 -133q-29 -157 -148.5 -247.5t-291.5 -90.5q-195 0 -289 127l96 178q67 -67 168 -67q72 0 124.5 48.5t64.5 123.5l33 184l-682 903l-181 -1026h-286l268 1516h174l774 -1027z" />
    <glyph glyph-name="eng" unicode="&#x14b;" horiz-adv-x="1335" 
d="M838 1124q179 0 283 -96t104 -256q0 -26 -8 -88l-146 -817q-28 -157 -134 -247.5t-259 -90.5q-127 0 -217 39l43 217q39 -16 100 -16q77 0 133.5 48t71.5 134l123 698q0 3 3 23t3 28q0 89 -58 138t-163 49q-115 0 -197.5 -66t-99.5 -168l-115 -653h-278l192 1104h270
l-18 -125q145 145 367 145z" />
    <glyph glyph-name="Omacron" unicode="&#x14c;" horiz-adv-x="1765" 
d="M702 1690l39 219h729l-38 -219h-730zM782 -20q-318 0 -502 171t-184 461q0 194 70.5 365t193 294t296 194t370.5 71q316 0 499 -171t183 -460q0 -194 -70.5 -365.5t-192.5 -294.5t-294.5 -194t-368.5 -71zM807 219q130 0 244 55t192 147t123 213.5t45 252.5
q0 190 -109.5 299.5t-302.5 109.5q-130 0 -244.5 -54.5t-193.5 -145.5t-124.5 -212t-45.5 -253q0 -190 111 -301t305 -111z" />
    <glyph glyph-name="omacron" unicode="&#x14d;" horiz-adv-x="1335" 
d="M414 1278l39 219h729l-39 -219h-729zM567 -20q-237 0 -376.5 127.5t-139.5 341.5q0 190 89 344.5t245.5 242.5t349.5 88q237 0 375.5 -126.5t138.5 -342.5q0 -190 -88 -344.5t-244 -242.5t-350 -88zM604 219q101 0 184.5 57.5t129 149t45.5 195.5q0 123 -70 194.5
t-193 71.5q-155 0 -258.5 -121t-103.5 -281q0 -124 70.5 -195t195.5 -71z" />
    <glyph glyph-name="Ohungarumlaut" unicode="&#x150;" horiz-adv-x="1765" 
d="M733 1677l277 330h317l-364 -330h-230zM1137 1677l276 330h318l-365 -330h-229zM782 -20q-318 0 -502 171t-184 461q0 194 70.5 365t193 294t296 194t370.5 71q316 0 499 -171t183 -460q0 -194 -70.5 -365.5t-192.5 -294.5t-294.5 -194t-368.5 -71zM807 219q130 0 244 55
t192 147t123 213.5t45 252.5q0 190 -109.5 299.5t-302.5 109.5q-130 0 -244.5 -54.5t-193.5 -145.5t-124.5 -212t-45.5 -253q0 -190 111 -301t305 -111z" />
    <glyph glyph-name="ohungarumlaut" unicode="&#x151;" horiz-adv-x="1335" 
d="M444 1266l277 329h317l-364 -329h-230zM848 1266l276 329h318l-365 -329h-229zM567 -20q-237 0 -376.5 127.5t-139.5 341.5q0 190 89 344.5t245.5 242.5t349.5 88q237 0 375.5 -126.5t138.5 -342.5q0 -190 -88 -344.5t-244 -242.5t-350 -88zM604 219q101 0 184.5 57.5
t129 149t45.5 195.5q0 123 -70 194.5t-193 71.5q-155 0 -258.5 -121t-103.5 -281q0 -124 70.5 -195t195.5 -71z" />
    <glyph glyph-name="OE" unicode="&#x152;" horiz-adv-x="2539" 
d="M2531 1276h-739l-68 -389h674l-43 -238h-674l-71 -409h755l-43 -240h-1044l29 164q-231 -184 -543 -184q-309 0 -488.5 170.5t-179.5 457.5q0 258 117.5 470.5t327 335t467.5 122.5q163 0 292 -53.5t213 -153.5l33 187h1026zM809 219q130 0 244 55t192 147t123 213.5
t45 252.5q0 190 -109 299.5t-300 109.5q-174 0 -315.5 -92.5t-218.5 -244t-77 -328.5q0 -190 111 -301t305 -111z" />
    <glyph glyph-name="oe" unicode="&#x153;" horiz-adv-x="2140" 
d="M2032 453h-803v-37q0 -102 54 -159.5t153 -57.5q171 0 305 137l203 -123q-91 -111 -218.5 -172t-271.5 -61q-146 0 -250.5 63.5t-156.5 177.5q-89 -113 -217 -177t-281 -64q-228 0 -362 126t-134 338q0 142 50 267.5t137 216.5t211 143.5t266 52.5q155 0 265 -63
t165 -178q86 112 206 176.5t257 64.5q212 0 334 -121.5t122 -328.5q0 -102 -34 -221zM1583 905q-113 0 -194 -72t-123 -192h518q2 14 2 39q0 225 -203 225zM606 219q101 0 184.5 57t129 149t45.5 196q0 123 -71 194.5t-194 71.5q-102 0 -186 -57.5t-129 -149t-45 -195.5
q0 -124 70.5 -195t195.5 -71z" />
    <glyph glyph-name="Racute" unicode="&#x154;" horiz-adv-x="1490" 
d="M1362 2007l-426 -330h-231l337 330h320zM1421 1112q0 -180 -98 -311.5t-266 -194.5l289 -606h-330l-250 557h-313l-99 -557h-286l268 1516h625q212 0 336 -110t124 -294zM580 1276l-84 -479h284q162 0 253 80.5t91 205.5q0 91 -58 142t-163 51h-323z" />
    <glyph glyph-name="racute" unicode="&#x155;" horiz-adv-x="835" 
d="M395 1266l338 329h320l-426 -329h-232zM27 0l194 1104h268l-24 -141q151 161 432 161l-47 -256q-171 0 -295 -80t-147 -204l-103 -584h-278z" />
    <glyph glyph-name="Rcommaaccent" unicode="&#x156;" horiz-adv-x="1490" 
d="M1421 1112q0 -180 -98 -311.5t-266 -194.5l289 -606h-330l-250 557h-313l-99 -557h-286l268 1516h625q212 0 336 -110t124 -294zM580 1276l-84 -479h284q162 0 253 80.5t91 205.5q0 91 -58 142t-163 51h-323zM362 -451l146 345h256l-186 -345h-216z" />
    <glyph glyph-name="rcommaaccent" unicode="&#x157;" horiz-adv-x="835" 
d="M27 0l194 1104h268l-24 -141q151 161 432 161l-47 -256q-171 0 -295 -80t-147 -204l-103 -584h-278zM-59 -451l145 345h256l-186 -345h-215z" />
    <glyph glyph-name="Rcaron" unicode="&#x158;" horiz-adv-x="1490" 
d="M741 1677l-215 330h258l115 -176l178 176h252l-325 -330h-263zM1421 1112q0 -180 -98 -311.5t-266 -194.5l289 -606h-330l-250 557h-313l-99 -557h-286l268 1516h625q212 0 336 -110t124 -294zM580 1276l-84 -479h284q162 0 253 80.5t91 205.5q0 91 -58 142t-163 51h-323
z" />
    <glyph glyph-name="rcaron" unicode="&#x159;" horiz-adv-x="835" 
d="M432 1266l-215 329h258l115 -176l178 176h252l-326 -329h-262zM465 963q151 161 432 161l-47 -256q-171 0 -295 -80t-147 -204l-103 -584h-278l194 1104h268z" />
    <glyph glyph-name="Sacute" unicode="&#x15a;" horiz-adv-x="1316" 
d="M684 1677l338 330h319l-426 -330h-231zM555 -20q-161 0 -294.5 51t-221.5 145l129 182q152 -139 393 -139q146 0 244 58.5t98 156.5q0 69 -65.5 111t-204.5 84l-84 26q-85 25 -148 55t-116.5 72.5t-81 102t-27.5 133.5q0 151 83.5 270t226.5 183.5t319 64.5
q298 0 487 -180l-145 -189q-138 129 -346 129q-135 0 -228.5 -60t-93.5 -151q0 -28 12 -51t30 -39.5t50 -32t61.5 -26t74.5 -23.5l84 -26q413 -120 413 -406q0 -147 -88 -262.5t-235.5 -177t-325.5 -61.5z" />
    <glyph glyph-name="sacute" unicode="&#x15b;" horiz-adv-x="1044" 
d="M469 1266l338 329h319l-426 -329h-231zM410 -20q-273 0 -410 137l119 157q113 -75 297 -75q87 0 150 37.5t63 95.5q0 43 -39.5 69t-118.5 45l-90 23q-272 60 -272 258q0 170 140.5 283.5t344.5 113.5q256 0 407 -114l-135 -172q-98 67 -254 67q-90 0 -152.5 -33.5
t-62.5 -89.5q0 -39 32.5 -59.5t105.5 -42.5l88 -27q135 -40 212.5 -106.5t77.5 -177.5q0 -118 -68 -207.5t-181.5 -135.5t-253.5 -46z" />
    <glyph glyph-name="Scedilla" unicode="&#x15e;" horiz-adv-x="1316" 
d="M791 887q413 -120 413 -406q0 -134 -73.5 -242.5t-198.5 -173t-281 -81.5l-76 -95q85 -3 135 -43t50 -104q0 -96 -85 -154.5t-218 -58.5q-126 0 -195 53l68 101q43 -37 116 -37q55 0 90 22.5t35 57.5q0 53 -88 53q-34 0 -80 -17l-24 66l113 154q-140 9 -257.5 59
t-195.5 135l129 182q152 -139 393 -139q146 0 244 58.5t98 156.5q0 69 -65.5 111t-204.5 84l-84 26q-85 25 -148 55t-116.5 72.5t-81 102t-27.5 133.5q0 151 83.5 270t226.5 183.5t319 64.5q298 0 487 -180l-145 -189q-138 129 -346 129q-135 0 -228.5 -60t-93.5 -151
q0 -28 12 -51t30 -39.5t50 -32t61.5 -26t74.5 -23.5z" />
    <glyph glyph-name="scedilla" unicode="&#x15f;" horiz-adv-x="1044" 
d="M623 653q135 -40 212.5 -106.5t77.5 -177.5q0 -155 -112.5 -257t-290.5 -126l-78 -97q85 -3 134.5 -43t49.5 -104q0 -96 -85 -154.5t-218 -58.5q-125 0 -194 53l67 101q43 -37 117 -37q55 0 90 22.5t35 57.5q0 53 -88 53q-34 0 -80 -17l-24 66l112 154q-228 15 -348 135
l119 157q113 -75 297 -75q87 0 150 37.5t63 95.5q0 43 -39.5 69t-118.5 45l-90 23q-272 60 -272 258q0 170 140.5 283.5t344.5 113.5q256 0 407 -114l-135 -172q-98 67 -254 67q-90 0 -152.5 -33.5t-62.5 -89.5q0 -39 32.5 -59.5t105.5 -42.5z" />
    <glyph glyph-name="Scaron" unicode="&#x160;" horiz-adv-x="1316" 
d="M721 1677l-215 330h258l115 -176l178 176h252l-326 -330h-262zM801 1296q-135 0 -228.5 -60t-93.5 -151q0 -28 12 -51t30 -39.5t50 -32t61.5 -26t74.5 -23.5l84 -26q413 -120 413 -406q0 -147 -88 -262.5t-235.5 -177t-325.5 -61.5q-161 0 -294.5 51t-221.5 145l129 182
q152 -139 393 -139q146 0 244 58.5t98 156.5q0 69 -65.5 111t-204.5 84l-84 26q-85 25 -148 55t-116.5 72.5t-81 102t-27.5 133.5q0 151 83.5 270t226.5 183.5t319 64.5q298 0 487 -180l-145 -189q-138 129 -346 129z" />
    <glyph glyph-name="scaron" unicode="&#x161;" horiz-adv-x="1044" 
d="M506 1266l-215 329h258l115 -176l178 176h252l-326 -329h-262zM612 905q-90 0 -152.5 -33.5t-62.5 -89.5q0 -39 32.5 -59.5t105.5 -42.5l88 -27q135 -40 212.5 -106.5t77.5 -177.5q0 -118 -68 -207.5t-181.5 -135.5t-253.5 -46q-273 0 -410 137l119 157q113 -75 297 -75
q87 0 150 37.5t63 95.5q0 43 -39.5 69t-118.5 45l-90 23q-272 60 -272 258q0 170 140.5 283.5t344.5 113.5q256 0 407 -114l-135 -172q-98 67 -254 67z" />
    <glyph glyph-name="uni0162" unicode="&#x162;" horiz-adv-x="1265" 
d="M659 0h-61l-88 -111q85 -3 134.5 -43t49.5 -104q0 -96 -85 -154.5t-218 -58.5q-125 0 -194 53l67 101q43 -37 119 -37q54 0 88.5 22.5t34.5 57.5q0 53 -86 53q-38 0 -80 -17l-27 66l127 172h-69l225 1276h-461l43 240h1213l-41 -240h-465z" />
    <glyph glyph-name="uni0163" unicode="&#x163;" horiz-adv-x="802" 
d="M434 0h-55l-88 -111q86 -3 136 -42.5t50 -104.5q0 -96 -85 -154.5t-218 -58.5q-128 0 -197 53l70 101q43 -37 117 -37q55 0 90 22.5t35 57.5q0 53 -88 53q-37 0 -80 -17l-27 66l129 172h-67l155 877h-231l39 227h231l58 323h278l-57 -323h237l-41 -227h-235z" />
    <glyph glyph-name="Tcaron" unicode="&#x164;" horiz-adv-x="1265" 
d="M676 1677l-215 330h258l115 -176l178 176h252l-326 -330h-262zM1391 1516l-41 -240h-465l-226 -1276h-288l225 1276h-461l43 240h1213z" />
    <glyph glyph-name="tcaron" unicode="&#x165;" horiz-adv-x="802" 
d="M944 1597h254l-205 -383h-215zM686 1427l-57 -323h237l-41 -227h-235l-156 -877h-278l155 877h-231l39 227h231l58 323h278z" />
    <glyph glyph-name="Tbar" unicode="&#x166;" horiz-adv-x="1265" 
d="M1350 1276h-465l-76 -436h252l-35 -199h-254l-113 -641h-288l112 641h-243l34 199h246l76 436h-461l43 240h1213z" />
    <glyph glyph-name="tbar" unicode="&#x167;" horiz-adv-x="854" 
d="M836 877h-236l-41 -224h213l-35 -200h-213l-80 -453h-278l80 453h-211l35 200h211l41 224h-232l39 227h231l58 323h278l-57 -323h238z" />
    <glyph glyph-name="Umacron" unicode="&#x16a;" horiz-adv-x="1650" 
d="M643 1690l39 219h729l-39 -219h-729zM721 -20q-268 0 -425 134t-157 357q0 41 11 113l163 932h289l-164 -926q-8 -58 -8 -84q0 -135 83.5 -211t231.5 -76q167 0 290.5 103t152.5 266l162 928h288l-168 -953q-47 -266 -251.5 -424.5t-497.5 -158.5z" />
    <glyph glyph-name="umacron" unicode="&#x16b;" horiz-adv-x="1282" 
d="M385 1278l39 219h729l-39 -219h-729zM539 -20q-211 0 -334 104.5t-123 277.5q0 48 8 89l115 653h278l-114 -649q-4 -40 -4 -58q0 -85 52 -131.5t146 -46.5q105 0 183.5 65.5t95.5 164.5l116 655h279l-119 -674q-37 -206 -194.5 -328t-384.5 -122z" />
    <glyph glyph-name="Uring" unicode="&#x16e;" horiz-adv-x="1650" 
d="M1010 1608q-101 0 -159 53t-58 141q0 111 74.5 179.5t189.5 68.5q99 0 158 -53.5t59 -141.5q0 -111 -74.5 -179t-189.5 -68zM1018 1733q49 0 80.5 34.5t31.5 81.5q0 34 -22.5 54t-60.5 20q-48 0 -79.5 -34t-31.5 -81q0 -34 22 -54.5t60 -20.5zM721 -20q-268 0 -425 134
t-157 357q0 41 11 113l163 932h289l-164 -926q-8 -58 -8 -84q0 -135 83.5 -211t231.5 -76q167 0 290.5 103t152.5 266l162 928h288l-168 -953q-47 -266 -251.5 -424.5t-497.5 -158.5z" />
    <glyph glyph-name="uring" unicode="&#x16f;" horiz-adv-x="1282" 
d="M752 1196q-100 0 -158.5 53t-58.5 142q0 111 74.5 179t189.5 68q99 0 158 -53t59 -141q0 -111 -74.5 -179.5t-189.5 -68.5zM760 1321q49 0 80.5 34.5t31.5 82.5q0 34 -23 53.5t-61 19.5q-48 0 -79 -33.5t-31 -80.5q0 -34 22 -55t60 -21zM539 -20q-211 0 -334 104.5
t-123 277.5q0 48 8 89l115 653h278l-114 -649q-4 -40 -4 -58q0 -85 52 -131.5t146 -46.5q105 0 183.5 65.5t95.5 164.5l116 655h279l-119 -674q-37 -206 -194.5 -328t-384.5 -122z" />
    <glyph glyph-name="Uhungarumlaut" unicode="&#x170;" horiz-adv-x="1650" 
d="M674 1677l276 330h318l-365 -330h-229zM1077 1677l277 330h317l-364 -330h-230zM721 -20q-268 0 -425 134t-157 357q0 41 11 113l163 932h289l-164 -926q-8 -58 -8 -84q0 -135 83.5 -211t231.5 -76q167 0 290.5 103t152.5 266l162 928h288l-168 -953
q-47 -266 -251.5 -424.5t-497.5 -158.5z" />
    <glyph glyph-name="uhungarumlaut" unicode="&#x171;" horiz-adv-x="1282" 
d="M416 1266l276 329h318l-365 -329h-229zM819 1266l277 329h317l-364 -329h-230zM539 -20q-211 0 -334 104.5t-123 277.5q0 48 8 89l115 653h278l-114 -649q-4 -40 -4 -58q0 -85 52 -131.5t146 -46.5q105 0 183.5 65.5t95.5 164.5l116 655h279l-119 -674
q-37 -206 -194.5 -328t-384.5 -122z" />
    <glyph glyph-name="Uogonek" unicode="&#x172;" horiz-adv-x="1650" 
d="M1350 1516h288l-168 -953q-39 -219 -187 -367t-368 -196q-233 -133 -233 -252q0 -27 17 -43t46 -16q58 0 105 35l-2 -138q-86 -57 -199 -57q-82 0 -130 42t-48 112q0 148 207 297q-251 12 -395 144.5t-144 346.5q0 41 11 113l163 932h289l-164 -926q-8 -58 -8 -84
q0 -135 83.5 -211t231.5 -76q167 0 290.5 103t152.5 266z" />
    <glyph glyph-name="uogonek" unicode="&#x173;" horiz-adv-x="1282" 
d="M958 1104h279l-119 -674q-29 -164 -137 -277t-270 -153q-234 -133 -234 -252q0 -26 17.5 -42.5t46.5 -16.5q57 0 104 35l-2 -138q-86 -57 -199 -57q-82 0 -130 42t-48 112q0 149 209 299q-184 17 -288.5 119t-104.5 261q0 48 8 89l115 653h278l-114 -649q-4 -40 -4 -58
q0 -85 52 -131.5t146 -46.5q105 0 183.5 65.5t95.5 164.5z" />
    <glyph glyph-name="Wcircumflex" unicode="&#x174;" horiz-adv-x="2324" 
d="M1376 1858l-182 -181h-250l328 330h266l209 -330h-252zM2161 1516h313l-791 -1516h-270l-164 1126l-569 -1126h-268l-256 1516h303l166 -1129l551 1129h270l153 -1129z" />
    <glyph glyph-name="wcircumflex" unicode="&#x175;" horiz-adv-x="1873" 
d="M1077 1446l-182 -180h-250l328 329h266l209 -329h-252zM1634 1104h310l-601 -1104h-278l-102 780l-383 -780h-279l-209 1104h301l117 -787l389 787h229l105 -787z" />
    <glyph glyph-name="Ycircumflex" unicode="&#x176;" horiz-adv-x="1413" 
d="M922 1858l-183 -181h-250l328 330h266l209 -330h-252zM1231 1516h315l-710 -957l-103 -559h-289l103 559l-373 957h301l260 -701z" />
    <glyph glyph-name="ycircumflex" unicode="&#x177;" horiz-adv-x="1296" 
d="M778 1446l-182 -180h-250l328 329h266l209 -329h-252zM958 1104h279l-274 -1555h-1022l39 228h743l59 336q-136 -133 -338 -133q-169 0 -266.5 95t-97.5 253q0 50 8 94l119 682h278l-112 -647q-4 -27 -4 -58q0 -86 51 -133t145 -47q107 0 183 64t96 170v2z" />
    <glyph glyph-name="Ydieresis" unicode="&#x178;" horiz-adv-x="1413" 
d="M655 1696q-68 0 -109.5 41t-41.5 106q0 78 51 130t129 52q67 0 109.5 -41t42.5 -106q0 -78 -51.5 -130t-129.5 -52zM1159 1696q-69 0 -111 41t-42 106q0 78 52 130t130 52q67 0 108 -41t41 -106q0 -78 -51 -130t-127 -52zM444 0l103 559l-373 957h301l260 -701l496 701
h315l-710 -957l-103 -559h-289z" />
    <glyph glyph-name="Zacute" unicode="&#x179;" horiz-adv-x="1245" 
d="M1290 2007l-426 -330h-231l338 330h319zM1333 1516l-905 -1276h688l-43 -240h-1136l907 1276h-664l41 240h1112z" />
    <glyph glyph-name="zacute" unicode="&#x17a;" horiz-adv-x="1079" 
d="M477 1266l338 329h320l-426 -329h-232zM-57 0l680 877h-510l39 227h940l-680 -875h530l-39 -229h-960z" />
    <glyph glyph-name="Zdotaccent" unicode="&#x17b;" horiz-adv-x="1245" 
d="M821 1696q-68 0 -109.5 41t-41.5 106q0 77 50.5 129.5t129.5 52.5q67 0 109 -41t42 -106q0 -77 -50.5 -129.5t-129.5 -52.5zM1333 1516l-905 -1276h688l-43 -240h-1136l907 1276h-664l41 240h1112z" />
    <glyph glyph-name="zdotaccent" unicode="&#x17c;" horiz-adv-x="1079" 
d="M666 1284q-68 0 -110 41.5t-42 106.5q0 77 50.5 129.5t129.5 52.5q67 0 109.5 -41.5t42.5 -106.5q0 -77 -50.5 -129.5t-129.5 -52.5zM-57 0l680 877h-510l39 227h940l-680 -875h530l-39 -229h-960z" />
    <glyph glyph-name="Zcaron" unicode="&#x17d;" horiz-adv-x="1245" 
d="M670 1677l-215 330h258l114 -176l179 176h251l-325 -330h-262zM1333 1516l-905 -1276h688l-43 -240h-1136l907 1276h-664l41 240h1112z" />
    <glyph glyph-name="zcaron" unicode="&#x17e;" horiz-adv-x="1079" 
d="M514 1266l-215 329h258l115 -176l178 176h252l-326 -329h-262zM152 1104h940l-680 -875h530l-39 -229h-960l680 877h-510z" />
    <glyph glyph-name="florin" unicode="&#x192;" horiz-adv-x="1028" 
d="M944 1536q102 0 195 -37l-56 -217q-41 14 -118 14q-174 0 -238 -182l-102 -291h325l-41 -229h-366l-281 -799h-282l280 799h-168l41 229h207l139 396q55 157 178.5 237t286.5 80z" />
    <glyph glyph-name="Scommaaccent" unicode="&#x218;" horiz-adv-x="1316" 
d="M555 -20q-161 0 -294.5 51t-221.5 145l129 182q152 -139 393 -139q146 0 244 58.5t98 156.5q0 69 -65.5 111t-204.5 84l-84 26q-85 25 -148 55t-116.5 72.5t-81 102t-27.5 133.5q0 151 83.5 270t226.5 183.5t319 64.5q298 0 487 -180l-145 -189q-138 129 -346 129
q-135 0 -228.5 -60t-93.5 -151q0 -28 12 -51t30 -39.5t50 -32t61.5 -26t74.5 -23.5l84 -26q413 -120 413 -406q0 -147 -88 -262.5t-235.5 -177t-325.5 -61.5zM285 -451l145 345h256l-186 -345h-215z" />
    <glyph glyph-name="scommaaccent" unicode="&#x219;" horiz-adv-x="1044" 
d="M410 -20q-273 0 -410 137l119 157q113 -75 297 -75q87 0 150 37.5t63 95.5q0 43 -39.5 69t-118.5 45l-90 23q-272 60 -272 258q0 170 140.5 283.5t344.5 113.5q256 0 407 -114l-135 -172q-98 67 -254 67q-90 0 -152.5 -33.5t-62.5 -89.5q0 -39 32.5 -59.5t105.5 -42.5
l88 -27q135 -40 212.5 -106.5t77.5 -177.5q0 -118 -68 -207.5t-181.5 -135.5t-253.5 -46zM141 -451l146 345h256l-187 -345h-215z" />
    <glyph glyph-name="uni021A" unicode="&#x21a;" horiz-adv-x="1265" 
d="M1391 1516l-41 -240h-465l-226 -1276h-288l225 1276h-461l43 240h1213zM219 -451l146 345h256l-187 -345h-215z" />
    <glyph glyph-name="uni021B" unicode="&#x21b;" horiz-adv-x="802" 
d="M866 1104l-41 -227h-235l-156 -877h-278l155 877h-231l39 227h231l58 323h278l-57 -323h237zM2 -451l145 345h256l-186 -345h-215z" />
    <glyph glyph-name="circumflex" unicode="&#x2c6;" horiz-adv-x="1228" 
d="M1004 1266h-252l-119 180l-182 -180h-250l327 329h267z" />
    <glyph glyph-name="caron" unicode="&#x2c7;" horiz-adv-x="1228" 
d="M803 1595h252l-326 -329h-262l-215 329h258l115 -176z" />
    <glyph glyph-name="breve" unicode="&#x2d8;" horiz-adv-x="1228" 
d="M573 1247q-152 0 -241.5 77.5t-89.5 203.5q0 32 6 67h209q-6 -24 -6 -51q0 -64 34 -99.5t99 -35.5q79 0 131.5 52.5t64.5 133.5h209q-28 -160 -141 -254t-275 -94z" />
    <glyph glyph-name="dotaccent" unicode="&#x2d9;" horiz-adv-x="1228" 
d="M416 1284q-68 0 -110 41.5t-42 106.5q0 77 50.5 129.5t129.5 52.5q67 0 109.5 -41.5t42.5 -106.5q0 -77 -50.5 -129.5t-129.5 -52.5z" />
    <glyph glyph-name="ring" unicode="&#x2da;" horiz-adv-x="1228" 
d="M473 1196q-100 0 -158.5 53t-58.5 142q0 111 74.5 179t189.5 68q99 0 158 -53t59 -141q0 -111 -74.5 -179.5t-189.5 -68.5zM481 1321q49 0 81 35t32 82q0 34 -23 53.5t-61 19.5q-48 0 -79.5 -33.5t-31.5 -80.5q0 -34 22 -55t60 -21z" />
    <glyph glyph-name="ogonek" unicode="&#x2db;" horiz-adv-x="1228" 
d="M147 -471q-82 0 -130 42t-48 112q0 204 404 417l41 -100q-234 -133 -234 -252q0 -26 17.5 -42.5t46.5 -16.5q57 0 104 35l-2 -138q-86 -57 -199 -57z" />
    <glyph glyph-name="tilde" unicode="&#x2dc;" horiz-adv-x="1228" 
d="M764 1268q-51 0 -108 28.5t-107 57t-86 28.5q-93 0 -111 -94h-155q23 129 102 212t180 83q43 0 88.5 -18t77 -39.5t68.5 -39.5t67 -18q93 0 111 95h156q-23 -135 -100.5 -215t-182.5 -80z" />
    <glyph glyph-name="hungarumlaut" unicode="&#x2dd;" horiz-adv-x="1228" 
d="M379 1266l276 329h318l-365 -329h-229zM782 1266l277 329h317l-364 -329h-230z" />
    <glyph glyph-name="gravecomb" unicode="&#x300;" 
d="M-352 1266l-307 329h319l219 -329h-231z" />
    <glyph glyph-name="acutecomb" unicode="&#x301;" 
d="M-442 1266l338 329h319l-426 -329h-231z" />
    <glyph glyph-name="uni0302" unicode="&#x302;" 
d="M53 1266h-252l-118 180l-183 -180h-250l328 329h266z" />
    <glyph glyph-name="tildecomb" unicode="&#x303;" 
d="M-172 1268q-51 0 -108 28.5t-107 57t-86 28.5q-93 0 -111 -94h-155q23 129 102 212t180 83q43 0 88.5 -18t77 -39.5t68.5 -39.5t67 -18q93 0 111 95h156q-23 -135 -100.5 -215t-182.5 -80z" />
    <glyph glyph-name="uni0304" unicode="&#x304;" 
d="M-686 1278l39 219h729l-39 -219h-729z" />
    <glyph glyph-name="uni0306" unicode="&#x306;" 
d="M-297 1247q-152 0 -242 77.5t-90 203.5q0 32 6 67h209q-6 -24 -6 -51q0 -64 34 -99.5t99 -35.5q79 0 132 52.5t65 133.5h209q-28 -160 -141 -254t-275 -94z" />
    <glyph glyph-name="uni0307" unicode="&#x307;" 
d="M-129 1284q-68 0 -110 41.5t-42 106.5q0 77 51 129.5t130 52.5q67 0 109 -41.5t42 -106.5q0 -77 -50.5 -129.5t-129.5 -52.5z" />
    <glyph glyph-name="uni0308" unicode="&#x308;" 
d="M-631 1284q-68 0 -109.5 41.5t-41.5 106.5q0 78 51 130t129 52q67 0 109 -41.5t42 -106.5q0 -78 -51 -130t-129 -52zM-127 1284q-69 0 -111.5 41.5t-42.5 106.5q0 78 52.5 130t130.5 52q67 0 108 -41.5t41 -106.5q0 -78 -51 -130t-127 -52z" />
    <glyph glyph-name="uni030A" unicode="&#x30a;" 
d="M-215 1196q-100 0 -158.5 53t-58.5 142q0 111 74.5 179t189.5 68q99 0 158 -53t59 -141q0 -111 -74.5 -179.5t-189.5 -68.5zM-207 1321q49 0 81 35t32 82q0 34 -23 53.5t-61 19.5q-48 0 -79.5 -33.5t-31.5 -80.5q0 -34 22 -55t60 -21z" />
    <glyph glyph-name="uni030B" unicode="&#x30b;" 
d="M-791 1266l277 329h317l-364 -329h-230zM-387 1266l276 329h318l-365 -329h-229z" />
    <glyph glyph-name="uni030C" unicode="&#x30c;" 
d="M-147 1595h251l-325 -329h-262l-215 329h258l114 -176z" />
    <glyph glyph-name="uni0312" unicode="&#x312;" 
d="M-309 1214l205 383h215l-166 -383h-254z" />
    <glyph glyph-name="uni0326" unicode="&#x326;" 
d="M-559 -451l145 345h256l-186 -345h-215z" />
    <glyph glyph-name="uni0327" unicode="&#x327;" 
d="M-375 -111q85 -3 135 -43t50 -104q0 -96 -85.5 -154.5t-218.5 -58.5q-125 0 -194 53l67 101q43 -37 117 -37q55 0 90 22.5t35 57.5q0 53 -88 53q-34 0 -80 -17l-24 66l127 172h157z" />
    <glyph glyph-name="uni0328" unicode="&#x328;" 
d="M-399 -471q-83 0 -131 42t-48 112q0 204 404 417l41 -100q-234 -133 -234 -252q0 -26 17.5 -42.5t46.5 -16.5q57 0 104 35l-2 -138q-86 -57 -198 -57z" />
    <glyph glyph-name="uni0335" unicode="&#x335;" 
d="M-1094 494l35 198h787l-35 -198h-787z" />
    <glyph glyph-name="uni0336" unicode="&#x336;" 
d="M-1804 494l35 198h1687l-35 -198h-1687z" />
    <glyph glyph-name="uni0337" unicode="&#x337;" 
d="M-489 907l350 221l-39 -217l-348 -219l6 37l-346 -215l37 213l346 215z" />
    <glyph glyph-name="uni0338" unicode="&#x338;" 
d="M-1016 -20l-141 90l1114 1466l141 -90z" />
    <glyph glyph-name="uni0394" unicode="&#x394;" horiz-adv-x="1697" 
d="M1139 1516l377 -1516h-1561l915 1516h269zM410 240h747l-207 917z" />
    <glyph glyph-name="uni03A9" unicode="&#x3a9;" horiz-adv-x="1640" 
d="M10 0l43 240h367l18 98q-144 62 -222.5 182t-78.5 283q0 161 65 299t176.5 232.5t263.5 148t323 53.5q292 0 463 -144t171 -384q0 -229 -133.5 -411t-361.5 -267l-17 -90h361l-43 -240h-600l92 520q180 35 294 164t114 295q0 147 -98 232t-267 85q-140 0 -257 -61.5
t-184 -168t-67 -232.5q0 -122 66 -202.5t190 -111.5l-92 -520h-586z" />
    <glyph glyph-name="uni03BC" unicode="&#x3bc;" horiz-adv-x="1308" 
d="M971 1104h278l-194 -1104h-271l15 104q-112 -124 -269 -124q-139 0 -208 122l-97 -553h-278l274 1555h279l-115 -645q-20 -113 33 -176.5t166 -63.5q103 0 178 65.5t94 168.5z" />
    <glyph glyph-name="pi" unicode="&#x3c0;" horiz-adv-x="1427" 
d="M1180 877l-103 -560q-2 -12 -2 -28q0 -33 18.5 -51.5t51.5 -18.5q54 0 115 33l-23 -225q-94 -47 -211 -47q-109 0 -174.5 61t-65.5 160q0 15 5 55l110 621h-336l-155 -877h-279l156 877h-187l41 227h1276l-41 -227h-196z" />
    <glyph glyph-name="Wgrave" unicode="&#x1e80;" horiz-adv-x="2324" 
d="M1260 1677l-308 330h320l219 -330h-231zM412 0l-256 1516h303l166 -1129l551 1129h270l153 -1129l562 1129h313l-791 -1516h-270l-164 1126l-569 -1126h-268z" />
    <glyph glyph-name="wgrave" unicode="&#x1e81;" horiz-adv-x="1873" 
d="M961 1266l-308 329h320l219 -329h-231zM301 0l-209 1104h301l117 -787l389 787h229l105 -787l401 787h310l-601 -1104h-278l-102 780l-383 -780h-279z" />
    <glyph glyph-name="Wacute" unicode="&#x1e82;" horiz-adv-x="2324" 
d="M1174 1677l337 330h320l-426 -330h-231zM412 0l-256 1516h303l166 -1129l551 1129h270l153 -1129l562 1129h313l-791 -1516h-270l-164 1126l-569 -1126h-268z" />
    <glyph glyph-name="wacute" unicode="&#x1e83;" horiz-adv-x="1873" 
d="M874 1266l338 329h320l-426 -329h-232zM301 0l-209 1104h301l117 -787l389 787h229l105 -787l401 787h310l-601 -1104h-278l-102 780l-383 -780h-279z" />
    <glyph glyph-name="Wdieresis" unicode="&#x1e84;" horiz-adv-x="2324" 
d="M1110 1696q-68 0 -110 41t-42 106q0 78 51.5 130t129.5 52q67 0 109 -41t42 -106q0 -78 -51 -130t-129 -52zM1614 1696q-69 0 -111.5 41t-42.5 106q0 78 52 130t130 52q67 0 108.5 -41t41.5 -106q0 -78 -51 -130t-127 -52zM412 0l-256 1516h303l166 -1129l551 1129h270
l153 -1129l562 1129h313l-791 -1516h-270l-164 1126l-569 -1126h-268z" />
    <glyph glyph-name="wdieresis" unicode="&#x1e85;" horiz-adv-x="1873" 
d="M811 1284q-68 0 -110 41.5t-42 106.5q0 78 51.5 130t129.5 52q67 0 109 -41.5t42 -106.5q0 -78 -51 -130t-129 -52zM1315 1284q-69 0 -111.5 41.5t-42.5 106.5q0 78 52 130t130 52q67 0 108.5 -41.5t41.5 -106.5q0 -78 -51 -130t-127 -52zM301 0l-209 1104h301l117 -787
l389 787h229l105 -787l401 787h310l-601 -1104h-278l-102 780l-383 -780h-279z" />
    <glyph glyph-name="uni1E9E" unicode="&#x1e9e;" horiz-adv-x="1421" 
d="M719 -20q-141 0 -217 36l41 226q60 -23 145 -23q141 0 232.5 77t91.5 191q0 93 -75 145t-208 52l37 219q121 0 201 67.5t80 159.5q0 78 -59.5 122t-162.5 44q-113 0 -194 -61.5t-96 -157.5l-193 -1077h-289l203 1133q32 184 194.5 293.5t399.5 109.5q229 0 364.5 -95.5
t135.5 -254.5q0 -128 -75 -229.5t-204 -163.5q106 -42 167.5 -124.5t61.5 -189.5q0 -145 -78.5 -260t-211 -177t-291.5 -62z" />
    <glyph glyph-name="Ygrave" unicode="&#x1ef2;" horiz-adv-x="1413" 
d="M805 1677l-307 330h319l219 -330h-231zM444 0l103 559l-373 957h301l260 -701l496 701h315l-710 -957l-103 -559h-289z" />
    <glyph glyph-name="ygrave" unicode="&#x1ef3;" horiz-adv-x="1296" 
d="M893 1266h-231l-308 329h320zM958 1104h279l-274 -1555h-1022l39 228h743l59 336q-136 -133 -338 -133q-169 0 -266.5 95t-97.5 253q0 50 8 94l119 682h278l-112 -647q-4 -27 -4 -58q0 -86 51 -133t145 -47q107 0 183 64t96 170v2z" />
    <glyph glyph-name="endash" unicode="&#x2013;" horiz-adv-x="1257" 
d="M100 494l35 198h1004l-35 -198h-1004z" />
    <glyph glyph-name="emdash" unicode="&#x2014;" horiz-adv-x="1994" 
d="M100 494l35 198h1741l-37 -198h-1739z" />
    <glyph glyph-name="quoteleft" unicode="&#x2018;" horiz-adv-x="581" 
d="M664 1516l-228 -527h-295l267 527h256z" />
    <glyph glyph-name="quoteright" unicode="&#x2019;" horiz-adv-x="573" 
d="M150 989l227 527h293l-267 -527h-253z" />
    <glyph glyph-name="quotesinglbase" unicode="&#x201a;" horiz-adv-x="565" 
d="M-131 -262l227 526h295l-266 -526h-256z" />
    <glyph glyph-name="quotedblleft" unicode="&#x201c;" horiz-adv-x="1019" 
d="M666 1516l-228 -525h-295l267 525h256zM1102 1516l-228 -525h-294l268 525h254z" />
    <glyph glyph-name="quotedblright" unicode="&#x201d;" horiz-adv-x="1011" 
d="M150 989l227 527h295l-266 -527h-256zM588 989l225 527h295l-266 -527h-254z" />
    <glyph glyph-name="quotedblbase" unicode="&#x201e;" horiz-adv-x="1001" 
d="M-131 -262l227 526h295l-266 -526h-256zM307 -262l228 526h292l-266 -526h-254z" />
    <glyph glyph-name="dagger" unicode="&#x2020;" horiz-adv-x="1163" 
d="M1165 1104l-41 -238h-360l-232 -1317h-288l231 1317h-360l43 238h360l86 493h289l-86 -493h358z" />
    <glyph glyph-name="daggerdbl" unicode="&#x2021;" horiz-adv-x="1163" 
d="M1124 866h-360l-37 -211h360l-43 -239h-360l-152 -867h-288l151 867h-358l43 239h358l37 211h-360l43 238h360l86 493h289l-86 -493h358z" />
    <glyph glyph-name="bullet" unicode="&#x2022;" horiz-adv-x="806" 
d="M377 383q-105 0 -167.5 59t-62.5 158q0 119 77 199t198 80q104 0 166.5 -59.5t62.5 -157.5q0 -119 -76 -199t-198 -80z" />
    <glyph glyph-name="ellipsis" unicode="&#x2026;" horiz-adv-x="1601" 
d="M180 -20q-72 0 -119 49t-47 121q0 83 56.5 138.5t142.5 55.5q72 0 119 -49t47 -123q0 -82 -56.5 -137t-142.5 -55zM707 -20q-73 0 -119.5 48.5t-46.5 121.5q0 83 55.5 138.5t140.5 55.5q73 0 119.5 -49t46.5 -123q0 -82 -56 -137t-140 -55zM1231 -20q-72 0 -119 49
t-47 121q0 83 57 138.5t142 55.5q73 0 119.5 -49t46.5 -123q0 -82 -56.5 -137t-142.5 -55z" />
    <glyph glyph-name="perthousand" unicode="&#x2030;" horiz-adv-x="2603" 
d="M504 838q-159 0 -250.5 80t-91.5 217q0 177 124 289t310 112q157 0 248.5 -80.5t91.5 -214.5q0 -178 -123.5 -290.5t-308.5 -112.5zM403 -20l-139 90l1145 1466l139 -90zM528 1016q79 0 132 62.5t53 144.5q0 64 -37.5 98.5t-104.5 34.5q-80 0 -133 -62t-53 -143
q0 -64 37.5 -99.5t105.5 -35.5zM1217 -20q-158 0 -250.5 80.5t-92.5 215.5q0 177 124.5 289.5t310.5 112.5q159 0 249.5 -79.5t90.5 -215.5q0 -177 -123 -290t-309 -113zM2052 -20q-158 0 -250 80.5t-92 215.5q0 178 124 290t310 112q159 0 249.5 -79.5t90.5 -215.5
q0 -177 -123 -290t-309 -113zM1241 160q80 0 133 62t53 143q0 64 -37.5 99.5t-103.5 35.5q-81 0 -133.5 -62t-52.5 -145q0 -64 37 -98.5t104 -34.5zM2077 160q79 0 131.5 62t52.5 143q0 64 -36.5 99.5t-102.5 35.5q-81 0 -134 -62.5t-53 -144.5q0 -64 37 -98.5t105 -34.5z
" />
    <glyph glyph-name="guilsinglleft" unicode="&#x2039;" horiz-adv-x="819" 
d="M344 82l-289 471l449 471h305l-447 -471l271 -471h-289z" />
    <glyph glyph-name="guilsinglright" unicode="&#x203a;" horiz-adv-x="821" 
d="M442 1024l289 -471l-448 -471h-303l444 471l-268 471h286z" />
    <glyph glyph-name="fraction" unicode="&#x2044;" horiz-adv-x="456" 
d="M-242 -20l-139 90l1116 1466l139 -90z" />
    <glyph glyph-name="uni2070" unicode="&#x2070;" horiz-adv-x="806" 
d="M453 799q-133 0 -210 95t-77 257q0 148 53 280t154 217t225 85q134 0 209.5 -94.5t75.5 -254.5q0 -111 -31.5 -216.5t-86.5 -187.5t-136.5 -131.5t-175.5 -49.5zM477 946q65 0 117.5 70.5t79 168.5t26.5 193q0 96 -32.5 151.5t-92.5 55.5q-65 0 -118.5 -70.5t-81 -168.5
t-27.5 -193q0 -96 33.5 -151.5t95.5 -55.5z" />
    <glyph glyph-name="uni2074" unicode="&#x2074;" horiz-adv-x="804" 
d="M479 811l31 174h-420l21 123l567 612h141l-102 -585h125l-27 -150h-125l-31 -174h-180zM324 1128h217l51 289z" />
    <glyph glyph-name="uni2075" unicode="&#x2075;" horiz-adv-x="741" 
d="M348 799q-181 0 -268 84l70 123q72 -60 198 -60q95 0 165.5 53.5t70.5 130.5q0 51 -33 81t-90 30q-85 0 -137 -49l-121 20l153 508h469l-24 -147h-316l-67 -195q50 13 90 13q118 0 189 -63t71 -167q0 -158 -122.5 -260t-297.5 -102z" />
    <glyph glyph-name="uni2076" unicode="&#x2076;" horiz-adv-x="743" 
d="M545 1368q103 0 170 -62t67 -163q0 -148 -109 -246t-267 -98q-127 0 -201 62.5t-74 168.5q0 156 156 334l315 356h203l-326 -354q20 2 66 2zM432 946q70 0 117 52.5t47 123.5q0 51 -30 80t-83 29q-70 0 -117 -50.5t-47 -123.5q0 -51 30.5 -81t82.5 -30z" />
    <glyph glyph-name="uni2077" unicode="&#x2077;" horiz-adv-x="667" 
d="M217 1720h621l-469 -909h-193l399 762h-385z" />
    <glyph glyph-name="uni2078" unicode="&#x2078;" horiz-adv-x="770" 
d="M674 1280q106 -58 106 -180q0 -135 -103 -218t-253 -83q-133 0 -210 62t-77 167q0 92 50 158.5t137 101.5q-88 59 -88 162q0 125 96 204t237 79q119 0 189.5 -59t70.5 -156q0 -82 -41.5 -143.5t-113.5 -94.5zM553 1585q-59 0 -98 -42.5t-39 -98.5q0 -41 25 -64.5
t69 -23.5q58 0 96.5 41.5t38.5 97.5q0 40 -25 65t-67 25zM438 946q69 0 115.5 47t46.5 113q0 46 -31 74t-84 28q-69 0 -115 -46.5t-46 -112.5q0 -46 30.5 -74.5t83.5 -28.5z" />
    <glyph glyph-name="uni2079" unicode="&#x2079;" horiz-adv-x="743" 
d="M563 1733q127 0 201 -63t74 -169q0 -156 -156 -334l-315 -356h-203l325 354q-20 -2 -65 -2q-103 0 -170.5 62.5t-67.5 163.5q0 148 109.5 246t267.5 98zM373 1409q0 -51 30 -80t82 -29q70 0 117 51t47 124q0 51 -30 80.5t-82 29.5q-70 0 -117 -52.5t-47 -123.5z" />
    <glyph glyph-name="uni2080" unicode="&#x2080;" horiz-adv-x="806" 
d="M272 -217q-133 0 -209.5 95t-76.5 257q0 148 53 280t154 217t225 85q134 0 209 -94t75 -254q0 -150 -52.5 -283t-153 -218t-224.5 -85zM297 -70q65 0 117.5 70.5t79 168.5t26.5 193q0 96 -32.5 151.5t-92.5 55.5q-65 0 -118.5 -70.5t-81 -168.5t-27.5 -193
q0 -96 33.5 -151.5t95.5 -55.5z" />
    <glyph glyph-name="uni2081" unicode="&#x2081;" horiz-adv-x="471" 
d="M27 -205l133 762h-137l24 148h322l-162 -910h-180z" />
    <glyph glyph-name="uni2082" unicode="&#x2082;" horiz-adv-x="745" 
d="M-94 -205l20 113l357 317q39 35 62.5 58.5t53 59t44 70t14.5 68.5q0 40 -26.5 64t-72.5 24q-55 0 -95.5 -39t-49.5 -100l-178 27q22 120 114 190t226 70q123 0 194.5 -57t71.5 -154q0 -55 -21 -108t-62 -104t-84.5 -93t-104.5 -92l-199 -168l387 2l-27 -148h-624z" />
    <glyph glyph-name="uni2083" unicode="&#x2083;" horiz-adv-x="729" 
d="M633 705l-21 -111l-272 -244q108 -7 168.5 -69t60.5 -160q0 -153 -111.5 -245.5t-281.5 -92.5q-87 0 -158 25.5t-110 68.5l84 123q58 -70 190 -70q86 0 145.5 47.5t59.5 118.5q0 54 -39.5 85.5t-109.5 31.5q-59 0 -123 -33l-39 94l297 283h-305l26 148h539z" />
    <glyph glyph-name="uni2084" unicode="&#x2084;" horiz-adv-x="804" 
d="M299 -205l31 174h-420l20 123l568 613h141l-102 -586h125l-27 -150h-125l-31 -174h-180zM143 113h217l52 288z" />
    <glyph glyph-name="uni2085" unicode="&#x2085;" horiz-adv-x="741" 
d="M168 -217q-181 0 -268 84l69 123q72 -60 199 -60q95 0 165 54t70 131q0 51 -32.5 80.5t-89.5 29.5q-86 0 -138 -49l-120 21l153 508h469l-24 -148h-316l-67 -195q50 13 90 13q118 0 189 -63t71 -167q0 -158 -122.5 -260t-297.5 -102z" />
    <glyph glyph-name="uni2086" unicode="&#x2086;" horiz-adv-x="743" 
d="M365 352q103 0 170 -62t67 -163q0 -148 -109.5 -246t-267.5 -98q-127 0 -200.5 62.5t-73.5 168.5q0 157 155 334l316 357h203l-326 -355q20 2 66 2zM252 -70q70 0 117 52.5t47 123.5q0 51 -30 80t-83 29q-70 0 -117 -50.5t-47 -123.5q0 -51 30.5 -81t82.5 -30z" />
    <glyph glyph-name="uni2087" unicode="&#x2087;" horiz-adv-x="667" 
d="M37 705h620l-469 -910h-192l399 762h-385z" />
    <glyph glyph-name="uni2088" unicode="&#x2088;" horiz-adv-x="770" 
d="M494 264q106 -58 106 -180q0 -135 -103 -218t-253 -83q-133 0 -210 62t-77 167q0 92 50 158.5t136 101.5q-88 59 -88 162q0 125 96.5 204t237.5 79q119 0 189.5 -59t70.5 -156q0 -82 -41.5 -143.5t-113.5 -94.5zM373 569q-59 0 -98 -42.5t-39 -98.5q0 -41 25 -64.5
t69 -23.5q58 0 96.5 41.5t38.5 97.5q0 40 -25 65t-67 25zM258 -70q69 0 115.5 47t46.5 113q0 46 -31 74.5t-84 28.5q-69 0 -115.5 -47t-46.5 -113q0 -46 31 -74.5t84 -28.5z" />
    <glyph glyph-name="uni2089" unicode="&#x2089;" horiz-adv-x="743" 
d="M383 717q127 0 200.5 -63t73.5 -169q0 -156 -155 -333l-316 -357h-202l325 355q-30 -3 -65 -3q-103 0 -170.5 62.5t-67.5 163.5q0 148 109.5 246t267.5 98zM193 393q0 -51 29.5 -79.5t82.5 -28.5q70 0 117 50.5t47 123.5q0 51 -30.5 80.5t-82.5 29.5q-70 0 -116.5 -52.5
t-46.5 -123.5z" />
    <glyph glyph-name="Euro" unicode="&#x20ac;" horiz-adv-x="1726" 
d="M932 219q132 0 261.5 68t219.5 182l172 -193q-134 -147 -307.5 -221.5t-374.5 -74.5q-291 0 -473.5 142.5t-216.5 389.5h-158l33 180h121l12 96h-117l33 181h135q103 259 335.5 413t535.5 154q371 0 565 -252l-203 -168q-136 180 -383 180q-178 0 -318.5 -89t-217.5 -238
h483l-31 -181h-518q-12 -62 -14 -96h514l-31 -180h-473q33 -139 139.5 -216t276.5 -77z" />
    <glyph glyph-name="uni20B9" unicode="&#x20b9;" horiz-adv-x="1290" 
d="M1352 1516l-33 -181h-326q103 -95 109 -245h162l-31 -181h-154q-33 -119 -113.5 -211.5t-195.5 -148.5l262 -549h-332l-213 475h-38h-357l43 240h318q110 0 195 51.5t126 142.5h-606l33 181h606q-6 88 -62.5 137t-154.5 49h-357l11 59l32 181h1076z" />
    <glyph glyph-name="uni20BD" unicode="&#x20bd;" horiz-adv-x="1406" 
d="M795 598h-283l-18 -98h452l-33 -181h-450l-57 -319h-289l57 319h-117l31 181h117l18 98h-117l31 178h117l131 740h565q213 0 338 -104.5t125 -278.5q0 -157 -82.5 -280t-222.5 -189t-313 -66zM893 1276h-262l-78 -440h246q137 0 228 72.5t91 193.5q0 82 -59.5 128
t-165.5 46z" />
    <glyph glyph-name="trademark" unicode="&#x2122;" horiz-adv-x="1503" 
d="M727 1473h-178l-82 -461h-150l82 461h-178l21 124h506zM1335 1597h160l-59 -585h-150l43 383l-227 -383h-64l-96 387l-92 -387h-150l148 585h158l98 -380z" />
    <glyph glyph-name="oneeighth" unicode="&#x215b;" horiz-adv-x="1697" 
d="M1206 1536l140 -90l-1117 -1466l-139 90zM170 606l133 762h-137l24 148h322l-162 -910h-180zM1458 469q107 -58 107 -180q0 -135 -103.5 -218t-253.5 -83q-133 0 -209.5 62t-76.5 167q0 92 50 158.5t136 101.5q-88 59 -88 162q0 125 96.5 204t237.5 79q119 0 189.5 -59
t70.5 -156q0 -82 -42 -143t-114 -95zM1337 774q-59 0 -98 -42.5t-39 -98.5q0 -41 25 -64.5t69 -23.5q58 0 97 41.5t39 97.5q0 40 -25.5 65t-67.5 25zM1223 135q69 0 115 47t46 113q0 46 -30.5 74t-83.5 28q-69 0 -115.5 -46.5t-46.5 -112.5q0 -46 31 -74.5t84 -28.5z" />
    <glyph glyph-name="threeeighths" unicode="&#x215c;" horiz-adv-x="1955" 
d="M1464 1536l140 -90l-1117 -1466l-139 90zM713 932q0 -153 -111.5 -245.5t-282.5 -92.5q-87 0 -158 25.5t-110 68.5l84 123q58 -70 191 -70q86 0 145 47.5t59 118.5q0 54 -39.5 85.5t-109.5 31.5q-59 0 -123 -33l-39 94l297 283h-305l27 148h538l-20 -111l-273 -244
q108 -7 169 -69t61 -160zM1716 469q107 -58 107 -180q0 -135 -103.5 -218t-253.5 -83q-133 0 -209.5 62t-76.5 167q0 92 50 158.5t136 101.5q-88 59 -88 162q0 125 96.5 204t237.5 79q119 0 189.5 -59t70.5 -156q0 -82 -42 -143t-114 -95zM1595 774q-59 0 -98 -42.5
t-39 -98.5q0 -41 25 -64.5t69 -23.5q58 0 97 41.5t39 97.5q0 40 -25.5 65t-67.5 25zM1481 135q69 0 115 47t46 113q0 46 -30.5 74t-83.5 28q-69 0 -115.5 -46.5t-46.5 -112.5q0 -46 31 -74.5t84 -28.5z" />
    <glyph glyph-name="fiveeighths" unicode="&#x215d;" horiz-adv-x="1968" 
d="M1477 1536l139 -90l-1116 -1466l-140 90zM731 956q0 -158 -122.5 -260t-297.5 -102q-181 0 -268 84l70 123q72 -60 198 -60q95 0 165.5 54t70.5 131q0 51 -33 80.5t-90 29.5q-85 0 -137 -49l-121 21l153 508h469l-24 -148h-315l-68 -194q47 12 90 12q118 0 189 -63
t71 -167zM1729 469q106 -58 106 -180q0 -135 -103 -218t-253 -83q-133 0 -210 62t-77 167q0 92 50 158.5t136 101.5q-88 59 -88 162q0 125 96.5 204t237.5 79q119 0 189.5 -59t70.5 -156q0 -82 -41.5 -143.5t-113.5 -94.5zM1608 774q-60 0 -99 -42.5t-39 -98.5
q0 -41 25.5 -64.5t69.5 -23.5q58 0 96.5 41.5t38.5 97.5q0 40 -25 65t-67 25zM1493 135q69 0 115.5 47t46.5 113q0 46 -31 74t-84 28q-69 0 -115.5 -46.5t-46.5 -112.5q0 -46 31 -74.5t84 -28.5z" />
    <glyph glyph-name="seveneighths" unicode="&#x215e;" horiz-adv-x="1845" 
d="M1354 1536l139 -90l-1116 -1466l-139 90zM332 606h-193l400 762h-385l26 148h621zM1606 469q106 -58 106 -180q0 -135 -103 -218t-253 -83q-133 0 -210 62t-77 167q0 92 50 158.5t136 101.5q-88 59 -88 162q0 125 96.5 204t237.5 79q119 0 189.5 -59t70.5 -156
q0 -82 -41.5 -143.5t-113.5 -94.5zM1485 774q-59 0 -98 -42.5t-39 -98.5q0 -41 25 -64.5t69 -23.5q58 0 96.5 41.5t38.5 97.5q0 40 -25 65t-67 25zM1370 135q69 0 115.5 47t46.5 113q0 46 -31 74t-84 28q-69 0 -115.5 -46.5t-46.5 -112.5q0 -46 31 -74.5t84 -28.5z" />
    <glyph glyph-name="partialdiff" unicode="&#x2202;" horiz-adv-x="1394" 
d="M795 1536q257 0 404 -161t147 -437q0 -194 -63 -369.5t-174 -305.5t-272.5 -206.5t-349.5 -76.5q-219 0 -347 100.5t-128 271.5q0 116 59.5 213t159 163t234.5 113t281.5 70.5t304.5 28.5q-2 167 -73 261.5t-198 94.5q-116 0 -217.5 -54t-173.5 -142l-162 200
q239 236 568 236zM492 219q97 0 184 38t153 104.5t114.5 153t76.5 187.5q-131 -4 -254.5 -26.5t-230 -63.5t-171.5 -107t-65 -147q0 -66 51.5 -102.5t141.5 -36.5z" />
    <glyph glyph-name="emptyset" unicode="&#x2205;" horiz-adv-x="1396" 
d="M1327 1208l-104 -98q86 -119 86 -285q0 -190 -88 -344.5t-244 -242.5t-350 -88q-198 0 -332 92l-98 -92l-101 86l105 98q-88 117 -88 287q0 190 88.5 344.5t245 242.5t350.5 88q197 0 331 -92l99 92zM399 657q0 -65 21 -118l502 471q-62 47 -162 47q-102 0 -186 -57.5
t-129.5 -148.5t-45.5 -194zM1022 791q0 61 -18 114l-502 -471q64 -45 162 -45q101 0 184.5 57.5t128.5 149t45 195.5z" />
    <glyph glyph-name="product" unicode="&#x220f;" horiz-adv-x="1505" 
d="M1497 1597l-360 -2048h-289l317 1809h-575l-318 -1809h-288l360 2048h1153z" />
    <glyph glyph-name="summation" unicode="&#x2211;" horiz-adv-x="1368" 
d="M-121 -451l29 183l768 848l-443 835l29 182h1172l-41 -239h-809l415 -778l-716 -791h852l-41 -240h-1215z" />
    <glyph glyph-name="minus" unicode="&#x2212;" horiz-adv-x="1241" 
d="M125 602l41 229h971l-41 -229h-971z" />
    <glyph glyph-name="radical" unicode="&#x221a;" horiz-adv-x="1611" 
d="M268 -451l-270 1104h299l162 -786l999 1730h307l-1218 -2048h-279z" />
    <glyph glyph-name="infinity" unicode="&#x221e;" horiz-adv-x="1497" 
d="M1071 922q149 0 234.5 -80t85.5 -213q0 -178 -116 -293t-296 -115q-97 0 -166.5 39t-105.5 109q-54 -69 -133 -108.5t-175 -39.5q-148 0 -233.5 80t-85.5 215q0 177 117.5 291.5t296.5 114.5q95 0 164.5 -39t105.5 -109q54 69 133 108.5t174 39.5zM438 401q82 0 136.5 62
t54.5 143q0 64 -35.5 99.5t-99.5 35.5q-83 0 -138 -61t-55 -143q0 -65 35.5 -100.5t101.5 -35.5zM979 401q81 0 134.5 62t53.5 143q0 65 -34.5 100t-98.5 35q-83 0 -137.5 -61t-54.5 -143q0 -65 35.5 -100.5t101.5 -35.5z" />
    <glyph glyph-name="integral" unicode="&#x222b;" horiz-adv-x="933" 
d="M76 -471q-169 0 -254 109l98 176q45 -45 117 -45q61 0 102.5 35.5t50.5 93.5l252 1423q25 137 132.5 217t259.5 80q167 0 249 -109l-94 -176q-45 45 -117 45q-62 0 -103 -35.5t-50 -93.5l-252 -1423q-25 -137 -132 -217t-259 -80z" />
    <glyph glyph-name="approxequal" unicode="&#x2248;" horiz-adv-x="1224" 
d="M827 653q-52 0 -109.5 18.5t-100 40t-92.5 40t-89 18.5q-126 0 -143 -96h-156q22 129 112 212t210 83q54 0 112.5 -18t99.5 -39.5t90.5 -39.5t88.5 -18q127 0 143 94h156q-23 -134 -112 -214.5t-210 -80.5zM754 244q-64 0 -137 29t-138.5 58t-113.5 29q-127 0 -144 -96
h-155q22 129 111.5 212t209.5 83q54 0 112 -18t99 -39.5t91 -39.5t89 -18q128 0 144 95h153q-22 -134 -110.5 -214.5t-210.5 -80.5z" />
    <glyph glyph-name="notequal" unicode="&#x2260;" horiz-adv-x="1241" 
d="M1137 829h-312l-98 -223h371l-41 -229h-432l-109 -242h-285l109 242h-252l41 229h313l99 223h-373l41 230h434l109 241h284l-108 -241h250z" />
    <glyph glyph-name="lessequal" unicode="&#x2264;" horiz-adv-x="1232" 
d="M1049 389l-895 399l30 179l1039 397l-47 -260l-635 -227l555 -226zM25 68l41 229h966l-41 -229h-966z" />
    <glyph glyph-name="greaterequal" unicode="&#x2265;" horiz-adv-x="1226" 
d="M96 389l45 262l623 228l-543 225l47 260l897 -397l-32 -179zM39 68l41 229h967l-41 -229h-967z" />
    <glyph glyph-name="lozenge" unicode="&#x25ca;" horiz-adv-x="1267" 
d="M393 0l-315 655l538 654h258l318 -654l-541 -655h-258zM563 246l340 409l-196 408l-340 -408z" />
    <glyph glyph-name="i.loclTRK" horiz-adv-x="561" 
d="M410 1284q-68 0 -110 41.5t-42 106.5q0 77 50.5 129.5t129.5 52.5q67 0 109.5 -41.5t42.5 -106.5q0 -77 -50.5 -129.5t-129.5 -52.5zM27 0l196 1104h279l-197 -1104h-278z" />
    <glyph glyph-name="zero.lf" horiz-adv-x="1323" 
d="M573 -20q-221 0 -348 157t-127 424q0 123 23.5 244t66.5 228.5t107.5 200t142.5 159.5t175 105t202 38q220 0 345.5 -157t125.5 -423q0 -148 -32.5 -291t-95.5 -266t-148.5 -217t-198.5 -148t-238 -54zM600 219q87 0 163 70t124.5 179.5t76 236.5t27.5 247q0 160 -54 252
t-153 92q-87 0 -163.5 -70t-125 -179.5t-76.5 -236.5t-28 -247q0 -160 55 -252t154 -92z" />
    <glyph glyph-name="one.lf" horiz-adv-x="751" 
d="M172 0l225 1276h-233l41 240h524l-268 -1516h-289z" />
    <glyph glyph-name="two.lf" horiz-adv-x="1208" 
d="M-31 0l33 182l588 531q126 114 178 173q125 143 125 259q0 71 -45.5 111t-126.5 40q-94 0 -164.5 -66.5t-89.5 -170.5l-285 47q35 197 188.5 313.5t372.5 116.5q205 0 324 -94.5t119 -253.5q0 -92 -35 -181.5t-104 -175.5t-141 -155.5t-175 -155.5l-338 -287l649 7
l-41 -240h-1032z" />
    <glyph glyph-name="three.lf" horiz-adv-x="1189" 
d="M1178 1516l-33 -181l-463 -415q182 -9 286.5 -112.5t104.5 -268.5q0 -167 -86.5 -295.5t-234 -196t-332.5 -67.5q-145 0 -264.5 42t-182.5 115l136 197q97 -115 323 -115q144 0 244 79.5t100 199.5q0 94 -67.5 148t-186.5 54q-109 0 -207 -55l-61 152l504 479h-516
l43 240h893z" />
    <glyph glyph-name="four.lf" horiz-adv-x="1316" 
d="M633 0l51 293h-700l32 199l945 1024h227l-172 -984h211l-43 -239h-211l-51 -293h-289zM360 524h375l99 533z" />
    <glyph glyph-name="five.lf" horiz-adv-x="1212" 
d="M408 -20q-146 0 -260.5 36t-184.5 103l111 198q112 -98 336 -98q162 0 277.5 88.5t115.5 220.5q0 91 -56 142t-157 51q-128 0 -228 -82l-194 35l252 842h780l-41 -240h-528l-119 -336q89 21 160 21q196 0 314 -104.5t118 -276.5q0 -130 -55.5 -242.5t-150 -190.5
t-222 -122.5t-268.5 -44.5z" />
    <glyph glyph-name="six.lf" horiz-adv-x="1204" 
d="M721 928q174 0 286.5 -102.5t112.5 -270.5q0 -162 -84 -294.5t-227 -206.5t-313 -74q-211 0 -333 104.5t-122 282.5q0 258 250 542l538 607h324l-549 -596q47 8 117 8zM537 219q122 0 200 89t78 210q0 88 -51.5 139.5t-140.5 51.5q-121 0 -201 -88t-80 -213
q0 -88 52 -138.5t143 -50.5z" />
    <glyph glyph-name="seven.lf" horiz-adv-x="1103" 
d="M190 1516h1029l-781 -1516h-309l668 1276h-650z" />
    <glyph glyph-name="eight.lf" horiz-adv-x="1257" 
d="M938 780q88 -46 136 -123t48 -176q0 -112 -47.5 -207t-128 -159t-189 -99.5t-229.5 -35.5q-218 0 -345.5 102.5t-127.5 273.5q0 155 86 269t232 170q-154 93 -154 272q0 137 75 245t200.5 166t275.5 58q200 0 317 -96t117 -258q0 -140 -71.5 -243t-194.5 -159zM741 1296
q-99 0 -165 -71.5t-66 -167.5q0 -71 44 -112.5t122 -41.5q98 0 164.5 72.5t66.5 167.5q0 72 -43.5 112.5t-122.5 40.5zM555 219q116 0 196 79t80 189q0 83 -53 131t-147 48q-118 0 -197.5 -80.5t-79.5 -190.5q0 -84 53.5 -130t147.5 -46z" />
    <glyph glyph-name="nine.lf" horiz-adv-x="1204" 
d="M748 1536q211 0 332.5 -104.5t121.5 -282.5q0 -259 -250 -543l-536 -606h-326l549 596q-47 -8 -117 -8q-174 0 -286.5 102.5t-112.5 270.5q0 121 49.5 228.5t133.5 183t199.5 119.5t242.5 44zM428 997q0 -88 52 -139t141 -51q121 0 200.5 88t79.5 213q0 88 -51.5 138
t-142.5 50q-122 0 -200.5 -89t-78.5 -210z" />
    <glyph glyph-name="zero.osf" horiz-adv-x="1417" 
d="M621 -20q-248 0 -391.5 145t-143.5 391q0 170 56.5 320.5t154 258.5t235 171t293.5 63q248 0 390.5 -144t142.5 -390q0 -226 -95 -412.5t-264.5 -294.5t-377.5 -108zM651 219q115 0 210.5 78.5t147.5 204t52 266.5q0 150 -71 237t-195 87q-116 0 -212 -78.5t-148 -203.5
t-52 -267q0 -150 70.5 -237t197.5 -87z" />
    <glyph glyph-name="one.osf" horiz-adv-x="749" 
d="M182 0l193 1081h-223l41 228h499l-231 -1309h-279z" />
    <glyph glyph-name="two.osf" horiz-adv-x="1228" 
d="M-18 0l32 182l580 412q51 35 79.5 55.5t73.5 59t69.5 69.5t43.5 72.5t19 81.5q0 73 -50 116.5t-137 43.5q-97 0 -169 -63.5t-89 -162.5l-274 45q35 192 187 305t372 113q203 0 321.5 -95t118.5 -255q0 -71 -22.5 -136.5t-56.5 -116.5t-91 -105t-110.5 -94t-130.5 -91
l-310 -207h615l-41 -229h-1030z" />
    <glyph glyph-name="three.osf" horiz-adv-x="1191" 
d="M1147 1309l-31 -179l-467 -417q180 -9 282.5 -110.5t102.5 -266.5q0 -126 -49 -232t-135.5 -178t-204.5 -111.5t-254 -39.5q-147 0 -266 42.5t-178 114.5l133 197q44 -57 124 -86t179 -29q152 0 259.5 81t107.5 202q0 93 -70.5 145t-194.5 52q-95 0 -198 -54l-62 150
l512 491h-524l41 228h893z" />
    <glyph glyph-name="four.osf" horiz-adv-x="1320" 
d="M616 -225l39 225h-714l32 180l973 1129h219l-190 -1080h209l-39 -229h-211l-39 -225h-279zM319 221h383l103 572z" />
    <glyph glyph-name="five.osf" horiz-adv-x="1208" 
d="M371 -225q-146 0 -260.5 36t-184.5 103l111 199q113 -99 338 -99q162 0 277.5 89.5t115.5 222.5q0 88 -55.5 139t-153.5 51q-66 0 -127.5 -23t-105.5 -59l-195 35l252 840h780l-39 -228h-544l-115 -346q87 19 172 19q190 0 305 -103.5t115 -273.5q0 -130 -54.5 -243
t-147 -191t-218.5 -123t-266 -45z" />
    <glyph glyph-name="six.osf" horiz-adv-x="1196" 
d="M713 928q181 0 285 -98t104 -265q0 -166 -81.5 -300.5t-222.5 -209.5t-311 -75q-206 0 -325 103.5t-119 281.5q0 256 231 516l562 635h313l-549 -596q49 8 113 8zM528 219q122 0 200.5 89t78.5 210q0 88 -52 139.5t-141 51.5q-121 0 -200.5 -88t-79.5 -213
q0 -88 51.5 -138.5t142.5 -50.5z" />
    <glyph glyph-name="seven.osf" horiz-adv-x="1144" 
d="M176 1309h1030l-788 -1534l-260 71l630 1235h-651z" />
    <glyph glyph-name="eight.osf" horiz-adv-x="1239" 
d="M924 782q87 -46 133.5 -123t46.5 -176q0 -147 -79.5 -263t-212.5 -178t-294 -62q-214 0 -339.5 102.5t-125.5 275.5q0 151 86 265.5t230 171.5q-148 93 -148 270q0 137 73 245.5t196 167t272 58.5q196 0 311 -96t115 -256q0 -136 -71 -241.5t-193 -160.5zM733 1296
q-99 0 -165 -72t-66 -169q0 -71 44 -111.5t120 -40.5q99 0 166 72.5t67 167.5q0 72 -44 112.5t-122 40.5zM545 219q119 0 197.5 78t78.5 190q0 83 -53 131t-147 48q-117 0 -197 -80.5t-80 -190.5q0 -84 54 -130t147 -46z" />
    <glyph glyph-name="nine.osf" horiz-adv-x="1187" 
d="M707 1329q205 0 325.5 -103t120.5 -278q0 -256 -233 -522l-580 -651l-248 71l502 547q-62 -10 -115 -10q-180 0 -283.5 97.5t-103.5 264.5q0 166 81.5 300t222.5 209t311 75zM385 795q0 -88 51.5 -140.5t141.5 -52.5q122 0 201 90t79 211q0 87 -52 138t-142 51
q-121 0 -200 -86.5t-79 -210.5z" />
    <glyph glyph-name="zero.tf" horiz-adv-x="1259" 
d="M530 -20q-200 0 -314 151.5t-114 411.5q0 140 29 281t87.5 268.5t138 227t188 158t229.5 58.5q198 0 311 -151.5t113 -409.5q0 -140 -29 -281t-86.5 -269t-136 -227.5t-187 -158.5t-229.5 -59zM561 219q75 0 142 79t110 198t67.5 251t24.5 244q0 146 -42.5 225.5
t-121.5 79.5q-76 0 -143.5 -78.5t-111 -196.5t-68.5 -250t-25 -245q0 -144 43.5 -225.5t124.5 -81.5z" />
    <glyph glyph-name="one.tf" horiz-adv-x="1259" 
d="M786 240h279l-41 -240h-993l41 240h426l184 1036h-299l43 240h586z" />
    <glyph glyph-name="two.tf" horiz-adv-x="1259" 
d="M-4 0l31 182l587 531q126 113 176 170q128 145 128 262q0 71 -45.5 111t-127.5 40q-94 0 -164 -66.5t-87 -170.5l-285 47q35 197 187.5 313.5t373.5 116.5q203 0 321.5 -94.5t118.5 -253.5q0 -92 -35 -181.5t-103.5 -175.5t-140.5 -155.5t-175 -155.5l-338 -287l651 7
l-43 -240h-1030z" />
    <glyph glyph-name="three.tf" horiz-adv-x="1259" 
d="M1212 1516l-30 -181l-465 -415q182 -9 287.5 -112t105.5 -269q0 -167 -87 -295.5t-234.5 -196t-331.5 -67.5q-145 0 -264.5 42t-182.5 115l133 197q48 -57 133.5 -86t190.5 -29q144 0 245 79.5t101 199.5q0 94 -68 148t-186 54q-109 0 -207 -55l-63 152l504 479h-517
l43 240h893z" />
    <glyph glyph-name="four.tf" horiz-adv-x="1259" 
d="M586 0l51 293h-664l35 199l905 1024h230l-174 -984h211l-43 -239h-211l-52 -293h-288zM332 524h356l98 525z" />
    <glyph glyph-name="five.tf" horiz-adv-x="1259" 
d="M432 -20q-146 0 -260 36t-184 103l110 198q121 -98 334 -98q163 0 279 88.5t116 220.5q0 91 -56.5 142t-156.5 51q-64 0 -124.5 -23t-102.5 -59l-194 35l251 842h781l-41 -240h-531l-116 -336q89 21 157 21q196 0 315 -104.5t119 -276.5q0 -130 -55.5 -242.5t-150 -190.5
t-222 -122.5t-268.5 -44.5z" />
    <glyph glyph-name="six.tf" horiz-adv-x="1259" 
d="M750 928q174 0 286.5 -102.5t112.5 -270.5q0 -121 -49.5 -228.5t-133 -183t-199 -119.5t-243.5 -44q-211 0 -332.5 104.5t-121.5 282.5q0 260 252 542l536 607h324l-545 -592q70 4 113 4zM565 219q122 0 200.5 89t78.5 210q0 88 -52 139.5t-141 51.5q-121 0 -199.5 -88
t-78.5 -213q0 -88 51 -138.5t141 -50.5z" />
    <glyph glyph-name="seven.tf" horiz-adv-x="1259" 
d="M268 1516h1028l-780 -1516h-309l667 1276h-649z" />
    <glyph glyph-name="eight.tf" horiz-adv-x="1259" 
d="M940 780q88 -46 136 -123t48 -176q0 -112 -47.5 -207t-128 -159t-189 -99.5t-229.5 -35.5q-218 0 -345.5 102.5t-127.5 273.5q0 155 86 268t232 171q-154 93 -154 272q0 137 75 245t201 166t277 58q199 0 315.5 -96t116.5 -258q0 -140 -71.5 -243t-194.5 -159zM743 1296
q-98 0 -164.5 -71.5t-66.5 -167.5q0 -71 45 -112.5t121 -41.5q98 0 164.5 72.5t66.5 167.5q0 72 -43.5 112.5t-122.5 40.5zM557 219q117 0 197 79t80 189q0 83 -53.5 131t-147.5 48q-118 0 -197.5 -80.5t-79.5 -190.5q0 -84 53.5 -130t147.5 -46z" />
    <glyph glyph-name="nine.tf" horiz-adv-x="1259" 
d="M776 1536q211 0 333 -104.5t122 -282.5q0 -261 -252 -543l-537 -606h-323l545 592q-70 -4 -113 -4q-174 0 -286.5 102.5t-112.5 270.5q0 162 83.5 294.5t226.5 206.5t314 74zM457 997q0 -88 51.5 -139t140.5 -51q121 0 200 88t79 213q0 88 -51 138t-142 50
q-122 0 -200 -89t-78 -210z" />
    <glyph glyph-name="zero.tosf" horiz-adv-x="1259" 
d="M528 -20q-204 0 -321 138.5t-117 373.5q0 160 46 310.5t127.5 267.5t204 188t265.5 71q204 0 321 -138t117 -374q0 -159 -46 -309t-127.5 -267.5t-204 -189t-265.5 -71.5zM559 219q71 0 133 57.5t102.5 146t63.5 192t23 198.5q0 130 -45.5 204.5t-128.5 74.5
q-72 0 -135 -57.5t-103 -146t-63 -191.5t-23 -199q0 -131 45.5 -205t130.5 -74z" />
    <glyph glyph-name="one.tosf" horiz-adv-x="1259" 
d="M764 229h307l-41 -229h-993l41 229h407l150 852h-283l41 228h561z" />
    <glyph glyph-name="two.tosf" horiz-adv-x="1259" 
d="M-2 0l33 182l579 412q51 35 79.5 55.5t73.5 59t69.5 69.5t43.5 72.5t19 81.5q0 73 -49.5 116.5t-136.5 43.5q-97 0 -169 -63.5t-89 -162.5l-275 45q35 193 186.5 305.5t372.5 112.5q203 0 322 -95t119 -255q0 -71 -22.5 -136.5t-57 -116.5t-92.5 -105t-110.5 -93.5
t-129.5 -91.5l-309 -207h614l-41 -229h-1030z" />
    <glyph glyph-name="three.tosf" horiz-adv-x="1259" 
d="M1180 1309l-31 -179l-467 -417q180 -9 282.5 -110.5t102.5 -266.5q0 -126 -49 -232t-135.5 -178t-204.5 -111.5t-254 -39.5q-147 0 -266 42.5t-178 114.5l133 197q44 -57 124 -86t179 -29q152 0 259 81t107 202q0 93 -70 145t-194 52q-96 0 -199 -54l-61 150l512 491
h-524l41 228h893z" />
    <glyph glyph-name="four.tosf" horiz-adv-x="1259" 
d="M565 -225l39 225h-674l31 180l934 1129h219l-190 -1080h211l-41 -229h-211l-39 -225h-279zM297 221h354l113 567z" />
    <glyph glyph-name="five.tosf" horiz-adv-x="1259" 
d="M397 -225q-146 0 -260 36t-184 103l110 199q122 -99 336 -99q164 0 280 89.5t116 222.5q0 88 -55.5 139t-153.5 51q-66 0 -128 -23t-106 -59l-194 35l252 840h780l-41 -228h-543l-117 -346q93 19 175 19q190 0 304.5 -103t114.5 -274q0 -130 -54.5 -243t-147 -191
t-218.5 -123t-266 -45z" />
    <glyph glyph-name="six.tosf" horiz-adv-x="1259" 
d="M745 928q181 0 285.5 -98t104.5 -265q0 -166 -81.5 -300.5t-222.5 -209.5t-311 -75q-206 0 -325 103.5t-119 281.5q0 257 233 516l559 635h316l-547 -592q70 4 108 4zM561 219q122 0 200.5 89t78.5 210q0 88 -52 139.5t-141 51.5q-121 0 -199.5 -88t-78.5 -213
q0 -88 51 -138.5t141 -50.5z" />
    <glyph glyph-name="seven.tosf" horiz-adv-x="1259" 
d="M236 1309h1028l-789 -1534l-260 71l631 1235h-649z" />
    <glyph glyph-name="eight.tosf" horiz-adv-x="1259" 
d="M934 782q88 -46 135 -123t47 -176q0 -147 -79.5 -263t-213 -178t-295.5 -62q-214 0 -339.5 102.5t-125.5 275.5q0 151 86 265.5t230 171.5q-148 93 -148 270q0 137 73 245.5t196 167t272 58.5q196 0 311 -96t115 -256q0 -137 -70.5 -241t-193.5 -161zM743 1296
q-99 0 -165 -72t-66 -169q0 -71 44 -111.5t120 -40.5q100 0 166.5 72.5t66.5 167.5q0 72 -44 112.5t-122 40.5zM557 219q119 0 198 78t79 190q0 83 -53.5 131t-147.5 48q-118 0 -197.5 -80t-79.5 -191q0 -84 53.5 -130t147.5 -46z" />
    <glyph glyph-name="nine.tosf" horiz-adv-x="1259" 
d="M741 1329q205 0 326 -103t121 -278q0 -255 -234 -522l-579 -651l-250 71l502 547q-62 -10 -113 -10q-181 0 -285 97.5t-104 264.5q0 166 81.5 300t222.5 209t312 75zM418 795q0 -88 52 -140.5t142 -52.5q121 0 200 90t79 211q0 87 -52 138t-141 51q-122 0 -201 -86.5
t-79 -210.5z" />
    <glyph glyph-name="zero.dnom" horiz-adv-x="806" 
d="M309 -12q-133 0 -209.5 95t-76.5 257q0 148 53 280t154 217t225 85q134 0 209 -94.5t75 -254.5q0 -111 -31.5 -216.5t-86.5 -187.5t-136.5 -131.5t-175.5 -49.5zM334 135q65 0 117.5 70.5t79 168.5t26.5 193q0 96 -32.5 151.5t-92.5 55.5q-65 0 -118.5 -70.5t-81 -168.5
t-27.5 -193q0 -96 33.5 -151.5t95.5 -55.5z" />
    <glyph glyph-name="one.dnom" horiz-adv-x="471" 
d="M63 0l134 762h-138l25 147h322l-162 -909h-181z" />
    <glyph glyph-name="two.dnom" horiz-adv-x="745" 
d="M-57 0l20 113l356 317q39 35 62.5 58.5t53.5 59t44.5 70t14.5 68.5q0 40 -26.5 64t-72.5 24q-55 0 -95.5 -39t-49.5 -100l-178 27q22 120 114 190t226 70q123 0 194.5 -57t71.5 -154q0 -55 -21 -108.5t-62 -104.5t-84.5 -93t-104.5 -92l-199 -168l387 2l-27 -147h-624z
" />
    <glyph glyph-name="three.dnom" horiz-adv-x="729" 
d="M670 909l-21 -110l-272 -244q108 -7 168.5 -69t60.5 -160q0 -153 -111.5 -245.5t-281.5 -92.5q-87 0 -158 25.5t-110 68.5l84 123q58 -70 190 -70q86 0 145.5 47.5t59.5 118.5q0 54 -40 85.5t-110 31.5q-58 0 -122 -33l-39 94l297 283h-306l27 147h539z" />
    <glyph glyph-name="four.dnom" horiz-adv-x="804" 
d="M336 0l31 174h-420l20 123l568 612h141l-103 -585h125l-26 -150h-125l-31 -174h-180zM180 317h217l52 289z" />
    <glyph glyph-name="five.dnom" horiz-adv-x="741" 
d="M205 -12q-181 0 -268 84l69 123q72 -60 199 -60q95 0 165 53.5t70 130.5q0 51 -33 81t-90 30q-85 0 -137 -49l-121 20l154 508h469l-25 -147h-315l-68 -195q50 13 91 13q118 0 189 -63t71 -167q0 -158 -122.5 -260t-297.5 -102z" />
    <glyph glyph-name="six.dnom" horiz-adv-x="743" 
d="M401 557q103 0 170.5 -62t67.5 -163q0 -148 -109.5 -246t-267.5 -98q-127 0 -200.5 62.5t-73.5 168.5q0 157 155 334l316 356h203l-326 -354q20 2 65 2zM289 135q70 0 117 52.5t47 123.5q0 51 -30 80t-83 29q-70 0 -117 -50.5t-47 -123.5q0 -51 30.5 -81t82.5 -30z" />
    <glyph glyph-name="seven.dnom" horiz-adv-x="667" 
d="M74 909h620l-469 -909h-192l399 762h-385z" />
    <glyph glyph-name="eight.dnom" horiz-adv-x="770" 
d="M530 469q107 -58 107 -180q0 -135 -103 -218t-253 -83q-133 0 -210 62t-77 167q0 92 50 158.5t136 101.5q-88 59 -88 162q0 125 96.5 204t237.5 79q119 0 189.5 -59t70.5 -156q0 -82 -42 -143t-114 -95zM410 774q-60 0 -99 -42.5t-39 -98.5q0 -41 25.5 -64.5t69.5 -23.5
q58 0 96.5 41.5t38.5 97.5q0 40 -25 65t-67 25zM295 135q69 0 115.5 47t46.5 113q0 46 -31 74t-84 28q-69 0 -115.5 -46.5t-46.5 -112.5q0 -46 31 -74.5t84 -28.5z" />
    <glyph glyph-name="nine.dnom" horiz-adv-x="743" 
d="M420 922q127 0 200.5 -63t73.5 -169q0 -157 -155 -334l-316 -356h-203l326 354q-20 -2 -65 -2q-103 0 -170.5 62.5t-67.5 163.5q0 148 109.5 246t267.5 98zM229 598q0 -51 30 -80t83 -29q70 0 117 51t47 124q0 51 -30.5 80.5t-82.5 29.5q-70 0 -117 -52.5t-47 -123.5z
" />
    <glyph glyph-name="zero.numr" horiz-adv-x="806" 
d="M416 594q-133 0 -210 95t-77 257q0 148 53 280t154 217t225 85q134 0 209.5 -94t75.5 -254q0 -150 -52.5 -283t-153 -218t-224.5 -85zM440 741q65 0 118 71t79.5 169t26.5 193q0 96 -32.5 151t-92.5 55q-65 0 -119 -70.5t-81.5 -168.5t-27.5 -193q0 -96 33.5 -151.5
t95.5 -55.5z" />
    <glyph glyph-name="one.numr" horiz-adv-x="471" 
d="M170 606l133 762h-137l24 148h322l-162 -910h-180z" />
    <glyph glyph-name="two.numr" horiz-adv-x="745" 
d="M49 606l21 113l356 317q39 35 62.5 58.5t53 59t44 70t14.5 68.5q0 40 -26.5 64t-71.5 24q-55 0 -96 -39.5t-50 -99.5l-178 27q22 120 114 190t226 70q123 0 194.5 -57t71.5 -154q0 -55 -21 -108t-62 -104t-84.5 -93t-104.5 -92l-199 -168l387 2l-26 -148h-625z" />
    <glyph glyph-name="three.numr" horiz-adv-x="729" 
d="M776 1516l-20 -111l-273 -244q108 -7 169 -69t61 -160q0 -153 -111.5 -245.5t-282.5 -92.5q-87 0 -158 25.5t-110 68.5l84 123q58 -70 191 -70q86 0 145 47.5t59 118.5q0 54 -39.5 85.5t-109.5 31.5q-59 0 -123 -33l-39 94l297 283h-305l27 148h538z" />
    <glyph glyph-name="four.numr" horiz-adv-x="804" 
d="M442 606l31 174h-420l21 123l567 613h141l-102 -586h125l-27 -150h-125l-30 -174h-181zM287 924h217l51 288z" />
    <glyph glyph-name="five.numr" horiz-adv-x="741" 
d="M311 594q-181 0 -268 84l70 123q72 -60 198 -60q95 0 165.5 54t70.5 131q0 51 -33 80.5t-90 29.5q-85 0 -137 -49l-121 21l153 508h469l-24 -148h-315l-68 -194q47 12 90 12q118 0 189 -63t71 -167q0 -158 -122.5 -260t-297.5 -102z" />
    <glyph glyph-name="six.numr" horiz-adv-x="743" 
d="M508 1163q103 0 170 -62t67 -163q0 -148 -109 -246t-267 -98q-127 0 -201 62.5t-74 168.5q0 156 156 334l315 357h203l-326 -355q20 2 66 2zM395 741q70 0 117 53t47 124q0 51 -30 79.5t-83 28.5q-70 0 -116.5 -50.5t-46.5 -123.5q0 -51 30 -81t82 -30z" />
    <glyph glyph-name="seven.numr" horiz-adv-x="667" 
d="M180 1516h621l-469 -910h-193l400 762h-385z" />
    <glyph glyph-name="eight.numr" horiz-adv-x="770" 
d="M637 1075q106 -58 106 -180q0 -135 -103 -218t-253 -83q-133 0 -210 62t-77 167q0 92 50 158.5t137 101.5q-88 59 -88 162q0 125 96 204t237 79q119 0 190 -59t71 -156q0 -82 -42 -143t-114 -95zM516 1380q-59 0 -98 -42.5t-39 -98.5q0 -41 25 -64.5t69 -23.5
q58 0 96.5 41.5t38.5 97.5q0 40 -25 65t-67 25zM401 741q69 0 115.5 47t46.5 113q0 46 -30.5 74.5t-83.5 28.5q-69 0 -115.5 -47t-46.5 -113q0 -46 30.5 -74.5t83.5 -28.5z" />
    <glyph glyph-name="nine.numr" horiz-adv-x="743" 
d="M526 1528q127 0 201 -63t74 -169q0 -155 -156 -333l-315 -357h-203l326 355q-30 -3 -66 -3q-103 0 -170 62.5t-67 163.5q0 148 109 246t267 98zM336 1204q0 -51 30 -79.5t83 -28.5q70 0 116.5 50.5t46.5 123.5q0 51 -30 80.5t-82 29.5q-70 0 -117 -52.5t-47 -123.5z" />
    <glyph glyph-name="exclamdown.case" horiz-adv-x="612" 
d="M446 1536q69 0 111.5 -42t42.5 -108q0 -77 -51.5 -129.5t-128.5 -52.5q-68 0 -110 42t-42 108q0 77 50.5 129.5t127.5 52.5zM502 1071l-164 -1071h-291l215 1071h240z" />
    <glyph glyph-name="questiondown.case" horiz-adv-x="1130" 
d="M721 1536q69 0 111 -42t42 -108q0 -77 -51.5 -129.5t-128.5 -52.5q-68 0 -109.5 41.5t-41.5 108.5q0 77 50.5 129.5t127.5 52.5zM539 1081l233 -20q-18 -103 -48 -180.5t-73 -132.5t-78 -86.5t-90 -71.5q-76 -55 -116.5 -108t-40.5 -120q0 -69 47 -106t133 -37
q92 0 160 53t90 140l260 -33q-39 -183 -186 -291t-351 -108q-207 0 -328.5 96t-121.5 254q0 90 30 159t77.5 116t131.5 106q49 35 72 53t63 55.5t61.5 70t43 83t31.5 108.5z" />
    <glyph glyph-name="slash.case" horiz-adv-x="862" 
d="M-31 0l680 1516h285l-680 -1516h-285z" />
    <glyph glyph-name="braceleft.case" horiz-adv-x="892" 
d="M463 -102q-138 0 -218.5 74.5t-80.5 195.5q0 34 6 68l41 225q4 25 4 63q0 115 -119 115h-22l43 238h16q68 0 117.5 46.5t62.5 127.5l37 249q23 149 126 233.5t251 84.5q121 0 244 -29l-41 -225q-49 14 -111 14q-81 0 -132.5 -45.5t-63.5 -136.5l-31 -199
q-13 -92 -71 -156.5t-146 -86.5q65 -17 99 -71t34 -128q0 -11 -4 -61l-33 -195q-6 -21 -6 -45q0 -56 30.5 -86.5t84.5 -30.5q78 0 143 15l-39 -230q-108 -24 -221 -24z" />
    <glyph glyph-name="braceright.case" horiz-adv-x="890" 
d="M469 1618q138 0 218.5 -74.5t80.5 -195.5q0 -34 -6 -68l-41 -225q-4 -25 -4 -64q0 -114 119 -114h22l-43 -238h-16q-68 0 -118 -46.5t-63 -127.5l-36 -250q-23 -149 -126 -233t-251 -84q-125 0 -244 28l41 226q52 -15 111 -15q81 0 132.5 45.5t63.5 136.5l31 199
q13 92 71 157t146 87q-65 17 -99 71t-34 128q0 11 4 61l33 195q6 21 6 45q0 56 -30 86t-85 30q-83 0 -143 -14l39 229q112 25 221 25z" />
    <glyph glyph-name="bracketleft.case" horiz-adv-x="837" 
d="M47 -82l297 1679h578l-41 -239h-289l-215 -1200h289l-41 -240h-578z" />
    <glyph glyph-name="bracketright.case" horiz-adv-x="837" 
d="M829 1597l-297 -1679h-577l41 240h289l215 1200h-289l41 239h577z" />
    <glyph glyph-name="parenleft.case" horiz-adv-x="716" 
d="M279 -82q-181 308 -181 635q0 550 465 1044h264q-192 -217 -318 -508t-126 -563q0 -178 43.5 -343t99.5 -265h-247z" />
    <glyph glyph-name="parenright.case" horiz-adv-x="716" 
d="M-74 -82q192 217 319.5 508.5t127.5 562.5q0 177 -43.5 340t-98.5 268h246q180 -306 180 -632q0 -556 -462 -1047h-269z" />
    <glyph glyph-name="logo" horiz-adv-x="2609" 
d="M156 -20q-15 0 -25 10.5t-10 25.5q0 21 10 31l700 698h-663q-47 0 -47 39q0 16 14 33l696 701h-669q-41 0 -41 38v3q0 38 41 38h758q47 0 47 -41q0 -20 -17 -34l-698 -697h676q17 0 29 -12t12 -29v-669l694 692q13 16 35 16q37 0 37 -45v-663l696 692q13 16 33 16
q15 0 25 -12t10 -27q0 -18 -13 -28l-753 -762q-14 -14 -35 -14q-41 0 -41 47v663l-694 -696q-14 -14 -35 -14q-41 0 -41 47v663l-697 -696q-14 -14 -34 -14z" />
    </font>
</defs>
</svg>
