<?xml version="1.0" standalone="no"?>
<!DOCTYPE svg PUBLIC "-//W3C//DTD SVG 1.1//EN" "http://www.w3.org/Graphics/SVG/1.1/DTD/svg11.dtd" >
<svg xmlns="http://www.w3.org/2000/svg" xmlns:xlink="http://www.w3.org/1999/xlink" version="1.1">
<metadata>
Created by FontForge 20170731 at Thu Dec  2 10:15:20 2021
 By Aleksey,,,
Copyright (c) 2016 by Alberto Romanos. All rights reserved.
</metadata>
<defs>
<font id="BwModelicaSS02-ThinItalic" horiz-adv-x="0" >
  <font-face 
    font-family="Bw Modelica SS02 Thin"
    font-weight="300"
    font-style="italic"
    font-stretch="normal"
    units-per-em="2048"
    panose-1="0 0 4 0 0 0 0 0 0 0"
    ascent="1597"
    descent="-451"
    x-height="1069"
    cap-height="1516"
    bbox="-1731 -473 2587 2089"
    underline-thickness="102"
    underline-position="-307"
    slope="-10"
    unicode-range="U+000D-FB02"
  />
<missing-glyph horiz-adv-x="2609" 
d="M244 -20q-15 0 -25 10.5t-10 25.5q0 21 10 31l701 698h-664q-47 0 -47 39q0 16 14 33l697 701h-670q-41 0 -41 38v3q0 38 41 38h758q47 0 47 -41q0 -20 -17 -34l-698 -697h676q17 0 29 -12t12 -29v-669l694 692q13 16 35 16q37 0 37 -45v-663l696 692q13 16 33 16
q15 0 25 -12t10 -27q0 -18 -13 -28l-753 -762q-14 -14 -35 -14q-41 0 -41 47v663l-694 -696q-14 -14 -35 -14q-41 0 -41 47v663l-696 -696q-14 -14 -35 -14z" />
    <glyph glyph-name="fi" unicode="fi" horiz-adv-x="1163" 
d="M449 1544l-84 -475h417l-10 -53h-418l-180 -1016h-61l180 1016h-193l9 53h192l94 528h490l-11 -53h-425zM1092 1516q22 0 36.5 -15.5t14.5 -38.5q0 -26 -18.5 -42.5t-43.5 -16.5q-22 0 -35.5 15t-13.5 38q0 26 18 43t42 17zM801 0l188 1069h62l-189 -1069h-61z" />
    <glyph glyph-name="fl" unicode="fl" horiz-adv-x="1218" 
d="M449 1544l-84 -475h417l-10 -53h-418l-180 -1016h-61l180 1016h-193l9 53h192l94 528h490l-11 -53h-425zM1149 1597l-275 -1544h244l-10 -53h-303l282 1597h62z" />
    <glyph glyph-name=".notdef" horiz-adv-x="2609" 
d="M244 -20q-15 0 -25 10.5t-10 25.5q0 21 10 31l701 698h-664q-47 0 -47 39q0 16 14 33l697 701h-670q-41 0 -41 38v3q0 38 41 38h758q47 0 47 -41q0 -20 -17 -34l-698 -697h676q17 0 29 -12t12 -29v-669l694 692q13 16 35 16q37 0 37 -45v-663l696 692q13 16 33 16
q15 0 25 -12t10 -27q0 -18 -13 -28l-753 -762q-14 -14 -35 -14q-41 0 -41 47v663l-694 -696q-14 -14 -35 -14q-41 0 -41 47v663l-696 -696q-14 -14 -35 -14z" />
    <glyph glyph-name=".null" 
 />
    <glyph glyph-name="nonmarkingreturn" horiz-adv-x="682" 
 />
    <glyph glyph-name="CR" unicode="&#xd;" horiz-adv-x="487" 
 />
    <glyph glyph-name="space" unicode=" " horiz-adv-x="567" 
 />
    <glyph glyph-name="exclam" unicode="!" horiz-adv-x="487" 
d="M147 264l215 1252h70l-227 -1252h-58zM131 -20q-22 0 -36.5 14.5t-14.5 36.5q0 27 17.5 43t43.5 16q22 0 35.5 -14.5t13.5 -36.5q0 -26 -17.5 -42.5t-41.5 -16.5z" />
    <glyph glyph-name="quotedbl" unicode="&#x22;" horiz-adv-x="598" 
d="M242 1155l73 442h66l-80 -442h-59zM475 1155l76 442h63l-79 -442h-60z" />
    <glyph glyph-name="numbersign" unicode="#" horiz-adv-x="1329" 
d="M1290 934h-250l-180 -440h252l-20 -52h-252l-181 -442h-57l180 442h-436l-180 -442h-57l180 442h-248l22 52h246l180 440h-249l22 51h250l182 449h58l-183 -449h437l182 449h57l-182 -449h248zM803 494l180 440h-436l-180 -440h436z" />
    <glyph glyph-name="dollar" unicode="$" horiz-adv-x="1241" 
d="M823 1536q266 -8 391 -176l-45 -45q-119 155 -356 164l-119 -680l8 -2q65 -21 112 -38.5t105.5 -50t95 -68t62 -89t25.5 -117.5q0 -130 -74.5 -232t-199.5 -158.5t-279 -63.5l-29 -164h-67l28 164q-137 5 -245.5 47.5t-163.5 122.5l41 47q124 -157 379 -160l124 713
l-71 24q-66 20 -116.5 44.5t-97 60.5t-71 88.5t-24.5 117.5q0 190 148 314.5t372 136.5l28 164h68zM588 834l41 -15l116 658q-190 -12 -313 -119t-123 -262q0 -56 21.5 -99.5t64 -74t86.5 -50t107 -38.5zM1030 424q0 109 -89 178.5t-259 126.5l-123 -690q202 14 336.5 120.5
t134.5 264.5z" />
    <glyph glyph-name="percent" unicode="%" horiz-adv-x="1447" 
d="M184 -20l-39 30l1166 1526l41 -31zM434 872q-121 0 -191.5 71.5t-70.5 191.5q0 168 105 284.5t266 116.5q122 0 192 -70.5t70 -191.5q0 -167 -105.5 -284.5t-265.5 -117.5zM438 922q131 0 218 105t87 249q0 99 -53.5 155t-148.5 56q-90 0 -161.5 -50.5t-109 -130.5
t-37.5 -171q0 -99 54.5 -156t150.5 -57zM946 -20q-121 0 -191.5 71t-70.5 191q0 168 105.5 284.5t267.5 116.5q121 0 190.5 -70.5t69.5 -191.5q0 -168 -105 -284.5t-266 -116.5zM950 29q131 0 218 104.5t87 247.5q0 99 -53.5 156t-148.5 57q-135 0 -221.5 -106t-86.5 -248
q0 -97 54.5 -154t150.5 -57z" />
    <glyph glyph-name="ampersand" unicode="&#x26;" horiz-adv-x="1587" 
d="M1067 786l-92 -518q-6 -35 -6 -63q0 -80 48 -125t134 -45q127 0 240 41l-5 -56q-97 -40 -258 -40q-102 0 -160.5 56t-60.5 152q-69 -104 -189.5 -156t-260.5 -52q-179 0 -283 92t-104 247q0 191 121.5 324.5t316.5 171.5q-106 31 -164.5 106.5t-58.5 182.5
q0 191 141.5 311.5t349.5 120.5q168 0 266.5 -82t98.5 -219q0 -33 -6 -70l-56 -325h432l-8 -54h-436zM348 1096q0 -118 81.5 -187t225.5 -69h363l55 323q6 35 6 62q0 119 -82.5 188.5t-224.5 69.5q-181 0 -302.5 -112t-121.5 -275zM926 342l80 444h-357q-143 0 -260 -58
t-184.5 -162t-67.5 -234q0 -137 90.5 -217t249.5 -80q103 0 197 34t164.5 105.5t87.5 167.5z" />
    <glyph glyph-name="quotesingle" unicode="'" horiz-adv-x="362" 
d="M242 1155l73 442h66l-80 -442h-59z" />
    <glyph glyph-name="parenleft" unicode="(" horiz-adv-x="538" 
d="M244 -369q-156 329 -156 701q0 341 134 661t366 604h57q-113 -149 -197.5 -290.5t-153 -302.5t-104.5 -337t-36 -362q0 -53 3 -105t10.5 -101.5t13.5 -89t18.5 -85.5t19.5 -73t22 -69.5t20 -56.5t20 -53t16 -41h-53z" />
    <glyph glyph-name="parenright" unicode=")" horiz-adv-x="536" 
d="M-115 -369q113 153 195.5 292.5t152 301t105 338t35.5 363.5q0 94 -12 188.5t-24 155t-38 140.5t-34.5 102.5t-33.5 84.5h56q153 -338 153 -700q0 -342 -134.5 -664.5t-366.5 -601.5h-54z" />
    <glyph glyph-name="asterisk" unicode="*" horiz-adv-x="788" 
d="M772 1298l-240 -67l111 -191l-51 -34l-105 194l-168 -194l-43 34l177 191l-217 67l28 58l213 -80l37 240h59l-49 -242l240 82z" />
    <glyph glyph-name="plus" unicode="+" horiz-adv-x="1040" 
d="M946 733l-8 -53h-381l-65 -375h-62l66 375h-383l10 53h383l65 373h62l-66 -373h379z" />
    <glyph glyph-name="comma" unicode="," horiz-adv-x="393" 
d="M-127 -297l211 399h80l-225 -399h-66z" />
    <glyph glyph-name="hyphen" unicode="-" horiz-adv-x="833" 
d="M141 559l9 51h520l-8 -51h-521z" />
    <glyph glyph-name="period" unicode="." horiz-adv-x="397" 
d="M96 -20q-26 0 -41.5 17t-15.5 42q0 28 21.5 49t50.5 21q26 0 41.5 -17.5t15.5 -42.5q0 -29 -22 -49t-50 -20z" />
    <glyph glyph-name="slash" unicode="/" horiz-adv-x="755" 
d="M-47 -205l807 1802h63l-807 -1802h-63z" />
    <glyph glyph-name="zero" unicode="0" horiz-adv-x="1245" 
d="M520 -20q-186 0 -290.5 146t-104.5 398q0 182 47.5 361.5t131 324.5t210 235.5t272.5 90.5q186 0 292 -147.5t106 -399.5q0 -144 -29.5 -289t-88 -274t-137 -229t-185 -158.5t-224.5 -58.5zM526 37q105 0 199.5 58t164 155t121 220.5t77.5 258t26 264.5
q0 225 -87.5 355.5t-244.5 130.5q-88 0 -169 -40.5t-144.5 -111t-116.5 -164t-87 -200t-53 -219t-19 -220.5q0 -227 87.5 -357t245.5 -130z" />
    <glyph glyph-name="one" unicode="1" horiz-adv-x="618" 
d="M213 0l258 1458h-305l10 58h373l-268 -1516h-68z" />
    <glyph glyph-name="two" unicode="2" horiz-adv-x="1110" 
d="M-12 0l8 45l541 490q165 148 210 192q210 209 253 389q12 52 12 103q0 121 -82.5 190.5t-227.5 69.5q-167 0 -285.5 -97t-146.5 -254l-69 11q32 180 170 288.5t336 108.5q174 0 275 -84t101 -231q0 -48 -11.5 -97.5t-27.5 -92.5t-46.5 -91.5t-56 -85t-69 -84.5t-72 -77.5
t-79 -76t-76.5 -69t-76 -66.5l-473 -424h809l-10 -57h-907z" />
    <glyph glyph-name="three" unicode="3" horiz-adv-x="1126" 
d="M1135 1516l-9 -46l-712 -643q80 17 153 17q193 0 304.5 -95t111.5 -255q0 -149 -78.5 -267.5t-211 -182.5t-292.5 -64q-142 0 -244 47.5t-149 138.5l37 47q96 -176 356 -176q216 0 363 130t147 325q0 136 -99 215t-271 79q-145 0 -260 -53l-15 37l760 688h-741l10 58h840
z" />
    <glyph glyph-name="four" unicode="4" horiz-adv-x="1200" 
d="M717 0l63 350h-782l10 60l983 1106h62l-197 -1106h244l-10 -60h-242l-64 -350h-67zM86 408h705l178 999z" />
    <glyph glyph-name="five" unicode="5" horiz-adv-x="1138" 
d="M403 -20q-279 0 -401 149l29 47q116 -139 372 -139q224 0 375.5 138t151.5 343q0 140 -91.5 223.5t-250.5 83.5q-149 0 -330 -51l-51 8l235 734h678l-12 -58h-612l-205 -618q164 45 315 45q184 0 291 -98.5t107 -262.5q0 -158 -81 -283.5t-217.5 -193t-302.5 -67.5z" />
    <glyph glyph-name="six" unicode="6" horiz-adv-x="1114" 
d="M625 909q178 0 281.5 -98t103.5 -266q0 -116 -43 -220.5t-116.5 -180t-178 -120t-221.5 -44.5q-184 0 -289 98.5t-105 267.5q0 104 39.5 207t108.5 184l653 779h80l-571 -672q118 65 258 65zM461 37q136 0 245.5 68t169.5 181.5t60 248.5q0 147 -88.5 232t-241.5 85
q-136 0 -245.5 -68t-169.5 -181.5t-60 -248.5q0 -147 87.5 -232t242.5 -85z" />
    <glyph glyph-name="seven" unicode="7" horiz-adv-x="991" 
d="M180 1516h920l-830 -1516h-75l800 1458h-825z" />
    <glyph glyph-name="eight" unicode="8" horiz-adv-x="1187" 
d="M774 784q118 -32 184 -115t66 -200q0 -141 -72.5 -253.5t-197 -174t-275.5 -61.5q-186 0 -293.5 91t-107.5 246q0 176 107.5 301.5t279.5 167.5q-102 34 -157.5 110t-55.5 181q0 201 143 330t353 129q169 0 267.5 -86t98.5 -229q0 -160 -94 -277.5t-246 -159.5zM324 1073
q0 -121 79.5 -190.5t219.5 -69.5q180 0 299.5 117t119.5 287q0 121 -80 191.5t-219 70.5q-179 0 -299 -117.5t-120 -288.5zM485 37q198 0 331.5 124t133.5 310q0 130 -89.5 207.5t-244.5 77.5q-198 0 -333.5 -125t-135.5 -309q0 -131 91 -208t247 -77z" />
    <glyph glyph-name="nine" unicode="9" horiz-adv-x="1114" 
d="M705 1536q184 0 288.5 -98.5t104.5 -268.5q0 -104 -39.5 -207t-108.5 -184l-653 -778h-80l571 674q-120 -68 -256 -68q-180 0 -283.5 99t-103.5 268q0 155 73 284t201.5 204t285.5 75zM549 664q136 0 245.5 68t169.5 182t60 249q0 146 -88 231t-242 85q-136 0 -245 -68
t-168.5 -181.5t-59.5 -248.5q0 -147 87.5 -232t240.5 -85z" />
    <glyph glyph-name="colon" unicode=":" horiz-adv-x="440" 
d="M281 961q-26 0 -42 17t-16 42q0 28 22 49t50 21q26 0 41.5 -17.5t15.5 -42.5q0 -29 -21 -49t-50 -20zM109 -20q-26 0 -42 17t-16 42q0 28 21.5 49t50.5 21q26 0 41.5 -17.5t15.5 -42.5q0 -29 -21.5 -49t-49.5 -20z" />
    <glyph glyph-name="semicolon" unicode=";" horiz-adv-x="555" 
d="M348 961q-25 0 -41 17t-16 42q0 28 21.5 49t49.5 21q26 0 42 -17.5t16 -42.5q0 -29 -21 -49t-51 -20zM-33 -297l211 399h80l-225 -399h-66z" />
    <glyph glyph-name="less" unicode="&#x3c;" horiz-adv-x="1009" 
d="M795 279l-711 421l6 33l860 422l-12 -61l-762 -379l631 -375z" />
    <glyph glyph-name="equal" unicode="=" horiz-adv-x="1159" 
d="M213 924l8 53h826l-9 -53h-825zM127 434l10 53h824l-9 -53h-825z" />
    <glyph glyph-name="greater" unicode="&#x3e;" horiz-adv-x="1005" 
d="M82 279l12 61l768 377l-637 377l13 61l710 -422l-8 -33z" />
    <glyph glyph-name="question" unicode="?" horiz-adv-x="1034" 
d="M453 262l-56 6q20 114 53 206.5t65 150t80.5 111t80 78.5t84.5 63q55 41 88.5 71.5t64.5 71.5t44.5 89.5t13.5 109.5q0 121 -83 190.5t-231 69.5q-160 0 -277.5 -91t-148.5 -237l-65 8q37 170 173 273.5t323 103.5q176 0 279 -84.5t103 -226.5q0 -69 -16 -125t-51 -103
t-73.5 -82.5t-98.5 -80.5q-47 -35 -70.5 -54.5t-66 -58.5t-68.5 -78t-57 -95t-53 -127.5t-37 -158.5zM379 -20q-22 0 -35.5 14.5t-13.5 36.5q0 27 17.5 43t41.5 16q22 0 36.5 -14.5t14.5 -36.5q0 -26 -18 -42.5t-43 -16.5z" />
    <glyph glyph-name="at" unicode="@" horiz-adv-x="2119" 
d="M1233 1542q357 0 567.5 -194.5t210.5 -522.5q0 -131 -32.5 -261t-90.5 -236t-147 -172t-193 -66q-97 0 -151 58.5t-54 156.5q0 16 3 31q-63 -115 -169 -182.5t-247 -67.5q-165 0 -258.5 93.5t-93.5 252.5q0 148 62.5 271.5t178 197.5t260.5 74q137 0 220.5 -66
t107.5 -182l6 33l35 198h61l-102 -583q-6 -37 -6 -66q0 -77 39 -120.5t110 -43.5q72 0 136 41.5t110.5 111t81 157.5t51.5 183t17 185q0 305 -193.5 484.5t-523.5 179.5q-240 0 -441 -84.5t-341.5 -236t-218.5 -368.5t-78 -476q0 -333 203 -536.5t536 -203.5q121 0 280 22
t285 60l21 -49q-130 -39 -292 -62.5t-292 -23.5q-241 0 -424.5 98t-283 277.5t-99.5 414.5q0 272 83 500t232.5 387t363.5 247.5t470 88.5zM942 139q162 0 280.5 108.5t149.5 282.5l2 15q6 40 6 76q0 139 -78.5 220t-218.5 81q-126 0 -228 -68.5t-157 -179.5t-55 -238
q0 -137 80 -217t219 -80z" />
    <glyph glyph-name="A" unicode="A" horiz-adv-x="1439" 
d="M1243 0l-121 459h-866l-285 -459h-75l946 1516h65l410 -1516h-74zM291 516h815l-244 922z" />
    <glyph glyph-name="B" unicode="B" horiz-adv-x="1366" 
d="M918 786q140 -20 218 -101.5t78 -207.5q0 -138 -72 -248t-194 -169.5t-270 -59.5h-565l268 1516h506q182 0 286.5 -84t104.5 -226q0 -162 -98 -270.5t-262 -149.5zM438 1458l-114 -651h426q194 0 325 111t131 280q0 119 -94 189.5t-256 70.5h-418zM668 57q132 0 240 53.5
t170.5 148.5t62.5 212q0 128 -93 203.5t-255 75.5h-480l-123 -693h478z" />
    <glyph glyph-name="C" unicode="C" horiz-adv-x="1390" 
d="M737 -20q-284 0 -448 163.5t-164 440.5q0 194 66 368.5t180.5 303.5t280 204.5t354.5 75.5q254 0 417 -147l-10 -64q-151 154 -412 154q-174 0 -326 -73t-256 -195t-164 -284.5t-60 -338.5q0 -253 146.5 -402t401.5 -149q266 0 480 164l-13 -76q-208 -145 -473 -145z" />
    <glyph glyph-name="D" unicode="D" horiz-adv-x="1531" 
d="M838 1516q284 0 447 -161.5t163 -436.5q0 -190 -66 -359.5t-180.5 -292.5t-278 -194.5t-350.5 -71.5h-460l268 1516h457zM561 57q175 0 328 68.5t259 184t167 272t61 329.5q0 252 -150.5 399.5t-414.5 147.5h-373l-248 -1401h371z" />
    <glyph glyph-name="E" unicode="E" horiz-adv-x="1241" 
d="M1241 1458h-803l-114 -653h759l-12 -57h-758l-123 -691h824l-10 -57h-891l268 1516h870z" />
    <glyph glyph-name="F" unicode="F" horiz-adv-x="1099" 
d="M1159 1458h-721l-123 -694h660l-12 -57h-658l-125 -707h-67l268 1516h790z" />
    <glyph glyph-name="G" unicode="G" horiz-adv-x="1605" 
d="M1550 772v-16q-1 -140 -46.5 -264t-124.5 -216.5t-183 -160t-225 -101.5t-248 -34q-278 0 -437 162.5t-159 439.5q0 193 64 367.5t176 304t274.5 206t349.5 76.5q149 0 256.5 -33.5t206.5 -116.5l-49 -45q-159 138 -418 138q-170 0 -319.5 -74t-251.5 -197.5t-160.5 -286
t-58.5 -337.5q0 -252 142.5 -399.5t391.5 -147.5q139 0 271 48.5t235.5 134.5t169 214.5t72.5 278.5h-549l12 59h608z" />
    <glyph glyph-name="H" unicode="H" horiz-adv-x="1605" 
d="M1466 1516h70l-268 -1516h-70l131 739h-1018l-131 -739h-67l268 1516h68l-127 -719h1017z" />
    <glyph glyph-name="I" unicode="I" horiz-adv-x="518" 
d="M113 0l268 1516h68l-269 -1516h-67z" />
    <glyph glyph-name="J" unicode="J" horiz-adv-x="815" 
d="M176 -20q-77 0 -144 27.5t-102 74.5l27 43q37 -43 95.5 -65.5t123.5 -22.5q117 0 197.5 75.5t101.5 198.5l215 1205h68l-217 -1227q-25 -142 -122 -225.5t-243 -83.5z" />
    <glyph glyph-name="K" unicode="K" horiz-adv-x="1347" 
d="M1462 1516l-712 -740l458 -776h-82l-440 750h-373l-133 -750h-67l268 1516h68l-125 -709h368l684 709h86z" />
    <glyph glyph-name="L" unicode="L" horiz-adv-x="1050" 
d="M190 57h748l-10 -57h-815l268 1516h68z" />
    <glyph glyph-name="M" unicode="M" horiz-adv-x="2007" 
d="M1833 1534h61l-186 -1534h-68l170 1376l-892 -1376h-56l-403 1382l-318 -1382h-67l352 1534h61l418 -1438z" />
    <glyph glyph-name="N" unicode="N" horiz-adv-x="1681" 
d="M113 0l268 1516h47l870 -1391l246 1391h68l-269 -1516h-45l-872 1391l-246 -1391h-67z" />
    <glyph glyph-name="O" unicode="O" horiz-adv-x="1701" 
d="M737 -20q-284 0 -448 163.5t-164 440.5q0 194 66 368.5t180.5 303.5t280 204.5t354.5 75.5q285 0 448.5 -163.5t163.5 -444.5q0 -192 -66 -365.5t-181 -302t-280.5 -204.5t-353.5 -76zM743 37q173 0 324.5 73.5t256 196t164.5 284.5t60 337q0 253 -146.5 402t-400.5 149
q-174 0 -326 -73t-256 -195t-164 -284.5t-60 -338.5q0 -253 146.5 -402t401.5 -149z" />
    <glyph glyph-name="P" unicode="P" horiz-adv-x="1284" 
d="M887 1516q188 0 296.5 -97.5t108.5 -261.5q0 -148 -72 -270t-198.5 -192t-280.5 -70h-450l-111 -625h-67l268 1516h506zM725 682q211 0 353.5 136.5t142.5 334.5q0 140 -95.5 222.5t-257.5 82.5h-430l-137 -776h424z" />
    <glyph glyph-name="Q" unicode="Q" horiz-adv-x="1705" 
d="M1618 928q0 -201 -71 -381.5t-201 -313.5l245 -233h-86l-202 193q-240 -213 -566 -213q-284 0 -448 163.5t-164 440.5q0 194 66 368.5t180.5 303.5t280 204.5t354.5 75.5q285 0 448.5 -163.5t163.5 -444.5zM743 37q294 0 514 201l-264 251h86l219 -210
q119 127 184.5 295.5t65.5 353.5q0 253 -146.5 402t-400.5 149q-174 0 -326 -73t-256 -195t-164 -284.5t-60 -338.5q0 -253 146.5 -402t401.5 -149z" />
    <glyph glyph-name="R" unicode="R" horiz-adv-x="1386" 
d="M1315 1165q0 -187 -121.5 -321.5t-312.5 -173.5l329 -670h-80l-325 659q-18 -2 -57 -2h-451l-117 -657h-67l268 1516h506q197 0 312.5 -95.5t115.5 -255.5zM745 717q212 0 354 126t142 318q0 137 -100 217t-271 80h-432l-131 -741h438z" />
    <glyph glyph-name="S" unicode="S" horiz-adv-x="1222" 
d="M483 -20q-145 0 -261.5 43t-172.5 127l39 47q125 -160 393 -160q144 0 263.5 48.5t190.5 137.5t71 201q0 60 -27 108t-81 85.5t-117.5 65t-153.5 56.5l-107 35q-66 20 -116.5 44.5t-97 60.5t-71 88.5t-24.5 117.5q0 132 75.5 236t203 159.5t282.5 55.5q285 0 418 -176
l-45 -45q-126 164 -379 164q-206 0 -343.5 -109.5t-137.5 -273.5q0 -56 21.5 -99.5t63.5 -74t86.5 -50t108.5 -38.5l113 -37q65 -21 112 -39t105 -50t94.5 -67.5t62 -89t25.5 -117.5q0 -136 -81 -240.5t-215 -159t-298 -54.5z" />
    <glyph glyph-name="T" unicode="T" horiz-adv-x="1124" 
d="M1253 1516l-10 -58h-506l-258 -1458h-67l258 1458h-506l10 58h1079z" />
    <glyph glyph-name="U" unicode="U" horiz-adv-x="1601" 
d="M690 -20q-238 0 -377 118t-139 318q0 44 10 106l176 994h68l-176 -996q-8 -47 -8 -96q0 -179 119 -283t329 -104q238 0 408.5 134.5t208.5 352.5l176 992h67l-178 -1000q-43 -243 -230.5 -389.5t-453.5 -146.5z" />
    <glyph glyph-name="V" unicode="V" horiz-adv-x="1443" 
d="M575 0l-409 1516h74l378 -1442l893 1442h76l-946 -1516h-66z" />
    <glyph glyph-name="W" unicode="W" horiz-adv-x="2209" 
d="M465 0l-287 1516h74l262 -1424l711 1424h69l207 -1424l766 1424h74l-821 -1516h-68l-209 1413l-713 -1413h-65z" />
    <glyph glyph-name="X" unicode="X" horiz-adv-x="1251" 
d="M1337 1516l-643 -736l428 -780h-80l-401 729l-655 -729h-78l702 780l-383 736h80l357 -682l596 682h77z" />
    <glyph glyph-name="Y" unicode="Y" horiz-adv-x="1290" 
d="M498 0l114 651l-422 865h80l385 -797l670 797h82l-727 -865l-115 -651h-67z" />
    <glyph glyph-name="Z" unicode="Z" horiz-adv-x="1124" 
d="M1208 1516l-1142 -1459h897l-11 -57h-1005l1140 1458h-872l12 58h981z" />
    <glyph glyph-name="bracketleft" unicode="[" horiz-adv-x="675" 
d="M35 -369l346 1966h414l-9 -53h-352l-328 -1859h353l-10 -54h-414z" />
    <glyph glyph-name="backslash" unicode="\" horiz-adv-x="739" 
d="M434 -205l-172 1802h64l172 -1802h-64z" />
    <glyph glyph-name="bracketright" unicode="]" horiz-adv-x="675" 
d="M633 1597l-346 -1966h-414l8 54h352l328 1859h-352l10 53h414z" />
    <glyph glyph-name="asciicircum" unicode="^" horiz-adv-x="890" 
d="M788 680h-67l-170 526l-350 -526h-74l401 594h68z" />
    <glyph glyph-name="underscore" unicode="_" horiz-adv-x="989" 
d="M-70 -51l9 51h886l-8 -51h-887z" />
    <glyph glyph-name="grave" unicode="`" horiz-adv-x="1228" 
d="M424 1270l-234 291h86l207 -291h-59z" />
    <glyph glyph-name="a" unicode="a" horiz-adv-x="1112" 
d="M223 1069h781l-189 -1069h-61l39 225l10 60q-75 -142 -210.5 -223.5t-287.5 -81.5q-136 0 -214.5 66t-78.5 179q0 85 39 155.5t105 116t152.5 70.5t183.5 25q197 0 358 -47l84 471h-719zM324 31q101 0 205 49.5t191 152.5t116 238l6 25q-151 45 -344 45
q-115 0 -210.5 -37t-153.5 -109t-58 -166q0 -93 65.5 -145.5t182.5 -52.5z" />
    <glyph glyph-name="b" unicode="b" horiz-adv-x="1341" 
d="M799 1090q198 0 313 -118t115 -317q0 -137 -47 -261t-128 -215t-197 -145t-247 -54q-186 0 -292 87t-130 236l-10 -59l-43 -244h-61l282 1597h62l-146 -823q75 146 209.5 231t319.5 85zM600 35q161 0 291 86t200 227t70 305q0 175 -102 278t-283 103q-205 0 -357 -139
t-192 -363l-4 -20q-6 -50 -6 -96q0 -176 102 -278.5t281 -102.5z" />
    <glyph glyph-name="c" unicode="c" horiz-adv-x="972" 
d="M506 -20q-198 0 -312 117t-114 315q0 182 77.5 336.5t220 248t318.5 93.5q138 0 240 -95l-8 -59q-91 98 -238 98q-119 0 -222 -52t-173 -138t-110 -199t-40 -233q0 -174 98 -275.5t269 -101.5q147 0 274 100l-10 -67q-124 -88 -270 -88z" />
    <glyph glyph-name="d" unicode="d" horiz-adv-x="1339" 
d="M1264 1597h61l-283 -1597h-59l43 244l8 49q-77 -146 -210.5 -229.5t-315.5 -83.5q-198 0 -313 117t-115 315q0 183 78.5 338t221 247.5t318.5 92.5q183 0 288.5 -86t131.5 -232zM528 35q207 0 358 138.5t191 363.5l2 16q8 49 8 98q0 178 -101 280.5t-279 102.5
q-122 0 -228.5 -50.5t-179.5 -135.5t-114.5 -197.5t-41.5 -234.5q0 -176 102.5 -278.5t282.5 -102.5z" />
    <glyph glyph-name="e" unicode="e" horiz-adv-x="1173" 
d="M1057 508h-905q-7 -58 -7 -102q0 -172 90.5 -272.5t251.5 -100.5q122 0 237.5 59.5t205.5 161.5l43 -39q-204 -235 -490 -235q-189 0 -296 116t-107 314q0 182 73.5 337t210.5 249t308 94q188 0 295.5 -113.5t107.5 -306.5q0 -83 -18 -162zM668 1036q-98 0 -184.5 -38
t-150.5 -103.5t-108 -151.5t-63 -184h839q11 71 11 111q0 171 -91.5 268.5t-252.5 97.5z" />
    <glyph glyph-name="f" unicode="f" horiz-adv-x="724" 
d="M874 1544h-425l-84 -475h417l-10 -53h-418l-180 -1016h-61l180 1016h-193l9 53h192l94 528h490z" />
    <glyph glyph-name="g" unicode="g" horiz-adv-x="1341" 
d="M1176 1069h59l-268 -1520h-1014l10 54h955l118 690q-75 -145 -209 -229t-317 -84q-198 0 -313 117t-115 315q0 183 78.5 338t221 247.5t318.5 92.5q183 0 288.5 -86t131.5 -232l10 53zM530 35q207 0 358 138.5t191 363.5l2 6q9 65 9 108q0 178 -101.5 280.5t-279.5 102.5
q-122 0 -228.5 -50.5t-179.5 -135.5t-114.5 -197.5t-41.5 -234.5q0 -176 102.5 -278.5t282.5 -102.5z" />
    <glyph glyph-name="h" unicode="h" horiz-adv-x="1275" 
d="M735 1090q179 0 283 -91.5t104 -244.5q0 -22 -8 -80l-119 -674h-61l117 659q6 40 6 76q0 138 -90 218.5t-248 80.5q-180 0 -309 -103t-160 -272v-4l-117 -655h-61l282 1597h62l-131 -749q135 242 450 242z" />
    <glyph glyph-name="i" unicode="i" horiz-adv-x="438" 
d="M356 1403q-22 0 -35.5 15t-13.5 38q0 26 18 43t42 17q22 0 36.5 -15.5t14.5 -38.5q0 -26 -18.5 -42.5t-43.5 -16.5zM76 0l188 1069h62l-189 -1069h-61z" />
    <glyph glyph-name="j" unicode="j" horiz-adv-x="438" 
d="M356 1403q-22 0 -35.5 15t-13.5 38q0 26 18 43t42 17q22 0 36.5 -15.5t14.5 -38.5q0 -26 -18.5 -42.5t-43.5 -16.5zM-4 -451l268 1520h62l-269 -1520h-61z" />
    <glyph glyph-name="k" unicode="k" horiz-adv-x="1114" 
d="M1151 1069l-563 -508l397 -561h-80l-375 535h-303l-94 -535h-61l282 1597h62l-178 -1009h294l533 481h86z" />
    <glyph glyph-name="l" unicode="l" horiz-adv-x="493" 
d="M80 0l282 1597h62l-274 -1544h243l-10 -53h-303z" />
    <glyph glyph-name="m" unicode="m" horiz-adv-x="1974" 
d="M1468 1090q165 0 260 -89t95 -239q0 -47 -8 -88l-119 -674h-62l117 657q8 41 8 86q0 134 -80 212.5t-219 78.5q-155 0 -271 -96t-153 -254q0 -1 -1 -4.5t-1 -5.5l-4 -19l-117 -655h-61l117 657q8 41 8 86q0 134 -80 212.5t-219 78.5q-163 0 -281 -104.5t-147 -274.5
l-117 -655h-61l188 1069h62l-37 -215q129 236 409 236q143 0 234 -73t110 -198q60 124 169.5 197.5t260.5 73.5z" />
    <glyph glyph-name="n" unicode="n" horiz-adv-x="1275" 
d="M735 1090q179 0 283 -91.5t104 -244.5q0 -22 -8 -80l-119 -674h-61l117 659q6 40 6 76q0 138 -90 218.5t-248 80.5q-181 0 -310.5 -104.5t-158.5 -274.5l-117 -655h-61l188 1069h62l-39 -223q64 115 177.5 179.5t274.5 64.5z" />
    <glyph glyph-name="o" unicode="o" horiz-adv-x="1269" 
d="M522 -20q-206 0 -324 118.5t-118 319.5q0 184 81 337.5t226.5 244t325.5 90.5q204 0 322 -119t118 -320q0 -137 -47.5 -260.5t-130.5 -214t-201 -143.5t-252 -53zM528 35q161 0 290.5 86t199 226.5t69.5 305.5q0 175 -101.5 278t-278.5 103q-162 0 -292 -85.5t-200 -226
t-70 -306.5q0 -176 102 -278.5t281 -102.5z" />
    <glyph glyph-name="p" unicode="p" horiz-adv-x="1339" 
d="M797 1090q198 0 313 -118t115 -317q0 -137 -47 -261t-128 -215t-197 -145t-247 -54q-186 0 -291 86.5t-131 234.5l-131 -752h-61l268 1520h62l-43 -244l-9 -49q75 146 209 230t318 84zM598 35q161 0 291 86t200 227t70 305q0 175 -102 278t-283 103q-204 0 -356 -137
t-193 -358v-7l-4 -24q-6 -46 -6 -92q0 -176 102 -278.5t281 -102.5z" />
    <glyph glyph-name="q" unicode="q" horiz-adv-x="1341" 
d="M1174 1069h59l-268 -1520h-62l131 742q-77 -144 -210.5 -227.5t-315.5 -83.5q-198 0 -313 117t-115 315q0 183 78.5 338t221 247.5t318.5 92.5q183 0 288.5 -86t131.5 -232l10 53zM528 35q207 0 358 138.5t191 363.5l4 20q6 49 6 94q0 178 -101 280.5t-279 102.5
q-122 0 -228.5 -50.5t-179.5 -135.5t-114.5 -197.5t-41.5 -234.5q0 -176 102.5 -278.5t282.5 -102.5z" />
    <glyph glyph-name="r" unicode="r" horiz-adv-x="710" 
d="M72 0l188 1069h62l-41 -229q68 130 188.5 190t300.5 60l-12 -58q-212 0 -344.5 -102.5t-165.5 -280.5l-115 -649h-61z" />
    <glyph glyph-name="s" unicode="s" horiz-adv-x="925" 
d="M344 -20q-108 0 -195 27.5t-131 76.5l35 39q93 -90 293 -90q149 0 254 77.5t105 190.5q0 137 -213 201l-125 41q-110 33 -170 83t-60 136q0 143 114.5 235.5t283.5 92.5q184 0 323 -91l-35 -45q-114 82 -286 82q-142 0 -238 -75t-96 -185q0 -69 48.5 -108.5t141.5 -69.5
l127 -41q250 -78 250 -248q0 -145 -122 -237t-304 -92z" />
    <glyph glyph-name="t" unicode="t" horiz-adv-x="638" 
d="M739 1069l-10 -53h-293l-180 -1016h-61l180 1016h-293l8 53h295l55 313h62l-56 -313h293z" />
    <glyph glyph-name="u" unicode="u" horiz-adv-x="1245" 
d="M510 -20q-182 0 -286.5 91t-104.5 244q0 24 8 82l119 672h61l-117 -659q-8 -58 -8 -80q0 -137 88.5 -216t241.5 -79q178 0 305 104.5t156 274.5l117 655h61l-119 -676q-32 -187 -175.5 -300t-346.5 -113z" />
    <glyph glyph-name="v" unicode="v" horiz-adv-x="1110" 
d="M410 0l-306 1069h70l279 -995l634 995h70l-682 -1069h-65z" />
    <glyph glyph-name="w" unicode="w" horiz-adv-x="1851" 
d="M352 0l-243 1069h69l219 -995l574 995h61l219 -995l574 995h69l-620 -1069h-66l-219 989l-571 -989h-66z" />
    <glyph glyph-name="x" unicode="x" horiz-adv-x="1056" 
d="M1075 1069l-520 -520l354 -549h-78l-323 506l-506 -506h-80l553 549l-338 520h78l307 -477l475 477h78z" />
    <glyph glyph-name="y" unicode="y" horiz-adv-x="1257" 
d="M1087 1069h62l-268 -1520h-895l8 54h835l109 616q-135 -239 -440 -239q-176 0 -277.5 90.5t-101.5 242.5q0 24 8 82l119 674h61l-117 -659q-6 -43 -6 -80q0 -137 87.5 -216t240.5 -79q177 0 303.5 103t157.5 270v6z" />
    <glyph glyph-name="z" unicode="z" horiz-adv-x="964" 
d="M-47 0l895 1016h-707l9 53h817l-895 -1016h725l-11 -53h-833z" />
    <glyph glyph-name="braceleft" unicode="{" horiz-adv-x="755" 
d="M334 -389q-95 0 -150 57.5t-55 155.5q0 28 6 63l72 416q10 51 10 109q0 174 -137 174h-23l11 57h18q81 0 144.5 79.5t86.5 207.5l76 418q22 124 101 197t192 73q98 0 184 -25l-10 -57q-92 25 -174 25q-84 0 -147 -63.5t-82 -166.5l-72 -413q-22 -118 -77.5 -201
t-127.5 -103q50 -15 77.5 -66.5t27.5 -133.5q0 -50 -9 -109l-73 -414q-6 -27 -6 -59q0 -76 39.5 -120t109.5 -44q88 0 191 25l-13 -58q-95 -24 -190 -24z" />
    <glyph glyph-name="bar" unicode="|" horiz-adv-x="495" 
d="M20 -451l363 2048h68l-363 -2048h-68z" />
    <glyph glyph-name="braceright" unicode="}" horiz-adv-x="755" 
d="M412 1618q95 0 149.5 -57t54.5 -156q0 -29 -6 -64l-71 -415q-11 -56 -11 -109q0 -174 138 -174h22l-10 -57h-19q-81 0 -144.5 -79.5t-86.5 -207.5l-76 -418q-22 -124 -101 -197t-192 -73q-101 0 -184 24l10 58q92 -25 174 -25q85 0 148 63.5t82 166.5l71 413
q22 117 77.5 200t127.5 103q-104 32 -104 201q0 57 8 109l74 413q6 27 6 60q0 76 -40 120t-110 44q-87 0 -190 -25l12 57q98 25 191 25z" />
    <glyph glyph-name="asciitilde" unicode="~" horiz-adv-x="1144" 
d="M741 496q-46 0 -85.5 17.5t-69 42t-58 49t-64 42t-75.5 17.5q-72 0 -127 -40.5t-67 -107.5h-52q17 90 88.5 147.5t161.5 57.5q46 0 86.5 -17.5t70 -42t58.5 -49t64.5 -42t75.5 -17.5q71 0 126.5 40t67.5 107h51q-15 -90 -87 -147t-165 -57z" />
    <glyph glyph-name="uni00A0" unicode="&#xa0;" horiz-adv-x="567" 
 />
    <glyph glyph-name="exclamdown" unicode="&#xa1;" horiz-adv-x="458" 
d="M295 979q-22 0 -36.5 14t-14.5 37q0 26 18 43t43 17q22 0 35.5 -15.5t13.5 -38.5q0 -25 -17.5 -41t-41.5 -16zM2 -451l229 1254h58l-217 -1254h-70z" />
    <glyph glyph-name="cent" unicode="&#xa2;" horiz-adv-x="1126" 
d="M1022 1036q-107 98 -266 101l-174 -1000q184 6 331 129l31 -49q-156 -129 -373 -135l-28 -164h-64l29 166q-184 12 -289.5 128t-105.5 304q0 177 74 326.5t210.5 243t307.5 104.5l28 166h62l-29 -164q178 -6 299 -115zM178 518q0 -163 90.5 -264.5t249.5 -114.5l176 996
q-150 -12 -269 -100.5t-183 -224.5t-64 -292z" />
    <glyph glyph-name="sterling" unicode="&#xa3;" horiz-adv-x="1144" 
d="M778 1536q153 0 240.5 -81.5t87.5 -219.5q0 -35 -6 -76l-68 -2q6 37 6 70q0 116 -70 184t-194 68q-142 0 -247.5 -92t-131.5 -238l-73 -418h643l-11 -57h-643l-108 -617h712l-8 -57h-907l12 57h123l109 617h-103l9 57h104l78 434q29 169 151 270t295 101z" />
    <glyph glyph-name="currency" unicode="&#xa4;" horiz-adv-x="1206" 
d="M1063 776q0 -102 -44.5 -197t-121.5 -167l86 -107l-43 -43l-90 109q-146 -107 -309 -107q-165 0 -275 107l-127 -109l-37 41l129 109q-67 92 -67 219q0 103 45 198.5t123 167.5l-90 107l51 41l88 -107q140 105 307 105q166 0 275 -109l127 111l34 -43l-127 -109
q66 -98 66 -217zM221 635q0 -136 91.5 -228t232.5 -92q87 0 171.5 38.5t147.5 101.5t101.5 148t38.5 173q0 134 -91 225t-229 91q-116 0 -223.5 -64.5t-173.5 -171t-66 -221.5z" />
    <glyph glyph-name="yen" unicode="&#xa5;" horiz-adv-x="1347" 
d="M1432 1516l-711 -844h358l-10 -51h-371l-24 -140h373l-11 -51h-370l-78 -430h-68l76 430h-371l11 51h368l25 140h-371l10 51h357l-410 844h78l385 -797l670 797h84z" />
    <glyph glyph-name="brokenbar" unicode="&#xa6;" horiz-adv-x="489" 
d="M236 778l145 819h68l-146 -819h-67zM18 -451l146 820h67l-145 -820h-68z" />
    <glyph glyph-name="section" unicode="&#xa7;" horiz-adv-x="1157" 
d="M748 1618q258 0 378 -176l-43 -45q-114 164 -342 164q-186 0 -312 -111t-126 -276q0 -44 14 -81t35.5 -62.5t56 -48t67 -37t77.5 -30.5l98 -36q59 -21 101 -38.5t94.5 -49.5t85 -67t55.5 -87.5t23 -114.5q0 -100 -44.5 -188.5t-121.5 -151.5q74 -81 74 -196
q0 -133 -75 -238.5t-199.5 -162t-274.5 -56.5q-133 0 -239.5 43t-156.5 127l39 47q110 -160 355 -160q130 0 239 49t173.5 138.5t64.5 201.5q0 114 -85 184.5t-251 129.5l-96 35q-60 21 -105.5 45t-86.5 59.5t-63 86.5t-22 114q0 101 44.5 192t123.5 152q-74 77 -74 188
q0 134 70 239t188 161.5t261 56.5zM602 823l-96 33q-97 35 -156 76q-67 -53 -105 -130.5t-38 -162.5q0 -54 19.5 -96t58 -72t77.5 -49.5t97 -40.5l98 -37q164 -60 240 -119q67 55 105 131t38 154q0 59 -24 107t-72 85t-105 64.5t-137 56.5z" />
    <glyph glyph-name="dieresis" unicode="&#xa8;" horiz-adv-x="1228" 
d="M369 1403q-22 0 -36 14.5t-14 36.5q0 27 20 44.5t44 17.5q21 0 35 -15t14 -37q0 -27 -19.5 -44t-43.5 -17zM729 1403q-22 0 -35.5 14.5t-13.5 36.5q0 27 19.5 44.5t41.5 17.5t36 -15t14 -37q0 -27 -19.5 -44t-42.5 -17z" />
    <glyph glyph-name="copyright" unicode="&#xa9;" horiz-adv-x="1734" 
d="M754 -20q-291 0 -458 163.5t-167 442.5q0 195 66.5 369.5t183 302.5t284 203t359.5 75q292 0 459.5 -164.5t167.5 -445.5q0 -193 -67.5 -367t-184.5 -301.5t-284.5 -202.5t-358.5 -75zM758 29q179 0 335.5 73t264 195.5t169.5 286.5t62 344q0 258 -151.5 408.5
t-417.5 150.5q-180 0 -337 -72.5t-265 -195t-170 -286.5t-62 -345q0 -258 152.5 -408.5t419.5 -150.5zM823 324q-161 0 -253.5 91t-92.5 247q0 219 140.5 368.5t353.5 149.5q182 0 289 -140l-46 -32q-84 120 -245 120q-124 0 -223.5 -64.5t-153 -170t-53.5 -229.5
q0 -134 77 -212.5t213 -78.5q92 0 175.5 41t144.5 110l35 -43q-150 -157 -361 -157z" />
    <glyph glyph-name="ordfeminine" unicode="&#xaa;" horiz-adv-x="794" 
d="M535 1536q100 0 158.5 -55t58.5 -146q0 -23 -4 -51l-72 -405h-53l24 141l4 18q-47 -81 -125 -126.5t-164 -45.5q-84 0 -132 41t-48 111q0 103 84 162t207 59q101 0 207 -27l12 66q4 24 4 47q0 77 -45.5 121.5t-128.5 44.5q-114 0 -205 -84l-20 39q96 90 238 90zM377 909
q95 0 185 73.5t112 193.5q-105 24 -193 24q-103 0 -173 -48.5t-70 -129.5q0 -53 36.5 -83t102.5 -30z" />
    <glyph glyph-name="guillemotleft" unicode="&#xab;" horiz-adv-x="1056" 
d="M362 100l-274 453l434 453h68l-430 -453l268 -453h-66zM782 100l-274 453l434 453h68l-430 -453l268 -453h-66z" />
    <glyph glyph-name="logicalnot" unicode="&#xac;" horiz-adv-x="1150" 
d="M1024 836l-61 -347h-62l51 293h-762l11 54h823z" />
    <glyph glyph-name="uni00AD" unicode="&#xad;" horiz-adv-x="833" 
d="M141 559l9 51h520l-8 -51h-521z" />
    <glyph glyph-name="registered" unicode="&#xae;" horiz-adv-x="854" 
d="M592 1618q120 0 189 -67t69 -181q0 -159 -102.5 -267t-258.5 -108q-119 0 -187.5 66.5t-68.5 181.5q0 158 102.5 266.5t256.5 108.5zM496 1022q140 0 230.5 105t90.5 245q0 99 -62 158t-169 59q-138 0 -229 -104t-91 -244q0 -101 61.5 -160t168.5 -59zM678 1386
q0 -39 -24.5 -68t-63.5 -40l69 -139h-45l-61 133h-8h-84l-25 -133h-39l60 334h129q42 0 67 -24t25 -63zM545 1305q38 0 65 22.5t27 56.5q0 56 -64 56h-84l-24 -135h80z" />
    <glyph glyph-name="macron" unicode="&#xaf;" horiz-adv-x="1228" 
d="M301 1354l8 53h576l-8 -53h-576z" />
    <glyph glyph-name="degree" unicode="&#xb0;" horiz-adv-x="710" 
d="M446 1151q-99 0 -156 51t-57 139q0 121 82 199t205 78q98 0 154.5 -52t56.5 -139q0 -121 -81.5 -198.5t-203.5 -77.5zM451 1196q98 0 161.5 67t63.5 160q0 69 -42.5 109.5t-117.5 40.5q-97 0 -161 -67.5t-64 -159.5q0 -69 42.5 -109.5t117.5 -40.5z" />
    <glyph glyph-name="plusminus" unicode="&#xb1;" horiz-adv-x="1150" 
d="M641 852h365l-11 -55h-362l-66 -371h-59l65 371h-362l8 55h363l65 371h60zM109 211l8 55h786l-10 -55h-784z" />
    <glyph glyph-name="uni00B2" unicode="&#xb2;" horiz-adv-x="696" 
d="M100 811l9 37l325 297q5 5 35 31.5t38.5 34.5t35.5 34t37.5 37.5t32.5 37t31.5 41t24.5 40.5t21.5 44.5t11.5 43.5t5 47q0 69 -46.5 108t-128.5 39q-94 0 -161 -55.5t-82 -144.5l-62 8q22 109 106.5 175.5t203.5 66.5q106 0 168.5 -51.5t62.5 -141.5q0 -42 -12 -83.5
t-38.5 -83t-49.5 -72.5t-67 -73.5t-66 -63t-70 -62.5l-275 -242l474 2l-9 -51h-555z" />
    <glyph glyph-name="uni00B3" unicode="&#xb3;" horiz-adv-x="700" 
d="M793 1720l-9 -37l-405 -366q38 6 76 6q117 0 183.5 -57t66.5 -156q0 -136 -102.5 -223.5t-252.5 -87.5q-85 0 -147.5 28t-91.5 80l28 41q55 -98 213 -98q123 0 207 73.5t84 184.5q0 77 -56 122.5t-155 45.5q-80 0 -153 -31l-13 31l434 395h-424l9 49h508z" />
    <glyph glyph-name="acute" unicode="&#xb4;" horiz-adv-x="1228" 
d="M410 1270l309 291h92l-336 -291h-65z" />
    <glyph glyph-name="paragraph" unicode="&#xb6;" horiz-adv-x="1083" 
d="M999 1516l-348 -1967h-61l338 1911h-250l-338 -1911h-59l235 1325h-139q-103 0 -160 64.5t-57 175.5q0 167 103.5 284.5t262.5 117.5h473z" />
    <glyph glyph-name="periodcentered" unicode="&#xb7;" horiz-adv-x="438" 
d="M203 522q-26 0 -42 17.5t-16 42.5q0 28 21.5 48.5t50.5 20.5q25 0 41 -17t16 -42q0 -29 -21.5 -49.5t-49.5 -20.5z" />
    <glyph glyph-name="cedilla" unicode="&#xb8;" horiz-adv-x="1228" 
d="M131 -147q87 0 137.5 -38t50.5 -100q0 -86 -75 -136t-183 -50q-116 0 -182 63l29 37q56 -53 151 -53q84 0 142.5 38.5t58.5 98.5q0 44 -40 70.5t-107 26.5q-58 0 -113 -19l-12 27l149 182h58l-129 -152q50 5 65 5z" />
    <glyph glyph-name="uni00B9" unicode="&#xb9;" horiz-adv-x="403" 
d="M233 811l152 860h-176l8 49h234l-160 -909h-58z" />
    <glyph glyph-name="ordmasculine" unicode="&#xba;" horiz-adv-x="868" 
d="M475 866q-127 0 -199.5 72.5t-72.5 194.5q0 169 109.5 286t275.5 117q126 0 199 -72t73 -194q0 -169 -110.5 -286.5t-274.5 -117.5zM479 913q139 0 230.5 106t91.5 251q0 100 -58 158.5t-159 58.5q-139 0 -231.5 -105t-92.5 -249q0 -101 58.5 -160.5t160.5 -59.5z" />
    <glyph glyph-name="guillemotright" unicode="&#xbb;" horiz-adv-x="1056" 
d="M244 1006l276 -453l-436 -453h-68l430 453l-268 453h66zM664 1006l276 -453l-436 -453h-68l430 453l-268 453h66z" />
    <glyph glyph-name="onequarter" unicode="&#xbc;" horiz-adv-x="1458" 
d="M43 -20l-39 30l1163 1526l41 -31zM197 606l151 860h-176l8 50h234l-160 -910h-57zM1096 0l34 207h-462l8 45l586 657h51l-115 -653h143l-10 -49h-141l-37 -207h-57zM739 254h402l98 559z" />
    <glyph glyph-name="onehalf" unicode="&#xbd;" horiz-adv-x="1466" 
d="M43 -20l-39 30l1163 1526l41 -31zM197 606l151 860h-176l8 50h234l-160 -910h-57zM727 0l8 37l326 297q3 2 35 31t38.5 35t35.5 33.5t37.5 38t32 37t32 41.5t24 40t21 44.5t11 43.5t5.5 47q0 69 -46 108t-128 39q-94 0 -161.5 -55.5t-82.5 -144.5l-61 8q22 109 106 175.5
t203 66.5q107 0 169.5 -51.5t62.5 -141.5q0 -42 -12 -83.5t-38.5 -83t-49.5 -72.5t-67 -73.5t-66 -63t-70 -62.5l-275 -242l473 2l-8 -51h-555z" />
    <glyph glyph-name="threequarters" unicode="&#xbe;" horiz-adv-x="1755" 
d="M1464 1536l41 -31l-1165 -1525l-39 30zM668 905q0 -136 -102.5 -223.5t-252.5 -87.5q-85 0 -147.5 28t-91.5 80l28 41q55 -98 213 -98q123 0 207 73.5t84 184.5q0 77 -56 122.5t-155 45.5q-80 0 -153 -31l-13 31l435 395h-424l8 50h508l-8 -37l-406 -367q38 6 76 6
q117 0 183.5 -57t66.5 -156zM1495 256h143l-10 -49h-141l-37 -207h-57l34 207h-462l8 45l586 657h51zM1438 254l98 559l-500 -559h402z" />
    <glyph glyph-name="questiondown" unicode="&#xbf;" horiz-adv-x="1015" 
d="M598 979q-22 0 -36.5 14t-14.5 37q0 26 18 43t43 17q22 0 35.5 -15.5t13.5 -38.5q0 -25 -17.5 -41t-41.5 -16zM324 -471q-176 0 -278.5 84.5t-102.5 226.5q0 69 16 125t51 103t73.5 82.5t98.5 80.5q41 31 60 46t57 49.5t59.5 61.5t52.5 73t51 93t40 112.5t33 140.5l55 -6
q-15 -83 -36 -154.5t-42.5 -123t-53 -100t-54 -77.5t-60 -63.5t-58 -50.5t-59.5 -44q-56 -41 -89 -71.5t-64.5 -71.5t-45.5 -89.5t-14 -109.5q0 -121 83.5 -190.5t230.5 -69.5q161 0 279 91t147 237l65 -8q-35 -170 -170.5 -273.5t-324.5 -103.5z" />
    <glyph glyph-name="Agrave" unicode="&#xc0;" horiz-adv-x="1439" 
d="M942 1716h-59l-234 291h86zM1243 0l-121 459h-866l-285 -459h-75l946 1516h65l410 -1516h-74zM291 516h815l-244 922z" />
    <glyph glyph-name="Aacute" unicode="&#xc1;" horiz-adv-x="1439" 
d="M1268 2007l-336 -291h-66l310 291h92zM1243 0l-121 459h-866l-285 -459h-75l946 1516h65l410 -1516h-74zM291 516h815l-244 922z" />
    <glyph glyph-name="Acircumflex" unicode="&#xc2;" horiz-adv-x="1439" 
d="M954 1968l-280 -252h-66l314 291h75l211 -291h-65zM1243 0l-121 459h-866l-285 -459h-75l946 1516h65l410 -1516h-74zM291 516h815l-244 922z" />
    <glyph glyph-name="Atilde" unicode="&#xc3;" horiz-adv-x="1439" 
d="M778 1909q-56 0 -100.5 -40t-54.5 -106h-52q13 89 75 147t138 58q39 0 73.5 -17.5t59.5 -42t49.5 -49t54.5 -42t64 -17.5q56 0 101 40.5t57 107.5h51q-17 -91 -78 -148t-137 -57q-39 0 -73.5 17t-59.5 41.5t-49.5 49t-54.5 41.5t-64 17zM1243 0l-121 459h-866l-285 -459
h-75l946 1516h65l410 -1516h-74zM291 516h815l-244 922z" />
    <glyph glyph-name="Adieresis" unicode="&#xc4;" horiz-adv-x="1439" 
d="M756 1849q-21 0 -35 15t-14 37q0 27 19.5 44t43.5 17q22 0 35.5 -14.5t13.5 -36.5q0 -28 -19.5 -45t-43.5 -17zM1116 1849q-21 0 -35 15t-14 37q0 27 19.5 44t41.5 17t36 -14.5t14 -36.5q0 -27 -20 -44.5t-42 -17.5zM1243 0l-121 459h-866l-285 -459h-75l946 1516h65
l410 -1516h-74zM291 516h815l-244 922z" />
    <glyph glyph-name="Aring" unicode="&#xc5;" horiz-adv-x="1439" 
d="M899 1642q-83 0 -131.5 46.5t-48.5 123.5q0 109 70.5 181.5t177.5 72.5q84 0 133 -46.5t49 -125.5q0 -106 -71.5 -179t-178.5 -73zM965 2023q-86 0 -140.5 -63t-54.5 -148q0 -59 35 -92.5t96 -33.5q86 0 141.5 63.5t55.5 144.5q0 60 -35 94.5t-98 34.5zM1243 0l-121 459
h-866l-285 -459h-75l946 1516h65l410 -1516h-74zM291 516h815l-244 922z" />
    <glyph glyph-name="AE" unicode="&#xc6;" horiz-adv-x="2158" 
d="M2154 1458h-1056l73 -653h826l-10 -57h-807l77 -691h672l-10 -57h-727l-51 459h-840l-344 -459h-76l1139 1516h1147zM344 516h791l-101 922z" />
    <glyph glyph-name="Ccedilla" unicode="&#xc7;" horiz-adv-x="1390" 
d="M1006 1536q254 0 417 -147l-10 -64q-151 154 -412 154q-174 0 -326 -73t-256 -195t-164 -284.5t-60 -338.5q0 -253 146.5 -402t401.5 -149q266 0 480 164l-13 -76q-199 -139 -452 -145l-113 -132q50 5 66 5q87 0 137.5 -38t50.5 -100q0 -86 -75 -136t-183 -50
q-116 0 -182 63l28 37q56 -53 152 -53q84 0 142.5 38.5t58.5 98.5q0 44 -40 70.5t-108 26.5q-57 0 -112 -19l-13 27l133 162q-267 12 -421 174.5t-154 429.5q0 194 66 368.5t180.5 303.5t280 204.5t354.5 75.5z" />
    <glyph glyph-name="Egrave" unicode="&#xc8;" horiz-adv-x="1241" 
d="M885 1716h-60l-233 291h86zM1241 1458h-803l-114 -653h759l-12 -57h-758l-123 -691h824l-10 -57h-891l268 1516h870z" />
    <glyph glyph-name="Eacute" unicode="&#xc9;" horiz-adv-x="1241" 
d="M1210 2007l-336 -291h-65l309 291h92zM1241 1458h-803l-114 -653h759l-12 -57h-758l-123 -691h824l-10 -57h-891l268 1516h870z" />
    <glyph glyph-name="Ecircumflex" unicode="&#xca;" horiz-adv-x="1241" 
d="M897 1968l-281 -252h-65l313 291h76l211 -291h-66zM1241 1458h-803l-114 -653h759l-12 -57h-758l-123 -691h824l-10 -57h-891l268 1516h870z" />
    <glyph glyph-name="Edieresis" unicode="&#xcb;" horiz-adv-x="1241" 
d="M698 1849q-21 0 -35 15t-14 37q0 27 20 44t44 17q22 0 35.5 -14.5t13.5 -36.5q0 -27 -20 -44.5t-44 -17.5zM1059 1849q-21 0 -35 15t-14 37q0 27 19.5 44t41.5 17t35.5 -14.5t13.5 -36.5q0 -27 -19.5 -44.5t-41.5 -17.5zM1241 1458h-803l-114 -653h759l-12 -57h-758
l-123 -691h824l-10 -57h-891l268 1516h870z" />
    <glyph glyph-name="Igrave" unicode="&#xcc;" horiz-adv-x="518" 
d="M424 1716l-234 291h86l207 -291h-59zM113 0l268 1516h68l-269 -1516h-67z" />
    <glyph glyph-name="Iacute" unicode="&#xcd;" horiz-adv-x="518" 
d="M408 1716l309 291h92l-336 -291h-65zM113 0l268 1516h68l-269 -1516h-67z" />
    <glyph glyph-name="Icircumflex" unicode="&#xce;" horiz-adv-x="518" 
d="M750 1716h-66l-188 252l-281 -252h-65l313 291h76zM113 0l268 1516h68l-269 -1516h-67z" />
    <glyph glyph-name="Idieresis" unicode="&#xcf;" horiz-adv-x="518" 
d="M297 1849q-21 0 -35 15t-14 37q0 27 19.5 44t43.5 17q22 0 35.5 -14.5t13.5 -36.5q0 -28 -19.5 -45t-43.5 -17zM657 1849q-21 0 -35 15t-14 37q0 27 19.5 44t42.5 17q22 0 35.5 -14.5t13.5 -36.5q0 -27 -20 -44.5t-42 -17.5zM113 0l268 1516h68l-269 -1516h-67z" />
    <glyph glyph-name="Eth" unicode="&#xd0;" horiz-adv-x="1531" 
d="M838 1516q284 0 447 -161.5t163 -436.5q0 -190 -66 -359.5t-180.5 -292.5t-278 -194.5t-350.5 -71.5h-460l131 737h-183l9 51h182l129 728h457zM561 57q175 0 328 68.5t259 184t167 272t61 329.5q0 252 -150.5 399.5t-414.5 147.5h-373l-119 -670h463l-10 -51h-461
l-121 -680h371z" />
    <glyph glyph-name="Ntilde" unicode="&#xd1;" horiz-adv-x="1681" 
d="M1202 1743q-39 0 -73.5 17t-59.5 41.5t-49.5 49t-54.5 41.5t-64 17q-56 0 -101 -40t-55 -106h-51q13 89 75 147t138 58q39 0 73.5 -17.5t59.5 -42t49.5 -49t54.5 -42t64 -17.5q56 0 101 40.5t57 107.5h51q-17 -91 -78 -148t-137 -57zM113 0l268 1516h47l870 -1391
l246 1391h68l-269 -1516h-45l-872 1391l-246 -1391h-67z" />
    <glyph glyph-name="Ograve" unicode="&#xd2;" horiz-adv-x="1701" 
d="M1014 1716l-234 291h86l207 -291h-59zM737 -20q-284 0 -448 163.5t-164 440.5q0 194 66 368.5t180.5 303.5t280 204.5t354.5 75.5q285 0 448.5 -163.5t163.5 -444.5q0 -192 -66 -365.5t-181 -302t-280.5 -204.5t-353.5 -76zM743 37q173 0 324.5 73.5t256 196t164.5 284.5
t60 337q0 253 -146.5 402t-400.5 149q-174 0 -326 -73t-256 -195t-164 -284.5t-60 -338.5q0 -253 146.5 -402t401.5 -149z" />
    <glyph glyph-name="Oacute" unicode="&#xd3;" horiz-adv-x="1701" 
d="M997 1716l310 291h92l-336 -291h-66zM737 -20q-284 0 -448 163.5t-164 440.5q0 194 66 368.5t180.5 303.5t280 204.5t354.5 75.5q285 0 448.5 -163.5t163.5 -444.5q0 -192 -66 -365.5t-181 -302t-280.5 -204.5t-353.5 -76zM743 37q173 0 324.5 73.5t256 196t164.5 284.5
t60 337q0 253 -146.5 402t-400.5 149q-174 0 -326 -73t-256 -195t-164 -284.5t-60 -338.5q0 -253 146.5 -402t401.5 -149z" />
    <glyph glyph-name="Ocircumflex" unicode="&#xd4;" horiz-adv-x="1701" 
d="M1085 1968l-280 -252h-66l314 291h75l211 -291h-65zM1006 1536q285 0 448.5 -163.5t163.5 -444.5q0 -192 -66 -365.5t-181 -302t-280.5 -204.5t-353.5 -76q-284 0 -448 163.5t-164 440.5q0 194 66 368.5t180.5 303.5t280 204.5t354.5 75.5zM743 37q173 0 324.5 73.5
t256 196t164.5 284.5t60 337q0 253 -146.5 402t-400.5 149q-174 0 -326 -73t-256 -195t-164 -284.5t-60 -338.5q0 -253 146.5 -402t401.5 -149z" />
    <glyph glyph-name="Otilde" unicode="&#xd5;" horiz-adv-x="1701" 
d="M1210 1743q-39 0 -73.5 17t-59.5 41.5t-49.5 49t-54.5 41.5t-64 17q-56 0 -100.5 -40t-54.5 -106h-52q13 89 75 147t138 58q39 0 73.5 -17.5t60 -42t49.5 -49t54.5 -42t64.5 -17.5q56 0 100.5 40.5t56.5 107.5h51q-17 -91 -78 -148t-137 -57zM737 -20q-284 0 -448 163.5
t-164 440.5q0 194 66 368.5t180.5 303.5t280 204.5t354.5 75.5q285 0 448.5 -163.5t163.5 -444.5q0 -192 -66 -365.5t-181 -302t-280.5 -204.5t-353.5 -76zM743 37q173 0 324.5 73.5t256 196t164.5 284.5t60 337q0 253 -146.5 402t-400.5 149q-174 0 -326 -73t-256 -195
t-164 -284.5t-60 -338.5q0 -253 146.5 -402t401.5 -149z" />
    <glyph glyph-name="Odieresis" unicode="&#xd6;" horiz-adv-x="1701" 
d="M887 1849q-21 0 -35 15t-14 37q0 27 19.5 44t43.5 17q22 0 35.5 -14.5t13.5 -36.5q0 -28 -19.5 -45t-43.5 -17zM1247 1849q-21 0 -35 15t-14 37q0 27 19.5 44t42.5 17q22 0 35.5 -14.5t13.5 -36.5q0 -27 -20 -44.5t-42 -17.5zM737 -20q-284 0 -448 163.5t-164 440.5
q0 194 66 368.5t180.5 303.5t280 204.5t354.5 75.5q285 0 448.5 -163.5t163.5 -444.5q0 -192 -66 -365.5t-181 -302t-280.5 -204.5t-353.5 -76zM743 37q173 0 324.5 73.5t256 196t164.5 284.5t60 337q0 253 -146.5 402t-400.5 149q-174 0 -326 -73t-256 -195t-164 -284.5
t-60 -338.5q0 -253 146.5 -402t401.5 -149z" />
    <glyph glyph-name="multiply" unicode="&#xd7;" horiz-adv-x="995" 
d="M913 1016l-366 -311l256 -312l-45 -39l-256 312l-367 -312l-33 39l367 312l-256 311l45 39l256 -312l367 312z" />
    <glyph glyph-name="Oslash" unicode="&#xd8;" horiz-adv-x="1701" 
d="M1733 1491l-215 -195q100 -148 100 -368q0 -192 -66 -365.5t-181 -302t-280.5 -204.5t-353.5 -76q-306 0 -469 186l-207 -186l-41 45l209 190q-104 147 -104 369q0 194 66 368.5t180.5 303.5t280 204.5t354.5 75.5q152 0 273 -49t200 -141l211 190zM195 588
q0 -190 86 -328l1149 1040q-71 86 -181 132.5t-248 46.5q-174 0 -326 -73t-256 -195t-164 -284.5t-60 -338.5zM1548 928q0 187 -84 321l-1147 -1038q147 -174 426 -174q173 0 324.5 73.5t256 196t164.5 284.5t60 337z" />
    <glyph glyph-name="Ugrave" unicode="&#xd9;" horiz-adv-x="1601" 
d="M965 1716l-234 291h86l207 -291h-59zM690 -20q-238 0 -377 118t-139 318q0 44 10 106l176 994h68l-176 -996q-8 -47 -8 -96q0 -179 119 -283t329 -104q238 0 408.5 134.5t208.5 352.5l176 992h67l-178 -1000q-43 -243 -230.5 -389.5t-453.5 -146.5z" />
    <glyph glyph-name="Uacute" unicode="&#xda;" horiz-adv-x="1601" 
d="M948 1716l309 291h93l-336 -291h-66zM690 -20q-238 0 -377 118t-139 318q0 44 10 106l176 994h68l-176 -996q-8 -47 -8 -96q0 -179 119 -283t329 -104q238 0 408.5 134.5t208.5 352.5l176 992h67l-178 -1000q-43 -243 -230.5 -389.5t-453.5 -146.5z" />
    <glyph glyph-name="Ucircumflex" unicode="&#xdb;" horiz-adv-x="1601" 
d="M1036 1968l-280 -252h-66l314 291h75l211 -291h-65zM1485 1516h67l-178 -1000q-43 -243 -230.5 -389.5t-453.5 -146.5q-238 0 -377 118t-139 318q0 44 10 106l176 994h68l-176 -996q-8 -47 -8 -96q0 -179 119 -283t329 -104q238 0 408.5 134.5t208.5 352.5z" />
    <glyph glyph-name="Udieresis" unicode="&#xdc;" horiz-adv-x="1601" 
d="M838 1849q-22 0 -36 15t-14 37q0 27 20 44t44 17q22 0 35.5 -14.5t13.5 -36.5q0 -28 -19.5 -45t-43.5 -17zM1198 1849q-21 0 -35 15t-14 37q0 27 19.5 44t41.5 17t36 -14.5t14 -36.5q0 -27 -20 -44.5t-42 -17.5zM690 -20q-238 0 -377 118t-139 318q0 44 10 106l176 994
h68l-176 -996q-8 -47 -8 -96q0 -179 119 -283t329 -104q238 0 408.5 134.5t208.5 352.5l176 992h67l-178 -1000q-43 -243 -230.5 -389.5t-453.5 -146.5z" />
    <glyph glyph-name="Yacute" unicode="&#xdd;" horiz-adv-x="1290" 
d="M793 1716l309 291h92l-336 -291h-65zM498 0l114 651l-422 865h80l385 -797l670 797h82l-727 -865l-115 -651h-67z" />
    <glyph glyph-name="Thorn" unicode="&#xde;" horiz-adv-x="1290" 
d="M836 1214q187 0 295 -97.5t108 -262.5q0 -148 -71.5 -269.5t-197.5 -191t-280 -69.5h-452l-58 -324h-67l268 1516h68l-54 -302h441zM674 381q139 0 252.5 63t177 170t63.5 236q0 140 -94.5 222.5t-257.5 82.5h-430l-137 -774h426z" />
    <glyph glyph-name="germandbls" unicode="&#xdf;" horiz-adv-x="1210" 
d="M502 -20q-87 0 -152 24l10 53q55 -22 142 -22q218 0 365 137t147 340q0 145 -101.5 230t-277.5 85l10 54q183 0 306.5 118.5t123.5 296.5q0 124 -81.5 196.5t-221.5 72.5q-162 0 -278 -95t-144 -249l-215 -1221h-61l217 1233q31 175 163.5 280t321.5 105
q168 0 266.5 -86.5t98.5 -231.5q0 -161 -99.5 -283.5t-259.5 -160.5q139 -29 217 -121.5t78 -228.5q0 -151 -76.5 -271.5t-207.5 -187.5t-291 -67z" />
    <glyph glyph-name="agrave" unicode="&#xe0;" horiz-adv-x="1112" 
d="M684 1270h-59l-234 291h86zM223 1069h781l-189 -1069h-61l39 225l10 60q-75 -142 -210.5 -223.5t-287.5 -81.5q-136 0 -214.5 66t-78.5 179q0 85 39 155.5t105 116t152.5 70.5t183.5 25q197 0 358 -47l84 471h-719zM324 31q101 0 205 49.5t191 152.5t116 238l6 25
q-151 45 -344 45q-115 0 -210.5 -37t-153.5 -109t-58 -166q0 -93 65.5 -145.5t182.5 -52.5z" />
    <glyph glyph-name="aacute" unicode="&#xe1;" horiz-adv-x="1112" 
d="M1010 1561l-336 -291h-66l310 291h92zM215 1016l8 53h781l-189 -1069h-61l39 225l10 60q-75 -142 -210.5 -223.5t-287.5 -81.5q-136 0 -214.5 66t-78.5 179q0 85 39 155.5t105 116t152.5 70.5t183.5 25q197 0 358 -47l84 471h-719zM324 31q101 0 205 49.5t191 152.5
t116 238l6 25q-151 45 -344 45q-115 0 -210.5 -37t-153.5 -109t-58 -166q0 -93 65.5 -145.5t182.5 -52.5z" />
    <glyph glyph-name="acircumflex" unicode="&#xe2;" horiz-adv-x="1112" 
d="M696 1522l-280 -252h-66l314 291h75l211 -291h-65zM223 1069h781l-189 -1069h-61l39 225l10 60q-75 -142 -210.5 -223.5t-287.5 -81.5q-136 0 -214.5 66t-78.5 179q0 85 39 155.5t105 116t152.5 70.5t183.5 25q197 0 358 -47l84 471h-719zM324 31q101 0 205 49.5
t191 152.5t116 238l6 25q-151 45 -344 45q-115 0 -210.5 -37t-153.5 -109t-58 -166q0 -93 65.5 -145.5t182.5 -52.5z" />
    <glyph glyph-name="atilde" unicode="&#xe3;" horiz-adv-x="1112" 
d="M520 1462q-56 0 -100.5 -39.5t-54.5 -105.5h-52q13 89 75 147t138 58q39 0 73.5 -17.5t59.5 -42t49.5 -49t54.5 -42t64 -17.5q56 0 101 40t57 107h51q-17 -91 -78 -148t-137 -57q-39 0 -73.5 17t-59.5 41.5t-49.5 49t-54.5 41.5t-64 17zM215 1016l8 53h781l-189 -1069
h-61l39 225l10 60q-75 -142 -210.5 -223.5t-287.5 -81.5q-136 0 -214.5 66t-78.5 179q0 85 39 155.5t105 116t152.5 70.5t183.5 25q197 0 358 -47l84 471h-719zM324 31q101 0 205 49.5t191 152.5t116 238l6 25q-151 45 -344 45q-115 0 -210.5 -37t-153.5 -109t-58 -166
q0 -93 65.5 -145.5t182.5 -52.5z" />
    <glyph glyph-name="adieresis" unicode="&#xe4;" horiz-adv-x="1112" 
d="M498 1403q-22 0 -35.5 14.5t-13.5 36.5q0 28 19.5 45t43.5 17q21 0 35 -15t14 -37q0 -27 -19.5 -44t-43.5 -17zM858 1403q-22 0 -35.5 14.5t-13.5 36.5q0 27 19.5 44.5t41.5 17.5t36 -15t14 -37q0 -27 -19.5 -44t-42.5 -17zM223 1069h781l-189 -1069h-61l39 225l10 60
q-75 -142 -210.5 -223.5t-287.5 -81.5q-136 0 -214.5 66t-78.5 179q0 85 39 155.5t105 116t152.5 70.5t183.5 25q197 0 358 -47l84 471h-719zM324 31q101 0 205 49.5t191 152.5t116 238l6 25q-151 45 -344 45q-115 0 -210.5 -37t-153.5 -109t-58 -166q0 -93 65.5 -145.5
t182.5 -52.5z" />
    <glyph glyph-name="aring" unicode="&#xe5;" horiz-adv-x="1112" 
d="M641 1196q-83 0 -131.5 46.5t-48.5 123.5q0 109 70.5 181.5t177.5 72.5q84 0 133 -46.5t49 -125.5q0 -106 -71.5 -179t-178.5 -73zM707 1577q-86 0 -140.5 -63t-54.5 -148q0 -59 35 -93t96 -34q85 0 141 64t56 145q0 60 -35 94.5t-98 34.5zM223 1069h781l-189 -1069h-61
l39 225l10 60q-75 -142 -210.5 -223.5t-287.5 -81.5q-136 0 -214.5 66t-78.5 179q0 85 39 155.5t105 116t152.5 70.5t183.5 25q197 0 358 -47l84 471h-719zM324 31q101 0 205 49.5t191 152.5t116 238l6 25q-151 45 -344 45q-115 0 -210.5 -37t-153.5 -109t-58 -166
q0 -93 65.5 -145.5t182.5 -52.5z" />
    <glyph glyph-name="ae" unicode="&#xe6;" horiz-adv-x="1933" 
d="M1815 508h-906q-6 -50 -6 -102q0 -172 91 -272.5t251 -100.5q123 0 238 59t205 162l43 -39q-101 -117 -226 -176t-262 -59q-167 0 -271 94t-124 260q-71 -163 -220 -258.5t-319 -95.5q-136 0 -215.5 66t-79.5 179q0 85 39 155.5t106 116t153.5 70.5t183.5 25
q193 0 358 -47l20 117q7 34 7 83q0 135 -80 213t-221 78q-202 0 -347 -145l-28 47q155 152 389 152q154 0 246.5 -81t101.5 -218q77 138 205 218.5t285 80.5q188 0 295.5 -113.5t107.5 -306.5q0 -28 -7 -83t-13 -79zM1425 1036q-193 0 -329 -136.5t-176 -340.5h839
q10 65 10 111q0 171 -91.5 268.5t-252.5 97.5zM328 31q77 0 158.5 31.5t154.5 89t128.5 147.5t74.5 197q-151 45 -344 45q-114 0 -209 -37t-153 -109t-58 -166q0 -93 65.5 -145.5t182.5 -52.5z" />
    <glyph glyph-name="ccedilla" unicode="&#xe7;" horiz-adv-x="972" 
d="M696 1090q138 0 240 -95l-8 -59q-91 98 -238 98q-119 0 -222 -52t-173 -138t-110 -199t-40 -233q0 -174 98 -275.5t269 -101.5q147 0 274 100l-10 -67q-120 -85 -262 -88l-113 -132q50 5 66 5q87 0 137.5 -38t50.5 -100q0 -86 -75 -136t-183 -50q-116 0 -182 63l29 37
q56 -53 151 -53q84 0 142.5 38.5t58.5 98.5q0 44 -40 70.5t-107 26.5q-58 0 -113 -19l-12 27l135 164q-177 13 -278 128.5t-101 301.5q0 182 77.5 336.5t220 248t318.5 93.5z" />
    <glyph glyph-name="egrave" unicode="&#xe8;" horiz-adv-x="1173" 
d="M739 1270h-59l-234 291h86zM1057 508h-905q-7 -58 -7 -102q0 -172 90.5 -272.5t251.5 -100.5q122 0 237.5 59.5t205.5 161.5l43 -39q-204 -235 -490 -235q-189 0 -296 116t-107 314q0 182 73.5 337t210.5 249t308 94q188 0 295.5 -113.5t107.5 -306.5q0 -83 -18 -162z
M668 1036q-98 0 -184.5 -38t-150.5 -103.5t-108 -151.5t-63 -184h839q11 71 11 111q0 171 -91.5 268.5t-252.5 97.5z" />
    <glyph glyph-name="eacute" unicode="&#xe9;" horiz-adv-x="1173" 
d="M1065 1561l-336 -291h-65l309 291h92zM1057 508h-905q-7 -58 -7 -102q0 -172 90.5 -272.5t251.5 -100.5q122 0 237.5 59.5t205.5 161.5l43 -39q-204 -235 -490 -235q-189 0 -296 116t-107 314q0 182 73.5 337t210.5 249t308 94q188 0 295.5 -113.5t107.5 -306.5
q0 -83 -18 -162zM668 1036q-98 0 -184.5 -38t-150.5 -103.5t-108 -151.5t-63 -184h839q11 71 11 111q0 171 -91.5 268.5t-252.5 97.5z" />
    <glyph glyph-name="ecircumflex" unicode="&#xea;" horiz-adv-x="1173" 
d="M752 1522l-281 -252h-65l313 291h76l211 -291h-66zM1057 508h-905q-7 -58 -7 -102q0 -172 90.5 -272.5t251.5 -100.5q122 0 237.5 59.5t205.5 161.5l43 -39q-204 -235 -490 -235q-189 0 -296 116t-107 314q0 182 73.5 337t210.5 249t308 94q188 0 295.5 -113.5
t107.5 -306.5q0 -83 -18 -162zM668 1036q-98 0 -184.5 -38t-150.5 -103.5t-108 -151.5t-63 -184h839q11 71 11 111q0 171 -91.5 268.5t-252.5 97.5z" />
    <glyph glyph-name="edieresis" unicode="&#xeb;" horiz-adv-x="1173" 
d="M553 1403q-22 0 -35.5 14.5t-13.5 36.5q0 28 19.5 45t43.5 17q21 0 35 -15t14 -37q0 -27 -19.5 -44t-43.5 -17zM913 1403q-22 0 -35.5 14.5t-13.5 36.5q0 27 20 44.5t42 17.5q21 0 35 -15t14 -37q0 -27 -19.5 -44t-42.5 -17zM1057 508h-905q-7 -58 -7 -102
q0 -172 90.5 -272.5t251.5 -100.5q122 0 237.5 59.5t205.5 161.5l43 -39q-204 -235 -490 -235q-189 0 -296 116t-107 314q0 182 73.5 337t210.5 249t308 94q188 0 295.5 -113.5t107.5 -306.5q0 -83 -18 -162zM668 1036q-98 0 -184.5 -38t-150.5 -103.5t-108 -151.5t-63 -184
h839q11 71 11 111q0 171 -91.5 268.5t-252.5 97.5z" />
    <glyph glyph-name="igrave" unicode="&#xec;" horiz-adv-x="438" 
d="M303 1270l-233 291h86l206 -291h-59zM76 0l188 1069h62l-189 -1069h-61z" />
    <glyph glyph-name="iacute" unicode="&#xed;" horiz-adv-x="438" 
d="M287 1270l309 291h92l-336 -291h-65zM76 0l188 1069h62l-189 -1069h-61z" />
    <glyph glyph-name="icircumflex" unicode="&#xee;" horiz-adv-x="438" 
d="M629 1270h-66l-188 252l-281 -252h-65l313 291h76zM76 0l188 1069h62l-189 -1069h-61z" />
    <glyph glyph-name="idieresis" unicode="&#xef;" horiz-adv-x="438" 
d="M176 1403q-22 0 -35.5 14.5t-13.5 36.5q0 28 19.5 45t43.5 17q22 0 36 -15t14 -37q0 -27 -20 -44t-44 -17zM537 1403q-22 0 -36 14.5t-14 36.5q0 27 20 44.5t42 17.5q21 0 35 -15t14 -37q0 -27 -19.5 -44t-41.5 -17zM76 0l188 1069h62l-189 -1069h-61z" />
    <glyph glyph-name="eth" unicode="&#xf0;" horiz-adv-x="1275" 
d="M809 1454q356 -316 356 -723q0 -153 -46 -290t-128 -239t-204 -162t-265 -60q-206 0 -324 118.5t-118 319.5q0 181 79 334t221.5 244t317.5 91q148 0 248 -60.5t146 -166.5q-59 320 -336 561l-219 -131l-37 31l217 133q-90 73 -182 129l55 35q91 -56 182 -131l215 131
l39 -33zM528 35q207 0 358 139t191 365q10 55 10 112q0 177 -101.5 280t-278.5 103q-162 0 -292 -85.5t-200 -226t-70 -306.5q0 -176 102 -278.5t281 -102.5z" />
    <glyph glyph-name="ntilde" unicode="&#xf1;" horiz-adv-x="1275" 
d="M627 1462q-56 0 -101 -40t-55 -105h-51q13 89 75 147t138 58q39 0 73.5 -17.5t59.5 -42t49.5 -49t54.5 -42t64 -17.5q56 0 101 40t57 107h51q-17 -91 -78 -148t-137 -57q-39 0 -73.5 17t-59.5 41.5t-49.5 49t-54.5 41.5t-64 17zM735 1090q179 0 283 -91.5t104 -244.5
q0 -22 -8 -80l-119 -674h-61l117 659q6 40 6 76q0 138 -90 218.5t-248 80.5q-181 0 -310.5 -104.5t-158.5 -274.5l-117 -655h-61l188 1069h62l-39 -223q64 115 177.5 179.5t274.5 64.5z" />
    <glyph glyph-name="ograve" unicode="&#xf2;" horiz-adv-x="1269" 
d="M719 1270l-234 291h86l207 -291h-59zM522 -20q-206 0 -324 118.5t-118 319.5q0 184 81 337.5t226.5 244t325.5 90.5q204 0 322 -119t118 -320q0 -137 -47.5 -260.5t-130.5 -214t-201 -143.5t-252 -53zM528 35q161 0 290.5 86t199 226.5t69.5 305.5q0 175 -101.5 278
t-278.5 103q-162 0 -292 -85.5t-200 -226t-70 -306.5q0 -176 102 -278.5t281 -102.5z" />
    <glyph glyph-name="oacute" unicode="&#xf3;" horiz-adv-x="1269" 
d="M702 1270l310 291h92l-336 -291h-66zM522 -20q-206 0 -324 118.5t-118 319.5q0 184 81 337.5t226.5 244t325.5 90.5q204 0 322 -119t118 -320q0 -137 -47.5 -260.5t-130.5 -214t-201 -143.5t-252 -53zM528 35q161 0 290.5 86t199 226.5t69.5 305.5q0 175 -101.5 278
t-278.5 103q-162 0 -292 -85.5t-200 -226t-70 -306.5q0 -176 102 -278.5t281 -102.5z" />
    <glyph glyph-name="ocircumflex" unicode="&#xf4;" horiz-adv-x="1269" 
d="M791 1522l-281 -252h-66l314 291h76l210 -291h-65zM713 1090q204 0 322 -119t118 -320q0 -137 -47.5 -260.5t-130.5 -214t-201 -143.5t-252 -53q-206 0 -324 118.5t-118 319.5q0 184 81 337.5t226.5 244t325.5 90.5zM528 35q161 0 290.5 86t199 226.5t69.5 305.5
q0 175 -101.5 278t-278.5 103q-162 0 -292 -85.5t-200 -226t-70 -306.5q0 -176 102 -278.5t281 -102.5z" />
    <glyph glyph-name="otilde" unicode="&#xf5;" horiz-adv-x="1269" 
d="M915 1296q-39 0 -73.5 17t-59.5 41.5t-49.5 49t-54.5 41.5t-64 17q-56 0 -100.5 -39.5t-54.5 -105.5h-51q13 89 75 147t138 58q39 0 73.5 -17.5t59.5 -42t49.5 -49t54.5 -42t64 -17.5q56 0 100.5 40t56.5 107h51q-17 -91 -78 -148t-137 -57zM522 -20q-206 0 -324 118.5
t-118 319.5q0 184 81 337.5t226.5 244t325.5 90.5q204 0 322 -119t118 -320q0 -137 -47.5 -260.5t-130.5 -214t-201 -143.5t-252 -53zM528 35q161 0 290.5 86t199 226.5t69.5 305.5q0 175 -101.5 278t-278.5 103q-162 0 -292 -85.5t-200 -226t-70 -306.5q0 -176 102 -278.5
t281 -102.5z" />
    <glyph glyph-name="odieresis" unicode="&#xf6;" horiz-adv-x="1269" 
d="M592 1403q-22 0 -35.5 14.5t-13.5 36.5q0 28 19.5 45t43.5 17q21 0 35 -15t14 -37q0 -27 -19.5 -44t-43.5 -17zM952 1403q-22 0 -35.5 14.5t-13.5 36.5q0 27 20 44.5t42 17.5q21 0 35 -15t14 -37q0 -27 -19.5 -44t-42.5 -17zM522 -20q-206 0 -324 118.5t-118 319.5
q0 184 81 337.5t226.5 244t325.5 90.5q204 0 322 -119t118 -320q0 -137 -47.5 -260.5t-130.5 -214t-201 -143.5t-252 -53zM528 35q161 0 290.5 86t199 226.5t69.5 305.5q0 175 -101.5 278t-278.5 103q-162 0 -292 -85.5t-200 -226t-70 -306.5q0 -176 102 -278.5t281 -102.5z
" />
    <glyph glyph-name="divide" unicode="&#xf7;" horiz-adv-x="1148" 
d="M625 930q-20 0 -33.5 13.5t-13.5 35.5q0 27 19.5 44t41.5 17t35.5 -14.5t13.5 -36.5q0 -27 -19.5 -43t-43.5 -16zM166 680l8 53h825l-8 -53h-825zM528 373q-22 0 -35.5 13.5t-13.5 35.5q0 27 19.5 44t42.5 17q22 0 35.5 -14.5t13.5 -36.5q0 -27 -19.5 -43t-42.5 -16z" />
    <glyph glyph-name="oslash" unicode="&#xf8;" horiz-adv-x="1269" 
d="M1233 1051l-152 -138q72 -107 72 -262q0 -137 -47.5 -260.5t-130.5 -214t-201 -143.5t-252 -53q-217 0 -336 131l-145 -131l-37 38l150 134q-74 109 -74 266q0 184 81 337.5t226.5 244t325.5 90.5q218 0 336 -134l147 134zM145 416q0 -125 56 -219l800 716
q-102 121 -294 121q-162 0 -292 -85.5t-200 -226t-70 -306.5zM1087 653q0 129 -55 217l-799 -718q104 -117 295 -117q161 0 290.5 86t199 226.5t69.5 305.5z" />
    <glyph glyph-name="ugrave" unicode="&#xf9;" horiz-adv-x="1245" 
d="M707 1270l-234 291h86l207 -291h-59zM510 -20q-182 0 -286.5 91t-104.5 244q0 24 8 82l119 672h61l-117 -659q-8 -58 -8 -80q0 -137 88.5 -216t241.5 -79q178 0 305 104.5t156 274.5l117 655h61l-119 -676q-32 -187 -175.5 -300t-346.5 -113z" />
    <glyph glyph-name="uacute" unicode="&#xfa;" horiz-adv-x="1245" 
d="M690 1270l309 291h93l-336 -291h-66zM510 -20q-182 0 -286.5 91t-104.5 244q0 24 8 82l119 672h61l-117 -659q-8 -58 -8 -80q0 -137 88.5 -216t241.5 -79q178 0 305 104.5t156 274.5l117 655h61l-119 -676q-32 -187 -175.5 -300t-346.5 -113z" />
    <glyph glyph-name="ucircumflex" unicode="&#xfb;" horiz-adv-x="1245" 
d="M778 1522l-280 -252h-66l313 291h76l211 -291h-65zM1090 1069h61l-119 -676q-32 -187 -175.5 -300t-346.5 -113q-182 0 -286.5 91t-104.5 244q0 24 8 82l119 672h61l-117 -659q-8 -58 -8 -80q0 -137 88.5 -216t241.5 -79q178 0 305 104.5t156 274.5z" />
    <glyph glyph-name="udieresis" unicode="&#xfc;" horiz-adv-x="1245" 
d="M580 1403q-22 0 -36 14.5t-14 36.5q0 27 20 44.5t44 17.5q21 0 35 -15t14 -37q0 -27 -19.5 -44t-43.5 -17zM940 1403q-22 0 -35.5 14.5t-13.5 36.5q0 27 19.5 44.5t41.5 17.5q21 0 35 -15t14 -37q0 -27 -19.5 -44t-41.5 -17zM510 -20q-182 0 -286.5 91t-104.5 244
q0 24 8 82l119 672h61l-117 -659q-8 -58 -8 -80q0 -137 88.5 -216t241.5 -79q178 0 305 104.5t156 274.5l117 655h61l-119 -676q-32 -187 -175.5 -300t-346.5 -113z" />
    <glyph glyph-name="yacute" unicode="&#xfd;" horiz-adv-x="1257" 
d="M1085 1561l-335 -291h-66l309 291h92zM1087 1069h62l-268 -1520h-895l8 54h835l109 616q-135 -239 -440 -239q-176 0 -277.5 90.5t-101.5 242.5q0 24 8 82l119 674h61l-117 -659q-6 -43 -6 -80q0 -137 87.5 -216t240.5 -79q177 0 303.5 103t157.5 270v6z" />
    <glyph glyph-name="thorn" unicode="&#xfe;" horiz-adv-x="1339" 
d="M797 1090q198 0 313 -118t115 -317q0 -137 -47 -261t-128 -215t-197 -145t-247 -54q-186 0 -291 86.5t-131 234.5l-131 -752h-61l362 2048h62l-148 -823q75 146 210 231t319 85zM598 35q161 0 291 86t200 227t70 305q0 175 -102 278t-283 103q-205 0 -357 -139t-192 -363
l-2 -10q-8 -52 -8 -106q0 -176 102 -278.5t281 -102.5z" />
    <glyph glyph-name="ydieresis" unicode="&#xff;" horiz-adv-x="1257" 
d="M573 1403q-22 0 -35.5 14.5t-13.5 36.5q0 27 20 44.5t44 17.5q21 0 35 -15t14 -37q0 -27 -20 -44t-44 -17zM934 1403q-22 0 -35.5 14.5t-13.5 36.5q0 27 19.5 44.5t41.5 17.5q21 0 35 -15t14 -37q0 -27 -19.5 -44t-41.5 -17zM1087 1069h62l-268 -1520h-895l8 54h835
l109 616q-135 -239 -440 -239q-176 0 -277.5 90.5t-101.5 242.5q0 24 8 82l119 674h61l-117 -659q-6 -43 -6 -80q0 -137 87.5 -216t240.5 -79q177 0 303.5 103t157.5 270v6z" />
    <glyph glyph-name="Amacron" unicode="&#x100;" horiz-adv-x="1439" 
d="M1221 1853l-9 -53h-575l8 53h576zM1243 0l-121 459h-866l-285 -459h-75l946 1516h65l410 -1516h-74zM291 516h815l-244 922z" />
    <glyph glyph-name="amacron" unicode="&#x101;" horiz-adv-x="1112" 
d="M963 1407l-9 -53h-575l8 53h576zM223 1069h781l-189 -1069h-61l39 225l10 60q-75 -142 -210.5 -223.5t-287.5 -81.5q-136 0 -214.5 66t-78.5 179q0 85 39 155.5t105 116t152.5 70.5t183.5 25q197 0 358 -47l84 471h-719zM324 31q101 0 205 49.5t191 152.5t116 238l6 25
q-151 45 -344 45q-115 0 -210.5 -37t-153.5 -109t-58 -166q0 -93 65.5 -145.5t182.5 -52.5z" />
    <glyph glyph-name="Abreve" unicode="&#x102;" horiz-adv-x="1439" 
d="M909 1696q-118 0 -186 66t-68 177q0 28 7 68h57q-6 -35 -6 -63q0 -93 52.5 -147t145.5 -54q110 0 189.5 73t99.5 191h60q-25 -142 -120.5 -226.5t-230.5 -84.5zM1243 0l-121 459h-866l-285 -459h-75l946 1516h65l410 -1516h-74zM291 516h815l-244 922z" />
    <glyph glyph-name="abreve" unicode="&#x103;" horiz-adv-x="1112" 
d="M651 1249q-118 0 -186 66.5t-68 177.5q0 33 6 68h58q-6 -35 -6 -64q0 -93 52.5 -147t145.5 -54q110 0 189.5 73.5t99.5 191.5h59q-25 -142 -120 -227t-230 -85zM223 1069h781l-189 -1069h-61l39 225l10 60q-75 -142 -210.5 -223.5t-287.5 -81.5q-136 0 -214.5 66
t-78.5 179q0 85 39 155.5t105 116t152.5 70.5t183.5 25q197 0 358 -47l84 471h-719zM324 31q101 0 205 49.5t191 152.5t116 238l6 25q-151 45 -344 45q-115 0 -210.5 -37t-153.5 -109t-58 -166q0 -93 65.5 -145.5t182.5 -52.5z" />
    <glyph glyph-name="Aogonek" unicode="&#x104;" horiz-adv-x="1439" 
d="M1104 -424q75 0 143 55l2 -45q-72 -57 -157 -57q-62 0 -99 33.5t-37 87.5q0 85 74.5 176.5t212.5 177.5l-121 455h-866l-285 -459h-75l946 1516h65l410 -1516q-301 -181 -301 -338q0 -38 24 -62t64 -24zM291 516h815l-244 922z" />
    <glyph glyph-name="aogonek" unicode="&#x105;" horiz-adv-x="1112" 
d="M815 0q-301 -181 -301 -338q0 -38 24 -62t64 -24q75 0 143 55l3 -45q-72 -57 -158 -57q-62 0 -98.5 33t-36.5 88q0 87 77.5 180.5t223.5 183.5l37 211l10 60q-75 -142 -210.5 -223.5t-287.5 -81.5q-136 0 -214.5 66t-78.5 179q0 85 39 155.5t105 116t152.5 70.5t183.5 25
q197 0 358 -47l84 471h-719l8 53h781zM324 31q101 0 205 49.5t191 152.5t116 238l6 25q-151 45 -344 45q-115 0 -210.5 -37t-153.5 -109t-58 -166q0 -93 65.5 -145.5t182.5 -52.5z" />
    <glyph glyph-name="Cacute" unicode="&#x106;" horiz-adv-x="1390" 
d="M985 1716l309 291h92l-335 -291h-66zM737 -20q-284 0 -448 163.5t-164 440.5q0 194 66 368.5t180.5 303.5t280 204.5t354.5 75.5q254 0 417 -147l-10 -64q-151 154 -412 154q-174 0 -326 -73t-256 -195t-164 -284.5t-60 -338.5q0 -253 146.5 -402t401.5 -149
q266 0 480 164l-13 -76q-208 -145 -473 -145z" />
    <glyph glyph-name="cacute" unicode="&#x107;" horiz-adv-x="972" 
d="M670 1270l309 291h92l-336 -291h-65zM506 -20q-198 0 -312 117t-114 315q0 182 77.5 336.5t220 248t318.5 93.5q138 0 240 -95l-8 -59q-91 98 -238 98q-119 0 -222 -52t-173 -138t-110 -199t-40 -233q0 -174 98 -275.5t269 -101.5q147 0 274 100l-10 -67
q-124 -88 -270 -88z" />
    <glyph glyph-name="Cdotaccent" unicode="&#x10a;" horiz-adv-x="1390" 
d="M1057 1849q-22 0 -36.5 15.5t-14.5 38.5q0 25 18.5 42t42.5 17q22 0 36.5 -15t14.5 -38q0 -26 -18 -43t-43 -17zM737 -20q-284 0 -448 163.5t-164 440.5q0 194 66 368.5t180.5 303.5t280 204.5t354.5 75.5q254 0 417 -147l-10 -64q-151 154 -412 154q-174 0 -326 -73
t-256 -195t-164 -284.5t-60 -338.5q0 -253 146.5 -402t401.5 -149q266 0 480 164l-13 -76q-208 -145 -473 -145z" />
    <glyph glyph-name="cdotaccent" unicode="&#x10b;" horiz-adv-x="972" 
d="M741 1403q-22 0 -36.5 15t-14.5 38q0 25 19 42.5t43 17.5q22 0 36.5 -15.5t14.5 -38.5q0 -26 -18.5 -42.5t-43.5 -16.5zM506 -20q-198 0 -312 117t-114 315q0 182 77.5 336.5t220 248t318.5 93.5q138 0 240 -95l-8 -59q-91 98 -238 98q-119 0 -222 -52t-173 -138
t-110 -199t-40 -233q0 -174 98 -275.5t269 -101.5q147 0 274 100l-10 -67q-124 -88 -270 -88z" />
    <glyph glyph-name="Ccaron" unicode="&#x10c;" horiz-adv-x="1390" 
d="M989 1716l-211 291h68l186 -252l279 252h67l-313 -291h-76zM1006 1536q254 0 417 -147l-10 -64q-151 154 -412 154q-174 0 -326 -73t-256 -195t-164 -284.5t-60 -338.5q0 -253 146.5 -402t401.5 -149q266 0 480 164l-13 -76q-208 -145 -473 -145q-284 0 -448 163.5
t-164 440.5q0 194 66 368.5t180.5 303.5t280 204.5t354.5 75.5z" />
    <glyph glyph-name="ccaron" unicode="&#x10d;" horiz-adv-x="972" 
d="M674 1270l-211 291h67l187 -252l278 252h68l-313 -291h-76zM80 412q0 182 77.5 336.5t220 248t318.5 93.5q138 0 240 -95l-8 -59q-91 98 -238 98q-119 0 -222 -52t-173 -138t-110 -199t-40 -233q0 -174 98 -275.5t269 -101.5q147 0 274 100l-10 -67q-124 -88 -270 -88
q-198 0 -312 117t-114 315z" />
    <glyph glyph-name="Dcaron" unicode="&#x10e;" horiz-adv-x="1531" 
d="M782 1716l-211 291h68l186 -252l279 252h67l-313 -291h-76zM838 1516q284 0 447 -161.5t163 -436.5q0 -190 -66 -359.5t-180.5 -292.5t-278 -194.5t-350.5 -71.5h-460l268 1516h457zM561 57q175 0 328 68.5t259 184t167 272t61 329.5q0 252 -150.5 399.5t-414.5 147.5
h-373l-248 -1401h371z" />
    <glyph glyph-name="dcaron" unicode="&#x10f;" horiz-adv-x="1351" 
d="M1118 772l146 825h61l-283 -1597h-59l43 244l8 49q-77 -146 -210.5 -229.5t-315.5 -83.5q-198 0 -313 117t-115 315q0 183 78.5 338t221 247.5t318.5 92.5q183 0 288.5 -86t131.5 -232zM1559 1597h63l-213 -383h-53zM528 35q207 0 358 138.5t191 363.5l2 16q8 49 8 98
q0 178 -101 280.5t-279 102.5q-122 0 -228.5 -50.5t-179.5 -135.5t-114.5 -197.5t-41.5 -234.5q0 -176 102.5 -278.5t282.5 -102.5z" />
    <glyph glyph-name="Dcroat" unicode="&#x110;" horiz-adv-x="1531" 
d="M838 1516q284 0 447 -161.5t163 -436.5q0 -190 -66 -359.5t-180.5 -292.5t-278 -194.5t-350.5 -71.5h-460l131 737h-183l9 51h182l129 728h457zM561 57q175 0 328 68.5t259 184t167 272t61 329.5q0 252 -150.5 399.5t-414.5 147.5h-373l-119 -670h463l-10 -51h-461
l-121 -680h371z" />
    <glyph glyph-name="dcroat" unicode="&#x111;" horiz-adv-x="1339" 
d="M1473 1368l-11 -51h-186l-234 -1317h-59l43 244l8 49q-77 -146 -210.5 -229.5t-315.5 -83.5q-198 0 -313 117t-115 315q0 183 78.5 338t221 247.5t318.5 92.5q183 0 288.5 -86t131.5 -232l96 545h-462l8 51h463l41 229h61l-41 -229h189zM528 35q207 0 358 138.5
t191 363.5l2 16q8 49 8 98q0 178 -101 280.5t-279 102.5q-122 0 -228.5 -50.5t-179.5 -135.5t-114.5 -197.5t-41.5 -234.5q0 -176 102.5 -278.5t282.5 -102.5z" />
    <glyph glyph-name="Emacron" unicode="&#x112;" horiz-adv-x="1241" 
d="M1163 1853l-8 -53h-575l8 53h575zM1241 1458h-803l-114 -653h759l-12 -57h-758l-123 -691h824l-10 -57h-891l268 1516h870z" />
    <glyph glyph-name="emacron" unicode="&#x113;" horiz-adv-x="1173" 
d="M1018 1407l-8 -53h-576l8 53h576zM1057 508h-905q-7 -58 -7 -102q0 -172 90.5 -272.5t251.5 -100.5q122 0 237.5 59.5t205.5 161.5l43 -39q-204 -235 -490 -235q-189 0 -296 116t-107 314q0 182 73.5 337t210.5 249t308 94q188 0 295.5 -113.5t107.5 -306.5
q0 -83 -18 -162zM668 1036q-98 0 -184.5 -38t-150.5 -103.5t-108 -151.5t-63 -184h839q11 71 11 111q0 171 -91.5 268.5t-252.5 97.5z" />
    <glyph glyph-name="Edotaccent" unicode="&#x116;" horiz-adv-x="1241" 
d="M881 1849q-22 0 -37 15.5t-15 38.5q0 25 19 42t43 17q22 0 36.5 -15t14.5 -38q0 -26 -18 -43t-43 -17zM1241 1458h-803l-114 -653h759l-12 -57h-758l-123 -691h824l-10 -57h-891l268 1516h870z" />
    <glyph glyph-name="edotaccent" unicode="&#x117;" horiz-adv-x="1173" 
d="M735 1403q-22 0 -36.5 15t-14.5 38q0 25 18.5 42.5t42.5 17.5q22 0 37 -15.5t15 -38.5q0 -26 -18.5 -42.5t-43.5 -16.5zM1057 508h-905q-7 -58 -7 -102q0 -172 90.5 -272.5t251.5 -100.5q122 0 237.5 59.5t205.5 161.5l43 -39q-204 -235 -490 -235q-189 0 -296 116
t-107 314q0 182 73.5 337t210.5 249t308 94q188 0 295.5 -113.5t107.5 -306.5q0 -83 -18 -162zM668 1036q-98 0 -184.5 -38t-150.5 -103.5t-108 -151.5t-63 -184h839q11 71 11 111q0 171 -91.5 268.5t-252.5 97.5z" />
    <glyph glyph-name="Eogonek" unicode="&#x118;" horiz-adv-x="1241" 
d="M1241 1458h-803l-114 -653h759l-12 -57h-758l-123 -691h824l-10 -57q-151 -90 -226.5 -176.5t-75.5 -161.5q0 -38 24.5 -62t64.5 -24q75 0 143 55l2 -45q-72 -57 -158 -57q-62 0 -98.5 33t-36.5 88q0 170 281 350h-811l268 1516h870z" />
    <glyph glyph-name="eogonek" unicode="&#x119;" horiz-adv-x="1173" 
d="M1057 508h-905q-7 -58 -7 -102q0 -172 90.5 -272.5t251.5 -100.5q122 0 237.5 59.5t205.5 161.5l43 -39q-143 -165 -336 -217q-149 -89 -224 -175t-75 -161q0 -38 24 -62t64 -24q75 0 143 55l2 -45q-72 -57 -157 -57q-62 0 -98.5 33t-36.5 88q0 79 64.5 164.5
t186.5 167.5q-16 -2 -47 -2q-189 0 -296 116t-107 314q0 182 73.5 337t210.5 249t308 94q188 0 295.5 -113.5t107.5 -306.5q0 -83 -18 -162zM668 1036q-98 0 -184.5 -38t-150.5 -103.5t-108 -151.5t-63 -184h839q11 71 11 111q0 171 -91.5 268.5t-252.5 97.5z" />
    <glyph glyph-name="Ecaron" unicode="&#x11a;" horiz-adv-x="1241" 
d="M813 1716l-211 291h68l186 -252l279 252h67l-313 -291h-76zM1241 1458h-803l-114 -653h759l-12 -57h-758l-123 -691h824l-10 -57h-891l268 1516h870z" />
    <glyph glyph-name="ecaron" unicode="&#x11b;" horiz-adv-x="1173" 
d="M668 1270l-211 291h67l187 -252l278 252h68l-314 -291h-75zM1057 508h-905q-7 -58 -7 -102q0 -172 90.5 -272.5t251.5 -100.5q122 0 237.5 59.5t205.5 161.5l43 -39q-204 -235 -490 -235q-189 0 -296 116t-107 314q0 182 73.5 337t210.5 249t308 94q188 0 295.5 -113.5
t107.5 -306.5q0 -83 -18 -162zM668 1036q-98 0 -184.5 -38t-150.5 -103.5t-108 -151.5t-63 -184h839q11 71 11 111q0 171 -91.5 268.5t-252.5 97.5z" />
    <glyph glyph-name="Gbreve" unicode="&#x11e;" horiz-adv-x="1605" 
d="M1026 1696q-118 0 -186 66t-68 177q0 33 6 68h58q-7 -40 -7 -63q0 -93 53 -147t146 -54q110 0 189.5 73t99.5 191h59q-25 -142 -120 -226.5t-230 -84.5zM1550 772v-16q-1 -140 -46.5 -264t-124.5 -216.5t-183 -160t-225 -101.5t-248 -34q-278 0 -437 162.5t-159 439.5
q0 193 64 367.5t176 304t274.5 206t349.5 76.5q149 0 256.5 -33.5t206.5 -116.5l-49 -45q-159 138 -418 138q-170 0 -319.5 -74t-251.5 -197.5t-160.5 -286t-58.5 -337.5q0 -252 142.5 -399.5t391.5 -147.5q139 0 271 48.5t235.5 134.5t169 214.5t72.5 278.5h-549l12 59h608
z" />
    <glyph glyph-name="gbreve" unicode="&#x11f;" horiz-adv-x="1341" 
d="M772 1249q-118 0 -186 66.5t-68 177.5q0 33 6 68h58q-7 -40 -7 -64q0 -93 53 -147t146 -54q110 0 189.5 73.5t99.5 191.5h59q-25 -142 -120 -227t-230 -85zM1176 1069h59l-268 -1520h-1014l10 54h955l118 690q-75 -145 -209 -229t-317 -84q-198 0 -313 117t-115 315
q0 183 78.5 338t221 247.5t318.5 92.5q183 0 288.5 -86t131.5 -232l10 53zM530 35q207 0 358 138.5t191 363.5l2 6q9 65 9 108q0 178 -101.5 280.5t-279.5 102.5q-122 0 -228.5 -50.5t-179.5 -135.5t-114.5 -197.5t-41.5 -234.5q0 -176 102.5 -278.5t282.5 -102.5z" />
    <glyph glyph-name="Gdotaccent" unicode="&#x120;" horiz-adv-x="1605" 
d="M1055 1849q-22 0 -36.5 15.5t-14.5 38.5q0 25 18.5 42t42.5 17q22 0 36.5 -15t14.5 -38q0 -26 -18 -43t-43 -17zM1550 772v-16q-1 -140 -46.5 -264t-124.5 -216.5t-183 -160t-225 -101.5t-248 -34q-278 0 -437 162.5t-159 439.5q0 193 64 367.5t176 304t274.5 206
t349.5 76.5q149 0 256.5 -33.5t206.5 -116.5l-49 -45q-159 138 -418 138q-170 0 -319.5 -74t-251.5 -197.5t-160.5 -286t-58.5 -337.5q0 -252 142.5 -399.5t391.5 -147.5q139 0 271 48.5t235.5 134.5t169 214.5t72.5 278.5h-549l12 59h608z" />
    <glyph glyph-name="gdotaccent" unicode="&#x121;" horiz-adv-x="1341" 
d="M801 1403q-22 0 -36.5 15t-14.5 38q0 25 18.5 42.5t42.5 17.5q22 0 36.5 -15.5t14.5 -38.5q0 -26 -18 -42.5t-43 -16.5zM1176 1069h59l-268 -1520h-1014l10 54h955l118 690q-75 -145 -209 -229t-317 -84q-198 0 -313 117t-115 315q0 183 78.5 338t221 247.5t318.5 92.5
q183 0 288.5 -86t131.5 -232l10 53zM530 35q207 0 358 138.5t191 363.5l2 6q9 65 9 108q0 178 -101.5 280.5t-279.5 102.5q-122 0 -228.5 -50.5t-179.5 -135.5t-114.5 -197.5t-41.5 -234.5q0 -176 102.5 -278.5t282.5 -102.5z" />
    <glyph glyph-name="Gcommaaccent" unicode="&#x122;" horiz-adv-x="1605" 
d="M1550 772v-16q-1 -140 -46.5 -264t-124.5 -216.5t-183 -160t-225 -101.5t-248 -34q-278 0 -437 162.5t-159 439.5q0 193 64 367.5t176 304t274.5 206t349.5 76.5q149 0 256.5 -33.5t206.5 -116.5l-49 -45q-159 138 -418 138q-170 0 -319.5 -74t-251.5 -197.5t-160.5 -286
t-58.5 -337.5q0 -252 142.5 -399.5t391.5 -147.5q139 0 271 48.5t235.5 134.5t169 214.5t72.5 278.5h-549l12 59h608zM502 -451l182 345h64l-195 -345h-51z" />
    <glyph glyph-name="gcommaaccent" unicode="&#x123;" horiz-adv-x="1341" 
d="M971 1597l-203 -383h-63l213 383h53zM1176 1069h59l-268 -1520h-1014l10 54h955l118 690q-75 -145 -209 -229t-317 -84q-198 0 -313 117t-115 315q0 183 78.5 338t221 247.5t318.5 92.5q183 0 288.5 -86t131.5 -232l10 53zM530 35q207 0 358 138.5t191 363.5l2 6
q9 65 9 108q0 178 -101.5 280.5t-279.5 102.5q-122 0 -228.5 -50.5t-179.5 -135.5t-114.5 -197.5t-41.5 -234.5q0 -176 102.5 -278.5t282.5 -102.5z" />
    <glyph glyph-name="Hbar" unicode="&#x126;" horiz-adv-x="1605" 
d="M1673 1206l-8 -51h-192l-205 -1155h-70l131 739h-1018l-131 -739h-67l204 1155h-190l8 51h191l55 310h68l-56 -310h1018l55 310h70l-55 -310h192zM1339 797l64 358h-1018l-63 -358h1017z" />
    <glyph glyph-name="hbar" unicode="&#x127;" horiz-adv-x="1275" 
d="M735 1090q179 0 283 -91.5t104 -244.5q0 -22 -8 -80l-119 -674h-61l117 659q6 40 6 76q0 138 -90 218.5t-248 80.5q-180 0 -309 -103t-160 -272v-4l-117 -655h-61l233 1317h-184l8 51h184l41 229h62l-41 -229h467l-11 -51h-464l-82 -469q135 242 450 242z" />
    <glyph glyph-name="Imacron" unicode="&#x12a;" horiz-adv-x="518" 
d="M178 1800l8 53h576l-8 -53h-576zM113 0l268 1516h68l-269 -1516h-67z" />
    <glyph glyph-name="imacron" unicode="&#x12b;" horiz-adv-x="438" 
d="M57 1354l9 53h575l-8 -53h-576zM76 0l188 1069h62l-189 -1069h-61z" />
    <glyph glyph-name="Iogonek" unicode="&#x12e;" horiz-adv-x="518" 
d="M180 0q-301 -181 -301 -338q0 -38 24 -62t64 -24q76 0 144 55l2 -45q-72 -57 -158 -57q-62 0 -98.5 33t-36.5 88q0 86 76.5 179t218.5 181l266 1506h68z" />
    <glyph glyph-name="iogonek" unicode="&#x12f;" horiz-adv-x="438" 
d="M369 1516q22 0 36.5 -15.5t14.5 -38.5q0 -26 -18.5 -42.5t-43.5 -16.5q-22 0 -36.5 15t-14.5 38q0 25 19 42.5t43 17.5zM78 14l186 1055h62l-189 -1069q-301 -181 -301 -338q0 -38 24 -62t64 -24q76 0 144 55l2 -45q-72 -57 -158 -57q-62 0 -98.5 33t-36.5 88
q0 87 77.5 180.5t223.5 183.5z" />
    <glyph glyph-name="Idotaccent" unicode="&#x130;" horiz-adv-x="518" 
d="M479 1849q-22 0 -36.5 15.5t-14.5 38.5q0 25 18.5 42t42.5 17q22 0 37 -15t15 -38q0 -26 -18.5 -43t-43.5 -17zM113 0l268 1516h68l-269 -1516h-67z" />
    <glyph glyph-name="dotlessi" unicode="&#x131;" horiz-adv-x="438" 
d="M76 0l188 1069h62l-189 -1069h-61z" />
    <glyph glyph-name="Kcommaaccent" unicode="&#x136;" horiz-adv-x="1347" 
d="M1462 1516l-712 -740l458 -776h-82l-440 750h-373l-133 -750h-67l268 1516h68l-125 -709h368l684 709h86zM399 -451l183 345h63l-194 -345h-52z" />
    <glyph glyph-name="kcommaaccent" unicode="&#x137;" horiz-adv-x="1114" 
d="M1151 1069l-563 -508l397 -561h-80l-375 535h-303l-94 -535h-61l282 1597h62l-178 -1009h294l533 481h86zM246 -451l182 345h64l-195 -345h-51z" />
    <glyph glyph-name="Lacute" unicode="&#x139;" horiz-adv-x="1050" 
d="M809 2007l-336 -291h-65l309 291h92zM190 57h748l-10 -57h-815l268 1516h68z" />
    <glyph glyph-name="lacute" unicode="&#x13a;" horiz-adv-x="493" 
d="M385 1798l309 291h92l-335 -291h-66zM80 0l282 1597h62l-274 -1544h243l-10 -53h-303z" />
    <glyph glyph-name="Lcommaaccent" unicode="&#x13b;" horiz-adv-x="1050" 
d="M190 57h748l-10 -57h-815l268 1516h68zM258 -451l182 345h64l-195 -345h-51z" />
    <glyph glyph-name="lcommaaccent" unicode="&#x13c;" horiz-adv-x="493" 
d="M80 0l282 1597h62l-274 -1544h243l-10 -53h-303zM2 -451l182 345h64l-195 -345h-51z" />
    <glyph glyph-name="Lcaron" unicode="&#x13d;" horiz-adv-x="1024" 
d="M449 1516l-259 -1459h748l-10 -57h-815l268 1516h68zM1057 1516l-215 -388h-56l205 388h66z" />
    <glyph glyph-name="lcaron" unicode="&#x13e;" horiz-adv-x="497" 
d="M80 0l282 1597h62l-274 -1544h243l-10 -53h-303zM455 1214l202 383h64l-215 -383h-51z" />
    <glyph glyph-name="Lslash" unicode="&#x141;" horiz-adv-x="1050" 
d="M190 57h748l-10 -57h-815l137 770l-205 -129l10 61l205 127l121 687h68l-115 -648l256 160l-12 -59l-254 -158z" />
    <glyph glyph-name="lslash" unicode="&#x142;" horiz-adv-x="493" 
d="M516 969l-229 -144l-137 -772h243l-10 -53h-303l139 791l-235 -150l10 61l235 148l133 747h62l-127 -712l231 143z" />
    <glyph glyph-name="Nacute" unicode="&#x143;" horiz-adv-x="1681" 
d="M989 1716l309 291h93l-336 -291h-66zM113 0l268 1516h47l870 -1391l246 1391h68l-269 -1516h-45l-872 1391l-246 -1391h-67z" />
    <glyph glyph-name="nacute" unicode="&#x144;" horiz-adv-x="1275" 
d="M1116 1561l-336 -291h-65l309 291h92zM735 1090q179 0 283 -91.5t104 -244.5q0 -22 -8 -80l-119 -674h-61l117 659q6 40 6 76q0 138 -90 218.5t-248 80.5q-181 0 -310.5 -104.5t-158.5 -274.5l-117 -655h-61l188 1069h62l-39 -223q64 115 177.5 179.5t274.5 64.5z" />
    <glyph glyph-name="Ncommaaccent" unicode="&#x145;" horiz-adv-x="1681" 
d="M113 0l268 1516h47l870 -1391l246 1391h68l-269 -1516h-45l-872 1391l-246 -1391h-67zM518 -451l182 345h64l-195 -345h-51z" />
    <glyph glyph-name="ncommaaccent" unicode="&#x146;" horiz-adv-x="1275" 
d="M735 1090q179 0 283 -91.5t104 -244.5q0 -22 -8 -80l-119 -674h-61l117 659q6 40 6 76q0 138 -90 218.5t-248 80.5q-181 0 -310.5 -104.5t-158.5 -274.5l-117 -655h-61l188 1069h62l-39 -223q64 115 177.5 179.5t274.5 64.5zM322 -451l182 345h63l-194 -345h-51z" />
    <glyph glyph-name="Ncaron" unicode="&#x147;" horiz-adv-x="1681" 
d="M993 1716l-211 291h68l186 -252l279 252h67l-313 -291h-76zM1544 1516h68l-269 -1516h-45l-872 1391l-246 -1391h-67l268 1516h47l870 -1391z" />
    <glyph glyph-name="ncaron" unicode="&#x148;" horiz-adv-x="1275" 
d="M719 1270l-211 291h67l187 -252l278 252h68l-313 -291h-76zM735 1090q179 0 283 -91.5t104 -244.5q0 -22 -8 -80l-119 -674h-61l117 659q6 40 6 76q0 138 -90 218.5t-248 80.5q-181 0 -310.5 -104.5t-158.5 -274.5l-117 -655h-61l188 1069h62l-39 -223
q64 115 177.5 179.5t274.5 64.5z" />
    <glyph glyph-name="Eng" unicode="&#x14a;" horiz-adv-x="1681" 
d="M1544 1516h68l-269 -1516l-26 -164q-27 -144 -123 -226.5t-244 -82.5q-76 0 -142 27.5t-101 74.5l24 43q37 -43 96.5 -65.5t124.5 -22.5q115 0 196 76t103 199l29 170l-854 1362l-246 -1391h-67l268 1516h47l870 -1391z" />
    <glyph glyph-name="eng" unicode="&#x14b;" horiz-adv-x="1275" 
d="M735 1090q179 0 283 -91.5t104 -244.5q0 -22 -8 -80l-151 -854q-23 -133 -111 -212t-211 -79q-98 0 -162 31l13 53q60 -31 145 -31q98 0 173 71t95 183l146 823q6 40 6 76q0 138 -90 218.5t-248 80.5q-181 0 -310.5 -104.5t-158.5 -274.5l-117 -655h-61l188 1069h62
l-39 -223q64 115 177.5 179.5t274.5 64.5z" />
    <glyph glyph-name="Omacron" unicode="&#x14c;" horiz-adv-x="1701" 
d="M768 1800l8 53h576l-9 -53h-575zM737 -20q-284 0 -448 163.5t-164 440.5q0 194 66 368.5t180.5 303.5t280 204.5t354.5 75.5q285 0 448.5 -163.5t163.5 -444.5q0 -192 -66 -365.5t-181 -302t-280.5 -204.5t-353.5 -76zM743 37q173 0 324.5 73.5t256 196t164.5 284.5
t60 337q0 253 -146.5 402t-400.5 149q-174 0 -326 -73t-256 -195t-164 -284.5t-60 -338.5q0 -253 146.5 -402t401.5 -149z" />
    <glyph glyph-name="omacron" unicode="&#x14d;" horiz-adv-x="1269" 
d="M473 1354l8 53h576l-8 -53h-576zM522 -20q-206 0 -324 118.5t-118 319.5q0 184 81 337.5t226.5 244t325.5 90.5q204 0 322 -119t118 -320q0 -137 -47.5 -260.5t-130.5 -214t-201 -143.5t-252 -53zM528 35q161 0 290.5 86t199 226.5t69.5 305.5q0 175 -101.5 278
t-278.5 103q-162 0 -292 -85.5t-200 -226t-70 -306.5q0 -176 102 -278.5t281 -102.5z" />
    <glyph glyph-name="Ohungarumlaut" unicode="&#x150;" horiz-adv-x="1701" 
d="M877 1716l270 291h86l-295 -291h-61zM1118 1716l268 291h89l-295 -291h-62zM737 -20q-284 0 -448 163.5t-164 440.5q0 194 66 368.5t180.5 303.5t280 204.5t354.5 75.5q285 0 448.5 -163.5t163.5 -444.5q0 -192 -66 -365.5t-181 -302t-280.5 -204.5t-353.5 -76zM743 37
q173 0 324.5 73.5t256 196t164.5 284.5t60 337q0 253 -146.5 402t-400.5 149q-174 0 -326 -73t-256 -195t-164 -284.5t-60 -338.5q0 -253 146.5 -402t401.5 -149z" />
    <glyph glyph-name="ohungarumlaut" unicode="&#x151;" horiz-adv-x="1269" 
d="M582 1270l270 291h86l-295 -291h-61zM823 1270l269 291h88l-295 -291h-62zM522 -20q-206 0 -324 118.5t-118 319.5q0 184 81 337.5t226.5 244t325.5 90.5q204 0 322 -119t118 -320q0 -137 -47.5 -260.5t-130.5 -214t-201 -143.5t-252 -53zM528 35q161 0 290.5 86
t199 226.5t69.5 305.5q0 175 -101.5 278t-278.5 103q-162 0 -292 -85.5t-200 -226t-70 -306.5q0 -176 102 -278.5t281 -102.5z" />
    <glyph glyph-name="OE" unicode="&#x152;" horiz-adv-x="2529" 
d="M2529 1458h-803l-114 -653h760l-11 -57h-759l-123 -691h825l-12 -57h-891l74 418q-116 -202 -308.5 -320t-431.5 -118q-283 0 -446.5 163.5t-163.5 440.5q0 193 66 367.5t180.5 303.5t279 205t353.5 76q237 0 391.5 -120t197.5 -331l76 431h873zM743 37q173 0 324.5 73.5
t256 196t164.5 284.5t60 337q0 253 -146.5 402t-400.5 149q-174 0 -326 -73t-256 -195t-164 -284.5t-60 -338.5q0 -253 146.5 -402t401.5 -149z" />
    <glyph glyph-name="oe" unicode="&#x153;" horiz-adv-x="2162" 
d="M2044 508h-905q-6 -50 -6 -102q0 -172 91 -272.5t251 -100.5q123 0 238.5 59t205.5 162l41 -39q-201 -235 -487 -235q-173 0 -276 103.5t-114 283.5q-74 -175 -223.5 -281t-339.5 -106q-204 0 -322 118.5t-118 317.5q0 185 80.5 339t225.5 244.5t325 90.5
q187 0 299.5 -104t126.5 -284q70 175 208.5 281.5t317.5 106.5q186 0 293.5 -113.5t107.5 -306.5q0 -84 -20 -162zM1657 1036q-193 0 -329.5 -136t-178.5 -341h840q10 65 10 111q0 171 -90.5 268.5t-251.5 97.5zM530 35q160 0 289 85.5t198.5 226.5t69.5 306
q0 175 -101.5 278t-278.5 103q-162 0 -292 -85.5t-200 -226t-70 -306.5q0 -176 102.5 -278.5t282.5 -102.5z" />
    <glyph glyph-name="Racute" unicode="&#x154;" horiz-adv-x="1386" 
d="M1210 2007l-336 -291h-65l309 291h92zM1315 1165q0 -187 -121.5 -321.5t-312.5 -173.5l329 -670h-80l-325 659q-18 -2 -57 -2h-451l-117 -657h-67l268 1516h506q197 0 312.5 -95.5t115.5 -255.5zM745 717q212 0 354 126t142 318q0 137 -100 217t-271 80h-432l-131 -741
h438z" />
    <glyph glyph-name="racute" unicode="&#x155;" horiz-adv-x="710" 
d="M475 1270l309 291h93l-336 -291h-66zM72 0l188 1069h62l-41 -229q68 130 188.5 190t300.5 60l-12 -58q-212 0 -344.5 -102.5t-165.5 -280.5l-115 -649h-61z" />
    <glyph glyph-name="Rcommaaccent" unicode="&#x156;" horiz-adv-x="1386" 
d="M1315 1165q0 -187 -121.5 -321.5t-312.5 -173.5l329 -670h-80l-325 659q-18 -2 -57 -2h-451l-117 -657h-67l268 1516h506q197 0 312.5 -95.5t115.5 -255.5zM745 717q212 0 354 126t142 318q0 137 -100 217t-271 80h-432l-131 -741h438zM381 -451l182 345h64l-195 -345
h-51z" />
    <glyph glyph-name="rcommaaccent" unicode="&#x157;" horiz-adv-x="710" 
d="M72 0l188 1069h62l-41 -229q68 130 188.5 190t300.5 60l-12 -58q-212 0 -344.5 -102.5t-165.5 -280.5l-115 -649h-61zM-90 -451l182 345h64l-195 -345h-51z" />
    <glyph glyph-name="Rcaron" unicode="&#x158;" horiz-adv-x="1386" 
d="M813 1716l-211 291h68l186 -252l279 252h67l-313 -291h-76zM1315 1165q0 -187 -121.5 -321.5t-312.5 -173.5l329 -670h-80l-325 659q-18 -2 -57 -2h-451l-117 -657h-67l268 1516h506q197 0 312.5 -95.5t115.5 -255.5zM745 717q212 0 354 126t142 318q0 137 -100 217
t-271 80h-432l-131 -741h438z" />
    <glyph glyph-name="rcaron" unicode="&#x159;" horiz-adv-x="710" 
d="M479 1270l-211 291h68l186 -252l279 252h67l-313 -291h-76zM281 840q68 130 188.5 190t300.5 60l-12 -58q-212 0 -344.5 -102.5t-165.5 -280.5l-115 -649h-61l188 1069h62z" />
    <glyph glyph-name="Sacute" unicode="&#x15a;" horiz-adv-x="1222" 
d="M774 1716l309 291h93l-336 -291h-66zM483 -20q-145 0 -261.5 43t-172.5 127l39 47q125 -160 393 -160q144 0 263.5 48.5t190.5 137.5t71 201q0 60 -27 108t-81 85.5t-117.5 65t-153.5 56.5l-107 35q-66 20 -116.5 44.5t-97 60.5t-71 88.5t-24.5 117.5q0 132 75.5 236
t203 159.5t282.5 55.5q285 0 418 -176l-45 -45q-126 164 -379 164q-206 0 -343.5 -109.5t-137.5 -273.5q0 -56 21.5 -99.5t63.5 -74t86.5 -50t108.5 -38.5l113 -37q65 -21 112 -39t105 -50t94.5 -67.5t62 -89t25.5 -117.5q0 -136 -81 -240.5t-215 -159t-298 -54.5z" />
    <glyph glyph-name="sacute" unicode="&#x15b;" horiz-adv-x="925" 
d="M543 1270l309 291h92l-336 -291h-65zM344 -20q-108 0 -195 27.5t-131 76.5l35 39q93 -90 293 -90q149 0 254 77.5t105 190.5q0 137 -213 201l-125 41q-110 33 -170 83t-60 136q0 143 114.5 235.5t283.5 92.5q184 0 323 -91l-35 -45q-114 82 -286 82q-142 0 -238 -75
t-96 -185q0 -69 48.5 -108.5t141.5 -69.5l127 -41q250 -78 250 -248q0 -145 -122 -237t-304 -92z" />
    <glyph glyph-name="Scedilla" unicode="&#x15e;" horiz-adv-x="1222" 
d="M772 1536q285 0 418 -176l-45 -45q-126 164 -379 164q-206 0 -343.5 -109.5t-137.5 -273.5q0 -56 21.5 -99.5t63.5 -74t86.5 -50t108.5 -38.5l113 -37q65 -21 112 -39t105 -50t94.5 -67.5t62 -89t25.5 -117.5q0 -127 -70.5 -226.5t-188.5 -156.5t-267 -69l-115 -134
q50 5 66 5q87 0 137.5 -38t50.5 -100q0 -86 -75 -136t-183 -50q-116 0 -182 63l29 37q56 -53 151 -53q84 0 142.5 38.5t58.5 98.5q0 44 -40 70.5t-108 26.5q-57 0 -112 -19l-13 27l134 162h-9q-145 0 -261.5 43t-172.5 127l39 47q125 -160 393 -160q144 0 263.5 48.5
t190.5 137.5t71 201q0 60 -27 108t-81 85.5t-117.5 65t-153.5 56.5l-107 35q-66 20 -116.5 44.5t-97 60.5t-71 88.5t-24.5 117.5q0 132 75.5 236t203 159.5t282.5 55.5z" />
    <glyph glyph-name="scedilla" unicode="&#x15f;" horiz-adv-x="925" 
d="M537 1036q-142 0 -238 -75t-96 -185q0 -69 48.5 -108.5t141.5 -69.5l127 -41q250 -78 250 -248q0 -134 -107.5 -224.5t-271.5 -102.5l-112 -134q50 5 65 5q87 0 137.5 -38t50.5 -100q0 -86 -75 -136t-183 -50q-116 0 -182 63l29 37q56 -53 151 -53q84 0 142.5 38.5
t58.5 98.5q0 44 -40 70.5t-107 26.5q-58 0 -113 -19l-12 27l133 162q-105 2 -189 29.5t-127 74.5l35 39q93 -90 293 -90q149 0 254 77.5t105 190.5q0 137 -213 201l-125 41q-110 33 -170 83t-60 136q0 143 114.5 235.5t283.5 92.5q184 0 323 -91l-35 -45q-114 82 -286 82z
" />
    <glyph glyph-name="Scaron" unicode="&#x160;" horiz-adv-x="1222" 
d="M778 1716l-211 291h68l186 -252l279 252h67l-313 -291h-76zM772 1536q285 0 418 -176l-45 -45q-126 164 -379 164q-206 0 -343.5 -109.5t-137.5 -273.5q0 -56 21.5 -99.5t63.5 -74t86.5 -50t108.5 -38.5l113 -37q65 -21 112 -39t105 -50t94.5 -67.5t62 -89t25.5 -117.5
q0 -136 -81 -240.5t-215 -159t-298 -54.5q-145 0 -261.5 43t-172.5 127l39 47q125 -160 393 -160q144 0 263.5 48.5t190.5 137.5t71 201q0 60 -27 108t-81 85.5t-117.5 65t-153.5 56.5l-107 35q-66 20 -116.5 44.5t-97 60.5t-71 88.5t-24.5 117.5q0 132 75.5 236t203 159.5
t282.5 55.5z" />
    <glyph glyph-name="scaron" unicode="&#x161;" horiz-adv-x="925" 
d="M547 1270l-211 291h67l187 -252l278 252h68l-313 -291h-76zM137 762q0 143 114.5 235.5t283.5 92.5q184 0 323 -91l-35 -45q-114 82 -286 82q-142 0 -238 -75t-96 -185q0 -69 48.5 -108.5t141.5 -69.5l127 -41q250 -78 250 -248q0 -145 -122 -237t-304 -92
q-108 0 -195 27.5t-131 76.5l35 39q93 -90 293 -90q149 0 254 77.5t105 190.5q0 137 -213 201l-125 41q-110 33 -170 83t-60 136z" />
    <glyph glyph-name="uni0162" unicode="&#x162;" horiz-adv-x="1124" 
d="M479 0h-4l-129 -154q35 7 66 7q87 0 137.5 -38t50.5 -100q0 -86 -75 -136t-183 -50q-114 0 -180 63l26 37q56 -53 152 -53q84 0 142.5 38.5t58.5 98.5q0 44 -39.5 70.5t-108.5 26.5q-57 0 -112 -19l-13 27l150 182h-6l258 1458h-506l10 58h1079l-10 -58h-506z" />
    <glyph glyph-name="uni0163" unicode="&#x163;" horiz-adv-x="638" 
d="M256 0h-4l-129 -154q35 7 70 7q87 0 137.5 -38t50.5 -100q0 -86 -75 -136t-183 -50q-114 0 -180 63l26 37q56 -53 152 -53q84 0 142.5 38.5t58.5 98.5q0 44 -39.5 70.5t-108.5 26.5q-58 0 -113 -19l-12 27l152 182h-6l180 1016h-293l8 53h295l55 313h62l-56 -313h293
l-10 -53h-293z" />
    <glyph glyph-name="Tcaron" unicode="&#x164;" horiz-adv-x="1124" 
d="M709 1716l-211 291h67l187 -252l278 252h68l-314 -291h-75zM1253 1516l-10 -58h-506l-258 -1458h-67l258 1458h-506l10 58h1079z" />
    <glyph glyph-name="tcaron" unicode="&#x165;" horiz-adv-x="638" 
d="M926 1597l-215 -383h-52l203 383h64zM502 1382l-56 -313h293l-10 -53h-293l-180 -1016h-61l180 1016h-293l8 53h295l55 313h62z" />
    <glyph glyph-name="Tbar" unicode="&#x166;" horiz-adv-x="1124" 
d="M1243 1458h-506l-123 -692h334l-10 -51h-332l-127 -715h-67l127 715h-312l9 51h311l123 692h-506l10 58h1079z" />
    <glyph glyph-name="tbar" unicode="&#x167;" horiz-adv-x="727" 
d="M774 1016h-295l-80 -457h254l-10 -51h-252l-90 -508h-61l90 508h-256l8 51h256l80 457h-293l10 53h293l55 313h62l-56 -313h293z" />
    <glyph glyph-name="Umacron" unicode="&#x16a;" horiz-adv-x="1601" 
d="M719 1800l8 53h576l-9 -53h-575zM690 -20q-238 0 -377 118t-139 318q0 44 10 106l176 994h68l-176 -996q-8 -47 -8 -96q0 -179 119 -283t329 -104q238 0 408.5 134.5t208.5 352.5l176 992h67l-178 -1000q-43 -243 -230.5 -389.5t-453.5 -146.5z" />
    <glyph glyph-name="umacron" unicode="&#x16b;" horiz-adv-x="1245" 
d="M461 1354l8 53h575l-8 -53h-575zM510 -20q-182 0 -286.5 91t-104.5 244q0 24 8 82l119 672h61l-117 -659q-8 -58 -8 -80q0 -137 88.5 -216t241.5 -79q178 0 305 104.5t156 274.5l117 655h61l-119 -676q-32 -187 -175.5 -300t-346.5 -113z" />
    <glyph glyph-name="Uring" unicode="&#x16e;" horiz-adv-x="1601" 
d="M981 1642q-83 0 -131.5 46.5t-48.5 123.5q0 109 70.5 181.5t177.5 72.5q84 0 133 -46.5t49 -125.5q0 -106 -71.5 -179t-178.5 -73zM983 1686q86 0 141.5 63.5t55.5 144.5q0 60 -35 94.5t-98 34.5q-86 0 -140.5 -63t-54.5 -148q0 -59 35 -92.5t96 -33.5zM690 -20
q-238 0 -377 118t-139 318q0 44 10 106l176 994h68l-176 -996q-8 -47 -8 -96q0 -179 119 -283t329 -104q238 0 408.5 134.5t208.5 352.5l176 992h67l-178 -1000q-43 -243 -230.5 -389.5t-453.5 -146.5z" />
    <glyph glyph-name="uring" unicode="&#x16f;" horiz-adv-x="1245" 
d="M723 1196q-83 0 -131.5 46.5t-48.5 123.5q0 109 70.5 181.5t177.5 72.5q84 0 133 -46.5t49 -125.5q0 -106 -71.5 -179t-178.5 -73zM725 1239q85 0 141 64t56 145q0 60 -35.5 94.5t-98.5 34.5q-86 0 -140 -63t-54 -148q0 -59 35 -93t96 -34zM510 -20q-182 0 -286.5 91
t-104.5 244q0 24 8 82l119 672h61l-117 -659q-8 -58 -8 -80q0 -137 88.5 -216t241.5 -79q178 0 305 104.5t156 274.5l117 655h61l-119 -676q-32 -187 -175.5 -300t-346.5 -113z" />
    <glyph glyph-name="Uhungarumlaut" unicode="&#x170;" horiz-adv-x="1601" 
d="M827 1716l271 291h86l-295 -291h-62zM1069 1716l268 291h88l-295 -291h-61zM690 -20q-238 0 -377 118t-139 318q0 44 10 106l176 994h68l-176 -996q-8 -47 -8 -96q0 -179 119 -283t329 -104q238 0 408.5 134.5t208.5 352.5l176 992h67l-178 -1000q-43 -243 -230.5 -389.5
t-453.5 -146.5z" />
    <glyph glyph-name="uhungarumlaut" unicode="&#x171;" horiz-adv-x="1245" 
d="M569 1270l271 291h86l-295 -291h-62zM811 1270l268 291h88l-295 -291h-61zM510 -20q-182 0 -286.5 91t-104.5 244q0 24 8 82l119 672h61l-117 -659q-8 -58 -8 -80q0 -137 88.5 -216t241.5 -79q178 0 305 104.5t156 274.5l117 655h61l-119 -676q-32 -187 -175.5 -300
t-346.5 -113z" />
    <glyph glyph-name="Uogonek" unicode="&#x172;" horiz-adv-x="1601" 
d="M1485 1516h67l-178 -1000q-35 -198 -169.5 -334.5t-334.5 -181.5q-149 -90 -224 -176.5t-75 -161.5q0 -38 24 -62t64 -24q76 0 144 55l2 -45q-72 -57 -158 -57q-62 0 -98.5 33t-36.5 88q0 79 65.5 164.5t188.5 169.5q-50 -4 -76 -4q-238 0 -377 118t-139 318q0 44 10 106
l176 994h68l-176 -996q-8 -47 -8 -96q0 -179 119 -283t329 -104q238 0 408.5 134.5t208.5 352.5z" />
    <glyph glyph-name="uogonek" unicode="&#x173;" horiz-adv-x="1245" 
d="M1090 1069h61l-119 -676q-26 -149 -123.5 -252.5t-242.5 -140.5q-149 -90 -224 -176.5t-75 -161.5q0 -38 24 -62t64 -24q75 0 143 55l2 -45q-72 -57 -158 -57q-62 0 -98.5 33t-36.5 88q0 79 65 164.5t187 167.5q-16 -2 -49 -2q-182 0 -286.5 91t-104.5 244q0 24 8 82
l119 672h61l-117 -659q-8 -58 -8 -80q0 -137 88.5 -216t241.5 -79q178 0 305 104.5t156 274.5z" />
    <glyph glyph-name="Wcircumflex" unicode="&#x174;" horiz-adv-x="2209" 
d="M1341 1968l-280 -252h-66l314 291h75l211 -291h-65zM2267 1516h74l-821 -1516h-68l-209 1413l-713 -1413h-65l-287 1516h74l262 -1424l711 1424h69l207 -1424z" />
    <glyph glyph-name="wcircumflex" unicode="&#x175;" horiz-adv-x="1851" 
d="M1083 1522l-280 -252h-66l314 291h75l211 -291h-65zM1825 1069h69l-620 -1069h-66l-219 989l-571 -989h-66l-243 1069h69l219 -995l574 995h61l219 -995z" />
    <glyph glyph-name="Ycircumflex" unicode="&#x176;" horiz-adv-x="1290" 
d="M881 1968l-281 -252h-65l313 291h76l211 -291h-66zM1325 1516h82l-727 -865l-115 -651h-67l114 651l-422 865h80l385 -797z" />
    <glyph glyph-name="ycircumflex" unicode="&#x177;" horiz-adv-x="1257" 
d="M772 1522l-280 -252h-66l313 291h76l211 -291h-65zM1087 1069h62l-268 -1520h-895l8 54h835l109 616q-135 -239 -440 -239q-176 0 -277.5 90.5t-101.5 242.5q0 24 8 82l119 674h61l-117 -659q-6 -43 -6 -80q0 -137 87.5 -216t240.5 -79q177 0 303.5 103t157.5 270v6z" />
    <glyph glyph-name="Ydieresis" unicode="&#x178;" horiz-adv-x="1290" 
d="M682 1849q-21 0 -35 15t-14 37q0 27 19.5 44t43.5 17q22 0 35.5 -14.5t13.5 -36.5q0 -28 -19.5 -45t-43.5 -17zM1042 1849q-21 0 -35 15t-14 37q0 27 19.5 44t42.5 17q22 0 35.5 -14.5t13.5 -36.5q0 -27 -20 -44.5t-42 -17.5zM498 0l114 651l-422 865h80l385 -797
l670 797h82l-727 -865l-115 -651h-67z" />
    <glyph glyph-name="Zacute" unicode="&#x179;" horiz-adv-x="1124" 
d="M1112 2007l-336 -291h-65l309 291h92zM1208 1516l-1142 -1459h897l-11 -57h-1005l1140 1458h-872l12 58h981z" />
    <glyph glyph-name="zacute" unicode="&#x17a;" horiz-adv-x="964" 
d="M551 1270l309 291h92l-336 -291h-65zM-47 0l895 1016h-707l9 53h817l-895 -1016h725l-11 -53h-833z" />
    <glyph glyph-name="Zdotaccent" unicode="&#x17b;" horiz-adv-x="1124" 
d="M782 1849q-22 0 -36.5 15.5t-14.5 38.5q0 25 19 42t43 17q22 0 36.5 -15t14.5 -38q0 -26 -18.5 -43t-43.5 -17zM1208 1516l-1142 -1459h897l-11 -57h-1005l1140 1458h-872l12 58h981z" />
    <glyph glyph-name="zdotaccent" unicode="&#x17c;" horiz-adv-x="964" 
d="M623 1403q-22 0 -37 15t-15 38q0 25 19 42.5t43 17.5q22 0 36.5 -15.5t14.5 -38.5q0 -26 -18 -42.5t-43 -16.5zM-47 0l895 1016h-707l9 53h817l-895 -1016h725l-11 -53h-833z" />
    <glyph glyph-name="Zcaron" unicode="&#x17d;" horiz-adv-x="1124" 
d="M715 1716l-211 291h67l187 -252l278 252h68l-313 -291h-76zM1208 1516l-1142 -1459h897l-11 -57h-1005l1140 1458h-872l12 58h981z" />
    <glyph glyph-name="zcaron" unicode="&#x17e;" horiz-adv-x="964" 
d="M555 1270l-211 291h68l186 -252l279 252h67l-313 -291h-76zM967 1069l-895 -1016h725l-11 -53h-833l895 1016h-707l9 53h817z" />
    <glyph glyph-name="florin" unicode="&#x192;" horiz-adv-x="937" 
d="M907 1536q79 0 137 -25l-14 -55q-59 23 -139 23q-104 0 -197.5 -69.5t-136.5 -192.5l-170 -484h449l-11 -57h-458l-310 -881h-67l307 881h-180l10 57h190l175 500q52 147 160 225t255 78z" />
    <glyph glyph-name="Scommaaccent" unicode="&#x218;" horiz-adv-x="1222" 
d="M483 -20q-145 0 -261.5 43t-172.5 127l39 47q125 -160 393 -160q144 0 263.5 48.5t190.5 137.5t71 201q0 60 -27 108t-81 85.5t-117.5 65t-153.5 56.5l-107 35q-66 20 -116.5 44.5t-97 60.5t-71 88.5t-24.5 117.5q0 132 75.5 236t203 159.5t282.5 55.5q285 0 418 -176
l-45 -45q-126 164 -379 164q-206 0 -343.5 -109.5t-137.5 -273.5q0 -56 21.5 -99.5t63.5 -74t86.5 -50t108.5 -38.5l113 -37q65 -21 112 -39t105 -50t94.5 -67.5t62 -89t25.5 -117.5q0 -136 -81 -240.5t-215 -159t-298 -54.5zM324 -451l182 345h63l-194 -345h-51z" />
    <glyph glyph-name="scommaaccent" unicode="&#x219;" horiz-adv-x="925" 
d="M344 -20q-108 0 -195 27.5t-131 76.5l35 39q93 -90 293 -90q149 0 254 77.5t105 190.5q0 137 -213 201l-125 41q-110 33 -170 83t-60 136q0 143 114.5 235.5t283.5 92.5q184 0 323 -91l-35 -45q-114 82 -286 82q-142 0 -238 -75t-96 -185q0 -69 48.5 -108.5t141.5 -69.5
l127 -41q250 -78 250 -248q0 -145 -122 -237t-304 -92zM166 -451l182 345h64l-195 -345h-51z" />
    <glyph glyph-name="uni021A" unicode="&#x21a;" horiz-adv-x="1124" 
d="M1253 1516l-10 -58h-506l-258 -1458h-67l258 1458h-506l10 58h1079zM233 -451l183 345h63l-194 -345h-52z" />
    <glyph glyph-name="uni021B" unicode="&#x21b;" horiz-adv-x="638" 
d="M739 1069l-10 -53h-293l-180 -1016h-61l180 1016h-293l8 53h295l55 313h62l-56 -313h293zM14 -451l183 345h63l-194 -345h-52z" />
    <glyph glyph-name="circumflex" unicode="&#x2c6;" horiz-adv-x="1228" 
d="M829 1270h-65l-189 252l-280 -252h-66l314 291h75z" />
    <glyph glyph-name="caron" unicode="&#x2c7;" horiz-adv-x="1228" 
d="M813 1561h68l-314 -291h-75l-211 291h67l187 -252z" />
    <glyph glyph-name="breve" unicode="&#x2d8;" horiz-adv-x="1228" 
d="M528 1249q-118 0 -186 66.5t-68 177.5q0 28 7 68h57q-6 -35 -6 -64q0 -93 52.5 -147t145.5 -54q110 0 189.5 73.5t99.5 191.5h60q-25 -142 -120.5 -227t-230.5 -85z" />
    <glyph glyph-name="dotaccent" unicode="&#x2d9;" horiz-adv-x="1228" 
d="M371 1403q-22 0 -37 15t-15 38q0 25 19 42.5t43 17.5q22 0 36.5 -15.5t14.5 -38.5q0 -26 -18 -42.5t-43 -16.5z" />
    <glyph glyph-name="ring" unicode="&#x2da;" horiz-adv-x="1228" 
d="M471 1196q-83 0 -131.5 46.5t-48.5 123.5q0 109 70.5 181.5t177.5 72.5q84 0 133 -46.5t49 -125.5q0 -106 -71.5 -179t-178.5 -73zM473 1239q85 0 141 64t56 145q0 60 -35 94.5t-98 34.5q-86 0 -140.5 -63t-54.5 -148q0 -59 35 -93t96 -34z" />
    <glyph glyph-name="ogonek" unicode="&#x2db;" horiz-adv-x="1228" 
d="M160 -471q-62 0 -98.5 33t-36.5 88q0 92 86.5 191.5t246.5 191.5l27 -33q-301 -181 -301 -338q0 -38 24 -62t64 -24q75 0 143 55l2 -45q-72 -57 -157 -57z" />
    <glyph glyph-name="tilde" unicode="&#x2dc;" horiz-adv-x="1228" 
d="M778 1296q-39 0 -73.5 17t-59.5 41.5t-49.5 49t-54.5 41.5t-64 17q-56 0 -100.5 -39.5t-54.5 -105.5h-52q13 89 75 147t138 58q39 0 73.5 -17.5t59.5 -42t49.5 -49t54.5 -42t64 -17.5q56 0 101 40t57 107h51q-17 -91 -78 -148t-137 -57z" />
    <glyph glyph-name="hungarumlaut" unicode="&#x2dd;" horiz-adv-x="1228" 
d="M436 1270l271 291h86l-295 -291h-62zM678 1270l268 291h88l-295 -291h-61z" />
    <glyph glyph-name="gravecomb" unicode="&#x300;" 
d="M-221 1270l-234 291h86l207 -291h-59z" />
    <glyph glyph-name="acutecomb" unicode="&#x301;" 
d="M-236 1270l310 291h92l-336 -291h-66z" />
    <glyph glyph-name="uni0302" unicode="&#x302;" 
d="M-4 1270h-66l-188 252l-281 -252h-65l313 291h76z" />
    <glyph glyph-name="tildecomb" unicode="&#x303;" 
d="M-176 1296q-39 0 -73.5 17t-59.5 41.5t-49.5 49t-54.5 41.5t-64 17q-56 0 -101 -40t-55 -105h-51q13 89 75 147t138 58q39 0 73.5 -17.5t59.5 -42t49.5 -49t54.5 -42t64 -17.5q56 0 101 40t57 107h51q-17 -91 -78 -148t-137 -57z" />
    <glyph glyph-name="uni0304" unicode="&#x304;" 
d="M-588 1354l8 53h576l-8 -53h-576z" />
    <glyph glyph-name="uni0306" unicode="&#x306;" 
d="M-268 1249q-118 0 -186 66.5t-68 177.5q0 33 6 68h57q-6 -34 -6 -64q0 -93 53 -147t146 -54q110 0 189.5 73.5t99.5 191.5h59q-25 -142 -120 -227t-230 -85z" />
    <glyph glyph-name="uni0307" unicode="&#x307;" 
d="M-55 1403q-22 0 -36.5 15t-14.5 38q0 25 18.5 42.5t42.5 17.5q22 0 36.5 -15.5t14.5 -38.5q0 -26 -18 -42.5t-43 -16.5z" />
    <glyph glyph-name="uni0308" unicode="&#x308;" 
d="M-416 1403q-22 0 -35.5 14.5t-13.5 36.5q0 27 20 44.5t44 17.5q21 0 35 -15t14 -37q0 -27 -20 -44t-44 -17zM-55 1403q-22 0 -35.5 14.5t-13.5 36.5q0 27 19.5 44.5t41.5 17.5q21 0 35 -15t14 -37q0 -27 -19.5 -44t-41.5 -17z" />
    <glyph glyph-name="uni030A" unicode="&#x30a;" 
d="M-231 1196q-83 0 -132 46.5t-49 123.5q0 109 70.5 181.5t177.5 72.5q84 0 133 -46.5t49 -125.5q0 -106 -71 -179t-178 -73zM-229 1239q85 0 140.5 64t55.5 145q0 60 -35 94.5t-98 34.5q-86 0 -140 -63t-54 -148q0 -59 35 -93t96 -34z" />
    <glyph glyph-name="uni030B" unicode="&#x30b;" 
d="M-506 1270l270 291h86l-294 -291h-62zM-264 1270l268 291h88l-295 -291h-61z" />
    <glyph glyph-name="uni030C" unicode="&#x30c;" 
d="M-20 1561h67l-313 -291h-76l-211 291h68l186 -252z" />
    <glyph glyph-name="uni0312" unicode="&#x312;" 
d="M-94 1214l213 383h53l-203 -383h-63z" />
    <glyph glyph-name="uni0326" unicode="&#x326;" 
d="M-385 -451l182 345h64l-195 -345h-51z" />
    <glyph glyph-name="uni0327" unicode="&#x327;" 
d="M-389 -147q87 0 137.5 -38t50.5 -100q0 -86 -75 -136t-183 -50q-116 0 -182 63l29 37q56 -53 151 -53q84 0 142.5 38.5t58.5 98.5q0 44 -40 70.5t-108 26.5q-57 0 -112 -19l-12 27l149 182h57l-129 -152q50 5 66 5z" />
    <glyph glyph-name="uni0328" unicode="&#x328;" 
d="M-360 -471q-62 0 -99 33.5t-37 87.5q0 92 87 191t247 192l27 -33q-301 -181 -301 -338q0 -38 24 -62t64 -24q75 0 143 55l2 -45q-72 -57 -157 -57z" />
    <glyph glyph-name="uni0335" unicode="&#x335;" 
d="M-1024 559l8 51h713l-10 -51h-711z" />
    <glyph glyph-name="uni0336" unicode="&#x336;" 
d="M-1731 559l9 51h1538l-9 -51h-1538z" />
    <glyph glyph-name="uni0337" unicode="&#x337;" 
d="M-502 920l266 165l-12 -59l-266 -166l2 8l-268 -170l10 62l268 168l-8 -49z" />
    <glyph glyph-name="uni0338" unicode="&#x338;" 
d="M-1020 -20l-41 30l1163 1526l41 -31z" />
    <glyph glyph-name="uni0394" unicode="&#x394;" horiz-adv-x="1560" 
d="M971 1516l407 -1516h-1419l944 1516h68zM70 57h1222l-366 1381z" />
    <glyph glyph-name="uni03A9" unicode="&#x3a9;" horiz-adv-x="1564" 
d="M20 0l11 57h432l45 246q-167 50 -257.5 173t-90.5 302q0 159 60 299.5t163 241t248 159t309 58.5q260 0 411.5 -138t151.5 -372q0 -255 -151.5 -455.5t-401.5 -269.5l-47 -244h434l-10 -57h-496l60 346q162 35 286.5 136t190.5 243t66 303q0 206 -134.5 328.5
t-363.5 122.5q-149 0 -281 -55t-224.5 -149t-146 -223t-53.5 -272q0 -169 89.5 -281.5t252.5 -152.5l-59 -346h-494z" />
    <glyph glyph-name="uni03BC" unicode="&#x3bc;" horiz-adv-x="1271" 
d="M1102 1069h61l-188 -1069h-62l39 217q-134 -237 -432 -237q-153 0 -239 65t-109 182l-119 -678h-61l268 1520h62l-117 -659q-29 -171 59 -273t266 -102q174 0 299 102.5t156 270.5l2 6z" />
    <glyph glyph-name="pi" unicode="&#x3c0;" horiz-adv-x="1376" 
d="M1061 1016l-146 -821q-2 -14 -2 -43q0 -54 29.5 -85.5t81.5 -31.5q81 0 158 39l-4 -54q-68 -40 -177 -40q-70 0 -110.5 42.5t-40.5 114.5q0 26 4 49l145 830h-536l-178 -1016h-62l178 1016h-290l8 53h1243l-10 -53h-291z" />
    <glyph glyph-name="Wgrave" unicode="&#x1e80;" horiz-adv-x="2209" 
d="M1270 1716l-234 291h86l207 -291h-59zM465 0l-287 1516h74l262 -1424l711 1424h69l207 -1424l766 1424h74l-821 -1516h-68l-209 1413l-713 -1413h-65z" />
    <glyph glyph-name="wgrave" unicode="&#x1e81;" horiz-adv-x="1851" 
d="M1012 1270l-234 291h86l207 -291h-59zM352 0l-243 1069h69l219 -995l574 995h61l219 -995l574 995h69l-620 -1069h-66l-219 989l-571 -989h-66z" />
    <glyph glyph-name="Wacute" unicode="&#x1e82;" horiz-adv-x="2209" 
d="M1253 1716l310 291h92l-336 -291h-66zM465 0l-287 1516h74l262 -1424l711 1424h69l207 -1424l766 1424h74l-821 -1516h-68l-209 1413l-713 -1413h-65z" />
    <glyph glyph-name="wacute" unicode="&#x1e83;" horiz-adv-x="1851" 
d="M995 1270l310 291h92l-336 -291h-66zM352 0l-243 1069h69l219 -995l574 995h61l219 -995l574 995h69l-620 -1069h-66l-219 989l-571 -989h-66z" />
    <glyph glyph-name="Wdieresis" unicode="&#x1e84;" horiz-adv-x="2209" 
d="M1143 1849q-21 0 -35 15t-14 37q0 27 19.5 44t43.5 17q22 0 35.5 -14.5t13.5 -36.5q0 -28 -19.5 -45t-43.5 -17zM1503 1849q-21 0 -35 15t-14 37q0 27 19.5 44t42.5 17q22 0 35.5 -14.5t13.5 -36.5q0 -27 -20 -44.5t-42 -17.5zM465 0l-287 1516h74l262 -1424l711 1424h69
l207 -1424l766 1424h74l-821 -1516h-68l-209 1413l-713 -1413h-65z" />
    <glyph glyph-name="wdieresis" unicode="&#x1e85;" horiz-adv-x="1851" 
d="M885 1403q-22 0 -35.5 14.5t-13.5 36.5q0 28 19.5 45t43.5 17q21 0 35 -15t14 -37q0 -27 -19.5 -44t-43.5 -17zM1245 1403q-22 0 -35.5 14.5t-13.5 36.5q0 27 19.5 44.5t41.5 17.5t36 -15t14 -37q0 -27 -19.5 -44t-42.5 -17zM352 0l-243 1069h69l219 -995l574 995h61
l219 -995l574 995h69l-620 -1069h-66l-219 989l-571 -989h-66z" />
    <glyph glyph-name="uni1E9E" unicode="&#x1e9e;" horiz-adv-x="1341" 
d="M612 -20q-122 0 -209 45l9 55q84 -43 200 -43q138 0 254 55t184 153.5t68 219.5q0 137 -107.5 218t-291.5 81l8 57q188 0 317.5 112.5t129.5 276.5q0 125 -93 197t-254 72q-180 0 -307 -91.5t-153 -240.5l-203 -1147h-68l205 1161q31 170 175 272.5t355 102.5
q192 0 304 -86t112 -231q0 -152 -101.5 -268.5t-262.5 -155.5q141 -29 222 -118t81 -216q0 -142 -79 -253.5t-209 -169.5t-286 -58z" />
    <glyph glyph-name="Ygrave" unicode="&#x1ef2;" horiz-adv-x="1290" 
d="M809 1716l-234 291h87l206 -291h-59zM498 0l114 651l-422 865h80l385 -797l670 797h82l-727 -865l-115 -651h-67z" />
    <glyph glyph-name="ygrave" unicode="&#x1ef3;" horiz-adv-x="1257" 
d="M760 1270h-60l-233 291h86zM1087 1069h62l-268 -1520h-895l8 54h835l109 616q-135 -239 -440 -239q-176 0 -277.5 90.5t-101.5 242.5q0 24 8 82l119 674h61l-117 -659q-6 -43 -6 -80q0 -137 87.5 -216t240.5 -79q177 0 303.5 103t157.5 270v6z" />
    <glyph glyph-name="endash" unicode="&#x2013;" horiz-adv-x="1099" 
d="M141 559l9 51h786l-8 -51h-787z" />
    <glyph glyph-name="emdash" unicode="&#x2014;" horiz-adv-x="1742" 
d="M141 559l9 51h1429l-10 -51h-1428z" />
    <glyph glyph-name="quoteleft" unicode="&#x2018;" horiz-adv-x="413" 
d="M473 1516l-209 -396h-67l221 396h55z" />
    <glyph glyph-name="quoteright" unicode="&#x2019;" horiz-adv-x="411" 
d="M201 1120l209 396h65l-219 -396h-55z" />
    <glyph glyph-name="quotesinglbase" unicode="&#x201a;" horiz-adv-x="380" 
d="M-125 -293l209 395h66l-220 -395h-55z" />
    <glyph glyph-name="quotedblleft" unicode="&#x201c;" horiz-adv-x="643" 
d="M477 1513l-209 -395h-67l221 395h55zM700 1513l-206 -395h-68l219 395h55z" />
    <glyph glyph-name="quotedblright" unicode="&#x201d;" horiz-adv-x="634" 
d="M203 1122l207 396h67l-219 -396h-55zM426 1122l209 396h67l-219 -396h-57z" />
    <glyph glyph-name="quotedblbase" unicode="&#x201e;" horiz-adv-x="604" 
d="M-125 -293l209 395h66l-220 -395h-55zM100 -293l207 395h68l-219 -395h-56z" />
    <glyph glyph-name="dagger" unicode="&#x2020;" horiz-adv-x="1026" 
d="M1022 1069l-12 -59h-400l-258 -1461h-67l258 1461h-400l11 59h399l94 528h68l-94 -528h401z" />
    <glyph glyph-name="daggerdbl" unicode="&#x2021;" horiz-adv-x="1026" 
d="M1010 1010h-400l-61 -355h399l-10 -57h-399l-187 -1049h-67l186 1049h-401l12 57h399l62 355h-400l11 59h399l94 528h68l-94 -528h401z" />
    <glyph glyph-name="bullet" unicode="&#x2022;" horiz-adv-x="700" 
d="M338 518q-62 0 -98.5 35.5t-36.5 95.5q0 71 47 117.5t119 46.5q60 0 96.5 -35.5t36.5 -95.5q0 -70 -47 -117t-117 -47z" />
    <glyph glyph-name="ellipsis" unicode="&#x2026;" horiz-adv-x="1087" 
d="M96 -20q-26 0 -41.5 17t-15.5 42q0 28 21.5 49t50.5 21q26 0 41.5 -17.5t15.5 -42.5q0 -29 -22 -49t-50 -20zM440 -20q-26 0 -41.5 17t-15.5 42q0 28 22 49t50 21q26 0 41.5 -17.5t15.5 -42.5q0 -29 -21 -49t-51 -20zM786 -20q-26 0 -41.5 17t-15.5 42q0 28 21 49t49 21
q26 0 41.5 -17.5t15.5 -42.5q0 -29 -21 -49t-49 -20z" />
    <glyph glyph-name="perthousand" unicode="&#x2030;" horiz-adv-x="2160" 
d="M184 -20l-39 30l1166 1526l41 -31zM434 872q-121 0 -191.5 71.5t-70.5 191.5q0 168 105 284.5t266 116.5q122 0 192 -70.5t70 -191.5q0 -167 -105.5 -284.5t-265.5 -117.5zM438 922q131 0 218 105t87 249q0 99 -53.5 155t-148.5 56q-90 0 -161.5 -50.5t-109 -130.5
t-37.5 -171q0 -99 54.5 -156t150.5 -57zM946 -20q-121 0 -191.5 71t-70.5 191q0 168 105.5 284.5t267.5 116.5q121 0 190.5 -70.5t69.5 -191.5q0 -168 -105 -284.5t-266 -116.5zM1667 -20q-121 0 -192.5 71t-71.5 191q0 168 106 284.5t267 116.5q121 0 191.5 -71t70.5 -191
q0 -168 -106 -284.5t-265 -116.5zM950 29q131 0 218 104.5t87 247.5q0 99 -53.5 156t-148.5 57q-135 0 -221.5 -106t-86.5 -248q0 -97 54.5 -154t150.5 -57zM1671 29q130 0 216.5 104.5t86.5 247.5q0 99 -53.5 156t-148.5 57q-89 0 -160 -50.5t-108.5 -131t-37.5 -172.5
q0 -97 54.5 -154t150.5 -57z" />
    <glyph glyph-name="guilsinglleft" unicode="&#x2039;" horiz-adv-x="636" 
d="M362 100l-274 453l434 453h68l-430 -453l268 -453h-66z" />
    <glyph glyph-name="guilsinglright" unicode="&#x203a;" horiz-adv-x="636" 
d="M244 1006l276 -453l-436 -453h-68l430 453l-268 453h66z" />
    <glyph glyph-name="fraction" unicode="&#x2044;" horiz-adv-x="366" 
d="M-360 -20l-39 30l1163 1526l41 -31z" />
    <glyph glyph-name="uni2070" unicode="&#x2070;" horiz-adv-x="772" 
d="M426 799q-114 0 -178 88t-64 241q0 147 48.5 284.5t142.5 229t211 91.5q115 0 179 -88.5t64 -241.5q0 -110 -29 -217.5t-80 -193.5t-128 -139.5t-166 -53.5zM434 850q74 0 139.5 51.5t108 132.5t66.5 178.5t24 192.5q0 130 -50 204t-140 74q-75 0 -140.5 -51.5t-108 -133
t-67 -179t-24.5 -193.5q0 -130 50 -203t142 -73z" />
    <glyph glyph-name="uni2074" unicode="&#x2074;" horiz-adv-x="751" 
d="M532 811l35 207h-463l9 45l585 657h52l-115 -653h143l-10 -49h-141l-37 -207h-58zM176 1065h402l98 559z" />
    <glyph glyph-name="uni2075" unicode="&#x2075;" horiz-adv-x="710" 
d="M350 799q-171 0 -244 88l23 43q69 -80 221 -80q130 0 218.5 78t88.5 194q0 82 -51.5 128t-142.5 46q-94 0 -193 -30l-41 6l142 448h415l-10 -49h-360l-117 -348q92 25 178 25q112 0 176 -59.5t64 -160.5q0 -144 -106 -236.5t-261 -92.5z" />
    <glyph glyph-name="uni2076" unicode="&#x2076;" horiz-adv-x="700" 
d="M492 1358q107 0 170 -60t63 -161q0 -141 -97 -239.5t-243 -98.5q-113 0 -178.5 59.5t-65.5 161.5q0 125 101 246l379 454h67l-332 -391q66 29 136 29zM395 850q118 0 193.5 83.5t75.5 199.5q0 83 -50.5 130.5t-138.5 47.5q-116 0 -193 -82t-77 -201q0 -83 50.5 -130.5
t139.5 -47.5z" />
    <glyph glyph-name="uni2077" unicode="&#x2077;" horiz-adv-x="622" 
d="M217 1720h559l-493 -909h-64l469 860h-479z" />
    <glyph glyph-name="uni2078" unicode="&#x2078;" horiz-adv-x="741" 
d="M590 1282q68 -22 105.5 -71.5t37.5 -118.5q0 -128 -95 -210.5t-235 -82.5q-115 0 -181 55.5t-66 149.5q0 103 62 177t163 101q-57 22 -89 67.5t-32 108.5q0 120 86.5 197.5t214.5 77.5q104 0 164.5 -52.5t60.5 -140.5q0 -93 -54 -162t-142 -96zM319 1454q0 -69 45 -108
t123 -39q101 0 169.5 66.5t68.5 162.5q0 68 -44 107.5t-122 39.5q-102 0 -171 -66.5t-69 -162.5zM406 850q114 0 191 71t77 175q0 74 -51.5 117.5t-139.5 43.5q-112 0 -189 -72t-77 -175q0 -74 50.5 -117t138.5 -43z" />
    <glyph glyph-name="uni2079" unicode="&#x2079;" horiz-adv-x="700" 
d="M541 1733q113 0 178 -60t65 -162q0 -125 -100 -245l-379 -455h-67l331 391q-64 -28 -135 -28q-107 0 -170 60t-63 161q0 141 97 239.5t243 98.5zM451 1221q116 0 193 81.5t77 200.5q0 83 -51 130.5t-140 47.5q-118 0 -193 -83t-75 -199q0 -83 50.5 -130.5t138.5 -47.5z
" />
    <glyph glyph-name="uni2080" unicode="&#x2080;" horiz-adv-x="772" 
d="M246 -217q-113 0 -177.5 88.5t-64.5 241.5q0 147 48.5 284t142.5 228.5t211 91.5q115 0 179 -88.5t64 -241.5q0 -110 -29 -217.5t-80 -193.5t-128 -139.5t-166 -53.5zM254 -166q74 0 139.5 51.5t108 132.5t66.5 178.5t24 192.5q0 130 -50.5 204.5t-140.5 74.5
q-75 0 -140.5 -51.5t-108 -133t-67 -179t-24.5 -193.5q0 -130 50.5 -203.5t142.5 -73.5z" />
    <glyph glyph-name="uni2081" unicode="&#x2081;" horiz-adv-x="403" 
d="M53 -205l152 860h-176l8 50h233l-159 -910h-58z" />
    <glyph glyph-name="uni2082" unicode="&#x2082;" horiz-adv-x="696" 
d="M-80 -205l8 37l326 297q3 2 35 31t38.5 35t35.5 33.5t37.5 38t32 37t32 41.5t24 40t21 44.5t11 43.5t5.5 47q0 69 -46 108.5t-128 39.5q-94 0 -161 -56t-82 -145l-62 8q22 109 106 175.5t203 66.5q107 0 169.5 -51.5t62.5 -141.5q0 -42 -12 -83.5t-38.5 -83t-49.5 -72.5
t-67 -73.5t-66 -63t-70 -62.5l-275 -242l473 2l-8 -51h-555z" />
    <glyph glyph-name="uni2083" unicode="&#x2083;" horiz-adv-x="700" 
d="M612 705l-8 -37l-405 -367q37 6 75 6q117 0 183.5 -57t66.5 -156q0 -136 -102 -223.5t-252 -87.5q-85 0 -148 28t-92 80l29 41q55 -98 213 -98q123 0 207 73.5t84 184.5q0 77 -56 122.5t-155 45.5q-81 0 -154 -31l-12 31l434 395h-424l8 50h508z" />
    <glyph glyph-name="uni2084" unicode="&#x2084;" horiz-adv-x="751" 
d="M352 -205l35 207h-463l8 45l586 658h51l-114 -654h143l-10 -49h-142l-36 -207h-58zM-4 49h401l99 559z" />
    <glyph glyph-name="uni2085" unicode="&#x2085;" horiz-adv-x="710" 
d="M170 -217q-171 0 -244 88l23 43q69 -80 221 -80q130 0 218.5 78t88.5 194q0 82 -51.5 128.5t-142.5 46.5t-193 -31l-41 6l141 449h416l-10 -50h-360l-117 -348q92 25 178 25q112 0 176 -59.5t64 -159.5q0 -144 -106 -237t-261 -93z" />
    <glyph glyph-name="uni2086" unicode="&#x2086;" horiz-adv-x="700" 
d="M311 342q107 0 170.5 -60t63.5 -161q0 -141 -97 -239.5t-243 -98.5q-113 0 -178.5 59.5t-65.5 161.5q0 126 100 246l379 455h68l-332 -392q66 29 135 29zM215 -166q118 0 193 83.5t75 199.5q0 83 -50 130.5t-138 47.5q-116 0 -193 -82t-77 -201q0 -83 50.5 -130.5
t139.5 -47.5z" />
    <glyph glyph-name="uni2087" unicode="&#x2087;" horiz-adv-x="622" 
d="M37 705h559l-494 -910h-63l469 860h-479z" />
    <glyph glyph-name="uni2088" unicode="&#x2088;" horiz-adv-x="741" 
d="M410 266q68 -22 105.5 -71.5t37.5 -118.5q0 -128 -95 -210.5t-235 -82.5q-115 0 -181.5 55.5t-66.5 149.5q0 103 62.5 177t163.5 101q-57 22 -89 67.5t-32 108.5q0 120 86.5 197.5t214.5 77.5q104 0 164.5 -52.5t60.5 -140.5q0 -93 -54 -162t-142 -96zM139 438
q0 -69 45 -108t123 -39q101 0 169.5 66.5t68.5 162.5q0 68 -44.5 108t-121.5 40q-102 0 -171 -67t-69 -163zM225 -166q114 0 191.5 71t77.5 175q0 74 -52 118t-139 44q-112 0 -189 -72.5t-77 -175.5q0 -74 50.5 -117t137.5 -43z" />
    <glyph glyph-name="uni2089" unicode="&#x2089;" horiz-adv-x="700" 
d="M360 717q113 0 178.5 -59.5t65.5 -161.5q0 -126 -100 -246l-379 -455h-68l332 391q-64 -28 -135 -28q-107 0 -170.5 60t-63.5 161q0 141 97 239.5t243 98.5zM270 205q116 0 193.5 81.5t77.5 200.5q0 83 -51 131t-140 48q-118 0 -193 -83.5t-75 -199.5q0 -83 50 -130.5
t138 -47.5z" />
    <glyph glyph-name="Euro" unicode="&#x20ac;" horiz-adv-x="1613" 
d="M1075 1536q326 0 514 -250l-49 -39q-174 232 -461 232q-146 0 -277.5 -49t-232 -135t-173.5 -202.5t-109 -252.5h663l-10 -54h-666q-13 -75 -16 -137h660l-11 -53h-651v-4q0 -255 148.5 -405t406.5 -150q171 0 327.5 76.5t268.5 203.5l43 -51q-124 -133 -290.5 -209.5
t-354.5 -76.5q-287 0 -453 164t-166 442v10h-129l11 53h120q2 54 17 137h-113l10 54h115q48 201 167.5 358t299.5 247.5t391 90.5z" />
    <glyph glyph-name="uni20B9" unicode="&#x20b9;" horiz-adv-x="1329" 
d="M1384 1516l-10 -54h-461q98 -45 150.5 -128.5t52.5 -198.5q0 -22 -4 -62h184l-10 -53h-180q-31 -151 -132.5 -263.5t-248.5 -156.5l297 -600h-82l-287 584q-49 -9 -102 -9h-408l11 60h387q184 0 319 108.5t174 276.5h-813l10 53h811q5 50 5 62q0 149 -98.5 236t-268.5 87
h-383l10 47l2 11h1075z" />
    <glyph glyph-name="uni20BD" unicode="&#x20bd;" horiz-adv-x="1247" 
d="M713 688h-412l-22 -137h577l-10 -53h-578l-88 -498h-67l88 498h-105l10 53h105l22 137h-102l10 53h103l137 775h467q188 0 296.5 -91.5t108.5 -246.5q0 -142 -72 -255t-195 -174t-273 -61zM438 1458l-127 -713h387q204 0 345 121.5t141 304.5q0 131 -96 209t-261 78h-389
z" />
    <glyph glyph-name="trademark" unicode="&#x2122;" horiz-adv-x="1447" 
d="M684 1552h-199l-96 -540h-53l96 540h-196l8 45h448zM1364 1597h49l-70 -585h-51l58 491l-320 -491h-45l-145 493l-115 -493h-53l141 585h49l154 -532z" />
    <glyph glyph-name="oneeighth" unicode="&#x215b;" horiz-adv-x="1511" 
d="M1167 1536l41 -31l-1165 -1525l-39 30zM197 606l151 860h-176l8 50h234l-160 -910h-57zM1217 471q68 -22 105.5 -71.5t37.5 -118.5q0 -128 -95 -210.5t-235 -82.5q-115 0 -181.5 55.5t-66.5 149.5q0 103 62.5 177t163.5 101q-57 22 -89 67.5t-32 108.5q0 120 86.5 197.5
t214.5 77.5q104 0 164.5 -52.5t60.5 -140.5q0 -93 -54 -162t-142 -96zM946 643q0 -69 45 -108t123 -39q101 0 169.5 66.5t68.5 162.5q0 68 -44 107.5t-122 39.5q-102 0 -171 -66.5t-69 -162.5zM1032 39q114 0 191 71t77 175q0 74 -51 117.5t-139 43.5q-112 0 -189 -72
t-77 -175q0 -74 50.5 -117t137.5 -43z" />
    <glyph glyph-name="threeeighths" unicode="&#x215c;" horiz-adv-x="1808" 
d="M1464 1536l41 -31l-1165 -1525l-39 30zM668 905q0 -136 -102.5 -223.5t-252.5 -87.5q-85 0 -147.5 28t-91.5 80l28 41q55 -98 213 -98q123 0 207 73.5t84 184.5q0 77 -56 122.5t-155 45.5q-80 0 -153 -31l-13 31l435 395h-424l8 50h508l-8 -37l-406 -367q38 6 76 6
q117 0 183.5 -57t66.5 -156zM1513 471q68 -22 106 -71.5t38 -118.5q0 -128 -95 -210.5t-235 -82.5q-115 0 -181.5 55.5t-66.5 149.5q0 103 62.5 177t163.5 101q-57 22 -89 67.5t-32 108.5q0 120 86.5 197.5t214.5 77.5q104 0 164.5 -52.5t60.5 -140.5q0 -93 -54.5 -162
t-142.5 -96zM1243 643q0 -69 45 -108t123 -39q101 0 169.5 66.5t68.5 162.5q0 68 -44 107.5t-122 39.5q-102 0 -171 -66.5t-69 -162.5zM1329 39q114 0 191 71t77 175q0 74 -51 117.5t-139 43.5q-112 0 -189 -72t-77 -175q0 -74 50.5 -117t137.5 -43z" />
    <glyph glyph-name="fiveeighths" unicode="&#x215d;" horiz-adv-x="1818" 
d="M1475 1536l41 -31l-1166 -1525l-39 30zM680 924q0 -144 -106 -237t-261 -93q-170 0 -243 88l22 43q69 -80 221 -80q130 0 219 78.5t89 194.5q0 82 -52 128t-143 46t-193 -31l-40 6l141 449h416l-11 -50h-360l-117 -348q92 25 178 25q112 0 176 -59.5t64 -159.5zM1524 471
q68 -22 105.5 -71.5t37.5 -118.5q0 -128 -95 -210.5t-235 -82.5q-115 0 -181 55.5t-66 149.5q0 103 62 177t163 101q-57 22 -89 67.5t-32 108.5q0 120 86.5 197.5t214.5 77.5q104 0 164.5 -52.5t60.5 -140.5q0 -93 -54 -162t-142 -96zM1253 643q0 -69 45 -108t123 -39
q101 0 169.5 66.5t68.5 162.5q0 68 -44 107.5t-122 39.5q-102 0 -171 -66.5t-69 -162.5zM1339 39q114 0 191.5 71t77.5 175q0 74 -51.5 117.5t-139.5 43.5q-112 0 -189 -72t-77 -175q0 -74 50.5 -117t137.5 -43z" />
    <glyph glyph-name="seveneighths" unicode="&#x215e;" horiz-adv-x="1675" 
d="M1331 1536l41 -31l-1165 -1525l-39 30zM182 606l469 860h-479l8 50h559l-493 -910h-64zM1380 471q68 -22 106 -71.5t38 -118.5q0 -128 -95 -210.5t-235 -82.5q-115 0 -181.5 55.5t-66.5 149.5q0 103 62 177t163 101q-57 22 -88.5 67.5t-31.5 108.5q0 120 86.5 197.5
t214.5 77.5q104 0 164.5 -52.5t60.5 -140.5q0 -93 -54.5 -162t-142.5 -96zM1110 643q0 -69 45 -108t123 -39q101 0 169.5 66.5t68.5 162.5q0 68 -44 107.5t-122 39.5q-102 0 -171 -66.5t-69 -162.5zM1196 39q114 0 191 71t77 175q0 74 -51 117.5t-139 43.5q-112 0 -189 -72
t-77 -175q0 -74 50.5 -117t137.5 -43z" />
    <glyph glyph-name="partialdiff" unicode="&#x2202;" horiz-adv-x="1255" 
d="M764 1536q194 0 305 -148t111 -401q0 -155 -35 -303t-104.5 -275t-164 -223t-221.5 -151t-270 -55q-171 0 -272 81t-101 218q0 112 64.5 204.5t170.5 154t248.5 104t293 62t309.5 21.5q10 92 10 166q0 226 -93.5 357t-262.5 131q-242 0 -459 -238l-39 49q115 118 238 182
t272 64zM391 37q136 0 256 59t207 161t146.5 232.5t86.5 278.5q-145 -2 -284.5 -20.5t-271.5 -57.5t-230.5 -94.5t-158.5 -138t-60 -181.5q0 -110 82.5 -174.5t226.5 -64.5z" />
    <glyph glyph-name="emptyset" unicode="&#x2205;" horiz-adv-x="1345" 
d="M1292 1223l-151 -138q78 -110 78 -270q0 -183 -80.5 -336.5t-226 -244.5t-324.5 -91q-218 0 -338 133l-148 -133l-32 31l151 137q-76 112 -76 271q0 184 81 337.5t226.5 243.5t325.5 90q215 0 334 -131l145 131zM211 582q0 -134 59 -226l797 723q-103 119 -295 119
q-162 0 -292 -85.5t-199.5 -225.5t-69.5 -305zM1153 817q0 136 -59 225l-797 -723q102 -120 297 -120q161 0 290.5 86t199 226.5t69.5 305.5z" />
    <glyph glyph-name="product" unicode="&#x220f;" horiz-adv-x="1476" 
d="M1421 1597l-360 -2048h-70l352 1991h-890l-353 -1991h-67l362 2048h1026z" />
    <glyph glyph-name="summation" unicode="&#x2211;" horiz-adv-x="1222" 
d="M-123 -451l8 43l869 988l-506 974l8 43h1034l-12 -57h-946l504 -960l-859 -973h981l-10 -58h-1071z" />
    <glyph glyph-name="minus" unicode="&#x2212;" horiz-adv-x="1153" 
d="M168 680l10 53h823l-8 -53h-825z" />
    <glyph glyph-name="radical" unicode="&#x221a;" horiz-adv-x="1529" 
d="M313 -451l-305 1069h70l278 -995l1256 1974h74l-1307 -2048h-66z" />
    <glyph glyph-name="infinity" unicode="&#x221e;" horiz-adv-x="1441" 
d="M1049 903q119 0 187.5 -70.5t68.5 -189.5q0 -168 -104 -285.5t-263 -117.5q-102 0 -168.5 52.5t-81.5 145.5q-47 -91 -130 -144.5t-187 -53.5q-120 0 -189 69.5t-69 188.5q0 168 104 286.5t266 118.5q101 0 165.5 -53.5t82.5 -147.5q46 92 129 146.5t189 54.5zM379 289
q132 0 218.5 106.5t86.5 245.5q0 99 -53 156t-148 57q-132 0 -220.5 -104.5t-88.5 -247.5q0 -99 54.5 -156t150.5 -57zM938 289q133 0 220 106.5t87 245.5q0 99 -54 156t-149 57q-132 0 -220.5 -104.5t-88.5 -247.5q0 -99 54.5 -156t150.5 -57z" />
    <glyph glyph-name="integral" unicode="&#x222b;" horiz-adv-x="923" 
d="M33 -471q-65 0 -122.5 22t-86.5 60l24 43q68 -68 183 -68q97 0 165 59t85 154l276 1569q20 115 102.5 182.5t208.5 67.5q65 0 122.5 -22t86.5 -60l-24 -43q-65 68 -183 68q-97 0 -164 -59t-85 -154l-275 -1569q-22 -116 -104.5 -183t-208.5 -67z" />
    <glyph glyph-name="approxequal" unicode="&#x2248;" horiz-adv-x="1142" 
d="M778 700q-46 0 -85.5 17.5t-69 42t-58 49t-64 42t-75.5 17.5q-73 0 -128 -40t-67 -107h-51q15 89 87 147t163 58q46 0 86.5 -17.5t70 -42t58 -49t64 -42t75.5 -17.5q72 0 127.5 40t67.5 107h51q-15 -91 -87 -148t-165 -57zM705 291q-46 0 -86 17t-69.5 41.5t-58 49
t-64 41.5t-75.5 17q-73 0 -127.5 -39.5t-66.5 -106.5h-52q15 89 87 147t163 58q46 0 86.5 -17.5t70 -42t58.5 -49t64.5 -42t75.5 -17.5q71 0 126.5 40.5t67.5 107.5h51q-15 -91 -87 -148t-164 -57z" />
    <glyph glyph-name="notequal" unicode="&#x2260;" horiz-adv-x="1159" 
d="M1040 924h-319l-199 -437h441l-9 -53h-454l-103 -225h-63l102 225h-307l10 53h320l198 437h-442l8 53h457l102 225h64l-103 -225h306z" />
    <glyph glyph-name="lessequal" unicode="&#x2264;" horiz-adv-x="1134" 
d="M920 408l-721 362l6 35l850 360l-13 -61l-747 -320l637 -315zM102 211l9 55h784l-8 -55h-785z" />
    <glyph glyph-name="greaterequal" unicode="&#x2265;" horiz-adv-x="1124" 
d="M131 408l12 61l752 319l-641 316l12 61l721 -360l-6 -35zM98 211l11 55h784l-8 -55h-787z" />
    <glyph glyph-name="lozenge" unicode="&#x25ca;" horiz-adv-x="1064" 
d="M395 0l-305 637l528 637h50l305 -637l-529 -637h-49zM426 63l479 574l-272 573l-471 -573z" />
    <glyph glyph-name="i.loclTRK" horiz-adv-x="438" 
d="M358 1403q-22 0 -36.5 15t-14.5 38q0 25 19 42.5t43 17.5q22 0 36.5 -15.5t14.5 -38.5q0 -26 -18.5 -42.5t-43.5 -16.5zM76 0l188 1069h62l-189 -1069h-61z" />
    <glyph glyph-name="zero.lf" horiz-adv-x="1245" 
d="M520 -20q-186 0 -290.5 146t-104.5 398q0 182 47.5 361.5t131 324.5t210 235.5t272.5 90.5q186 0 292 -147.5t106 -399.5q0 -144 -29.5 -289t-88 -274t-137 -229t-185 -158.5t-224.5 -58.5zM526 37q105 0 199.5 58t164 155t121 220.5t77.5 258t26 264.5
q0 225 -87.5 355.5t-244.5 130.5q-88 0 -169 -40.5t-144.5 -111t-116.5 -164t-87 -200t-53 -219t-19 -220.5q0 -227 87.5 -357t245.5 -130z" />
    <glyph glyph-name="one.lf" horiz-adv-x="618" 
d="M213 0l258 1458h-305l10 58h373l-268 -1516h-68z" />
    <glyph glyph-name="two.lf" horiz-adv-x="1110" 
d="M-12 0l8 45l541 490q165 148 210 192q210 209 253 389q12 52 12 103q0 121 -82.5 190.5t-227.5 69.5q-167 0 -285.5 -97t-146.5 -254l-69 11q32 180 170 288.5t336 108.5q174 0 275 -84t101 -231q0 -48 -11.5 -97.5t-27.5 -92.5t-46.5 -91.5t-56 -85t-69 -84.5t-72 -77.5
t-79 -76t-76.5 -69t-76 -66.5l-473 -424h809l-10 -57h-907z" />
    <glyph glyph-name="three.lf" horiz-adv-x="1126" 
d="M1135 1516l-9 -46l-712 -643q80 17 153 17q193 0 304.5 -95t111.5 -255q0 -149 -78.5 -267.5t-211 -182.5t-292.5 -64q-142 0 -244 47.5t-149 138.5l37 47q96 -176 356 -176q216 0 363 130t147 325q0 136 -99 215t-271 79q-145 0 -260 -53l-15 37l760 688h-741l10 58h840
z" />
    <glyph glyph-name="four.lf" horiz-adv-x="1200" 
d="M717 0l63 350h-782l10 60l983 1106h62l-197 -1106h244l-10 -60h-242l-64 -350h-67zM86 408h705l178 999z" />
    <glyph glyph-name="five.lf" horiz-adv-x="1138" 
d="M403 -20q-279 0 -401 149l29 47q116 -139 372 -139q224 0 375.5 138t151.5 343q0 140 -91.5 223.5t-250.5 83.5q-149 0 -330 -51l-51 8l235 734h678l-12 -58h-612l-205 -618q164 45 315 45q184 0 291 -98.5t107 -262.5q0 -158 -81 -283.5t-217.5 -193t-302.5 -67.5z" />
    <glyph glyph-name="six.lf" horiz-adv-x="1114" 
d="M625 909q178 0 281.5 -98t103.5 -266q0 -116 -43 -220.5t-116.5 -180t-178 -120t-221.5 -44.5q-184 0 -289 98.5t-105 267.5q0 104 39.5 207t108.5 184l653 779h80l-571 -672q118 65 258 65zM461 37q136 0 245.5 68t169.5 181.5t60 248.5q0 147 -88.5 232t-241.5 85
q-136 0 -245.5 -68t-169.5 -181.5t-60 -248.5q0 -147 87.5 -232t242.5 -85z" />
    <glyph glyph-name="seven.lf" horiz-adv-x="991" 
d="M180 1516h920l-830 -1516h-75l800 1458h-825z" />
    <glyph glyph-name="eight.lf" horiz-adv-x="1187" 
d="M774 784q118 -32 184 -115t66 -200q0 -141 -72.5 -253.5t-197 -174t-275.5 -61.5q-186 0 -293.5 91t-107.5 246q0 176 107.5 301.5t279.5 167.5q-102 34 -157.5 110t-55.5 181q0 201 143 330t353 129q169 0 267.5 -86t98.5 -229q0 -160 -94 -277.5t-246 -159.5zM324 1073
q0 -121 79.5 -190.5t219.5 -69.5q180 0 299.5 117t119.5 287q0 121 -80 191.5t-219 70.5q-179 0 -299 -117.5t-120 -288.5zM485 37q198 0 331.5 124t133.5 310q0 130 -89.5 207.5t-244.5 77.5q-198 0 -333.5 -125t-135.5 -309q0 -131 91 -208t247 -77z" />
    <glyph glyph-name="nine.lf" horiz-adv-x="1114" 
d="M705 1536q184 0 288.5 -98.5t104.5 -268.5q0 -104 -39.5 -207t-108.5 -184l-653 -778h-80l571 674q-120 -68 -256 -68q-180 0 -283.5 99t-103.5 268q0 155 73 284t201.5 204t285.5 75zM549 664q136 0 245.5 68t169.5 182t60 249q0 146 -88 231t-242 85q-136 0 -245 -68
t-168.5 -181.5t-59.5 -248.5q0 -147 87.5 -232t240.5 -85z" />
    <glyph glyph-name="zero.osf" horiz-adv-x="1314" 
d="M555 -20q-206 0 -325 134.5t-119 362.5q0 218 85 404.5t239.5 299.5t344.5 113q208 0 326.5 -134t118.5 -363q0 -217 -85 -404t-240 -300t-345 -113zM563 35q170 0 308.5 109t213 282.5t74.5 370.5q0 203 -102 322.5t-281 119.5q-128 0 -241.5 -63.5t-191 -168
t-122.5 -242t-45 -284.5q0 -207 102.5 -326.5t284.5 -119.5z" />
    <glyph glyph-name="one.osf" horiz-adv-x="641" 
d="M246 0l215 1221h-287l8 53h348l-223 -1274h-61z" />
    <glyph glyph-name="two.osf" horiz-adv-x="1132" 
d="M6 0l8 45l549 373q72 49 121 85.5t113 95t102.5 111t66 121.5t27.5 140q0 124 -84 196t-231 72q-169 0 -290.5 -97.5t-147.5 -254.5l-64 10q32 180 170 288.5t336 108.5q173 0 274 -86t101 -231q0 -80 -29.5 -156t-71.5 -134t-111 -120.5t-124.5 -102.5t-134.5 -93
l-473 -318h809l-9 -53h-907z" />
    <glyph glyph-name="three.osf" horiz-adv-x="1153" 
d="M1112 1274l-8 -45l-717 -627q65 16 160 16q191 0 301 -91t110 -246q0 -148 -77 -264.5t-207.5 -179t-288.5 -62.5q-142 0 -244 47.5t-149 138.5l35 45q91 -178 356 -178q141 0 258 57.5t184.5 160t67.5 228.5q0 134 -100.5 213.5t-272.5 79.5q-143 0 -260 -57l-14 37
l766 674h-750l8 53h842z" />
    <glyph glyph-name="four.osf" horiz-adv-x="1183" 
d="M688 -225l39 225h-788l10 55l1001 1219h62l-215 -1221h243l-10 -53h-242l-38 -225h-62zM16 53h721l199 1114z" />
    <glyph glyph-name="five.osf" horiz-adv-x="1146" 
d="M367 -225q-283 0 -402 149l25 45q115 -141 375 -141q224 0 374 134t150 337q0 139 -90 221t-250 82q-153 0 -334 -51l-49 8l229 715h678l-8 -53h-623l-200 -609q169 45 321 45q182 0 287.5 -95.5t105.5 -256.5q0 -154 -78.5 -276t-213 -188t-297.5 -66z" />
    <glyph glyph-name="six.osf" horiz-adv-x="1105" 
d="M618 909q178 0 279.5 -97.5t101.5 -264.5q0 -155 -71.5 -285t-199 -206t-282.5 -76q-181 0 -285 97t-104 263q0 105 41.5 213.5t110.5 185.5l651 777h74l-572 -674q116 67 256 67zM457 37q136 0 245 68t168.5 181.5t59.5 248.5q0 147 -87.5 232t-240.5 85
q-136 0 -245.5 -68t-169.5 -181.5t-60 -248.5q0 -147 87.5 -232t242.5 -85z" />
    <glyph glyph-name="seven.osf" horiz-adv-x="1064" 
d="M186 1274h918l-807 -1485l-59 18l770 1414h-832z" />
    <glyph glyph-name="eight.osf" horiz-adv-x="1175" 
d="M766 784q116 -32 180 -114.5t64 -200.5q0 -141 -71.5 -253t-194 -174t-271.5 -62q-183 0 -289 91t-106 244q0 175 106 302t277 169q-98 32 -152.5 107.5t-54.5 181.5q0 201 140 331t347 130q166 0 263.5 -86t97.5 -229q0 -157 -93 -275.5t-243 -161.5zM317 1073
q0 -121 79 -190.5t218 -69.5q180 0 301 117t121 287q0 121 -80 191.5t-219 70.5q-179 0 -299.5 -117.5t-120.5 -288.5zM479 37q198 0 331.5 124t133.5 310q0 130 -89.5 207.5t-244.5 77.5q-198 0 -333.5 -125t-135.5 -309q0 -131 91 -208t247 -77z" />
    <glyph glyph-name="nine.osf" horiz-adv-x="1112" 
d="M657 1294q181 0 286.5 -97.5t105.5 -262.5q0 -106 -41.5 -216t-110.5 -186l-625 -743l-59 18l528 623q-118 -65 -256 -65q-176 0 -278.5 98t-102.5 264q0 155 71.5 285t199 206t282.5 76zM504 420q102 0 191 40.5t150.5 108.5t96.5 159.5t35 191.5q0 147 -87.5 231
t-240.5 84q-137 0 -246.5 -67t-169 -179.5t-59.5 -247.5q0 -147 88 -234t242 -87z" />
    <glyph glyph-name="zero.tf" horiz-adv-x="1259" 
d="M518 -20q-166 0 -258 139t-92 381q0 138 26.5 282.5t79.5 279t125.5 240.5t172.5 170t212 64q166 0 258.5 -139.5t92.5 -382.5q0 -114 -19.5 -234.5t-55 -235.5t-90 -217.5t-121 -179.5t-152.5 -122t-179 -45zM524 37q81 0 156.5 44.5t134 119.5t107 174t80 208.5
t48.5 222.5t17 216q0 213 -75 335t-212 122q-98 0 -186 -62.5t-152 -165t-111.5 -231.5t-71 -265t-23.5 -261q0 -213 75.5 -335t212.5 -122z" />
    <glyph glyph-name="one.tf" horiz-adv-x="1259" 
d="M657 57h316l-8 -57h-863l9 57h477l248 1401h-367l12 58h434z" />
    <glyph glyph-name="two.tf" horiz-adv-x="1259" 
d="M63 0l9 45l540 490q165 148 214 197q211 211 249 395q10 47 10 92q0 122 -81.5 191t-225.5 69q-167 0 -286.5 -97t-145.5 -254l-70 11q32 180 170 288.5t334 108.5q174 0 275.5 -84t101.5 -231q0 -82 -34 -169.5t-73 -150t-122 -150.5t-125 -127t-137 -124
q-14 -13 -21 -19l-475 -424h811l-10 -57h-908z" />
    <glyph glyph-name="three.tf" horiz-adv-x="1259" 
d="M1202 1516l-10 -46l-711 -643q80 17 152 17q194 0 306 -94.5t112 -255.5q0 -149 -78.5 -267.5t-211.5 -182.5t-294 -64q-141 0 -242.5 47.5t-148.5 138.5l35 47q99 -176 358 -176q142 0 258 58.5t183 163t67 233.5q0 135 -99 214.5t-270 79.5q-147 0 -262 -53l-14 37
l762 688h-742l10 58h840z" />
    <glyph glyph-name="four.tf" horiz-adv-x="1259" 
d="M735 0l64 350h-758l10 60l959 1106h61l-197 -1108h244l-10 -58h-242l-63 -350h-68zM125 406h684l176 993z" />
    <glyph glyph-name="five.tf" horiz-adv-x="1259" 
d="M465 -20q-283 0 -402 149l27 47q119 -139 375 -139q224 0 375 138t151 343q0 141 -92 224t-252 83q-149 0 -330 -51l-49 8l234 734h678l-11 -58h-612l-205 -618q161 45 314 45q184 0 290.5 -98.5t106.5 -262.5q0 -158 -80 -283.5t-216.5 -193t-301.5 -67.5z" />
    <glyph glyph-name="six.tf" horiz-adv-x="1259" 
d="M696 909q179 0 283 -98t104 -266q0 -116 -43 -220.5t-116.5 -180t-178 -120t-221.5 -44.5q-184 0 -288.5 98.5t-104.5 267.5q0 104 39.5 207t108.5 184l653 779h80l-570 -670q117 63 254 63zM535 37q136 0 245 68t168.5 181.5t59.5 248.5q0 147 -87.5 232t-240.5 85
q-136 0 -245.5 -68t-169.5 -181.5t-60 -248.5q0 -147 87.5 -232t242.5 -85z" />
    <glyph glyph-name="seven.tf" horiz-adv-x="1259" 
d="M315 1516h918l-830 -1516h-75l800 1458h-825z" />
    <glyph glyph-name="eight.tf" horiz-adv-x="1259" 
d="M811 784q119 -32 184.5 -114.5t65.5 -200.5q0 -141 -72 -253t-196 -174t-275 -62q-187 0 -295 91.5t-108 245.5q0 175 107.5 301t279.5 168q-100 32 -155.5 108.5t-55.5 182.5q0 201 141.5 330t351.5 129q169 0 269 -86t100 -229q0 -160 -94 -276.5t-248 -160.5z
M360 1073q0 -120 80 -190t219 -70q180 0 300 117t120 287q0 121 -79.5 191.5t-219.5 70.5q-179 0 -299.5 -117.5t-120.5 -288.5zM524 37q198 0 331.5 124t133.5 310q0 130 -90 207.5t-246 77.5q-197 0 -332 -125t-135 -309q0 -131 90.5 -208t247.5 -77z" />
    <glyph glyph-name="nine.tf" horiz-adv-x="1259" 
d="M778 1536q184 0 288.5 -98.5t104.5 -268.5q0 -104 -39.5 -207t-107.5 -184l-653 -778h-80l569 670q-119 -64 -254 -64q-179 0 -283 98.5t-104 266.5q0 116 43 220.5t116.5 180t178 120t221.5 44.5zM623 664q136 0 245.5 68t169.5 181.5t60 247.5q0 147 -88 232.5
t-242 85.5q-136 0 -245 -68t-168.5 -181.5t-59.5 -248.5q0 -147 87.5 -232t240.5 -85z" />
    <glyph glyph-name="zero.tosf" horiz-adv-x="1259" 
d="M518 -20q-170 0 -266 126t-96 343q0 120 25.5 241t76.5 229t120.5 192t164 133.5t200.5 49.5q168 0 263.5 -126t95.5 -343q0 -120 -25.5 -241t-76.5 -229t-120.5 -192t-163 -133.5t-198.5 -49.5zM524 35q93 0 176.5 48.5t144 129.5t105 184t66.5 213.5t22 216.5
q0 191 -79.5 301.5t-219.5 110.5q-92 0 -175 -47t-144.5 -127t-107 -181.5t-68.5 -213.5t-23 -221q0 -193 79.5 -303.5t223.5 -110.5z" />
    <glyph glyph-name="one.tosf" horiz-adv-x="1259" 
d="M662 53h319l-8 -53h-862l8 53h481l205 1168h-348l10 53h410z" />
    <glyph glyph-name="two.tosf" horiz-adv-x="1259" 
d="M70 0l8 45l547 373q72 49 122 86t113.5 94.5t102.5 110.5t66.5 122t27.5 140q0 124 -84.5 196t-231.5 72q-169 0 -290.5 -97.5t-147.5 -254.5l-63 10q32 180 169.5 288.5t335.5 108.5q172 0 273.5 -86t101.5 -231q0 -80 -29.5 -156t-71.5 -134t-111 -120.5t-124.5 -102.5
t-134.5 -93l-473 -318h809l-10 -53h-905z" />
    <glyph glyph-name="three.tosf" horiz-adv-x="1259" 
d="M1165 1274l-8 -45l-717 -627q65 16 160 16q191 0 301.5 -91t110.5 -246q0 -148 -77.5 -264.5t-208 -179t-288.5 -62.5q-142 0 -244 47.5t-149 138.5l37 45q88 -178 354 -178q141 0 258 57.5t184.5 160t67.5 228.5q0 134 -100.5 213.5t-272.5 79.5q-143 0 -260 -57l-14 37
l766 674h-750l9 53h841z" />
    <glyph glyph-name="four.tosf" horiz-adv-x="1259" 
d="M713 -225l39 225h-764l10 55l977 1219h63l-215 -1221h242l-8 -53h-244l-39 -225h-61zM70 53h692l194 1104z" />
    <glyph glyph-name="five.tosf" horiz-adv-x="1259" 
d="M424 -225q-285 0 -401 149l24 45q115 -141 375 -141q146 0 266 60.5t189 168.5t69 242q0 139 -91 221t-251 82q-151 0 -332 -51l-49 8l230 715h677l-10 -53h-620l-201 -609q169 45 322 45q182 0 286.5 -95.5t104.5 -256.5q0 -154 -79 -276t-213 -188t-296 -66z" />
    <glyph glyph-name="six.tosf" horiz-adv-x="1259" 
d="M696 909q178 0 279.5 -97.5t101.5 -264.5q0 -155 -71.5 -285t-199 -206t-282.5 -76q-181 0 -285 97t-104 263q0 105 41.5 213.5t110.5 185.5l2 2l649 775h74l-570 -672q115 65 254 65zM535 37q136 0 245 68t168.5 181.5t59.5 248.5q0 147 -87.5 232t-240.5 85
q-136 0 -245.5 -68t-169.5 -181.5t-60 -248.5q0 -147 87.5 -232t242.5 -85z" />
    <glyph glyph-name="seven.tosf" horiz-adv-x="1259" 
d="M283 1274h917l-807 -1485l-57 18l770 1414h-834z" />
    <glyph glyph-name="eight.tosf" horiz-adv-x="1259" 
d="M807 784q117 -32 181.5 -114.5t64.5 -200.5q0 -141 -71.5 -253t-194 -174t-271.5 -62q-184 0 -290.5 91t-106.5 244q0 175 106.5 302t276.5 169q-98 32 -152.5 107.5t-54.5 181.5q0 201 140 331t349 130q165 0 263 -86t98 -229q0 -157 -93 -275.5t-245 -161.5zM358 1073
q0 -120 80 -190t219 -70q180 0 300 117t120 287q0 121 -79.5 191.5t-219.5 70.5q-179 0 -299.5 -117.5t-120.5 -288.5zM522 37q198 0 331.5 124t133.5 310q0 130 -90 207.5t-246 77.5q-197 0 -332 -125t-135 -309q0 -131 91 -208t247 -77z" />
    <glyph glyph-name="nine.tosf" horiz-adv-x="1259" 
d="M733 1294q181 0 286 -97.5t105 -262.5q0 -106 -41 -216t-110 -186l-625 -743l-59 18l526 623q-115 -65 -254 -65q-176 0 -278.5 98t-102.5 264q0 155 71.5 285t199 206t282.5 76zM580 420q102 0 191.5 40.5t151 108.5t97 159.5t35.5 191.5q0 146 -88 230.5t-242 84.5
q-137 0 -246.5 -67t-169 -179.5t-59.5 -247.5q0 -147 88 -234t242 -87z" />
    <glyph glyph-name="zero.dnom" horiz-adv-x="772" 
d="M283 -12q-114 0 -178 88t-64 241q0 109 29 216.5t79.5 194t127.5 140.5t165 54q115 0 179.5 -88.5t64.5 -241.5q0 -110 -29 -217.5t-80 -193.5t-128 -139.5t-166 -53.5zM291 39q74 0 139.5 51.5t108 132.5t66.5 178.5t24 192.5q0 130 -50.5 204t-140.5 74
q-75 0 -140.5 -51.5t-108 -133t-67 -179t-24.5 -193.5q0 -130 50.5 -203t142.5 -73z" />
    <glyph glyph-name="one.dnom" horiz-adv-x="403" 
d="M90 0l152 860h-176l8 49h233l-160 -909h-57z" />
    <glyph glyph-name="two.dnom" horiz-adv-x="696" 
d="M-43 0l8 37l326 297q3 2 35 31t38.5 35t35.5 33.5t37.5 38t32 37t32 41.5t24 40t21 44.5t11 43.5t5.5 47q0 69 -46 108t-128 39q-94 0 -161.5 -55.5t-82.5 -144.5l-61 8q22 109 106 175.5t203 66.5q107 0 169.5 -51.5t62.5 -141.5q0 -42 -12 -83.5t-38.5 -83t-49.5 -72.5
t-67 -73.5t-66 -63t-70 -62.5l-275 -242l473 2l-8 -51h-555z" />
    <glyph glyph-name="three.dnom" horiz-adv-x="700" 
d="M649 909l-8 -37l-405 -366q38 6 75 6q117 0 183.5 -57t66.5 -156q0 -136 -102 -223.5t-252 -87.5q-85 0 -148 28t-92 80l29 41q55 -98 213 -98q123 0 207 73.5t84 184.5q0 77 -56 122.5t-155 45.5q-81 0 -154 -31l-12 31l434 395h-424l8 49h508z" />
    <glyph glyph-name="four.dnom" horiz-adv-x="751" 
d="M389 0l35 207h-463l8 45l586 657h51l-114 -653h143l-10 -49h-142l-37 -207h-57zM33 254h401l98 559z" />
    <glyph glyph-name="five.dnom" horiz-adv-x="710" 
d="M207 -12q-171 0 -244 88l23 43q69 -80 221 -80q130 0 218.5 78t88.5 194q0 82 -52 128t-143 46q-93 0 -192 -30l-41 6l141 448h416l-10 -49h-361l-116 -348q92 25 178 25q112 0 175.5 -59.5t63.5 -160.5q0 -144 -105.5 -236.5t-260.5 -92.5z" />
    <glyph glyph-name="six.dnom" horiz-adv-x="700" 
d="M348 547q107 0 170.5 -60t63.5 -161q0 -141 -97 -239.5t-243 -98.5q-113 0 -178.5 59.5t-65.5 161.5q0 126 100 246l379 454h68l-332 -391q66 29 135 29zM252 39q118 0 193 83.5t75 199.5q0 83 -50 130.5t-138 47.5q-116 0 -193.5 -82t-77.5 -201q0 -83 51 -130.5
t140 -47.5z" />
    <glyph glyph-name="seven.dnom" horiz-adv-x="622" 
d="M74 909h559l-494 -909h-63l469 860h-479z" />
    <glyph glyph-name="eight.dnom" horiz-adv-x="741" 
d="M446 471q68 -22 106 -71.5t38 -118.5q0 -128 -95 -210.5t-235 -82.5q-115 0 -181.5 55.5t-66.5 149.5q0 103 62.5 177t163.5 101q-57 22 -89 67.5t-32 108.5q0 120 86.5 197.5t214.5 77.5q104 0 164.5 -52.5t60.5 -140.5q0 -93 -54.5 -162t-142.5 -96zM176 643
q0 -69 45 -108t123 -39q101 0 169.5 66.5t68.5 162.5q0 68 -44 107.5t-122 39.5q-102 0 -171 -66.5t-69 -162.5zM262 39q114 0 191 71t77 175q0 74 -51 117.5t-139 43.5q-112 0 -189 -72t-77 -175q0 -74 50.5 -117t137.5 -43z" />
    <glyph glyph-name="nine.dnom" horiz-adv-x="700" 
d="M397 922q113 0 178.5 -60t65.5 -162q0 -125 -100 -245l-379 -455h-68l332 391q-66 -29 -135 -29q-107 0 -170.5 60.5t-63.5 161.5q0 141 97 239.5t243 98.5zM307 410q116 0 193.5 81.5t77.5 200.5q0 83 -51 130.5t-140 47.5q-118 0 -193 -83t-75 -199q0 -83 50 -130.5
t138 -47.5z" />
    <glyph glyph-name="zero.numr" horiz-adv-x="772" 
d="M389 594q-113 0 -177.5 88.5t-64.5 241.5q0 147 48.5 284t142.5 228.5t211 91.5q115 0 179.5 -88.5t64.5 -241.5q0 -148 -48.5 -285t-143 -228t-212.5 -91zM397 645q74 0 139.5 51.5t108 132.5t66.5 178.5t24 192.5q0 130 -50 204.5t-140 74.5q-75 0 -140.5 -51.5
t-108 -133t-67 -179t-24.5 -193.5q0 -130 50 -203.5t142 -73.5z" />
    <glyph glyph-name="one.numr" horiz-adv-x="403" 
d="M197 606l151 860h-176l8 50h234l-160 -910h-57z" />
    <glyph glyph-name="two.numr" horiz-adv-x="696" 
d="M63 606l9 37l325 297q5 5 35 31.5t38.5 34.5t35.5 34t37.5 37.5t32.5 37t31.5 41t24.5 40.5t21.5 44.5t11.5 43.5t5 47q0 69 -46 108.5t-128 39.5q-94 0 -161.5 -56t-82.5 -145l-62 8q22 109 106.5 175.5t203.5 66.5q106 0 168.5 -51.5t62.5 -141.5q0 -42 -12 -83.5
t-38.5 -83t-49.5 -72.5t-67 -73.5t-66 -63t-70 -62.5l-274 -242l473 2l-9 -51h-555z" />
    <glyph glyph-name="three.numr" horiz-adv-x="700" 
d="M756 1516l-8 -37l-406 -367q38 6 76 6q117 0 183.5 -57t66.5 -156q0 -136 -102.5 -223.5t-252.5 -87.5q-85 0 -147.5 28t-91.5 80l28 41q55 -98 213 -98q123 0 207 73.5t84 184.5q0 77 -56 122.5t-155 45.5q-80 0 -153 -31l-13 31l435 395h-424l8 50h508z" />
    <glyph glyph-name="four.numr" horiz-adv-x="751" 
d="M496 606l34 207h-462l8 45l586 658h51l-115 -654h143l-10 -49h-141l-37 -207h-57zM139 860h402l98 559z" />
    <glyph glyph-name="five.numr" horiz-adv-x="710" 
d="M313 594q-170 0 -243 88l22 43q69 -80 221 -80q130 0 219 78.5t89 194.5q0 82 -52 128t-143 46t-193 -31l-40 6l141 449h416l-11 -50h-360l-117 -348q92 25 178 25q112 0 176 -59.5t64 -159.5q0 -144 -106 -237t-261 -93z" />
    <glyph glyph-name="six.numr" horiz-adv-x="700" 
d="M455 1153q107 0 170 -60t63 -161q0 -141 -97 -239.5t-243 -98.5q-113 0 -178.5 59.5t-65.5 161.5q0 125 101 246l379 455h67l-332 -392q66 29 136 29zM358 645q118 0 193.5 83.5t75.5 199.5q0 83 -50.5 130.5t-138.5 47.5q-116 0 -193 -82t-77 -201q0 -83 50.5 -130.5
t139.5 -47.5z" />
    <glyph glyph-name="seven.numr" horiz-adv-x="622" 
d="M180 1516h559l-493 -910h-64l469 860h-479z" />
    <glyph glyph-name="eight.numr" horiz-adv-x="741" 
d="M553 1077q68 -22 105.5 -71.5t37.5 -118.5q0 -128 -94.5 -210.5t-234.5 -82.5q-115 0 -181.5 55.5t-66.5 149.5q0 103 62 177t163 101q-57 22 -89 67.5t-32 108.5q0 120 86.5 197.5t214.5 77.5q104 0 165 -52.5t61 -140.5q0 -93 -54.5 -162t-142.5 -96zM283 1249
q0 -69 45 -108t123 -39q101 0 169 66.5t68 162.5q0 68 -44.5 108t-121.5 40q-102 0 -170.5 -67t-68.5 -163zM369 645q114 0 191 71t77 175q0 74 -52 118t-139 44q-112 0 -189 -72.5t-77 -175.5q0 -74 50.5 -117t138.5 -43z" />
    <glyph glyph-name="nine.numr" horiz-adv-x="700" 
d="M504 1528q113 0 178.5 -59.5t65.5 -161.5q0 -125 -101 -246l-379 -455h-67l331 391q-64 -28 -135 -28q-107 0 -170 60t-63 161q0 141 97 239.5t243 98.5zM414 1016q116 0 193 81.5t77 200.5q0 83 -50.5 131t-139.5 48q-118 0 -193.5 -83.5t-75.5 -199.5
q0 -83 50.5 -130.5t138.5 -47.5z" />
    <glyph glyph-name="exclamdown.case" horiz-adv-x="509" 
d="M410 1536q22 0 36.5 -14.5t14.5 -36.5q0 -27 -18 -43.5t-44 -16.5q-21 0 -35 15t-14 37q0 25 18 42t42 17zM393 1251l-215 -1251h-69l227 1251h57z" />
    <glyph glyph-name="questiondown.case" horiz-adv-x="1032" 
d="M694 1536q22 0 35.5 -14.5t13.5 -36.5q0 -27 -17.5 -43.5t-41.5 -16.5q-22 0 -36.5 15t-14.5 37q0 26 18 42.5t43 16.5zM621 1253l55 -6q-15 -82 -36 -153t-42.5 -123t-52 -99.5t-54.5 -77t-60 -62.5t-58.5 -49.5t-59.5 -43.5q-55 -41 -88.5 -71.5t-64.5 -71.5
t-44.5 -89.5t-13.5 -109.5q0 -121 83 -190.5t231 -69.5q160 0 277.5 91t148.5 237l65 -9q-37 -170 -172.5 -273t-322.5 -103q-176 0 -279.5 84.5t-103.5 226.5q0 69 16 125t51 103t73.5 82.5t98.5 80.5q41 30 60.5 45.5t57.5 49.5t59.5 60.5t52.5 72t50.5 92t39.5 111.5
t33 140z" />
    <glyph glyph-name="slash.case" horiz-adv-x="694" 
d="M-4 0l680 1516h63l-680 -1516h-63z" />
    <glyph glyph-name="braceleft.case" horiz-adv-x="794" 
d="M399 -102q-95 0 -149.5 57t-54.5 156q0 29 6 63l45 272q10 51 10 109q0 174 -137 174h-23l10 57h19q81 0 144.5 79.5t86.5 207.5l50 275q23 125 101.5 197.5t190.5 72.5q98 0 187 -25l-11 -57q-92 25 -174 25q-85 0 -147.5 -63t-81.5 -167l-47 -270q-22 -117 -77.5 -200
t-127.5 -103q50 -15 77.5 -67t27.5 -134q0 -49 -9 -108l-47 -269q-6 -30 -6 -61q0 -76 40 -120t110 -44q87 0 190 25l-12 -58q-95 -24 -191 -24z" />
    <glyph glyph-name="braceright.case" horiz-adv-x="794" 
d="M436 1618q95 0 150 -57.5t55 -155.5q0 -29 -6 -64l-45 -272q-10 -51 -10 -108q0 -175 137 -175h22l-10 -57h-18q-81 0 -145 -79.5t-87 -207.5l-49 -274q-23 -125 -102 -197.5t-191 -72.5q-101 0 -186 24l10 58q92 -25 174 -25q85 0 148 62.5t82 166.5l47 271
q22 118 77 200.5t127 102.5q-104 32 -104 200q0 57 8 109l47 268q6 30 6 62q0 76 -39.5 120t-109.5 44q-88 0 -191 -25l13 57q98 25 190 25z" />
    <glyph glyph-name="bracketleft.case" horiz-adv-x="714" 
d="M98 -82l297 1679h414l-8 -53h-352l-279 -1571h352l-10 -55h-414z" />
    <glyph glyph-name="bracketright.case" horiz-adv-x="712" 
d="M657 1597l-297 -1679h-413l8 53h352l279 1571h-353l11 55h413z" />
    <glyph glyph-name="parenleft.case" horiz-adv-x="563" 
d="M299 -82q-174 299 -174 619q0 298 124 559t347 501h55q-194 -215 -324 -494.5t-130 -543.5q0 -188 48.5 -358.5t108.5 -282.5h-55z" />
    <glyph glyph-name="parenright.case" horiz-adv-x="563" 
d="M-47 -82q194 215 324.5 495t130.5 545q0 185 -49 356t-109 283h55q174 -299 174 -618q0 -553 -469 -1061h-57z" />
    <glyph glyph-name="logo" horiz-adv-x="2609" 
d="M156 -20q-15 0 -25 10.5t-10 25.5q0 21 10 31l700 698h-663q-47 0 -47 39q0 16 14 33l696 701h-669q-41 0 -41 38v3q0 38 41 38h758q47 0 47 -41q0 -20 -17 -34l-698 -697h676q17 0 29 -12t12 -29v-669l694 692q13 16 35 16q37 0 37 -45v-663l696 692q13 16 33 16
q15 0 25 -12t10 -27q0 -18 -13 -28l-753 -762q-14 -14 -35 -14q-41 0 -41 47v663l-694 -696q-14 -14 -35 -14q-41 0 -41 47v663l-697 -696q-14 -14 -34 -14z" />
    </font>
</defs>
</svg>
