<?xml version="1.0" standalone="no"?>
<!DOCTYPE svg PUBLIC "-//W3C//DTD SVG 1.1//EN" "http://www.w3.org/Graphics/SVG/1.1/DTD/svg11.dtd" >
<svg xmlns="http://www.w3.org/2000/svg" xmlns:xlink="http://www.w3.org/1999/xlink" version="1.1">
<metadata>
Created by FontForge 20170731 at Thu Dec  2 10:15:18 2021
 By Aleksey,,,
Copyright (c) 2016 by Alberto Romanos. All rights reserved.
</metadata>
<defs>
<font id="BwModelicaSS02-Regular" horiz-adv-x="0" >
  <font-face 
    font-family="Bw Modelica SS02"
    font-weight="500"
    font-stretch="normal"
    units-per-em="2048"
    panose-1="0 0 6 0 0 0 0 0 0 0"
    ascent="1597"
    descent="-451"
    x-height="1083"
    cap-height="1516"
    bbox="-1757 -471 2529 2089"
    underline-thickness="102"
    underline-position="-307"
    unicode-range="U+000D-FB02"
  />
<missing-glyph horiz-adv-x="2609" 
d="M186 -20q-15 0 -24.5 10.5t-9.5 25.5q0 21 10 31l700 698h-663q-47 0 -47 39q0 16 14 33l696 701h-669q-41 0 -41 38v3q0 38 41 38h757q47 0 47 -41q0 -21 -16 -34l-698 -697h675q17 0 29 -12t12 -29v-669l695 692q13 16 35 16q36 0 36 -45v-663l697 692q13 16 32 16
q15 0 25 -12t10 -27q0 -18 -12 -28l-754 -762q-14 -14 -34 -14q-41 0 -41 47v663l-695 -696q-14 -14 -35 -14q-18 0 -27.5 8.5t-11 16.5t-1.5 22v663l-697 -696q-14 -14 -35 -14z" />
    <glyph glyph-name="fi" unicode="fi" horiz-adv-x="1257" 
d="M231 1083v514h529v-122h-381v-392h369v-122h-369v-961h-148v961h-188v122h188zM1014 1356q-43 0 -72 28.5t-29 69.5q0 43 29 71.5t72 28.5q41 0 69.5 -28.5t28.5 -71.5q0 -41 -28.5 -69.5t-69.5 -28.5zM940 0v1083h147v-1083h-147z" />
    <glyph glyph-name="fl" unicode="fl" horiz-adv-x="1335" 
d="M231 1083v514h529v-122h-381v-392h369v-122h-369v-961h-148v961h-188v122h188zM1090 123h229v-123h-377v1597h148v-1474z" />
    <glyph glyph-name=".notdef" horiz-adv-x="2609" 
d="M186 -20q-15 0 -24.5 10.5t-9.5 25.5q0 21 10 31l700 698h-663q-47 0 -47 39q0 16 14 33l696 701h-669q-41 0 -41 38v3q0 38 41 38h757q47 0 47 -41q0 -21 -16 -34l-698 -697h675q17 0 29 -12t12 -29v-669l695 692q13 16 35 16q36 0 36 -45v-663l697 692q13 16 32 16
q15 0 25 -12t10 -27q0 -18 -12 -28l-754 -762q-14 -14 -34 -14q-41 0 -41 47v663l-695 -696q-14 -14 -35 -14q-18 0 -27.5 8.5t-11 16.5t-1.5 22v663l-697 -696q-14 -14 -35 -14z" />
    <glyph glyph-name=".null" 
 />
    <glyph glyph-name="nonmarkingreturn" horiz-adv-x="682" 
 />
    <glyph glyph-name="CR" unicode="&#xd;" horiz-adv-x="464" 
 />
    <glyph glyph-name="space" unicode=" " horiz-adv-x="542" 
 />
    <glyph glyph-name="exclam" unicode="!" horiz-adv-x="530" 
d="M201 336l-15 1180h158l-14 -1180h-129zM266 -20q-43 0 -71.5 28.5t-28.5 71.5q0 41 28.5 69.5t71.5 28.5q41 0 70 -28.5t29 -69.5q0 -42 -28.5 -71t-70.5 -29z" />
    <glyph glyph-name="quotedbl" unicode="&#x22;" horiz-adv-x="692" 
d="M141 1155l-4 442h127l-4 -442h-119zM430 1155l-4 442h129l-4 -442h-121z" />
    <glyph glyph-name="numbersign" unicode="#" horiz-adv-x="1404" 
d="M1307 907h-250l-90 -387h252l-25 -104h-252l-96 -416h-115l96 416h-393l-96 -416h-113l97 416h-250l26 104h248l90 387h-250l23 105h250l98 422h113l-99 -422h394l98 422h115l-99 -422h252zM852 520l90 387h-393l-90 -387h393z" />
    <glyph glyph-name="dollar" unicode="$" horiz-adv-x="1273" 
d="M1169 395q0 -169 -125 -280t-335 -131v-168h-154v166q-281 20 -426 174l64 110q145 -139 362 -155v604l-43 12q-88 24 -152.5 53.5t-122.5 75t-88 112t-30 152.5q0 169 118.5 280.5t317.5 131.5v168h154v-166q237 -20 399 -172l-74 -109q-139 130 -325 150v-572
q74 -23 131.5 -46t122 -60.5t107.5 -81.5t71 -108t28 -140zM281 1143q0 -56 20.5 -100t60.5 -74.5t85 -51t108 -40.5v524q-126 -17 -200 -86.5t-74 -171.5zM709 115q140 19 219.5 89t79.5 175q0 104 -76.5 170.5t-222.5 116.5v-551z" />
    <glyph glyph-name="percent" unicode="%" horiz-adv-x="1576" 
d="M416 858q-154 0 -248 93t-94 247q0 152 94 245t248 93q152 0 245 -93t93 -245q0 -154 -93 -247t-245 -93zM391 -20l-86 53l881 1503l86 -53zM416 961q94 0 152.5 65t58.5 172t-58.5 172.5t-152.5 65.5q-97 0 -155 -65.5t-58 -172.5t58 -172t155 -65zM1161 -20
q-153 0 -246.5 92.5t-93.5 244.5q0 153 93.5 246.5t246.5 93.5q154 0 247 -93t93 -247q0 -152 -93 -244.5t-247 -92.5zM1161 80q95 0 153 65.5t58 171.5q0 107 -58 172.5t-153 65.5t-154 -65.5t-59 -172.5q0 -106 59 -171.5t154 -65.5z" />
    <glyph glyph-name="ampersand" unicode="&#x26;" horiz-adv-x="1595" 
d="M1278 106q116 0 217 39v-120q-105 -45 -262 -45q-96 0 -167.5 47t-102.5 129q-64 -87 -168 -131.5t-228 -44.5q-204 0 -331 118t-127 310q0 149 85 256t236 153q-115 43 -179.5 132.5t-64.5 209.5q0 169 125.5 273t329.5 104q201 0 323.5 -104.5t122.5 -276.5v-283h392
v-118h-392v-447q0 -89 53 -145t138 -56zM340 1141q0 -120 83 -194.5t218 -74.5h299v269q0 121 -82.5 194.5t-216.5 73.5q-135 0 -218 -73.5t-83 -194.5zM604 106q89 0 163.5 29.5t123.5 94t49 153.5v371h-299q-170 0 -273.5 -89t-103.5 -235t93 -235t247 -89z" />
    <glyph glyph-name="quotesingle" unicode="'" horiz-adv-x="403" 
d="M141 1155l-4 442h127l-4 -442h-119z" />
    <glyph glyph-name="parenleft" unicode="(" horiz-adv-x="598" 
d="M410 -369q-52 80 -97.5 169t-96 216t-80.5 283t-30 315t30 315t80.5 283t96 216t97.5 169h135q-28 -49 -42 -74.5t-49 -94.5t-56 -122t-50 -139.5t-45.5 -166t-28.5 -181.5t-12 -205t12 -205t28.5 -181.5t45.5 -166t50 -139.5t56 -122t49 -94.5t42 -74.5h-135z" />
    <glyph glyph-name="parenright" unicode=")" horiz-adv-x="598" 
d="M53 -369q28 49 42 74.5t49 94.5t56 122t50 139.5t45.5 166t28.5 181.5t12 205t-12 205t-28.5 181.5t-45.5 166t-50 139.5t-56 122t-49 94.5t-42 74.5h135q52 -80 97.5 -169t96 -216t80.5 -283t30 -315t-30 -315t-80.5 -283t-96 -216t-97.5 -169h-135z" />
    <glyph glyph-name="asterisk" unicode="*" horiz-adv-x="800" 
d="M684 1270l-207 -62l131 -170l-86 -61l-121 174l-122 -174l-86 61l129 170l-205 62l33 102l202 -72l-4 216h105l-4 -216l202 72z" />
    <glyph glyph-name="plus" unicode="+" horiz-adv-x="1087" 
d="M985 772v-123h-369v-366h-147v366h-367v123h367v367h147v-367h369z" />
    <glyph glyph-name="comma" unicode="," horiz-adv-x="473" 
d="M27 -297l139 463h176l-166 -463h-149z" />
    <glyph glyph-name="hyphen" unicode="-" horiz-adv-x="892" 
d="M145 532v111h600v-111h-600z" />
    <glyph glyph-name="period" unicode="." horiz-adv-x="464" 
d="M231 -20q-44 0 -77 33t-33 77q0 46 32.5 78.5t77.5 32.5q46 0 79.5 -32.5t33.5 -78.5q0 -44 -33.5 -77t-79.5 -33z" />
    <glyph glyph-name="slash" unicode="/" horiz-adv-x="815" 
d="M88 -205l490 1802h149l-489 -1802h-150z" />
    <glyph glyph-name="zero" unicode="0" horiz-adv-x="1273" 
d="M637 -20q-241 0 -388 214t-147 564t147 564t388 214q160 0 282 -96.5t188.5 -273.5t66.5 -408t-66.5 -408t-188.5 -273.5t-282 -96.5zM637 109q169 0 272 178.5t103 470.5t-103 470.5t-272 178.5t-272 -178.5t-103 -470.5t103 -470.5t272 -178.5z" />
    <glyph glyph-name="one" unicode="1" horiz-adv-x="681" 
d="M322 0v1386h-279v130h434v-1516h-155z" />
    <glyph glyph-name="two" unicode="2" horiz-adv-x="1155" 
d="M94 0v100l459 494q121 129 160 178q157 195 157 356q0 128 -81.5 203.5t-215.5 75.5q-138 0 -221.5 -83t-83.5 -218l-159 12q0 189 126.5 303.5t335.5 114.5q207 0 333 -107.5t126 -287.5q0 -51 -12.5 -104t-28.5 -95t-51 -96.5t-57.5 -87t-73 -90t-73 -82t-79.5 -84.5
l-352 -375l748 2v-129h-957z" />
    <glyph glyph-name="three" unicode="3" horiz-adv-x="1155" 
d="M571 872q218 0 351 -119.5t133 -314.5q0 -207 -145.5 -332.5t-387.5 -125.5q-141 0 -256 44t-182 126l61 114q122 -155 361 -155q176 0 281.5 89.5t105.5 237.5q0 142 -104 229t-273 87q-129 0 -233 -52l-41 80l551 606h-652v130h860v-99l-516 -549q58 4 86 4z" />
    <glyph glyph-name="four" unicode="4" horiz-adv-x="1249" 
d="M797 0v328h-750v114l778 1074h127v-1059h230v-129h-230v-328h-155zM225 455h576l2 798z" />
    <glyph glyph-name="five" unicode="5" horiz-adv-x="1165" 
d="M514 -20q-288 0 -438 141l47 115q136 -127 377 -127q183 0 294 95.5t111 252.5q0 146 -94 236.5t-248 90.5q-147 0 -282 -61l-107 16l105 777h718v-130h-581l-76 -507q115 34 252 34q211 0 343 -124t132 -324q0 -217 -153.5 -351t-399.5 -134z" />
    <glyph glyph-name="six" unicode="6" horiz-adv-x="1150" 
d="M612 915q203 0 333 -127.5t130 -334.5q0 -214 -135 -343.5t-356 -129.5t-356.5 129t-135.5 340q0 188 117 356l481 711h176l-440 -631q80 30 186 30zM584 109q149 0 239 94t90 248q0 155 -90 249.5t-239 94.5t-239.5 -94.5t-90.5 -249.5q0 -154 90.5 -248t239.5 -94z" />
    <glyph glyph-name="seven" unicode="7" horiz-adv-x="1040" 
d="M43 1516h961l-541 -1516h-166l502 1386h-756v130z" />
    <glyph glyph-name="eight" unicode="8" horiz-adv-x="1216" 
d="M823 786q130 -45 203.5 -144.5t73.5 -235.5q0 -192 -135.5 -309t-356.5 -117t-356 116t-135 305q0 137 73 238t203 147q-110 45 -172.5 137t-62.5 214q0 180 123.5 289.5t326.5 109.5t327 -109.5t124 -287.5q0 -122 -63 -214.5t-173 -138.5zM608 1407
q-130 0 -209.5 -77.5t-79.5 -203.5q0 -125 79.5 -200.5t209.5 -75.5t209.5 75.5t79.5 200.5q0 126 -79.5 203.5t-209.5 77.5zM608 109q149 0 239.5 83.5t90.5 221.5q0 137 -90.5 221t-239.5 84t-239 -84t-90 -221q0 -138 90 -221.5t239 -83.5z" />
    <glyph glyph-name="nine" unicode="9" horiz-adv-x="1150" 
d="M567 1536q221 0 356.5 -129t135.5 -340q0 -188 -117 -356l-481 -711h-176l440 631q-82 -31 -186 -31q-203 0 -333 128t-130 335q0 214 135 343.5t356 129.5zM238 1065q0 -155 90 -249.5t239 -94.5t239.5 94.5t90.5 249.5q0 154 -90.5 248t-239.5 94t-239 -94t-90 -248z
" />
    <glyph glyph-name="colon" unicode=":" horiz-adv-x="503" 
d="M252 881q-44 0 -77.5 33.5t-33.5 78.5q0 44 33.5 77.5t77.5 33.5q45 0 77.5 -33t32.5 -78q0 -46 -32 -79t-78 -33zM252 -20q-44 0 -77.5 33t-33.5 77q0 45 33 78t78 33q46 0 78 -32.5t32 -78.5q0 -45 -32.5 -77.5t-77.5 -32.5z" />
    <glyph glyph-name="semicolon" unicode=";" horiz-adv-x="598" 
d="M309 881q-46 0 -78 33t-32 79q0 45 32.5 78t77.5 33t78 -33t33 -78q0 -46 -32.5 -79t-78.5 -33zM106 -297l142 463h174l-166 -463h-150z" />
    <glyph glyph-name="less" unicode="&#x3c;" horiz-adv-x="1079" 
d="M932 1192v-141l-672 -334l672 -334v-141l-854 430v90z" />
    <glyph glyph-name="equal" unicode="=" horiz-adv-x="1185" 
d="M152 885v125h882v-125h-882zM152 412v123h882v-123h-882z" />
    <glyph glyph-name="greater" unicode="&#x3e;" horiz-adv-x="1079" 
d="M147 1192l854 -430v-90l-854 -430v141l672 334l-672 334v141z" />
    <glyph glyph-name="question" unicode="?" horiz-adv-x="1064" 
d="M449 336q0 102 15.5 186.5t35.5 138t56.5 103.5t62 75t67.5 60q35 29 54.5 48t42 48.5t32.5 64t10 77.5q0 122 -83.5 196t-219.5 74q-132 0 -216.5 -74.5t-88.5 -195.5l-147 8q8 175 132 283t320 108q210 0 337.5 -106.5t127.5 -280.5q0 -49 -10.5 -92t-24.5 -72
t-42 -61.5t-47 -50t-56 -48.5q-37 -32 -55.5 -49.5t-51 -53t-50 -68.5t-36.5 -80.5t-27.5 -107t-8.5 -130.5h-129zM512 -20q-41 0 -69.5 28.5t-28.5 71.5q0 41 28.5 69.5t69.5 28.5q43 0 71.5 -28.5t28.5 -69.5q0 -43 -28.5 -71.5t-71.5 -28.5z" />
    <glyph glyph-name="at" unicode="@" horiz-adv-x="2189" 
d="M1368 969h143v-566q0 -87 44 -139.5t118 -52.5q112 0 181 121t69 315q0 228 -102 402.5t-285 269t-420 94.5q-257 0 -451.5 -111t-299.5 -311.5t-105 -462.5q0 -195 60 -357t169.5 -275.5t270 -176.5t356.5 -63q118 0 276.5 21.5t278.5 56.5l45 -117q-126 -40 -293.5 -64
t-306.5 -24q-231 0 -420.5 72t-319 202.5t-200 316.5t-70.5 410q0 226 72 414t203 319.5t319.5 204t415.5 72.5q281 0 498.5 -109t338 -309.5t120.5 -462.5q0 -257 -110 -416t-288 -159q-106 0 -179.5 57.5t-100.5 157.5q-46 -102 -136.5 -160.5t-218.5 -58.5
q-190 0 -308 124.5t-118 325.5q0 204 117.5 329.5t304.5 125.5q115 0 198 -49t130 -139zM1067 209q133 0 215 89t82 234q0 146 -82 236t-215 90t-215 -90t-82 -236t81.5 -234.5t215.5 -88.5z" />
    <glyph glyph-name="A" unicode="A" horiz-adv-x="1486" 
d="M1315 0l-170 395h-803l-170 -395h-166l664 1516h147l664 -1516h-166zM399 526h691l-345 801z" />
    <glyph glyph-name="B" unicode="B" horiz-adv-x="1398" 
d="M979 793q147 -35 231 -133.5t84 -237.5q0 -190 -133.5 -306t-353.5 -116h-600v1516h563q204 0 329.5 -105.5t125.5 -277.5q0 -119 -64.5 -206.5t-181.5 -133.5zM362 1386v-542h375q147 0 236.5 74t89.5 196q0 123 -91.5 197.5t-242.5 74.5h-367zM791 129q154 0 248 80.5
t94 212.5q0 131 -94 211t-248 80h-429v-584h429z" />
    <glyph glyph-name="C" unicode="C" horiz-adv-x="1378" 
d="M866 -20q-341 0 -550.5 214t-209.5 564t209.5 564t550.5 214q238 0 416 -127v-147q-161 145 -414 145q-270 0 -434 -178.5t-164 -470.5t164 -470.5t434 -178.5q253 0 414 145v-148q-177 -126 -416 -126z" />
    <glyph glyph-name="D" unicode="D" horiz-adv-x="1564" 
d="M721 1516q219 0 386 -94.5t258 -267.5t91 -400q0 -223 -91 -394.5t-258 -265.5t-386 -94h-514v1516h514zM709 129q263 0 424 172.5t161 452.5q0 286 -160.5 459t-424.5 173h-347v-1257h347z" />
    <glyph glyph-name="E" unicode="E" horiz-adv-x="1280" 
d="M362 129h797v-129h-952v1516h934v-130h-779v-548h728v-129h-728v-580z" />
    <glyph glyph-name="F" unicode="F" horiz-adv-x="1136" 
d="M1063 1386h-701v-589h625v-129h-625v-668h-155v1516h856v-130z" />
    <glyph glyph-name="G" unicode="G" horiz-adv-x="1634" 
d="M1565 805q0 -8 1 -23.5t1 -23.5q0 -356 -194 -567t-521 -211q-334 0 -538.5 214t-204.5 564q0 351 203.5 564.5t539.5 213.5q153 0 275 -37t231 -119l-103 -100q-157 127 -403 127q-261 0 -420.5 -178.5t-159.5 -470.5t160 -470.5t422 -178.5q241 0 389 154t160 411h-481
v131h643z" />
    <glyph glyph-name="H" unicode="H" horiz-adv-x="1660" 
d="M1298 1516h156v-1516h-156v705h-936v-705h-155v1516h155v-680h936v680z" />
    <glyph glyph-name="I" unicode="I" horiz-adv-x="569" 
d="M207 0v1516h155v-1516h-155z" />
    <glyph glyph-name="J" unicode="J" horiz-adv-x="835" 
d="M293 -20q-85 0 -157.5 27.5t-117.5 80.5l43 107q83 -86 207 -86q100 0 158.5 59.5t58.5 157.5v1190h154v-1221q0 -143 -93.5 -229t-252.5 -86z" />
    <glyph glyph-name="K" unicode="K" horiz-adv-x="1388" 
d="M1186 0l-545 711h-279v-711h-155v1516h155v-674h277l526 674h191l-582 -738l602 -778h-190z" />
    <glyph glyph-name="L" unicode="L" horiz-adv-x="1107" 
d="M362 129h717v-129h-872v1516h155v-1387z" />
    <glyph glyph-name="M" unicode="M" horiz-adv-x="2023" 
d="M1858 0h-156l-66 1247l-577 -1247h-96l-576 1247l-68 -1247h-153l90 1530h162l594 -1284l592 1284h163z" />
    <glyph glyph-name="N" unicode="N" horiz-adv-x="1720" 
d="M207 0v1516h100l1053 -1246l-2 1246h155v-1516h-100l-1053 1245l2 -1245h-155z" />
    <glyph glyph-name="O" unicode="O" horiz-adv-x="1728" 
d="M866 -20q-341 0 -550.5 214t-209.5 564t209.5 564t550.5 214q224 0 396 -96.5t266 -273.5t94 -408t-94 -408t-266 -273.5t-396 -96.5zM866 109q266 0 430 179t164 470t-164 470t-430 179q-268 0 -432 -178.5t-164 -470.5t164 -470.5t432 -178.5z" />
    <glyph glyph-name="P" unicode="P" horiz-adv-x="1323" 
d="M758 1516q224 0 359.5 -127t135.5 -334q0 -214 -136 -343.5t-359 -129.5h-396v-582h-155v1516h551zM737 711q161 0 258 92.5t97 245.5q0 152 -97.5 244.5t-257.5 92.5h-375v-675h375z" />
    <glyph glyph-name="Q" unicode="Q" horiz-adv-x="1730" 
d="M1657 0h-189l-127 129q-194 -149 -475 -149q-341 0 -550.5 214t-209.5 564t209.5 564t550.5 214q224 0 396 -96.5t266 -273.5t94 -408q0 -327 -184 -539zM866 109q221 0 373 124l-283 287h181l192 -192q131 173 131 430q0 291 -164 470t-430 179q-268 0 -432 -178.5
t-164 -470.5t164 -470.5t432 -178.5z" />
    <glyph glyph-name="R" unicode="R" horiz-adv-x="1429" 
d="M1380 0h-184l-403 618h-35h-396v-618h-155v1516h559q230 0 369 -123t139 -326q0 -154 -86 -266t-238 -156zM362 1386v-638h383q164 0 265.5 88t101.5 231q0 145 -100.5 232t-266.5 87h-383z" />
    <glyph glyph-name="S" unicode="S" horiz-adv-x="1273" 
d="M623 -20q-152 0 -281 44t-213 132l64 110q163 -157 419 -157q181 0 288.5 73.5t107.5 196.5q0 62 -28 111.5t-84.5 87t-121.5 64t-160 54.5l-102 31q-88 24 -152.5 53.5t-122.5 75t-88 112t-30 152.5q0 187 142.5 301.5t375.5 114.5q288 0 471 -174l-74 -109
q-163 154 -399 154q-160 0 -257 -72.5t-97 -191.5q0 -49 17 -89t43.5 -67.5t69 -51t83 -38.5t96.5 -31l104 -30q76 -23 134.5 -45.5t126 -61t111.5 -82.5t73.5 -109.5t29.5 -142.5q0 -187 -150 -301t-396 -114z" />
    <glyph glyph-name="T" unicode="T" horiz-adv-x="1185" 
d="M1159 1516v-130h-487v-1386h-156v1386h-489v130h1132z" />
    <glyph glyph-name="U" unicode="U" horiz-adv-x="1622" 
d="M811 -20q-280 0 -451.5 154t-171.5 407v975h156v-969q0 -197 128.5 -317.5t338.5 -120.5t338.5 120.5t128.5 317.5v969h156v-975q0 -253 -171 -407t-452 -154z" />
    <glyph glyph-name="V" unicode="V" horiz-adv-x="1490" 
d="M672 0l-666 1516h168l571 -1330l572 1330h166l-664 -1516h-147z" />
    <glyph glyph-name="W" unicode="W" horiz-adv-x="2260" 
d="M2077 1516h166l-541 -1516h-148l-424 1288l-423 -1288h-146l-543 1516h166l457 -1307l416 1307h149l416 -1307z" />
    <glyph glyph-name="X" unicode="X" horiz-adv-x="1314" 
d="M1305 0h-179l-469 666l-467 -666h-180l557 782l-510 734h179l421 -615l420 615h180l-512 -732z" />
    <glyph glyph-name="Y" unicode="Y" horiz-adv-x="1343" 
d="M1141 1516h170l-561 -902v-614h-156v614l-561 902h170l471 -762z" />
    <glyph glyph-name="Z" unicode="Z" horiz-adv-x="1179" 
d="M305 129h811v-129h-1055l801 1386h-788v130h1030z" />
    <glyph glyph-name="bracketleft" unicode="[" horiz-adv-x="729" 
d="M195 -369v1966h479v-127h-328v-1712h328v-127h-479z" />
    <glyph glyph-name="backslash" unicode="\" horiz-adv-x="815" 
d="M578 -205l-490 1802h150l489 -1802h-149z" />
    <glyph glyph-name="bracketright" unicode="]" horiz-adv-x="729" 
d="M535 -369h-480v127h328v1712h-328v127h480v-1966z" />
    <glyph glyph-name="asciicircum" unicode="^" horiz-adv-x="987" 
d="M881 664h-150l-237 477l-238 -477h-150l314 624h147z" />
    <glyph glyph-name="underscore" unicode="_" horiz-adv-x="1077" 
d="M51 -111v111h975v-111h-975z" />
    <glyph glyph-name="grave" unicode="`" horiz-adv-x="1228" 
d="M311 1268l-317 307h182l268 -307h-133z" />
    <glyph glyph-name="a" unicode="a" horiz-adv-x="1148" 
d="M145 1083h838v-1083h-143l-4 231q-55 -118 -164 -184.5t-240 -66.5q-160 0 -258 86.5t-98 228.5q0 148 122.5 239t321.5 91q157 0 316 -39v379h-691v118zM473 90q66 0 129.5 26.5t116 74.5t85 124t32.5 166q-145 37 -297 37q-139 0 -223.5 -60.5t-84.5 -158.5
q0 -96 65 -152.5t177 -56.5z" />
    <glyph glyph-name="b" unicode="b" horiz-adv-x="1363" 
d="M748 1104q228 0 373 -156.5t145 -408.5q0 -250 -144.5 -404.5t-373.5 -154.5q-157 0 -266.5 67t-166.5 186l-4 -233h-143v1597h147v-747q57 120 166.5 187t266.5 67zM713 106q180 0 289.5 119.5t109.5 313.5q0 197 -109.5 316.5t-289.5 119.5q-179 0 -288.5 -119.5
t-109.5 -314.5t110 -315t288 -120z" />
    <glyph glyph-name="c" unicode="c" horiz-adv-x="985" 
d="M639 -20q-244 0 -393.5 154.5t-149.5 406.5q0 254 149.5 408.5t393.5 154.5q135 0 246 -80v-141q-95 92 -240 92q-177 0 -285 -119t-108 -315q0 -195 108 -315t285 -120q147 0 244 97v-142q-105 -81 -250 -81z" />
    <glyph glyph-name="d" unicode="d" horiz-adv-x="1363" 
d="M1049 1597h147v-1597h-143l-4 233q-57 -119 -166.5 -186t-266.5 -67q-229 0 -374.5 154.5t-145.5 404.5q0 252 145.5 408.5t374.5 156.5q157 0 266.5 -67t166.5 -187v747zM651 106q178 0 288 120t110 315t-109.5 314.5t-288.5 119.5q-180 0 -289.5 -119.5t-109.5 -316.5
q0 -194 109.5 -313.5t289.5 -119.5z" />
    <glyph glyph-name="e" unicode="e" horiz-adv-x="1210" 
d="M1122 555q0 -52 -2 -68h-864q14 -180 107.5 -284.5t252.5 -104.5q106 0 196 49t155 136l112 -64q-77 -116 -197 -177.5t-266 -61.5q-232 0 -375 155t-143 408q0 252 141 406.5t373 154.5q229 0 369.5 -151t140.5 -398zM612 985q-156 0 -250.5 -105.5t-105.5 -287.5h713
q-9 182 -104.5 287.5t-252.5 105.5z" />
    <glyph glyph-name="f" unicode="f" horiz-adv-x="770" 
d="M760 1475h-381v-392h369v-122h-369v-961h-148v961h-188v122h188v514h529v-122z" />
    <glyph glyph-name="g" unicode="g" horiz-adv-x="1363" 
d="M1055 1083h143v-1534h-1053v123h906v561q-57 -119 -166.5 -186t-266.5 -67q-229 0 -374.5 156t-145.5 409q0 250 145.5 404.5t374.5 154.5q157 0 266.5 -67t166.5 -187zM653 106q178 0 288 120t110 315q0 196 -109.5 315t-288.5 119q-180 0 -289.5 -118.5t-109.5 -313.5
q0 -197 109.5 -317t289.5 -120z" />
    <glyph glyph-name="h" unicode="h" horiz-adv-x="1302" 
d="M705 1104q200 0 322 -116t122 -306v-682h-148v653q0 146 -94 234t-248 88q-155 0 -249.5 -88t-94.5 -234v-653h-147v1597h147v-694q53 97 152.5 149t237.5 52z" />
    <glyph glyph-name="i" unicode="i" horiz-adv-x="487" 
d="M244 1356q-43 0 -72 28.5t-29 69.5q0 43 29 71.5t72 28.5q41 0 69.5 -28.5t28.5 -71.5q0 -41 -28.5 -69.5t-69.5 -28.5zM170 0v1083h147v-1083h-147z" />
    <glyph glyph-name="j" unicode="j" horiz-adv-x="487" 
d="M242 1356q-41 0 -70 28.5t-29 69.5q0 42 28.5 71t70.5 29q43 0 71.5 -28.5t28.5 -71.5q0 -41 -28.5 -69.5t-71.5 -28.5zM170 -451v1534h147v-1534h-147z" />
    <glyph glyph-name="k" unicode="k" horiz-adv-x="1167" 
d="M973 0l-438 508h-220v-508h-147v1597h147v-966h220l415 452h187l-480 -512l504 -571h-188z" />
    <glyph glyph-name="l" unicode="l" horiz-adv-x="565" 
d="M172 0v1597h147v-1474h230v-123h-377z" />
    <glyph glyph-name="m" unicode="m" horiz-adv-x="1992" 
d="M1411 1104q192 0 309 -116t117 -306v-682h-147v653q0 146 -85 234t-223 88t-222.5 -88t-84.5 -234v-653h-147v653q0 146 -84 234t-221 88q-138 0 -223 -88t-85 -234v-653h-147v1083h143l2 -172q50 92 140.5 142.5t214.5 50.5q128 0 223 -58.5t143 -162.5
q51 104 147.5 162.5t229.5 58.5z" />
    <glyph glyph-name="n" unicode="n" horiz-adv-x="1302" 
d="M705 1104q200 0 322 -116t122 -306v-682h-148v653q0 146 -94 234t-248 88q-155 0 -249.5 -88t-94.5 -234v-653h-147v1083h143l2 -182q55 97 154.5 150t237.5 53z" />
    <glyph glyph-name="o" unicode="o" horiz-adv-x="1298" 
d="M651 -20q-249 0 -402 154.5t-153 406.5q0 253 153 408t402 155q248 0 399.5 -155t151.5 -408q0 -252 -151.5 -406.5t-399.5 -154.5zM651 106q178 0 287 120t109 315q0 196 -108.5 315t-287.5 119q-180 0 -289.5 -119t-109.5 -315q0 -195 109.5 -315t289.5 -120z" />
    <glyph glyph-name="p" unicode="p" horiz-adv-x="1363" 
d="M748 1104q229 0 373.5 -154.5t144.5 -404.5q0 -253 -144.5 -409t-373.5 -156q-157 0 -266.5 67t-166.5 186v-684h-147v1534h143l4 -233q57 120 166.5 187t266.5 67zM713 106q180 0 289.5 120t109.5 317q0 195 -109.5 313.5t-289.5 118.5q-179 0 -288.5 -119t-109.5 -315
q0 -195 110 -315t288 -120z" />
    <glyph glyph-name="q" unicode="q" horiz-adv-x="1363" 
d="M1053 1083h143v-1534h-147v684q-57 -119 -166.5 -186t-266.5 -67q-229 0 -374.5 156t-145.5 409q0 250 145.5 404.5t374.5 154.5q157 0 266.5 -67t166.5 -187zM651 106q178 0 288 120t110 315q0 196 -109.5 315t-288.5 119q-180 0 -289.5 -118.5t-109.5 -313.5
q0 -197 109.5 -317t289.5 -120z" />
    <glyph glyph-name="r" unicode="r" horiz-adv-x="757" 
d="M313 901q117 203 430 203l-12 -135q-196 0 -306 -91.5t-110 -248.5v-629h-147v1083h143z" />
    <glyph glyph-name="s" unicode="s" horiz-adv-x="983" 
d="M479 -20q-247 0 -373 114l62 92q120 -88 311 -88q116 0 186 50t70 133q0 132 -227 196l-117 35q-142 39 -214.5 101t-72.5 175q0 142 104.5 229t276.5 87q219 0 369 -98l-63 -101q-129 80 -295 80q-108 0 -174 -47.5t-66 -126.5q0 -70 51.5 -110t149.5 -68l116 -35
q314 -86 314 -305q0 -142 -110.5 -227.5t-297.5 -85.5z" />
    <glyph glyph-name="t" unicode="t" horiz-adv-x="714" 
d="M717 1083v-122h-271v-961h-147v961h-270v122h270v318h147v-318h271z" />
    <glyph glyph-name="u" unicode="u" horiz-adv-x="1261" 
d="M631 -20q-215 0 -346 119t-131 315v669h147v-655q0 -145 90.5 -233.5t239.5 -88.5t239.5 88.5t90.5 233.5v655h147v-669q0 -195 -131 -314.5t-346 -119.5z" />
    <glyph glyph-name="v" unicode="v" horiz-adv-x="1163" 
d="M508 0l-483 1083h161l396 -913l395 913h162l-482 -1083h-149z" />
    <glyph glyph-name="w" unicode="w" horiz-adv-x="1869" 
d="M1677 1083h164l-422 -1083h-149l-334 913l-336 -913h-149l-422 1083h161l342 -913l338 913h129l336 -913z" />
    <glyph glyph-name="x" unicode="x" horiz-adv-x="1114" 
d="M1090 0h-181l-352 455l-350 -455h-180l440 555l-416 528h178l328 -428l328 428h178l-416 -528z" />
    <glyph glyph-name="y" unicode="y" horiz-adv-x="1275" 
d="M961 1083h147v-1534h-944v123h797v502q-110 -194 -377 -194q-193 0 -311.5 115.5t-118.5 303.5v684h147v-655q0 -145 90.5 -233.5t239.5 -88.5t239.5 88.5t90.5 233.5v655z" />
    <glyph glyph-name="z" unicode="z" horiz-adv-x="1017" 
d="M68 0l637 961h-629v122h864l-639 -960h649v-123h-882z" />
    <glyph glyph-name="braceleft" unicode="{" horiz-adv-x="800" 
d="M537 -389q-128 0 -206.5 81t-78.5 214v407q0 106 -46.5 171t-121.5 65h-16v131h16q75 0 121.5 64.5t46.5 170.5v408q0 133 78.5 214t206.5 81q103 0 206 -25v-125q-79 21 -161 21q-78 0 -126 -56.5t-48 -148.5v-385q0 -107 -43.5 -186t-114.5 -99q71 -20 114.5 -97.5
t43.5 -184.5v-387q0 -92 48 -148.5t126 -56.5q85 0 161 20v-125q-99 -24 -206 -24z" />
    <glyph glyph-name="bar" unicode="|" horiz-adv-x="546" 
d="M195 -451v2048h155v-2048h-155z" />
    <glyph glyph-name="braceright" unicode="}" horiz-adv-x="800" 
d="M264 -389q-112 0 -207 24v125q76 -20 162 -20q78 0 125 56.5t47 148.5v387q0 106 44.5 184t115.5 98q-71 20 -115.5 99t-44.5 186v385q0 92 -47 148.5t-125 56.5q-83 0 -162 -21v125q98 25 207 25q128 0 205.5 -81t77.5 -214v-408q0 -105 47.5 -170t122.5 -65h16v-131
h-16q-75 0 -122.5 -65.5t-47.5 -170.5v-407q0 -133 -77.5 -214t-205.5 -81z" />
    <glyph glyph-name="asciitilde" unicode="~" horiz-adv-x="1179" 
d="M784 477q-54 0 -110.5 23t-95.5 51t-88.5 51t-92.5 23q-65 0 -108 -35t-43 -92h-90q0 108 68 173.5t175 65.5q55 0 111.5 -22.5t95.5 -50t88 -50t92 -22.5q65 0 108.5 34t43.5 91h90q0 -111 -68 -175.5t-176 -64.5z" />
    <glyph glyph-name="uni00A0" unicode="&#xa0;" horiz-adv-x="542" 
 />
    <glyph glyph-name="exclamdown" unicode="&#xa1;" horiz-adv-x="499" 
d="M250 905q-41 0 -69.5 29t-28.5 70q0 43 28.5 71.5t69.5 28.5q43 0 71.5 -28.5t28.5 -71.5q0 -42 -29 -70.5t-71 -28.5zM172 -451l14 1199h129l15 -1199h-158z" />
    <glyph glyph-name="cent" unicode="&#xa2;" horiz-adv-x="1155" 
d="M1036 225q-124 -118 -311 -139v-168h-141v166q-221 20 -354.5 173t-133.5 388q0 233 133 384t355 173v168h141v-168q155 -18 279 -115l-84 -102q-84 69 -195 88v-860q137 22 225 113zM252 643q0 -174 90 -289.5t242 -138.5v858q-153 -23 -242.5 -138.5t-89.5 -291.5z" />
    <glyph glyph-name="sterling" unicode="&#xa3;" horiz-adv-x="1202" 
d="M395 125h684v-125h-968v123h129v524h-109v125h109v381q0 172 113.5 277.5t299.5 105.5t300 -106.5t114 -278.5l-152 -12q0 120 -72 194t-190 74q-116 0 -187 -73t-71 -193v-369h606v-125h-606v-522z" />
    <glyph glyph-name="currency" unicode="&#xa4;" horiz-adv-x="1247" 
d="M1079 705q0 -153 -90 -273l117 -117l-92 -92l-117 117q-122 -88 -272 -88q-149 0 -271 88l-118 -119l-95 92l119 117q-92 123 -92 275q0 149 92 272l-119 117l95 92l118 -119q118 88 271 88q150 0 272 -88l117 117l92 -92l-117 -117q90 -120 90 -270zM625 365
q135 0 232 99.5t97 240.5q0 139 -97 238t-232 99q-137 0 -234.5 -99t-97.5 -238q0 -141 97.5 -240.5t234.5 -99.5z" />
    <glyph glyph-name="yen" unicode="&#xa5;" horiz-adv-x="1400" 
d="M1339 1516l-512 -822h299v-102h-348v-123h348v-102h-348v-367h-155v367h-349v102h349v123h-349v102h299l-512 822h170l471 -762l467 762h170z" />
    <glyph glyph-name="brokenbar" unicode="&#xa6;" horiz-adv-x="538" 
d="M193 778v819h155v-819h-155zM193 -451v820h155v-820h-155z" />
    <glyph glyph-name="section" unicode="&#xa7;" horiz-adv-x="1198" 
d="M979 205q106 -106 106 -260q0 -187 -137.5 -301.5t-361.5 -114.5q-139 0 -258.5 44t-194.5 132l62 111q148 -158 378 -158q161 0 256 73.5t95 196.5q0 63 -24.5 112t-74.5 86t-107.5 63.5t-142.5 54.5l-92 30q-65 21 -114 42.5t-98 55t-80 73.5t-50.5 97.5t-19.5 127.5
q0 167 106 276q-106 95 -106 256q0 188 131 302t346 114q261 0 432 -174l-74 -109q-148 154 -360 154q-141 0 -226 -72.5t-85 -191.5q0 -49 15.5 -88.5t38.5 -66.5t62 -51t73.5 -38.5t86.5 -32.5l94 -30q57 -20 101.5 -38.5t97.5 -46t91.5 -61.5t71.5 -76.5t50.5 -98
t17.5 -120.5q0 -163 -106 -272zM561 408l94 -33q134 -44 209 -86q68 71 68 172q0 52 -17.5 95t-47 75t-77 60.5t-97.5 49.5t-118 43l-92 31q-84 27 -139 53q-70 -70 -70 -176q0 -51 16 -92t40 -68.5t64.5 -52t76.5 -39t90 -32.5z" />
    <glyph glyph-name="dieresis" unicode="&#xa8;" horiz-adv-x="1228" 
d="M236 1356q-41 0 -70 28.5t-29 69.5q0 42 28.5 71t70.5 29q43 0 71.5 -28.5t28.5 -71.5q0 -41 -28.5 -69.5t-71.5 -28.5zM653 1356q-43 0 -71.5 28.5t-28.5 69.5q0 43 28.5 71.5t71.5 28.5q41 0 70 -29t29 -71q0 -41 -29 -69.5t-70 -28.5z" />
    <glyph glyph-name="copyright" unicode="&#xa9;" horiz-adv-x="1748" 
d="M874 -20q-345 0 -554 213.5t-209 564.5t209 564.5t554 213.5q344 0 554 -214t210 -564t-210 -564t-554 -214zM874 59q298 0 481 192t183 507t-183 507.5t-481 192.5q-299 0 -481 -192.5t-182 -507.5t182 -507t481 -192zM887 324q-192 0 -310 118.5t-118 311.5
q0 192 118 309t310 117q193 0 319 -136l-69 -71q-95 114 -248 114q-141 0 -228.5 -92t-87.5 -241q0 -153 87 -245.5t229 -92.5q173 0 266 141l76 -70q-119 -163 -344 -163z" />
    <glyph glyph-name="ordfeminine" unicode="&#xaa;" horiz-adv-x="808" 
d="M393 1536q121 0 193.5 -69t72.5 -185v-410h-98l-2 129q-33 -67 -96 -104t-139 -37q-97 0 -157.5 52.5t-60.5 138.5q0 90 74.5 145t196.5 55q84 0 182 -20v39q0 86 -50.5 135t-137.5 49q-109 0 -176 -70l-48 64q97 88 246 88zM352 934q80 0 143.5 62t63.5 163
q-96 21 -170 21q-80 0 -128 -34.5t-48 -92.5q0 -54 37.5 -86.5t101.5 -32.5z" />
    <glyph glyph-name="guillemotleft" unicode="&#xab;" horiz-adv-x="1177" 
d="M608 1012l-352 -459l352 -459h-157l-361 459l361 459h157zM1079 1012l-352 -459l352 -459h-157l-361 459l361 459h157z" />
    <glyph glyph-name="logicalnot" unicode="&#xac;" horiz-adv-x="1191" 
d="M1036 877v-433h-147v310h-733v123h880z" />
    <glyph glyph-name="uni00AD" unicode="&#xad;" horiz-adv-x="892" 
d="M145 532v111h600v-111h-600z" />
    <glyph glyph-name="registered" unicode="&#xae;" horiz-adv-x="851" 
d="M426 1618q140 0 225.5 -86t85.5 -227t-86 -228.5t-225 -87.5t-225 87.5t-86 228.5t85.5 227t225.5 86zM426 1026q120 0 193 77t73 202t-73 200.5t-193 75.5t-193 -75.5t-73 -200.5t73 -202t193 -77zM551 1366q0 -69 -64 -92l88 -137h-59l-80 127h-4h-76v-127h-53v333h135
q51 0 82 -29t31 -75zM356 1427v-120h72q31 0 50.5 16.5t19.5 42.5q0 28 -18.5 44.5t-47.5 16.5h-76z" />
    <glyph glyph-name="macron" unicode="&#xaf;" horiz-adv-x="1228" 
d="M129 1325v117h635v-117h-635z" />
    <glyph glyph-name="degree" unicode="&#xb0;" horiz-adv-x="727" 
d="M365 1128q-119 0 -192 68t-73 178q0 109 73.5 176.5t191.5 67.5t190 -67.5t72 -176.5q0 -110 -72 -178t-190 -68zM365 1212q71 0 114 44.5t43 117.5q0 72 -43 116t-114 44q-72 0 -116 -44t-44 -116q0 -73 44 -117.5t116 -44.5z" />
    <glyph glyph-name="plusminus" unicode="&#xb1;" horiz-adv-x="1191" 
d="M670 911h356v-123h-356v-366h-148v366h-354v123h354v365h148v-365zM168 156v125h858v-125h-858z" />
    <glyph glyph-name="uni00B2" unicode="&#xb2;" horiz-adv-x="722" 
d="M68 811v70l274 297q2 3 21.5 23t25 26t24 26.5t25.5 30t22.5 30t22.5 33.5l17.5 32.5t15 35.5t8.5 35t4 37q0 72 -46.5 115t-121.5 43q-79 0 -127.5 -48.5t-48.5 -126.5l-106 11q0 114 76.5 183t203.5 69q125 0 202 -66t77 -174q0 -51 -17 -100.5t-54 -101t-68 -87
t-84 -90.5l-205 -217l440 2v-88h-581z" />
    <glyph glyph-name="uni00B3" unicode="&#xb3;" horiz-adv-x="716" 
d="M356 1339q130 0 209.5 -72.5t79.5 -189.5q0 -126 -87 -202t-234 -76q-86 0 -156 25.5t-111 74.5l41 78q74 -90 213 -90q102 0 163 52t61 138q0 81 -59.5 130.5t-156.5 49.5q-79 0 -137 -30l-30 53l317 352h-377v88h520v-67l-297 -316q12 2 41 2z" />
    <glyph glyph-name="acute" unicode="&#xb4;" horiz-adv-x="1228" 
d="M258 1268l266 307h183l-318 -307h-131z" />
    <glyph glyph-name="paragraph" unicode="&#xb6;" horiz-adv-x="1157" 
d="M938 1516v-1967h-121v1854h-221v-1854h-119v1297h-135q-124 0 -199 92.5t-75 245.5q0 150 85.5 241t225.5 91h559z" />
    <glyph glyph-name="periodcentered" unicode="&#xb7;" horiz-adv-x="495" 
d="M248 479q-46 0 -79.5 33.5t-33.5 77.5q0 45 33.5 77.5t79.5 32.5q45 0 77.5 -32.5t32.5 -77.5q0 -44 -33 -77.5t-77 -33.5z" />
    <glyph glyph-name="cedilla" unicode="&#xb8;" horiz-adv-x="1228" 
d="M266 -133q99 0 159 -45t60 -119q0 -78 -66.5 -126t-178.5 -48q-127 0 -197 57l33 66q55 -49 147 -49q69 0 110.5 27.5t41.5 72.5q0 43 -39.5 68.5t-104.5 25.5q-51 0 -94 -18l-22 43l108 178h96l-86 -133h33z" />
    <glyph glyph-name="uni00B9" unicode="&#xb9;" horiz-adv-x="440" 
d="M201 811v821h-162v88h268v-909h-106z" />
    <glyph glyph-name="ordmasculine" unicode="&#xba;" horiz-adv-x="874" 
d="M440 860q-152 0 -245 93t-93 245t93 245t245 93q150 0 242 -93t92 -245t-92 -245t-242 -93zM440 948q102 0 165 68.5t63 181.5q0 112 -63 181t-165 69q-104 0 -167.5 -68.5t-63.5 -181.5q0 -114 63 -182t168 -68z" />
    <glyph glyph-name="guillemotright" unicode="&#xbb;" horiz-adv-x="1177" 
d="M256 1012l362 -459l-362 -459h-158l355 459l-355 459h158zM727 1012l360 -459l-360 -459h-158l353 459l-353 459h158z" />
    <glyph glyph-name="onequarter" unicode="&#xbc;" horiz-adv-x="1540" 
d="M244 -20l-86 53l880 1503l86 -53zM201 606v821h-162v89h268v-910h-106zM1247 0v193h-444v77l465 639h86v-626h135v-90h-135v-193h-107zM918 279h333v460z" />
    <glyph glyph-name="onehalf" unicode="&#xbd;" horiz-adv-x="1566" 
d="M244 -20l-86 53l880 1503l86 -53zM201 606v821h-162v89h268v-910h-106zM911 0v70l275 297q2 3 21.5 23t25 26t24 26.5t25.5 30t22.5 30t22.5 33.5l17.5 32.5t15 35.5t8.5 35t4 37q0 72 -46.5 115t-121.5 43q-79 0 -127.5 -48.5t-48.5 -126.5l-106 11q0 114 76.5 183
t203.5 69q125 0 202 -66t77 -174q0 -51 -17 -100.5t-54.5 -101t-68 -86.5t-84.5 -91l-204 -217l440 2v-88h-582z" />
    <glyph glyph-name="threequarters" unicode="&#xbe;" horiz-adv-x="1816" 
d="M1315 1536l86 -53l-881 -1503l-86 53zM645 872q0 -126 -87 -202t-234 -76q-86 0 -156 25.5t-111 74.5l41 78q74 -90 213 -90q102 0 163 52t61 138q0 82 -59.5 131.5t-156.5 49.5q-77 0 -137 -31l-30 53l317 352h-377v89h520v-68l-297 -315q12 2 41 2q130 0 209.5 -73
t79.5 -190zM1630 283h135v-90h-135v-193h-106v193h-445v77l465 639h86v-626zM1528 279v460l-334 -460h334z" />
    <glyph glyph-name="questiondown" unicode="&#xbf;" horiz-adv-x="1050" 
d="M545 905q-41 0 -70 29t-29 70q0 42 29 71t70 29q43 0 70.5 -28.5t27.5 -71.5q0 -42 -28 -70.5t-70 -28.5zM535 -471q-209 0 -337 107t-128 280q0 49 10.5 92t24.5 72t42 61.5t47 50t56 48.5q44 39 68 62.5t59.5 70.5t54 94t33 120.5t14.5 160.5h131q0 -105 -15 -192
t-36 -142.5t-57 -106.5t-62.5 -77t-68.5 -62q-38 -33 -55.5 -50t-40.5 -47.5t-32.5 -64.5t-9.5 -78q0 -122 83 -196t219 -74q132 0 216.5 74.5t90.5 195.5l145 -8q-6 -175 -130 -283t-322 -108z" />
    <glyph glyph-name="Agrave" unicode="&#xc0;" horiz-adv-x="1486" 
d="M840 1700h-133l-318 307h182zM1315 0l-170 395h-803l-170 -395h-166l664 1516h147l664 -1516h-166zM399 526h691l-345 801z" />
    <glyph glyph-name="Aacute" unicode="&#xc1;" horiz-adv-x="1486" 
d="M1102 2007l-318 -307h-131l267 307h182zM1315 0l-170 395h-803l-170 -395h-166l664 1516h147l664 -1516h-166zM399 526h691l-345 801z" />
    <glyph glyph-name="Acircumflex" unicode="&#xc2;" horiz-adv-x="1486" 
d="M745 1923l-198 -223h-144l267 307h149l266 -307h-143zM1315 0l-170 395h-803l-170 -395h-166l664 1516h147l664 -1516h-166zM399 526h691l-345 801z" />
    <glyph glyph-name="Atilde" unicode="&#xc3;" horiz-adv-x="1486" 
d="M580 1864q-48 0 -79.5 -35t-31.5 -92h-92q0 108 57 174.5t146 66.5q47 0 94.5 -23t80.5 -50.5t74.5 -50.5t77.5 -23q49 0 81 34.5t32 92.5h90q0 -111 -56.5 -176.5t-146.5 -65.5q-46 0 -93.5 23t-80.5 51t-75 51t-78 23zM1315 0l-170 395h-803l-170 -395h-166l664 1516
h147l664 -1516h-166zM399 526h691l-345 801z" />
    <glyph glyph-name="Adieresis" unicode="&#xc4;" horiz-adv-x="1486" 
d="M537 1788q-41 0 -70 28.5t-29 69.5q0 43 29 72t70 29q43 0 71.5 -29t28.5 -72q0 -41 -28.5 -69.5t-71.5 -28.5zM954 1788q-43 0 -71.5 28.5t-28.5 69.5q0 43 28.5 72t71.5 29q41 0 70 -29t29 -72q0 -41 -29 -69.5t-70 -28.5zM1315 0l-170 395h-803l-170 -395h-166
l664 1516h147l664 -1516h-166zM399 526h691l-345 801z" />
    <glyph glyph-name="Aring" unicode="&#xc5;" horiz-adv-x="1486" 
d="M745 1628q-100 0 -161.5 59t-61.5 156t61.5 156t161.5 59t162 -59t62 -156t-62 -156t-162 -59zM745 1982q-60 0 -96.5 -38t-36.5 -101t36.5 -101t96.5 -38t97 38t37 101t-37 101t-97 38zM1315 0l-170 395h-803l-170 -395h-166l664 1516h147l664 -1516h-166zM399 526h691
l-345 801z" />
    <glyph glyph-name="AE" unicode="&#xc6;" horiz-adv-x="2187" 
d="M1393 129h675v-129h-804l-109 395h-774l-227 -395h-177l897 1516h1174v-130h-1006l154 -548h801v-129h-766zM455 526h665l-215 785z" />
    <glyph glyph-name="Ccedilla" unicode="&#xc7;" horiz-adv-x="1378" 
d="M868 1407q-270 0 -434 -178.5t-164 -470.5t164 -470.5t434 -178.5q253 0 414 145v-148q-163 -117 -381 -126l-74 -113h33q99 0 159 -45t60 -119q0 -78 -66.5 -126t-178.5 -48q-127 0 -197 57l33 66q55 -49 147 -49q69 0 110.5 27.5t41.5 72.5q0 43 -39.5 68.5
t-104.5 25.5q-51 0 -94 -18l-22 43l96 160q-316 20 -507.5 231.5t-191.5 544.5q0 350 209.5 564t550.5 214q238 0 416 -127v-147q-161 145 -414 145z" />
    <glyph glyph-name="Egrave" unicode="&#xc8;" horiz-adv-x="1280" 
d="M768 1700h-133l-318 307h183zM362 129h797v-129h-952v1516h934v-130h-779v-548h728v-129h-728v-580z" />
    <glyph glyph-name="Eacute" unicode="&#xc9;" horiz-adv-x="1280" 
d="M1030 2007l-317 -307h-131l266 307h182zM362 129h797v-129h-952v1516h934v-130h-779v-548h728v-129h-728v-580z" />
    <glyph glyph-name="Ecircumflex" unicode="&#xca;" horiz-adv-x="1280" 
d="M674 1923l-199 -223h-143l266 307h150l266 -307h-144zM362 129h797v-129h-952v1516h934v-130h-779v-548h728v-129h-728v-580z" />
    <glyph glyph-name="Edieresis" unicode="&#xcb;" horiz-adv-x="1280" 
d="M465 1788q-41 0 -69.5 28.5t-28.5 69.5q0 43 28.5 72t69.5 29q43 0 71.5 -29t28.5 -72q0 -41 -28.5 -69.5t-71.5 -28.5zM883 1788q-43 0 -72 28.5t-29 69.5q0 43 29 72t72 29q41 0 69.5 -29t28.5 -72q0 -41 -28.5 -69.5t-69.5 -28.5zM362 129h797v-129h-952v1516h934
v-130h-779v-548h728v-129h-728v-580z" />
    <glyph glyph-name="Igrave" unicode="&#xcc;" horiz-adv-x="569" 
d="M246 1700l-318 307h183l268 -307h-133zM207 0v1516h155v-1516h-155z" />
    <glyph glyph-name="Iacute" unicode="&#xcd;" horiz-adv-x="569" 
d="M193 1700l266 307h182l-317 -307h-131zM207 0v1516h155v-1516h-155z" />
    <glyph glyph-name="Icircumflex" unicode="&#xce;" horiz-adv-x="569" 
d="M358 2007l267 -307h-144l-196 223l-199 -223h-143l266 307h149zM207 0v1516h155v-1516h-155z" />
    <glyph glyph-name="Idieresis" unicode="&#xcf;" horiz-adv-x="569" 
d="M76 1788q-41 0 -70 28.5t-29 69.5q0 43 29 72t70 29q43 0 71.5 -29t28.5 -72q0 -41 -28.5 -69.5t-71.5 -28.5zM494 1788q-43 0 -72 28.5t-29 69.5q0 43 29 72t72 29q41 0 69.5 -29t28.5 -72q0 -41 -28.5 -69.5t-69.5 -28.5zM207 0v1516h155v-1516h-155z" />
    <glyph glyph-name="Eth" unicode="&#xd0;" horiz-adv-x="1564" 
d="M721 1516q219 0 386 -94.5t258 -267.5t91 -400q0 -223 -91 -394.5t-258 -265.5t-386 -94h-514v707h-174v110h174v699h514zM709 129q263 0 424 172.5t161 452.5q0 286 -160.5 459t-424.5 173h-347v-569h412v-110h-412v-578h347z" />
    <glyph glyph-name="Ntilde" unicode="&#xd1;" horiz-adv-x="1720" 
d="M1022 1716q-46 0 -93.5 23t-81 51t-75.5 51t-78 23q-48 0 -79 -34.5t-31 -92.5h-92q0 108 56.5 174.5t145.5 66.5q47 0 94.5 -23t80.5 -50.5t75 -50.5t78 -23q49 0 81 34.5t32 92.5h90q0 -111 -56.5 -176.5t-146.5 -65.5zM207 0v1516h100l1053 -1246l-2 1246h155v-1516
h-100l-1053 1245l2 -1245h-155z" />
    <glyph glyph-name="Ograve" unicode="&#xd2;" horiz-adv-x="1728" 
d="M827 1700l-317 307h182l269 -307h-134zM866 -20q-341 0 -550.5 214t-209.5 564t209.5 564t550.5 214q224 0 396 -96.5t266 -273.5t94 -408t-94 -408t-266 -273.5t-396 -96.5zM866 109q266 0 430 179t164 470t-164 470t-430 179q-268 0 -432 -178.5t-164 -470.5
t164 -470.5t432 -178.5z" />
    <glyph glyph-name="Oacute" unicode="&#xd3;" horiz-adv-x="1728" 
d="M774 1700l266 307h183l-318 -307h-131zM866 -20q-341 0 -550.5 214t-209.5 564t209.5 564t550.5 214q224 0 396 -96.5t266 -273.5t94 -408t-94 -408t-266 -273.5t-396 -96.5zM866 109q266 0 430 179t164 470t-164 470t-430 179q-268 0 -432 -178.5t-164 -470.5
t164 -470.5t432 -178.5z" />
    <glyph glyph-name="Ocircumflex" unicode="&#xd4;" horiz-adv-x="1728" 
d="M866 1923l-198 -223h-144l267 307h149l266 -307h-143zM866 1536q224 0 396 -96.5t266 -273.5t94 -408t-94 -408t-266 -273.5t-396 -96.5q-341 0 -550.5 214t-209.5 564t209.5 564t550.5 214zM866 109q266 0 430 179t164 470t-164 470t-430 179q-268 0 -432 -178.5
t-164 -470.5t164 -470.5t432 -178.5z" />
    <glyph glyph-name="Otilde" unicode="&#xd5;" horiz-adv-x="1728" 
d="M1028 1716q-46 0 -93.5 23t-81 51t-75.5 51t-78 23q-48 0 -79 -34.5t-31 -92.5h-92q0 108 56.5 174.5t145.5 66.5q47 0 94.5 -23t80.5 -50.5t75 -50.5t78 -23q49 0 81 34.5t32 92.5h90q0 -111 -56.5 -176.5t-146.5 -65.5zM866 -20q-341 0 -550.5 214t-209.5 564
t209.5 564t550.5 214q224 0 396 -96.5t266 -273.5t94 -408t-94 -408t-266 -273.5t-396 -96.5zM866 109q266 0 430 179t164 470t-164 470t-430 179q-268 0 -432 -178.5t-164 -470.5t164 -470.5t432 -178.5z" />
    <glyph glyph-name="Odieresis" unicode="&#xd6;" horiz-adv-x="1728" 
d="M657 1788q-41 0 -69.5 28.5t-28.5 69.5q0 43 28.5 72t69.5 29q43 0 72 -29t29 -72q0 -41 -29 -69.5t-72 -28.5zM1075 1788q-43 0 -71.5 28.5t-28.5 69.5q0 43 28.5 72t71.5 29q41 0 70 -29t29 -72q0 -41 -29 -69.5t-70 -28.5zM866 -20q-341 0 -550.5 214t-209.5 564
t209.5 564t550.5 214q224 0 396 -96.5t266 -273.5t94 -408t-94 -408t-266 -273.5t-396 -96.5zM866 109q266 0 430 179t164 470t-164 470t-430 179q-268 0 -432 -178.5t-164 -470.5t164 -470.5t432 -178.5z" />
    <glyph glyph-name="multiply" unicode="&#xd7;" horiz-adv-x="1030" 
d="M897 999l-291 -290l289 -289l-90 -92l-289 290l-291 -290l-92 92l291 291l-291 288l90 93l291 -291l291 291z" />
    <glyph glyph-name="Oslash" unicode="&#xd8;" horiz-adv-x="1738" 
d="M1454 1276q168 -205 168 -518q0 -231 -94 -408t-266 -273.5t-396 -96.5q-293 0 -493 161l-156 -161l-96 90l158 166q-173 207 -173 522q0 350 209.5 564t550.5 214q294 0 496 -166l158 166l98 -90zM270 758q0 -245 115 -410l875 916q-155 143 -394 143
q-268 0 -432 -178.5t-164 -470.5zM866 109q266 0 430 179t164 470q0 235 -112 405l-875 -915q161 -139 393 -139z" />
    <glyph glyph-name="Ugrave" unicode="&#xd9;" horiz-adv-x="1622" 
d="M772 1700l-317 307h182l268 -307h-133zM811 -20q-280 0 -451.5 154t-171.5 407v975h156v-969q0 -197 128.5 -317.5t338.5 -120.5t338.5 120.5t128.5 317.5v969h156v-975q0 -253 -171 -407t-452 -154z" />
    <glyph glyph-name="Uacute" unicode="&#xda;" horiz-adv-x="1622" 
d="M719 1700l266 307h182l-317 -307h-131zM811 -20q-280 0 -451.5 154t-171.5 407v975h156v-969q0 -197 128.5 -317.5t338.5 -120.5t338.5 120.5t128.5 317.5v969h156v-975q0 -253 -171 -407t-452 -154z" />
    <glyph glyph-name="Ucircumflex" unicode="&#xdb;" horiz-adv-x="1622" 
d="M811 1923l-199 -223h-143l266 307h150l266 -307h-143zM1278 1516h156v-975q0 -253 -171 -407t-452 -154q-280 0 -451.5 154t-171.5 407v975h156v-969q0 -197 128.5 -317.5t338.5 -120.5t338.5 120.5t128.5 317.5v969z" />
    <glyph glyph-name="Udieresis" unicode="&#xdc;" horiz-adv-x="1622" 
d="M602 1788q-41 0 -69.5 28.5t-28.5 69.5q0 43 28.5 72t69.5 29q43 0 71.5 -29t28.5 -72q0 -41 -28.5 -69.5t-71.5 -28.5zM1020 1788q-43 0 -71.5 28.5t-28.5 69.5q0 43 28.5 72t71.5 29q41 0 69.5 -29t28.5 -72q0 -41 -28.5 -69.5t-69.5 -28.5zM811 -20q-280 0 -451.5 154
t-171.5 407v975h156v-969q0 -197 128.5 -317.5t338.5 -120.5t338.5 120.5t128.5 317.5v969h156v-975q0 -253 -171 -407t-452 -154z" />
    <glyph glyph-name="Yacute" unicode="&#xdd;" horiz-adv-x="1343" 
d="M1030 2007l-317 -307h-131l266 307h182zM1141 1516h170l-561 -902v-614h-156v614l-561 902h170l471 -762z" />
    <glyph glyph-name="Thorn" unicode="&#xde;" horiz-adv-x="1327" 
d="M758 1237q224 0 359.5 -127.5t135.5 -335.5q0 -212 -136 -341.5t-359 -129.5h-396v-303h-155v1516h155v-279h396zM737 432q161 0 258 92.5t97 245.5q0 151 -97.5 243.5t-257.5 92.5h-375v-674h375z" />
    <glyph glyph-name="germandbls" unicode="&#xdf;" horiz-adv-x="1241" 
d="M821 858q152 -46 239 -157t87 -265q0 -205 -137.5 -330.5t-362.5 -125.5q-97 0 -162 24l15 123q65 -21 125 -21q165 0 265.5 95t100.5 250t-103.5 249.5t-273.5 94.5v118q135 0 218 80t83 209q0 130 -83 209.5t-218 79.5t-217 -79t-82 -208v-1204h-147v1221
q0 179 122.5 288t323.5 109q204 0 329.5 -109.5t125.5 -287.5q0 -128 -66 -223t-182 -140z" />
    <glyph glyph-name="agrave" unicode="&#xe0;" horiz-adv-x="1148" 
d="M664 1268h-134l-317 307h182zM145 1083h838v-1083h-143l-4 231q-55 -118 -164 -184.5t-240 -66.5q-160 0 -258 86.5t-98 228.5q0 148 122.5 239t321.5 91q157 0 316 -39v379h-691v118zM473 90q66 0 129.5 26.5t116 74.5t85 124t32.5 166q-145 37 -297 37
q-139 0 -223.5 -60.5t-84.5 -158.5q0 -96 65 -152.5t177 -56.5z" />
    <glyph glyph-name="aacute" unicode="&#xe1;" horiz-adv-x="1148" 
d="M926 1575l-318 -307h-131l266 307h183zM145 1083h838v-1083h-143l-4 231q-55 -118 -164 -184.5t-240 -66.5q-160 0 -258 86.5t-98 228.5q0 148 122.5 239t321.5 91q157 0 316 -39v379h-691v118zM473 90q66 0 129.5 26.5t116 74.5t85 124t32.5 166q-145 37 -297 37
q-139 0 -223.5 -60.5t-84.5 -158.5q0 -96 65 -152.5t177 -56.5z" />
    <glyph glyph-name="acircumflex" unicode="&#xe2;" horiz-adv-x="1148" 
d="M569 1491l-198 -223h-144l267 307h149l266 -307h-143zM145 1083h838v-1083h-143l-4 231q-55 -118 -164 -184.5t-240 -66.5q-160 0 -258 86.5t-98 228.5q0 148 122.5 239t321.5 91q157 0 316 -39v379h-691v118zM473 90q66 0 129.5 26.5t116 74.5t85 124t32.5 166
q-145 37 -297 37q-139 0 -223.5 -60.5t-84.5 -158.5q0 -96 65 -152.5t177 -56.5z" />
    <glyph glyph-name="atilde" unicode="&#xe3;" horiz-adv-x="1148" 
d="M403 1432q-48 0 -79 -34.5t-31 -92.5h-92q0 108 56.5 174.5t145.5 66.5q47 0 94.5 -23t80.5 -50.5t75 -50.5t78 -23q49 0 81 34.5t32 92.5h90q0 -111 -56.5 -176.5t-146.5 -65.5q-46 0 -93.5 23t-81 51t-75.5 51t-78 23zM145 1083h838v-1083h-143l-4 231
q-55 -118 -164 -184.5t-240 -66.5q-160 0 -258 86.5t-98 228.5q0 148 122.5 239t321.5 91q157 0 316 -39v379h-691v118zM473 90q66 0 129.5 26.5t116 74.5t85 124t32.5 166q-145 37 -297 37q-139 0 -223.5 -60.5t-84.5 -158.5q0 -96 65 -152.5t177 -56.5z" />
    <glyph glyph-name="adieresis" unicode="&#xe4;" horiz-adv-x="1148" 
d="M360 1356q-41 0 -69.5 28.5t-28.5 69.5q0 43 28.5 71.5t69.5 28.5q43 0 72 -28.5t29 -71.5q0 -41 -29 -69.5t-72 -28.5zM778 1356q-43 0 -71.5 28.5t-28.5 69.5q0 43 28.5 71.5t71.5 28.5q42 0 70.5 -29t28.5 -71q0 -41 -29 -69.5t-70 -28.5zM145 1083h838v-1083h-143
l-4 231q-55 -118 -164 -184.5t-240 -66.5q-160 0 -258 86.5t-98 228.5q0 148 122.5 239t321.5 91q157 0 316 -39v379h-691v118zM473 90q66 0 129.5 26.5t116 74.5t85 124t32.5 166q-145 37 -297 37q-139 0 -223.5 -60.5t-84.5 -158.5q0 -96 65 -152.5t177 -56.5z" />
    <glyph glyph-name="aring" unicode="&#xe5;" horiz-adv-x="1148" 
d="M569 1196q-100 0 -161.5 59t-61.5 156t61.5 156t161.5 59t162 -59t62 -156t-62 -156t-162 -59zM569 1550q-60 0 -96.5 -38t-36.5 -101t36.5 -101t96.5 -38t96.5 38t36.5 101t-36.5 101t-96.5 38zM145 1083h838v-1083h-143l-4 231q-55 -118 -164 -184.5t-240 -66.5
q-160 0 -258 86.5t-98 228.5q0 148 122.5 239t321.5 91q157 0 316 -39v379h-691v118zM473 90q66 0 129.5 26.5t116 74.5t85 124t32.5 166q-145 37 -297 37q-139 0 -223.5 -60.5t-84.5 -158.5q0 -96 65 -152.5t177 -56.5z" />
    <glyph glyph-name="ae" unicode="&#xe6;" horiz-adv-x="1935" 
d="M1847 555q0 -52 -2 -68h-864q14 -180 107.5 -284.5t252.5 -104.5q106 0 196 49t155 136l112 -64q-78 -117 -194 -178t-258 -61q-153 0 -270 73.5t-179 204.5q-56 -130 -179 -204t-273 -74q-169 0 -272 86.5t-103 228.5q0 148 121.5 239t320.5 91q165 0 316 -37v76
q0 148 -87.5 234.5t-236.5 86.5q-179 0 -297 -121l-68 90q150 150 392 150q137 0 239 -63t150 -171q66 110 174.5 172t245.5 62q226 0 363.5 -151t137.5 -398zM1337 985q-156 0 -250.5 -105.5t-105.5 -287.5h713q-9 182 -104.5 287.5t-252.5 105.5zM473 90q66 0 129.5 26.5
t115.5 75t84 124.5t32 167q-146 35 -297 35q-138 0 -223 -60.5t-85 -158.5q0 -96 65.5 -152.5t178.5 -56.5z" />
    <glyph glyph-name="ccedilla" unicode="&#xe7;" horiz-adv-x="985" 
d="M889 61q-93 -74 -234 -81l-73 -113h32q99 0 159.5 -45t60.5 -119q0 -78 -67 -126t-179 -48q-127 0 -197 57l33 66q55 -49 147 -49q69 0 110.5 27.5t41.5 72.5q0 43 -39 68.5t-104 25.5q-52 0 -95 -18l-22 43l98 162q-213 25 -339 175.5t-126 381.5q0 254 149.5 408.5
t393.5 154.5q135 0 246 -80v-141q-95 92 -240 92q-177 0 -285 -119t-108 -315q0 -195 108 -315t285 -120q147 0 244 97v-142z" />
    <glyph glyph-name="egrave" unicode="&#xe8;" horiz-adv-x="1210" 
d="M707 1268h-134l-317 307h182zM1122 555q0 -52 -2 -68h-864q14 -180 107.5 -284.5t252.5 -104.5q106 0 196 49t155 136l112 -64q-77 -116 -197 -177.5t-266 -61.5q-232 0 -375 155t-143 408q0 252 141 406.5t373 154.5q229 0 369.5 -151t140.5 -398zM612 985
q-156 0 -250.5 -105.5t-105.5 -287.5h713q-9 182 -104.5 287.5t-252.5 105.5z" />
    <glyph glyph-name="eacute" unicode="&#xe9;" horiz-adv-x="1210" 
d="M969 1575l-318 -307h-131l266 307h183zM1122 555q0 -52 -2 -68h-864q14 -180 107.5 -284.5t252.5 -104.5q106 0 196 49t155 136l112 -64q-77 -116 -197 -177.5t-266 -61.5q-232 0 -375 155t-143 408q0 252 141 406.5t373 154.5q229 0 369.5 -151t140.5 -398zM612 985
q-156 0 -250.5 -105.5t-105.5 -287.5h713q-9 182 -104.5 287.5t-252.5 105.5z" />
    <glyph glyph-name="ecircumflex" unicode="&#xea;" horiz-adv-x="1210" 
d="M612 1491l-198 -223h-144l267 307h149l266 -307h-143zM1122 555q0 -52 -2 -68h-864q14 -180 107.5 -284.5t252.5 -104.5q106 0 196 49t155 136l112 -64q-77 -116 -197 -177.5t-266 -61.5q-232 0 -375 155t-143 408q0 252 141 406.5t373 154.5q229 0 369.5 -151
t140.5 -398zM612 985q-156 0 -250.5 -105.5t-105.5 -287.5h713q-9 182 -104.5 287.5t-252.5 105.5z" />
    <glyph glyph-name="edieresis" unicode="&#xeb;" horiz-adv-x="1210" 
d="M403 1356q-41 0 -69.5 28.5t-28.5 69.5q0 43 28.5 71.5t69.5 28.5q43 0 72 -28.5t29 -71.5q0 -41 -29 -69.5t-72 -28.5zM821 1356q-43 0 -71.5 28.5t-28.5 69.5q0 43 28.5 71.5t71.5 28.5q41 0 70 -29t29 -71q0 -41 -29 -69.5t-70 -28.5zM1122 555q0 -52 -2 -68h-864
q14 -180 107.5 -284.5t252.5 -104.5q106 0 196 49t155 136l112 -64q-77 -116 -197 -177.5t-266 -61.5q-232 0 -375 155t-143 408q0 252 141 406.5t373 154.5q229 0 369.5 -151t140.5 -398zM612 985q-156 0 -250.5 -105.5t-105.5 -287.5h713q-9 182 -104.5 287.5
t-252.5 105.5z" />
    <glyph glyph-name="igrave" unicode="&#xec;" horiz-adv-x="487" 
d="M205 1268l-318 307h183l268 -307h-133zM170 0v1083h147v-1083h-147z" />
    <glyph glyph-name="iacute" unicode="&#xed;" horiz-adv-x="487" 
d="M152 1268l266 307h182l-317 -307h-131zM170 0v1083h147v-1083h-147z" />
    <glyph glyph-name="icircumflex" unicode="&#xee;" horiz-adv-x="487" 
d="M317 1575l267 -307h-144l-196 223l-199 -223h-143l266 307h149zM170 0v1083h147v-1083h-147z" />
    <glyph glyph-name="idieresis" unicode="&#xef;" horiz-adv-x="487" 
d="M35 1356q-41 0 -69.5 28.5t-28.5 69.5q0 43 28.5 71.5t69.5 28.5q43 0 71.5 -28.5t28.5 -71.5q0 -41 -28.5 -69.5t-71.5 -28.5zM453 1356q-43 0 -72 28.5t-29 69.5q0 43 29 71.5t72 28.5q41 0 69.5 -28.5t28.5 -71.5q0 -41 -28.5 -69.5t-69.5 -28.5zM170 0v1083h147
v-1083h-147z" />
    <glyph glyph-name="eth" unicode="&#xf0;" horiz-adv-x="1306" 
d="M733 1446q230 -179 349.5 -393.5t119.5 -456.5q0 -281 -151 -448.5t-400 -167.5t-401 154t-152 409q0 247 145 399t373 152q199 0 326 -111q-110 210 -332 383l-164 -109l-86 60l164 110q-86 58 -178 109l123 82q92 -51 178 -109l164 109l86 -64zM651 106q178 0 288 120
t110 315q0 196 -110 315t-288 119q-180 0 -289.5 -119t-109.5 -315q0 -195 109.5 -315t289.5 -120z" />
    <glyph glyph-name="ntilde" unicode="&#xf1;" horiz-adv-x="1302" 
d="M494 1432q-48 0 -79.5 -35t-31.5 -92h-92q0 108 57 174.5t146 66.5q47 0 94.5 -23t80.5 -50.5t74.5 -50.5t77.5 -23q49 0 81 34.5t32 92.5h90q0 -111 -56.5 -176.5t-146.5 -65.5q-46 0 -93.5 23t-80.5 51t-75 51t-78 23zM705 1104q200 0 322 -116t122 -306v-682h-148v653
q0 146 -94 234t-248 88q-155 0 -249.5 -88t-94.5 -234v-653h-147v1083h143l2 -182q55 97 154.5 150t237.5 53z" />
    <glyph glyph-name="ograve" unicode="&#xf2;" horiz-adv-x="1298" 
d="M612 1268l-317 307h182l268 -307h-133zM651 -20q-249 0 -402 154.5t-153 406.5q0 253 153 408t402 155q248 0 399.5 -155t151.5 -408q0 -252 -151.5 -406.5t-399.5 -154.5zM651 106q178 0 287 120t109 315q0 196 -108.5 315t-287.5 119q-180 0 -289.5 -119t-109.5 -315
q0 -195 109.5 -315t289.5 -120z" />
    <glyph glyph-name="oacute" unicode="&#xf3;" horiz-adv-x="1298" 
d="M559 1268l266 307h183l-318 -307h-131zM651 -20q-249 0 -402 154.5t-153 406.5q0 253 153 408t402 155q248 0 399.5 -155t151.5 -408q0 -252 -151.5 -406.5t-399.5 -154.5zM651 106q178 0 287 120t109 315q0 196 -108.5 315t-287.5 119q-180 0 -289.5 -119t-109.5 -315
q0 -195 109.5 -315t289.5 -120z" />
    <glyph glyph-name="ocircumflex" unicode="&#xf4;" horiz-adv-x="1298" 
d="M651 1491l-198 -223h-144l266 307h150l266 -307h-143zM651 1104q248 0 399.5 -155t151.5 -408q0 -252 -151.5 -406.5t-399.5 -154.5q-249 0 -402 154.5t-153 406.5q0 253 153 408t402 155zM651 106q178 0 287 120t109 315q0 196 -108.5 315t-287.5 119
q-180 0 -289.5 -119t-109.5 -315q0 -195 109.5 -315t289.5 -120z" />
    <glyph glyph-name="otilde" unicode="&#xf5;" horiz-adv-x="1298" 
d="M813 1284q-46 0 -93.5 23t-81 51t-75.5 51t-78 23q-48 0 -79 -34.5t-31 -92.5h-92q0 108 56.5 174.5t145.5 66.5q47 0 94.5 -23t80.5 -50.5t75 -50.5t78 -23q49 0 81 34.5t32 92.5h90q0 -111 -56.5 -176.5t-146.5 -65.5zM651 -20q-249 0 -402 154.5t-153 406.5
q0 253 153 408t402 155q248 0 399.5 -155t151.5 -408q0 -252 -151.5 -406.5t-399.5 -154.5zM651 106q178 0 287 120t109 315q0 196 -108.5 315t-287.5 119q-180 0 -289.5 -119t-109.5 -315q0 -195 109.5 -315t289.5 -120z" />
    <glyph glyph-name="odieresis" unicode="&#xf6;" horiz-adv-x="1298" 
d="M442 1356q-41 0 -69.5 28.5t-28.5 69.5q0 43 28.5 71.5t69.5 28.5q43 0 72 -28.5t29 -71.5q0 -41 -29 -69.5t-72 -28.5zM860 1356q-43 0 -71.5 28.5t-28.5 69.5q0 43 28.5 71.5t71.5 28.5q41 0 69.5 -28.5t28.5 -71.5q0 -41 -28.5 -69.5t-69.5 -28.5zM651 -20
q-249 0 -402 154.5t-153 406.5q0 253 153 408t402 155q248 0 399.5 -155t151.5 -408q0 -252 -151.5 -406.5t-399.5 -154.5zM651 106q178 0 287 120t109 315q0 196 -108.5 315t-287.5 119q-180 0 -289.5 -119t-109.5 -315q0 -195 109.5 -315t289.5 -120z" />
    <glyph glyph-name="divide" unicode="&#xf7;" horiz-adv-x="1159" 
d="M580 934q-41 0 -70 28.5t-29 69.5q0 42 28.5 70t70.5 28q43 0 71.5 -27.5t28.5 -70.5q0 -41 -28.5 -69.5t-71.5 -28.5zM139 649v123h881v-123h-881zM580 291q-41 0 -70 28.5t-29 69.5q0 42 28.5 70t70.5 28q43 0 71.5 -27.5t28.5 -70.5q0 -41 -28.5 -69.5t-71.5 -28.5z
" />
    <glyph glyph-name="oslash" unicode="&#xf8;" horiz-adv-x="1304" 
d="M1202 1016l-110 -115q110 -144 110 -360q0 -252 -151.5 -406.5t-399.5 -154.5q-208 0 -350 108l-104 -108l-95 88l109 110q-115 146 -115 363q0 253 153 408t402 155q208 0 350 -111l107 111zM252 541q0 -146 63 -254l586 604q-105 84 -250 84q-180 0 -289.5 -119
t-109.5 -315zM1047 541q0 141 -62 252l-584 -603q105 -84 250 -84q178 0 287 120t109 315z" />
    <glyph glyph-name="ugrave" unicode="&#xf9;" horiz-adv-x="1261" 
d="M592 1268l-318 307h183l268 -307h-133zM631 -20q-215 0 -346 119t-131 315v669h147v-655q0 -145 90.5 -233.5t239.5 -88.5t239.5 88.5t90.5 233.5v655h147v-669q0 -195 -131 -314.5t-346 -119.5z" />
    <glyph glyph-name="uacute" unicode="&#xfa;" horiz-adv-x="1261" 
d="M539 1268l266 307h182l-317 -307h-131zM631 -20q-215 0 -346 119t-131 315v669h147v-655q0 -145 90.5 -233.5t239.5 -88.5t239.5 88.5t90.5 233.5v655h147v-669q0 -195 -131 -314.5t-346 -119.5z" />
    <glyph glyph-name="ucircumflex" unicode="&#xfb;" horiz-adv-x="1261" 
d="M631 1491l-199 -223h-143l266 307h150l266 -307h-144zM961 1083h147v-669q0 -195 -131 -314.5t-346 -119.5t-346 119t-131 315v669h147v-655q0 -145 90.5 -233.5t239.5 -88.5t239.5 88.5t90.5 233.5v655z" />
    <glyph glyph-name="udieresis" unicode="&#xfc;" horiz-adv-x="1261" 
d="M422 1356q-41 0 -69.5 28.5t-28.5 69.5q0 43 28.5 71.5t69.5 28.5q43 0 71.5 -28.5t28.5 -71.5q0 -41 -28.5 -69.5t-71.5 -28.5zM840 1356q-43 0 -72 28.5t-29 69.5q0 43 29 71.5t72 28.5q41 0 69.5 -28.5t28.5 -71.5q0 -41 -28.5 -69.5t-69.5 -28.5zM631 -20
q-215 0 -346 119t-131 315v669h147v-655q0 -145 90.5 -233.5t239.5 -88.5t239.5 88.5t90.5 233.5v655h147v-669q0 -195 -131 -314.5t-346 -119.5z" />
    <glyph glyph-name="yacute" unicode="&#xfd;" horiz-adv-x="1275" 
d="M987 1575l-317 -307h-131l266 307h182zM961 1083h147v-1534h-944v123h797v502q-110 -194 -377 -194q-193 0 -311.5 115.5t-118.5 303.5v684h147v-655q0 -145 90.5 -233.5t239.5 -88.5t239.5 88.5t90.5 233.5v655z" />
    <glyph glyph-name="thorn" unicode="&#xfe;" horiz-adv-x="1363" 
d="M748 1104q229 0 373.5 -154.5t144.5 -404.5q0 -253 -144.5 -409t-373.5 -156q-157 0 -266.5 67t-166.5 186v-684h-147v2048h147v-747q57 120 166.5 187t266.5 67zM713 106q180 0 289.5 120t109.5 317q0 195 -109.5 313.5t-289.5 118.5q-179 0 -288.5 -119t-109.5 -315
q0 -195 110 -315t288 -120z" />
    <glyph glyph-name="ydieresis" unicode="&#xff;" horiz-adv-x="1275" 
d="M422 1356q-41 0 -69.5 28.5t-28.5 69.5q0 43 28.5 71.5t69.5 28.5q43 0 71.5 -28.5t28.5 -71.5q0 -41 -28.5 -69.5t-71.5 -28.5zM840 1356q-43 0 -72 28.5t-29 69.5q0 43 29 71.5t72 28.5q41 0 69.5 -28.5t28.5 -71.5q0 -41 -28.5 -69.5t-69.5 -28.5zM961 1083h147v-1534
h-944v123h797v502q-110 -194 -377 -194q-193 0 -311.5 115.5t-118.5 303.5v684h147v-655q0 -145 90.5 -233.5t239.5 -88.5t239.5 88.5t90.5 233.5v655z" />
    <glyph glyph-name="Amacron" unicode="&#x100;" horiz-adv-x="1486" 
d="M1063 1874v-117h-635v117h635zM1315 0l-170 395h-803l-170 -395h-166l664 1516h147l664 -1516h-166zM399 526h691l-345 801z" />
    <glyph glyph-name="amacron" unicode="&#x101;" horiz-adv-x="1148" 
d="M887 1442v-117h-635v117h635zM145 1083h838v-1083h-143l-4 231q-55 -118 -164 -184.5t-240 -66.5q-160 0 -258 86.5t-98 228.5q0 148 122.5 239t321.5 91q157 0 316 -39v379h-691v118zM473 90q66 0 129.5 26.5t116 74.5t85 124t32.5 166q-145 37 -297 37
q-139 0 -223.5 -60.5t-84.5 -158.5q0 -96 65 -152.5t177 -56.5z" />
    <glyph glyph-name="Abreve" unicode="&#x102;" horiz-adv-x="1486" 
d="M745 1681q-149 0 -239 89t-90 237h121q0 -104 57 -168.5t151 -64.5t151.5 64.5t57.5 168.5h119q0 -148 -90 -237t-238 -89zM1315 0l-170 395h-803l-170 -395h-166l664 1516h147l664 -1516h-166zM399 526h691l-345 801z" />
    <glyph glyph-name="abreve" unicode="&#x103;" horiz-adv-x="1148" 
d="M569 1249q-149 0 -239 89t-90 237h120q0 -104 57.5 -169t151.5 -65t151.5 65t57.5 169h119q0 -148 -90 -237t-238 -89zM145 1083h838v-1083h-143l-4 231q-55 -118 -164 -184.5t-240 -66.5q-160 0 -258 86.5t-98 228.5q0 148 122.5 239t321.5 91q157 0 316 -39v379h-691
v118zM473 90q66 0 129.5 26.5t116 74.5t85 124t32.5 166q-145 37 -297 37q-139 0 -223.5 -60.5t-84.5 -158.5q0 -96 65 -152.5t177 -56.5z" />
    <glyph glyph-name="Aogonek" unicode="&#x104;" horiz-adv-x="1486" 
d="M1473 -332l14 -82q-69 -57 -164 -57q-79 0 -127.5 44t-48.5 116q0 81 55 161t152 150h-39l-170 395h-803l-170 -395h-166l664 1516h147l664 -1516q-219 -143 -219 -291q0 -40 25.5 -64t66.5 -24q66 0 119 47zM399 526h691l-345 801z" />
    <glyph glyph-name="aogonek" unicode="&#x105;" horiz-adv-x="1148" 
d="M973 -332l16 -82q-72 -57 -166 -57q-79 0 -127.5 44t-48.5 116q0 158 211 311h-18l-4 231q-55 -118 -164 -184.5t-240 -66.5q-160 0 -258 86.5t-98 228.5q0 148 122.5 239t321.5 91q157 0 316 -39v379h-691v118h838v-1083q-221 -142 -221 -291q0 -40 25.5 -64t66.5 -24
q66 0 119 47zM473 90q66 0 129.5 26.5t116 74.5t85 124t32.5 166q-145 37 -297 37q-139 0 -223.5 -60.5t-84.5 -158.5q0 -96 65 -152.5t177 -56.5z" />
    <glyph glyph-name="Cacute" unicode="&#x106;" horiz-adv-x="1378" 
d="M762 1700l266 307h182l-317 -307h-131zM866 -20q-341 0 -550.5 214t-209.5 564t209.5 564t550.5 214q238 0 416 -127v-147q-161 145 -414 145q-270 0 -434 -178.5t-164 -470.5t164 -470.5t434 -178.5q253 0 414 145v-148q-177 -126 -416 -126z" />
    <glyph glyph-name="cacute" unicode="&#x107;" horiz-adv-x="985" 
d="M528 1268l267 307h182l-318 -307h-131zM639 -20q-244 0 -393.5 154.5t-149.5 406.5q0 254 149.5 408.5t393.5 154.5q135 0 246 -80v-141q-95 92 -240 92q-177 0 -285 -119t-108 -315q0 -195 108 -315t285 -120q147 0 244 97v-142q-105 -81 -250 -81z" />
    <glyph glyph-name="Cdotaccent" unicode="&#x10a;" horiz-adv-x="1378" 
d="M854 1788q-41 0 -69.5 28.5t-28.5 69.5q0 43 28.5 72t69.5 29q43 0 71.5 -29t28.5 -72q0 -41 -28.5 -69.5t-71.5 -28.5zM866 -20q-341 0 -550.5 214t-209.5 564t209.5 564t550.5 214q238 0 416 -127v-147q-161 145 -414 145q-270 0 -434 -178.5t-164 -470.5t164 -470.5
t434 -178.5q253 0 414 145v-148q-177 -126 -416 -126z" />
    <glyph glyph-name="cdotaccent" unicode="&#x10b;" horiz-adv-x="985" 
d="M621 1356q-41 0 -70 28.5t-29 69.5q0 42 29 71t70 29q43 0 71.5 -28.5t28.5 -71.5q0 -41 -28.5 -69.5t-71.5 -28.5zM639 -20q-244 0 -393.5 154.5t-149.5 406.5q0 254 149.5 408.5t393.5 154.5q135 0 246 -80v-141q-95 92 -240 92q-177 0 -285 -119t-108 -315
q0 -195 108 -315t285 -120q147 0 244 97v-142q-105 -81 -250 -81z" />
    <glyph glyph-name="Ccaron" unicode="&#x10c;" horiz-adv-x="1378" 
d="M928 1700h-150l-266 307h143l199 -223l197 223h143zM868 1407q-270 0 -434 -178.5t-164 -470.5t164 -470.5t434 -178.5q253 0 414 145v-148q-177 -126 -416 -126q-341 0 -550.5 214t-209.5 564t209.5 564t550.5 214q238 0 416 -127v-147q-161 145 -414 145z" />
    <glyph glyph-name="ccaron" unicode="&#x10d;" horiz-adv-x="985" 
d="M694 1268h-149l-266 307h143l199 -223l196 223h144zM252 541q0 -195 108 -315t285 -120q147 0 244 97v-142q-105 -81 -250 -81q-244 0 -393.5 154.5t-149.5 406.5q0 254 149.5 408.5t393.5 154.5q135 0 246 -80v-141q-95 92 -240 92q-177 0 -285 -119t-108 -315z" />
    <glyph glyph-name="Dcaron" unicode="&#x10e;" horiz-adv-x="1564" 
d="M729 1700h-149l-267 307h144l198 -223l197 223h143zM721 1516q219 0 386 -94.5t258 -267.5t91 -400q0 -223 -91 -394.5t-258 -265.5t-386 -94h-514v1516h514zM709 129q263 0 424 172.5t161 452.5q0 286 -160.5 459t-424.5 173h-347v-1257h347z" />
    <glyph glyph-name="dcaron" unicode="&#x10f;" horiz-adv-x="1384" 
d="M1049 850v747h147v-1597h-143l-4 233q-57 -119 -166.5 -186t-266.5 -67q-229 0 -374.5 154.5t-145.5 404.5q0 252 145.5 408.5t374.5 156.5q157 0 266.5 -67t166.5 -187zM1415 1597h137l-143 -383h-115zM651 106q178 0 288 120t110 315t-109.5 314.5t-288.5 119.5
q-180 0 -289.5 -119.5t-109.5 -316.5q0 -194 109.5 -313.5t289.5 -119.5z" />
    <glyph glyph-name="Dcroat" unicode="&#x110;" horiz-adv-x="1564" 
d="M721 1516q219 0 386 -94.5t258 -267.5t91 -400q0 -223 -91 -394.5t-258 -265.5t-386 -94h-514v707h-174v110h174v699h514zM709 129q263 0 424 172.5t161 452.5q0 286 -160.5 459t-424.5 173h-347v-569h412v-110h-412v-578h347z" />
    <glyph glyph-name="dcroat" unicode="&#x111;" horiz-adv-x="1363" 
d="M1368 1397v-111h-172v-1286h-143l-4 233q-57 -119 -166.5 -186t-266.5 -67q-229 0 -374.5 154.5t-145.5 404.5q0 252 145.5 408.5t374.5 156.5q157 0 266.5 -67t166.5 -187v436h-422v111h422v200h147v-200h172zM651 106q178 0 288 120t110 315t-109.5 314.5t-288.5 119.5
q-180 0 -289.5 -119.5t-109.5 -316.5q0 -194 109.5 -313.5t289.5 -119.5z" />
    <glyph glyph-name="Emacron" unicode="&#x112;" horiz-adv-x="1280" 
d="M991 1874v-117h-635v117h635zM362 129h797v-129h-952v1516h934v-130h-779v-548h728v-129h-728v-580z" />
    <glyph glyph-name="emacron" unicode="&#x113;" horiz-adv-x="1210" 
d="M930 1442v-117h-635v117h635zM1122 555q0 -52 -2 -68h-864q14 -180 107.5 -284.5t252.5 -104.5q106 0 196 49t155 136l112 -64q-77 -116 -197 -177.5t-266 -61.5q-232 0 -375 155t-143 408q0 252 141 406.5t373 154.5q229 0 369.5 -151t140.5 -398zM612 985
q-156 0 -250.5 -105.5t-105.5 -287.5h713q-9 182 -104.5 287.5t-252.5 105.5z" />
    <glyph glyph-name="Edotaccent" unicode="&#x116;" horiz-adv-x="1280" 
d="M674 1788q-41 0 -70 28.5t-29 69.5q0 43 29 72t70 29q43 0 71.5 -29t28.5 -72q0 -41 -28.5 -69.5t-71.5 -28.5zM362 129h797v-129h-952v1516h934v-130h-779v-548h728v-129h-728v-580z" />
    <glyph glyph-name="edotaccent" unicode="&#x117;" horiz-adv-x="1210" 
d="M612 1356q-41 0 -69.5 28.5t-28.5 69.5q0 43 28.5 71.5t69.5 28.5q43 0 72 -28.5t29 -71.5q0 -41 -29 -69.5t-72 -28.5zM1122 555q0 -52 -2 -68h-864q14 -180 107.5 -284.5t252.5 -104.5q106 0 196 49t155 136l112 -64q-77 -116 -197 -177.5t-266 -61.5q-232 0 -375 155
t-143 408q0 252 141 406.5t373 154.5q229 0 369.5 -151t140.5 -398zM612 985q-156 0 -250.5 -105.5t-105.5 -287.5h713q-9 182 -104.5 287.5t-252.5 105.5z" />
    <glyph glyph-name="Eogonek" unicode="&#x118;" horiz-adv-x="1280" 
d="M1149 -332l16 -82q-72 -57 -166 -57q-79 0 -127.5 44t-48.5 116q0 158 211 311h-827v1516h934v-130h-779v-548h728v-129h-728v-580h797v-129q-221 -142 -221 -291q0 -40 25.5 -64t66.5 -24q66 0 119 47z" />
    <glyph glyph-name="eogonek" unicode="&#x119;" horiz-adv-x="1210" 
d="M1122 555q0 -52 -2 -68h-864q14 -180 107.5 -284.5t252.5 -104.5q106 0 196 49t155 136l112 -64q-112 -168 -305 -219q-221 -142 -221 -291q0 -40 25.5 -64t66.5 -24q66 0 119 47l16 -82q-72 -57 -166 -57q-79 0 -127.5 44t-48.5 116q0 145 185 291h-7q-232 0 -375 155
t-143 408q0 252 141 406.5t373 154.5q229 0 369.5 -151t140.5 -398zM612 985q-156 0 -250.5 -105.5t-105.5 -287.5h713q-9 182 -104.5 287.5t-252.5 105.5z" />
    <glyph glyph-name="Ecaron" unicode="&#x11a;" horiz-adv-x="1280" 
d="M748 1700h-150l-266 307h143l199 -223l196 223h144zM362 129h797v-129h-952v1516h934v-130h-779v-548h728v-129h-728v-580z" />
    <glyph glyph-name="ecaron" unicode="&#x11b;" horiz-adv-x="1210" 
d="M686 1268h-149l-267 307h144l198 -223l197 223h143zM1122 555q0 -52 -2 -68h-864q14 -180 107.5 -284.5t252.5 -104.5q106 0 196 49t155 136l112 -64q-77 -116 -197 -177.5t-266 -61.5q-232 0 -375 155t-143 408q0 252 141 406.5t373 154.5q229 0 369.5 -151t140.5 -398z
M612 985q-156 0 -250.5 -105.5t-105.5 -287.5h713q-9 182 -104.5 287.5t-252.5 105.5z" />
    <glyph glyph-name="Gbreve" unicode="&#x11e;" horiz-adv-x="1634" 
d="M852 1681q-149 0 -239.5 89t-90.5 237h121q0 -104 57.5 -168.5t151.5 -64.5t151.5 64.5t57.5 168.5h119q0 -148 -90 -237t-238 -89zM1565 805q0 -8 1 -23.5t1 -23.5q0 -356 -194 -567t-521 -211q-334 0 -538.5 214t-204.5 564q0 351 203.5 564.5t539.5 213.5
q153 0 275 -37t231 -119l-103 -100q-157 127 -403 127q-261 0 -420.5 -178.5t-159.5 -470.5t160 -470.5t422 -178.5q241 0 389 154t160 411h-481v131h643z" />
    <glyph glyph-name="gbreve" unicode="&#x11f;" horiz-adv-x="1363" 
d="M674 1249q-149 0 -239.5 89t-90.5 237h121q0 -104 57.5 -169t151.5 -65t151.5 65t57.5 169h118q0 -148 -89.5 -237t-237.5 -89zM1055 1083h143v-1534h-1053v123h906v561q-57 -119 -166.5 -186t-266.5 -67q-229 0 -374.5 156t-145.5 409q0 250 145.5 404.5t374.5 154.5
q157 0 266.5 -67t166.5 -187zM653 106q178 0 288 120t110 315q0 196 -109.5 315t-288.5 119q-180 0 -289.5 -118.5t-109.5 -313.5q0 -197 109.5 -317t289.5 -120z" />
    <glyph glyph-name="Gdotaccent" unicode="&#x120;" horiz-adv-x="1634" 
d="M852 1788q-41 0 -69.5 28.5t-28.5 69.5q0 43 28.5 72t69.5 29q43 0 71.5 -29t28.5 -72q0 -41 -28.5 -69.5t-71.5 -28.5zM1565 805q0 -8 1 -23.5t1 -23.5q0 -356 -194 -567t-521 -211q-334 0 -538.5 214t-204.5 564q0 351 203.5 564.5t539.5 213.5q153 0 275 -37t231 -119
l-103 -100q-157 127 -403 127q-261 0 -420.5 -178.5t-159.5 -470.5t160 -470.5t422 -178.5q241 0 389 154t160 411h-481v131h643z" />
    <glyph glyph-name="gdotaccent" unicode="&#x121;" horiz-adv-x="1363" 
d="M674 1356q-41 0 -70 28.5t-29 69.5q0 42 28.5 71t70.5 29q43 0 71.5 -28.5t28.5 -71.5q0 -41 -28.5 -69.5t-71.5 -28.5zM1055 1083h143v-1534h-1053v123h906v561q-57 -119 -166.5 -186t-266.5 -67q-229 0 -374.5 156t-145.5 409q0 250 145.5 404.5t374.5 154.5
q157 0 266.5 -67t166.5 -187zM653 106q178 0 288 120t110 315q0 196 -109.5 315t-288.5 119q-180 0 -289.5 -118.5t-109.5 -313.5q0 -197 109.5 -317t289.5 -120z" />
    <glyph glyph-name="Gcommaaccent" unicode="&#x122;" horiz-adv-x="1634" 
d="M1565 805q0 -8 1 -23.5t1 -23.5q0 -356 -194 -567t-521 -211q-334 0 -538.5 214t-204.5 564q0 351 203.5 564.5t539.5 213.5q153 0 275 -37t231 -119l-103 -100q-157 127 -403 127q-261 0 -420.5 -178.5t-159.5 -470.5t160 -470.5t422 -178.5q241 0 389 154t160 411h-481
v131h643zM672 -451l108 345h138l-132 -345h-114z" />
    <glyph glyph-name="gcommaaccent" unicode="&#x123;" horiz-adv-x="1363" 
d="M836 1597l-121 -383h-137l143 383h115zM1055 1083h143v-1534h-1053v123h906v561q-57 -119 -166.5 -186t-266.5 -67q-229 0 -374.5 156t-145.5 409q0 250 145.5 404.5t374.5 154.5q157 0 266.5 -67t166.5 -187zM653 106q178 0 288 120t110 315q0 196 -109.5 315
t-288.5 119q-180 0 -289.5 -118.5t-109.5 -313.5q0 -197 109.5 -317t289.5 -120z" />
    <glyph glyph-name="Hbar" unicode="&#x126;" horiz-adv-x="1660" 
d="M1630 1247v-110h-176v-1137h-156v705h-936v-705h-155v1137h-174v110h174v269h155v-269h936v269h156v-269h176zM1298 836v301h-936v-301h936z" />
    <glyph glyph-name="hbar" unicode="&#x127;" horiz-adv-x="1302" 
d="M705 1104q200 0 322 -116t122 -306v-682h-148v653q0 146 -94 234t-248 88q-155 0 -249.5 -88t-94.5 -234v-653h-147v1286h-176v111h176v200h147v-200h418v-111h-418v-383q53 97 152.5 149t237.5 52z" />
    <glyph glyph-name="Imacron" unicode="&#x12a;" horiz-adv-x="569" 
d="M-33 1757v117h635v-117h-635zM207 0v1516h155v-1516h-155z" />
    <glyph glyph-name="imacron" unicode="&#x12b;" horiz-adv-x="487" 
d="M-74 1325v117h635v-117h-635zM170 0v1083h147v-1083h-147z" />
    <glyph glyph-name="Iogonek" unicode="&#x12e;" horiz-adv-x="569" 
d="M352 -332l17 -82q-72 -57 -166 -57q-79 0 -127.5 44t-48.5 116q0 158 211 311h-31v1516h155v-1516q-221 -142 -221 -291q0 -40 25.5 -64t66.5 -24q66 0 119 47z" />
    <glyph glyph-name="iogonek" unicode="&#x12f;" horiz-adv-x="487" 
d="M244 1356q-41 0 -70 28.5t-29 69.5q0 42 28.5 71t70.5 29q43 0 71.5 -28.5t28.5 -71.5q0 -41 -28.5 -69.5t-71.5 -28.5zM188 -379q66 0 119 47l17 -82q-72 -57 -166 -57q-79 0 -127.5 44t-48.5 116q0 158 211 311h-23v1083h147v-1083q-221 -142 -221 -291q0 -40 25.5 -64
t66.5 -24z" />
    <glyph glyph-name="Idotaccent" unicode="&#x130;" horiz-adv-x="569" 
d="M285 1788q-41 0 -70 28.5t-29 69.5q0 43 29 72t70 29q43 0 71.5 -29t28.5 -72q0 -41 -28.5 -69.5t-71.5 -28.5zM207 0v1516h155v-1516h-155z" />
    <glyph glyph-name="dotlessi" unicode="&#x131;" horiz-adv-x="487" 
d="M170 0v1083h147v-1083h-147z" />
    <glyph glyph-name="Kcommaaccent" unicode="&#x136;" horiz-adv-x="1388" 
d="M774 778l602 -778h-190l-545 711h-279v-711h-155v1516h155v-674h277l526 674h191zM575 -451l109 345h137l-131 -345h-115z" />
    <glyph glyph-name="kcommaaccent" unicode="&#x137;" horiz-adv-x="1167" 
d="M657 571l504 -571h-188l-438 508h-220v-508h-147v1597h147v-966h220l415 452h187zM434 -451l109 345h137l-131 -345h-115z" />
    <glyph glyph-name="Lacute" unicode="&#x139;" horiz-adv-x="1107" 
d="M641 2007l-317 -307h-131l266 307h182zM362 129h717v-129h-872v1516h155v-1387z" />
    <glyph glyph-name="lacute" unicode="&#x13a;" horiz-adv-x="565" 
d="M156 1782l266 307h182l-317 -307h-131zM172 0v1597h147v-1474h230v-123h-377z" />
    <glyph glyph-name="Lcommaaccent" unicode="&#x13b;" horiz-adv-x="1107" 
d="M362 129h717v-129h-872v1516h155v-1387zM430 -451l109 345h137l-131 -345h-115z" />
    <glyph glyph-name="lcommaaccent" unicode="&#x13c;" horiz-adv-x="565" 
d="M172 0v1597h147v-1474h230v-123h-377zM184 -451l109 345h137l-131 -345h-115z" />
    <glyph glyph-name="Lcaron" unicode="&#x13d;" horiz-adv-x="1087" 
d="M362 129h717v-129h-872v1516h155v-1387zM983 1516l-149 -408h-134l127 408h156z" />
    <glyph glyph-name="lcaron" unicode="&#x13e;" horiz-adv-x="579" 
d="M172 0v1597h147v-1474h230v-123h-377zM418 1214l121 383h139l-143 -383h-117z" />
    <glyph glyph-name="Lslash" unicode="&#x141;" horiz-adv-x="1107" 
d="M362 129h717v-129h-872v686l-154 -108v124l154 109v705h155v-615l224 158v-127l-224 -156v-647z" />
    <glyph glyph-name="lslash" unicode="&#x142;" horiz-adv-x="565" 
d="M319 123h230v-123h-377v713l-192 -135v124l192 136v759h147v-673l193 135v-127l-193 -133v-676z" />
    <glyph glyph-name="Nacute" unicode="&#x143;" horiz-adv-x="1720" 
d="M768 1700l266 307h183l-318 -307h-131zM207 0v1516h100l1053 -1246l-2 1246h155v-1516h-100l-1053 1245l2 -1245h-155z" />
    <glyph glyph-name="nacute" unicode="&#x144;" horiz-adv-x="1302" 
d="M1016 1575l-318 -307h-131l267 307h182zM705 1104q200 0 322 -116t122 -306v-682h-148v653q0 146 -94 234t-248 88q-155 0 -249.5 -88t-94.5 -234v-653h-147v1083h143l2 -182q55 97 154.5 150t237.5 53z" />
    <glyph glyph-name="Ncommaaccent" unicode="&#x145;" horiz-adv-x="1720" 
d="M207 0v1516h100l1053 -1246l-2 1246h155v-1516h-100l-1053 1245l2 -1245h-155zM696 -451l109 345h137l-131 -345h-115z" />
    <glyph glyph-name="ncommaaccent" unicode="&#x146;" horiz-adv-x="1302" 
d="M705 1104q200 0 322 -116t122 -306v-682h-148v653q0 146 -94 234t-248 88q-155 0 -249.5 -88t-94.5 -234v-653h-147v1083h143l2 -182q55 97 154.5 150t237.5 53zM494 -451l108 345h137l-131 -345h-114z" />
    <glyph glyph-name="Ncaron" unicode="&#x147;" horiz-adv-x="1720" 
d="M934 1700h-150l-266 307h144l198 -223l197 223h143zM1358 1516h155v-1516h-100l-1053 1245l2 -1245h-155v1516h100l1053 -1246z" />
    <glyph glyph-name="ncaron" unicode="&#x148;" horiz-adv-x="1302" 
d="M733 1268h-149l-267 307h144l198 -223l197 223h143zM705 1104q200 0 322 -116t122 -306v-682h-148v653q0 146 -94 234t-248 88q-155 0 -249.5 -88t-94.5 -234v-653h-147v1083h143l2 -182q55 97 154.5 150t237.5 53z" />
    <glyph glyph-name="Eng" unicode="&#x14a;" horiz-adv-x="1720" 
d="M1358 1516h155v-1672q0 -143 -94 -229t-252 -86q-85 0 -157.5 28t-118.5 81l43 104q84 -84 207 -84q100 0 158.5 59.5t58.5 157.5v191l-998 1179l2 -1245h-155v1516h100l1053 -1246z" />
    <glyph glyph-name="eng" unicode="&#x14b;" horiz-adv-x="1302" 
d="M705 1104q200 0 322 -116t122 -306v-838q0 -142 -84 -228.5t-219 -86.5q-114 0 -187 33l15 116q61 -22 133 -22q88 0 141 60.5t53 160.5v776q0 146 -94 234t-248 88q-155 0 -249.5 -88t-94.5 -234v-653h-147v1083h143l2 -182q55 97 154.5 150t237.5 53z" />
    <glyph glyph-name="Omacron" unicode="&#x14c;" horiz-adv-x="1728" 
d="M549 1757v117h635v-117h-635zM866 -20q-341 0 -550.5 214t-209.5 564t209.5 564t550.5 214q224 0 396 -96.5t266 -273.5t94 -408t-94 -408t-266 -273.5t-396 -96.5zM866 109q266 0 430 179t164 470t-164 470t-430 179q-268 0 -432 -178.5t-164 -470.5t164 -470.5
t432 -178.5z" />
    <glyph glyph-name="omacron" unicode="&#x14d;" horiz-adv-x="1298" 
d="M334 1325v117h635v-117h-635zM651 -20q-249 0 -402 154.5t-153 406.5q0 253 153 408t402 155q248 0 399.5 -155t151.5 -408q0 -252 -151.5 -406.5t-399.5 -154.5zM651 106q178 0 287 120t109 315q0 196 -108.5 315t-287.5 119q-180 0 -289.5 -119t-109.5 -315
q0 -195 109.5 -315t289.5 -120z" />
    <glyph glyph-name="Ohungarumlaut" unicode="&#x150;" horiz-adv-x="1728" 
d="M635 1700l217 307h182l-268 -307h-131zM940 1700l217 307h182l-268 -307h-131zM866 -20q-341 0 -550.5 214t-209.5 564t209.5 564t550.5 214q224 0 396 -96.5t266 -273.5t94 -408t-94 -408t-266 -273.5t-396 -96.5zM866 109q266 0 430 179t164 470t-164 470t-430 179
q-268 0 -432 -178.5t-164 -470.5t164 -470.5t432 -178.5z" />
    <glyph glyph-name="ohungarumlaut" unicode="&#x151;" horiz-adv-x="1298" 
d="M420 1268l217 307h182l-268 -307h-131zM725 1268l217 307h182l-268 -307h-131zM651 -20q-249 0 -402 154.5t-153 406.5q0 253 153 408t402 155q248 0 399.5 -155t151.5 -408q0 -252 -151.5 -406.5t-399.5 -154.5zM651 106q178 0 287 120t109 315q0 196 -108.5 315
t-287.5 119q-180 0 -289.5 -119t-109.5 -315q0 -195 109.5 -315t289.5 -120z" />
    <glyph glyph-name="OE" unicode="&#x152;" horiz-adv-x="2539" 
d="M1622 129h797v-129h-953v291q-96 -149 -253 -230t-355 -81q-167 0 -307 56t-237 157.5t-151 246.5t-54 318t54 318t151 246.5t237 157.5t307 56q198 0 355 -81t253 -230v291h934v-130h-778v-548h727v-129h-727v-580zM866 109q267 0 430.5 178.5t163.5 470.5t-163.5 470.5
t-430.5 178.5q-268 0 -432 -178.5t-164 -470.5t164 -470.5t432 -178.5z" />
    <glyph glyph-name="oe" unicode="&#x153;" horiz-adv-x="2160" 
d="M2073 555q0 -28 -5 -68h-864q14 -180 108 -284.5t253 -104.5q211 0 352 185l111 -64q-76 -116 -193.5 -177.5t-259.5 -61.5q-159 0 -277 83t-174 230q-59 -147 -185 -230t-296 -83q-246 0 -395.5 154.5t-149.5 406.5q0 254 149.5 408.5t395.5 154.5q170 0 295 -82.5
t186 -228.5q55 146 171 228.5t274 82.5q226 0 365 -151t139 -398zM1561 985q-156 0 -251 -105.5t-106 -287.5h713q-9 182 -104.5 287.5t-251.5 105.5zM651 106q178 0 288 120t110 315q0 196 -109.5 315t-288.5 119q-180 0 -289.5 -119t-109.5 -315q0 -195 109.5 -315
t289.5 -120z" />
    <glyph glyph-name="Racute" unicode="&#x154;" horiz-adv-x="1429" 
d="M1030 2007l-317 -307h-131l266 307h182zM1380 0h-184l-403 618h-35h-396v-618h-155v1516h559q230 0 369 -123t139 -326q0 -154 -86 -266t-238 -156zM362 1386v-638h383q164 0 265.5 88t101.5 231q0 145 -100.5 232t-266.5 87h-383z" />
    <glyph glyph-name="racute" unicode="&#x155;" horiz-adv-x="757" 
d="M782 1575l-317 -307h-131l266 307h182zM313 901q117 203 430 203l-12 -135q-196 0 -306 -91.5t-110 -248.5v-629h-147v1083h143z" />
    <glyph glyph-name="Rcommaaccent" unicode="&#x156;" horiz-adv-x="1429" 
d="M950 645l430 -645h-184l-403 618h-35h-396v-618h-155v1516h559q230 0 369 -123t139 -326q0 -154 -86 -266t-238 -156zM362 1386v-638h383q164 0 265.5 88t101.5 231q0 145 -100.5 232t-266.5 87h-383zM565 -451l109 345h137l-131 -345h-115z" />
    <glyph glyph-name="rcommaaccent" unicode="&#x157;" horiz-adv-x="757" 
d="M313 901q117 203 430 203l-12 -135q-196 0 -306 -91.5t-110 -248.5v-629h-147v1083h143zM115 -451l108 345h137l-131 -345h-114z" />
    <glyph glyph-name="Rcaron" unicode="&#x158;" horiz-adv-x="1429" 
d="M748 1700h-150l-266 307h143l199 -223l196 223h144zM1380 0h-184l-403 618h-35h-396v-618h-155v1516h559q230 0 369 -123t139 -326q0 -154 -86 -266t-238 -156zM362 1386v-638h383q164 0 265.5 88t101.5 231q0 145 -100.5 232t-266.5 87h-383z" />
    <glyph glyph-name="rcaron" unicode="&#x159;" horiz-adv-x="757" 
d="M500 1268h-150l-266 307h143l199 -223l197 223h143zM313 901q117 203 430 203l-12 -135q-196 0 -306 -91.5t-110 -248.5v-629h-147v1083h143z" />
    <glyph glyph-name="Sacute" unicode="&#x15a;" horiz-adv-x="1273" 
d="M547 1700l266 307h182l-317 -307h-131zM623 -20q-152 0 -281 44t-213 132l64 110q163 -157 419 -157q181 0 288.5 73.5t107.5 196.5q0 62 -28 111.5t-84.5 87t-121.5 64t-160 54.5l-102 31q-88 24 -152.5 53.5t-122.5 75t-88 112t-30 152.5q0 187 142.5 301.5
t375.5 114.5q288 0 471 -174l-74 -109q-163 154 -399 154q-160 0 -257 -72.5t-97 -191.5q0 -49 17 -89t43.5 -67.5t69 -51t83 -38.5t96.5 -31l104 -30q76 -23 134.5 -45.5t126 -61t111.5 -82.5t73.5 -109.5t29.5 -142.5q0 -187 -150 -301t-396 -114z" />
    <glyph glyph-name="sacute" unicode="&#x15b;" horiz-adv-x="983" 
d="M393 1268l266 307h183l-318 -307h-131zM479 -20q-247 0 -373 114l62 92q120 -88 311 -88q116 0 186 50t70 133q0 132 -227 196l-117 35q-142 39 -214.5 101t-72.5 175q0 142 104.5 229t276.5 87q219 0 369 -98l-63 -101q-129 80 -295 80q-108 0 -174 -47.5t-66 -126.5
q0 -70 51.5 -110t149.5 -68l116 -35q314 -86 314 -305q0 -142 -110.5 -227.5t-297.5 -85.5z" />
    <glyph glyph-name="Scedilla" unicode="&#x15e;" horiz-adv-x="1273" 
d="M1169 395q0 -171 -127.5 -282.5t-341.5 -128.5l-75 -117h32q99 0 159.5 -45t60.5 -119q0 -78 -67 -126t-179 -48q-127 0 -197 57l33 66q55 -49 147 -49q69 0 110.5 27.5t41.5 72.5q0 43 -39 68.5t-104 25.5q-51 0 -95 -18l-22 43l96 158q-145 3 -268.5 47t-204.5 129
l64 110q163 -157 419 -157q181 0 288.5 73.5t107.5 196.5q0 62 -28 111.5t-84.5 87t-121.5 64t-160 54.5l-102 31q-88 24 -152.5 53.5t-122.5 75t-88 112t-30 152.5q0 187 142.5 301.5t375.5 114.5q288 0 471 -174l-74 -109q-163 154 -399 154q-160 0 -257 -72.5t-97 -191.5
q0 -49 17 -89t43.5 -67.5t69 -51t83 -38.5t96.5 -31l104 -30q76 -23 134.5 -45.5t126 -61t111.5 -82.5t73.5 -109.5t29.5 -142.5z" />
    <glyph glyph-name="scedilla" unicode="&#x15f;" horiz-adv-x="983" 
d="M887 293q0 -129 -92 -212.5t-252 -98.5l-74 -115h33q99 0 159 -45t60 -119q0 -78 -67 -126t-179 -48q-126 0 -196 57l32 66q55 -49 148 -49q68 0 109.5 27.5t41.5 72.5q0 43 -39 68.5t-104 25.5q-51 0 -94 -18l-23 43l96 158q-224 10 -340 114l62 92q120 -88 311 -88
q116 0 186 50t70 133q0 132 -227 196l-117 35q-142 39 -214.5 101t-72.5 175q0 142 104.5 229t276.5 87q219 0 369 -98l-63 -101q-129 80 -295 80q-108 0 -174 -47.5t-66 -126.5q0 -70 51.5 -110t149.5 -68l116 -35q314 -86 314 -305z" />
    <glyph glyph-name="Scaron" unicode="&#x160;" horiz-adv-x="1273" 
d="M713 1700h-150l-266 307h143l199 -223l197 223h143zM694 836q76 -23 134.5 -45.5t126 -61t111.5 -82.5t73.5 -109.5t29.5 -142.5q0 -187 -150 -301t-396 -114q-152 0 -281 44t-213 132l64 110q163 -157 419 -157q181 0 288.5 73.5t107.5 196.5q0 62 -28 111.5t-84.5 87
t-121.5 64t-160 54.5l-102 31q-88 24 -152.5 53.5t-122.5 75t-88 112t-30 152.5q0 187 142.5 301.5t375.5 114.5q288 0 471 -174l-74 -109q-163 154 -399 154q-160 0 -257 -72.5t-97 -191.5q0 -49 17 -89t43.5 -67.5t69 -51t83 -38.5t96.5 -31z" />
    <glyph glyph-name="scaron" unicode="&#x161;" horiz-adv-x="983" 
d="M559 1268h-149l-267 307h144l198 -223l197 223h143zM573 598q314 -86 314 -305q0 -142 -110.5 -227.5t-297.5 -85.5q-247 0 -373 114l62 92q120 -88 311 -88q116 0 186 50t70 133q0 132 -227 196l-117 35q-142 39 -214.5 101t-72.5 175q0 142 104.5 229t276.5 87
q219 0 369 -98l-63 -101q-129 80 -295 80q-108 0 -174 -47.5t-66 -126.5q0 -70 51.5 -110t149.5 -68z" />
    <glyph glyph-name="uni0162" unicode="&#x162;" horiz-adv-x="1185" 
d="M672 0h-29l-86 -133h33q99 0 159 -45t60 -119q0 -78 -67 -126t-179 -48q-126 0 -196 57l32 66q55 -49 148 -49q68 0 109.5 27.5t41.5 72.5q0 43 -39 68.5t-104 25.5q-51 0 -94 -18l-23 43l109 178h-31v1386h-489v130h1132v-130h-487v-1386z" />
    <glyph glyph-name="uni0163" unicode="&#x163;" horiz-adv-x="714" 
d="M446 0h-26l-84 -135q12 2 35 2q99 0 159 -45t60 -119q0 -78 -67 -126t-179 -48q-127 0 -197 57l33 66q55 -49 148 -49q68 0 109.5 27.5t41.5 72.5q0 43 -39 68.5t-104 25.5q-50 0 -94 -18l-23 43l109 178h-29v961h-270v122h270v318h147v-318h271v-122h-271v-961z" />
    <glyph glyph-name="Tcaron" unicode="&#x164;" horiz-adv-x="1185" 
d="M666 1700h-150l-266 307h143l199 -223l196 223h144zM1159 1516v-130h-487v-1386h-156v1386h-489v130h1132z" />
    <glyph glyph-name="tcaron" unicode="&#x165;" horiz-adv-x="714" 
d="M731 1597h137l-143 -383h-115zM446 1401v-318h271v-122h-271v-961h-147v961h-270v122h270v318h147z" />
    <glyph glyph-name="Tbar" unicode="&#x166;" horiz-adv-x="1185" 
d="M1159 1386h-487v-589h297v-111h-297v-686h-156v686h-289v111h289v589h-489v130h1132v-130z" />
    <glyph glyph-name="tbar" unicode="&#x167;" horiz-adv-x="720" 
d="M717 961h-271v-371h240v-109h-240v-481h-147v481h-236v109h236v371h-270v122h270v318h147v-318h271v-122z" />
    <glyph glyph-name="Umacron" unicode="&#x16a;" horiz-adv-x="1622" 
d="M494 1757v117h634v-117h-634zM811 -20q-280 0 -451.5 154t-171.5 407v975h156v-969q0 -197 128.5 -317.5t338.5 -120.5t338.5 120.5t128.5 317.5v969h156v-975q0 -253 -171 -407t-452 -154z" />
    <glyph glyph-name="umacron" unicode="&#x16b;" horiz-adv-x="1261" 
d="M313 1325v117h635v-117h-635zM631 -20q-215 0 -346 119t-131 315v669h147v-655q0 -145 90.5 -233.5t239.5 -88.5t239.5 88.5t90.5 233.5v655h147v-669q0 -195 -131 -314.5t-346 -119.5z" />
    <glyph glyph-name="Uring" unicode="&#x16e;" horiz-adv-x="1622" 
d="M811 1628q-100 0 -161.5 59t-61.5 156t61.5 156t161.5 59t161.5 -59t61.5 -156t-61.5 -156t-161.5 -59zM811 1704q60 0 96.5 38t36.5 101t-36.5 101t-96.5 38t-96.5 -38t-36.5 -101t36.5 -101t96.5 -38zM811 -20q-280 0 -451.5 154t-171.5 407v975h156v-969
q0 -197 128.5 -317.5t338.5 -120.5t338.5 120.5t128.5 317.5v969h156v-975q0 -253 -171 -407t-452 -154z" />
    <glyph glyph-name="uring" unicode="&#x16f;" horiz-adv-x="1261" 
d="M631 1196q-100 0 -161.5 59t-61.5 156t61.5 156t161.5 59t161.5 -59t61.5 -156t-61.5 -156t-161.5 -59zM631 1272q60 0 96.5 38t36.5 101t-36.5 101t-96.5 38t-96.5 -38t-36.5 -101t36.5 -101t96.5 -38zM631 -20q-215 0 -346 119t-131 315v669h147v-655
q0 -145 90.5 -233.5t239.5 -88.5t239.5 88.5t90.5 233.5v655h147v-669q0 -195 -131 -314.5t-346 -119.5z" />
    <glyph glyph-name="Uhungarumlaut" unicode="&#x170;" horiz-adv-x="1622" 
d="M580 1700l217 307h182l-268 -307h-131zM885 1700l217 307h182l-268 -307h-131zM811 -20q-280 0 -451.5 154t-171.5 407v975h156v-969q0 -197 128.5 -317.5t338.5 -120.5t338.5 120.5t128.5 317.5v969h156v-975q0 -253 -171 -407t-452 -154z" />
    <glyph glyph-name="uhungarumlaut" unicode="&#x171;" horiz-adv-x="1261" 
d="M399 1268l217 307h183l-269 -307h-131zM705 1268l217 307h182l-268 -307h-131zM631 -20q-215 0 -346 119t-131 315v669h147v-655q0 -145 90.5 -233.5t239.5 -88.5t239.5 88.5t90.5 233.5v655h147v-669q0 -195 -131 -314.5t-346 -119.5z" />
    <glyph glyph-name="Uogonek" unicode="&#x172;" horiz-adv-x="1622" 
d="M1278 1516h156v-975q0 -208 -118.5 -351.5t-322.5 -189.5q-219 -143 -219 -291q0 -40 25.5 -64t66.5 -24q66 0 119 47l16 -82q-72 -57 -165 -57q-80 0 -128.5 44t-48.5 116q0 148 185 291h-33q-280 0 -451.5 154t-171.5 407v975h156v-969q0 -197 128.5 -317.5
t338.5 -120.5t338.5 120.5t128.5 317.5v969z" />
    <glyph glyph-name="uogonek" unicode="&#x173;" horiz-adv-x="1261" 
d="M961 1083h147v-669q0 -156 -85 -266t-232 -148q-222 -143 -222 -291q0 -40 26 -64t67 -24q65 0 118 47l17 -82q-72 -57 -166 -57q-79 0 -127.5 44t-48.5 116q0 149 184 291h-8q-215 0 -346 119t-131 315v669h147v-655q0 -145 90.5 -233.5t239.5 -88.5t239.5 88.5
t90.5 233.5v655z" />
    <glyph glyph-name="Wcircumflex" unicode="&#x174;" horiz-adv-x="2260" 
d="M1133 1923l-199 -223h-143l266 307h149l267 -307h-144zM2077 1516h166l-541 -1516h-148l-424 1288l-423 -1288h-146l-543 1516h166l457 -1307l416 1307h149l416 -1307z" />
    <glyph glyph-name="wcircumflex" unicode="&#x175;" horiz-adv-x="1869" 
d="M936 1491l-199 -223h-143l266 307h150l266 -307h-143zM1677 1083h164l-422 -1083h-149l-334 913l-336 -913h-149l-422 1083h161l342 -913l338 913h129l336 -913z" />
    <glyph glyph-name="Ycircumflex" unicode="&#x176;" horiz-adv-x="1343" 
d="M674 1923l-199 -223h-143l266 307h150l266 -307h-144zM1141 1516h170l-561 -902v-614h-156v614l-561 902h170l471 -762z" />
    <glyph glyph-name="ycircumflex" unicode="&#x177;" horiz-adv-x="1275" 
d="M631 1491l-199 -223h-143l266 307h150l266 -307h-144zM961 1083h147v-1534h-944v123h797v502q-110 -194 -377 -194q-193 0 -311.5 115.5t-118.5 303.5v684h147v-655q0 -145 90.5 -233.5t239.5 -88.5t239.5 88.5t90.5 233.5v655z" />
    <glyph glyph-name="Ydieresis" unicode="&#x178;" horiz-adv-x="1343" 
d="M465 1788q-41 0 -69.5 28.5t-28.5 69.5q0 43 28.5 72t69.5 29q43 0 71.5 -29t28.5 -72q0 -41 -28.5 -69.5t-71.5 -28.5zM883 1788q-43 0 -72 28.5t-29 69.5q0 43 29 72t72 29q41 0 69.5 -29t28.5 -72q0 -41 -28.5 -69.5t-69.5 -28.5zM1141 1516h170l-561 -902v-614h-156
v614l-561 902h170l471 -762z" />
    <glyph glyph-name="Zacute" unicode="&#x179;" horiz-adv-x="1179" 
d="M946 2007l-317 -307h-131l266 307h182zM305 129h811v-129h-1055l801 1386h-788v130h1030z" />
    <glyph glyph-name="zacute" unicode="&#x17a;" horiz-adv-x="1017" 
d="M416 1268l266 307h182l-317 -307h-131zM68 0l637 961h-629v122h864l-639 -960h649v-123h-882z" />
    <glyph glyph-name="Zdotaccent" unicode="&#x17b;" horiz-adv-x="1179" 
d="M590 1788q-41 0 -69.5 28.5t-28.5 69.5q0 43 28.5 72t69.5 29q43 0 71.5 -29t28.5 -72q0 -41 -28.5 -69.5t-71.5 -28.5zM305 129h811v-129h-1055l801 1386h-788v130h1030z" />
    <glyph glyph-name="zdotaccent" unicode="&#x17c;" horiz-adv-x="1017" 
d="M508 1356q-41 0 -69.5 28.5t-28.5 69.5q0 43 28.5 71.5t69.5 28.5q43 0 71.5 -28.5t28.5 -71.5q0 -41 -28.5 -69.5t-71.5 -28.5zM68 0l637 961h-629v122h864l-639 -960h649v-123h-882z" />
    <glyph glyph-name="Zcaron" unicode="&#x17d;" horiz-adv-x="1179" 
d="M664 1700h-150l-266 307h143l199 -223l196 223h144zM305 129h811v-129h-1055l801 1386h-788v130h1030z" />
    <glyph glyph-name="zcaron" unicode="&#x17e;" horiz-adv-x="1017" 
d="M582 1268h-150l-266 307h143l199 -223l197 223h143zM301 123h649v-123h-882l637 961h-629v122h864z" />
    <glyph glyph-name="florin" unicode="&#x192;" horiz-adv-x="974" 
d="M778 1407q-97 0 -163.5 -59t-84.5 -166l-73 -414h401v-125h-422l-149 -848h-152l148 848h-174v125h196l80 455q26 150 129 231.5t258 81.5q93 0 162 -29l-19 -121q-61 21 -137 21z" />
    <glyph glyph-name="Scommaaccent" unicode="&#x218;" horiz-adv-x="1273" 
d="M623 -20q-152 0 -281 44t-213 132l64 110q163 -157 419 -157q181 0 288.5 73.5t107.5 196.5q0 62 -28 111.5t-84.5 87t-121.5 64t-160 54.5l-102 31q-88 24 -152.5 53.5t-122.5 75t-88 112t-30 152.5q0 187 142.5 301.5t375.5 114.5q288 0 471 -174l-74 -109
q-163 154 -399 154q-160 0 -257 -72.5t-97 -191.5q0 -49 17 -89t43.5 -67.5t69 -51t83 -38.5t96.5 -31l104 -30q76 -23 134.5 -45.5t126 -61t111.5 -82.5t73.5 -109.5t29.5 -142.5q0 -187 -150 -301t-396 -114zM494 -451l108 345h137l-131 -345h-114z" />
    <glyph glyph-name="scommaaccent" unicode="&#x219;" horiz-adv-x="983" 
d="M479 -20q-247 0 -373 114l62 92q120 -88 311 -88q116 0 186 50t70 133q0 132 -227 196l-117 35q-142 39 -214.5 101t-72.5 175q0 142 104.5 229t276.5 87q219 0 369 -98l-63 -101q-129 80 -295 80q-108 0 -174 -47.5t-66 -126.5q0 -70 51.5 -110t149.5 -68l116 -35
q314 -86 314 -305q0 -142 -110.5 -227.5t-297.5 -85.5zM338 -451l108 345h138l-131 -345h-115z" />
    <glyph glyph-name="uni021A" unicode="&#x21a;" horiz-adv-x="1185" 
d="M1159 1516v-130h-487v-1386h-156v1386h-489v130h1132zM426 -451l109 345h137l-131 -345h-115z" />
    <glyph glyph-name="uni021B" unicode="&#x21b;" horiz-adv-x="714" 
d="M446 1083h271v-122h-271v-961h-147v961h-270v122h270v318h147v-318zM207 -451l108 345h138l-131 -345h-115z" />
    <glyph glyph-name="circumflex" unicode="&#x2c6;" horiz-adv-x="1228" 
d="M770 1268h-143l-197 223l-199 -223h-143l266 307h150z" />
    <glyph glyph-name="caron" unicode="&#x2c7;" horiz-adv-x="1228" 
d="M627 1575h143l-266 -307h-150l-266 307h143l199 -223z" />
    <glyph glyph-name="breve" unicode="&#x2d8;" horiz-adv-x="1228" 
d="M414 1249q-149 0 -239.5 89t-90.5 237h121q0 -104 57.5 -169t151.5 -65t151.5 65t57.5 169h118q0 -148 -89.5 -237t-237.5 -89z" />
    <glyph glyph-name="dotaccent" unicode="&#x2d9;" horiz-adv-x="1228" 
d="M236 1356q-41 0 -70 28.5t-29 69.5q0 42 28.5 71t70.5 29q43 0 71.5 -28.5t28.5 -71.5q0 -41 -28.5 -69.5t-71.5 -28.5z" />
    <glyph glyph-name="ring" unicode="&#x2da;" horiz-adv-x="1228" 
d="M348 1196q-100 0 -161.5 59t-61.5 156t61.5 156t161.5 59t161.5 -59t61.5 -156t-61.5 -156t-161.5 -59zM348 1272q60 0 96.5 38t36.5 101t-36.5 101t-96.5 38t-96.5 -38t-36.5 -101t36.5 -101t96.5 -38z" />
    <glyph glyph-name="ogonek" unicode="&#x2db;" horiz-adv-x="1228" 
d="M334 -471q-79 0 -127.5 44t-48.5 116q0 100 87 199.5t249 191.5v-80q-222 -143 -222 -291q0 -40 26 -64t67 -24q65 0 118 47l17 -82q-72 -57 -166 -57z" />
    <glyph glyph-name="tilde" unicode="&#x2dc;" horiz-adv-x="1228" 
d="M637 1284q-46 0 -93.5 23t-81 51t-75.5 51t-78 23q-48 0 -79 -34.5t-31 -92.5h-93q0 108 57 174.5t146 66.5q47 0 94.5 -23t80.5 -50.5t75 -50.5t78 -23q49 0 81 34.5t32 92.5h90q0 -111 -56.5 -176.5t-146.5 -65.5z" />
    <glyph glyph-name="hungarumlaut" unicode="&#x2dd;" horiz-adv-x="1228" 
d="M285 1268l217 307h182l-268 -307h-131zM590 1268l217 307h182l-268 -307h-131z" />
    <glyph glyph-name="gravecomb" unicode="&#x300;" 
d="M-391 1268l-318 307h183l268 -307h-133z" />
    <glyph glyph-name="acutecomb" unicode="&#x301;" 
d="M-444 1268l266 307h182l-317 -307h-131z" />
    <glyph glyph-name="uni0302" unicode="&#x302;" 
d="M-88 1268h-143l-197 223l-199 -223h-143l266 307h150z" />
    <glyph glyph-name="tildecomb" unicode="&#x303;" 
d="M-311 1284q-46 0 -93.5 23t-81 51t-75.5 51t-78 23q-48 0 -79.5 -35t-31.5 -92h-92q0 108 57 174.5t146 66.5q47 0 94.5 -23t80.5 -50.5t75 -50.5t78 -23q49 0 80.5 34t31.5 93h90q0 -111 -56 -176.5t-146 -65.5z" />
    <glyph glyph-name="uni0304" unicode="&#x304;" 
d="M-764 1325v117h635v-117h-635z" />
    <glyph glyph-name="uni0306" unicode="&#x306;" 
d="M-412 1249q-149 0 -239 89t-90 237h120q0 -104 57.5 -169t151.5 -65t151.5 65t57.5 169h119q0 -148 -90 -237t-238 -89z" />
    <glyph glyph-name="uni0307" unicode="&#x307;" 
d="M-238 1356q-41 0 -69.5 28.5t-28.5 69.5q0 43 28.5 71.5t69.5 28.5q43 0 72 -28.5t29 -71.5q0 -41 -29 -69.5t-72 -28.5z" />
    <glyph glyph-name="uni0308" unicode="&#x308;" 
d="M-653 1356q-41 0 -70 28.5t-29 69.5q0 42 29 71t70 29q43 0 71.5 -28.5t28.5 -71.5q0 -41 -28.5 -69.5t-71.5 -28.5zM-236 1356q-43 0 -71.5 28.5t-28.5 69.5q0 43 28.5 71.5t71.5 28.5q42 0 70.5 -29t28.5 -71q0 -41 -29 -69.5t-70 -28.5z" />
    <glyph glyph-name="uni030A" unicode="&#x30a;" 
d="M-348 1196q-100 0 -161.5 59t-61.5 156t61.5 156t161.5 59t161.5 -59t61.5 -156t-61.5 -156t-161.5 -59zM-348 1272q60 0 96.5 38t36.5 101t-36.5 101t-96.5 38t-96.5 -38t-36.5 -101t36.5 -101t96.5 -38z" />
    <glyph glyph-name="uni030B" unicode="&#x30b;" 
d="M-748 1268l218 307h182l-268 -307h-132zM-442 1268l217 307h182l-268 -307h-131z" />
    <glyph glyph-name="uni030C" unicode="&#x30c;" 
d="M-231 1575h143l-266 -307h-150l-266 307h143l199 -223z" />
    <glyph glyph-name="uni0312" unicode="&#x312;" 
d="M-297 1214l143 383h115l-121 -383h-137z" />
    <glyph glyph-name="uni0326" unicode="&#x326;" 
d="M-279 -451l109 345h137l-131 -345h-115z" />
    <glyph glyph-name="uni0327" unicode="&#x327;" 
d="M-262 -133q99 0 159 -45t60 -119q0 -78 -67 -126t-179 -48q-126 0 -196 57l32 66q55 -49 148 -49q68 0 109.5 27.5t41.5 72.5q0 43 -39 68.5t-104 25.5q-51 0 -94 -18l-23 43l109 178h96l-86 -133h33z" />
    <glyph glyph-name="uni0328" unicode="&#x328;" 
d="M-195 -471q-79 0 -127.5 44t-48.5 116q0 100 87 199.5t249 191.5v-80q-221 -142 -221 -291q0 -40 25.5 -64t66.5 -24q66 0 119 47l16 -82q-72 -57 -166 -57z" />
    <glyph glyph-name="uni0335" unicode="&#x335;" 
d="M-1051 532v111h742v-111h-742z" />
    <glyph glyph-name="uni0336" unicode="&#x336;" 
d="M-1757 532v111h1597v-111h-1597z" />
    <glyph glyph-name="uni0337" unicode="&#x337;" 
d="M-563 913l268 189v-127l-268 -187v19l-264 -186v124l264 187v-19z" />
    <glyph glyph-name="uni0338" unicode="&#x338;" 
d="M-922 -20l-86 53l881 1503l86 -53z" />
    <glyph glyph-name="uni0394" unicode="&#x394;" horiz-adv-x="1609" 
d="M879 1516l665 -1516h-1476l663 1516h148zM289 129h1032l-514 1198z" />
    <glyph glyph-name="uni03A9" unicode="&#x3a9;" horiz-adv-x="1593" 
d="M1065 313v-184h403v-129h-532v416q180 40 283.5 169t103.5 318q0 227 -145 365.5t-379 138.5q-236 0 -380.5 -138.5t-144.5 -365.5q0 -189 104 -318t284 -169v-416h-535v129h405v186q-197 67 -308 221t-111 367q0 284 188.5 458.5t497.5 174.5q307 0 495.5 -174.5
t188.5 -458.5q0 -213 -111.5 -368t-306.5 -222z" />
    <glyph glyph-name="uni03BC" unicode="&#x3bc;" horiz-adv-x="1290" 
d="M975 1083h147v-1083h-143l-2 168q-96 -188 -332 -188q-231 0 -330 184v-615h-147v1534h147v-655q0 -145 90.5 -233.5t239.5 -88.5t239.5 88.5t90.5 233.5v655z" />
    <glyph glyph-name="pi" unicode="&#x3c0;" horiz-adv-x="1402" 
d="M1309 961h-252v-723q0 -59 30.5 -95.5t81.5 -36.5q75 0 140 39v-120q-71 -45 -185 -45q-97 0 -156 63t-59 166v752h-456v-961h-148v961h-252v122h1256v-122z" />
    <glyph glyph-name="Wgrave" unicode="&#x1e80;" horiz-adv-x="2260" 
d="M1227 1700h-133l-318 307h182zM2077 1516h166l-541 -1516h-148l-424 1288l-423 -1288h-146l-543 1516h166l457 -1307l416 1307h149l416 -1307z" />
    <glyph glyph-name="wgrave" unicode="&#x1e81;" horiz-adv-x="1869" 
d="M1030 1268h-133l-317 307h182zM1677 1083h164l-422 -1083h-149l-334 913l-336 -913h-149l-422 1083h161l342 -913l338 913h129l336 -913z" />
    <glyph glyph-name="Wacute" unicode="&#x1e82;" horiz-adv-x="2260" 
d="M1489 2007l-318 -307h-131l267 307h182zM2077 1516h166l-541 -1516h-148l-424 1288l-423 -1288h-146l-543 1516h166l457 -1307l416 1307h149l416 -1307z" />
    <glyph glyph-name="wacute" unicode="&#x1e83;" horiz-adv-x="1869" 
d="M1292 1575l-317 -307h-131l266 307h182zM1677 1083h164l-422 -1083h-149l-334 913l-336 -913h-149l-422 1083h161l342 -913l338 913h129l336 -913z" />
    <glyph glyph-name="Wdieresis" unicode="&#x1e84;" horiz-adv-x="2260" 
d="M924 1788q-41 0 -70 28.5t-29 69.5q0 43 29 72t70 29q43 0 71.5 -29t28.5 -72q0 -41 -28.5 -69.5t-71.5 -28.5zM1341 1788q-43 0 -71.5 28.5t-28.5 69.5q0 43 28.5 72t71.5 29q41 0 70 -29t29 -72q0 -41 -29 -69.5t-70 -28.5zM2077 1516h166l-541 -1516h-148l-424 1288
l-423 -1288h-146l-543 1516h166l457 -1307l416 1307h149l416 -1307z" />
    <glyph glyph-name="wdieresis" unicode="&#x1e85;" horiz-adv-x="1869" 
d="M727 1356q-41 0 -69.5 28.5t-28.5 69.5q0 43 28.5 71.5t69.5 28.5q43 0 71.5 -28.5t28.5 -71.5q0 -41 -28.5 -69.5t-71.5 -28.5zM1145 1356q-43 0 -72 28.5t-29 69.5q0 43 29 71.5t72 28.5q41 0 69.5 -28.5t28.5 -71.5q0 -41 -28.5 -69.5t-69.5 -28.5zM1677 1083h164
l-422 -1083h-149l-334 913l-336 -913h-149l-422 1083h161l342 -913l338 913h129l336 -913z" />
    <glyph glyph-name="uni1E9E" unicode="&#x1e9e;" horiz-adv-x="1372" 
d="M940 797q154 -45 242 -147.5t88 -243.5q0 -192 -139.5 -309t-368.5 -117q-128 0 -217 38l14 127q78 -36 180 -36q164 0 265.5 86t101.5 225q0 140 -108.5 226.5t-286.5 86.5v121q143 0 231 76t88 200t-94 200.5t-246 76.5q-154 0 -248 -76t-94 -201v-1130h-155v1149
q0 174 136.5 280.5t360.5 106.5q226 0 364 -106t138 -279q0 -123 -67 -215.5t-185 -138.5z" />
    <glyph glyph-name="Ygrave" unicode="&#x1ef2;" horiz-adv-x="1343" 
d="M768 1700h-133l-318 307h183zM1141 1516h170l-561 -902v-614h-156v614l-561 902h170l471 -762z" />
    <glyph glyph-name="ygrave" unicode="&#x1ef3;" horiz-adv-x="1275" 
d="M725 1268h-133l-318 307h183zM961 1083h147v-1534h-944v123h797v502q-110 -194 -377 -194q-193 0 -311.5 115.5t-118.5 303.5v684h147v-655q0 -145 90.5 -233.5t239.5 -88.5t239.5 88.5t90.5 233.5v655z" />
    <glyph glyph-name="endash" unicode="&#x2013;" horiz-adv-x="1163" 
d="M145 532v111h873v-111h-873z" />
    <glyph glyph-name="emdash" unicode="&#x2014;" horiz-adv-x="1843" 
d="M145 532v111h1553v-111h-1553z" />
    <glyph glyph-name="quoteleft" unicode="&#x2018;" horiz-adv-x="473" 
d="M393 1516l-137 -447h-156l160 447h133z" />
    <glyph glyph-name="quoteright" unicode="&#x2019;" horiz-adv-x="468" 
d="M106 1069l136 447h155l-159 -447h-132z" />
    <glyph glyph-name="quotesinglbase" unicode="&#x201a;" horiz-adv-x="450" 
d="M29 -281l137 447h156l-160 -447h-133z" />
    <glyph glyph-name="quotedblleft" unicode="&#x201c;" horiz-adv-x="786" 
d="M397 1516l-137 -449h-154l158 449h133zM707 1516l-138 -449h-155l159 449h134z" />
    <glyph glyph-name="quotedblright" unicode="&#x201d;" horiz-adv-x="778" 
d="M106 1069l136 447h155l-159 -447h-132zM414 1069l137 447h156l-160 -447h-133z" />
    <glyph glyph-name="quotedblbase" unicode="&#x201e;" horiz-adv-x="759" 
d="M29 -281l137 447h156l-160 -447h-133zM338 -281l137 447h156l-160 -447h-133z" />
    <glyph glyph-name="dagger" unicode="&#x2020;" horiz-adv-x="1085" 
d="M1004 1083v-131h-383v-1403h-156v1403h-383v131h383v514h156v-514h383z" />
    <glyph glyph-name="daggerdbl" unicode="&#x2021;" horiz-adv-x="1085" 
d="M1004 952h-383v-297h383v-129h-383v-977h-156v977h-383v129h383v297h-383v131h383v514h156v-514h383v-131z" />
    <glyph glyph-name="bullet" unicode="&#x2022;" horiz-adv-x="743" 
d="M371 465q-84 0 -135.5 51t-51.5 135q0 85 52 137t135 52q85 0 136.5 -52t51.5 -137t-51.5 -135.5t-136.5 -50.5z" />
    <glyph glyph-name="ellipsis" unicode="&#x2026;" horiz-adv-x="1296" 
d="M231 -20q-44 0 -77 33t-33 77q0 46 32.5 78.5t77.5 32.5q46 0 79.5 -32.5t33.5 -78.5q0 -44 -33.5 -77t-79.5 -33zM649 -20q-45 0 -77.5 32.5t-32.5 77.5q0 46 32 78.5t78 32.5q45 0 78 -33t33 -78q0 -44 -33.5 -77t-77.5 -33zM1065 -20q-44 0 -77.5 33t-33.5 77
q0 45 33 78t78 33q46 0 78.5 -32.5t32.5 -78.5q0 -44 -33 -77t-78 -33z" />
    <glyph glyph-name="perthousand" unicode="&#x2030;" horiz-adv-x="2357" 
d="M416 858q-154 0 -248 93t-94 247q0 152 94 245t248 93q152 0 245 -93t93 -245q0 -154 -93 -247t-245 -93zM391 -20l-86 53l881 1503l86 -53zM416 961q94 0 152.5 65t58.5 172t-58.5 172.5t-152.5 65.5q-97 0 -155 -65.5t-58 -172.5t58 -172t155 -65zM1161 -20
q-153 0 -246.5 92.5t-93.5 244.5q0 153 93.5 246.5t246.5 93.5q154 0 247 -93t93 -247q0 -152 -93 -244.5t-247 -92.5zM1952 -20q-154 0 -248 92.5t-94 244.5q0 154 94 247t248 93q152 0 245 -93t93 -247q0 -152 -93 -244.5t-245 -92.5zM1161 80q95 0 153 65.5t58 171.5
q0 107 -58 172.5t-153 65.5t-154 -65.5t-59 -172.5q0 -106 59 -171.5t154 -65.5zM1952 80q94 0 151.5 65.5t57.5 171.5q0 107 -57.5 172.5t-151.5 65.5q-97 0 -155 -65.5t-58 -172.5q0 -106 58.5 -171.5t154.5 -65.5z" />
    <glyph glyph-name="guilsinglleft" unicode="&#x2039;" horiz-adv-x="706" 
d="M608 1012l-352 -459l352 -459h-157l-361 459l361 459h157z" />
    <glyph glyph-name="guilsinglright" unicode="&#x203a;" horiz-adv-x="706" 
d="M256 1012l362 -459l-362 -459h-158l355 459l-355 459h158z" />
    <glyph glyph-name="fraction" unicode="&#x2044;" horiz-adv-x="403" 
d="M-197 -20l-86 53l881 1503l86 -53z" />
    <glyph glyph-name="uni2070" unicode="&#x2070;" horiz-adv-x="788" 
d="M395 799q-146 0 -235.5 128t-89.5 339t89.5 339t235.5 128t235 -128t89 -339t-89 -339t-235 -128zM395 887q98 0 157.5 104t59.5 275t-59.5 275t-157.5 104q-97 0 -157 -104.5t-60 -274.5t60 -274.5t157 -104.5z" />
    <glyph glyph-name="uni2074" unicode="&#x2074;" horiz-adv-x="774" 
d="M481 811v193h-444v77l465 639h86v-626h135v-90h-135v-193h-107zM152 1090h333v460z" />
    <glyph glyph-name="uni2075" unicode="&#x2075;" horiz-adv-x="724" 
d="M317 799q-171 0 -264 84l31 80q82 -76 223 -76q107 0 172.5 55.5t65.5 147.5q0 83 -54 134.5t-143 51.5q-81 0 -164 -39l-71 12l63 471h436v-88h-344l-41 -289q75 21 142 21q128 0 207 -74.5t79 -195.5q0 -132 -94 -213.5t-244 -81.5z" />
    <glyph glyph-name="uni2076" unicode="&#x2076;" horiz-adv-x="716" 
d="M383 1362q121 0 200 -77t79 -202q0 -129 -82.5 -206.5t-217.5 -77.5q-134 0 -216.5 77.5t-82.5 204.5q0 111 76 224l283 415h121l-264 -372q43 14 104 14zM362 887q85 0 137 53.5t52 142.5t-52 143t-137 54t-136.5 -54t-51.5 -143t51.5 -142.5t136.5 -53.5z" />
    <glyph glyph-name="uni2077" unicode="&#x2077;" horiz-adv-x="645" 
d="M33 1720h583l-321 -909h-113l295 821h-444v88z" />
    <glyph glyph-name="uni2078" unicode="&#x2078;" horiz-adv-x="759" 
d="M514 1282q77 -28 120.5 -87t43.5 -140q0 -115 -81.5 -185.5t-215.5 -70.5q-135 0 -218 70t-83 184q0 81 44.5 141t121.5 88q-67 28 -104.5 83t-37.5 126q0 109 76.5 175.5t200.5 66.5q123 0 197.5 -66t74.5 -174q0 -73 -36.5 -128t-102.5 -83zM381 1645
q-73 0 -119.5 -44.5t-46.5 -115.5q0 -72 46 -115t120 -43q73 0 118.5 43.5t45.5 114.5q0 70 -46 115t-118 45zM381 887q85 0 136.5 48t51.5 126q0 79 -51.5 127.5t-136.5 48.5t-138 -48.5t-53 -127.5q0 -78 53 -126t138 -48z" />
    <glyph glyph-name="uni2079" unicode="&#x2079;" horiz-adv-x="716" 
d="M354 1733q134 0 216.5 -78t82.5 -205q0 -111 -75 -223l-283 -416h-121l264 373q-47 -15 -104 -15q-121 0 -200 77t-79 202q0 129 82 207t217 78zM166 1448q0 -89 51.5 -143t136.5 -54t137 54t52 143t-52 143t-137 54t-136.5 -54t-51.5 -143z" />
    <glyph glyph-name="uni2080" unicode="&#x2080;" horiz-adv-x="788" 
d="M395 -217q-146 0 -235.5 128t-89.5 339t89.5 339t235.5 128t235 -128t89 -339t-89 -339t-235 -128zM395 -129q98 0 157.5 104t59.5 275t-59.5 275t-157.5 104q-97 0 -157 -104.5t-60 -274.5t60 -274.5t157 -104.5z" />
    <glyph glyph-name="uni2081" unicode="&#x2081;" horiz-adv-x="440" 
d="M201 -205v821h-162v89h268v-910h-106z" />
    <glyph glyph-name="uni2082" unicode="&#x2082;" horiz-adv-x="722" 
d="M68 -205v70l274 297q2 3 21.5 23t25 26t24 26.5t25.5 30t22.5 30t22.5 33.5l17.5 32.5t15 35.5t8.5 35t4 37q0 72 -46.5 115t-121.5 43q-79 0 -127.5 -48t-48.5 -126l-106 10q0 114 76.5 183t203.5 69q125 0 202 -66t77 -174q0 -51 -17 -100.5t-54 -101t-68 -87
t-84 -90.5l-205 -217l440 2v-88h-581z" />
    <glyph glyph-name="uni2083" unicode="&#x2083;" horiz-adv-x="716" 
d="M356 324q130 0 209.5 -73t79.5 -190q0 -126 -87 -202t-234 -76q-86 0 -156 25.5t-111 74.5l41 78q74 -90 213 -90q102 0 163 52t61 138q0 82 -59.5 131.5t-156.5 49.5q-77 0 -137 -31l-30 53l317 352h-377v89h520v-68l-297 -315q12 2 41 2z" />
    <glyph glyph-name="uni2084" unicode="&#x2084;" horiz-adv-x="774" 
d="M481 -205v193h-444v78l465 639h86v-627h135v-90h-135v-193h-107zM152 74h333v461z" />
    <glyph glyph-name="uni2085" unicode="&#x2085;" horiz-adv-x="724" 
d="M317 -217q-171 0 -264 84l31 80q82 -76 223 -76q107 0 172.5 55.5t65.5 147.5q0 83 -54 134.5t-143 51.5q-81 0 -164 -39l-71 12l63 472h436v-89h-344l-41 -288q72 20 142 20q128 0 207 -74.5t79 -195.5q0 -132 -94 -213.5t-244 -81.5z" />
    <glyph glyph-name="uni2086" unicode="&#x2086;" horiz-adv-x="716" 
d="M383 346q122 0 200.5 -77t78.5 -201q0 -129 -82.5 -207t-217.5 -78q-134 0 -216.5 78t-82.5 205q0 110 76 223l283 416h121l-264 -373q43 14 104 14zM362 -129q85 0 137 54t52 143t-52 142.5t-137 53.5t-136.5 -53.5t-51.5 -142.5t51.5 -143t136.5 -54z" />
    <glyph glyph-name="uni2087" unicode="&#x2087;" horiz-adv-x="645" 
d="M33 705h583l-321 -910h-113l295 821h-444v89z" />
    <glyph glyph-name="uni2088" unicode="&#x2088;" horiz-adv-x="759" 
d="M514 266q77 -28 120.5 -87t43.5 -140q0 -115 -81.5 -185.5t-215.5 -70.5q-135 0 -218 70t-83 184q0 81 44.5 141t121.5 88q-67 28 -104.5 83t-37.5 126q0 109 76.5 175.5t200.5 66.5q123 0 197.5 -66t74.5 -174q0 -73 -36.5 -128t-102.5 -83zM381 629q-73 0 -119.5 -44.5
t-46.5 -115.5q0 -72 46 -115t120 -43q73 0 118.5 43.5t45.5 114.5q0 70 -46 115t-118 45zM381 -129q85 0 136.5 48t51.5 126q0 79 -51.5 127.5t-136.5 48.5t-138 -48.5t-53 -127.5q0 -78 53 -126t138 -48z" />
    <glyph glyph-name="uni2089" unicode="&#x2089;" horiz-adv-x="716" 
d="M354 717q134 0 216.5 -78t82.5 -205q0 -111 -75 -223l-283 -416h-121l264 373q-43 -14 -104 -14q-122 0 -200.5 77t-78.5 201q0 129 82 207t217 78zM166 432q0 -89 51.5 -142.5t136.5 -53.5t137 53.5t52 142.5t-52 143t-137 54t-136.5 -54t-51.5 -143z" />
    <glyph glyph-name="Euro" unicode="&#x20ac;" horiz-adv-x="1671" 
d="M1473 373l104 -99q-103 -139 -260.5 -216.5t-353.5 -77.5q-291 0 -489.5 157t-254.5 426h-133v103h117q-4 62 -4 96v26h-113v103h121q38 296 241.5 470.5t514.5 174.5q346 0 571 -246l-96 -100q-192 217 -469 217q-240 0 -401.5 -140t-196.5 -376h569v-103h-580v-26
q0 -18 5 -96h575v-103h-557q53 -211 207 -332.5t375 -121.5q163 0 292 70t216 194z" />
    <glyph glyph-name="uni20B9" unicode="&#x20b9;" horiz-adv-x="1320" 
d="M1227 1516v-103h-396q91 -53 146 -138.5t65 -195.5h175v-102h-175q-12 -139 -84 -241.5t-192 -153.5l385 -582h-184l-353 541q-54 -4 -82 -4h-382v129h366q150 0 249 84.5t116 226.5h-731v102h731q-17 140 -115 223.5t-248 83.5h-368v130h1077z" />
    <glyph glyph-name="uni20BD" unicode="&#x20bd;" horiz-adv-x="1304" 
d="M737 651h-354v-121h526v-102h-526v-428h-156v428h-108v102h108v121h-108v105h108v760h510q223 0 359.5 -117t136.5 -309q0 -197 -136.5 -318t-359.5 -121zM383 1386v-604h334q161 0 257.5 82.5t96.5 218.5t-97.5 219.5t-256.5 83.5h-334z" />
    <glyph glyph-name="trademark" unicode="&#x2122;" horiz-adv-x="1470" 
d="M549 1597v-75h-191v-510h-90v510h-190v75h471zM1321 1012h-92l-25 442l-207 -442h-51l-207 442l-24 -442h-92l39 585h92l219 -469l215 469h92z" />
    <glyph glyph-name="oneeighth" unicode="&#x215b;" horiz-adv-x="1603" 
d="M1038 1536l86 -53l-880 -1503l-86 53zM201 606v821h-162v89h268v-910h-106zM1358 471q77 -28 120.5 -87t43.5 -140q0 -115 -81.5 -185.5t-215.5 -70.5q-135 0 -218 70t-83 184q0 81 44.5 141t121.5 88q-67 28 -104.5 83t-37.5 126q0 109 76.5 175.5t200.5 66.5
q123 0 197.5 -66t74.5 -174q0 -73 -36.5 -128t-102.5 -83zM1225 834q-73 0 -119.5 -44.5t-46.5 -115.5q0 -72 46 -115t120 -43q73 0 118.5 43.5t45.5 114.5q0 70 -46 115t-118 45zM1225 76q85 0 136.5 48t51.5 126q0 79 -51.5 127.5t-136.5 48.5t-138 -48.5t-53 -127.5
q0 -78 53 -126t138 -48z" />
    <glyph glyph-name="threeeighths" unicode="&#x215c;" horiz-adv-x="1880" 
d="M1315 1536l86 -53l-881 -1503l-86 53zM645 872q0 -126 -87 -202t-234 -76q-86 0 -156 25.5t-111 74.5l41 78q74 -90 213 -90q102 0 163 52t61 138q0 82 -59.5 131.5t-156.5 49.5q-77 0 -137 -31l-30 53l317 352h-377v89h520v-68l-297 -315q12 2 41 2q130 0 209.5 -73
t79.5 -190zM1634 471q77 -28 120.5 -87t43.5 -140q0 -115 -81.5 -185.5t-215.5 -70.5q-135 0 -218 70t-83 184q0 81 44.5 141t121.5 88q-66 28 -103.5 82.5t-37.5 126.5q0 109 76 175.5t200 66.5q123 0 198 -66.5t75 -173.5q0 -73 -37 -128t-103 -83zM1501 834
q-73 0 -119.5 -44.5t-46.5 -115.5q0 -72 46 -115t120 -43q73 0 118.5 43.5t45.5 114.5q0 70 -46 115t-118 45zM1501 76q85 0 137 48t52 126q0 79 -52 127.5t-137 48.5t-137.5 -48.5t-52.5 -127.5q0 -78 52.5 -126t137.5 -48z" />
    <glyph glyph-name="fiveeighths" unicode="&#x215d;" horiz-adv-x="1888" 
d="M1323 1536l86 -53l-881 -1503l-86 53zM655 889q0 -132 -94 -213.5t-244 -81.5q-171 0 -264 84l31 80q82 -76 223 -76q107 0 172.5 55.5t65.5 147.5q0 83 -54 134.5t-143 51.5q-81 0 -164 -39l-71 12l63 472h436v-89h-344l-41 -288q72 20 142 20q128 0 207 -74.5
t79 -195.5zM1642 471q77 -28 120.5 -87t43.5 -140q0 -115 -81.5 -185.5t-215.5 -70.5q-135 0 -218 70t-83 184q0 81 44.5 141t121.5 88q-66 28 -103.5 82.5t-37.5 126.5q0 109 76 175.5t200 66.5q123 0 198 -66.5t75 -173.5q0 -73 -37 -128t-103 -83zM1509 834
q-73 0 -119.5 -44.5t-46.5 -115.5q0 -72 46 -115t120 -43q73 0 118.5 43.5t45.5 114.5q0 70 -46 115t-118 45zM1509 76q85 0 137 48t52 126q0 79 -52 127.5t-137 48.5t-137.5 -48.5t-52.5 -127.5q0 -78 52.5 -126t137.5 -48z" />
    <glyph glyph-name="seveneighths" unicode="&#x215e;" horiz-adv-x="1746" 
d="M1182 1536l86 -53l-881 -1503l-86 53zM33 1516h583l-321 -910h-113l295 821h-444v89zM1501 471q77 -28 120.5 -87t43.5 -140q0 -115 -81.5 -185.5t-215.5 -70.5q-135 0 -218 70t-83 184q0 81 44.5 141t121.5 88q-66 28 -103.5 82.5t-37.5 126.5q0 109 76 175.5t200 66.5
q123 0 197.5 -66t74.5 -174q0 -73 -36.5 -128t-102.5 -83zM1368 834q-73 0 -119.5 -44.5t-46.5 -115.5q0 -72 46 -115t120 -43q73 0 118.5 43.5t45.5 114.5q0 70 -46 115t-118 45zM1368 76q85 0 136.5 48t51.5 126q0 79 -51.5 127.5t-136.5 48.5t-137.5 -48.5t-52.5 -127.5
q0 -78 52.5 -126t137.5 -48z" />
    <glyph glyph-name="partialdiff" unicode="&#x2202;" horiz-adv-x="1312" 
d="M629 1536q171 0 302.5 -96t204 -272t72.5 -406q0 -351 -185 -566.5t-486 -215.5q-212 0 -340.5 107t-128.5 282q0 144 119.5 256t340.5 176.5t512 70.5q-22 244 -134 389.5t-283 145.5q-233 0 -392 -217l-98 100q199 246 496 246zM535 109q224 0 363.5 173t145.5 459
q-371 -5 -595 -108.5t-224 -270.5q0 -114 85 -183.5t225 -69.5z" />
    <glyph glyph-name="emptyset" unicode="&#x2205;" horiz-adv-x="1366" 
d="M1098 1100q137 -153 137 -393q0 -252 -152 -407t-399 -155q-210 0 -354 113l-103 -113l-69 54l108 118q-137 149 -137 390q0 253 153 408t402 155q204 0 350 -111l103 111l69 -51zM285 707q0 -167 82 -281l571 627q-102 88 -254 88q-180 0 -289.5 -119t-109.5 -315z
M684 272q178 0 286.5 120t108.5 315q0 168 -82 282l-571 -627q104 -90 258 -90z" />
    <glyph glyph-name="product" unicode="&#x220f;" horiz-adv-x="1488" 
d="M1282 1597v-2048h-156v1919h-766v-1919h-155v2048h1077z" />
    <glyph glyph-name="summation" unicode="&#x2211;" horiz-adv-x="1277" 
d="M68 -451v99l657 932l-639 919v98h1090v-129h-902l635 -888l-653 -902h940v-129h-1128z" />
    <glyph glyph-name="minus" unicode="&#x2212;" horiz-adv-x="1185" 
d="M152 649v123h882v-123h-882z" />
    <glyph glyph-name="radical" unicode="&#x221a;" horiz-adv-x="1564" 
d="M498 -451l-482 1084h162l395 -914l822 1878h164l-912 -2048h-149z" />
    <glyph glyph-name="infinity" unicode="&#x221e;" horiz-adv-x="1470" 
d="M1022 909q148 0 239 -92.5t91 -245.5t-91 -245.5t-239 -92.5q-99 0 -173.5 45.5t-111.5 127.5q-39 -82 -113 -127.5t-173 -45.5q-149 0 -239.5 92t-90.5 246t90.5 246t239.5 92q99 0 173.5 -45t112.5 -127q37 82 111.5 127t173.5 45zM461 334q94 0 152.5 65t58.5 172
t-58.5 172.5t-152.5 65.5q-97 0 -155 -65.5t-58 -172.5t58 -172t155 -65zM1012 334q95 0 153 65t58 172t-58 172.5t-153 65.5t-154 -65.5t-59 -172.5t58.5 -172t154.5 -65z" />
    <glyph glyph-name="integral" unicode="&#x222b;" horiz-adv-x="927" 
d="M690 1618q72 0 134.5 -23t101.5 -65l-41 -105q-73 64 -168 64q-81 0 -128.5 -48.5t-47.5 -127.5v-1510q0 -125 -82.5 -199.5t-222.5 -74.5q-152 0 -234 88l41 104q72 -63 168 -63q81 0 127.5 48.5t46.5 127.5v1509q0 125 83 200t222 75z" />
    <glyph glyph-name="approxequal" unicode="&#x2248;" horiz-adv-x="1177" 
d="M782 682q-54 0 -110.5 23t-95.5 50.5t-88.5 50.5t-92.5 23q-65 0 -108 -35t-43 -92h-90q0 108 68 174t175 66q55 0 111.5 -22.5t95.5 -50t88 -50t92 -22.5q65 0 108.5 34t43.5 91h90q0 -111 -68 -175.5t-176 -64.5zM782 272q-54 0 -110.5 23t-95.5 51t-88.5 51t-92.5 23
q-65 0 -108 -35t-43 -92h-90q0 108 68 173.5t175 65.5q55 0 111.5 -22.5t95.5 -50t88 -50t92 -22.5q65 0 108.5 34t43.5 91h90q0 -111 -68 -175.5t-176 -64.5z" />
    <glyph glyph-name="notequal" unicode="&#x2260;" horiz-adv-x="1185" 
d="M1034 885h-317l-96 -350h413v-123h-446l-64 -232h-149l63 232h-286v123h319l96 350h-415v125h448l64 231h149l-63 -231h284v-125z" />
    <glyph glyph-name="lessequal" unicode="&#x2264;" horiz-adv-x="1175" 
d="M1012 1245v-141l-650 -281l650 -282v-140l-856 375v92zM156 156v123h856v-123h-856z" />
    <glyph glyph-name="greaterequal" unicode="&#x2265;" horiz-adv-x="1173" 
d="M1018 776l-854 -375v140l649 282l-649 281v141l854 -377v-92zM162 279h858v-123h-858v123z" />
    <glyph glyph-name="lozenge" unicode="&#x25ca;" horiz-adv-x="1148" 
d="M641 1288l420 -645l-420 -643h-133l-420 643l420 645h133zM573 133l332 510l-332 510l-329 -510z" />
    <glyph glyph-name="i.loclTRK" horiz-adv-x="487" 
d="M244 1356q-41 0 -70 28.5t-29 69.5q0 42 28.5 71t70.5 29q43 0 71.5 -28.5t28.5 -71.5q0 -41 -28.5 -69.5t-71.5 -28.5zM170 0v1083h147v-1083h-147z" />
    <glyph glyph-name="zero.lf" horiz-adv-x="1411" 
d="M637 -20q-241 0 -388 214t-147 564t147 564t388 214q160 0 282 -96.5t188.5 -273.5t66.5 -408t-66.5 -408t-188.5 -273.5t-282 -96.5zM637 109q169 0 272 178.5t103 470.5t-103 470.5t-272 178.5t-272 -178.5t-103 -470.5t103 -470.5t272 -178.5z" />
    <glyph glyph-name="one.lf" horiz-adv-x="681" 
d="M322 0v1386h-279v130h434v-1516h-155z" />
    <glyph glyph-name="two.lf" horiz-adv-x="1155" 
d="M94 0v100l459 494q121 129 160 178q157 195 157 356q0 128 -81.5 203.5t-215.5 75.5q-138 0 -221.5 -83t-83.5 -218l-159 12q0 189 126.5 303.5t335.5 114.5q207 0 333 -107.5t126 -287.5q0 -51 -12.5 -104t-28.5 -95t-51 -96.5t-57.5 -87t-73 -90t-73 -82t-79.5 -84.5
l-352 -375l748 2v-129h-957z" />
    <glyph glyph-name="three.lf" horiz-adv-x="1155" 
d="M571 872q218 0 351 -119.5t133 -314.5q0 -207 -145.5 -332.5t-387.5 -125.5q-141 0 -256 44t-182 126l61 114q122 -155 361 -155q176 0 281.5 89.5t105.5 237.5q0 142 -104 229t-273 87q-129 0 -233 -52l-41 80l551 606h-652v130h860v-99l-516 -549q58 4 86 4z" />
    <glyph glyph-name="four.lf" horiz-adv-x="1249" 
d="M797 0v328h-750v114l778 1074h127v-1059h230v-129h-230v-328h-155zM225 455h576l2 798z" />
    <glyph glyph-name="five.lf" horiz-adv-x="1165" 
d="M514 -20q-288 0 -438 141l47 115q136 -127 377 -127q183 0 294 95.5t111 252.5q0 146 -94 236.5t-248 90.5q-147 0 -282 -61l-107 16l105 777h718v-130h-581l-76 -507q115 34 252 34q211 0 343 -124t132 -324q0 -217 -153.5 -351t-399.5 -134z" />
    <glyph glyph-name="six.lf" horiz-adv-x="1150" 
d="M612 915q203 0 333 -127.5t130 -334.5q0 -214 -135 -343.5t-356 -129.5t-356.5 129t-135.5 340q0 188 117 356l481 711h176l-440 -631q80 30 186 30zM584 109q149 0 239 94t90 248q0 155 -90 249.5t-239 94.5t-239.5 -94.5t-90.5 -249.5q0 -154 90.5 -248t239.5 -94z" />
    <glyph glyph-name="seven.lf" horiz-adv-x="1040" 
d="M43 1516h961l-541 -1516h-166l502 1386h-756v130z" />
    <glyph glyph-name="eight.lf" horiz-adv-x="1216" 
d="M823 786q130 -45 203.5 -144.5t73.5 -235.5q0 -192 -135.5 -309t-356.5 -117t-356 116t-135 305q0 137 73 238t203 147q-110 45 -172.5 137t-62.5 214q0 180 123.5 289.5t326.5 109.5t327 -109.5t124 -287.5q0 -122 -63 -214.5t-173 -138.5zM608 1407
q-130 0 -209.5 -77.5t-79.5 -203.5q0 -125 79.5 -200.5t209.5 -75.5t209.5 75.5t79.5 200.5q0 126 -79.5 203.5t-209.5 77.5zM608 109q149 0 239.5 83.5t90.5 221.5q0 137 -90.5 221t-239.5 84t-239 -84t-90 -221q0 -138 90 -221.5t239 -83.5z" />
    <glyph glyph-name="nine.lf" horiz-adv-x="1150" 
d="M567 1536q221 0 356.5 -129t135.5 -340q0 -188 -117 -356l-481 -711h-176l440 631q-82 -31 -186 -31q-203 0 -333 128t-130 335q0 214 135 343.5t356 129.5zM238 1065q0 -155 90 -249.5t239 -94.5t239.5 94.5t90.5 249.5q0 154 -90.5 248t-239.5 94t-239 -94t-90 -248z
" />
    <glyph glyph-name="zero.osf" horiz-adv-x="1355" 
d="M678 -20q-258 0 -417 182.5t-159 480.5q0 299 159 482.5t417 183.5t416.5 -183.5t158.5 -482.5q0 -298 -158.5 -480.5t-416.5 -182.5zM678 106q187 0 301.5 147.5t114.5 389.5q0 243 -114 390t-302 147t-303 -147.5t-115 -389.5q0 -241 115 -389t303 -148z" />
    <glyph glyph-name="one.osf" horiz-adv-x="692" 
d="M342 0v1165h-262v123h409v-1288h-147z" />
    <glyph glyph-name="two.osf" horiz-adv-x="1179" 
d="M111 0v100l507 402q43 33 72 57t71.5 67t68.5 81.5t45.5 90.5t19.5 103q0 126 -84 202.5t-221 76.5q-141 0 -228.5 -83t-87.5 -218l-149 12q0 188 127 303t334 115t332.5 -108.5t125.5 -287.5q0 -51 -12 -100t-29 -88.5t-48 -81t-57 -71t-67.5 -66t-69 -58.5t-71.5 -55
l-352 -270h727v-123h-954z" />
    <glyph glyph-name="three.osf" horiz-adv-x="1175" 
d="M588 657q213 0 343 -118.5t130 -311.5q0 -204 -142.5 -328t-379.5 -124q-143 0 -258.5 44t-180.5 126l60 114q121 -157 362 -157q174 0 279.5 89t105.5 236q0 140 -103.5 226t-273.5 86q-128 0 -231 -56l-41 80l559 602h-659v123h860v-98l-514 -539q40 6 84 6z" />
    <glyph glyph-name="four.osf" horiz-adv-x="1245" 
d="M807 -225v225h-758v104l785 1184h120v-1165h230v-123h-230v-225h-147zM227 119h584l2 889z" />
    <glyph glyph-name="five.osf" horiz-adv-x="1169" 
d="M512 -225q-288 0 -438 141l47 113q67 -63 166 -95t211 -32q183 0 294 95t111 249q0 145 -93 233t-247 88q-144 0 -284 -59l-105 14l105 766h716v-123h-585l-80 -506q125 35 260 35q208 0 337.5 -121.5t129.5 -318.5q0 -215 -151.5 -347t-393.5 -132z" />
    <glyph glyph-name="six.osf" horiz-adv-x="1140" 
d="M606 915q204 0 329.5 -126.5t125.5 -335.5q0 -214 -132.5 -343.5t-350.5 -129.5t-351 129t-133 340q0 188 111 348l489 719h168l-440 -633q79 32 184 32zM578 109q148 0 238.5 94t90.5 248q0 155 -90.5 249.5t-238.5 94.5q-149 0 -239.5 -94.5t-90.5 -249.5
q0 -154 90.5 -248t239.5 -94z" />
    <glyph glyph-name="seven.osf" horiz-adv-x="1101" 
d="M78 1288h960l-534 -1503l-144 39l478 1341h-760v123z" />
    <glyph glyph-name="eight.osf" horiz-adv-x="1202" 
d="M813 786q127 -45 199.5 -145t72.5 -235q0 -192 -133 -309t-350 -117q-218 0 -351.5 116t-133.5 305q0 137 72.5 238t201.5 147q-110 45 -171.5 137t-61.5 214q0 180 122 289.5t322 109.5q198 0 320 -109.5t122 -287.5q0 -122 -61.5 -214.5t-169.5 -138.5zM311 1126
q0 -124 80 -200t209 -76q130 0 209.5 75.5t79.5 200.5q0 126 -79.5 203.5t-209.5 77.5q-129 0 -209 -77.5t-80 -203.5zM600 109q149 0 239.5 83.5t90.5 221.5q0 137 -90.5 221t-239.5 84q-148 0 -239 -84t-91 -221q0 -138 91 -221.5t239 -83.5z" />
    <glyph glyph-name="nine.osf" horiz-adv-x="1138" 
d="M561 1309q217 0 350 -129.5t133 -341.5q0 -188 -112 -346l-481 -707l-140 39l406 579q-88 -32 -187 -32q-204 0 -329 128t-125 337q0 214 133.5 343.5t351.5 129.5zM229 836q0 -154 91 -249t239 -95q149 0 239.5 95t90.5 249q0 155 -90.5 248.5t-239.5 93.5
q-148 0 -239 -93.5t-91 -248.5z" />
    <glyph glyph-name="zero.tf" horiz-adv-x="1259" 
d="M631 -20q-145 0 -256 96.5t-171.5 273.5t-60.5 408t60.5 408t171.5 273.5t256 96.5q219 0 352 -213.5t133 -564.5t-133 -564.5t-352 -213.5zM631 109q146 0 235.5 178.5t89.5 470.5t-89.5 470.5t-235.5 178.5q-148 0 -238 -178.5t-90 -470.5t90 -470.5t238 -178.5z" />
    <glyph glyph-name="one.tf" horiz-adv-x="1259" 
d="M795 129h303v-129h-914v129h455v1257h-340v130h496v-1387z" />
    <glyph glyph-name="two.tf" horiz-adv-x="1259" 
d="M147 0v100l459 494q4 5 46.5 50t54.5 59t50.5 59t53.5 68.5t42.5 67.5t39 76t21.5 73.5t10 80.5q0 128 -81.5 203.5t-215.5 75.5q-139 0 -223.5 -83t-84.5 -218l-157 12q0 189 127 303.5t334 114.5q208 0 333 -107t125 -288q0 -51 -12.5 -104t-28.5 -95.5t-50.5 -96
t-58 -87t-72.5 -90t-73 -82t-79 -84.5l-353 -375l748 2v-129h-955z" />
    <glyph glyph-name="three.tf" horiz-adv-x="1259" 
d="M625 872q217 0 349 -119.5t132 -314.5q0 -208 -144.5 -333t-386.5 -125q-143 0 -258 44t-182 126l62 114q125 -155 362 -155q175 0 280 89.5t105 237.5q0 142 -104 229t-273 87q-130 0 -231 -52l-43 80l551 606h-651v130h860v-99l-514 -549q58 4 86 4z" />
    <glyph glyph-name="four.tf" horiz-adv-x="1259" 
d="M786 0v328h-720v114l749 1074h127v-1059h229v-129h-229v-328h-156zM242 453h549l2 798z" />
    <glyph glyph-name="five.tf" horiz-adv-x="1259" 
d="M559 -20q-286 0 -436 141l45 115q139 -127 377 -127q183 0 294 95.5t111 252.5q0 147 -93.5 237t-246.5 90q-147 0 -282 -61l-107 16l105 777h716v-130h-581l-74 -507q115 34 252 34q211 0 343 -124t132 -324q0 -217 -154 -351t-401 -134z" />
    <glyph glyph-name="six.tf" horiz-adv-x="1259" 
d="M668 915q202 0 332 -127.5t130 -334.5q0 -214 -135 -343.5t-356 -129.5q-223 0 -358.5 129t-135.5 340q0 188 117 356l481 711h179l-441 -629q82 28 187 28zM637 109q149 0 239.5 94t90.5 248q0 155 -90.5 249.5t-239.5 94.5q-148 0 -239 -94.5t-91 -249.5
q0 -154 91 -248t239 -94z" />
    <glyph glyph-name="seven.tf" horiz-adv-x="1259" 
d="M152 1516h960l-541 -1516h-165l501 1386h-755v130z" />
    <glyph glyph-name="eight.tf" horiz-adv-x="1259" 
d="M844 786q130 -45 203 -144.5t73 -235.5q0 -192 -135 -309t-356 -117t-356.5 116t-135.5 305q0 137 73.5 238t203.5 147q-110 45 -173 137t-63 214q0 180 124 289.5t327 109.5q202 0 326 -109t124 -288q0 -122 -62.5 -214.5t-172.5 -138.5zM629 1407q-130 0 -209.5 -77.5
t-79.5 -203.5q0 -125 79.5 -200.5t209.5 -75.5t209.5 75.5t79.5 200.5q0 126 -79.5 203.5t-209.5 77.5zM629 109q149 0 239 83.5t90 221.5q0 137 -90 221t-239 84t-239.5 -84t-90.5 -221q0 -138 90.5 -221.5t239.5 -83.5z" />
    <glyph glyph-name="nine.tf" horiz-adv-x="1259" 
d="M621 1536q221 0 356 -129t135 -340q0 -188 -117 -356l-481 -711h-176l440 631q-82 -31 -186 -31q-203 0 -333 128t-130 335q0 214 135 343.5t357 129.5zM291 1065q0 -155 90.5 -249.5t239.5 -94.5t239 94.5t90 249.5q0 154 -90 248t-239 94t-239.5 -94t-90.5 -248z" />
    <glyph glyph-name="zero.tosf" horiz-adv-x="1259" 
d="M631 -20q-218 0 -352 182.5t-134 480.5q0 299 134 482.5t352 183.5q217 0 350 -183.5t133 -482.5q0 -298 -133 -480.5t-350 -182.5zM631 106q146 0 235.5 147.5t89.5 389.5q0 243 -89.5 390t-235.5 147q-148 0 -238 -147t-90 -390q0 -242 90 -389.5t238 -147.5z" />
    <glyph glyph-name="one.tosf" horiz-adv-x="1259" 
d="M788 123h316v-123h-914v123h451v1042h-322v123h469v-1165z" />
    <glyph glyph-name="two.tosf" horiz-adv-x="1259" 
d="M150 0v100l507 402q43 33 72 57t71.5 67t68.5 81.5t45.5 90.5t19.5 103q0 126 -83.5 202.5t-221.5 76.5q-141 0 -227.5 -83t-86.5 -218l-151 12q0 188 127 303t336 115q206 0 331 -109t125 -287q0 -51 -12 -100t-29 -88.5t-48 -81t-57 -71t-67.5 -66t-69 -58.5t-71.5 -55
l-350 -270h727v-123h-956z" />
    <glyph glyph-name="three.tosf" horiz-adv-x="1259" 
d="M629 657q213 0 344 -119t131 -311q0 -205 -142.5 -328.5t-381.5 -123.5q-143 0 -258.5 44t-180.5 126l62 114q118 -157 360 -157q176 0 281.5 89t105.5 236q0 140 -104 226t-273 86q-127 0 -233 -56l-41 80l559 602h-659v123h860v-98l-514 -539q41 6 84 6z" />
    <glyph glyph-name="four.tosf" horiz-adv-x="1259" 
d="M801 -225v225h-727v104l751 1184h123v-1165h230v-123h-230v-225h-147zM240 119h565l2 891z" />
    <glyph glyph-name="five.tosf" horiz-adv-x="1259" 
d="M557 -225q-288 0 -438 141l45 113q139 -127 379 -127q183 0 294 95t111 249q0 145 -94 233t-248 88q-145 0 -282 -59l-107 14l105 766h718v-123h-585l-80 -506q122 35 260 35q208 0 337.5 -121.5t129.5 -318.5q0 -215 -151.5 -347t-393.5 -132z" />
    <glyph glyph-name="six.tosf" horiz-adv-x="1259" 
d="M668 915q204 0 329 -126.5t125 -335.5q0 -213 -133 -343t-350 -130q-218 0 -351.5 129t-133.5 340q0 187 112 348l488 719h170l-441 -631q83 30 185 30zM637 109q149 0 239.5 94t90.5 248q0 155 -90.5 249.5t-239.5 94.5q-148 0 -239 -94.5t-91 -249.5q0 -154 91 -248
t239 -94z" />
    <glyph glyph-name="seven.tosf" horiz-adv-x="1259" 
d="M156 1288h960l-534 -1503l-142 39l478 1341h-762v123z" />
    <glyph glyph-name="eight.tosf" horiz-adv-x="1259" 
d="M840 786q128 -44 200 -144t72 -236q0 -192 -132.5 -309t-350.5 -117q-217 0 -350.5 116t-133.5 305q0 137 73 238t200 147q-108 45 -170 137t-62 214q0 180 122.5 289.5t320.5 109.5q199 0 320.5 -109t121.5 -288q0 -122 -61.5 -214.5t-169.5 -138.5zM340 1126
q0 -125 79.5 -200.5t209.5 -75.5t209.5 75.5t79.5 200.5q0 126 -79.5 203.5t-209.5 77.5t-209.5 -77.5t-79.5 -203.5zM629 109q149 0 239 83.5t90 221.5q0 137 -90 221t-239 84t-239.5 -84t-90.5 -221q0 -138 90.5 -221.5t239.5 -83.5z" />
    <glyph glyph-name="nine.tosf" horiz-adv-x="1259" 
d="M621 1309q218 0 350.5 -129.5t132.5 -341.5q0 -189 -111 -346l-481 -707l-141 39l405 579q-88 -32 -184 -32q-204 0 -329.5 128t-125.5 337q0 214 133 343.5t351 129.5zM291 836q0 -154 90.5 -249t239.5 -95q148 0 238.5 95t90.5 249q0 155 -90.5 248.5t-238.5 93.5
q-149 0 -239.5 -93.5t-90.5 -248.5z" />
    <glyph glyph-name="zero.dnom" horiz-adv-x="788" 
d="M395 -12q-146 0 -235.5 128t-89.5 339t89.5 339t235.5 128t235 -128t89 -339t-89 -339t-235 -128zM395 76q98 0 157.5 104t59.5 275t-59.5 275t-157.5 104q-97 0 -157 -104.5t-60 -274.5t60 -274.5t157 -104.5z" />
    <glyph glyph-name="one.dnom" horiz-adv-x="440" 
d="M201 0v821h-162v88h268v-909h-106z" />
    <glyph glyph-name="two.dnom" horiz-adv-x="722" 
d="M68 0v70l274 297q2 3 21.5 23t25 26t24 26.5t25.5 30t22.5 30t22.5 33.5l17.5 32.5t15 35.5t8.5 35t4 37q0 72 -46.5 115t-121.5 43q-79 0 -127.5 -48.5t-48.5 -126.5l-106 11q0 114 76.5 183t203.5 69q125 0 202 -66t77 -174q0 -51 -17 -100.5t-54 -101t-68 -87
t-84 -90.5l-205 -217l440 2v-88h-581z" />
    <glyph glyph-name="three.dnom" horiz-adv-x="716" 
d="M356 528q130 0 209.5 -72.5t79.5 -189.5q0 -126 -87 -202t-234 -76q-86 0 -156 25.5t-111 74.5l41 78q74 -90 213 -90q102 0 163 52t61 138q0 81 -59.5 130.5t-156.5 49.5q-79 0 -137 -30l-30 53l317 352h-377v88h520v-67l-297 -316q12 2 41 2z" />
    <glyph glyph-name="four.dnom" horiz-adv-x="774" 
d="M481 0v193h-444v77l465 639h86v-626h135v-90h-135v-193h-107zM152 279h333v460z" />
    <glyph glyph-name="five.dnom" horiz-adv-x="724" 
d="M317 -12q-171 0 -264 84l31 80q82 -76 223 -76q107 0 172.5 55.5t65.5 147.5q0 83 -54 134.5t-143 51.5q-81 0 -164 -39l-71 12l63 471h436v-88h-344l-41 -289q75 21 142 21q128 0 207 -74.5t79 -195.5q0 -132 -94 -213.5t-244 -81.5z" />
    <glyph glyph-name="six.dnom" horiz-adv-x="716" 
d="M383 551q121 0 200 -77t79 -202q0 -129 -82.5 -206.5t-217.5 -77.5q-134 0 -216.5 77.5t-82.5 204.5q0 111 76 224l283 415h121l-264 -372q43 14 104 14zM362 76q85 0 137 53.5t52 142.5t-52 143t-137 54t-136.5 -54t-51.5 -143t51.5 -142.5t136.5 -53.5z" />
    <glyph glyph-name="seven.dnom" horiz-adv-x="645" 
d="M33 909h583l-321 -909h-113l295 821h-444v88z" />
    <glyph glyph-name="eight.dnom" horiz-adv-x="759" 
d="M514 471q77 -28 120.5 -87t43.5 -140q0 -115 -81.5 -185.5t-215.5 -70.5q-135 0 -218 70t-83 184q0 81 44.5 141t121.5 88q-67 28 -104.5 83t-37.5 126q0 109 76.5 175.5t200.5 66.5q123 0 197.5 -66t74.5 -174q0 -73 -36.5 -128t-102.5 -83zM381 834q-73 0 -119.5 -44.5
t-46.5 -115.5q0 -72 46 -115t120 -43q73 0 118.5 43.5t45.5 114.5q0 70 -46 115t-118 45zM381 76q85 0 136.5 48t51.5 126q0 79 -51.5 127.5t-136.5 48.5t-138 -48.5t-53 -127.5q0 -78 53 -126t138 -48z" />
    <glyph glyph-name="nine.dnom" horiz-adv-x="716" 
d="M354 922q134 0 216.5 -78t82.5 -205q0 -111 -75 -223l-283 -416h-121l264 373q-46 -15 -104 -15q-121 0 -200 77t-79 202q0 129 82 207t217 78zM166 637q0 -89 51.5 -143t136.5 -54t137 54t52 143t-52 143t-137 54t-136.5 -54t-51.5 -143z" />
    <glyph glyph-name="zero.numr" horiz-adv-x="788" 
d="M395 594q-146 0 -235.5 128t-89.5 339t89.5 339t235.5 128t235 -128t89 -339t-89 -339t-235 -128zM395 682q98 0 157.5 104t59.5 275t-59.5 275t-157.5 104q-97 0 -157 -104.5t-60 -274.5t60 -274.5t157 -104.5z" />
    <glyph glyph-name="one.numr" horiz-adv-x="440" 
d="M201 606v821h-162v89h268v-910h-106z" />
    <glyph glyph-name="two.numr" horiz-adv-x="722" 
d="M68 606v70l274 297q2 3 21.5 23t25 26t24 26.5t25.5 30t22.5 30t22.5 33.5l17.5 32.5t15 35.5t8.5 35t4 37q0 72 -46.5 115t-121.5 43q-79 0 -127.5 -48t-48.5 -126l-106 10q0 114 76.5 183t203.5 69q125 0 202 -66t77 -174q0 -51 -17 -100.5t-54 -101t-68 -87t-84 -90.5
l-205 -217l440 2v-88h-581z" />
    <glyph glyph-name="three.numr" horiz-adv-x="716" 
d="M356 1135q130 0 209.5 -73t79.5 -190q0 -126 -87 -202t-234 -76q-86 0 -156 25.5t-111 74.5l41 78q74 -90 213 -90q102 0 163 52t61 138q0 82 -59.5 131.5t-156.5 49.5q-77 0 -137 -31l-30 53l317 352h-377v89h520v-68l-297 -315q12 2 41 2z" />
    <glyph glyph-name="four.numr" horiz-adv-x="774" 
d="M481 606v193h-444v78l465 639h86v-627h135v-90h-135v-193h-107zM152 885h333v461z" />
    <glyph glyph-name="five.numr" horiz-adv-x="724" 
d="M317 594q-171 0 -264 84l31 80q82 -76 223 -76q107 0 172.5 55.5t65.5 147.5q0 83 -54 134.5t-143 51.5q-81 0 -164 -39l-71 12l63 472h436v-89h-344l-41 -288q72 20 142 20q128 0 207 -74.5t79 -195.5q0 -132 -94 -213.5t-244 -81.5z" />
    <glyph glyph-name="six.numr" horiz-adv-x="716" 
d="M383 1157q122 0 200.5 -77t78.5 -201q0 -129 -82.5 -207t-217.5 -78q-134 0 -216.5 78t-82.5 205q0 110 76 223l283 416h121l-264 -373q43 14 104 14zM362 682q85 0 137 54t52 143t-52 142.5t-137 53.5t-136.5 -53.5t-51.5 -142.5t51.5 -143t136.5 -54z" />
    <glyph glyph-name="seven.numr" horiz-adv-x="645" 
d="M33 1516h583l-321 -910h-113l295 821h-444v89z" />
    <glyph glyph-name="eight.numr" horiz-adv-x="759" 
d="M514 1077q77 -28 120.5 -87t43.5 -140q0 -115 -81.5 -185.5t-215.5 -70.5q-135 0 -218 70t-83 184q0 81 44.5 141t121.5 88q-67 28 -104.5 83t-37.5 126q0 109 76.5 175.5t200.5 66.5q123 0 197.5 -66t74.5 -174q0 -73 -36.5 -128t-102.5 -83zM381 1440
q-73 0 -119.5 -44.5t-46.5 -115.5q0 -72 46 -115t120 -43q73 0 118.5 43.5t45.5 114.5q0 70 -46 115t-118 45zM381 682q85 0 136.5 48t51.5 126q0 79 -51.5 127.5t-136.5 48.5t-138 -48.5t-53 -127.5q0 -78 53 -126t138 -48z" />
    <glyph glyph-name="nine.numr" horiz-adv-x="716" 
d="M354 1528q134 0 216.5 -78t82.5 -205q0 -111 -75 -223l-283 -416h-121l264 373q-43 -14 -104 -14q-122 0 -200.5 77t-78.5 201q0 129 82 207t217 78zM166 1243q0 -89 51.5 -142.5t136.5 -53.5t137 53.5t52 142.5t-52 143t-137 54t-136.5 -54t-51.5 -143z" />
    <glyph glyph-name="exclamdown.case" horiz-adv-x="550" 
d="M276 1536q42 0 70.5 -29t28.5 -71q0 -41 -29 -70t-70 -29q-42 0 -71 28.5t-29 70.5q0 43 28.5 71.5t71.5 28.5zM211 1180h129l14 -1180h-157z" />
    <glyph glyph-name="questiondown.case" horiz-adv-x="1062" 
d="M553 1536q41 0 69.5 -28.5t28.5 -71.5q0 -41 -28.5 -70t-69.5 -29q-43 0 -71.5 28.5t-28.5 70.5q0 43 28.5 71.5t71.5 28.5zM616 1180q0 -102 -15.5 -186.5t-35.5 -138t-56.5 -103.5t-62 -75.5t-67.5 -60.5q-36 -30 -55 -48.5t-41.5 -48t-32.5 -63.5t-10 -77
q0 -122 83.5 -196t219.5 -74q132 0 216.5 74.5t88.5 195.5l147 -8q-8 -175 -132 -283t-320 -108q-210 0 -337.5 106.5t-127.5 280.5q0 49 11 92t24.5 71.5t42 61t47 49.5t55.5 49t56 50t51 53t49.5 68.5t36.5 81t27.5 107t8.5 130.5h129z" />
    <glyph glyph-name="slash.case" horiz-adv-x="751" 
d="M94 0l412 1516h149l-411 -1516h-150z" />
    <glyph glyph-name="braceleft.case" horiz-adv-x="839" 
d="M551 -102q-128 0 -206.5 81t-78.5 214v264q0 106 -46.5 170.5t-121.5 64.5h-16v131h16q75 0 121.5 65t46.5 171v264q0 133 78.5 214t206.5 81q104 0 207 -25v-125q-79 21 -162 21q-78 0 -126 -56.5t-48 -148.5v-242q0 -107 -43.5 -185.5t-114.5 -98.5q71 -20 114.5 -98
t43.5 -185v-244q0 -92 48 -148t126 -56q86 0 162 20v-125q-99 -24 -207 -24z" />
    <glyph glyph-name="braceright.case" horiz-adv-x="839" 
d="M289 -102q-108 0 -207 24v125q76 -20 162 -20q78 0 126 56t48 148v244q0 107 44 185t116 98q-72 20 -116 98.5t-44 185.5v242q0 92 -48 148.5t-126 56.5q-82 0 -162 -21v125q103 25 207 25q129 0 206.5 -80.5t77.5 -214.5v-264q0 -106 46.5 -171t121.5 -65h19v-131h-19
q-75 0 -121.5 -64.5t-46.5 -170.5v-264q0 -134 -77.5 -214.5t-206.5 -80.5z" />
    <glyph glyph-name="bracketleft.case" horiz-adv-x="765" 
d="M205 -82v1679h479v-127h-326v-1425h326v-127h-479z" />
    <glyph glyph-name="bracketright.case" horiz-adv-x="765" 
d="M559 -82h-479v127h328v1425h-328v127h479v-1679z" />
    <glyph glyph-name="parenleft.case" horiz-adv-x="624" 
d="M418 -82q-59 78 -105.5 154.5t-95 183t-75.5 235.5t-27 267t27 267t75.5 235t95 182.5t105.5 154.5h135q-43 -61 -88 -144t-91 -193.5t-75 -243.5t-29 -258t29 -258t75 -243.5t91 -194t88 -144.5h-135z" />
    <glyph glyph-name="parenright.case" horiz-adv-x="624" 
d="M72 -82q43 61 88 144.5t90.5 194t74.5 243.5t29 258t-29 258t-74.5 243.5t-90.5 193.5t-88 144h137q59 -78 105.5 -154.5t95 -182.5t75.5 -235t27 -267t-27 -267t-75.5 -235.5t-95 -183t-105.5 -154.5h-137z" />
    <glyph glyph-name="logo" horiz-adv-x="2609" 
d="M156 -20q-15 0 -25 10.5t-10 25.5q0 21 10 31l700 698h-663q-47 0 -47 39q0 16 14 33l696 701h-669q-41 0 -41 38v3q0 38 41 38h758q47 0 47 -41q0 -20 -17 -34l-698 -697h676q17 0 29 -12t12 -29v-669l694 692q13 16 35 16q37 0 37 -45v-663l696 692q13 16 33 16
q15 0 25 -12t10 -27q0 -18 -13 -28l-753 -762q-14 -14 -35 -14q-41 0 -41 47v663l-694 -696q-14 -14 -35 -14q-41 0 -41 47v663l-697 -696q-14 -14 -34 -14z" />
    </font>
</defs>
</svg>
