<?xml version="1.0" standalone="no"?>
<!DOCTYPE svg PUBLIC "-//W3C//DTD SVG 1.1//EN" "http://www.w3.org/Graphics/SVG/1.1/DTD/svg11.dtd" >
<svg xmlns="http://www.w3.org/2000/svg" xmlns:xlink="http://www.w3.org/1999/xlink" version="1.1">
<metadata>
Created by FontForge 20170731 at Thu Dec  2 10:15:23 2021
 By Aleksey,,,
Copyright (c) 2016 by Alberto Romanos. All rights reserved.
</metadata>
<defs>
<font id="BwModelicaSS02-LightItalic" horiz-adv-x="0" >
  <font-face 
    font-family="Bw Modelica SS02 Light"
    font-weight="400"
    font-style="italic"
    font-stretch="normal"
    units-per-em="2048"
    panose-1="0 0 5 0 0 0 0 0 0 0"
    ascent="1597"
    descent="-451"
    x-height="1075"
    cap-height="1516"
    bbox="-1743 -473 2587 2089"
    underline-thickness="102"
    underline-position="-307"
    slope="-10"
    unicode-range="U+000D-FB02"
  />
<missing-glyph horiz-adv-x="2609" 
d="M244 -20q-15 0 -25 10.5t-10 25.5q0 21 10 31l701 698h-664q-47 0 -47 39q0 16 14 33l697 701h-670q-41 0 -41 38v3q0 38 41 38h758q47 0 47 -41q0 -20 -17 -34l-698 -697h676q17 0 29 -12t12 -29v-669l694 692q13 16 35 16q37 0 37 -45v-663l696 692q13 16 33 16
q15 0 25 -12t10 -27q0 -18 -13 -28l-753 -762q-14 -14 -35 -14q-41 0 -41 47v663l-694 -696q-14 -14 -35 -14q-41 0 -41 47v663l-696 -696q-14 -14 -35 -14z" />
    <glyph glyph-name="fi" unicode="fi" horiz-adv-x="1202" 
d="M479 1513l-78 -438h398l-15 -84h-397l-176 -991h-98l176 991h-191l15 84h190l92 522h506l-14 -84h-408zM1122 1532q29 0 48.5 -19.5t19.5 -50.5q0 -33 -23.5 -56.5t-56.5 -23.5q-30 0 -50 20t-20 50q0 35 24 57.5t58 22.5zM811 0l190 1075h99l-191 -1075h-98z" />
    <glyph glyph-name="fl" unicode="fl" horiz-adv-x="1265" 
d="M479 1513l-78 -438h398l-15 -84h-397l-176 -991h-98l176 991h-191l15 84h190l92 522h506l-14 -84h-408zM1194 1597l-266 -1513h235l-14 -84h-336l283 1597h98z" />
    <glyph glyph-name=".notdef" horiz-adv-x="2609" 
d="M244 -20q-15 0 -25 10.5t-10 25.5q0 21 10 31l701 698h-664q-47 0 -47 39q0 16 14 33l697 701h-670q-41 0 -41 38v3q0 38 41 38h758q47 0 47 -41q0 -20 -17 -34l-698 -697h676q17 0 29 -12t12 -29v-669l694 692q13 16 35 16q37 0 37 -45v-663l696 692q13 16 33 16
q15 0 25 -12t10 -27q0 -18 -13 -28l-753 -762q-14 -14 -35 -14q-41 0 -41 47v663l-694 -696q-14 -14 -35 -14q-41 0 -41 47v663l-696 -696q-14 -14 -35 -14z" />
    <glyph glyph-name=".null" 
 />
    <glyph glyph-name="nonmarkingreturn" horiz-adv-x="682" 
 />
    <glyph glyph-name="CR" unicode="&#xd;" horiz-adv-x="477" 
 />
    <glyph glyph-name="space" unicode=" " horiz-adv-x="557" 
 />
    <glyph glyph-name="exclam" unicode="!" horiz-adv-x="503" 
d="M145 295l207 1221h109l-228 -1221h-88zM141 -20q-29 0 -48 19t-19 48q0 35 23.5 57.5t56.5 22.5q30 0 48.5 -19t18.5 -49q0 -35 -23 -57t-57 -22z" />
    <glyph glyph-name="quotedbl" unicode="&#x22;" horiz-adv-x="636" 
d="M236 1155l73 442h92l-79 -442h-86zM494 1155l73 442h92l-81 -442h-84z" />
    <glyph glyph-name="numbersign" unicode="#" horiz-adv-x="1363" 
d="M1319 922h-250l-170 -418h252l-31 -74h-252l-176 -430h-82l176 430h-417l-176 -430h-82l176 430h-248l31 74h247l170 418h-249l30 73h250l178 439h82l-178 -439h418l178 439h82l-178 -439h250zM817 504l170 418h-418l-170 -418h418z" />
    <glyph glyph-name="dollar" unicode="$" horiz-adv-x="1257" 
d="M850 1534q247 -11 381 -174l-62 -70q-119 146 -335 158l-111 -635q65 -21 113 -40t105.5 -51.5t94 -69.5t61.5 -91.5t25 -118.5q0 -130 -73.5 -232.5t-197 -160.5t-276.5 -67l-28 -166h-105l29 166q-133 6 -238.5 49.5t-162.5 122.5l55 71q122 -147 362 -157l119 667
l-57 19q-69 21 -121.5 46t-100 62t-73 90.5t-25.5 120.5q0 192 147 319t372 142l28 166h103zM612 846l13 -4l106 602q-170 -17 -279.5 -114.5t-109.5 -235.5q0 -52 20.5 -92.5t61.5 -69.5t83.5 -48t104.5 -38zM1012 424q0 99 -79 164t-231 117l-110 -633q183 18 301.5 114
t118.5 238z" />
    <glyph glyph-name="percent" unicode="%" horiz-adv-x="1503" 
d="M221 -20l-57 40l1163 1516l57 -41zM446 866q-128 0 -202 72.5t-74 196.5q0 169 108.5 285t274.5 116q127 0 200.5 -72t73.5 -194q0 -170 -108.5 -287t-272.5 -117zM455 938q121 0 201.5 97.5t80.5 230.5q0 93 -51 145.5t-141 52.5q-125 0 -205 -98t-80 -229
q0 -93 51.5 -146t143.5 -53zM993 -20q-128 0 -202 72t-74 196q0 169 108.5 285t274.5 116q127 0 200.5 -72.5t73.5 -195.5q0 -169 -108.5 -285t-272.5 -116zM999 51q123 0 204 97t81 231q0 93 -51 146t-141 53q-125 0 -205 -98.5t-80 -229.5q0 -93 51 -146t141 -53z" />
    <glyph glyph-name="ampersand" unicode="&#x26;" horiz-adv-x="1585" 
d="M1083 772l-86 -485q-6 -30 -6 -60q0 -75 46 -118t126 -43q127 0 232 40l-6 -83q-104 -43 -263 -43q-98 0 -160 50.5t-73 137.5q-73 -94 -189 -141t-247 -47q-180 0 -285.5 94t-105.5 252q0 185 114.5 315.5t302.5 175.5q-98 35 -151 109.5t-53 175.5q0 129 68.5 229
t182.5 152.5t252 52.5q173 0 275 -83.5t102 -223.5q0 -33 -6 -70l-55 -305h415l-12 -82h-418zM379 1092q0 -109 76 -173.5t209 -64.5h335l56 301q4 40 4 57q0 110 -76.5 174t-208.5 64q-167 0 -281 -103.5t-114 -254.5zM489 66q97 0 185 32.5t154.5 101.5t84.5 162l72 410
h-330q-205 0 -344 -121.5t-139 -306.5q0 -129 84 -203.5t233 -74.5z" />
    <glyph glyph-name="quotesingle" unicode="'" horiz-adv-x="378" 
d="M236 1155l73 442h92l-79 -442h-86z" />
    <glyph glyph-name="parenleft" unicode="(" horiz-adv-x="563" 
d="M238 -369q-156 344 -156 703q0 340 135 660t367 603h90q-112 -150 -196.5 -292.5t-152.5 -304t-103.5 -338t-35.5 -363.5q0 -109 13 -211t38 -191t41 -136t41 -112q5 -12 7 -18h-88z" />
    <glyph glyph-name="parenright" unicode=")" horiz-adv-x="561" 
d="M-121 -369q113 152 197 294t152 304t103.5 338.5t35.5 362.5q0 93 -11.5 187.5t-23 154t-37.5 140.5t-33.5 101.5t-32.5 83.5h86q156 -329 156 -702q0 -341 -135 -663t-367 -601h-90z" />
    <glyph glyph-name="asterisk" unicode="*" horiz-adv-x="790" 
d="M778 1286l-231 -65l108 -183l-69 -45l-101 187l-159 -187l-58 45l170 185l-209 63l37 76l205 -76l35 230h80l-47 -230l229 76z" />
    <glyph glyph-name="plus" unicode="+" horiz-adv-x="1056" 
d="M971 750l-15 -84h-374l-66 -369h-98l65 369h-377l15 84h377l65 370h99l-66 -370h375z" />
    <glyph glyph-name="comma" unicode="," horiz-adv-x="428" 
d="M-129 -297l215 426h121l-234 -426h-102z" />
    <glyph glyph-name="hyphen" unicode="-" horiz-adv-x="858" 
d="M135 549l12 76h555l-14 -76h-553z" />
    <glyph glyph-name="period" unicode="." horiz-adv-x="423" 
d="M111 -20q-33 0 -54.5 22t-21.5 55q0 38 27 64t65 26q33 0 54.5 -22t21.5 -55q0 -37 -27 -63.5t-65 -26.5z" />
    <glyph glyph-name="slash" unicode="/" horiz-adv-x="786" 
d="M-51 -205l807 1802h102l-807 -1802h-102z" />
    <glyph glyph-name="zero" unicode="0" horiz-adv-x="1257" 
d="M530 -20q-192 0 -300.5 147.5t-108.5 402.5q0 145 30 290t89 273t139 227.5t187.5 157.5t226.5 58q191 0 299 -148.5t108 -402.5q0 -121 -21.5 -243t-61 -233.5t-99.5 -208t-132.5 -167.5t-164.5 -112t-191 -41zM539 68q123 0 230 85.5t176.5 220t109 296t39.5 317.5
q0 214 -82 337.5t-230 123.5q-123 0 -230 -85t-176.5 -219t-109 -295.5t-39.5 -318.5q0 -216 82 -339t230 -123z" />
    <glyph glyph-name="one" unicode="1" horiz-adv-x="641" 
d="M207 0l252 1427h-293l16 89h398l-269 -1516h-104z" />
    <glyph glyph-name="two" unicode="2" horiz-adv-x="1126" 
d="M-14 0l12 70l549 495q13 12 39 35q52 47 80 72.5t78 74.5t78 83t65 84.5t56.5 93.5t33.5 95t14 103q0 114 -76 178t-210 64q-153 0 -264.5 -92t-137.5 -240l-104 17q32 183 172.5 293t341.5 110q179 0 283 -85t104 -234q0 -60 -17.5 -122t-42 -114t-69.5 -112.5
t-81.5 -103t-96.5 -101t-96.5 -90.5t-98.5 -87l-453 -399h785l-17 -88h-927z" />
    <glyph glyph-name="three" unicode="3" horiz-adv-x="1136" 
d="M1141 1516l-13 -68l-663 -600q52 8 117 8q193 0 305 -96t112 -258q0 -152 -80 -272t-216 -185t-300 -65q-141 0 -245.5 46.5t-155.5 133.5l53 73q95 -165 353 -165q204 0 342.5 121.5t138.5 304.5q0 128 -94 203t-256 75q-137 0 -252 -53l-23 55l717 653h-705l17 89h848z
" />
    <glyph glyph-name="four" unicode="4" horiz-adv-x="1220" 
d="M702 0l62 342h-768l14 82l975 1092h90l-190 -1086h235l-14 -88h-238l-59 -342h-107zM131 428h651l164 920z" />
    <glyph glyph-name="five" unicode="5" horiz-adv-x="1150" 
d="M403 -20q-284 0 -407 147l43 74q113 -133 367 -133q214 0 358.5 129.5t144.5 322.5q0 133 -85.5 210t-235.5 77q-149 0 -312 -55l-75 12l237 752h695l-15 -89h-600l-190 -571q146 41 288 41q187 0 295.5 -99t108.5 -266q0 -160 -83 -287.5t-223.5 -196t-310.5 -68.5z" />
    <glyph glyph-name="six" unicode="6" horiz-adv-x="1130" 
d="M641 911q177 0 282 -99t105 -267q0 -116 -43.5 -220.5t-119 -180t-181.5 -120t-225 -44.5q-188 0 -296 99.5t-108 270.5q0 111 44 219t120 197l633 750h123l-561 -652q103 47 227 47zM475 68q126 0 227.5 63.5t157 169.5t55.5 231q0 135 -82.5 215t-224.5 80
q-190 0 -316 -136.5t-126 -328.5q0 -136 82.5 -215t226.5 -79z" />
    <glyph glyph-name="seven" unicode="7" horiz-adv-x="1009" 
d="M182 1516h936l-819 -1516h-115l777 1427h-795z" />
    <glyph glyph-name="eight" unicode="8" horiz-adv-x="1200" 
d="M805 784q111 -36 173 -117t62 -196q0 -142 -73.5 -255t-199.5 -174.5t-280 -61.5q-191 0 -302 93t-111 251q0 171 102.5 294t269.5 170q-95 35 -146.5 109.5t-51.5 177.5q0 134 67.5 240t182 163.5t254.5 57.5q174 0 276 -87.5t102 -234.5q0 -156 -89 -269.5t-236 -160.5
zM354 1071q0 -113 74 -177.5t203 -64.5q166 0 277.5 109t111.5 266q0 111 -74.5 177.5t-202.5 66.5q-166 0 -277.5 -109.5t-111.5 -267.5zM498 68q184 0 308 116.5t124 288.5q0 122 -83.5 194t-228.5 72q-184 0 -310 -117t-126 -288q0 -123 85 -194.5t231 -71.5z" />
    <glyph glyph-name="nine" unicode="9" horiz-adv-x="1130" 
d="M713 1536q187 0 295 -100t108 -271q0 -111 -44.5 -218.5t-121.5 -196.5l-633 -750h-120l563 653q-107 -49 -230 -49q-179 0 -284 99t-105 268q0 156 74.5 285.5t206 204.5t291.5 75zM561 688q190 0 316.5 136.5t126.5 328.5q0 136 -82 215.5t-226 79.5
q-191 0 -315.5 -136t-124.5 -329q0 -136 81.5 -215.5t223.5 -79.5z" />
    <glyph glyph-name="colon" unicode=":" horiz-adv-x="464" 
d="M289 926q-33 0 -54.5 23t-21.5 57q0 37 28 63.5t66 26.5q33 0 54.5 -23t21.5 -57q0 -37 -28 -63.5t-66 -26.5zM123 -20q-33 0 -54.5 22t-21.5 55q0 38 27.5 64t64.5 26q33 0 54.5 -22t21.5 -55q0 -37 -27 -63.5t-65 -26.5z" />
    <glyph glyph-name="semicolon" unicode=";" horiz-adv-x="571" 
d="M354 926q-33 0 -54 23t-21 57q0 37 27 63.5t65 26.5q33 0 54 -23t21 -57q0 -37 -27 -63.5t-65 -26.5zM-45 -297l215 426h123l-236 -426h-102z" />
    <glyph glyph-name="less" unicode="&#x3c;" horiz-adv-x="1038" 
d="M823 262l-741 426l10 57l891 426l-18 -96l-746 -360l621 -357z" />
    <glyph glyph-name="equal" unicode="=" horiz-adv-x="1173" 
d="M205 907l14 84h850l-14 -84h-850zM121 426l14 82h850l-14 -82h-850z" />
    <glyph glyph-name="greater" unicode="&#x3e;" horiz-adv-x="1034" 
d="M78 262l18 96l750 359l-625 358l17 96l741 -426l-10 -57z" />
    <glyph glyph-name="question" unicode="?" horiz-adv-x="1050" 
d="M483 291l-86 8q20 109 51.5 197.5t62.5 144t78 107t77.5 76t81.5 61.5q52 39 83.5 67.5t61.5 67.5t43.5 85t13.5 103q0 111 -77.5 175.5t-213.5 64.5q-149 0 -258 -84t-137 -221l-100 12q37 173 175 277t329 104q181 0 287 -86t106 -231q0 -69 -16 -125.5t-50.5 -103.5
t-74 -83t-99.5 -80q-40 -29 -58.5 -43.5t-55.5 -47t-57.5 -57.5t-50.5 -68t-48.5 -86.5t-37 -104t-30.5 -129.5zM391 -20q-29 0 -48 19t-19 48q0 35 23 57.5t56 22.5q29 0 48.5 -19.5t19.5 -48.5q0 -35 -23 -57t-57 -22z" />
    <glyph glyph-name="at" unicode="@" horiz-adv-x="2150" 
d="M1249 1540q366 0 582.5 -194t216.5 -521q0 -133 -34 -264t-94.5 -236.5t-153 -171t-199.5 -65.5q-104 0 -164 61t-62 164q-63 -106 -164.5 -167.5t-234.5 -61.5q-166 0 -262 95t-96 257q0 147 63.5 271t179 198t258.5 74q128 0 208.5 -59t109.5 -162l39 205h94l-100 -576
q-4 -46 -4 -61q0 -72 35 -112t102 -40q85 0 158 60.5t119.5 155.5t73 207.5t26.5 221.5q0 292 -189.5 464.5t-513.5 172.5q-236 0 -434 -81.5t-336 -228.5t-214.5 -357t-76.5 -461q0 -323 199.5 -518t531.5 -195q120 0 279.5 21.5t286.5 58.5l26 -80q-132 -39 -298 -62.5
t-298 -23.5q-187 0 -342.5 57.5t-262 161t-165.5 251.5t-59 325q0 271 84.5 498t236.5 385t370 245.5t478 87.5zM967 168q149 0 258.5 100t138.5 262l4 25q4 40 4 59q0 130 -73.5 204.5t-204.5 74.5q-116 0 -210.5 -63.5t-145 -165t-50.5 -218.5q0 -129 74.5 -203.5
t204.5 -74.5z" />
    <glyph glyph-name="A" unicode="A" horiz-adv-x="1458" 
d="M1225 0l-113 432h-838l-266 -432h-114l940 1516h100l403 -1516h-112zM328 520h762l-226 871z" />
    <glyph glyph-name="B" unicode="B" horiz-adv-x="1380" 
d="M963 788q128 -26 200 -107.5t72 -201.5q0 -139 -73.5 -249.5t-197.5 -170t-274 -59.5h-586l269 1516h534q179 0 283 -85.5t104 -228.5q0 -154 -89 -260.5t-242 -153.5zM463 1427l-107 -604h402q182 0 304 102.5t122 260.5q0 111 -87 176t-237 65h-397zM680 88
q191 0 317.5 110t126.5 277q0 119 -86.5 188.5t-238.5 69.5h-459l-113 -645h453z" />
    <glyph glyph-name="C" unicode="C" horiz-adv-x="1380" 
d="M745 -20q-291 0 -458.5 164.5t-167.5 445.5q0 193 67 367t183 301.5t283 202.5t358 75q242 0 407 -139l-16 -97q-145 148 -400 148q-166 0 -311.5 -70t-245.5 -187t-157.5 -272t-57.5 -323q0 -244 140 -386t385 -142q260 0 467 157l-21 -110q-201 -135 -455 -135z" />
    <glyph glyph-name="D" unicode="D" horiz-adv-x="1544" 
d="M852 1516q285 0 449.5 -162.5t164.5 -438.5q0 -190 -66 -359t-181 -291.5t-278.5 -193.5t-350.5 -71h-486l269 1516h479zM584 88q167 0 312.5 66t245.5 177.5t157 261t57 314.5q0 240 -142 380t-393 140h-358l-236 -1339h357z" />
    <glyph glyph-name="E" unicode="E" horiz-adv-x="1255" 
d="M1253 1427h-790l-107 -608h744l-17 -90h-743l-113 -641h811l-16 -88h-918l269 1516h897z" />
    <glyph glyph-name="F" unicode="F" horiz-adv-x="1118" 
d="M1176 1427h-713l-115 -649h643l-16 -90h-643l-121 -688h-107l269 1516h819z" />
    <glyph glyph-name="G" unicode="G" horiz-adv-x="1615" 
d="M1567 786q0 -20 -2 -32q-4 -140 -50.5 -263.5t-125.5 -215.5t-183 -159.5t-225.5 -101.5t-249.5 -34q-284 0 -447 164t-163 444q0 193 65 366.5t178.5 302t277.5 204t353 75.5q151 0 262.5 -35.5t210.5 -118.5l-77 -65q-148 131 -404 131q-163 0 -306 -71t-241 -188.5
t-154.5 -273.5t-56.5 -323q0 -242 137 -383t375 -141q105 0 206.5 28.5t189.5 83.5t156 130t109.5 174.5t47.5 211.5h-522l16 90h623z" />
    <glyph glyph-name="H" unicode="H" horiz-adv-x="1630" 
d="M1462 1516h105l-269 -1516h-104l129 725h-983l-129 -725h-107l269 1516h106l-125 -703h983z" />
    <glyph glyph-name="I" unicode="I" horiz-adv-x="540" 
d="M104 0l269 1516h106l-268 -1516h-107z" />
    <glyph glyph-name="J" unicode="J" horiz-adv-x="825" 
d="M180 -20q-81 0 -148.5 28t-103.5 78l37 68q37 -43 93.5 -64.5t119.5 -21.5q108 0 184 70.5t95 185.5l213 1192h104l-215 -1221q-26 -146 -127 -230.5t-252 -84.5z" />
    <glyph glyph-name="K" unicode="K" horiz-adv-x="1363" 
d="M1483 1516l-713 -740l461 -776h-125l-432 733h-334l-129 -733h-107l269 1516h106l-123 -695h328l668 695h131z" />
    <glyph glyph-name="L" unicode="L" horiz-adv-x="1069" 
d="M227 88h734l-17 -88h-840l269 1516h106z" />
    <glyph glyph-name="M" unicode="M" horiz-adv-x="2013" 
d="M1802 1532h105l-183 -1532h-106l164 1321l-852 -1321h-72l-385 1329l-305 -1329h-105l357 1532h104l396 -1370z" />
    <glyph glyph-name="N" unicode="N" horiz-adv-x="1697" 
d="M104 0l269 1516h69l854 -1330l234 1330h106l-268 -1516h-70l-854 1329l-233 -1329h-107z" />
    <glyph glyph-name="O" unicode="O" horiz-adv-x="1712" 
d="M745 -20q-291 0 -458.5 164.5t-167.5 445.5q0 193 67 367t183 301.5t283 202.5t358 75q289 0 456.5 -165t167.5 -447q0 -192 -67 -365.5t-183.5 -301t-283 -202.5t-355.5 -75zM754 68q133 0 253.5 45t213.5 126t162 187.5t105 234t36 261.5q0 243 -140 384.5t-383 141.5
q-166 0 -312 -70t-246.5 -187t-158 -272t-57.5 -323q0 -244 141 -386t386 -142z" />
    <glyph glyph-name="P" unicode="P" horiz-adv-x="1300" 
d="M897 1516q191 0 302.5 -100t111.5 -269q0 -230 -162.5 -385.5t-403.5 -155.5h-428l-106 -606h-107l269 1516h524zM733 694q200 0 333.5 129t133.5 318q0 131 -88.5 208.5t-241.5 77.5h-407l-129 -733h399z" />
    <glyph glyph-name="Q" unicode="Q" horiz-adv-x="1716" 
d="M1634 924q0 -199 -70.5 -376.5t-197.5 -307.5l246 -240h-131l-181 178q-238 -198 -555 -198q-291 0 -458.5 164.5t-167.5 445.5q0 193 67 367t183 301.5t283 202.5t358 75q289 0 456.5 -165t167.5 -447zM754 68q272 0 477 180l-258 254h127l194 -191q109 119 169.5 278
t60.5 333q0 243 -140 384.5t-383 141.5q-166 0 -312 -70t-246.5 -187t-158 -272t-57.5 -323q0 -244 141 -386t386 -142z" />
    <glyph glyph-name="R" unicode="R" horiz-adv-x="1404" 
d="M1333 1155q0 -187 -117.5 -320.5t-304.5 -175.5l322 -659h-123l-311 643q-14 -2 -47 -2h-428l-113 -641h-107l269 1516h526q200 0 317 -98t117 -263zM340 729h412q202 0 335.5 119t133.5 299q0 130 -92.5 205t-254.5 75h-411z" />
    <glyph glyph-name="S" unicode="S" horiz-adv-x="1239" 
d="M496 -20q-148 0 -267.5 44t-181.5 130l53 71q128 -157 394 -157q136 0 248.5 44.5t179.5 126.5t67 185q0 56 -25.5 101t-77.5 80.5t-111.5 61.5t-145.5 54l-103 33q-55 17 -99 35t-87 45.5t-71.5 60.5t-46 78.5t-17.5 99.5q0 135 76.5 241.5t206.5 164t288 57.5
q291 0 430 -176l-61 -70q-128 158 -373 158q-194 0 -324.5 -101t-130.5 -253q0 -52 21 -92.5t62.5 -69.5t83.5 -48t104 -38l108 -33q45 -15 80.5 -27.5t79 -32.5t76 -40.5t65.5 -49.5t54 -60.5t34 -73t13 -87.5q0 -138 -82 -244.5t-218 -162t-302 -55.5z" />
    <glyph glyph-name="T" unicode="T" horiz-adv-x="1146" 
d="M1278 1516l-16 -89h-500l-252 -1427h-104l251 1427h-499l16 89h1104z" />
    <glyph glyph-name="U" unicode="U" horiz-adv-x="1609" 
d="M694 -20q-243 0 -384.5 120.5t-141.5 323.5q0 46 10 108l174 984h105l-174 -984q-9 -49 -9 -94q0 -171 114.5 -270.5t313.5 -99.5q225 0 387 129.5t199 337.5l174 981h105l-176 -992q-43 -247 -234 -395.5t-463 -148.5z" />
    <glyph glyph-name="V" unicode="V" horiz-adv-x="1462" 
d="M567 0l-403 1516h110l361 -1393l856 1393h117l-940 -1516h-101z" />
    <glyph glyph-name="W" unicode="W" horiz-adv-x="2230" 
d="M455 0l-281 1516h113l245 -1375l685 1375h102l199 -1375l731 1375h114l-817 -1516h-100l-201 1364l-690 -1364h-100z" />
    <glyph glyph-name="X" unicode="X" horiz-adv-x="1275" 
d="M1368 1516l-641 -734l426 -782h-125l-379 702l-626 -702h-119l698 780l-383 736h125l336 -654l569 654h119z" />
    <glyph glyph-name="Y" unicode="Y" horiz-adv-x="1310" 
d="M487 0l115 635l-414 881h117l363 -781l641 781h123l-725 -881l-113 -635h-107z" />
    <glyph glyph-name="Z" unicode="Z" horiz-adv-x="1144" 
d="M1229 1516l-1098 -1428h858l-16 -88h-1028l1097 1427h-833l16 89h1004z" />
    <glyph glyph-name="bracketleft" unicode="[" horiz-adv-x="696" 
d="M27 -369l346 1966h442l-14 -86h-342l-318 -1794h342l-14 -86h-442z" />
    <glyph glyph-name="backslash" unicode="\" horiz-adv-x="768" 
d="M430 -205l-172 1802h100l172 -1802h-100z" />
    <glyph glyph-name="bracketright" unicode="]" horiz-adv-x="696" 
d="M662 1597l-347 -1966h-442l14 86h342l318 1794h-342l14 86h443z" />
    <glyph glyph-name="asciicircum" unicode="^" horiz-adv-x="929" 
d="M831 674h-104l-164 504l-336 -504h-106l409 606h103z" />
    <glyph glyph-name="underscore" unicode="_" horiz-adv-x="1028" 
d="M-74 -76l13 76h923l-12 -76h-924z" />
    <glyph glyph-name="grave" unicode="`" horiz-adv-x="1228" 
d="M426 1270l-246 297h125l209 -297h-88z" />
    <glyph glyph-name="a" unicode="a" horiz-adv-x="1126" 
d="M221 1075h805l-190 -1075h-97l41 238l4 18q-77 -130 -204.5 -203t-268.5 -73q-139 0 -220 68.5t-81 184.5q0 115 68 201.5t177.5 129t242.5 42.5q167 0 340 -45l75 432h-704zM342 55q72 0 148 30t144.5 84t120.5 139t70 184q-148 40 -319 40q-165 0 -279 -80t-114 -210
q0 -87 60.5 -137t168.5 -50z" />
    <glyph glyph-name="b" unicode="b" horiz-adv-x="1349" 
d="M807 1096q199 0 315.5 -119.5t116.5 -319.5q0 -183 -79 -338t-221.5 -247t-317.5 -92q-174 0 -276.5 79t-133.5 215l-4 -20l-47 -254h-97l283 1597h98l-137 -784q76 132 203.5 207.5t296.5 75.5zM610 66q151 0 273.5 81.5t189 214t66.5 285.5q0 167 -98 265t-269 98
q-193 0 -335 -131t-179 -342l-4 -25q-6 -46 -6 -84q0 -168 96 -265t266 -97z" />
    <glyph glyph-name="c" unicode="c" horiz-adv-x="974" 
d="M516 -20q-204 0 -322 118.5t-118 319.5q0 183 79 337.5t223.5 247.5t323.5 93q140 0 238 -88l-14 -93q-92 95 -230 95q-113 0 -211.5 -49.5t-164.5 -131t-104 -188t-38 -219.5q0 -164 92.5 -260t255.5 -96q147 0 269 98l-17 -103q-119 -81 -262 -81z" />
    <glyph glyph-name="d" unicode="d" horiz-adv-x="1347" 
d="M1243 1597h98l-282 -1597h-96l43 254l2 6q-78 -132 -205 -206t-297 -74q-199 0 -315.5 119t-116.5 319q0 183 79.5 338t222 247.5t316.5 92.5t277 -78.5t135 -214.5zM541 66q193 0 335.5 130.5t180.5 342.5q8 52 8 106q0 168 -96 266.5t-264 98.5q-152 0 -274.5 -82
t-188.5 -214.5t-66 -285.5q0 -167 97 -264.5t268 -97.5z" />
    <glyph glyph-name="e" unicode="e" horiz-adv-x="1185" 
d="M1069 500h-887q-6 -46 -6 -92q0 -161 85 -255t235 -94q116 0 224 56.5t195 152.5l70 -53q-100 -117 -226.5 -176t-266.5 -59q-194 0 -306 118t-112 318q0 137 44.5 261t122.5 216.5t191.5 147.5t243.5 55q194 0 305 -115t111 -311q0 -95 -23 -170zM672 1014
q-180 0 -307 -125t-170 -316h788q8 47 8 99q0 160 -85 251t-234 91z" />
    <glyph glyph-name="f" unicode="f" horiz-adv-x="743" 
d="M887 1513h-408l-78 -438h398l-15 -84h-397l-176 -991h-98l176 991h-191l15 84h190l92 522h506z" />
    <glyph glyph-name="g" unicode="g" horiz-adv-x="1349" 
d="M1157 1075h94l-268 -1526h-1030l12 84h934l111 629q-78 -132 -205.5 -207t-296.5 -75q-199 0 -315.5 119t-116.5 319q0 183 79.5 338t222.5 247.5t318 92.5q171 0 274.5 -78t135.5 -213l2 16zM543 66q195 0 336.5 130t179.5 343l4 28q6 44 6 78q0 168 -97 266.5
t-265 98.5q-151 0 -273.5 -82t-189 -214.5t-66.5 -285.5q0 -167 97 -264.5t268 -97.5z" />
    <glyph glyph-name="h" unicode="h" horiz-adv-x="1286" 
d="M752 1096q179 0 283 -92.5t104 -247.5q0 -12 -9 -82l-118 -674h-99l117 657q6 41 6 72q0 131 -84 206t-233 75q-170 0 -291 -98t-149 -257l-117 -655h-99l283 1597h98l-127 -718q141 217 435 217z" />
    <glyph glyph-name="i" unicode="i" horiz-adv-x="458" 
d="M367 1382q-30 0 -50 20t-20 50q0 35 24 57.5t58 22.5q29 0 48 -19.5t19 -50.5q0 -34 -23 -57t-56 -23zM68 0l190 1075h98l-190 -1075h-98z" />
    <glyph glyph-name="j" unicode="j" horiz-adv-x="458" 
d="M365 1382q-29 0 -48.5 20.5t-19.5 49.5q0 35 24 57.5t58 22.5q29 0 48 -19.5t19 -50.5q0 -34 -23.5 -57t-57.5 -23zM-12 -451l270 1526h98l-270 -1526h-98z" />
    <glyph glyph-name="k" unicode="k" horiz-adv-x="1134" 
d="M1180 1075l-570 -512l402 -563h-123l-365 522h-270l-92 -522h-99l283 1597h98l-176 -991h260l519 469h133z" />
    <glyph glyph-name="l" unicode="l" horiz-adv-x="522" 
d="M70 0l282 1597h99l-267 -1513h236l-14 -84h-336z" />
    <glyph glyph-name="m" unicode="m" horiz-adv-x="1980" 
d="M1475 1096q168 0 264 -90.5t96 -243.5q0 -47 -8 -88l-119 -674h-98l114 655q9 46 9 82q0 126 -75.5 199.5t-205.5 73.5q-152 0 -262.5 -98t-138.5 -257l-117 -655h-98l116 655q6 31 6 82q0 127 -74 200t-204 73q-152 0 -262.5 -98t-138.5 -257l-117 -655h-99l191 1075h96
l-33 -190q63 101 163.5 156t232.5 55q136 0 225.5 -66.5t114.5 -181.5q64 115 171.5 181.5t250.5 66.5z" />
    <glyph glyph-name="n" unicode="n" horiz-adv-x="1286" 
d="M752 1096q179 0 283 -92.5t104 -247.5q0 -12 -9 -82l-118 -674h-99l117 657q6 41 6 72q0 131 -84 206t-233 75q-170 0 -291 -98t-149 -257l-117 -655h-99l191 1075h96l-35 -201q143 222 437 222z" />
    <glyph glyph-name="o" unicode="o" horiz-adv-x="1280" 
d="M530 -20q-212 0 -334 120t-122 322q0 186 82.5 340t230.5 244t330 90q211 0 331.5 -120.5t120.5 -324.5q0 -184 -82 -337.5t-229 -243.5t-328 -90zM543 66q150 0 271.5 81.5t187 213.5t65.5 286q0 167 -96.5 265t-265.5 98q-151 0 -273 -81t-188 -214t-66 -287
q0 -167 97 -264.5t268 -97.5z" />
    <glyph glyph-name="p" unicode="p" horiz-adv-x="1347" 
d="M805 1096q199 0 315.5 -119.5t116.5 -319.5q0 -137 -47 -261.5t-128 -216t-197 -145.5t-247 -54q-172 0 -274.5 78t-134.5 214l-127 -723h-98l270 1526h96l-43 -254v-4q76 131 203 205t295 74zM608 66q151 0 273.5 81.5t189 214t66.5 285.5q0 167 -98 265t-269 98
q-191 0 -332.5 -129.5t-179.5 -337.5l-2 -6l-6 -29q-4 -58 -4 -80q0 -168 96 -265t266 -97z" />
    <glyph glyph-name="q" unicode="q" horiz-adv-x="1349" 
d="M1155 1075h94l-268 -1526h-98l125 713q-78 -133 -204.5 -207.5t-297.5 -74.5q-199 0 -315.5 119t-116.5 319q0 183 79.5 338t222.5 247.5t318 92.5q171 0 274.5 -78t135.5 -213l2 16zM541 66q195 0 336.5 130t179.5 343l6 34q4 25 4 72q0 168 -97 266.5t-265 98.5
q-151 0 -273.5 -82t-189 -214.5t-66.5 -285.5q0 -167 97 -264.5t268 -97.5z" />
    <glyph glyph-name="r" unicode="r" horiz-adv-x="731" 
d="M63 0l191 1075h96l-39 -215q135 236 480 236l-17 -90q-206 0 -337 -99.5t-161 -269.5l-114 -637h-99z" />
    <glyph glyph-name="s" unicode="s" horiz-adv-x="946" 
d="M354 -20q-114 0 -202.5 28.5t-135.5 81.5l47 57q101 -88 295 -88q138 0 236 71.5t98 174.5q0 129 -205 189l-118 36q-113 33 -175.5 85t-62.5 141q0 148 119.5 244t294.5 96q200 0 338 -95l-52 -67q-108 80 -282 80q-133 0 -223 -67.5t-90 -168.5q0 -65 46 -101t136 -65
l119 -39q258 -80 258 -254q0 -151 -126.5 -245t-314.5 -94z" />
    <glyph glyph-name="t" unicode="t" horiz-adv-x="665" 
d="M760 1075l-15 -84h-282l-176 -991h-99l177 991h-283l14 84h283l55 316h98l-55 -316h283z" />
    <glyph glyph-name="u" unicode="u" horiz-adv-x="1251" 
d="M516 -20q-187 0 -295 93.5t-108 250.5q0 26 8 84l119 667h98l-117 -657q-8 -54 -8 -76q0 -128 82.5 -202t226.5 -74q164 0 282 98t146 256l117 655h98l-118 -676q-34 -190 -179.5 -304.5t-351.5 -114.5z" />
    <glyph glyph-name="v" unicode="v" horiz-adv-x="1128" 
d="M401 0l-299 1075h109l258 -960l602 960h111l-680 -1075h-101z" />
    <glyph glyph-name="w" unicode="w" horiz-adv-x="1855" 
d="M342 0l-236 1075h109l201 -960l542 960h91l200 -960l543 960h111l-617 -1075h-102l-199 954l-541 -954h-102z" />
    <glyph glyph-name="x" unicode="x" horiz-adv-x="1079" 
d="M1104 1075l-516 -524l348 -551h-121l-301 485l-473 -485h-123l547 553l-330 522h119l283 -459l444 459h123z" />
    <glyph glyph-name="y" unicode="y" horiz-adv-x="1263" 
d="M1065 1075h98l-268 -1526h-918l15 84h819l98 560q-138 -213 -422 -213q-173 0 -273.5 91.5t-100.5 243.5q0 26 8 84l119 676h98l-117 -657q-6 -43 -6 -76q0 -128 81.5 -202t225.5 -74q164 0 281.5 96t146.5 254v4z" />
    <glyph glyph-name="z" unicode="z" horiz-adv-x="985" 
d="M-49 0l858 991h-674l15 84h837l-858 -991h692l-14 -84h-856z" />
    <glyph glyph-name="braceleft" unicode="{" horiz-adv-x="772" 
d="M344 -389q-102 0 -161.5 59.5t-59.5 161.5q0 32 6 66l72 407q10 49 10 101q0 163 -135 163h-23l17 90h18q78 0 138.5 73.5t82.5 193.5l74 413q23 128 106 203.5t201 75.5q105 0 197 -25l-17 -86q-90 23 -163 23q-83 0 -145 -60.5t-79 -160.5l-71 -402
q-20 -114 -75.5 -193.5t-129.5 -99.5q108 -35 108 -200q0 -52 -8 -101l-69 -401q-7 -31 -7 -57q0 -71 37.5 -113.5t104.5 -42.5q86 0 182 22l-14 -86q-99 -24 -197 -24z" />
    <glyph glyph-name="bar" unicode="|" horiz-adv-x="516" 
d="M12 -451l363 2048h104l-362 -2048h-105z" />
    <glyph glyph-name="braceright" unicode="}" horiz-adv-x="772" 
d="M418 1618q102 0 161.5 -59.5t59.5 -161.5q0 -31 -6 -66l-72 -407q-10 -49 -10 -101q0 -164 135 -164h23l-17 -90h-18q-78 0 -138.5 -73t-82.5 -193l-74 -414q-23 -128 -106 -203t-201 -75q-109 0 -197 24l16 86q86 -22 164 -22q83 0 145 60.5t79 160.5l71 402
q20 114 75.5 193t129.5 99q-109 36 -109 201q0 45 9 100l69 402q6 27 6 57q0 72 -37 114t-104 42q-82 0 -182 -23l14 86q103 25 197 25z" />
    <glyph glyph-name="asciitilde" unicode="~" horiz-adv-x="1159" 
d="M752 487q-46 0 -87 16.5t-72 39.5t-61 46t-66 39.5t-75 16.5q-70 0 -122 -36.5t-64 -100.5h-68q17 96 91.5 158.5t170.5 62.5q46 0 87 -16.5t72 -40t61 -47t66 -40t75 -16.5q70 0 122 37.5t62 102.5h70q-17 -99 -91.5 -160.5t-170.5 -61.5z" />
    <glyph glyph-name="uni00A0" unicode="&#xa0;" horiz-adv-x="557" 
 />
    <glyph glyph-name="exclamdown" unicode="&#xa1;" horiz-adv-x="481" 
d="M303 946q-31 0 -50.5 19.5t-19.5 50.5q0 34 24 57t58 23q29 0 48.5 -19.5t19.5 -50.5q0 -33 -23.5 -56.5t-56.5 -23.5zM-6 -451l227 1231h90l-209 -1231h-108z" />
    <glyph glyph-name="cent" unicode="&#xa2;" horiz-adv-x="1138" 
d="M1012 1016q-94 87 -238 96l-164 -944q172 13 301 127l50 -76q-151 -124 -367 -137l-29 -164h-94l29 166q-182 17 -285.5 134t-103.5 304q0 176 73 324t206.5 241.5t303.5 108.5l29 166h96l-28 -164q171 -11 288 -119zM213 526q0 -150 79.5 -243.5t223.5 -110.5l162 936
q-203 -26 -334 -194.5t-131 -387.5z" />
    <glyph glyph-name="sterling" unicode="&#xa3;" horiz-adv-x="1165" 
d="M788 1536q159 0 250.5 -83.5t91.5 -223.5q0 -35 -6 -76h-104q6 30 6 64q0 106 -65.5 168.5t-180.5 62.5q-133 0 -228 -84.5t-120 -220.5l-70 -395h627l-14 -86h-629l-102 -576h702l-14 -86h-934l16 86h125l103 576h-107l15 86h106l74 415q31 170 155.5 271.5t302.5 101.5
z" />
    <glyph glyph-name="currency" unicode="&#xa4;" horiz-adv-x="1222" 
d="M1016 983q59 -89 59 -209q0 -99 -40.5 -191.5t-112.5 -164.5l90 -109l-72 -63l-92 110q-138 -98 -299 -98q-160 0 -268 100l-131 -112l-56 61l135 113q-61 92 -61 213q0 100 42 193t116 165l-93 109l74 61l90 -108q140 96 299 96t269 -102l131 114l53 -63zM254 637
q0 -129 85 -215t218 -86q110 0 210.5 61t161 162.5t60.5 212.5q0 128 -85 213.5t-216 85.5q-109 0 -210 -61t-162.5 -162t-61.5 -211z" />
    <glyph glyph-name="yen" unicode="&#xa5;" horiz-adv-x="1372" 
d="M1456 1516l-686 -834h334l-14 -74h-363l-25 -131h365l-14 -76h-363l-72 -401h-106l72 401h-361l15 76h360l25 131h-363l14 74h330l-391 834h117l364 -781l639 781h123z" />
    <glyph glyph-name="brokenbar" unicode="&#xa6;" horiz-adv-x="509" 
d="M227 778l146 819h104l-145 -819h-105zM10 -451l146 820h104l-145 -820h-105z" />
    <glyph glyph-name="section" unicode="&#xa7;" horiz-adv-x="1173" 
d="M752 1618q264 0 393 -176l-62 -70q-116 158 -338 158q-173 0 -291 -103t-118 -256q0 -51 18 -90t55 -67.5t73.5 -46.5t92.5 -39l97 -33q59 -21 102.5 -40t95 -51.5t84.5 -68.5t55.5 -89t22.5 -116q0 -100 -44 -189t-122 -153q72 -78 72 -194q0 -137 -76 -244t-202.5 -164
t-278.5 -57q-136 0 -244.5 44t-165.5 130l56 72q115 -158 354 -158q188 0 317 101.5t129 258.5q0 106 -80 171.5t-237 121.5l-92 33q-64 22 -112 47t-90 61.5t-64.5 88t-22.5 116.5q0 101 43 193t121 156q-70 77 -70 184q0 137 71 245t191.5 166t266.5 58zM604 807l-92 33
q-83 26 -145 65q-61 -51 -95 -121t-34 -147q0 -51 18.5 -90.5t55 -68.5t75 -48t94.5 -39l97 -35q139 -47 219 -104q61 52 95 121t34 141q0 55 -23 100t-69 79.5t-99.5 60.5t-130.5 53z" />
    <glyph glyph-name="dieresis" unicode="&#xa8;" horiz-adv-x="1228" 
d="M377 1382q-29 0 -47.5 20t-18.5 48q0 35 25 58.5t57 23.5q29 0 47.5 -19.5t18.5 -48.5q0 -35 -25 -58.5t-57 -23.5zM762 1382q-30 0 -49 20t-19 48q0 35 25.5 58.5t56.5 23.5q30 0 49 -19t19 -49q0 -35 -25.5 -58.5t-56.5 -23.5z" />
    <glyph glyph-name="copyright" unicode="&#xa9;" horiz-adv-x="1742" 
d="M760 -20q-296 0 -465.5 164.5t-169.5 445.5q0 156 42.5 300t123 260.5t189.5 203.5t249 134.5t295 47.5q296 0 466.5 -165.5t170.5 -446.5q0 -260 -115 -475.5t-322 -342t-464 -126.5zM764 41q178 0 332.5 71t261.5 190.5t168 281t61 338.5q0 255 -151 404t-414 149
q-178 0 -333 -71t-261.5 -190.5t-167.5 -280.5t-61 -339q0 -255 150.5 -404t414.5 -149zM827 324q-163 0 -256.5 92t-93.5 248q0 144 63.5 262t177.5 186t255 68q191 0 295 -140l-60 -47q-82 117 -237 117q-118 0 -213 -61.5t-147 -162t-52 -218.5q0 -128 74.5 -202.5
t204.5 -74.5q90 0 170.5 40t138.5 108l45 -56q-146 -159 -365 -159z" />
    <glyph glyph-name="ordfeminine" unicode="&#xaa;" horiz-adv-x="796" 
d="M537 1536q103 0 163 -55.5t60 -147.5q0 -23 -4 -51l-72 -405h-74l23 141q-45 -72 -119 -113t-152 -41q-86 0 -136 42t-50 114q0 105 85.5 165t209.5 60q100 0 199 -26l10 57q2 12 2 45q0 72 -43 113t-121 41q-115 0 -199 -78l-28 51q102 88 246 88zM383 920
q88 0 170.5 65.5t105.5 173.5l3 10q-86 21 -179 21q-97 0 -163 -45t-66 -121q0 -48 34 -76t95 -28z" />
    <glyph glyph-name="guillemotleft" unicode="&#xab;" horiz-adv-x="1110" 
d="M360 98l-278 455l438 455h107l-432 -455l268 -455h-103zM801 98l-277 455l437 455h108l-432 -455l268 -455h-104z" />
    <glyph glyph-name="logicalnot" unicode="&#xac;" horiz-adv-x="1163" 
d="M1044 854l-69 -385h-98l55 301h-752l15 84h849z" />
    <glyph glyph-name="uni00AD" unicode="&#xad;" horiz-adv-x="858" 
d="M135 549l12 76h555l-14 -76h-553z" />
    <glyph glyph-name="registered" unicode="&#xae;" horiz-adv-x="851" 
d="M588 1618q122 0 193 -67.5t71 -182.5q0 -159 -103.5 -267t-259.5 -108q-121 0 -191.5 68t-70.5 184q0 156 103.5 264.5t257.5 108.5zM496 1024q141 0 230 103t89 241q0 100 -62 159.5t-169 59.5q-141 0 -230.5 -103t-89.5 -241q0 -101 62.5 -160t169.5 -59zM678 1384
q0 -40 -24 -67.5t-64 -40.5l67 -139h-49l-61 133h-6h-78l-25 -133h-45l60 333h131q43 0 68.5 -23t25.5 -63zM543 1307q38 0 64 21t26 54q0 25 -16.5 39.5t-45.5 14.5h-79l-23 -129h74z" />
    <glyph glyph-name="macron" unicode="&#xaf;" horiz-adv-x="1228" 
d="M285 1341l14 82h602l-14 -82h-602z" />
    <glyph glyph-name="degree" unicode="&#xb0;" horiz-adv-x="714" 
d="M449 1141q-103 0 -162.5 53.5t-59.5 144.5q0 121 84 200t209 79q101 0 160 -53.5t59 -143.5q0 -122 -82.5 -201t-207.5 -79zM453 1202q92 0 151.5 63t59.5 150q0 65 -40 103t-110 38q-92 0 -151.5 -63t-59.5 -150q0 -65 40 -103t110 -38z" />
    <glyph glyph-name="plusminus" unicode="&#xb1;" horiz-adv-x="1167" 
d="M674 877h358l-14 -84h-361l-63 -369h-98l65 369h-360l16 84h358l66 368h96zM96 186l15 86h815l-15 -86h-815z" />
    <glyph glyph-name="uni00B2" unicode="&#xb2;" horiz-adv-x="704" 
d="M98 811l11 51l331 299q4 4 32 29.5t35.5 33t33 32t35 36t30.5 35.5t29.5 38.5t23 38t20 42t10.5 40.5t5 44q0 64 -42 99.5t-117 35.5q-89 0 -152 -51.5t-76 -136.5l-82 12q22 111 107.5 177.5t206.5 66.5q109 0 173 -52.5t64 -142.5q0 -49 -19.5 -100.5t-44.5 -91
t-71.5 -88.5t-77.5 -77.5t-84 -74.5l-260 -229l457 2l-12 -68h-566z" />
    <glyph glyph-name="uni00B3" unicode="&#xb3;" horiz-adv-x="706" 
d="M797 1720l-11 -49l-380 -344q18 2 55 2q118 0 185 -58t67 -157q0 -139 -104 -227t-257 -88q-87 0 -151 27.5t-95 78.5l39 56q56 -95 209 -95q117 0 197 68.5t80 173.5q0 74 -54 117t-147 43q-72 0 -149 -31l-17 41l408 375h-402l13 67h514z" />
    <glyph glyph-name="acute" unicode="&#xb4;" horiz-adv-x="1228" 
d="M399 1270l314 297h131l-352 -297h-93z" />
    <glyph glyph-name="paragraph" unicode="&#xb6;" horiz-adv-x="1116" 
d="M1038 1516l-348 -1967h-86l334 1887h-236l-333 -1887h-86l231 1313h-139q-103 0 -160 65t-57 179q0 170 106 290t266 120h508z" />
    <glyph glyph-name="periodcentered" unicode="&#xb7;" horiz-adv-x="460" 
d="M213 504q-33 0 -54.5 22.5t-21.5 55.5q0 38 27 64t65 26q33 0 54.5 -22.5t21.5 -55.5q0 -37 -27.5 -63.5t-64.5 -26.5z" />
    <glyph glyph-name="cedilla" unicode="&#xb8;" horiz-adv-x="1228" 
d="M133 -141q88 0 139.5 -38t51.5 -102q0 -88 -76.5 -139t-188.5 -51q-117 0 -184 61l35 50q55 -52 145 -52q78 0 133.5 35.5t55.5 91.5q0 41 -37.5 64.5t-100.5 23.5q-56 0 -108 -18l-14 35l145 180h74l-121 -145q32 4 51 4z" />
    <glyph glyph-name="uni00B9" unicode="&#xb9;" horiz-adv-x="415" 
d="M229 811l148 842h-170l12 67h248l-160 -909h-78z" />
    <glyph glyph-name="ordmasculine" unicode="&#xba;" horiz-adv-x="870" 
d="M477 864q-130 0 -205 72.5t-75 196.5q0 170 111 286.5t278 116.5q128 0 203 -73t75 -195q0 -170 -111 -287t-276 -117zM483 928q130 0 215.5 100t85.5 236q0 95 -54 150.5t-150 55.5q-131 0 -218.5 -99t-87.5 -234q0 -97 55.5 -153t153.5 -56z" />
    <glyph glyph-name="guillemotright" unicode="&#xbb;" horiz-adv-x="1110" 
d="M279 1008l276 -455l-436 -455h-109l432 455l-268 455h105zM719 1008l278 -455l-438 -455h-106l432 455l-269 455h103z" />
    <glyph glyph-name="onequarter" unicode="&#xbc;" horiz-adv-x="1495" 
d="M76 -20l-58 40l1156 1516l59 -41zM193 606l147 842h-170l12 68h248l-160 -910h-77zM1114 0l37 201h-457l11 59l581 649h68l-113 -641h139l-12 -67h-139l-35 -201h-80zM793 264h370l90 512z" />
    <glyph glyph-name="onehalf" unicode="&#xbd;" horiz-adv-x="1503" 
d="M76 -20l-58 40l1156 1516l59 -41zM193 606l147 842h-170l12 68h248l-160 -910h-77zM754 0l10 51l332 299q4 4 32 29.5t35.5 33t33 32t35 36t30.5 35.5t29.5 38.5t23 38t20 42t10.5 40.5t5 44q0 64 -42.5 99.5t-117.5 35.5q-89 0 -151 -51.5t-76 -136.5l-82 12
q22 111 107 177.5t206 66.5q109 0 173.5 -52.5t64.5 -142.5q0 -49 -19.5 -100.5t-44.5 -91t-71.5 -88.5t-77.5 -77.5t-84 -74.5l-261 -229l457 2l-12 -68h-565z" />
    <glyph glyph-name="threequarters" unicode="&#xbe;" horiz-adv-x="1785" 
d="M1464 1536l60 -41l-1157 -1515l-58 40zM676 909q0 -139 -104 -227t-257 -88q-86 0 -150 27.5t-95 78.5l39 56q56 -94 208 -94q117 0 197 68t80 173q0 74 -54 117t-147 43q-71 0 -149 -31l-17 41l408 375h-402l13 68h514l-10 -50l-381 -344q18 2 55 2q118 0 185 -58
t67 -157zM1532 268h139l-12 -67h-139l-35 -201h-80l37 201h-457l10 59l582 649h68zM1454 264l90 512l-461 -512h371z" />
    <glyph glyph-name="questiondown" unicode="&#xbf;" horiz-adv-x="1032" 
d="M600 946q-29 0 -48.5 19.5t-19.5 50.5q0 34 24 57t58 23q29 0 48.5 -19.5t19.5 -50.5q0 -34 -24 -57t-58 -23zM336 -471q-182 0 -287.5 86t-105.5 231q0 91 31.5 163.5t79 121t128.5 107.5q38 28 58.5 44t56 47.5t57 58.5t50.5 70t48 87.5t37.5 106.5t30.5 132l88 -8
q-20 -110 -51.5 -199.5t-62.5 -146t-78 -108.5t-78.5 -78t-83.5 -64q-52 -39 -83.5 -67.5t-61 -67.5t-43 -85t-13.5 -103q0 -111 77 -175.5t214 -64.5q148 0 257.5 85t137.5 220l99 -12q-37 -173 -174 -277t-328 -104z" />
    <glyph glyph-name="Agrave" unicode="&#xc0;" horiz-adv-x="1458" 
d="M969 1710h-88l-246 297h125zM1225 0l-113 432h-838l-266 -432h-114l940 1516h100l403 -1516h-112zM328 520h762l-226 871z" />
    <glyph glyph-name="Aacute" unicode="&#xc1;" horiz-adv-x="1458" 
d="M1298 2007l-352 -297h-92l313 297h131zM1225 0l-113 432h-838l-266 -432h-114l940 1516h100l403 -1516h-112zM328 520h762l-226 871z" />
    <glyph glyph-name="Acircumflex" unicode="&#xc2;" horiz-adv-x="1458" 
d="M963 1950l-265 -240h-98l318 297h108l209 -297h-96zM1225 0l-113 432h-838l-266 -432h-114l940 1516h100l403 -1516h-112zM328 520h762l-226 871z" />
    <glyph glyph-name="Atilde" unicode="&#xc3;" horiz-adv-x="1458" 
d="M788 1890q-54 0 -95.5 -37.5t-53.5 -101.5h-68q15 97 80 159t146 62q39 0 73.5 -16t60.5 -39t50.5 -46.5t54.5 -39.5t62 -16q54 0 95.5 37t51.5 100h70q-17 -98 -80.5 -159.5t-144.5 -61.5q-47 0 -89.5 25t-70 54.5t-65.5 54.5t-77 25zM1225 0l-113 432h-838l-266 -432
h-114l940 1516h100l403 -1516h-112zM328 520h762l-226 871z" />
    <glyph glyph-name="Adieresis" unicode="&#xc4;" horiz-adv-x="1458" 
d="M752 1823q-29 0 -47.5 19.5t-18.5 47.5q0 35 25 58.5t57 23.5q29 0 47.5 -19t18.5 -48q0 -35 -25 -58.5t-57 -23.5zM1137 1823q-30 0 -49 19.5t-19 47.5q0 35 25.5 58.5t56.5 23.5t49.5 -19t18.5 -48q0 -35 -25.5 -58.5t-56.5 -23.5zM1225 0l-113 432h-838l-266 -432
h-114l940 1516h100l403 -1516h-112zM328 520h762l-226 871z" />
    <glyph glyph-name="Aring" unicode="&#xc5;" horiz-adv-x="1458" 
d="M909 1636q-86 0 -136 47t-50 127q0 110 71.5 181t180.5 71q86 0 136 -47t50 -127q0 -107 -72.5 -179.5t-179.5 -72.5zM971 2007q-81 0 -132 -58.5t-51 -138.5q0 -54 33.5 -85t91.5 -31q79 0 131 58.5t52 133.5q0 56 -33.5 88.5t-91.5 32.5zM1225 0l-113 432h-838
l-266 -432h-114l940 1516h100l403 -1516h-112zM328 520h762l-226 871z" />
    <glyph glyph-name="AE" unicode="&#xc6;" horiz-adv-x="2174" 
d="M2171 1427h-1034l65 -608h815l-16 -90h-789l70 -641h674l-19 -88h-757l-45 432h-813l-324 -432h-121l1151 1516h1159zM387 520h737l-90 864z" />
    <glyph glyph-name="Ccedilla" unicode="&#xc7;" horiz-adv-x="1380" 
d="M1010 1536q242 0 407 -139l-16 -97q-145 148 -400 148q-166 0 -311.5 -70t-245.5 -187t-157.5 -272t-57.5 -323q0 -244 140 -386t385 -142q260 0 467 157l-21 -110q-192 -129 -432 -135l-104 -125q32 4 51 4q88 0 139 -38t51 -102q0 -88 -76 -139t-188 -51
q-117 0 -184 61l35 50q55 -52 145 -52q78 0 133 35.5t55 91.5q0 41 -37 64.5t-100 23.5q-56 0 -108 -18l-15 35l129 162q-268 13 -421.5 176.5t-153.5 431.5q0 193 67 367t183 301.5t283 202.5t358 75z" />
    <glyph glyph-name="Egrave" unicode="&#xc8;" horiz-adv-x="1255" 
d="M905 1710h-88l-246 297h125zM1253 1427h-790l-107 -608h744l-17 -90h-743l-113 -641h811l-16 -88h-918l269 1516h897z" />
    <glyph glyph-name="Eacute" unicode="&#xc9;" horiz-adv-x="1255" 
d="M1235 2007l-352 -297h-92l313 297h131zM1253 1427h-790l-107 -608h744l-17 -90h-743l-113 -641h811l-16 -88h-918l269 1516h897z" />
    <glyph glyph-name="Ecircumflex" unicode="&#xca;" horiz-adv-x="1255" 
d="M899 1950l-264 -240h-98l317 297h109l208 -297h-96zM1253 1427h-790l-107 -608h744l-17 -90h-743l-113 -641h811l-16 -88h-918l269 1516h897z" />
    <glyph glyph-name="Edieresis" unicode="&#xcb;" horiz-adv-x="1255" 
d="M688 1823q-29 0 -47 19.5t-18 47.5q0 35 25 58.5t57 23.5q29 0 47 -19t18 -48q0 -35 -25 -58.5t-57 -23.5zM1073 1823q-30 0 -48.5 19.5t-18.5 47.5q0 35 25 58.5t56 23.5t49.5 -19t18.5 -48q0 -35 -25.5 -58.5t-56.5 -23.5zM1253 1427h-790l-107 -608h744l-17 -90h-743
l-113 -641h811l-16 -88h-918l269 1516h897z" />
    <glyph glyph-name="Igrave" unicode="&#xcc;" horiz-adv-x="540" 
d="M422 1710l-246 297h125l209 -297h-88zM104 0l269 1516h106l-268 -1516h-107z" />
    <glyph glyph-name="Iacute" unicode="&#xcd;" horiz-adv-x="540" 
d="M395 1710l314 297h131l-353 -297h-92zM104 0l269 1516h106l-268 -1516h-107z" />
    <glyph glyph-name="Icircumflex" unicode="&#xce;" horiz-adv-x="540" 
d="M776 1710h-96l-176 240l-264 -240h-99l318 297h108zM104 0l269 1516h106l-268 -1516h-107z" />
    <glyph glyph-name="Idieresis" unicode="&#xcf;" horiz-adv-x="540" 
d="M293 1823q-29 0 -47.5 19.5t-18.5 47.5q0 35 25 58.5t57 23.5q29 0 47.5 -19t18.5 -48q0 -35 -25 -58.5t-57 -23.5zM678 1823q-30 0 -49 19.5t-19 47.5q0 35 25.5 58.5t56.5 23.5q30 0 49 -19t19 -48q0 -35 -25.5 -58.5t-56.5 -23.5zM104 0l269 1516h106l-268 -1516h-107
z" />
    <glyph glyph-name="Eth" unicode="&#xd0;" horiz-adv-x="1544" 
d="M852 1516q285 0 449.5 -162.5t164.5 -438.5q0 -190 -66 -359t-181 -291.5t-278.5 -193.5t-350.5 -71h-486l129 725h-180l13 76h180l127 715h479zM584 88q167 0 312.5 66t245.5 177.5t157 261t57 314.5q0 240 -142 380t-393 140h-358l-111 -626h439l-13 -76h-438
l-113 -637h357z" />
    <glyph glyph-name="Ntilde" unicode="&#xd1;" horiz-adv-x="1697" 
d="M1210 1731q-38 0 -72.5 16.5t-60.5 39.5t-51 46.5t-55 40t-62 16.5q-54 0 -95.5 -37.5t-53.5 -101.5h-68q15 97 80 159t146 62q39 0 73.5 -16t60.5 -39t50.5 -46.5t54.5 -39.5t62 -16q54 0 95.5 37t51.5 100h70q-17 -98 -81 -159.5t-145 -61.5zM104 0l269 1516h69
l854 -1330l234 1330h106l-268 -1516h-70l-854 1329l-233 -1329h-107z" />
    <glyph glyph-name="Ograve" unicode="&#xd2;" horiz-adv-x="1712" 
d="M1008 1710l-246 297h125l209 -297h-88zM745 -20q-291 0 -458.5 164.5t-167.5 445.5q0 193 67 367t183 301.5t283 202.5t358 75q289 0 456.5 -165t167.5 -447q0 -192 -67 -365.5t-183.5 -301t-283 -202.5t-355.5 -75zM754 68q133 0 253.5 45t213.5 126t162 187.5t105 234
t36 261.5q0 243 -140 384.5t-383 141.5q-166 0 -312 -70t-246.5 -187t-158 -272t-57.5 -323q0 -244 141 -386t386 -142z" />
    <glyph glyph-name="Oacute" unicode="&#xd3;" horiz-adv-x="1712" 
d="M981 1710l313 297h131l-352 -297h-92zM745 -20q-291 0 -458.5 164.5t-167.5 445.5q0 193 67 367t183 301.5t283 202.5t358 75q289 0 456.5 -165t167.5 -447q0 -192 -67 -365.5t-183.5 -301t-283 -202.5t-355.5 -75zM754 68q133 0 253.5 45t213.5 126t162 187.5t105 234
t36 261.5q0 243 -140 384.5t-383 141.5q-166 0 -312 -70t-246.5 -187t-158 -272t-57.5 -323q0 -244 141 -386t386 -142z" />
    <glyph glyph-name="Ocircumflex" unicode="&#xd4;" horiz-adv-x="1712" 
d="M1090 1950l-265 -240h-98l317 297h109l209 -297h-96zM1010 1536q289 0 456.5 -165t167.5 -447q0 -192 -67 -365.5t-183.5 -301t-283 -202.5t-355.5 -75q-291 0 -458.5 164.5t-167.5 445.5q0 193 67 367t183 301.5t283 202.5t358 75zM754 68q133 0 253.5 45t213.5 126
t162 187.5t105 234t36 261.5q0 243 -140 384.5t-383 141.5q-166 0 -312 -70t-246.5 -187t-158 -272t-57.5 -323q0 -244 141 -386t386 -142z" />
    <glyph glyph-name="Otilde" unicode="&#xd5;" horiz-adv-x="1712" 
d="M1217 1731q-47 0 -89.5 25t-70 54.5t-65.5 54.5t-77 25q-54 0 -95.5 -37.5t-53.5 -101.5h-68q15 97 80 159t146 62q39 0 73.5 -16t60.5 -39t50.5 -46.5t54.5 -39.5t62 -16q54 0 95.5 37t51.5 100h70q-17 -98 -80.5 -159.5t-144.5 -61.5zM745 -20q-291 0 -458.5 164.5
t-167.5 445.5q0 193 67 367t183 301.5t283 202.5t358 75q289 0 456.5 -165t167.5 -447q0 -192 -67 -365.5t-183.5 -301t-283 -202.5t-355.5 -75zM754 68q133 0 253.5 45t213.5 126t162 187.5t105 234t36 261.5q0 243 -140 384.5t-383 141.5q-166 0 -312 -70t-246.5 -187
t-158 -272t-57.5 -323q0 -244 141 -386t386 -142z" />
    <glyph glyph-name="Odieresis" unicode="&#xd6;" horiz-adv-x="1712" 
d="M879 1823q-29 0 -47.5 19.5t-18.5 47.5q0 35 25 58.5t57 23.5q29 0 47.5 -19t18.5 -48q0 -35 -25 -58.5t-57 -23.5zM1264 1823q-30 0 -49 19.5t-19 47.5q0 35 25.5 58.5t56.5 23.5q30 0 49 -19t19 -48q0 -35 -25.5 -58.5t-56.5 -23.5zM745 -20q-291 0 -458.5 164.5
t-167.5 445.5q0 193 67 367t183 301.5t283 202.5t358 75q289 0 456.5 -165t167.5 -447q0 -192 -67 -365.5t-183.5 -301t-283 -202.5t-355.5 -75zM754 68q133 0 253.5 45t213.5 126t162 187.5t105 234t36 261.5q0 243 -140 384.5t-383 141.5q-166 0 -312 -70t-246.5 -187
t-158 -272t-57.5 -323q0 -244 141 -386t386 -142z" />
    <glyph glyph-name="multiply" unicode="&#xd7;" horiz-adv-x="1007" 
d="M932 1010l-357 -305l248 -302l-69 -61l-250 303l-354 -303l-54 61l357 304l-250 303l71 61l250 -303l355 303z" />
    <glyph glyph-name="Oslash" unicode="&#xd8;" horiz-adv-x="1712" 
d="M1745 1468l-207 -184q96 -149 96 -360q0 -192 -67 -365.5t-183.5 -301t-283 -202.5t-355.5 -75q-301 0 -471 176l-196 -176l-62 67l201 180q-98 152 -98 363q0 193 67 367t183 301.5t283 202.5t358 75q300 0 471 -180l200 180zM227 596q0 -172 72 -295l1104 985
q-140 162 -402 162q-166 0 -312 -70t-246.5 -187t-158 -272t-57.5 -323zM1524 922q0 161 -68 288l-1102 -985q141 -157 400 -157q133 0 253.5 45t213.5 126t162 187.5t105 234t36 261.5z" />
    <glyph glyph-name="Ugrave" unicode="&#xd9;" horiz-adv-x="1609" 
d="M956 1710l-245 297h125l208 -297h-88zM694 -20q-243 0 -384.5 120.5t-141.5 323.5q0 46 10 108l174 984h105l-174 -984q-9 -49 -9 -94q0 -171 114.5 -270.5t313.5 -99.5q225 0 387 129.5t199 337.5l174 981h105l-176 -992q-43 -247 -234 -395.5t-463 -148.5z" />
    <glyph glyph-name="Uacute" unicode="&#xda;" horiz-adv-x="1609" 
d="M930 1710l313 297h131l-352 -297h-92zM694 -20q-243 0 -384.5 120.5t-141.5 323.5q0 46 10 108l174 984h105l-174 -984q-9 -49 -9 -94q0 -171 114.5 -270.5t313.5 -99.5q225 0 387 129.5t199 337.5l174 981h105l-176 -992q-43 -247 -234 -395.5t-463 -148.5z" />
    <glyph glyph-name="Ucircumflex" unicode="&#xdb;" horiz-adv-x="1609" 
d="M1038 1950l-264 -240h-98l317 297h109l209 -297h-97zM1462 1516h105l-176 -992q-43 -247 -234 -395.5t-463 -148.5q-243 0 -384.5 120.5t-141.5 323.5q0 46 10 108l174 984h105l-174 -984q-9 -49 -9 -94q0 -171 114.5 -270.5t313.5 -99.5q225 0 387 129.5t199 337.5z" />
    <glyph glyph-name="Udieresis" unicode="&#xdc;" horiz-adv-x="1609" 
d="M827 1823q-29 0 -47 19.5t-18 47.5q0 35 25 58.5t57 23.5q29 0 47 -19t18 -48q0 -35 -25 -58.5t-57 -23.5zM1212 1823q-30 0 -48.5 19.5t-18.5 47.5q0 35 25.5 58.5t56.5 23.5q30 0 48.5 -18.5t18.5 -48.5q0 -35 -25.5 -58.5t-56.5 -23.5zM694 -20q-243 0 -384.5 120.5
t-141.5 323.5q0 46 10 108l174 984h105l-174 -984q-9 -49 -9 -94q0 -171 114.5 -270.5t313.5 -99.5q225 0 387 129.5t199 337.5l174 981h105l-176 -992q-43 -247 -234 -395.5t-463 -148.5z" />
    <glyph glyph-name="Yacute" unicode="&#xdd;" horiz-adv-x="1310" 
d="M780 1710l314 297h131l-353 -297h-92zM487 0l115 635l-414 881h117l363 -781l641 781h123l-725 -881l-113 -635h-107z" />
    <glyph glyph-name="Thorn" unicode="&#xde;" horiz-adv-x="1306" 
d="M846 1223q191 0 302.5 -99.5t111.5 -267.5q0 -152 -74 -276.5t-203.5 -195.5t-286.5 -71h-430l-55 -313h-107l269 1516h106l-51 -293h418zM684 403q199 0 332 128.5t133 316.5q0 132 -88.5 209.5t-241.5 77.5h-407l-129 -732h401z" />
    <glyph glyph-name="germandbls" unicode="&#xdf;" horiz-adv-x="1222" 
d="M518 -20q-82 0 -156 24l15 84q62 -22 137 -22q205 0 342 128.5t137 319.5q0 137 -96 218t-262 81l16 82q170 0 286 111.5t116 277.5q0 114 -75.5 181t-207.5 67q-151 0 -258.5 -88.5t-132.5 -233.5l-215 -1210h-98l217 1231q31 176 165.5 281.5t327.5 105.5
q176 0 278.5 -88t102.5 -236q0 -156 -94 -275.5t-250 -162.5q132 -33 206.5 -124t74.5 -224q0 -151 -76.5 -272t-208 -188.5t-291.5 -67.5z" />
    <glyph glyph-name="agrave" unicode="&#xe0;" horiz-adv-x="1126" 
d="M713 1270h-88l-246 297h125zM221 1075h805l-190 -1075h-97l41 238l4 18q-77 -130 -204.5 -203t-268.5 -73q-139 0 -220 68.5t-81 184.5q0 115 68 201.5t177.5 129t242.5 42.5q167 0 340 -45l75 432h-704zM342 55q72 0 148 30t144.5 84t120.5 139t70 184q-148 40 -319 40
q-165 0 -279 -80t-114 -210q0 -87 60.5 -137t168.5 -50z" />
    <glyph glyph-name="aacute" unicode="&#xe1;" horiz-adv-x="1126" 
d="M1042 1567l-352 -297h-92l313 297h131zM209 993l12 82h805l-190 -1075h-97l41 238l4 18q-77 -130 -204.5 -203t-268.5 -73q-139 0 -220 68.5t-81 184.5q0 115 68 201.5t177.5 129t242.5 42.5q167 0 340 -45l75 432h-704zM342 55q72 0 148 30t144.5 84t120.5 139t70 184
q-148 40 -319 40q-165 0 -279 -80t-114 -210q0 -87 60.5 -137t168.5 -50z" />
    <glyph glyph-name="acircumflex" unicode="&#xe2;" horiz-adv-x="1126" 
d="M707 1509l-265 -239h-98l318 297h108l209 -297h-96zM221 1075h805l-190 -1075h-97l41 238l4 18q-77 -130 -204.5 -203t-268.5 -73q-139 0 -220 68.5t-81 184.5q0 115 68 201.5t177.5 129t242.5 42.5q167 0 340 -45l75 432h-704zM342 55q72 0 148 30t144.5 84t120.5 139
t70 184q-148 40 -319 40q-165 0 -279 -80t-114 -210q0 -87 60.5 -137t168.5 -50z" />
    <glyph glyph-name="atilde" unicode="&#xe3;" horiz-adv-x="1126" 
d="M532 1450q-54 0 -95.5 -37.5t-53.5 -101.5h-68q15 97 80 159t146 62q39 0 73.5 -16.5t60.5 -39.5t50.5 -46t54.5 -39.5t62 -16.5q54 0 95.5 37t51.5 100h70q-17 -98 -80.5 -159.5t-144.5 -61.5q-38 0 -72.5 16.5t-60.5 40t-51.5 47t-55.5 40t-62 16.5zM209 993l12 82h805
l-190 -1075h-97l41 238l4 18q-77 -130 -204.5 -203t-268.5 -73q-139 0 -220 68.5t-81 184.5q0 115 68 201.5t177.5 129t242.5 42.5q167 0 340 -45l75 432h-704zM342 55q72 0 148 30t144.5 84t120.5 139t70 184q-148 40 -319 40q-165 0 -279 -80t-114 -210q0 -87 60.5 -137
t168.5 -50z" />
    <glyph glyph-name="adieresis" unicode="&#xe4;" horiz-adv-x="1126" 
d="M496 1382q-29 0 -47.5 20t-18.5 48q0 35 25 58.5t57 23.5q29 0 47.5 -19.5t18.5 -48.5q0 -35 -25 -58.5t-57 -23.5zM881 1382q-30 0 -49 20t-19 48q0 35 25.5 58.5t56.5 23.5q30 0 49 -19t19 -49q0 -35 -25.5 -58.5t-56.5 -23.5zM221 1075h805l-190 -1075h-97l41 238
l4 18q-77 -130 -204.5 -203t-268.5 -73q-139 0 -220 68.5t-81 184.5q0 115 68 201.5t177.5 129t242.5 42.5q167 0 340 -45l75 432h-704zM342 55q72 0 148 30t144.5 84t120.5 139t70 184q-148 40 -319 40q-165 0 -279 -80t-114 -210q0 -87 60.5 -137t168.5 -50z" />
    <glyph glyph-name="aring" unicode="&#xe5;" horiz-adv-x="1126" 
d="M653 1196q-86 0 -136 47t-50 127q0 110 71.5 181t180.5 71q86 0 136 -47t50 -127q0 -107 -72.5 -179.5t-179.5 -72.5zM715 1567q-81 0 -132 -58.5t-51 -138.5q0 -54 33.5 -85.5t91.5 -31.5q79 0 131 59t52 134q0 56 -33.5 88.5t-91.5 32.5zM221 1075h805l-190 -1075h-97
l41 238l4 18q-77 -130 -204.5 -203t-268.5 -73q-139 0 -220 68.5t-81 184.5q0 115 68 201.5t177.5 129t242.5 42.5q167 0 340 -45l75 432h-704zM342 55q72 0 148 30t144.5 84t120.5 139t70 184q-148 40 -319 40q-165 0 -279 -80t-114 -210q0 -87 60.5 -137t168.5 -50z" />
    <glyph glyph-name="ae" unicode="&#xe6;" horiz-adv-x="1931" 
d="M1815 500h-887q-6 -47 -6 -92q0 -161 84 -255t235 -94q116 0 225 56t195 153l68 -53q-98 -117 -223.5 -176t-264.5 -59q-163 0 -267 86.5t-132 238.5q-74 -151 -218 -238t-307 -87q-141 0 -223 68.5t-82 184.5q0 115 68.5 201.5t178 129t241.5 42.5q179 0 340 -45l18 103
q6 44 6 79q0 127 -75 199t-211 72q-191 0 -336 -135l-41 67q162 150 397 150q147 0 239 -72t113 -195q81 124 203.5 195.5t271.5 71.5q191 0 301.5 -115t110.5 -311q0 -34 -7 -89.5t-15 -80.5zM1415 1014q-91 0 -171 -34.5t-139.5 -95t-101.5 -140t-63 -171.5h786q9 53 9 99
q0 160 -84 251t-236 91zM344 55q69 0 142.5 27.5t139.5 77t118 127.5t75 170l6 35q-145 40 -315 40q-166 0 -280.5 -80t-114.5 -210q0 -87 60.5 -137t168.5 -50z" />
    <glyph glyph-name="ccedilla" unicode="&#xe7;" horiz-adv-x="974" 
d="M702 1096q140 0 238 -88l-14 -93q-92 95 -230 95q-113 0 -211.5 -49.5t-164.5 -131t-104 -188t-38 -219.5q0 -164 92.5 -260t255.5 -96q147 0 269 98l-17 -103q-116 -78 -252 -81l-104 -125q32 4 51 4q88 0 139.5 -38t51.5 -102q0 -88 -76.5 -139t-188.5 -51
q-117 0 -184 61l35 50q55 -52 145 -52q78 0 133.5 35.5t55.5 91.5q0 41 -37.5 64.5t-100.5 23.5q-55 0 -108 -18l-14 35l131 162q-178 19 -278.5 135t-100.5 301q0 183 79 337.5t223.5 247.5t323.5 93z" />
    <glyph glyph-name="egrave" unicode="&#xe8;" horiz-adv-x="1185" 
d="M762 1270h-88l-246 297h125zM1069 500h-887q-6 -46 -6 -92q0 -161 85 -255t235 -94q116 0 224 56.5t195 152.5l70 -53q-100 -117 -226.5 -176t-266.5 -59q-194 0 -306 118t-112 318q0 137 44.5 261t122.5 216.5t191.5 147.5t243.5 55q194 0 305 -115t111 -311
q0 -95 -23 -170zM672 1014q-180 0 -307 -125t-170 -316h788q8 47 8 99q0 160 -85 251t-234 91z" />
    <glyph glyph-name="eacute" unicode="&#xe9;" horiz-adv-x="1185" 
d="M1092 1567l-353 -297h-92l314 297h131zM676 1096q194 0 305 -115t111 -311q0 -95 -23 -170h-887q-6 -46 -6 -92q0 -161 85 -255t235 -94q116 0 224 56.5t195 152.5l70 -53q-100 -117 -226.5 -176t-266.5 -59q-194 0 -306 118t-112 318q0 137 44.5 261t122.5 216.5
t191.5 147.5t243.5 55zM983 573q8 47 8 99q0 160 -85 251t-234 91q-180 0 -307 -125t-170 -316h788z" />
    <glyph glyph-name="ecircumflex" unicode="&#xea;" horiz-adv-x="1185" 
d="M756 1509l-264 -239h-99l318 297h108l209 -297h-96zM1069 500h-887q-6 -46 -6 -92q0 -161 85 -255t235 -94q116 0 224 56.5t195 152.5l70 -53q-100 -117 -226.5 -176t-266.5 -59q-194 0 -306 118t-112 318q0 137 44.5 261t122.5 216.5t191.5 147.5t243.5 55
q194 0 305 -115t111 -311q0 -95 -23 -170zM672 1014q-180 0 -307 -125t-170 -316h788q8 47 8 99q0 160 -85 251t-234 91z" />
    <glyph glyph-name="edieresis" unicode="&#xeb;" horiz-adv-x="1185" 
d="M545 1382q-29 0 -47.5 20t-18.5 48q0 35 25 58.5t57 23.5q29 0 47.5 -19.5t18.5 -48.5q0 -35 -25 -58.5t-57 -23.5zM930 1382q-30 0 -49 20t-19 48q0 35 25.5 58.5t56.5 23.5q30 0 49 -19t19 -49q0 -35 -25.5 -58.5t-56.5 -23.5zM1069 500h-887q-6 -46 -6 -92
q0 -161 85 -255t235 -94q116 0 224 56.5t195 152.5l70 -53q-100 -117 -226.5 -176t-266.5 -59q-194 0 -306 118t-112 318q0 137 44.5 261t122.5 216.5t191.5 147.5t243.5 55q194 0 305 -115t111 -311q0 -95 -23 -170zM672 1014q-180 0 -307 -125t-170 -316h788q8 47 8 99
q0 160 -85 251t-234 91z" />
    <glyph glyph-name="igrave" unicode="&#xec;" horiz-adv-x="458" 
d="M303 1270l-246 297h125l209 -297h-88zM68 0l190 1075h98l-190 -1075h-98z" />
    <glyph glyph-name="iacute" unicode="&#xed;" horiz-adv-x="458" 
d="M276 1270l314 297h131l-352 -297h-93zM68 0l190 1075h98l-190 -1075h-98z" />
    <glyph glyph-name="icircumflex" unicode="&#xee;" horiz-adv-x="458" 
d="M657 1270h-96l-176 239l-264 -239h-98l317 297h109zM68 0l190 1075h98l-190 -1075h-98z" />
    <glyph glyph-name="idieresis" unicode="&#xef;" horiz-adv-x="458" 
d="M174 1382q-29 0 -47 20t-18 48q0 35 24.5 58.5t56.5 23.5q29 0 47.5 -19.5t18.5 -48.5q0 -35 -25 -58.5t-57 -23.5zM559 1382q-30 0 -48.5 19.5t-18.5 48.5q0 35 25 58.5t56 23.5q30 0 49 -19t19 -49q0 -35 -25.5 -58.5t-56.5 -23.5zM68 0l190 1075h98l-190 -1075h-98z
" />
    <glyph glyph-name="eth" unicode="&#xf0;" horiz-adv-x="1286" 
d="M834 1450q348 -314 348 -713q0 -206 -79.5 -378t-230 -275.5t-342.5 -103.5q-211 0 -332.5 120t-121.5 322q0 181 79 334t221.5 243.5t317.5 90.5q130 0 223 -48t144 -135q-67 274 -311 492l-205 -123l-56 43l207 125q-69 56 -174 121l86 53q94 -58 174 -123l203 123
l53 -45zM541 66q195 0 337 131.5t179 345.5q0 4 4 16q6 37 6 88q0 168 -97 265.5t-265 97.5q-151 0 -273 -81t-188 -214t-66 -287q0 -167 97 -264.5t266 -97.5z" />
    <glyph glyph-name="ntilde" unicode="&#xf1;" horiz-adv-x="1286" 
d="M633 1450q-54 0 -96 -37.5t-54 -101.5h-67q15 97 79.5 159t145.5 62q39 0 73.5 -16.5t60.5 -39.5t50.5 -46t54.5 -39.5t62 -16.5q54 0 96 37t52 100h69q-17 -98 -80.5 -159.5t-144.5 -61.5q-38 0 -72.5 16.5t-60.5 40t-51 47t-55 40t-62 16.5zM752 1096q179 0 283 -92.5
t104 -247.5q0 -12 -9 -82l-118 -674h-99l117 657q6 41 6 72q0 131 -84 206t-233 75q-170 0 -291 -98t-149 -257l-117 -655h-99l191 1075h96l-35 -201q143 222 437 222z" />
    <glyph glyph-name="ograve" unicode="&#xf2;" horiz-adv-x="1280" 
d="M713 1270l-246 297h125l209 -297h-88zM530 -20q-212 0 -334 120t-122 322q0 186 82.5 340t230.5 244t330 90q211 0 331.5 -120.5t120.5 -324.5q0 -184 -82 -337.5t-229 -243.5t-328 -90zM543 66q150 0 271.5 81.5t187 213.5t65.5 286q0 167 -96.5 265t-265.5 98
q-151 0 -273 -81t-188 -214t-66 -287q0 -167 97 -264.5t268 -97.5z" />
    <glyph glyph-name="oacute" unicode="&#xf3;" horiz-adv-x="1280" 
d="M686 1270l313 297h131l-352 -297h-92zM530 -20q-212 0 -334 120t-122 322q0 186 82.5 340t230.5 244t330 90q211 0 331.5 -120.5t120.5 -324.5q0 -184 -82 -337.5t-229 -243.5t-328 -90zM543 66q150 0 271.5 81.5t187 213.5t65.5 286q0 167 -96.5 265t-265.5 98
q-151 0 -273 -81t-188 -214t-66 -287q0 -167 97 -264.5t268 -97.5z" />
    <glyph glyph-name="ocircumflex" unicode="&#xf4;" horiz-adv-x="1280" 
d="M795 1509l-265 -239h-98l318 297h108l209 -297h-96zM717 1096q211 0 331.5 -120.5t120.5 -324.5q0 -184 -82 -337.5t-229 -243.5t-328 -90q-212 0 -334 120t-122 322q0 186 82.5 340t230.5 244t330 90zM543 66q150 0 271.5 81.5t187 213.5t65.5 286q0 167 -96.5 265
t-265.5 98q-151 0 -273 -81t-188 -214t-66 -287q0 -167 97 -264.5t268 -97.5z" />
    <glyph glyph-name="otilde" unicode="&#xf5;" horiz-adv-x="1280" 
d="M922 1290q-38 0 -72.5 16.5t-60.5 40t-51 47t-55 40t-62 16.5q-54 0 -96 -37.5t-54 -101.5h-68q15 97 80 159t146 62q39 0 73.5 -16.5t60.5 -39.5t50.5 -46t54.5 -39.5t62 -16.5q54 0 95.5 37t51.5 100h70q-17 -98 -80.5 -159.5t-144.5 -61.5zM530 -20q-212 0 -334 120
t-122 322q0 186 82.5 340t230.5 244t330 90q211 0 331.5 -120.5t120.5 -324.5q0 -184 -82 -337.5t-229 -243.5t-328 -90zM543 66q150 0 271.5 81.5t187 213.5t65.5 286q0 167 -96.5 265t-265.5 98q-151 0 -273 -81t-188 -214t-66 -287q0 -167 97 -264.5t268 -97.5z" />
    <glyph glyph-name="odieresis" unicode="&#xf6;" horiz-adv-x="1280" 
d="M584 1382q-29 0 -47.5 20t-18.5 48q0 35 25 58.5t57 23.5q29 0 47.5 -19.5t18.5 -48.5q0 -35 -25 -58.5t-57 -23.5zM969 1382q-30 0 -49 20t-19 48q0 35 25.5 58.5t56.5 23.5q30 0 49 -19t19 -49q0 -35 -25.5 -58.5t-56.5 -23.5zM530 -20q-212 0 -334 120t-122 322
q0 186 82.5 340t230.5 244t330 90q211 0 331.5 -120.5t120.5 -324.5q0 -184 -82 -337.5t-229 -243.5t-328 -90zM543 66q150 0 271.5 81.5t187 213.5t65.5 286q0 167 -96.5 265t-265.5 98q-151 0 -273 -81t-188 -214t-66 -287q0 -167 97 -264.5t268 -97.5z" />
    <glyph glyph-name="divide" unicode="&#xf7;" horiz-adv-x="1153" 
d="M631 930q-29 0 -47.5 19.5t-18.5 47.5q0 35 25 58.5t57 23.5q29 0 47.5 -19t18.5 -48q0 -35 -25 -58.5t-57 -23.5zM154 666l14 84h850l-14 -84h-850zM526 336q-29 0 -47 19.5t-18 47.5q0 35 25 58.5t57 23.5q29 0 47 -19t18 -48q0 -35 -25 -58.5t-57 -23.5z" />
    <glyph glyph-name="oslash" unicode="&#xf8;" horiz-adv-x="1280" 
d="M1247 1040l-145 -131q67 -109 67 -258q0 -184 -82 -337.5t-229 -243.5t-328 -90q-216 0 -335 122l-138 -122l-57 55l143 129q-69 107 -69 258q0 186 82.5 340t230.5 244t330 90q211 0 334 -123l139 123zM178 428q0 -113 45 -195l754 672q-97 105 -272 105
q-151 0 -273 -81t-188 -214t-66 -287zM1067 647q0 114 -43 193l-754 -672q94 -102 273 -102q150 0 271.5 81.5t187 213.5t65.5 286z" />
    <glyph glyph-name="ugrave" unicode="&#xf9;" horiz-adv-x="1251" 
d="M698 1270l-245 297h125l208 -297h-88zM516 -20q-187 0 -295 93.5t-108 250.5q0 26 8 84l119 667h98l-117 -657q-8 -54 -8 -76q0 -128 82.5 -202t226.5 -74q164 0 282 98t146 256l117 655h98l-118 -676q-34 -190 -179.5 -304.5t-351.5 -114.5z" />
    <glyph glyph-name="uacute" unicode="&#xfa;" horiz-adv-x="1251" 
d="M672 1270l313 297h131l-352 -297h-92zM516 -20q-187 0 -295 93.5t-108 250.5q0 26 8 84l119 667h98l-117 -657q-8 -54 -8 -76q0 -128 82.5 -202t226.5 -74q164 0 282 98t146 256l117 655h98l-118 -676q-34 -190 -179.5 -304.5t-351.5 -114.5z" />
    <glyph glyph-name="ucircumflex" unicode="&#xfb;" horiz-adv-x="1251" 
d="M780 1509l-264 -239h-98l317 297h109l209 -297h-97zM1067 1075h98l-118 -676q-34 -190 -179.5 -304.5t-351.5 -114.5q-187 0 -295 93.5t-108 250.5q0 26 8 84l119 667h98l-117 -657q-8 -54 -8 -76q0 -128 82.5 -202t226.5 -74q164 0 282 98t146 256z" />
    <glyph glyph-name="udieresis" unicode="&#xfc;" horiz-adv-x="1251" 
d="M569 1382q-29 0 -47 20t-18 48q0 35 25 58.5t57 23.5q29 0 47 -19t18 -49q0 -35 -25 -58.5t-57 -23.5zM954 1382q-30 0 -48.5 19.5t-18.5 48.5q0 35 25.5 58.5t56.5 23.5q30 0 48.5 -19t18.5 -49q0 -35 -25.5 -58.5t-56.5 -23.5zM516 -20q-187 0 -295 93.5t-108 250.5
q0 26 8 84l119 667h98l-117 -657q-8 -54 -8 -76q0 -128 82.5 -202t226.5 -74q164 0 282 98t146 256l117 655h98l-118 -676q-34 -190 -179.5 -304.5t-351.5 -114.5z" />
    <glyph glyph-name="yacute" unicode="&#xfd;" horiz-adv-x="1263" 
d="M1110 1567l-352 -297h-92l313 297h131zM1065 1075h98l-268 -1526h-918l15 84h819l98 560q-138 -213 -422 -213q-173 0 -273.5 91.5t-100.5 243.5q0 26 8 84l119 676h98l-117 -657q-6 -43 -6 -76q0 -128 81.5 -202t225.5 -74q164 0 281.5 96t146.5 254v4z" />
    <glyph glyph-name="thorn" unicode="&#xfe;" horiz-adv-x="1347" 
d="M805 1096q199 0 315.5 -119.5t116.5 -319.5q0 -137 -47 -261.5t-128 -216t-197 -145.5t-247 -54q-172 0 -274.5 78t-134.5 214l-127 -723h-98l362 2048h98l-139 -782q78 132 204.5 206.5t295.5 74.5zM608 66q151 0 273.5 81.5t189 214t66.5 285.5q0 167 -98 265t-269 98
q-193 0 -334.5 -129.5t-179.5 -339.5v-4l-4 -25q-6 -46 -6 -84q0 -168 96 -265t266 -97z" />
    <glyph glyph-name="ydieresis" unicode="&#xff;" horiz-adv-x="1263" 
d="M563 1382q-29 0 -47 20t-18 48q0 35 25 58.5t57 23.5q29 0 47 -19t18 -49q0 -35 -25 -58.5t-57 -23.5zM948 1382q-30 0 -48.5 19.5t-18.5 48.5q0 35 25.5 58.5t56.5 23.5q30 0 48.5 -19t18.5 -49q0 -35 -25.5 -58.5t-56.5 -23.5zM1065 1075h98l-268 -1526h-918l15 84h819
l98 560q-138 -213 -422 -213q-173 0 -273.5 91.5t-100.5 243.5q0 26 8 84l119 676h98l-117 -657q-6 -43 -6 -76q0 -128 81.5 -202t225.5 -74q164 0 281.5 96t146.5 254v4z" />
    <glyph glyph-name="Amacron" unicode="&#x100;" horiz-adv-x="1458" 
d="M1245 1864l-14 -82h-602l14 82h602zM1225 0l-113 432h-838l-266 -432h-114l940 1516h100l403 -1516h-112zM328 520h762l-226 871z" />
    <glyph glyph-name="amacron" unicode="&#x101;" horiz-adv-x="1126" 
d="M989 1423l-14 -82h-602l14 82h602zM221 1075h805l-190 -1075h-97l41 238l4 18q-77 -130 -204.5 -203t-268.5 -73q-139 0 -220 68.5t-81 184.5q0 115 68 201.5t177.5 129t242.5 42.5q167 0 340 -45l75 432h-704zM342 55q72 0 148 30t144.5 84t120.5 139t70 184
q-148 40 -319 40q-165 0 -279 -80t-114 -210q0 -87 60.5 -137t168.5 -50z" />
    <glyph glyph-name="Abreve" unicode="&#x102;" horiz-adv-x="1458" 
d="M922 1690q-124 0 -196.5 67.5t-72.5 181.5q0 33 6 68h84q-6 -35 -6 -61q0 -88 50 -139.5t139 -51.5q103 0 177 70t95 182h84q-25 -145 -123 -231t-237 -86zM1225 0l-113 432h-838l-266 -432h-114l940 1516h100l403 -1516h-112zM328 520h762l-226 871z" />
    <glyph glyph-name="abreve" unicode="&#x103;" horiz-adv-x="1126" 
d="M666 1249q-124 0 -196.5 68t-72.5 182q0 33 6 68h84q-6 -35 -6 -62q0 -88 50 -139t139 -51q103 0 177 70t95 182h84q-25 -146 -123 -232t-237 -86zM209 993l12 82h805l-190 -1075h-97l41 238l4 18q-77 -130 -204.5 -203t-268.5 -73q-139 0 -220 68.5t-81 184.5
q0 115 68 201.5t177.5 129t242.5 42.5q167 0 340 -45l75 432h-704zM342 55q72 0 148 30t144.5 84t120.5 139t70 184q-148 40 -319 40q-165 0 -279 -80t-114 -210q0 -87 60.5 -137t168.5 -50z" />
    <glyph glyph-name="Aogonek" unicode="&#x104;" horiz-adv-x="1458" 
d="M1130 -406q71 0 138 54l2 -62q-75 -57 -166 -57q-65 0 -103 34.5t-38 92.5q0 169 270 344h-8l-113 432h-838l-266 -432h-114l940 1516h100l403 -1516q-145 -86 -217.5 -169t-72.5 -155q0 -37 22.5 -59.5t60.5 -22.5zM328 520h762l-226 871z" />
    <glyph glyph-name="aogonek" unicode="&#x105;" horiz-adv-x="1126" 
d="M836 0q-145 -86 -218 -169t-73 -155q0 -37 23 -59.5t61 -22.5q70 0 137 54l2 -62q-75 -57 -166 -57q-65 0 -103 34.5t-38 92.5q0 171 280 350l39 232l4 18q-77 -130 -204.5 -203t-268.5 -73q-139 0 -220 68.5t-81 184.5q0 115 68 201.5t177.5 129t242.5 42.5
q167 0 340 -45l75 432h-704l12 82h805zM342 55q72 0 148 30t144.5 84t120.5 139t70 184q-148 40 -319 40q-165 0 -279 -80t-114 -210q0 -87 60.5 -137t168.5 -50z" />
    <glyph glyph-name="Cacute" unicode="&#x106;" horiz-adv-x="1380" 
d="M969 1710l313 297h131l-352 -297h-92zM745 -20q-291 0 -458.5 164.5t-167.5 445.5q0 193 67 367t183 301.5t283 202.5t358 75q242 0 407 -139l-16 -97q-145 148 -400 148q-166 0 -311.5 -70t-245.5 -187t-157.5 -272t-57.5 -323q0 -244 140 -386t385 -142q260 0 467 157
l-21 -110q-201 -135 -455 -135z" />
    <glyph glyph-name="cacute" unicode="&#x107;" horiz-adv-x="974" 
d="M655 1270l314 297h131l-352 -297h-93zM516 -20q-204 0 -322 118.5t-118 319.5q0 183 79 337.5t223.5 247.5t323.5 93q140 0 238 -88l-14 -93q-92 95 -230 95q-113 0 -211.5 -49.5t-164.5 -131t-104 -188t-38 -219.5q0 -164 92.5 -260t255.5 -96q147 0 269 98l-17 -103
q-119 -81 -262 -81z" />
    <glyph glyph-name="Cdotaccent" unicode="&#x10a;" horiz-adv-x="1380" 
d="M1061 1823q-29 0 -48.5 20t-19.5 49q0 35 23.5 57.5t56.5 22.5q29 0 48.5 -19t19.5 -50q0 -33 -23.5 -56.5t-56.5 -23.5zM745 -20q-291 0 -458.5 164.5t-167.5 445.5q0 193 67 367t183 301.5t283 202.5t358 75q242 0 407 -139l-16 -97q-145 148 -400 148
q-166 0 -311.5 -70t-245.5 -187t-157.5 -272t-57.5 -323q0 -244 140 -386t385 -142q260 0 467 157l-21 -110q-201 -135 -455 -135z" />
    <glyph glyph-name="cdotaccent" unicode="&#x10b;" horiz-adv-x="974" 
d="M748 1382q-29 0 -48.5 20.5t-19.5 49.5q0 35 23.5 57.5t56.5 22.5q29 0 48 -19.5t19 -50.5q0 -34 -23.5 -57t-55.5 -23zM516 -20q-204 0 -322 118.5t-118 319.5q0 183 79 337.5t223.5 247.5t323.5 93q140 0 238 -88l-14 -93q-92 95 -230 95q-113 0 -211.5 -49.5
t-164.5 -131t-104 -188t-38 -219.5q0 -164 92.5 -260t255.5 -96q147 0 269 98l-17 -103q-119 -81 -262 -81z" />
    <glyph glyph-name="Ccaron" unicode="&#x10c;" horiz-adv-x="1380" 
d="M1085 1710h-106l-213 297h100l176 -240l261 240h98zM1010 1536q242 0 407 -139l-16 -97q-145 148 -400 148q-166 0 -311.5 -70t-245.5 -187t-157.5 -272t-57.5 -323q0 -244 140 -386t385 -142q260 0 467 157l-21 -110q-201 -135 -455 -135q-291 0 -458.5 164.5
t-167.5 445.5q0 193 67 367t183 301.5t283 202.5t358 75z" />
    <glyph glyph-name="ccaron" unicode="&#x10d;" horiz-adv-x="974" 
d="M772 1270h-106l-213 297h100l176 -240l260 240h98zM76 418q0 183 79 337.5t223.5 247.5t323.5 93q140 0 238 -88l-14 -93q-92 95 -230 95q-113 0 -211.5 -49.5t-164.5 -131t-104 -188t-38 -219.5q0 -164 92.5 -260t255.5 -96q147 0 269 98l-17 -103q-119 -81 -262 -81
q-204 0 -322 118.5t-118 319.5z" />
    <glyph glyph-name="Dcaron" unicode="&#x10e;" horiz-adv-x="1544" 
d="M883 1710h-107l-213 297h101l176 -240l260 240h98zM852 1516q285 0 449.5 -162.5t164.5 -438.5q0 -190 -66 -359t-181 -291.5t-278.5 -193.5t-350.5 -71h-486l269 1516h479zM584 88q167 0 312.5 66t245.5 177.5t157 261t57 314.5q0 240 -142 380t-393 140h-358
l-236 -1339h357z" />
    <glyph glyph-name="dcaron" unicode="&#x10f;" horiz-adv-x="1363" 
d="M1104 803l139 794h98l-282 -1597h-96l43 254l2 6q-78 -132 -205 -206t-297 -74q-199 0 -315.5 119t-116.5 319q0 183 79.5 338t222 247.5t316.5 92.5t277 -78.5t135 -214.5zM1567 1597h96l-213 -383h-80zM541 66q193 0 335.5 130.5t180.5 342.5q8 52 8 106
q0 168 -96 266.5t-264 98.5q-152 0 -274.5 -82t-188.5 -214.5t-66 -285.5q0 -167 97 -264.5t268 -97.5z" />
    <glyph glyph-name="Dcroat" unicode="&#x110;" horiz-adv-x="1544" 
d="M852 1516q285 0 449.5 -162.5t164.5 -438.5q0 -190 -66 -359t-181 -291.5t-278.5 -193.5t-350.5 -71h-486l129 725h-180l13 76h180l127 715h479zM584 88q167 0 312.5 66t245.5 177.5t157 261t57 314.5q0 240 -142 380t-393 140h-358l-111 -626h439l-13 -76h-438
l-113 -637h357z" />
    <glyph glyph-name="dcroat" unicode="&#x111;" horiz-adv-x="1347" 
d="M1483 1380l-13 -75h-180l-231 -1305h-96l43 254l2 6q-78 -132 -205 -206t-297 -74q-199 0 -315.5 119t-116.5 319q0 183 79.5 338t222 247.5t316.5 92.5t277 -78.5t135 -214.5l88 502h-447l13 75h446l39 217h98l-38 -217h180zM541 66q193 0 335.5 130.5t180.5 342.5
q8 52 8 106q0 168 -96 266.5t-264 98.5q-152 0 -274.5 -82t-188.5 -214.5t-66 -285.5q0 -167 97 -264.5t268 -97.5z" />
    <glyph glyph-name="Emacron" unicode="&#x112;" horiz-adv-x="1255" 
d="M1182 1864l-15 -82h-602l15 82h602zM1253 1427h-790l-107 -608h744l-17 -90h-743l-113 -641h811l-16 -88h-918l269 1516h897z" />
    <glyph glyph-name="emacron" unicode="&#x113;" horiz-adv-x="1185" 
d="M1038 1423l-14 -82h-602l14 82h602zM1069 500h-887q-6 -46 -6 -92q0 -161 85 -255t235 -94q116 0 224 56.5t195 152.5l70 -53q-100 -117 -226.5 -176t-266.5 -59q-194 0 -306 118t-112 318q0 137 44.5 261t122.5 216.5t191.5 147.5t243.5 55q194 0 305 -115t111 -311
q0 -95 -23 -170zM672 1014q-180 0 -307 -125t-170 -316h788q8 47 8 99q0 160 -85 251t-234 91z" />
    <glyph glyph-name="Edotaccent" unicode="&#x116;" horiz-adv-x="1255" 
d="M883 1823q-29 0 -48.5 20t-19.5 49q0 35 23.5 57.5t56.5 22.5q29 0 48.5 -19t19.5 -50q0 -33 -23.5 -56.5t-56.5 -23.5zM1253 1427h-790l-107 -608h744l-17 -90h-743l-113 -641h811l-16 -88h-918l269 1516h897z" />
    <glyph glyph-name="edotaccent" unicode="&#x117;" horiz-adv-x="1185" 
d="M739 1382q-29 0 -48 20t-19 50q0 35 23.5 57.5t56.5 22.5q29 0 48 -19.5t19 -50.5q0 -33 -23.5 -56.5t-56.5 -23.5zM1069 500h-887q-6 -46 -6 -92q0 -161 85 -255t235 -94q116 0 224 56.5t195 152.5l70 -53q-100 -117 -226.5 -176t-266.5 -59q-194 0 -306 118t-112 318
q0 137 44.5 261t122.5 216.5t191.5 147.5t243.5 55q194 0 305 -115t111 -311q0 -95 -23 -170zM672 1014q-180 0 -307 -125t-170 -316h788q8 47 8 99q0 160 -85 251t-234 91z" />
    <glyph glyph-name="Eogonek" unicode="&#x118;" horiz-adv-x="1255" 
d="M1253 1427h-790l-107 -608h744l-17 -90h-743l-113 -641h811l-16 -88q-145 -86 -218 -169t-73 -155q0 -37 23 -59.5t61 -22.5q70 0 137 54l2 -62q-75 -57 -166 -57q-65 0 -103 34.5t-38 92.5q0 168 271 344h-814l269 1516h897z" />
    <glyph glyph-name="eogonek" unicode="&#x119;" horiz-adv-x="1185" 
d="M1069 500h-887q-6 -46 -6 -92q0 -161 85 -255t235 -94q116 0 224 56.5t195 152.5l70 -53q-141 -163 -334 -215q-145 -86 -218 -169t-73 -155q0 -37 23 -59.5t61 -22.5q71 0 138 54l2 -62q-75 -57 -166 -57q-65 0 -103.5 35t-38.5 92q0 78 62 161t178 163h-24
q-194 0 -306 118t-112 318q0 137 44.5 261t122.5 216.5t191.5 147.5t243.5 55q194 0 305 -115t111 -311q0 -95 -23 -170zM672 1014q-180 0 -307 -125t-170 -316h788q8 47 8 99q0 160 -85 251t-234 91z" />
    <glyph glyph-name="Ecaron" unicode="&#x11a;" horiz-adv-x="1255" 
d="M907 1710h-106l-213 297h100l176 -240l260 240h99zM1253 1427h-790l-107 -608h744l-17 -90h-743l-113 -641h811l-16 -88h-918l269 1516h897z" />
    <glyph glyph-name="ecaron" unicode="&#x11b;" horiz-adv-x="1185" 
d="M764 1270h-107l-213 297h101l176 -240l260 240h98zM1069 500h-887q-6 -46 -6 -92q0 -161 85 -255t235 -94q116 0 224 56.5t195 152.5l70 -53q-100 -117 -226.5 -176t-266.5 -59q-194 0 -306 118t-112 318q0 137 44.5 261t122.5 216.5t191.5 147.5t243.5 55
q194 0 305 -115t111 -311q0 -95 -23 -170zM672 1014q-180 0 -307 -125t-170 -316h788q8 47 8 99q0 160 -85 251t-234 91z" />
    <glyph glyph-name="Gbreve" unicode="&#x11e;" horiz-adv-x="1615" 
d="M1034 1690q-124 0 -196 67.5t-72 181.5q0 33 6 68h84q-6 -35 -6 -61q0 -88 49.5 -139.5t138.5 -51.5q103 0 178 70t95 182h84q-25 -145 -123.5 -231t-237.5 -86zM1567 786q0 -20 -2 -32q-4 -140 -50.5 -263.5t-125.5 -215.5t-183 -159.5t-225.5 -101.5t-249.5 -34
q-284 0 -447 164t-163 444q0 193 65 366.5t178.5 302t277.5 204t353 75.5q151 0 262.5 -35.5t210.5 -118.5l-77 -65q-148 131 -404 131q-163 0 -306 -71t-241 -188.5t-154.5 -273.5t-56.5 -323q0 -242 137 -383t375 -141q105 0 206.5 28.5t189.5 83.5t156 130t109.5 174.5
t47.5 211.5h-522l16 90h623z" />
    <glyph glyph-name="gbreve" unicode="&#x11f;" horiz-adv-x="1349" 
d="M778 1249q-124 0 -196 67.5t-72 182.5q0 33 6 68h84q-6 -35 -6 -62q0 -88 49.5 -139t138.5 -51q103 0 178 70t95 182h84q-25 -145 -123.5 -231.5t-237.5 -86.5zM1157 1075h94l-268 -1526h-1030l12 84h934l111 629q-78 -132 -205.5 -207t-296.5 -75q-199 0 -315.5 119
t-116.5 319q0 183 79.5 338t222.5 247.5t318 92.5q171 0 274.5 -78t135.5 -213l2 16zM543 66q195 0 336.5 130t179.5 343l4 28q6 44 6 78q0 168 -97 266.5t-265 98.5q-151 0 -273.5 -82t-189 -214.5t-66.5 -285.5q0 -167 97 -264.5t268 -97.5z" />
    <glyph glyph-name="Gdotaccent" unicode="&#x120;" horiz-adv-x="1615" 
d="M1059 1823q-29 0 -48.5 20t-19.5 49q0 35 23.5 57.5t56.5 22.5q29 0 48.5 -19t19.5 -50q0 -33 -23.5 -56.5t-56.5 -23.5zM1567 786q0 -20 -2 -32q-4 -140 -50.5 -263.5t-125.5 -215.5t-183 -159.5t-225.5 -101.5t-249.5 -34q-284 0 -447 164t-163 444q0 193 65 366.5
t178.5 302t277.5 204t353 75.5q151 0 262.5 -35.5t210.5 -118.5l-77 -65q-148 131 -404 131q-163 0 -306 -71t-241 -188.5t-154.5 -273.5t-56.5 -323q0 -242 137 -383t375 -141q105 0 206.5 28.5t189.5 83.5t156 130t109.5 174.5t47.5 211.5h-522l16 90h623z" />
    <glyph glyph-name="gdotaccent" unicode="&#x121;" horiz-adv-x="1349" 
d="M803 1382q-29 0 -48.5 20.5t-19.5 49.5q0 35 23.5 57.5t56.5 22.5q29 0 48.5 -19.5t19.5 -50.5q0 -33 -23.5 -56.5t-56.5 -23.5zM1157 1075h94l-268 -1526h-1030l12 84h934l111 629q-78 -132 -205.5 -207t-296.5 -75q-199 0 -315.5 119t-116.5 319q0 183 79.5 338
t222.5 247.5t318 92.5q171 0 274.5 -78t135.5 -213l2 16zM543 66q195 0 336.5 130t179.5 343l4 28q6 44 6 78q0 168 -97 266.5t-265 98.5q-151 0 -273.5 -82t-189 -214.5t-66.5 -285.5q0 -167 97 -264.5t268 -97.5z" />
    <glyph glyph-name="Gcommaaccent" unicode="&#x122;" horiz-adv-x="1615" 
d="M1567 786q0 -20 -2 -32q-4 -140 -50.5 -263.5t-125.5 -215.5t-183 -159.5t-225.5 -101.5t-249.5 -34q-284 0 -447 164t-163 444q0 193 65 366.5t178.5 302t277.5 204t353 75.5q151 0 262.5 -35.5t210.5 -118.5l-77 -65q-148 131 -404 131q-163 0 -306 -71t-241 -188.5
t-154.5 -273.5t-56.5 -323q0 -242 137 -383t375 -141q105 0 206.5 28.5t189.5 83.5t156 130t109.5 174.5t47.5 211.5h-522l16 90h623zM492 -451l176 345h96l-193 -345h-79z" />
    <glyph glyph-name="gcommaaccent" unicode="&#x123;" horiz-adv-x="1349" 
d="M983 1597l-197 -383h-96l213 383h80zM1157 1075h94l-268 -1526h-1030l12 84h934l111 629q-78 -132 -205.5 -207t-296.5 -75q-199 0 -315.5 119t-116.5 319q0 183 79.5 338t222.5 247.5t318 92.5q171 0 274.5 -78t135.5 -213l2 16zM543 66q195 0 336.5 130t179.5 343l4 28
q6 44 6 78q0 168 -97 266.5t-265 98.5q-151 0 -273.5 -82t-189 -214.5t-66.5 -285.5q0 -167 97 -264.5t268 -97.5z" />
    <glyph glyph-name="Hbar" unicode="&#x126;" horiz-adv-x="1630" 
d="M1700 1225l-14 -76h-185l-203 -1149h-104l129 725h-983l-129 -725h-107l203 1149h-184l14 76h185l51 291h106l-51 -291h983l51 291h105l-51 -291h184zM1337 813l60 336h-983l-60 -336h983z" />
    <glyph glyph-name="hbar" unicode="&#x127;" horiz-adv-x="1286" 
d="M752 1096q179 0 283 -92.5t104 -247.5q0 -12 -9 -82l-118 -674h-99l117 657q6 41 6 72q0 131 -84 206t-233 75q-170 0 -291 -98t-149 -257l-117 -655h-99l232 1305h-180l12 75h180l39 217h98l-38 -217h446l-12 -75h-447l-76 -426q141 217 435 217z" />
    <glyph glyph-name="Imacron" unicode="&#x12a;" horiz-adv-x="540" 
d="M170 1782l14 82h602l-14 -82h-602zM104 0l269 1516h106l-268 -1516h-107z" />
    <glyph glyph-name="imacron" unicode="&#x12b;" horiz-adv-x="458" 
d="M51 1341l15 82h602l-15 -82h-602zM68 0l190 1075h98l-190 -1075h-98z" />
    <glyph glyph-name="Iogonek" unicode="&#x12e;" horiz-adv-x="540" 
d="M211 0q-145 -86 -218 -169t-73 -155q0 -37 23 -59.5t61 -22.5q70 0 137 54l2 -62q-75 -57 -166 -57q-65 0 -103 34.5t-38 92.5q0 169 270 344h-2l269 1516h106z" />
    <glyph glyph-name="iogonek" unicode="&#x12f;" horiz-adv-x="458" 
d="M381 1532q29 0 48.5 -19.5t19.5 -50.5q0 -33 -23.5 -56.5t-56.5 -23.5q-29 0 -48.5 20.5t-19.5 49.5q0 35 23.5 57.5t56.5 22.5zM68 4l190 1071h98l-190 -1075q-145 -86 -218 -169t-73 -155q0 -37 23 -59.5t61 -22.5q70 0 137 54l2 -62q-75 -57 -166 -57q-65 0 -103 34.5
t-38 92.5q0 84 72 173t205 175z" />
    <glyph glyph-name="Idotaccent" unicode="&#x130;" horiz-adv-x="540" 
d="M487 1823q-29 0 -48 20t-19 49q0 35 23.5 57.5t56.5 22.5q29 0 48 -19t19 -50q0 -33 -23.5 -56.5t-56.5 -23.5zM104 0l269 1516h106l-268 -1516h-107z" />
    <glyph glyph-name="dotlessi" unicode="&#x131;" horiz-adv-x="458" 
d="M68 0l190 1075h98l-190 -1075h-98z" />
    <glyph glyph-name="Kcommaaccent" unicode="&#x136;" horiz-adv-x="1363" 
d="M1483 1516l-713 -740l461 -776h-125l-432 733h-334l-129 -733h-107l269 1516h106l-123 -695h328l668 695h131zM393 -451l176 345h97l-193 -345h-80z" />
    <glyph glyph-name="kcommaaccent" unicode="&#x137;" horiz-adv-x="1134" 
d="M1180 1075l-570 -512l402 -563h-123l-365 522h-270l-92 -522h-99l283 1597h98l-176 -991h260l519 469h133zM244 -451l176 345h96l-192 -345h-80z" />
    <glyph glyph-name="Lacute" unicode="&#x139;" horiz-adv-x="1069" 
d="M840 2007l-353 -297h-92l314 297h131zM227 88h734l-17 -88h-840l269 1516h106z" />
    <glyph glyph-name="lacute" unicode="&#x13a;" horiz-adv-x="522" 
d="M373 1792l313 297h131l-352 -297h-92zM70 0l282 1597h99l-267 -1513h236l-14 -84h-336z" />
    <glyph glyph-name="Lcommaaccent" unicode="&#x13b;" horiz-adv-x="1069" 
d="M227 88h734l-17 -88h-840l269 1516h106zM250 -451l176 345h96l-192 -345h-80z" />
    <glyph glyph-name="lcommaaccent" unicode="&#x13c;" horiz-adv-x="522" 
d="M70 0l282 1597h99l-267 -1513h236l-14 -84h-336zM-2 -451l176 345h96l-192 -345h-80z" />
    <glyph glyph-name="Lcaron" unicode="&#x13d;" horiz-adv-x="1048" 
d="M479 1516l-252 -1428h734l-17 -88h-840l269 1516h106zM1092 1516l-218 -398h-90l203 398h105z" />
    <glyph glyph-name="lcaron" unicode="&#x13e;" horiz-adv-x="528" 
d="M70 0l282 1597h99l-267 -1513h236l-14 -84h-336zM481 1214l197 383h96l-213 -383h-80z" />
    <glyph glyph-name="Lslash" unicode="&#x141;" horiz-adv-x="1069" 
d="M227 88h734l-17 -88h-840l132 735l-191 -119l14 86l191 119l123 695h106l-112 -631l254 155l-17 -86l-252 -155z" />
    <glyph glyph-name="lslash" unicode="&#x142;" horiz-adv-x="522" 
d="M537 954l-224 -139l-129 -731h236l-14 -84h-336l135 758l-228 -142l15 86l227 144l133 751h99l-123 -696l225 139z" />
    <glyph glyph-name="Nacute" unicode="&#x143;" horiz-adv-x="1697" 
d="M975 1710l313 297h131l-352 -297h-92zM104 0l269 1516h69l854 -1330l234 1330h106l-268 -1516h-70l-854 1329l-233 -1329h-107z" />
    <glyph glyph-name="nacute" unicode="&#x144;" horiz-adv-x="1286" 
d="M1143 1567l-352 -297h-93l314 297h131zM752 1096q179 0 283 -92.5t104 -247.5q0 -12 -9 -82l-118 -674h-99l117 657q6 41 6 72q0 131 -84 206t-233 75q-170 0 -291 -98t-149 -257l-117 -655h-99l191 1075h96l-35 -201q143 222 437 222z" />
    <glyph glyph-name="Ncommaaccent" unicode="&#x145;" horiz-adv-x="1697" 
d="M104 0l269 1516h69l854 -1330l234 1330h106l-268 -1516h-70l-854 1329l-233 -1329h-107zM512 -451l176 345h96l-192 -345h-80z" />
    <glyph glyph-name="ncommaaccent" unicode="&#x146;" horiz-adv-x="1286" 
d="M752 1096q179 0 283 -92.5t104 -247.5q0 -12 -9 -82l-118 -674h-99l117 657q6 41 6 72q0 131 -84 206t-233 75q-170 0 -291 -98t-149 -257l-117 -655h-99l191 1075h96l-35 -201q143 222 437 222zM313 -451l176 345h97l-193 -345h-80z" />
    <glyph glyph-name="Ncaron" unicode="&#x147;" horiz-adv-x="1697" 
d="M1092 1710h-107l-213 297h100l177 -240l260 240h98zM1530 1516h106l-268 -1516h-70l-854 1329l-233 -1329h-107l269 1516h69l854 -1330z" />
    <glyph glyph-name="ncaron" unicode="&#x148;" horiz-adv-x="1286" 
d="M815 1270h-106l-213 297h100l176 -240l260 240h98zM752 1096q179 0 283 -92.5t104 -247.5q0 -12 -9 -82l-118 -674h-99l117 657q6 41 6 72q0 131 -84 206t-233 75q-170 0 -291 -98t-149 -257l-117 -655h-99l191 1075h96l-35 -201q143 222 437 222z" />
    <glyph glyph-name="Eng" unicode="&#x14a;" horiz-adv-x="1697" 
d="M1530 1516h106l-268 -1516l-27 -158q-26 -147 -126 -231t-252 -84q-80 0 -147.5 28.5t-104.5 77.5l37 68q37 -43 93 -64.5t117 -21.5q109 0 185.5 71t95.5 185l31 174l-826 1284l-233 -1329h-107l269 1516h69l854 -1330z" />
    <glyph glyph-name="eng" unicode="&#x14b;" horiz-adv-x="1286" 
d="M752 1096q179 0 283 -92.5t104 -247.5q0 -12 -9 -82l-149 -846q-25 -138 -115.5 -218.5t-218.5 -80.5q-102 0 -170 33l17 80q56 -27 137 -27q95 0 166.5 66.5t91.5 175.5l141 800q6 41 6 72q0 131 -84 206t-233 75q-170 0 -291 -98t-149 -257l-117 -655h-99l191 1075h96
l-35 -201q143 222 437 222z" />
    <glyph glyph-name="Omacron" unicode="&#x14c;" horiz-adv-x="1712" 
d="M756 1782l14 82h602l-14 -82h-602zM745 -20q-291 0 -458.5 164.5t-167.5 445.5q0 193 67 367t183 301.5t283 202.5t358 75q289 0 456.5 -165t167.5 -447q0 -192 -67 -365.5t-183.5 -301t-283 -202.5t-355.5 -75zM754 68q133 0 253.5 45t213.5 126t162 187.5t105 234
t36 261.5q0 243 -140 384.5t-383 141.5q-166 0 -312 -70t-246.5 -187t-158 -272t-57.5 -323q0 -244 141 -386t386 -142z" />
    <glyph glyph-name="omacron" unicode="&#x14d;" horiz-adv-x="1280" 
d="M461 1341l14 82h602l-14 -82h-602zM530 -20q-212 0 -334 120t-122 322q0 186 82.5 340t230.5 244t330 90q211 0 331.5 -120.5t120.5 -324.5q0 -184 -82 -337.5t-229 -243.5t-328 -90zM543 66q150 0 271.5 81.5t187 213.5t65.5 286q0 167 -96.5 265t-265.5 98
q-151 0 -273 -81t-188 -214t-66 -287q0 -167 97 -264.5t268 -97.5z" />
    <glyph glyph-name="Ohungarumlaut" unicode="&#x150;" horiz-adv-x="1712" 
d="M854 1710l268 297h127l-307 -297h-88zM1122 1710l269 297h127l-308 -297h-88zM745 -20q-291 0 -458.5 164.5t-167.5 445.5q0 193 67 367t183 301.5t283 202.5t358 75q289 0 456.5 -165t167.5 -447q0 -192 -67 -365.5t-183.5 -301t-283 -202.5t-355.5 -75zM754 68
q133 0 253.5 45t213.5 126t162 187.5t105 234t36 261.5q0 243 -140 384.5t-383 141.5q-166 0 -312 -70t-246.5 -187t-158 -272t-57.5 -323q0 -244 141 -386t386 -142z" />
    <glyph glyph-name="ohungarumlaut" unicode="&#x151;" horiz-adv-x="1280" 
d="M559 1270l268 297h127l-307 -297h-88zM827 1270l269 297h127l-308 -297h-88zM530 -20q-212 0 -334 120t-122 322q0 186 82.5 340t230.5 244t330 90q211 0 331.5 -120.5t120.5 -324.5q0 -184 -82 -337.5t-229 -243.5t-328 -90zM543 66q150 0 271.5 81.5t187 213.5
t65.5 286q0 167 -96.5 265t-265.5 98q-151 0 -273 -81t-188 -214t-66 -287q0 -167 97 -264.5t268 -97.5z" />
    <glyph glyph-name="OE" unicode="&#x152;" horiz-adv-x="2531" 
d="M2529 1427h-792l-107 -608h746l-17 -90h-745l-113 -641h813l-16 -88h-918l62 352q-119 -173 -300.5 -272.5t-400.5 -99.5q-289 0 -455.5 164t-166.5 444q0 258 112.5 474.5t316.5 345t456 128.5q222 0 371.5 -101.5t207.5 -285.5l66 367h897zM754 68q166 0 311 70
t245.5 187.5t158 273t57.5 323.5q0 242 -140.5 384t-384.5 142q-166 0 -311.5 -70t-245.5 -187t-157.5 -272t-57.5 -323q0 -244 140 -386t385 -142z" />
    <glyph glyph-name="oe" unicode="&#x153;" horiz-adv-x="2158" 
d="M2042 500h-887q-6 -47 -6 -92q0 -161 84 -255t235 -94q116 0 225 56t195 153l70 -53q-100 -117 -225.5 -176t-262.5 -59q-165 0 -269 93t-126 255q-78 -159 -223 -253.5t-326 -94.5q-209 0 -329.5 120t-120.5 322q0 185 81 339t227.5 244.5t328.5 90.5q177 0 290.5 -92.5
t139.5 -255.5q73 158 207 253t303 95q192 0 301.5 -115t109.5 -311q0 -80 -22 -170zM1645 1014q-180 0 -307.5 -125t-170.5 -316h787q8 47 8 99q0 160 -83.5 251t-233.5 91zM543 66q150 0 271.5 81t187 213.5t65.5 286.5q0 167 -96.5 265t-265.5 98q-151 0 -273 -81
t-188 -214t-66 -287q0 -167 97 -264.5t268 -97.5z" />
    <glyph glyph-name="Racute" unicode="&#x154;" horiz-adv-x="1404" 
d="M1235 2007l-352 -297h-92l313 297h131zM1333 1155q0 -187 -117.5 -320.5t-304.5 -175.5l322 -659h-123l-311 643q-14 -2 -47 -2h-428l-113 -641h-107l269 1516h526q200 0 317 -98t117 -263zM340 729h412q202 0 335.5 119t133.5 299q0 130 -92.5 205t-254.5 75h-411z" />
    <glyph glyph-name="racute" unicode="&#x155;" horiz-adv-x="731" 
d="M461 1270l313 297h131l-352 -297h-92zM63 0l191 1075h96l-39 -215q135 236 480 236l-17 -90q-206 0 -337 -99.5t-161 -269.5l-114 -637h-99z" />
    <glyph glyph-name="Rcommaaccent" unicode="&#x156;" horiz-adv-x="1404" 
d="M1333 1155q0 -187 -117.5 -320.5t-304.5 -175.5l322 -659h-123l-311 643q-14 -2 -47 -2h-428l-113 -641h-107l269 1516h526q200 0 317 -98t117 -263zM340 729h412q202 0 335.5 119t133.5 299q0 130 -92.5 205t-254.5 75h-411zM377 -451l176 345h96l-192 -345h-80z" />
    <glyph glyph-name="rcommaaccent" unicode="&#x157;" horiz-adv-x="731" 
d="M63 0l191 1075h96l-39 -215q135 236 480 236l-17 -90q-206 0 -337 -99.5t-161 -269.5l-114 -637h-99zM-84 -451l176 345h96l-192 -345h-80z" />
    <glyph glyph-name="Rcaron" unicode="&#x158;" horiz-adv-x="1404" 
d="M907 1710h-106l-213 297h100l176 -240l260 240h99zM1333 1155q0 -187 -117.5 -320.5t-304.5 -175.5l322 -659h-123l-311 643q-14 -2 -47 -2h-428l-113 -641h-107l269 1516h526q200 0 317 -98t117 -263zM340 729h412q202 0 335.5 119t133.5 299q0 130 -92.5 205t-254.5 75
h-411z" />
    <glyph glyph-name="rcaron" unicode="&#x159;" horiz-adv-x="731" 
d="M578 1270h-107l-213 297h100l177 -240l260 240h98zM311 860q135 236 480 236l-17 -90q-206 0 -337 -99.5t-161 -269.5l-114 -637h-99l191 1075h96z" />
    <glyph glyph-name="Sacute" unicode="&#x15a;" horiz-adv-x="1239" 
d="M760 1710l313 297h131l-352 -297h-92zM496 -20q-148 0 -267.5 44t-181.5 130l53 71q128 -157 394 -157q136 0 248.5 44.5t179.5 126.5t67 185q0 56 -25.5 101t-77.5 80.5t-111.5 61.5t-145.5 54l-103 33q-55 17 -99 35t-87 45.5t-71.5 60.5t-46 78.5t-17.5 99.5
q0 135 76.5 241.5t206.5 164t288 57.5q291 0 430 -176l-61 -70q-128 158 -373 158q-194 0 -324.5 -101t-130.5 -253q0 -52 21 -92.5t62.5 -69.5t83.5 -48t104 -38l108 -33q45 -15 80.5 -27.5t79 -32.5t76 -40.5t65.5 -49.5t54 -60.5t34 -73t13 -87.5q0 -138 -82 -244.5
t-218 -162t-302 -55.5z" />
    <glyph glyph-name="sacute" unicode="&#x15b;" horiz-adv-x="946" 
d="M530 1270l314 297h131l-352 -297h-93zM354 -20q-114 0 -202.5 28.5t-135.5 81.5l47 57q101 -88 295 -88q138 0 236 71.5t98 174.5q0 129 -205 189l-118 36q-113 33 -175.5 85t-62.5 141q0 148 119.5 244t294.5 96q200 0 338 -95l-52 -67q-108 80 -282 80
q-133 0 -223 -67.5t-90 -168.5q0 -65 46 -101t136 -65l119 -39q258 -80 258 -254q0 -151 -126.5 -245t-314.5 -94z" />
    <glyph glyph-name="Scedilla" unicode="&#x15e;" horiz-adv-x="1239" 
d="M776 1536q291 0 430 -176l-61 -70q-128 158 -373 158q-194 0 -324.5 -101t-130.5 -253q0 -52 21 -92.5t62.5 -69.5t83.5 -48t104 -38l108 -33q45 -15 80.5 -27.5t79 -32.5t76 -40.5t65.5 -49.5t54 -60.5t34 -73t13 -87.5q0 -128 -71 -229.5t-190.5 -159.5t-269.5 -71
l-106 -127q32 4 51 4q88 0 139 -38t51 -102q0 -88 -76 -139t-188 -51q-117 0 -184 61l35 50q55 -52 145 -52q78 0 133.5 35.5t55.5 91.5q0 41 -37.5 64.5t-100.5 23.5q-55 0 -108 -18l-15 35l130 160q-147 0 -265 44t-180 130l53 71q128 -157 394 -157q136 0 248.5 44.5
t179.5 126.5t67 185q0 56 -25.5 101t-77.5 80.5t-111.5 61.5t-145.5 54l-103 33q-55 17 -99 35t-87 45.5t-71.5 60.5t-46 78.5t-17.5 99.5q0 135 76.5 241.5t206.5 164t288 57.5z" />
    <glyph glyph-name="scedilla" unicode="&#x15f;" horiz-adv-x="946" 
d="M549 1014q-133 0 -223 -67.5t-90 -168.5q0 -65 46 -101t136 -65l119 -39q258 -80 258 -254q0 -138 -108 -230t-275 -107l-107 -127q32 4 51 4q88 0 139.5 -38t51.5 -102q0 -88 -76 -139t-188 -51q-118 0 -185 61l35 50q55 -52 146 -52q78 0 133 35.5t55 91.5
q0 41 -37 64.5t-100 23.5q-56 0 -109 -18l-14 35l129 160q-230 7 -320 110l47 57q101 -88 295 -88q138 0 236 71.5t98 174.5q0 129 -205 189l-118 36q-113 33 -175.5 85t-62.5 141q0 148 119.5 244t294.5 96q200 0 338 -95l-52 -67q-108 80 -282 80z" />
    <glyph glyph-name="Scaron" unicode="&#x160;" horiz-adv-x="1239" 
d="M877 1710h-107l-213 297h100l177 -240l260 240h98zM776 1536q291 0 430 -176l-61 -70q-128 158 -373 158q-194 0 -324.5 -101t-130.5 -253q0 -52 21 -92.5t62.5 -69.5t83.5 -48t104 -38l108 -33q45 -15 80.5 -27.5t79 -32.5t76 -40.5t65.5 -49.5t54 -60.5t34 -73
t13 -87.5q0 -138 -82 -244.5t-218 -162t-302 -55.5q-148 0 -267.5 44t-181.5 130l53 71q128 -157 394 -157q136 0 248.5 44.5t179.5 126.5t67 185q0 56 -25.5 101t-77.5 80.5t-111.5 61.5t-145.5 54l-103 33q-55 17 -99 35t-87 45.5t-71.5 60.5t-46 78.5t-17.5 99.5
q0 135 76.5 241.5t206.5 164t288 57.5z" />
    <glyph glyph-name="scaron" unicode="&#x161;" horiz-adv-x="946" 
d="M647 1270h-106l-213 297h100l176 -240l260 240h99zM131 756q0 148 119.5 244t294.5 96q200 0 338 -95l-52 -67q-108 80 -282 80q-133 0 -223 -67.5t-90 -168.5q0 -65 46 -101t136 -65l119 -39q258 -80 258 -254q0 -151 -126.5 -245t-314.5 -94q-114 0 -202.5 28.5
t-135.5 81.5l47 57q101 -88 295 -88q138 0 236 71.5t98 174.5q0 129 -205 189l-118 36q-113 33 -175.5 85t-62.5 141z" />
    <glyph glyph-name="uni0162" unicode="&#x162;" horiz-adv-x="1146" 
d="M510 0h-14l-121 -145q32 4 51 4q88 0 139 -38t51 -102q0 -88 -77 -139t-189 -51q-115 0 -182 61l35 50q52 -52 143 -52q80 0 134.5 35.5t54.5 91.5q0 41 -36.5 64.5t-101.5 23.5q-57 0 -106 -18l-15 35l146 180h-16l251 1427h-499l16 89h1104l-16 -89h-500z" />
    <glyph glyph-name="uni0163" unicode="&#x163;" horiz-adv-x="665" 
d="M287 0h-15l-118 -145q32 4 53 4q88 0 139 -38t51 -102q0 -88 -76 -139t-188 -51q-117 0 -184 61l35 50q52 -52 145 -52q78 0 133 35.5t55 91.5q0 41 -37 64.5t-102 23.5q-56 0 -106 -18l-15 35l148 180h-17l177 991h-283l14 84h283l55 316h98l-55 -316h283l-15 -84h-282z
" />
    <glyph glyph-name="Tcaron" unicode="&#x164;" horiz-adv-x="1146" 
d="M811 1710h-106l-213 297h100l176 -240l260 240h98zM1278 1516l-16 -89h-500l-252 -1427h-104l251 1427h-499l16 89h1104z" />
    <glyph glyph-name="tcaron" unicode="&#x165;" horiz-adv-x="665" 
d="M971 1597l-213 -383h-80l199 383h94zM532 1391l-55 -316h283l-15 -84h-282l-176 -991h-99l177 991h-283l14 84h283l55 316h98z" />
    <glyph glyph-name="Tbar" unicode="&#x166;" horiz-adv-x="1146" 
d="M1262 1427h-500l-115 -649h320l-13 -76h-319l-125 -702h-104l124 702h-301l13 76h301l114 649h-499l16 89h1104z" />
    <glyph glyph-name="tbar" unicode="&#x167;" horiz-adv-x="747" 
d="M784 991h-282l-74 -416h246l-15 -75h-245l-88 -500h-99l88 500h-247l12 75h250l73 416h-284l14 84h285l55 316h98l-55 -316h283z" />
    <glyph glyph-name="Umacron" unicode="&#x16a;" horiz-adv-x="1609" 
d="M705 1782l14 82h602l-14 -82h-602zM694 -20q-243 0 -384.5 120.5t-141.5 323.5q0 46 10 108l174 984h105l-174 -984q-9 -49 -9 -94q0 -171 114.5 -270.5t313.5 -99.5q225 0 387 129.5t199 337.5l174 981h105l-176 -992q-43 -247 -234 -395.5t-463 -148.5z" />
    <glyph glyph-name="umacron" unicode="&#x16b;" horiz-adv-x="1251" 
d="M446 1341l15 82h602l-14 -82h-603zM516 -20q-187 0 -295 93.5t-108 250.5q0 26 8 84l119 667h98l-117 -657q-8 -54 -8 -76q0 -128 82.5 -202t226.5 -74q164 0 282 98t146 256l117 655h98l-118 -676q-34 -190 -179.5 -304.5t-351.5 -114.5z" />
    <glyph glyph-name="Uring" unicode="&#x16e;" horiz-adv-x="1609" 
d="M985 1636q-86 0 -136 47t-50 127q0 110 71.5 181t180.5 71q86 0 136 -47t50 -127q0 -107 -72.5 -179.5t-179.5 -72.5zM989 1694q79 0 130.5 58.5t51.5 133.5q0 56 -33 88.5t-91 32.5q-81 0 -132 -58.5t-51 -138.5q0 -54 33.5 -85t91.5 -31zM694 -20q-243 0 -384.5 120.5
t-141.5 323.5q0 46 10 108l174 984h105l-174 -984q-9 -49 -9 -94q0 -171 114.5 -270.5t313.5 -99.5q225 0 387 129.5t199 337.5l174 981h105l-176 -992q-43 -247 -234 -395.5t-463 -148.5z" />
    <glyph glyph-name="uring" unicode="&#x16f;" horiz-adv-x="1251" 
d="M727 1196q-86 0 -136 47t-50 127q0 110 71.5 181t180.5 71q86 0 136 -47t50 -127q0 -107 -72.5 -179.5t-179.5 -72.5zM731 1253q79 0 130.5 59t51.5 134q0 56 -33.5 88.5t-91.5 32.5q-80 0 -131 -58.5t-51 -138.5q0 -54 33.5 -85.5t91.5 -31.5zM516 -20q-187 0 -295 93.5
t-108 250.5q0 26 8 84l119 667h98l-117 -657q-8 -54 -8 -76q0 -128 82.5 -202t226.5 -74q164 0 282 98t146 256l117 655h98l-118 -676q-34 -190 -179.5 -304.5t-351.5 -114.5z" />
    <glyph glyph-name="Uhungarumlaut" unicode="&#x170;" horiz-adv-x="1609" 
d="M803 1710l268 297h127l-307 -297h-88zM1071 1710l268 297h127l-307 -297h-88zM694 -20q-243 0 -384.5 120.5t-141.5 323.5q0 46 10 108l174 984h105l-174 -984q-9 -49 -9 -94q0 -171 114.5 -270.5t313.5 -99.5q225 0 387 129.5t199 337.5l174 981h105l-176 -992
q-43 -247 -234 -395.5t-463 -148.5z" />
    <glyph glyph-name="uhungarumlaut" unicode="&#x171;" horiz-adv-x="1251" 
d="M545 1270l268 297h127l-307 -297h-88zM813 1270l268 297h127l-307 -297h-88zM516 -20q-187 0 -295 93.5t-108 250.5q0 26 8 84l119 667h98l-117 -657q-8 -54 -8 -76q0 -128 82.5 -202t226.5 -74q164 0 282 98t146 256l117 655h98l-118 -676q-34 -190 -179.5 -304.5
t-351.5 -114.5z" />
    <glyph glyph-name="Uogonek" unicode="&#x172;" horiz-adv-x="1609" 
d="M1462 1516h105l-176 -992q-35 -201 -171.5 -340t-338.5 -184q-145 -86 -218 -169t-73 -155q0 -37 23 -59.5t61 -22.5q70 0 137 54l2 -62q-75 -57 -166 -57q-65 0 -103 34.5t-38 92.5q0 79 62 162.5t180 163.5q-18 -2 -54 -2q-243 0 -384.5 120.5t-141.5 323.5
q0 46 10 108l174 984h105l-174 -984q-9 -49 -9 -94q0 -171 114.5 -270.5t313.5 -99.5q225 0 387 129.5t199 337.5z" />
    <glyph glyph-name="uogonek" unicode="&#x173;" horiz-adv-x="1251" 
d="M1067 1075h98l-118 -676q-28 -151 -127 -257t-248 -144q-143 -85 -216 -167.5t-73 -154.5q0 -37 23 -59.5t61 -22.5q70 0 137 54l2 -62q-75 -57 -166 -57q-65 0 -103 34.5t-38 92.5q0 78 62 161t178 163h-23q-187 0 -295 93.5t-108 250.5q0 26 8 84l119 667h98l-117 -657
q-8 -54 -8 -76q0 -128 82.5 -202t226.5 -74q164 0 282 98t146 256z" />
    <glyph glyph-name="Wcircumflex" unicode="&#x174;" horiz-adv-x="2230" 
d="M1348 1950l-265 -240h-98l318 297h108l209 -297h-96zM2249 1516h114l-817 -1516h-100l-201 1364l-690 -1364h-100l-281 1516h113l245 -1375l685 1375h102l199 -1375z" />
    <glyph glyph-name="wcircumflex" unicode="&#x175;" horiz-adv-x="1855" 
d="M1083 1509l-264 -239h-98l317 297h109l209 -297h-96zM1792 1075h111l-617 -1075h-102l-199 954l-541 -954h-102l-236 1075h109l201 -960l542 960h91l200 -960z" />
    <glyph glyph-name="Ycircumflex" unicode="&#x176;" horiz-adv-x="1310" 
d="M889 1950l-264 -240h-99l318 297h108l209 -297h-96zM1309 1516h123l-725 -881l-113 -635h-107l115 635l-414 881h117l363 -781z" />
    <glyph glyph-name="ycircumflex" unicode="&#x177;" horiz-adv-x="1263" 
d="M774 1509l-264 -239h-98l317 297h109l209 -297h-97zM1065 1075h98l-268 -1526h-918l15 84h819l98 560q-138 -213 -422 -213q-173 0 -273.5 91.5t-100.5 243.5q0 26 8 84l119 676h98l-117 -657q-6 -43 -6 -76q0 -128 81.5 -202t225.5 -74q164 0 281.5 96t146.5 254v4z" />
    <glyph glyph-name="Ydieresis" unicode="&#x178;" horiz-adv-x="1310" 
d="M678 1823q-29 0 -47.5 19.5t-18.5 47.5q0 35 25 58.5t57 23.5q29 0 47.5 -19t18.5 -48q0 -35 -25 -58.5t-57 -23.5zM1063 1823q-30 0 -49 19.5t-19 47.5q0 35 25.5 58.5t56.5 23.5t49.5 -19t18.5 -48q0 -35 -25.5 -58.5t-56.5 -23.5zM487 0l115 635l-414 881h117
l363 -781l641 781h123l-725 -881l-113 -635h-107z" />
    <glyph glyph-name="Zacute" unicode="&#x179;" horiz-adv-x="1144" 
d="M1141 2007l-353 -297h-92l314 297h131zM1229 1516l-1098 -1428h858l-16 -88h-1028l1097 1427h-833l16 89h1004z" />
    <glyph glyph-name="zacute" unicode="&#x17a;" horiz-adv-x="985" 
d="M539 1270l313 297h131l-352 -297h-92zM-49 0l858 991h-674l15 84h837l-858 -991h692l-14 -84h-856z" />
    <glyph glyph-name="Zdotaccent" unicode="&#x17b;" horiz-adv-x="1144" 
d="M788 1823q-29 0 -48 20t-19 49q0 35 23.5 57.5t56.5 22.5q29 0 48 -19t19 -50q0 -33 -23.5 -56.5t-56.5 -23.5zM1229 1516l-1098 -1428h858l-16 -88h-1028l1097 1427h-833l16 89h1004z" />
    <glyph glyph-name="zdotaccent" unicode="&#x17c;" horiz-adv-x="985" 
d="M631 1382q-29 0 -48.5 20.5t-19.5 49.5q0 35 23.5 57.5t56.5 22.5q29 0 48.5 -19.5t19.5 -50.5q0 -33 -23.5 -56.5t-56.5 -23.5zM-49 0l858 991h-674l15 84h837l-858 -991h692l-14 -84h-856z" />
    <glyph glyph-name="Zcaron" unicode="&#x17d;" horiz-adv-x="1144" 
d="M813 1710h-106l-213 297h100l176 -240l260 240h98zM1229 1516l-1098 -1428h858l-16 -88h-1028l1097 1427h-833l16 89h1004z" />
    <glyph glyph-name="zcaron" unicode="&#x17e;" horiz-adv-x="985" 
d="M655 1270h-106l-213 297h100l176 -240l260 240h99zM987 1075l-858 -991h692l-14 -84h-856l858 991h-674l15 84h837z" />
    <glyph glyph-name="florin" unicode="&#x192;" horiz-adv-x="954" 
d="M913 1536q82 0 148 -27l-21 -82q-62 21 -137 21q-102 0 -189.5 -66t-127.5 -182l-158 -450h428l-16 -88h-443l-305 -867h-104l303 867h-178l16 88h193l167 481q52 149 163 227t261 78z" />
    <glyph glyph-name="Scommaaccent" unicode="&#x218;" horiz-adv-x="1239" 
d="M496 -20q-148 0 -267.5 44t-181.5 130l53 71q128 -157 394 -157q136 0 248.5 44.5t179.5 126.5t67 185q0 56 -25.5 101t-77.5 80.5t-111.5 61.5t-145.5 54l-103 33q-55 17 -99 35t-87 45.5t-71.5 60.5t-46 78.5t-17.5 99.5q0 135 76.5 241.5t206.5 164t288 57.5
q291 0 430 -176l-61 -70q-128 158 -373 158q-194 0 -324.5 -101t-130.5 -253q0 -52 21 -92.5t62.5 -69.5t83.5 -48t104 -38l108 -33q45 -15 80.5 -27.5t79 -32.5t76 -40.5t65.5 -49.5t54 -60.5t34 -73t13 -87.5q0 -138 -82 -244.5t-218 -162t-302 -55.5zM317 -451l177 345
h96l-193 -345h-80z" />
    <glyph glyph-name="scommaaccent" unicode="&#x219;" horiz-adv-x="946" 
d="M354 -20q-114 0 -202.5 28.5t-135.5 81.5l47 57q101 -88 295 -88q138 0 236 71.5t98 174.5q0 129 -205 189l-118 36q-113 33 -175.5 85t-62.5 141q0 148 119.5 244t294.5 96q200 0 338 -95l-52 -67q-108 80 -282 80q-133 0 -223 -67.5t-90 -168.5q0 -65 46 -101t136 -65
l119 -39q258 -80 258 -254q0 -151 -126.5 -245t-314.5 -94zM162 -451l176 345h96l-192 -345h-80z" />
    <glyph glyph-name="uni021A" unicode="&#x21a;" horiz-adv-x="1146" 
d="M1278 1516l-16 -89h-500l-252 -1427h-104l251 1427h-499l16 89h1104zM231 -451l177 345h96l-193 -345h-80z" />
    <glyph glyph-name="uni021B" unicode="&#x21b;" horiz-adv-x="665" 
d="M760 1075l-15 -84h-282l-176 -991h-99l177 991h-283l14 84h283l55 316h98l-55 -316h283zM12 -451l176 345h97l-193 -345h-80z" />
    <glyph glyph-name="circumflex" unicode="&#x2c6;" horiz-adv-x="1228" 
d="M858 1270h-96l-176 239l-264 -239h-99l318 297h108z" />
    <glyph glyph-name="caron" unicode="&#x2c7;" horiz-adv-x="1228" 
d="M811 1567h98l-315 -297h-107l-213 297h101l176 -240z" />
    <glyph glyph-name="breve" unicode="&#x2d8;" horiz-adv-x="1228" 
d="M537 1249q-124 0 -196.5 68t-72.5 182q0 33 6 68h84q-6 -35 -6 -62q0 -88 50 -139t139 -51q103 0 177 70t95 182h84q-25 -146 -123 -232t-237 -86z" />
    <glyph glyph-name="dotaccent" unicode="&#x2d9;" horiz-adv-x="1228" 
d="M379 1382q-29 0 -48.5 20.5t-19.5 49.5q0 35 23.5 57.5t56.5 22.5q29 0 48.5 -19.5t19.5 -50.5q0 -33 -23.5 -56.5t-56.5 -23.5z" />
    <glyph glyph-name="ring" unicode="&#x2da;" horiz-adv-x="1228" 
d="M471 1196q-86 0 -136 47t-50 127q0 110 71.5 181t180.5 71q86 0 136 -47t50 -127q0 -107 -72.5 -179.5t-179.5 -72.5zM475 1253q79 0 130.5 59t51.5 134q0 56 -33.5 88.5t-91.5 32.5q-80 0 -131 -58.5t-51 -138.5q0 -54 33.5 -85.5t91.5 -31.5z" />
    <glyph glyph-name="ogonek" unicode="&#x2db;" horiz-adv-x="1228" 
d="M158 -471q-65 0 -103.5 35t-38.5 92q0 94 89 194t255 195l31 -45q-145 -86 -218 -169t-73 -155q0 -37 23 -59.5t61 -22.5q71 0 138 54l2 -62q-75 -57 -166 -57z" />
    <glyph glyph-name="tilde" unicode="&#x2dc;" horiz-adv-x="1228" 
d="M776 1290q-38 0 -72.5 16.5t-60.5 40t-51 47t-55 40t-62 16.5q-54 0 -95.5 -37.5t-53.5 -101.5h-68q15 97 79.5 159t145.5 62q39 0 73.5 -16.5t60.5 -39.5t50.5 -46t54.5 -39.5t62 -16.5q54 0 96 37t52 100h69q-17 -98 -80.5 -159.5t-144.5 -61.5z" />
    <glyph glyph-name="hungarumlaut" unicode="&#x2dd;" horiz-adv-x="1228" 
d="M428 1270l268 297h127l-307 -297h-88zM696 1270l269 297h127l-308 -297h-88z" />
    <glyph glyph-name="gravecomb" unicode="&#x300;" 
d="M-244 1270l-245 297h124l209 -297h-88z" />
    <glyph glyph-name="acutecomb" unicode="&#x301;" 
d="M-270 1270l313 297h131l-352 -297h-92z" />
    <glyph glyph-name="uni0302" unicode="&#x302;" 
d="M4 1270h-96l-176 239l-264 -239h-99l318 297h108z" />
    <glyph glyph-name="tildecomb" unicode="&#x303;" 
d="M-176 1290q-38 0 -72.5 16.5t-60.5 40t-51 47t-55 40t-62 16.5q-54 0 -96 -37.5t-54 -101.5h-67q15 97 79.5 159t145.5 62q39 0 73.5 -16.5t60.5 -39.5t50.5 -46t54.5 -39.5t62 -16.5q54 0 96 37t52 100h69q-17 -98 -80.5 -159.5t-144.5 -61.5z" />
    <glyph glyph-name="uni0304" unicode="&#x304;" 
d="M-606 1341l14 82h602l-14 -82h-602z" />
    <glyph glyph-name="uni0306" unicode="&#x306;" 
d="M-272 1249q-124 0 -196.5 68t-72.5 182q0 33 6 68h84q-6 -35 -6 -62q0 -88 50 -139t139 -51q103 0 177 70t95 182h84q-25 -146 -123 -232t-237 -86z" />
    <glyph glyph-name="uni0307" unicode="&#x307;" 
d="M-66 1382q-29 0 -48 20t-19 50q0 35 23.5 57.5t56.5 22.5q29 0 48 -19.5t19 -50.5q0 -33 -23.5 -56.5t-56.5 -23.5z" />
    <glyph glyph-name="uni0308" unicode="&#x308;" 
d="M-453 1382q-29 0 -47 20t-18 48q0 35 25 58.5t57 23.5q29 0 47 -19t18 -49q0 -35 -25 -58.5t-57 -23.5zM-68 1382q-30 0 -48.5 19.5t-18.5 48.5q0 35 25.5 58.5t56.5 23.5q30 0 48.5 -19t18.5 -49q0 -35 -25.5 -58.5t-56.5 -23.5z" />
    <glyph glyph-name="uni030A" unicode="&#x30a;" 
d="M-229 1196q-86 0 -136.5 47t-50.5 127q0 110 71.5 181t180.5 71q86 0 136.5 -47t50.5 -127q0 -107 -72.5 -179.5t-179.5 -72.5zM-225 1253q79 0 130.5 59t51.5 134q0 56 -33.5 88.5t-91.5 32.5q-80 0 -131 -58.5t-51 -138.5q0 -54 33.5 -85.5t91.5 -31.5z" />
    <glyph glyph-name="uni030B" unicode="&#x30b;" 
d="M-551 1270l268 297h127l-307 -297h-88zM-283 1270l269 297h127l-308 -297h-88z" />
    <glyph glyph-name="uni030C" unicode="&#x30c;" 
d="M-43 1567h98l-315 -297h-107l-213 297h101l176 -240z" />
    <glyph glyph-name="uni0312" unicode="&#x312;" 
d="M-131 1214l213 383h80l-197 -383h-96z" />
    <glyph glyph-name="uni0326" unicode="&#x326;" 
d="M-416 -451l176 345h97l-193 -345h-80z" />
    <glyph glyph-name="uni0327" unicode="&#x327;" 
d="M-389 -141q88 0 139 -38t51 -102q0 -88 -76 -139t-188 -51q-117 0 -184 61l35 50q55 -52 145 -52q78 0 133 35.5t55 91.5q0 41 -37 64.5t-100 23.5q-56 0 -108 -18l-15 35l146 180h74l-121 -145q32 4 51 4z" />
    <glyph glyph-name="uni0328" unicode="&#x328;" 
d="M-367 -471q-65 0 -103 34.5t-38 92.5q0 94 89 194t255 195l31 -45q-145 -86 -218 -169t-73 -155q0 -37 23 -59.5t61 -22.5q70 0 137 54l2 -62q-75 -57 -166 -57z" />
    <glyph glyph-name="uni0335" unicode="&#x335;" 
d="M-1036 549l12 76h725l-12 -76h-725z" />
    <glyph glyph-name="uni0336" unicode="&#x336;" 
d="M-1743 549l14 76h1563l-14 -76h-1563z" />
    <glyph glyph-name="uni0337" unicode="&#x337;" 
d="M-502 918l283 174l-17 -86l-280 -175l2 13l-281 -176l15 86l280 176z" />
    <glyph glyph-name="uni0338" unicode="&#x338;" 
d="M-1018 -20l-57 40l1153 1516l59 -41z" />
    <glyph glyph-name="uni0394" unicode="&#x394;" horiz-adv-x="1585" 
d="M999 1516l404 -1516h-1444l940 1516h100zM127 88h1141l-338 1303z" />
    <glyph glyph-name="uni03A9" unicode="&#x3a9;" horiz-adv-x="1576" 
d="M18 0l17 88h420l41 221q-162 53 -251 175t-89 298q0 159 61 299.5t165.5 240t250.5 157t311 57.5q266 0 421 -139t155 -373q0 -252 -148.5 -449.5t-394.5 -267.5l-41 -219h420l-17 -88h-512l66 375q153 33 272 129t182.5 230.5t63.5 285.5q0 197 -127.5 312.5
t-347.5 115.5q-142 0 -267 -52t-213 -141t-139 -210.5t-51 -256.5q0 -161 85.5 -268t242.5 -145l-66 -375h-510z" />
    <glyph glyph-name="uni03BC" unicode="&#x3bc;" horiz-adv-x="1277" 
d="M1079 1075h99l-191 -1075h-96l33 188q-133 -208 -402 -208q-136 0 -217 57.5t-108 161.5l-115 -650h-98l270 1526h98l-116 -657q-28 -161 54.5 -256.5t248.5 -95.5q160 0 276 93.5t148 246.5l2 14z" />
    <glyph glyph-name="pi" unicode="&#x3c0;" horiz-adv-x="1386" 
d="M1081 991l-137 -776q-4 -28 -4 -39q0 -52 27 -81t77 -29q81 0 150 38l-6 -81q-74 -43 -182 -43q-77 0 -121.5 45.5t-44.5 121.5q0 32 4 52l139 792h-502l-176 -991h-98l176 991h-274l14 84h1247l-14 -84h-275z" />
    <glyph glyph-name="Wgrave" unicode="&#x1e80;" horiz-adv-x="2230" 
d="M1266 1710l-246 297h125l209 -297h-88zM455 0l-281 1516h113l245 -1375l685 1375h102l199 -1375l731 1375h114l-817 -1516h-100l-201 1364l-690 -1364h-100z" />
    <glyph glyph-name="wgrave" unicode="&#x1e81;" horiz-adv-x="1855" 
d="M1001 1270l-245 297h125l209 -297h-89zM342 0l-236 1075h109l201 -960l542 960h91l200 -960l543 960h111l-617 -1075h-102l-199 954l-541 -954h-102z" />
    <glyph glyph-name="Wacute" unicode="&#x1e82;" horiz-adv-x="2230" 
d="M1239 1710l313 297h131l-352 -297h-92zM455 0l-281 1516h113l245 -1375l685 1375h102l199 -1375l731 1375h114l-817 -1516h-100l-201 1364l-690 -1364h-100z" />
    <glyph glyph-name="wacute" unicode="&#x1e83;" horiz-adv-x="1855" 
d="M975 1270l313 297h131l-352 -297h-92zM342 0l-236 1075h109l201 -960l542 960h91l200 -960l543 960h111l-617 -1075h-102l-199 954l-541 -954h-102z" />
    <glyph glyph-name="Wdieresis" unicode="&#x1e84;" horiz-adv-x="2230" 
d="M1137 1823q-29 0 -47.5 19.5t-18.5 47.5q0 35 25 58.5t57 23.5q29 0 47.5 -19t18.5 -48q0 -35 -25 -58.5t-57 -23.5zM1522 1823q-30 0 -49 19.5t-19 47.5q0 35 25.5 58.5t56.5 23.5q30 0 49 -19t19 -48q0 -35 -25.5 -58.5t-56.5 -23.5zM455 0l-281 1516h113l245 -1375
l685 1375h102l199 -1375l731 1375h114l-817 -1516h-100l-201 1364l-690 -1364h-100z" />
    <glyph glyph-name="wdieresis" unicode="&#x1e85;" horiz-adv-x="1855" 
d="M872 1382q-29 0 -47 20t-18 48q0 35 25 58.5t57 23.5q29 0 47 -19t18 -49q0 -35 -25 -58.5t-57 -23.5zM1257 1382q-30 0 -48.5 19.5t-18.5 48.5q0 35 25.5 58.5t56.5 23.5q30 0 48.5 -19t18.5 -49q0 -35 -25.5 -58.5t-56.5 -23.5zM342 0l-236 1075h109l201 -960l542 960
h91l200 -960l543 960h111l-617 -1075h-102l-199 954l-541 -954h-102z" />
    <glyph glyph-name="uni1E9E" unicode="&#x1e9e;" horiz-adv-x="1353" 
d="M631 -20q-125 0 -211 43l14 86q78 -41 191 -41q131 0 239.5 51.5t172 144t63.5 205.5q0 130 -102.5 206.5t-278.5 76.5l14 84q177 0 298.5 105t121.5 257q0 116 -87 183t-239 67q-169 0 -288 -86.5t-144 -226.5l-200 -1135h-105l203 1155q31 173 179 277t362 104
q198 0 314 -87.5t116 -234.5q0 -149 -97.5 -263t-253.5 -156q137 -31 215 -119.5t78 -212.5q0 -107 -46 -198.5t-124 -153.5t-183 -96.5t-222 -34.5z" />
    <glyph glyph-name="Ygrave" unicode="&#x1ef2;" horiz-adv-x="1310" 
d="M807 1710l-246 297h125l209 -297h-88zM487 0l115 635l-414 881h117l363 -781l641 781h123l-725 -881l-113 -635h-107z" />
    <glyph glyph-name="ygrave" unicode="&#x1ef3;" horiz-adv-x="1263" 
d="M780 1270h-88l-246 297h125zM1065 1075h98l-268 -1526h-918l15 84h819l98 560q-138 -213 -422 -213q-173 0 -273.5 91.5t-100.5 243.5q0 26 8 84l119 676h98l-117 -657q-6 -43 -6 -76q0 -128 81.5 -202t225.5 -74q164 0 281.5 96t146.5 254v4z" />
    <glyph glyph-name="endash" unicode="&#x2013;" horiz-adv-x="1126" 
d="M135 549l12 76h824l-13 -76h-823z" />
    <glyph glyph-name="emdash" unicode="&#x2014;" horiz-adv-x="1785" 
d="M135 549l12 76h1481l-12 -76h-1481z" />
    <glyph glyph-name="quoteleft" unicode="&#x2018;" horiz-adv-x="442" 
d="M506 1516l-213 -418h-105l228 418h90z" />
    <glyph glyph-name="quoteright" unicode="&#x2019;" horiz-adv-x="438" 
d="M190 1098l213 418h105l-227 -418h-91z" />
    <glyph glyph-name="quotesinglbase" unicode="&#x201a;" horiz-adv-x="411" 
d="M-127 -287l213 418h104l-227 -418h-90z" />
    <glyph glyph-name="quotedblleft" unicode="&#x201c;" horiz-adv-x="708" 
d="M508 1513l-211 -415h-104l227 415h88zM770 1513l-213 -415h-104l227 415h90z" />
    <glyph glyph-name="quotedblright" unicode="&#x201d;" horiz-adv-x="700" 
d="M193 1100l213 418h104l-227 -418h-90zM455 1100l211 418h104l-227 -418h-88z" />
    <glyph glyph-name="quotedblbase" unicode="&#x201e;" horiz-adv-x="671" 
d="M-127 -287l213 418h104l-227 -418h-90zM135 -287l211 418h105l-228 -418h-88z" />
    <glyph glyph-name="dagger" unicode="&#x2020;" horiz-adv-x="1050" 
d="M1047 1075l-17 -90h-393l-254 -1436h-104l253 1436h-395l17 90h395l92 522h104l-92 -522h394z" />
    <glyph glyph-name="daggerdbl" unicode="&#x2021;" horiz-adv-x="1050" 
d="M1030 985h-393l-57 -330h393l-17 -88h-393l-180 -1018h-104l180 1018h-393l16 88h393l57 330h-395l17 90h395l92 522h104l-92 -522h394z" />
    <glyph glyph-name="bullet" unicode="&#x2022;" horiz-adv-x="718" 
d="M344 496q-68 0 -108.5 39.5t-40.5 105.5q0 78 51.5 130t130.5 52q68 0 108.5 -39.5t40.5 -105.5q0 -78 -51.5 -130t-130.5 -52z" />
    <glyph glyph-name="ellipsis" unicode="&#x2026;" horiz-adv-x="1173" 
d="M111 -20q-33 0 -54.5 22t-21.5 55q0 38 27 64t65 26q33 0 54.5 -22t21.5 -55q0 -37 -27 -63.5t-65 -26.5zM485 -20q-33 0 -54 22t-21 55q0 38 27.5 64t66.5 26q33 0 54.5 -22t21.5 -55q0 -37 -28.5 -63.5t-66.5 -26.5zM862 -20q-34 0 -55 22t-21 55q0 38 27 64t66 26
q33 0 54 -22t21 -55q0 -37 -27.5 -63.5t-64.5 -26.5z" />
    <glyph glyph-name="perthousand" unicode="&#x2030;" horiz-adv-x="2236" 
d="M221 -20l-57 40l1163 1516l57 -41zM446 866q-128 0 -202 72.5t-74 196.5q0 169 108.5 285t274.5 116q127 0 200.5 -72t73.5 -194q0 -170 -108.5 -287t-272.5 -117zM455 938q121 0 201.5 97.5t80.5 230.5q0 93 -51 145.5t-141 52.5q-125 0 -205 -98t-80 -229
q0 -93 51.5 -146t143.5 -53zM993 -20q-128 0 -202 72t-74 196q0 169 108.5 285t274.5 116q127 0 200.5 -72.5t73.5 -195.5q0 -169 -108.5 -285t-272.5 -116zM1733 -20q-129 0 -203 72.5t-74 195.5q0 169 108.5 285t274.5 116q127 0 201 -72.5t74 -195.5q0 -169 -108.5 -285
t-272.5 -116zM999 51q123 0 204 97t81 231q0 93 -51 146t-141 53q-125 0 -205 -98.5t-80 -229.5q0 -93 51 -146t141 -53zM1739 51q123 0 203.5 97t80.5 231q0 93 -51 146t-141 53q-125 0 -205 -98.5t-80 -229.5q0 -93 51.5 -146t141.5 -53z" />
    <glyph glyph-name="guilsinglleft" unicode="&#x2039;" horiz-adv-x="667" 
d="M360 98l-278 455l438 455h107l-432 -455l268 -455h-103z" />
    <glyph glyph-name="guilsinglright" unicode="&#x203a;" horiz-adv-x="669" 
d="M279 1008l276 -455l-436 -455h-109l432 455l-268 455h105z" />
    <glyph glyph-name="fraction" unicode="&#x2044;" horiz-adv-x="382" 
d="M-340 -20l-57 40l1155 1516l59 -41z" />
    <glyph glyph-name="uni2070" unicode="&#x2070;" horiz-adv-x="778" 
d="M430 799q-116 0 -182 89.5t-66 244.5q0 147 49 283t144 226.5t213 90.5t185 -89.5t67 -242.5q0 -110 -29.5 -217.5t-81.5 -193t-130.5 -138.5t-168.5 -53zM440 866q71 0 132.5 49.5t101.5 128t63 172.5t23 185q0 124 -47 194t-133 70q-71 0 -132.5 -49.5t-101.5 -127.5
t-63 -172t-23 -186q0 -124 47 -194t133 -70z" />
    <glyph glyph-name="uni2074" unicode="&#x2074;" horiz-adv-x="759" 
d="M522 811l37 201h-457l11 59l581 649h68l-113 -641h139l-12 -67h-139l-35 -201h-80zM201 1075h370l91 512z" />
    <glyph glyph-name="uni2075" unicode="&#x2075;" horiz-adv-x="714" 
d="M350 799q-175 0 -248 88l31 55q67 -76 217 -76q124 0 209.5 74t85.5 184q0 75 -49 119.5t-133 44.5q-82 0 -182 -35l-56 9l144 458h424l-13 -67h-352l-109 -322q79 23 162 23q114 0 180 -59.5t66 -159.5q0 -147 -109.5 -241.5t-267.5 -94.5z" />
    <glyph glyph-name="uni2076" unicode="&#x2076;" horiz-adv-x="706" 
d="M502 1360q106 0 168.5 -60t62.5 -161q0 -143 -98.5 -241.5t-245.5 -98.5q-116 0 -182 60t-66 163q0 135 109 260l368 438h91l-328 -379q59 19 121 19zM401 866q109 0 179.5 78t70.5 186q0 77 -46.5 122.5t-127.5 45.5q-108 0 -180 -77t-72 -187q0 -78 46.5 -123
t129.5 -45z" />
    <glyph glyph-name="uni2077" unicode="&#x2077;" horiz-adv-x="630" 
d="M217 1720h569l-489 -909h-84l455 842h-461z" />
    <glyph glyph-name="uni2078" unicode="&#x2078;" horiz-adv-x="747" 
d="M606 1282q135 -52 135 -188q0 -129 -96.5 -212t-236.5 -83q-118 0 -186 56.5t-68 152.5q0 100 59 173t156 103q-113 49 -113 172q0 121 88 199t219 78q107 0 169.5 -53.5t62.5 -143.5t-51.5 -157t-137.5 -97zM557 1665q-95 0 -158 -61.5t-63 -151.5q0 -64 42 -100.5
t114 -36.5q94 0 157.5 62.5t63.5 152.5q0 62 -42 98.5t-114 36.5zM412 866q106 0 178 67t72 165q0 69 -48.5 110t-130.5 41q-105 0 -176 -68t-71 -165q0 -69 46.5 -109.5t129.5 -40.5z" />
    <glyph glyph-name="uni2079" unicode="&#x2079;" horiz-adv-x="706" 
d="M543 1733q116 0 182 -60.5t66 -163.5q0 -135 -109 -260l-369 -438h-90l328 379q-59 -19 -121 -19q-106 0 -168.5 60.5t-62.5 161.5q0 143 98.5 241.5t245.5 98.5zM455 1233q108 0 180 77t72 187q0 78 -47 123t-130 45q-109 0 -179 -78t-70 -186q0 -77 46.5 -122.5
t127.5 -45.5z" />
    <glyph glyph-name="uni2080" unicode="&#x2080;" horiz-adv-x="778" 
d="M250 -217q-116 0 -182 89.5t-66 244.5q0 147 49 283t144 226.5t213 90.5t184.5 -89.5t66.5 -242.5q0 -149 -49.5 -285.5t-145 -226.5t-214.5 -90zM260 -150q71 0 132.5 49.5t101.5 128t63 172.5t23 185q0 124 -47.5 194t-133.5 70q-94 0 -169 -84t-112.5 -204.5
t-37.5 -245.5q0 -124 47 -194.5t133 -70.5z" />
    <glyph glyph-name="uni2081" unicode="&#x2081;" horiz-adv-x="415" 
d="M49 -205l148 842h-170l12 68h248l-160 -910h-78z" />
    <glyph glyph-name="uni2082" unicode="&#x2082;" horiz-adv-x="704" 
d="M-82 -205l10 51l332 299q4 4 32 29.5t35.5 33t33 32t35 36t30.5 35.5t29.5 38.5t23 38t20 42t10.5 40.5t5 44q0 64 -42.5 99.5t-117.5 35.5q-89 0 -151 -51.5t-76 -136.5l-82 12q22 111 107 177.5t206 66.5q109 0 173.5 -52.5t64.5 -142.5q0 -49 -19.5 -100.5t-44.5 -91
t-71.5 -88.5t-77.5 -77.5t-84 -74.5l-260 -229l457 2l-13 -68h-565z" />
    <glyph glyph-name="uni2083" unicode="&#x2083;" horiz-adv-x="706" 
d="M616 705l-10 -50l-381 -344q18 2 56 2q118 0 184.5 -58t66.5 -157q0 -139 -103.5 -227t-256.5 -88q-87 0 -151 27.5t-95 78.5l39 56q56 -95 209 -95q117 0 197 68.5t80 173.5q0 74 -54 117t-147 43q-72 0 -150 -31l-16 41l408 375h-402l12 68h514z" />
    <glyph glyph-name="uni2084" unicode="&#x2084;" horiz-adv-x="759" 
d="M342 -205l37 201h-457l10 59l582 650h68l-113 -642h139l-12 -67h-139l-35 -201h-80zM20 59h371l90 512z" />
    <glyph glyph-name="uni2085" unicode="&#x2085;" horiz-adv-x="714" 
d="M170 -217q-175 0 -248 88l31 55q67 -76 217 -76q124 0 209.5 74.5t85.5 184.5q0 75 -48.5 119t-133.5 44q-86 0 -183 -34l-55 8l143 459h424l-12 -68h-352l-109 -322q79 23 162 23q114 0 180 -59.5t66 -159.5q0 -147 -109.5 -241.5t-267.5 -94.5z" />
    <glyph glyph-name="uni2086" unicode="&#x2086;" horiz-adv-x="706" 
d="M322 344q106 0 168.5 -60t62.5 -161q0 -143 -98.5 -241.5t-245.5 -98.5q-116 0 -182 60t-66 163q0 135 109 260l368 439h90l-327 -379q55 18 121 18zM221 -150q109 0 179.5 78.5t70.5 186.5q0 77 -46.5 122.5t-127.5 45.5q-108 0 -180 -77.5t-72 -187.5q0 -78 46.5 -123
t129.5 -45z" />
    <glyph glyph-name="uni2087" unicode="&#x2087;" horiz-adv-x="630" 
d="M37 705h569l-489 -910h-84l454 842h-460z" />
    <glyph glyph-name="uni2088" unicode="&#x2088;" horiz-adv-x="747" 
d="M426 266q135 -52 135 -188q0 -129 -97 -212t-237 -83q-118 0 -186 56.5t-68 152.5q0 100 59 173t156 103q-112 48 -112 172q0 121 88 199t219 78q107 0 169 -53.5t62 -143.5t-51.5 -157t-136.5 -97zM377 649q-95 0 -158 -61.5t-63 -151.5q0 -64 41.5 -100.5t113.5 -36.5
q94 0 157.5 62.5t63.5 152.5q0 62 -41.5 98.5t-113.5 36.5zM231 -150q106 0 178 67t72 165q0 69 -48 110t-130 41q-105 0 -176.5 -68t-71.5 -165q0 -69 46.5 -109.5t129.5 -40.5z" />
    <glyph glyph-name="uni2089" unicode="&#x2089;" horiz-adv-x="706" 
d="M362 717q116 0 182 -60t66 -163q0 -137 -108 -261l-369 -438h-90l328 379q-55 -18 -121 -18q-106 0 -169 60t-63 161q0 143 98.5 241.5t245.5 98.5zM274 217q108 0 180 77t72 187q0 78 -46.5 123t-129.5 45q-109 0 -179.5 -78t-70.5 -186q0 -77 46.5 -122.5t127.5 -45.5z
" />
    <glyph glyph-name="Euro" unicode="&#x20ac;" horiz-adv-x="1632" 
d="M1087 1536q331 0 523 -250l-76 -61q-169 223 -447 223q-272 0 -473.5 -163.5t-277.5 -422.5h635l-15 -76h-639q-13 -72 -16 -131h633l-12 -73h-623q6 -238 146.5 -376t385.5 -138q164 0 317 75t261 199l64 -74q-125 -135 -293 -211.5t-359 -76.5q-289 0 -458.5 163
t-172.5 439h-133l15 73h121q3 59 16 131h-115l15 76h116q80 298 313 486t549 188z" />
    <glyph glyph-name="uni20B9" unicode="&#x20b9;" horiz-adv-x="1323" 
d="M1380 1516l-14 -74h-434q88 -46 135 -128.5t47 -189.5q0 -33 -2 -49h178l-14 -74h-174q-31 -145 -129 -253t-240 -156l289 -592h-123l-272 565q-47 -6 -92 -6h-402l19 88h374q170 0 297 99.5t168 254.5h-780l14 74h779q2 16 2 47q0 141 -91.5 223t-250.5 82h-377l2 15
l14 74h1077z" />
    <glyph glyph-name="uni20BD" unicode="&#x20bd;" horiz-adv-x="1275" 
d="M727 672h-389l-23 -131h557l-14 -74h-557l-82 -467h-106l82 467h-105l14 74h105l22 131h-104l14 76h105l135 768h483q193 0 305.5 -94t112.5 -253q0 -144 -74.5 -258.5t-201 -176.5t-279.5 -62zM471 1427l-117 -665h361q194 0 325 112t131 285q0 124 -88.5 196t-244.5 72
h-367z" />
    <glyph glyph-name="trademark" unicode="&#x2122;" horiz-adv-x="1456" 
d="M690 1540h-194l-95 -528h-67l94 528h-195l11 57h456zM1358 1597h69l-67 -585h-70l58 473l-306 -473h-47l-137 477l-113 -477h-67l141 585h68l143 -505z" />
    <glyph glyph-name="oneeighth" unicode="&#x215b;" horiz-adv-x="1546" 
d="M1174 1536l59 -41l-1157 -1515l-58 40zM193 606l147 842h-170l12 68h248l-160 -910h-77zM1262 471q135 -52 135 -188q0 -129 -97 -212t-237 -83q-118 0 -186 56.5t-68 152.5q0 100 59 173t156 103q-113 49 -113 172q0 121 88.5 199t219.5 78q107 0 169 -53.5t62 -143.5
t-51.5 -157t-136.5 -97zM1212 854q-95 0 -158 -61.5t-63 -151.5q0 -64 42 -100.5t114 -36.5q94 0 157.5 62.5t63.5 152.5q0 62 -42 98.5t-114 36.5zM1067 55q106 0 178 67t72 165q0 69 -48 110t-130 41q-105 0 -176.5 -68t-71.5 -165q0 -69 46.5 -109.5t129.5 -40.5z" />
    <glyph glyph-name="threeeighths" unicode="&#x215c;" horiz-adv-x="1837" 
d="M1464 1536l60 -41l-1157 -1515l-58 40zM676 909q0 -139 -104 -227t-257 -88q-86 0 -150 27.5t-95 78.5l39 56q56 -94 208 -94q117 0 197 68t80 173q0 74 -54 117t-147 43q-71 0 -149 -31l-17 41l408 375h-402l13 68h514l-10 -50l-381 -344q18 2 55 2q118 0 185 -58
t67 -157zM1552 471q65 -25 100.5 -73t35.5 -115q0 -129 -97 -212t-237 -83q-118 0 -186 56.5t-68 152.5q0 100 59 173t156 103q-113 49 -113 172q0 121 88 199t219 78q107 0 169.5 -53.5t62.5 -143.5t-51.5 -157t-137.5 -97zM1503 854q-95 0 -158 -61.5t-63 -151.5
q0 -64 42 -100.5t114 -36.5q94 0 157.5 62.5t63.5 152.5q0 62 -42 98.5t-114 36.5zM1358 55q106 0 178 67t72 165q0 69 -48 110t-130 41q-105 0 -176.5 -68t-71.5 -165q0 -69 46.5 -109.5t129.5 -40.5z" />
    <glyph glyph-name="fiveeighths" unicode="&#x215d;" horiz-adv-x="1845" 
d="M1473 1536l59 -41l-1157 -1515l-58 40zM690 930q0 -147 -109.5 -241.5t-267.5 -94.5q-174 0 -247 88l30 55q67 -75 217 -75q124 0 209.5 74t85.5 184q0 75 -48.5 119t-133.5 44t-182 -34l-56 8l144 459h424l-13 -68h-352l-108 -322q79 23 161 23q114 0 180 -59.5
t66 -159.5zM1561 471q135 -52 135 -188q0 -129 -97 -212t-237 -83q-118 0 -186 56.5t-68 152.5q0 100 59 173t156 103q-113 49 -113 172q0 121 88.5 199t219.5 78q107 0 169 -53.5t62 -143.5t-51.5 -157t-136.5 -97zM1511 854q-95 0 -158 -61.5t-63 -151.5q0 -64 42 -100.5
t114 -36.5q94 0 157.5 62.5t63.5 152.5q0 62 -42 98.5t-114 36.5zM1366 55q106 0 178 67t72 165q0 69 -48 110t-130 41q-105 0 -176.5 -68t-71.5 -165q0 -69 46.5 -109.5t129.5 -40.5z" />
    <glyph glyph-name="seveneighths" unicode="&#x215e;" horiz-adv-x="1708" 
d="M1335 1536l60 -41l-1157 -1515l-58 40zM260 606h-84l455 842h-461l10 68h570zM1423 471q65 -25 100.5 -73t35.5 -115q0 -129 -97 -212t-237 -83q-118 0 -186 56.5t-68 152.5q0 100 59 173t156 103q-113 49 -113 172q0 121 88 199t219 78q107 0 169.5 -53.5t62.5 -143.5
t-51.5 -157t-137.5 -97zM1374 854q-95 0 -158 -61.5t-63 -151.5q0 -64 42 -100.5t114 -36.5q94 0 157.5 62.5t63.5 152.5q0 62 -42 98.5t-114 36.5zM1229 55q106 0 178 67t72 165q0 69 -48.5 110t-130.5 41q-105 0 -176 -68t-71 -165q0 -69 46.5 -109.5t129.5 -40.5z" />
    <glyph glyph-name="partialdiff" unicode="&#x2202;" horiz-adv-x="1277" 
d="M768 1536q206 0 322 -149.5t116 -407.5q0 -129 -25.5 -254t-73 -235.5t-119 -204t-159 -161.5t-197.5 -106t-231 -38q-179 0 -284 84.5t-105 226.5q0 113 63.5 206t169 155.5t247 106t292 64.5t308.5 23q8 60 8 137q0 216 -90.5 340.5t-251.5 124.5q-242 0 -449 -229
l-59 73q241 244 518 244zM408 68q130 0 245 55.5t198.5 151.5t141 219.5t84.5 263.5q-137 -2 -270 -19.5t-258.5 -55t-220.5 -90.5t-152 -131t-57 -171q0 -103 77 -163t212 -60z" />
    <glyph glyph-name="emptyset" unicode="&#x2205;" horiz-adv-x="1355" 
d="M1298 1221l-143 -131q80 -113 80 -273q0 -185 -82 -338.5t-229.5 -243.5t-329.5 -90q-216 0 -338 125l-137 -125l-45 39l143 131q-78 110 -78 273q0 186 82 339.5t229.5 243t329.5 89.5q213 0 336 -123l135 123zM242 594q0 -123 53 -209l747 684q-96 107 -272 107
q-114 0 -214 -47.5t-168 -127.5t-107 -186t-39 -221zM1130 813q0 122 -51 207l-749 -682q99 -107 276 -107q150 0 271.5 81t187 214t65.5 287z" />
    <glyph glyph-name="product" unicode="&#x220f;" horiz-adv-x="1482" 
d="M1436 1597l-363 -2048h-106l346 1960h-838l-346 -1960h-104l360 2048h1051z" />
    <glyph glyph-name="summation" unicode="&#x2211;" horiz-adv-x="1247" 
d="M-123 -451l12 68l852 963l-495 950l12 67h1057l-17 -88h-923l487 -929l-833 -942h960l-16 -89h-1096z" />
    <glyph glyph-name="minus" unicode="&#x2212;" horiz-adv-x="1167" 
d="M162 666l14 84h848l-14 -84h-848z" />
    <glyph glyph-name="radical" unicode="&#x221a;" horiz-adv-x="1544" 
d="M305 -451l-299 1076h109l258 -961l1212 1933h113l-1290 -2048h-103z" />
    <glyph glyph-name="infinity" unicode="&#x221e;" horiz-adv-x="1449" 
d="M1053 905q124 0 195 -71.5t71 -192.5q0 -171 -106 -287t-269 -116q-99 0 -166.5 48.5t-89.5 135.5q-47 -85 -128.5 -134.5t-182.5 -49.5q-126 0 -198.5 71t-72.5 191q0 170 106 287.5t271 117.5q100 0 166 -49t88 -137q49 85 131.5 135.5t184.5 50.5zM389 307
q123 0 205 99t82 229q0 94 -51 147.5t-140 53.5q-124 0 -207 -97.5t-83 -230.5q0 -94 51 -147.5t143 -53.5zM944 307q83 0 150 47.5t102 122t35 158.5q0 94 -50.5 147.5t-140.5 53.5q-123 0 -205.5 -98t-82.5 -230q0 -94 51 -147.5t141 -53.5z" />
    <glyph glyph-name="integral" unicode="&#x222b;" horiz-adv-x="925" 
d="M39 -471q-68 0 -126 23t-89 63l37 68q60 -66 172 -66q91 0 154 55.5t77 145.5l273 1542q22 120 108 189t217 69q69 0 127 -23t90 -63l-37 -68q-63 66 -172 66q-91 0 -154.5 -55.5t-78.5 -145.5l-270 -1542q-22 -119 -109.5 -188.5t-218.5 -69.5z" />
    <glyph glyph-name="approxequal" unicode="&#x2248;" horiz-adv-x="1157" 
d="M786 692q-45 0 -85.5 16.5t-71.5 39.5t-60.5 46t-65.5 39.5t-75 16.5q-71 0 -123.5 -36.5t-62.5 -100.5h-68q15 96 90.5 158.5t171.5 62.5q46 0 87 -16.5t72 -40t61 -47t66 -40t75 -16.5q70 0 121 36.5t63 102.5h68q-15 -98 -90.5 -159.5t-172.5 -61.5zM713 283
q-45 0 -86 16t-71.5 39.5t-60.5 46.5t-66 39t-75 16q-70 0 -122 -36.5t-64 -100.5h-68q17 96 91.5 158.5t170.5 62.5q46 0 87 -16.5t72 -40t61 -46.5t66 -39.5t75 -16.5q70 0 122 37t62 102h70q-17 -99 -91.5 -160t-172.5 -61z" />
    <glyph glyph-name="notequal" unicode="&#x2260;" horiz-adv-x="1173" 
d="M1057 907h-320l-178 -399h426l-14 -82h-449l-104 -229h-101l103 229h-297l14 82h320l180 399h-430l14 84h453l102 228h103l-103 -228h295z" />
    <glyph glyph-name="lessequal" unicode="&#x2264;" horiz-adv-x="1150" 
d="M942 406l-752 366l11 59l882 369l-18 -96l-727 -303l620 -301zM88 186l14 84h818l-15 -84h-817z" />
    <glyph glyph-name="greaterequal" unicode="&#x2265;" horiz-adv-x="1140" 
d="M125 406l18 94l729 305l-622 299l16 96l752 -369l-10 -59zM88 186l14 84h818l-15 -84h-817z" />
    <glyph glyph-name="lozenge" unicode="&#x25ca;" horiz-adv-x="1099" 
d="M395 0l-307 639l530 641h84l308 -641l-531 -639h-84zM451 94l454 545l-260 547l-448 -547z" />
    <glyph glyph-name="i.loclTRK" horiz-adv-x="458" 
d="M369 1382q-29 0 -48.5 20.5t-19.5 49.5q0 35 23.5 57.5t56.5 22.5q29 0 48.5 -19.5t19.5 -50.5q0 -33 -23.5 -56.5t-56.5 -23.5zM68 0l190 1075h98l-190 -1075h-98z" />
    <glyph glyph-name="zero.lf" horiz-adv-x="1257" 
d="M530 -20q-192 0 -300.5 147.5t-108.5 402.5q0 145 30 290t89 273t139 227.5t187.5 157.5t226.5 58q191 0 299 -148.5t108 -402.5q0 -121 -21.5 -243t-61 -233.5t-99.5 -208t-132.5 -167.5t-164.5 -112t-191 -41zM539 68q123 0 230 85.5t176.5 220t109 296t39.5 317.5
q0 214 -82 337.5t-230 123.5q-123 0 -230 -85t-176.5 -219t-109 -295.5t-39.5 -318.5q0 -216 82 -339t230 -123z" />
    <glyph glyph-name="one.lf" horiz-adv-x="641" 
d="M207 0l252 1427h-293l16 89h398l-269 -1516h-104z" />
    <glyph glyph-name="two.lf" horiz-adv-x="1126" 
d="M-14 0l12 70l549 495q13 12 39 35q52 47 80 72.5t78 74.5t78 83t65 84.5t56.5 93.5t33.5 95t14 103q0 114 -76 178t-210 64q-153 0 -264.5 -92t-137.5 -240l-104 17q32 183 172.5 293t341.5 110q179 0 283 -85t104 -234q0 -60 -17.5 -122t-42 -114t-69.5 -112.5
t-81.5 -103t-96.5 -101t-96.5 -90.5t-98.5 -87l-453 -399h785l-17 -88h-927z" />
    <glyph glyph-name="three.lf" horiz-adv-x="1136" 
d="M1141 1516l-13 -68l-663 -600q52 8 117 8q193 0 305 -96t112 -258q0 -152 -80 -272t-216 -185t-300 -65q-141 0 -245.5 46.5t-155.5 133.5l53 73q95 -165 353 -165q204 0 342.5 121.5t138.5 304.5q0 128 -94 203t-256 75q-137 0 -252 -53l-23 55l717 653h-705l17 89h848z
" />
    <glyph glyph-name="four.lf" horiz-adv-x="1220" 
d="M702 0l62 342h-768l14 82l975 1092h90l-190 -1086h235l-14 -88h-238l-59 -342h-107zM131 428h651l164 920z" />
    <glyph glyph-name="five.lf" horiz-adv-x="1150" 
d="M403 -20q-284 0 -407 147l43 74q113 -133 367 -133q214 0 358.5 129.5t144.5 322.5q0 133 -85.5 210t-235.5 77q-149 0 -312 -55l-75 12l237 752h695l-15 -89h-600l-190 -571q146 41 288 41q187 0 295.5 -99t108.5 -266q0 -160 -83 -287.5t-223.5 -196t-310.5 -68.5z" />
    <glyph glyph-name="six.lf" horiz-adv-x="1130" 
d="M641 911q177 0 282 -99t105 -267q0 -116 -43.5 -220.5t-119 -180t-181.5 -120t-225 -44.5q-188 0 -296 99.5t-108 270.5q0 111 44 219t120 197l633 750h123l-561 -652q103 47 227 47zM475 68q126 0 227.5 63.5t157 169.5t55.5 231q0 135 -82.5 215t-224.5 80
q-190 0 -316 -136.5t-126 -328.5q0 -136 82.5 -215t226.5 -79z" />
    <glyph glyph-name="seven.lf" horiz-adv-x="1009" 
d="M182 1516h936l-819 -1516h-115l777 1427h-795z" />
    <glyph glyph-name="eight.lf" horiz-adv-x="1200" 
d="M805 784q111 -36 173 -117t62 -196q0 -142 -73.5 -255t-199.5 -174.5t-280 -61.5q-191 0 -302 93t-111 251q0 171 102.5 294t269.5 170q-95 35 -146.5 109.5t-51.5 177.5q0 134 67.5 240t182 163.5t254.5 57.5q174 0 276 -87.5t102 -234.5q0 -156 -89 -269.5t-236 -160.5
zM354 1071q0 -113 74 -177.5t203 -64.5q166 0 277.5 109t111.5 266q0 111 -74.5 177.5t-202.5 66.5q-166 0 -277.5 -109.5t-111.5 -267.5zM498 68q184 0 308 116.5t124 288.5q0 122 -83.5 194t-228.5 72q-184 0 -310 -117t-126 -288q0 -123 85 -194.5t231 -71.5z" />
    <glyph glyph-name="nine.lf" horiz-adv-x="1130" 
d="M713 1536q187 0 295 -100t108 -271q0 -111 -44.5 -218.5t-121.5 -196.5l-633 -750h-120l563 653q-107 -49 -230 -49q-179 0 -284 99t-105 268q0 156 74.5 285.5t206 204.5t291.5 75zM561 688q190 0 316.5 136.5t126.5 328.5q0 136 -82 215.5t-226 79.5
q-191 0 -315.5 -136t-124.5 -329q0 -136 81.5 -215.5t223.5 -79.5z" />
    <glyph glyph-name="zero.osf" horiz-adv-x="1331" 
d="M565 -20q-214 0 -336.5 135.5t-122.5 367.5q0 164 51.5 314t141 260.5t217 176.5t272.5 66q214 0 336.5 -135.5t122.5 -367.5q0 -163 -51.5 -313t-140 -261t-217 -177t-273.5 -66zM578 66q122 0 229 61t179.5 161.5t114.5 232t42 270.5q0 195 -97 309t-268 114
q-161 0 -292.5 -102.5t-203 -267t-71.5 -352.5q0 -196 97.5 -311t269.5 -115z" />
    <glyph glyph-name="one.osf" horiz-adv-x="659" 
d="M236 0l210 1196h-276l14 84h375l-225 -1280h-98z" />
    <glyph glyph-name="two.osf" horiz-adv-x="1148" 
d="M2 0l12 70l553 379q68 47 114 80.5t106.5 88t97 103.5t62.5 113.5t26 130.5q0 115 -78 182t-215 67q-157 0 -270 -91.5t-138 -239.5l-98 16q32 182 172.5 291.5t341.5 109.5q178 0 281.5 -87.5t103.5 -235.5q0 -56 -14.5 -110.5t-37.5 -99.5t-60.5 -92t-73.5 -82.5
t-87 -76.5t-91 -69.5t-95 -65.5l-446 -297h776l-14 -84h-928z" />
    <glyph glyph-name="three.osf" horiz-adv-x="1159" 
d="M1118 1280l-12 -70l-666 -583q49 8 119 8q191 0 301.5 -94t110.5 -252q0 -151 -78 -269t-210.5 -181.5t-295.5 -63.5q-144 0 -249 46.5t-154 133.5l53 72q91 -166 346 -166q134 0 245 54t175.5 150t64.5 214q0 127 -94.5 201.5t-259.5 74.5q-130 0 -250 -57l-22 57
l719 641h-707l14 84h850z" />
    <glyph glyph-name="four.osf" horiz-adv-x="1208" 
d="M676 -225l39 225h-776l14 76l997 1204h88l-211 -1196h238l-14 -84h-238l-39 -225h-98zM68 82h663l182 1022z" />
    <glyph glyph-name="five.osf" horiz-adv-x="1157" 
d="M367 -225q-285 0 -408 147l39 72q113 -133 369 -133q140 0 254.5 56.5t180.5 158t66 227.5q0 132 -84 208.5t-235 76.5q-140 0 -316 -58l-73 13l233 737h697l-15 -84h-608l-186 -563q149 41 294 41q183 0 290.5 -97.5t107.5 -259.5q0 -157 -81.5 -282t-219.5 -192.5
t-305 -67.5z" />
    <glyph glyph-name="six.osf" horiz-adv-x="1122" 
d="M635 911q178 0 279.5 -97.5t101.5 -264.5q0 -157 -72.5 -287t-202 -206t-288.5 -76q-184 0 -291 98t-107 266q0 111 45 223.5t121 196.5l635 752h115l-561 -654q104 49 225 49zM469 68q191 0 315.5 135.5t124.5 328.5q0 136 -81.5 215.5t-223.5 79.5q-191 0 -316.5 -136
t-125.5 -329q0 -136 81.5 -215t225.5 -79z" />
    <glyph glyph-name="seven.osf" horiz-adv-x="1077" 
d="M184 1280h936l-803 -1493l-92 27l746 1382h-801z" />
    <glyph glyph-name="eight.osf" horiz-adv-x="1185" 
d="M795 784q111 -35 171 -116.5t60 -196.5q0 -142 -72.5 -254.5t-196.5 -174.5t-276 -62q-189 0 -298 93t-109 249q0 171 101.5 295t266.5 171q-92 35 -143 109.5t-51 175.5q0 133 66 239.5t179.5 165t251.5 58.5q171 0 271 -87.5t100 -234.5q0 -154 -88.5 -268.5
t-232.5 -161.5zM348 1071q0 -113 73.5 -177.5t203.5 -64.5q166 0 276.5 109t110.5 266q0 111 -73.5 177.5t-201.5 66.5q-166 0 -277.5 -109.5t-111.5 -267.5zM492 68q184 0 308 116.5t124 288.5q0 122 -83.5 194t-228.5 72q-185 0 -310.5 -116.5t-125.5 -288.5
q0 -123 84.5 -194.5t231.5 -71.5z" />
    <glyph glyph-name="nine.osf" horiz-adv-x="1124" 
d="M666 1300q186 0 293.5 -98t107.5 -266q0 -109 -45 -222.5t-121 -199.5l-616 -727l-92 27l518 604q-102 -51 -228 -51q-176 0 -278.5 98t-102.5 264q0 157 73 287.5t203 207t288 76.5zM516 451q127 0 228.5 64t156.5 170.5t55 232.5q0 135 -81.5 213.5t-223.5 78.5
q-127 0 -229 -62.5t-157.5 -166.5t-55.5 -229q0 -137 82.5 -219t224.5 -82z" />
    <glyph glyph-name="zero.tf" horiz-adv-x="1259" 
d="M520 -20q-171 0 -267.5 141t-96.5 387q0 138 27 282t81.5 277.5t128 238t175 167.5t214.5 63q171 0 267 -141t96 -387q0 -138 -27 -282t-81 -277.5t-127.5 -238t-175 -167.5t-214.5 -63zM530 68q91 0 173.5 61t142 161t104 224t66.5 254t22 248q0 202 -69 317t-195 115
q-113 0 -212.5 -92.5t-163 -235t-100 -306.5t-36.5 -314q0 -202 70 -317t198 -115z" />
    <glyph glyph-name="one.tf" horiz-adv-x="1259" 
d="M680 88h309l-14 -88h-885l14 88h469l236 1339h-354l16 89h461z" />
    <glyph glyph-name="two.tf" horiz-adv-x="1259" 
d="M51 0l12 70l549 495q156 141 196 180q205 205 241 379q8 41 8 82q0 114 -75.5 178t-209.5 64q-155 0 -265.5 -92t-135.5 -240l-107 17q34 183 174 293t340 110q180 0 284.5 -85t104.5 -234q0 -47 -11 -95.5t-26 -90t-45 -90t-54 -83t-67.5 -82.5t-70 -76.5t-78 -76
t-75 -69t-76.5 -67.5l-451 -399h782l-16 -88h-928z" />
    <glyph glyph-name="three.tf" horiz-adv-x="1259" 
d="M1202 1516l-12 -68l-664 -600q52 8 117 8q193 0 305.5 -96t112.5 -258q0 -152 -80 -272t-216 -185t-300 -65q-141 0 -246 46.5t-156 133.5l54 73q95 -165 352 -165q204 0 342.5 121.5t138.5 304.5q0 128 -94 203t-256 75q-137 0 -252 -53l-22 55l716 653h-704l16 89h848z
" />
    <glyph glyph-name="four.tf" horiz-adv-x="1259" 
d="M711 0l59 342h-741l14 82l950 1092h90l-192 -1088h237l-14 -86h-237l-62 -342h-104zM160 426h628l162 913z" />
    <glyph glyph-name="five.tf" horiz-adv-x="1259" 
d="M459 -20q-284 0 -410 147l43 74q116 -133 367 -133q214 0 359 129.5t145 322.5q0 132 -85.5 209.5t-234.5 77.5q-146 0 -313 -55l-76 12l240 752h694l-17 -89h-598l-190 -571q146 41 289 41q186 0 293.5 -99t107.5 -266q0 -160 -82.5 -287.5t-222.5 -196t-309 -68.5z" />
    <glyph glyph-name="six.tf" horiz-adv-x="1259" 
d="M707 911q178 0 282.5 -98.5t104.5 -267.5q0 -156 -74.5 -285.5t-205.5 -204.5t-290 -75q-188 0 -295.5 99.5t-107.5 270.5q0 111 44 219t120 197l635 750h120l-555 -646q100 41 222 41zM541 68q191 0 315.5 135.5t124.5 328.5q0 135 -82.5 215t-224.5 80
q-126 0 -228 -63.5t-157.5 -170t-55.5 -231.5q0 -136 82 -215t226 -79z" />
    <glyph glyph-name="seven.tf" horiz-adv-x="1259" 
d="M307 1516h936l-821 -1516h-115l776 1427h-792z" />
    <glyph glyph-name="eight.tf" horiz-adv-x="1259" 
d="M836 784q113 -35 174 -116.5t61 -196.5q0 -142 -73.5 -255t-199 -174.5t-278.5 -61.5q-192 0 -303 93t-111 251q0 171 103 294t270 168q-96 37 -148 112t-52 177q0 134 67 240t181.5 163.5t254.5 57.5q176 0 277.5 -87.5t101.5 -234.5q0 -156 -89 -269.5t-236 -160.5z
M387 1071q0 -113 73 -177.5t202 -64.5q167 0 278 109t111 266q0 111 -74 177.5t-203 66.5q-165 0 -276 -109.5t-111 -267.5zM528 68q186 0 310.5 116.5t124.5 288.5q0 122 -84 194t-230 72q-183 0 -308.5 -117.5t-125.5 -287.5q0 -123 83.5 -194.5t229.5 -71.5z" />
    <glyph glyph-name="nine.tf" horiz-adv-x="1259" 
d="M778 1536q188 0 296 -100t108 -271q0 -111 -44 -218.5t-120 -196.5l-635 -750h-121l555 645q-100 -41 -221 -41q-178 0 -282.5 99t-104.5 268q0 116 43.5 220.5t119 180t181.5 120t225 44.5zM629 688q126 0 227.5 63.5t157 169.5t55.5 232q0 136 -81.5 215.5t-225.5 79.5
q-191 0 -315.5 -136t-124.5 -329q0 -135 82.5 -215t224.5 -80z" />
    <glyph glyph-name="zero.tosf" horiz-adv-x="1259" 
d="M520 -20q-177 0 -277 128t-100 349q0 152 42.5 302t117.5 270.5t190 195.5t248 75q174 0 273.5 -128.5t99.5 -348.5q0 -152 -42.5 -302t-117 -270.5t-188.5 -195.5t-246 -75zM530 66q107 0 200.5 71.5t153.5 183.5t94 244.5t34 259.5q0 181 -74 285t-205 104
q-107 0 -200 -69.5t-153.5 -180t-95 -244t-34.5 -263.5q0 -183 73 -287t207 -104z" />
    <glyph glyph-name="one.tosf" horiz-adv-x="1259" 
d="M678 84h319l-16 -84h-883l15 84h467l196 1112h-338l17 84h434z" />
    <glyph glyph-name="two.tosf" horiz-adv-x="1259" 
d="M57 0l13 70l553 379q68 46 114 80.5t106.5 88.5t96.5 103t62 113.5t26 130.5q0 115 -78 182t-215 67q-157 0 -269.5 -91.5t-137.5 -239.5l-99 16q32 182 172.5 291.5t341.5 109.5q178 0 281.5 -87.5t103.5 -235.5q0 -78 -28 -152.5t-68.5 -131t-107 -117.5t-121 -101.5
t-133.5 -93.5l-447 -297h776l-14 -84h-928z" />
    <glyph glyph-name="three.tosf" horiz-adv-x="1259" 
d="M1167 1280l-12 -70l-668 -585q51 10 123 10q189 0 299.5 -94t110.5 -252q0 -151 -78 -269t-210.5 -181.5t-295.5 -63.5q-143 0 -248.5 46.5t-152.5 133.5l51 72q91 -166 346 -166q204 0 346 120t142 298q0 126 -95.5 201t-259.5 75q-133 0 -250 -57l-22 57l719 641h-709
l14 84h850z" />
    <glyph glyph-name="four.tosf" horiz-adv-x="1259" 
d="M688 -225l39 225h-747l12 76l971 1204h88l-211 -1196h237l-14 -84h-238l-39 -225h-98zM109 82h634l181 1014z" />
    <glyph glyph-name="five.tosf" horiz-adv-x="1259" 
d="M420 -225q-287 0 -410 147l39 72q116 -133 369 -133q140 0 255 56.5t181 158t66 227.5q0 132 -84 208.5t-234 76.5q-141 0 -317 -58l-72 13l231 737h697l-15 -84h-608l-186 -563q149 41 295 41q183 0 290 -97.5t107 -259.5q0 -157 -81.5 -282t-219 -192.5t-303.5 -67.5z
" />
    <glyph glyph-name="six.tosf" horiz-adv-x="1259" 
d="M705 911q177 0 278.5 -97.5t101.5 -264.5q0 -157 -72.5 -287t-201.5 -206t-287 -76q-185 0 -292 98t-107 266q0 111 45 223.5t121 196.5l635 752h114l-557 -648q101 43 222 43zM539 68q191 0 315.5 135.5t124.5 328.5q0 136 -81.5 215.5t-223.5 79.5
q-190 0 -316.5 -136.5t-126.5 -328.5q0 -136 82 -215t226 -79z" />
    <glyph glyph-name="seven.tosf" horiz-adv-x="1259" 
d="M274 1280h936l-802 -1493l-93 27l746 1382h-801z" />
    <glyph glyph-name="eight.tosf" horiz-adv-x="1259" 
d="M831 784q111 -35 171.5 -116.5t60.5 -196.5q0 -142 -72.5 -254.5t-196.5 -174.5t-276 -62q-189 0 -298 93t-109 249q0 171 101.5 295t266.5 171q-93 35 -143.5 109t-50.5 176q0 202 142 332.5t355 130.5q171 0 271 -87.5t100 -234.5q0 -153 -89 -268t-233 -162zM385 1071
q0 -113 72.5 -177.5t201.5 -64.5q167 0 278.5 109t111.5 266q0 111 -74 177.5t-203 66.5q-165 0 -276 -109.5t-111 -267.5zM528 68q184 0 308.5 116.5t124.5 288.5q0 122 -83.5 194t-228.5 72q-185 0 -310.5 -116.5t-125.5 -288.5q0 -123 84 -194.5t231 -71.5z" />
    <glyph glyph-name="nine.tosf" horiz-adv-x="1259" 
d="M735 1300q184 0 292 -98.5t108 -265.5q0 -109 -44.5 -222.5t-119.5 -199.5l-619 -727l-90 27l518 604q-108 -51 -227 -51q-178 0 -279.5 97.5t-101.5 264.5q0 157 72.5 287.5t202 207t288.5 76.5zM586 451q127 0 228.5 64t156.5 170.5t55 232.5q0 135 -81.5 213.5
t-223.5 78.5q-193 0 -317.5 -133.5t-124.5 -324.5q0 -138 82 -219.5t225 -81.5z" />
    <glyph glyph-name="zero.dnom" horiz-adv-x="778" 
d="M287 -12q-116 0 -182 89.5t-66 244.5q0 109 29 216t80.5 192.5t129 138.5t166.5 53q118 0 185 -89.5t67 -242.5q0 -149 -49.5 -285.5t-145 -226.5t-214.5 -90zM297 55q71 0 132.5 49.5t101.5 128t62.5 172.5t22.5 185q0 124 -47 194t-133 70q-71 0 -132.5 -49.5
t-101.5 -127.5t-62.5 -172t-22.5 -186q0 -124 47 -194t133 -70z" />
    <glyph glyph-name="one.dnom" horiz-adv-x="415" 
d="M86 0l147 842h-170l13 67h248l-160 -909h-78z" />
    <glyph glyph-name="two.dnom" horiz-adv-x="704" 
d="M-45 0l10 51l332 299q4 4 32 29.5t35.5 33t33 32t35 36t30.5 35.5t29.5 38.5t23 38t20 42t10.5 40.5t5 44q0 64 -42.5 99.5t-117.5 35.5q-89 0 -151 -51.5t-76 -136.5l-82 12q22 111 107 177.5t206 66.5q109 0 173.5 -52.5t64.5 -142.5q0 -49 -19.5 -100.5t-44.5 -91
t-71.5 -88.5t-77.5 -77.5t-84 -74.5l-260 -229l456 2l-12 -68h-565z" />
    <glyph glyph-name="three.dnom" horiz-adv-x="706" 
d="M653 909l-10 -49l-381 -344q18 2 55 2q118 0 185 -58t67 -157q0 -139 -103.5 -227t-256.5 -88q-87 0 -151 27.5t-95 78.5l39 56q56 -95 209 -95q117 0 196.5 68.5t79.5 173.5q0 74 -53.5 117t-146.5 43q-72 0 -150 -31l-16 41l407 375h-401l12 67h514z" />
    <glyph glyph-name="four.dnom" horiz-adv-x="759" 
d="M379 0l37 201h-457l10 59l582 649h67l-112 -641h139l-12 -67h-139l-35 -201h-80zM57 264h371l90 512z" />
    <glyph glyph-name="five.dnom" horiz-adv-x="714" 
d="M207 -12q-175 0 -248 88l31 55q67 -76 217 -76q124 0 209.5 74t85.5 184q0 75 -49.5 119.5t-133.5 44.5q-82 0 -182 -35l-55 9l143 458h424l-12 -67h-352l-109 -322q79 23 162 23q114 0 180 -59.5t66 -159.5q0 -147 -109.5 -241.5t-267.5 -94.5z" />
    <glyph glyph-name="six.dnom" horiz-adv-x="706" 
d="M358 549q106 0 169 -60t63 -161q0 -143 -98.5 -241.5t-245.5 -98.5q-116 0 -182 60t-66 163q0 136 108 260l369 438h90l-327 -379q59 19 120 19zM258 55q109 0 179.5 78t70.5 186q0 77 -46.5 122.5t-127.5 45.5q-108 0 -180 -77t-72 -187q0 -78 46.5 -123t129.5 -45z" />
    <glyph glyph-name="seven.dnom" horiz-adv-x="630" 
d="M74 909h569l-489 -909h-84l454 842h-461z" />
    <glyph glyph-name="eight.dnom" horiz-adv-x="747" 
d="M463 471q135 -52 135 -188q0 -129 -97 -212t-237 -83q-118 0 -186 56.5t-68 152.5q0 100 59 173t156 103q-112 48 -112 172q0 121 88 199t219 78q107 0 169 -53.5t62 -143.5t-51.5 -157t-136.5 -97zM414 854q-95 0 -158 -61.5t-63 -151.5q0 -64 41.5 -100.5t113.5 -36.5
q94 0 157.5 62.5t63.5 152.5q0 62 -41.5 98.5t-113.5 36.5zM268 55q106 0 178 67t72 165q0 69 -48 110t-130 41q-105 0 -176.5 -68t-71.5 -165q0 -69 46.5 -109.5t129.5 -40.5z" />
    <glyph glyph-name="nine.dnom" horiz-adv-x="706" 
d="M399 922q116 0 182 -60.5t66 -163.5q0 -136 -108 -260l-369 -438h-90l328 379q-59 -19 -121 -19q-106 0 -169 60.5t-63 161.5q0 143 98.5 241.5t245.5 98.5zM311 422q108 0 180 77t72 187q0 78 -46.5 123t-129.5 45q-109 0 -179.5 -78t-70.5 -186q0 -77 46.5 -122.5
t127.5 -45.5z" />
    <glyph glyph-name="zero.numr" horiz-adv-x="778" 
d="M393 594q-116 0 -182 89.5t-66 244.5q0 147 49 283t144 226.5t213 90.5t185 -89.5t67 -242.5q0 -110 -29.5 -217.5t-81.5 -193t-130.5 -138.5t-168.5 -53zM403 662q71 0 132.5 49.5t101.5 127.5t63 172t23 185q0 124 -47 194t-133 70q-71 0 -132.5 -49t-101.5 -127
t-63 -172t-23 -186q0 -124 47 -194t133 -70z" />
    <glyph glyph-name="one.numr" horiz-adv-x="415" 
d="M193 606l147 842h-170l12 68h248l-160 -910h-77z" />
    <glyph glyph-name="two.numr" horiz-adv-x="704" 
d="M61 606l11 51l331 299q4 4 32 29.5t35.5 33t33 32t35 36t30.5 35.5t29.5 38.5t23 38t20 42t10.5 40.5t5 44q0 64 -42 99.5t-117 35.5q-89 0 -152 -51.5t-76 -136.5l-82 12q22 111 107.5 177.5t206.5 66.5q109 0 173 -52.5t64 -142.5q0 -49 -19.5 -100.5t-44.5 -91
t-71.5 -88.5t-77.5 -77.5t-84 -74.5l-260 -229l457 2l-12 -68h-566z" />
    <glyph glyph-name="three.numr" horiz-adv-x="706" 
d="M760 1516l-10 -50l-381 -344q18 2 55 2q118 0 185 -58t67 -157q0 -139 -104 -227t-257 -88q-86 0 -150 27.5t-95 78.5l39 56q56 -94 208 -94q117 0 197 68t80 173q0 74 -54 117t-147 43q-71 0 -149 -31l-17 41l408 375h-402l13 68h514z" />
    <glyph glyph-name="four.numr" horiz-adv-x="759" 
d="M485 606l37 201h-456l10 59l581 650h68l-113 -642h140l-13 -67h-139l-35 -201h-80zM164 870h371l90 512z" />
    <glyph glyph-name="five.numr" horiz-adv-x="714" 
d="M313 594q-174 0 -247 88l30 55q67 -75 217 -75q124 0 209.5 74t85.5 184q0 75 -48.5 119t-133.5 44t-182 -34l-56 8l144 459h424l-13 -68h-352l-108 -322q79 23 161 23q114 0 180 -59.5t66 -159.5q0 -147 -109.5 -241.5t-267.5 -94.5z" />
    <glyph glyph-name="six.numr" horiz-adv-x="706" 
d="M465 1155q106 0 168.5 -60t62.5 -161q0 -143 -98.5 -241.5t-245.5 -98.5q-116 0 -182 60t-66 163q0 135 109 260l369 439h90l-328 -379q55 18 121 18zM365 662q109 0 179 78t70 186q0 77 -46.5 122.5t-127.5 45.5q-108 0 -180 -77.5t-72 -187.5q0 -78 47 -122.5
t130 -44.5z" />
    <glyph glyph-name="seven.numr" horiz-adv-x="630" 
d="M180 1516h570l-490 -910h-84l455 842h-461z" />
    <glyph glyph-name="eight.numr" horiz-adv-x="747" 
d="M569 1077q65 -25 100.5 -73t35.5 -115q0 -129 -97 -212t-237 -83q-118 0 -186 56.5t-68 152.5q0 100 59 173t156 103q-113 49 -113 172q0 121 88 199t219 78q107 0 169.5 -53.5t62.5 -143.5t-51.5 -157t-137.5 -97zM520 1460q-95 0 -158 -61.5t-63 -151.5
q0 -64 42 -100.5t114 -36.5q94 0 157.5 62.5t63.5 152.5q0 62 -42 98.5t-114 36.5zM375 662q106 0 178 66.5t72 164.5q0 69 -48.5 110t-130.5 41q-105 0 -176 -68t-71 -165q0 -69 46.5 -109t129.5 -40z" />
    <glyph glyph-name="nine.numr" horiz-adv-x="706" 
d="M506 1528q116 0 182 -60t66 -163q0 -136 -109 -261l-369 -438h-90l328 379q-56 -18 -121 -18q-106 0 -168.5 60t-62.5 161q0 143 98.5 241.5t245.5 98.5zM418 1028q108 0 180 77t72 187q0 78 -46.5 123t-129.5 45q-109 0 -179.5 -78t-70.5 -186q0 -77 46.5 -122.5
t127.5 -45.5z" />
    <glyph glyph-name="exclamdown.case" horiz-adv-x="526" 
d="M416 1536q29 0 48 -19.5t19 -48.5q0 -34 -23.5 -56.5t-56.5 -22.5q-30 0 -48.5 18.5t-18.5 48.5q0 35 23 57.5t57 22.5zM412 1221l-207 -1221h-109l228 1221h88z" />
    <glyph glyph-name="questiondown.case" horiz-adv-x="1048" 
d="M698 1536q29 0 48.5 -19.5t19.5 -48.5q0 -34 -23.5 -56.5t-56.5 -22.5q-29 0 -48.5 19t-19.5 48q0 35 23 57.5t57 22.5zM606 1225l86 -8q-20 -109 -51.5 -197.5t-62 -144t-77.5 -107t-77.5 -76.5t-81.5 -61q-52 -39 -84 -67.5t-62 -67.5t-43.5 -85.5t-13.5 -103.5
q0 -111 77.5 -175t213.5 -64q149 0 258 84t137 221l101 -13q-37 -173 -175 -276.5t-329 -103.5q-181 0 -287 86t-106 231q0 69 16 125t50 103t73.5 83t99.5 80l58.5 43.5t56 47t57 58t50.5 68t48.5 86.5t37 104.5t30.5 129.5z" />
    <glyph glyph-name="slash.case" horiz-adv-x="722" 
d="M-8 0l680 1516h100l-680 -1516h-100z" />
    <glyph glyph-name="braceleft.case" horiz-adv-x="811" 
d="M410 -102q-102 0 -162 60.5t-60 160.5q0 25 7 65l45 265q10 49 10 100q0 164 -135 164h-23l17 90h18q78 0 138.5 73t82.5 193l49 270q23 129 106 204t202 75q105 0 194 -25l-16 -86q-90 23 -164 23q-84 0 -144 -59.5t-79 -161.5l-43 -258q-20 -114 -76 -193.5t-131 -99.5
q110 -36 110 -201q0 -38 -10 -100l-43 -258q-6 -27 -6 -58q0 -71 38 -113t105 -42q87 0 183 22l-17 -86q-99 -24 -196 -24z" />
    <glyph glyph-name="braceright.case" horiz-adv-x="811" 
d="M442 1618q102 0 162 -60.5t60 -160.5q0 -26 -7 -66l-45 -264q-10 -49 -10 -100q0 -164 135 -164h23l-17 -90h-18q-78 0 -138.5 -73.5t-82.5 -193.5l-49 -270q-23 -129 -106 -203.5t-202 -74.5q-108 0 -194 24l16 86q86 -22 164 -22q84 0 144 59.5t79 161.5l43 258
q20 114 76 193.5t131 99.5q-110 36 -110 200q0 39 10 101l43 258q6 27 6 57q0 71 -38 113.5t-105 42.5q-83 0 -183 -23l17 86q103 25 196 25z" />
    <glyph glyph-name="bracketleft.case" horiz-adv-x="735" 
d="M88 -82l297 1679h442l-14 -86h-340l-268 -1507h342l-17 -86h-442z" />
    <glyph glyph-name="bracketright.case" horiz-adv-x="733" 
d="M688 1597l-297 -1679h-442l14 86h340l268 1507h-342l17 86h442z" />
    <glyph glyph-name="parenleft.case" horiz-adv-x="589" 
d="M295 -82q-174 299 -174 621q0 557 469 1058h92q-195 -216 -325 -497t-130 -547q0 -184 48 -354t108 -281h-88z" />
    <glyph glyph-name="parenright.case" horiz-adv-x="589" 
d="M-51 -82q92 102 171.5 224t143 257t100.5 282t37 282q0 184 -47 352.5t-106 281.5h86q176 -303 176 -620q0 -554 -469 -1059h-92z" />
    <glyph glyph-name="logo" horiz-adv-x="2609" 
d="M156 -20q-15 0 -25 10.5t-10 25.5q0 21 10 31l700 698h-663q-47 0 -47 39q0 16 14 33l696 701h-669q-41 0 -41 38v3q0 38 41 38h758q47 0 47 -41q0 -20 -17 -34l-698 -697h676q17 0 29 -12t12 -29v-669l694 692q13 16 35 16q37 0 37 -45v-663l696 692q13 16 33 16
q15 0 25 -12t10 -27q0 -18 -13 -28l-753 -762q-14 -14 -35 -14q-41 0 -41 47v663l-694 -696q-14 -14 -35 -14q-41 0 -41 47v663l-697 -696q-14 -14 -34 -14z" />
    </font>
</defs>
</svg>
