<?xml version="1.0" standalone="no"?>
<!DOCTYPE svg PUBLIC "-//W3C//DTD SVG 1.1//EN" "http://www.w3.org/Graphics/SVG/1.1/DTD/svg11.dtd" >
<svg xmlns="http://www.w3.org/2000/svg" xmlns:xlink="http://www.w3.org/1999/xlink" version="1.1">
<metadata>
Created by FontForge 20170731 at Thu Dec  2 10:15:26 2021
 By Aleksey,,,
Copyright (c) 2016 by Alberto Romanos. All rights reserved.
</metadata>
<defs>
<font id="BwModelicaSS02-BlackItalic" horiz-adv-x="1259" >
  <font-face 
    font-family="Bw Modelica SS02 Black"
    font-weight="900"
    font-style="italic"
    font-stretch="normal"
    units-per-em="2048"
    panose-1="0 0 10 0 0 0 0 0 0 0"
    ascent="1597"
    descent="-451"
    x-height="1126"
    cap-height="1516"
    bbox="-1847 -471 2755 2089"
    underline-thickness="102"
    underline-position="-307"
    slope="-10"
    unicode-range="U+000D-FB02"
  />
<missing-glyph horiz-adv-x="2609" 
d="M242 -20q-15 0 -25 10.5t-10 25.5q0 21 10 31l701 698h-664q-47 0 -47 39q0 16 14 33l697 701h-670q-41 0 -41 38v3q0 38 41 38h758q47 0 47 -41q0 -20 -17 -34l-698 -697h676q17 0 29 -12t12 -29v-669l694 692q13 16 35 16q37 0 37 -45v-663l696 692q13 16 33 16
q15 0 25 -12t10 -27q0 -18 -13 -28l-753 -762q-14 -14 -35 -14q-41 0 -41 47v663l-694 -696q-14 -14 -35 -14q-41 0 -41 47v663l-697 -696q-14 -14 -34 -14z" />
    <glyph glyph-name="fi" unicode="fi" horiz-adv-x="1529" 
d="M1368 1675q96 0 154.5 -57.5t58.5 -149.5q0 -109 -69.5 -183.5t-180.5 -74.5q-97 0 -156 57.5t-59 149.5q0 109 70.5 183.5t181.5 74.5zM938 1126l-57 -333h-217l-140 -793h-409l139 793h-168l57 333h170l84 471h650l-58 -333h-241l-25 -138h215zM891 0l201 1126h409
l-201 -1126h-409z" />
    <glyph glyph-name="fl" unicode="fl" horiz-adv-x="1644" 
d="M938 1126l-57 -333h-217l-140 -793h-409l139 793h-168l57 333h170l84 471h650l-58 -333h-241l-25 -138h215zM1583 1597l-223 -1261h186l-61 -336h-594l283 1597h409z" />
    <glyph glyph-name=".notdef" horiz-adv-x="2609" 
d="M242 -20q-15 0 -25 10.5t-10 25.5q0 21 10 31l701 698h-664q-47 0 -47 39q0 16 14 33l697 701h-670q-41 0 -41 38v3q0 38 41 38h758q47 0 47 -41q0 -20 -17 -34l-698 -697h676q17 0 29 -12t12 -29v-669l694 692q13 16 35 16q37 0 37 -45v-663l696 692q13 16 33 16
q15 0 25 -12t10 -27q0 -18 -13 -28l-753 -762q-14 -14 -35 -14q-41 0 -41 47v663l-694 -696q-14 -14 -35 -14q-41 0 -41 47v663l-697 -696q-14 -14 -34 -14z" />
    <glyph glyph-name=".null" horiz-adv-x="0" 
 />
    <glyph glyph-name="nonmarkingreturn" horiz-adv-x="682" 
 />
    <glyph glyph-name="CR" unicode="&#xd;" horiz-adv-x="399" 
 />
    <glyph glyph-name="space" unicode=" " horiz-adv-x="473" 
 />
    <glyph glyph-name="exclam" unicode="!" horiz-adv-x="653" 
d="M135 553l133 963h424l-209 -963h-348zM233 -20q-97 0 -156 57t-59 149q0 109 70.5 183.5t181.5 74.5q96 0 154.5 -57.5t58.5 -148.5q0 -109 -69.5 -183.5t-180.5 -74.5z" />
    <glyph glyph-name="quotedbl" unicode="&#x22;" horiz-adv-x="966" 
d="M190 1155l70 442h320l-86 -442h-304zM647 1155l70 442h319l-86 -442h-303z" />
    <glyph glyph-name="numbersign" unicode="#" horiz-adv-x="1665" 
d="M1565 827h-256l-95 -229h259l-113 -262h-252l-137 -336h-295l137 336h-256l-137 -336h-295l137 336h-248l113 262h242l94 229h-244l107 263h243l142 344h295l-142 -344h256l142 344h294l-141 -344h256zM920 598l94 229h-256l-94 -229h256z" />
    <glyph glyph-name="dollar" unicode="$" horiz-adv-x="1394" 
d="M877 942q86 -24 157.5 -60t133.5 -87.5t97 -124.5t35 -160q0 -189 -135.5 -326t-351.5 -184l-33 -184h-422l33 190q-196 52 -338 184l180 267q167 -129 394 -129q103 0 167 28t64 84q0 42 -46 66.5t-157 56.5l-69 21q-97 29 -168 61.5t-129 79t-87.5 109.5t-29.5 143
q0 203 134.5 348.5t352.5 192.5l33 182h422l-35 -195q166 -45 295 -151l-209 -277q-144 111 -325 111q-93 0 -159.5 -31t-66.5 -80q0 -39 45 -62t152 -54z" />
    <glyph glyph-name="percent" unicode="%" horiz-adv-x="1964" 
d="M545 815q-181 0 -285 86.5t-104 233.5q0 122 64 214t170 139.5t237 47.5q180 0 283.5 -85.5t103.5 -229.5q0 -183 -134 -294.5t-335 -111.5zM535 -20l-199 126l1132 1430l199 -125zM582 1073q48 0 80 36.5t32 80.5q0 43 -27 65.5t-75 22.5t-81.5 -35.5t-33.5 -81.5
q0 -88 105 -88zM1380 -20q-181 0 -285 86t-104 233q0 122 64 214t170 139.5t237 47.5q180 0 283.5 -85.5t103.5 -229.5q0 -183 -134 -294t-335 -111zM1417 238q49 0 81 36t32 80q0 43 -27.5 65.5t-75.5 22.5t-81 -35t-33 -81q0 -88 104 -88z" />
    <glyph glyph-name="ampersand" unicode="&#x26;" horiz-adv-x="1579" 
d="M1225 653l-35 -209q-4 -24 -4 -32q0 -39 23 -60.5t63 -21.5q80 0 170 41l-37 -340q-123 -51 -297 -51q-98 0 -172 35t-117 100q-163 -135 -362 -135q-194 0 -310 106t-116 279q0 163 89.5 281.5t244.5 184.5q-127 98 -127 259q0 139 83 242t216 153.5t294 50.5
q220 0 351 -101t131 -264q0 -31 -6 -69l-23 -129h258l-55 -320h-262zM793 1186q-60 0 -103 -37t-43 -88q0 -88 94 -88h131l21 119q2 12 2 26q0 68 -102 68zM592 330q76 0 131 51t74 156l18 116h-106q-99 0 -174.5 -61t-75.5 -139q0 -57 35.5 -90t97.5 -33z" />
    <glyph glyph-name="quotesingle" unicode="'" horiz-adv-x="509" 
d="M190 1155l70 442h320l-86 -442h-304z" />
    <glyph glyph-name="parenleft" unicode="(" horiz-adv-x="778" 
d="M199 -369q-160 353 -160 713q0 333 134.5 658.5t361.5 594.5h387q-473 -657 -473 -1349q0 -342 116 -617h-366z" />
    <glyph glyph-name="parenright" unicode=")" horiz-adv-x="776" 
d="M-160 -369q228 306 352.5 649.5t124.5 696.5q0 336 -114 620h362q160 -342 160 -718q0 -650 -494 -1248h-391z" />
    <glyph glyph-name="asterisk" unicode="*" horiz-adv-x="815" 
d="M831 1186l-145 -41l72 -113l-215 -143l-64 121l-100 -121l-182 143l106 115l-131 39l117 233l131 -49l20 146h246l-31 -146l142 49z" />
    <glyph glyph-name="plus" unicode="+" horiz-adv-x="1196" 
d="M1169 893l-59 -336h-322l-61 -344h-410l62 344h-326l60 336h323l62 344h409l-61 -344h323z" />
    <glyph glyph-name="comma" unicode="," horiz-adv-x="716" 
d="M-156 -297l262 659h474l-318 -659h-418z" />
    <glyph glyph-name="hyphen" unicode="-" horiz-adv-x="1069" 
d="M76 455l51 288h850l-51 -288h-850z" />
    <glyph glyph-name="period" unicode="." horiz-adv-x="643" 
d="M231 -20q-101 0 -166 67.5t-65 169.5q0 116 77 192t197 76q101 0 166.5 -67.5t65.5 -169.5q0 -116 -77.5 -192t-197.5 -76z" />
    <glyph glyph-name="slash" unicode="/" horiz-adv-x="1040" 
d="M-84 -205l807 1802h418l-807 -1802h-418z" />
    <glyph glyph-name="zero" unicode="0" horiz-adv-x="1370" 
d="M604 -20q-243 0 -382.5 163.5t-139.5 440.5q0 149 35 290.5t101.5 260.5t156.5 209.5t208 141t248 50.5q241 0 379 -162t138 -438q0 -150 -34.5 -292t-100 -261.5t-155 -210t-207 -141.5t-247.5 -51zM643 328q81 0 145.5 101t95.5 236t31 263q0 122 -33.5 191t-95.5 69
q-61 0 -114.5 -59.5t-87.5 -150.5t-53 -194t-19 -196q0 -120 34.5 -190t96.5 -70z" />
    <glyph glyph-name="one" unicode="1" horiz-adv-x="831" 
d="M147 0l207 1167h-192l61 349h615l-269 -1516h-422z" />
    <glyph glyph-name="two" unicode="2" horiz-adv-x="1269" 
d="M-41 0l45 264l617 557q200 177 200 281q0 39 -24 62.5t-66 23.5q-51 0 -92 -49.5t-53 -120.5l-414 67q36 209 198 330t396 121q222 0 351.5 -101t129.5 -268q0 -163 -105 -308.5t-315 -313.5l-256 -205l555 8l-61 -348h-1106z" />
    <glyph glyph-name="three" unicode="3" horiz-adv-x="1226" 
d="M1202 1516l-45 -261l-338 -303q146 -31 227.5 -132.5t81.5 -252.5q0 -179 -92 -314t-249 -204t-355 -69q-145 0 -274.5 39t-204.5 100l192 289q50 -37 134 -58.5t172 -21.5q101 0 173 49t72 123q0 70 -48.5 108.5t-135.5 38.5q-91 0 -174 -55l-90 219l358 356h-391
l61 349h926z" />
    <glyph glyph-name="four" unicode="4" horiz-adv-x="1386" 
d="M582 0l45 258h-654l47 285l922 973h328l-158 -910h191l-62 -348h-192l-45 -258h-422zM446 594h254l60 340z" />
    <glyph glyph-name="five" unicode="5" horiz-adv-x="1255" 
d="M410 -20q-149 0 -271.5 36t-197.5 99l159 286q109 -73 312 -73q127 0 221 59.5t94 149.5q0 59 -35 89.5t-100 30.5q-61 0 -107 -29t-59 -69l-281 49l263 908h841l-59 -349h-479l-66 -166q45 5 66 5q203 0 328.5 -108t125.5 -284q0 -137 -61 -256.5t-163.5 -201.5
t-240.5 -129t-290 -47z" />
    <glyph glyph-name="six" unicode="6" 
d="M780 938q172 0 289 -104t117 -273q0 -165 -91 -299t-242.5 -208t-330.5 -74q-227 0 -359 108t-132 291q0 88 23.5 173t69.5 165.5t97.5 149.5t122.5 147l467 502h471l-557 -578h55zM582 328q71 0 116 55t45 125q0 52 -29.5 82.5t-80.5 30.5q-69 0 -115.5 -53t-46.5 -128
q0 -53 29.5 -82.5t81.5 -29.5z" />
    <glyph glyph-name="seven" unicode="7" horiz-adv-x="1171" 
d="M197 1516h1093l-749 -1516h-451l592 1167h-547z" />
    <glyph glyph-name="eight" unicode="8" horiz-adv-x="1298" 
d="M1024 776q158 -102 158 -287q0 -116 -50.5 -213.5t-136 -161.5t-199 -99t-239.5 -35q-238 0 -377 109t-139 292q0 146 76.5 253.5t208.5 166.5q-127 98 -127 258q0 141 80.5 251t213 168t291.5 58q218 0 345.5 -103t127.5 -276q0 -130 -62 -226.5t-171 -154.5zM739 1188
q-50 0 -83 -45t-33 -96q0 -41 23 -65t63 -24q49 0 82.5 45.5t33.5 94.5q0 90 -86 90zM596 328q67 0 114.5 52.5t47.5 117.5q0 54 -31.5 83t-87.5 29q-69 0 -115.5 -53.5t-46.5 -118.5q0 -54 31 -82t88 -28z" />
    <glyph glyph-name="nine" unicode="9" 
d="M774 1536q228 0 360 -108.5t132 -290.5q0 -167 -82.5 -319t-231.5 -316l-467 -502h-471l557 580q-16 -2 -55 -2q-172 0 -288.5 103.5t-116.5 272.5q0 165 90.5 299.5t242 208.5t330.5 74zM715 1188q-72 0 -117 -55t-45 -125q0 -52 30 -82.5t81 -30.5q69 0 115 52.5
t46 127.5q0 53 -29 83t-81 30z" />
    <glyph glyph-name="colon" unicode=":" horiz-adv-x="679" 
d="M360 641q-101 0 -166 68t-65 170q0 116 77 192t197 76q101 0 166.5 -68t65.5 -170q0 -116 -77.5 -192t-197.5 -76zM246 -20q-101 0 -166.5 67.5t-65.5 169.5q0 116 77.5 192t197.5 76q101 0 166 -67.5t65 -169.5q0 -116 -77 -192t-197 -76z" />
    <glyph glyph-name="semicolon" unicode=";" horiz-adv-x="720" 
d="M397 641q-101 0 -166 68t-65 170q0 116 77 192t197 76q101 0 166.5 -68t65.5 -170q0 -116 -77.5 -192t-197.5 -76zM-160 -297l262 659h473l-317 -659h-418z" />
    <glyph glyph-name="less" unicode="&#x3c;" horiz-adv-x="1280" 
d="M1051 133l-992 451l47 266l1149 450l-65 -380l-600 -203l526 -203z" />
    <glyph glyph-name="equal" unicode="=" horiz-adv-x="1292" 
d="M139 772l60 336h1056l-59 -336h-1057zM63 342l60 336h1057l-60 -336h-1057z" />
    <glyph glyph-name="greater" unicode="&#x3e;" horiz-adv-x="1280" 
d="M49 133l66 381l600 203l-527 203l66 380l989 -450l-45 -266z" />
    <glyph glyph-name="question" unicode="?" horiz-adv-x="1191" 
d="M741 539l-342 28q19 105 59 182.5t81 118.5t106 88q125 91 125 158q0 74 -100 74q-49 0 -89 -31.5t-55 -81.5l-379 47q44 192 197.5 303t366.5 111q227 0 360 -103t133 -272q0 -89 -29 -156.5t-76.5 -114t-133.5 -104.5q-54 -37 -81.5 -57.5t-64 -53.5t-54.5 -66t-24 -70
zM494 -20q-97 0 -156 57t-59 149q0 109 70 183.5t181 74.5q96 0 154.5 -57.5t58.5 -148.5q0 -109 -69.5 -183.5t-179.5 -74.5z" />
    <glyph glyph-name="at" unicode="@" horiz-adv-x="2414" 
d="M1776 999l-90 -503q-3 -21 -3 -27q0 -53 46 -53q59 0 110.5 59.5t79 145t27.5 167.5q0 187 -157 291.5t-429 104.5q-268 0 -472 -101t-315.5 -285.5t-111.5 -424.5q0 -233 166 -363.5t483 -130.5q119 0 285 19t291 47l88 -324q-150 -42 -350.5 -67t-358.5 -25
q-243 0 -435.5 58.5t-321.5 166.5t-197 262t-68 344q0 261 98 480t273.5 371.5t427.5 237.5t553 85q446 0 702 -189.5t256 -519.5q0 -150 -47.5 -288.5t-129.5 -242.5t-200.5 -166t-253.5 -62q-121 0 -210.5 47t-135.5 131q-128 -176 -340 -176q-172 0 -282.5 109.5
t-110.5 287.5q0 141 66 268t182.5 205t253.5 78q143 0 217 -96l18 79h396zM1165 418q43 0 76.5 30.5t42.5 75.5q4 24 4 39q0 103 -100 103q-52 0 -86.5 -46t-34.5 -102q0 -100 98 -100z" />
    <glyph glyph-name="A" unicode="A" horiz-adv-x="1611" 
d="M1069 0l-39 207h-590l-116 -207h-457l897 1516h391l358 -1516h-444zM635 555h328l-84 434z" />
    <glyph glyph-name="B" unicode="B" horiz-adv-x="1501" 
d="M1223 805q88 -46 136 -124t48 -177q0 -149 -81 -265t-217 -177.5t-302 -61.5h-768l268 1516h762q167 0 265 -96.5t98 -256.5q0 -230 -209 -358zM897 1167h-229l-39 -215h196q166 0 166 133q0 82 -94 82zM788 348q193 0 193 156q0 49 -32 74.5t-91 25.5h-291l-45 -256h266
z" />
    <glyph glyph-name="C" unicode="C" horiz-adv-x="1308" 
d="M811 -20q-340 0 -536.5 175.5t-196.5 473.5q0 195 74 364t201.5 288t305 187t379.5 68q177 0 322 -74l-64 -358q-103 84 -297 84q-139 0 -251.5 -73.5t-174 -195t-61.5 -262.5q0 -153 88 -241t244 -88q205 0 354 108l-70 -399q-129 -57 -317 -57z" />
    <glyph glyph-name="D" unicode="D" horiz-adv-x="1658" 
d="M973 1516q297 0 471 -167.5t174 -449.5q0 -254 -114 -459.5t-318 -322.5t-459 -117h-688l268 1516h666zM778 348q79 0 147.5 30.5t116 82t82 117.5t50.5 137.5t16 142.5q0 148 -69 228.5t-206 80.5h-247l-146 -819h256z" />
    <glyph glyph-name="E" unicode="E" horiz-adv-x="1382" 
d="M1368 1167h-700l-41 -229h622l-61 -348h-623l-43 -242h717l-61 -348h-1139l268 1516h1123z" />
    <glyph glyph-name="F" unicode="F" horiz-adv-x="1280" 
d="M1303 1167h-635l-47 -270h520l-62 -348h-522l-96 -549h-422l268 1516h1057z" />
    <glyph glyph-name="G" unicode="G" horiz-adv-x="1710" 
d="M1706 903q-5 -73 -23 -176q-38 -221 -158.5 -390t-309.5 -263t-418 -94q-330 0 -523.5 176t-193.5 471q0 260 122 468t338 324.5t484 116.5q177 0 318 -50t233 -136l-305 -246q-97 84 -279 84q-102 0 -192.5 -45t-153 -119.5t-99 -171.5t-36.5 -199q0 -151 85.5 -238
t235.5 -87q131 0 233 62.5t146 164.5h-301l62 348h735z" />
    <glyph glyph-name="H" unicode="H" horiz-adv-x="1835" 
d="M1413 1516h422l-268 -1516h-422l106 600h-684l-106 -600h-422l268 1516h422l-100 -568h684z" />
    <glyph glyph-name="I" unicode="I" horiz-adv-x="729" 
d="M39 0l268 1516h422l-268 -1516h-422z" />
    <glyph glyph-name="J" unicode="J" horiz-adv-x="911" 
d="M227 -20q-207 0 -317 143l139 258q61 -53 135 -53q48 0 81.5 31.5t41.5 78.5l191 1078h422l-209 -1180q-29 -164 -163 -260t-321 -96z" />
    <glyph glyph-name="K" unicode="K" horiz-adv-x="1503" 
d="M1665 1516l-717 -746l471 -770h-493l-353 598h-6l-106 -598h-422l268 1516h422l-98 -551l518 551h516z" />
    <glyph glyph-name="L" unicode="L" horiz-adv-x="1222" 
d="M522 348h625l-64 -348h-1044l268 1516h422z" />
    <glyph glyph-name="M" unicode="M" horiz-adv-x="2070" 
d="M1534 1516h473l-154 -1516h-421l96 813l-498 -813h-221l-209 813l-192 -813h-422l379 1516h473l204 -816z" />
    <glyph glyph-name="N" unicode="N" horiz-adv-x="1835" 
d="M39 0l268 1516h254l715 -805l137 805h422l-268 -1516h-252l-715 805l-139 -805h-422z" />
    <glyph glyph-name="O" unicode="O" horiz-adv-x="1802" 
d="M811 -20q-340 0 -536.5 175.5t-196.5 473.5q0 195 74 364t201.5 288t305 187t379.5 68q336 0 530.5 -175t194.5 -470q0 -196 -73 -366t-199 -289.5t-302.5 -187.5t-377.5 -68zM844 328q139 0 251.5 74.5t173 196t60.5 263.5q0 151 -87.5 238.5t-242.5 87.5
q-140 0 -253 -73.5t-174.5 -195t-61.5 -262.5q0 -153 89 -241t245 -88z" />
    <glyph glyph-name="P" unicode="P" horiz-adv-x="1441" 
d="M973 1516q225 0 357 -119.5t132 -321.5q0 -183 -89.5 -326t-243.5 -220.5t-345 -77.5h-243l-80 -451h-422l268 1516h666zM805 799q104 0 164.5 65t60.5 172q0 62 -35 96.5t-102 34.5h-225l-66 -368h203z" />
    <glyph glyph-name="Q" unicode="Q" horiz-adv-x="1802" 
d="M1776 0h-498l-49 63q-189 -83 -418 -83q-340 0 -536.5 175.5t-196.5 473.5q0 195 74 364t201.5 288t305 187t379.5 68q336 0 530.5 -175t194.5 -470q0 -354 -223 -604zM844 328q77 0 157 26l-202 262h471l4 -4q55 119 55 250q0 151 -87.5 238.5t-242.5 87.5
q-140 0 -253 -73.5t-174.5 -195t-61.5 -262.5q0 -153 89 -241t245 -88z" />
    <glyph glyph-name="R" unicode="R" horiz-adv-x="1554" 
d="M1485 1081q0 -175 -86.5 -305t-237.5 -203l266 -573h-481l-209 496h-188l-88 -496h-422l268 1516h699q221 0 350 -118.5t129 -316.5zM668 1167l-58 -323h193q132 0 192 54.5t60 139.5q0 62 -33.5 95.5t-97.5 33.5h-256z" />
    <glyph glyph-name="S" unicode="S" horiz-adv-x="1374" 
d="M598 -20q-170 0 -313.5 55t-249.5 155l180 267q167 -129 393 -129q103 0 167.5 28t64.5 84q0 42 -46 66.5t-157 56.5l-70 21q-97 29 -167.5 61.5t-128.5 79t-87.5 109.5t-29.5 143q0 163 88.5 291t241.5 198t341 70q306 0 531 -182l-209 -277q-144 111 -326 111
q-93 0 -159 -31t-66 -80q0 -39 45 -62t152 -54l65 -19q86 -24 158 -60t134 -87.5t97 -124.5t35 -160q0 -154 -93 -276t-248.5 -188t-342.5 -66z" />
    <glyph glyph-name="T" unicode="T" horiz-adv-x="1351" 
d="M1475 1516l-62 -349h-438l-207 -1167h-422l207 1167h-434l61 349h1295z" />
    <glyph glyph-name="U" unicode="U" horiz-adv-x="1679" 
d="M741 -20q-288 0 -456 143.5t-168 380.5q0 49 10 117l158 895h422l-156 -883q-8 -54 -8 -78q0 -108 62 -167.5t173 -59.5q124 0 218.5 84.5t117.5 212.5l156 891h422l-164 -924q-51 -282 -264.5 -447t-522.5 -165z" />
    <glyph glyph-name="V" unicode="V" horiz-adv-x="1611" 
d="M496 0l-361 1516h445l196 -986l551 986h455l-895 -1516h-391z" />
    <glyph glyph-name="W" unicode="W" horiz-adv-x="2394" 
d="M379 0l-238 1516h445l104 -951l457 951h389l123 -951l438 951h457l-772 -1516h-391l-140 952l-481 -952h-391z" />
    <glyph glyph-name="X" unicode="X" horiz-adv-x="1490" 
d="M1628 1516l-624 -717l403 -799h-498l-204 446l-365 -446h-473l670 778l-383 738h497l183 -392l321 392h473z" />
    <glyph glyph-name="Y" unicode="Y" horiz-adv-x="1486" 
d="M412 0l96 504l-344 1012h436l182 -642l392 642h456l-700 -1012l-96 -504h-422z" />
    <glyph glyph-name="Z" unicode="Z" horiz-adv-x="1318" 
d="M1409 1516l-776 -1168h575l-61 -348h-1215l777 1167h-551l61 349h1190z" />
    <glyph glyph-name="bracketleft" unicode="[" horiz-adv-x="874" 
d="M-43 -369l346 1966h676l-61 -350h-252l-224 -1265h252l-61 -351h-676z" />
    <glyph glyph-name="backslash" unicode="\" horiz-adv-x="1015" 
d="M399 -205l-172 1802h406l172 -1802h-406z" />
    <glyph glyph-name="bracketright" unicode="]" horiz-adv-x="874" 
d="M905 1597l-346 -1966h-676l62 351h252l223 1265h-252l61 350h676z" />
    <glyph glyph-name="asciicircum" unicode="^" 
d="M1184 614h-406l-100 322l-211 -322h-397l485 717h395z" />
    <glyph glyph-name="underscore" unicode="_" horiz-adv-x="1345" 
d="M-113 -289l52 289h1241l-52 -289h-1241z" />
    <glyph glyph-name="grave" unicode="`" horiz-adv-x="1228" 
d="M438 1264l-350 354h461l225 -354h-336z" />
    <glyph glyph-name="a" unicode="a" horiz-adv-x="1243" 
d="M205 1126h1009l-200 -1126h-393l12 88q-114 -108 -268 -108q-169 0 -269 87.5t-100 231.5q0 134 74.5 232t196 146t272.5 48q95 0 190 -18l19 100h-601zM496 268q65 0 116 47.5t72 122.5v4q-68 7 -94 7q-76 0 -124 -31.5t-48 -79.5q0 -70 78 -70z" />
    <glyph glyph-name="b" unicode="b" horiz-adv-x="1421" 
d="M889 1147q204 0 334.5 -132t130.5 -349q0 -136 -49.5 -262.5t-132.5 -219.5t-198 -148.5t-241 -55.5q-212 0 -309 153l-31 -133h-395l283 1597h409l-98 -557q125 107 297 107zM696 330q100 0 169 82.5t69 187.5q0 92 -51 144.5t-140 52.5q-86 0 -150.5 -65t-82.5 -163
q-4 -24 -4 -39q0 -98 49.5 -149t140.5 -51z" />
    <glyph glyph-name="c" unicode="c" horiz-adv-x="993" 
d="M606 -20q-262 0 -415.5 133.5t-153.5 359.5q0 194 95 348.5t260.5 240t369.5 85.5q118 0 217 -43l-61 -350q-79 43 -181 43q-122 0 -201 -86.5t-79 -200.5q0 -82 49.5 -131t142.5 -49q133 0 217 61l-65 -381q-67 -30 -195 -30z" />
    <glyph glyph-name="d" unicode="d" horiz-adv-x="1413" 
d="M1059 1597h409l-282 -1597h-395l12 94q-123 -114 -305 -114q-204 0 -334.5 132t-130.5 349q0 182 83 340t226 252t311 94q200 0 301 -141zM643 330q86 0 150.5 63.5t83.5 161.5v2q4 24 4 39q0 98 -50 149.5t-141 51.5q-100 0 -168.5 -83t-68.5 -188q0 -92 50.5 -144
t139.5 -52z" />
    <glyph glyph-name="e" unicode="e" horiz-adv-x="1290" 
d="M1229 670q0 -130 -43 -250h-737q0 -121 126 -121q115 0 222 88l299 -174q-89 -107 -227 -170t-294 -63q-250 0 -395 130t-145 351q0 191 87 348t242 247.5t345 90.5q243 0 381.5 -129t138.5 -348zM702 827q-129 0 -198 -135h315q-3 135 -117 135z" />
    <glyph glyph-name="f" unicode="f" horiz-adv-x="892" 
d="M989 1264h-241l-25 -138h215l-57 -333h-217l-140 -793h-409l139 793h-168l57 333h170l84 471h650z" />
    <glyph glyph-name="g" unicode="g" horiz-adv-x="1417" 
d="M995 1126h396l-279 -1577h-1175l57 334h766l37 201q-125 -104 -295 -104q-204 0 -334.5 132t-130.5 349q0 182 83 340t226 252t311 94q210 0 310 -152zM647 330q86 0 150.5 63.5t83.5 161.5v2q4 24 4 39q0 98 -50 149.5t-141 51.5q-100 0 -168.5 -83t-68.5 -188
q0 -92 50.5 -144t139.5 -52z" />
    <glyph glyph-name="h" unicode="h" horiz-adv-x="1372" 
d="M901 1147q178 0 281.5 -100t103.5 -263q0 -50 -8 -94l-121 -690h-409l112 643q4 28 4 37q0 117 -147 117q-74 0 -129 -42.5t-66 -103.5l-114 -651h-410l281 1597h409l-96 -555q136 105 309 105z" />
    <glyph glyph-name="i" unicode="i" horiz-adv-x="636" 
d="M438 1210q-97 0 -156 57.5t-59 149.5q0 109 70.5 183.5t181.5 74.5q96 0 154.5 -57.5t58.5 -149.5q0 -109 -69.5 -183.5t-180.5 -74.5zM-2 0l201 1126h409l-200 -1126h-410z" />
    <glyph glyph-name="j" unicode="j" horiz-adv-x="636" 
d="M436 1210q-97 0 -156 57.5t-59 149.5q0 109 70.5 183.5t181.5 74.5q96 0 154.5 -57.5t58.5 -149.5q0 -109 -69.5 -183.5t-180.5 -74.5zM-80 -451l279 1577h409l-278 -1577h-410z" />
    <glyph glyph-name="k" unicode="k" horiz-adv-x="1310" 
d="M1419 1126l-600 -538l414 -588h-494l-260 403l-71 -403h-410l283 1597h409l-139 -784l340 313h528z" />
    <glyph glyph-name="l" unicode="l" horiz-adv-x="751" 
d="M-2 0l283 1597h409l-223 -1261h186l-61 -336h-594z" />
    <glyph glyph-name="m" unicode="m" horiz-adv-x="2019" 
d="M1513 1147q192 0 305 -101.5t113 -267.5q0 -47 -8 -88l-121 -690h-409l110 637q4 25 4 45q0 115 -118 115q-63 0 -110.5 -41.5t-59.5 -102.5l-115 -653h-410l111 637q4 25 4 45q0 57 -31 86t-88 29q-63 0 -110 -41.5t-58 -102.5l-114 -653h-410l197 1126h395l-10 -84
q128 105 294 105q193 0 289 -129q143 129 350 129z" />
    <glyph glyph-name="n" unicode="n" horiz-adv-x="1372" 
d="M901 1147q178 0 281.5 -100t103.5 -263q0 -50 -8 -94l-121 -690h-409l112 643q4 28 4 37q0 117 -147 117q-74 0 -129 -42.5t-66 -103.5l-114 -651h-410l197 1126h395l-12 -94q141 115 323 115z" />
    <glyph glyph-name="o" unicode="o" horiz-adv-x="1374" 
d="M594 -20q-256 0 -407.5 133t-151.5 356q0 193 93 348.5t256.5 242.5t365.5 87q257 0 407 -132.5t150 -357.5q0 -145 -54 -271t-148.5 -215t-226.5 -140t-284 -51zM649 330q98 0 168 83.5t70 186.5q0 92 -51 144.5t-140 52.5q-101 0 -171 -83.5t-70 -185.5
q0 -93 51 -145.5t143 -52.5z" />
    <glyph glyph-name="p" unicode="p" horiz-adv-x="1417" 
d="M887 1147q204 0 334.5 -132t130.5 -349q0 -136 -49.5 -262.5t-132.5 -219.5t-198 -148.5t-241 -55.5q-202 0 -301 141l-100 -572h-410l279 1577h393l-12 -96q126 117 307 117zM694 330q100 0 169 82.5t69 187.5q0 92 -51 144.5t-140 52.5q-86 0 -150.5 -64.5
t-82.5 -161.5v-2q-4 -24 -4 -39q0 -98 49.5 -149t140.5 -51z" />
    <glyph glyph-name="q" unicode="q" horiz-adv-x="1417" 
d="M993 1126h396l-279 -1577h-410l95 537q-121 -106 -295 -106q-204 0 -334.5 132t-130.5 349q0 182 83 340t226 252t311 94q210 0 310 -152zM645 330q87 0 151.5 64.5t82.5 162.5q4 24 4 39q0 98 -50 149.5t-141 51.5q-100 0 -168.5 -83t-68.5 -188q0 -92 50.5 -144
t139.5 -52z" />
    <glyph glyph-name="r" unicode="r" horiz-adv-x="911" 
d="M-2 0l201 1126h393l-17 -90q174 111 398 111l-68 -377q-147 0 -265.5 -67t-135.5 -160l-96 -543h-410z" />
    <glyph glyph-name="s" unicode="s" horiz-adv-x="1114" 
d="M449 -20q-297 0 -461 155l170 230q125 -66 299 -66q53 0 89 13t36 40q0 25 -28 38t-95 24l-68 12q-139 25 -220 93.5t-81 185.5q0 124 72.5 226t196 159t270.5 57q294 0 458 -131l-194 -248q-98 59 -236 59q-143 0 -143 -41q0 -29 91 -53l3 -1.5t3 -1t3.5 -1t3.5 -0.5
l66 -18q72 -20 126 -45t98.5 -61t67.5 -86t23 -113q0 -131 -75 -229t-198.5 -147.5t-276.5 -49.5z" />
    <glyph glyph-name="t" unicode="t" horiz-adv-x="903" 
d="M942 1126l-59 -333h-201l-139 -793h-410l139 793h-194l59 333h195l57 330h410l-58 -330h201z" />
    <glyph glyph-name="u" unicode="u" horiz-adv-x="1304" 
d="M557 -20q-230 0 -364 112.5t-134 298.5q0 43 9 90l112 645h410l-113 -645q-4 -28 -4 -43q0 -108 121 -108q62 0 111.5 41.5t58.5 99.5l115 655h409l-119 -673q-38 -217 -205 -345t-407 -128z" />
    <glyph glyph-name="v" unicode="v" horiz-adv-x="1300" 
d="M332 0l-250 1126h440l84 -663l330 663h453l-650 -1126h-407z" />
    <glyph glyph-name="w" unicode="w" horiz-adv-x="1888" 
d="M270 0l-188 1126h440l56 -663l278 663h330l37 -663l297 663h452l-588 -1126h-407l-29 653l-270 -653h-408z" />
    <glyph glyph-name="x" unicode="x" horiz-adv-x="1269" 
d="M1350 1126l-490 -559l299 -567h-473l-117 250l-202 -250h-498l514 586l-277 540h476l96 -213l172 213h500z" />
    <glyph glyph-name="y" unicode="y" horiz-adv-x="1318" 
d="M881 1126h409l-278 -1577h-1098l57 334h688l35 191q-128 -94 -280 -94q-166 0 -262.5 97.5t-96.5 260.5q0 51 8 98l121 690h410l-111 -641q-4 -27 -4 -45q0 -110 119 -110q64 0 110 40.5t58 108.5z" />
    <glyph glyph-name="z" unicode="z" horiz-adv-x="1146" 
d="M-61 0l548 793h-391l58 333h1013l-549 -790h412l-57 -336h-1034z" />
    <glyph glyph-name="braceleft" unicode="{" horiz-adv-x="911" 
d="M432 -389q-165 0 -260.5 84t-95.5 221q0 36 6 70l65 348q3 12 3 28q0 78 -111 78h-21l62 348h14q133 0 150 107l63 377q27 161 144 253.5t286 92.5q134 0 277 -31l-58 -321q-25 4 -73 4q-156 0 -181 -154l-51 -299q-14 -78 -71.5 -132t-153.5 -77q73 -16 111 -71.5
t38 -124.5q0 -17 -2 -27l-51 -301q-4 -20 -4 -37q0 -88 94 -88q57 0 115 8l-59 -332q-111 -24 -236 -24z" />
    <glyph glyph-name="bar" unicode="|" horiz-adv-x="694" 
d="M-57 -451l360 2048h422l-360 -2048h-422z" />
    <glyph glyph-name="braceright" unicode="}" horiz-adv-x="911" 
d="M465 1618q165 0 260.5 -84t95.5 -221q0 -35 -6 -70l-65 -348q-2 -8 -2 -29q0 -78 110 -78h21l-62 -348h-14q-133 0 -150 -106l-63 -377q-27 -161 -144 -253.5t-286 -92.5q-134 0 -277 31l58 321q25 -4 73 -4q156 0 181 154l51 299q14 78 71.5 132t153.5 77
q-73 16 -111 71.5t-38 124.5q0 17 2 27l51 301q4 20 4 37q0 88 -94 88q-57 0 -115 -8l59 331q116 25 236 25z" />
    <glyph glyph-name="asciitilde" unicode="~" horiz-adv-x="1280" 
d="M823 420q-78 0 -223 43t-188 43q-54 0 -81 -15t-34 -51h-217q25 154 126 252.5t238 98.5q84 0 226 -42t188 -42q57 0 81.5 11.5t31.5 51.5h217q-28 -162 -127 -256t-238 -94z" />
    <glyph glyph-name="uni00A0" unicode="&#xa0;" horiz-adv-x="473" 
 />
    <glyph glyph-name="exclamdown" unicode="&#xa1;" horiz-adv-x="675" 
d="M365 682q-97 0 -156 57.5t-59 149.5q0 109 70 183.5t181 74.5q96 0 154.5 -57.5t58.5 -149.5q0 -109 -69.5 -183.5t-179.5 -74.5zM-68 -451l218 1026h348l-142 -1026h-424z" />
    <glyph glyph-name="cent" unicode="&#xa2;" horiz-adv-x="1236" 
d="M899 526l201 -293q-129 -109 -301 -137l-31 -178h-381l35 195q-161 50 -249.5 169.5t-88.5 288.5q0 249 147.5 427t386.5 231l33 184h381l-35 -194q115 -39 201 -115l-260 -260q-52 55 -162 55q-117 0 -194.5 -89t-77.5 -200q0 -85 48.5 -131.5t147.5 -46.5q118 0 199 94
z" />
    <glyph glyph-name="sterling" unicode="&#xa3;" horiz-adv-x="1335" 
d="M1319 1104h-412q2 8 2 24q0 30 -19.5 45t-53.5 15q-82 0 -97 -88l-37 -203h500l-63 -334h-494l-41 -229h592l-59 -334h-1162l58 328h147l43 235h-127l60 334h125l43 240q34 185 183 292t367 107q207 0 329 -99t122 -259q0 -34 -6 -74z" />
    <glyph glyph-name="currency" unicode="&#xa4;" horiz-adv-x="1372" 
d="M1190 768q0 -149 -80 -274l129 -148l-283 -246l-133 154q-90 -37 -190 -37q-116 0 -205 47l-188 -166l-211 246l190 170q-18 62 -18 127q0 148 80 277l-127 145l280 248l135 -158q90 35 189 35q116 0 205 -47l188 166l213 -246l-193 -168q19 -62 19 -125zM516 666
q0 -66 43 -107t111 -41q84 0 143 64.5t59 160.5q0 65 -41.5 107.5t-109.5 42.5q-85 0 -145 -65t-60 -162z" />
    <glyph glyph-name="yen" unicode="&#xa5;" horiz-adv-x="1581" 
d="M1669 1516l-524 -758h155l-45 -256h-286l-15 -74h287l-45 -256h-291l-33 -172h-421l32 172h-270l45 256h274l15 74h-277l45 256h146l-258 758h436l182 -642l391 642h457z" />
    <glyph glyph-name="brokenbar" unicode="&#xa6;" horiz-adv-x="690" 
d="M156 778l145 819h422l-145 -819h-422zM-59 -451l143 820h422l-144 -820h-421z" />
    <glyph glyph-name="section" unicode="&#xa7;" horiz-adv-x="1312" 
d="M838 1024q61 -19 114.5 -45t103.5 -63.5t85.5 -83t56.5 -105.5t21 -129q0 -96 -40 -189t-112 -167q53 -85 53 -187q0 -153 -87 -274.5t-232 -186.5t-318 -65q-311 0 -522 211l184 266q152 -129 355 -129q81 0 131.5 29t50.5 84q0 43 -38.5 69.5t-125.5 53.5l-61 18
q-89 27 -155 60t-119 78.5t-80 108t-27 140.5q0 101 36.5 196.5t102.5 172.5q-47 68 -47 164q0 164 84.5 294.5t229 201.5t319.5 71q278 0 493 -182l-215 -277q-130 111 -284 111q-73 0 -128 -31.5t-55 -83.5q0 -37 40 -61t128 -52zM489 608q0 -43 44.5 -69t150.5 -60
l57 -18l21 -6q45 39 45 90q0 45 -47 74.5t-144 56.5l-61 16l-18 6q-48 -39 -48 -90z" />
    <glyph glyph-name="dieresis" unicode="&#xa8;" horiz-adv-x="1228" 
d="M444 1210q-97 0 -156 57.5t-59 149.5q0 109 70.5 183.5t181.5 74.5q96 0 154.5 -57.5t58.5 -149.5q0 -109 -69.5 -183.5t-180.5 -74.5zM1034 1210q-97 0 -156 57.5t-59 149.5q0 109 70.5 183.5t181.5 74.5q96 0 154.5 -57.5t58.5 -149.5q0 -109 -69.5 -183.5
t-180.5 -74.5z" />
    <glyph glyph-name="copyright" unicode="&#xa9;" horiz-adv-x="1824" 
d="M821 -20q-339 0 -536 175t-197 470q0 196 73 365.5t200.5 289t305.5 188t382 68.5q339 0 533 -173.5t194 -467.5q0 -198 -72.5 -369t-199 -290.5t-303.5 -187.5t-380 -68zM823 154q220 0 388.5 91.5t260 257t91.5 378.5q0 222 -140.5 352.5t-384.5 130.5
q-164 0 -302.5 -53.5t-234 -149.5t-149 -231t-53.5 -295q0 -221 141 -351t383 -130zM866 324q-181 0 -287 99t-106 265q0 219 149 355.5t377 136.5q231 0 347 -146l-189 -149q-54 73 -172 73q-101 0 -172.5 -75t-71.5 -168q0 -78 47 -124t130 -46q125 0 212 119l146 -166
q-152 -174 -410 -174z" />
    <glyph glyph-name="ordfeminine" unicode="&#xaa;" horiz-adv-x="817" 
d="M547 1536q126 0 200 -60.5t74 -162.5q0 -19 -4 -47l-72 -416h-235l8 53q-71 -65 -162 -65q-101 0 -161 52t-60 138q0 121 93 189.5t233 68.5q55 0 114 -12v10q0 33 -22.5 47.5t-69.5 14.5q-82 0 -149 -39l-90 151q130 78 303 78zM428 1012q43 0 75.5 29t43.5 75
q-16 2 -43 2q-52 0 -84.5 -19t-32.5 -50q0 -37 41 -37z" />
    <glyph glyph-name="guillemotleft" unicode="&#xab;" horiz-adv-x="1556" 
d="M334 72l-297 481l457 481h446l-455 -481l271 -481h-422zM961 72l-297 481l456 481h447l-455 -481l270 -481h-421z" />
    <glyph glyph-name="logicalnot" unicode="&#xac;" horiz-adv-x="1269" 
d="M1206 1004l-125 -697h-409l65 363h-649l59 334h1059z" />
    <glyph glyph-name="uni00AD" unicode="&#xad;" horiz-adv-x="1069" 
d="M76 455l51 288h850l-51 -288h-850z" />
    <glyph glyph-name="registered" unicode="&#xae;" horiz-adv-x="823" 
d="M559 1618q138 0 218.5 -76t80.5 -203q0 -158 -103 -260t-263 -102q-140 0 -222 76t-82 202q0 159 104.5 261t266.5 102zM494 1038q74 0 132.5 25t93.5 67.5t53 95t18 111.5q0 104 -63 163t-173 59q-74 0 -132.5 -25t-94 -67.5t-54 -95.5t-18.5 -111q0 -104 63.5 -163
t174.5 -59zM672 1368q0 -81 -78 -111l57 -127h-90l-47 111h-6h-39l-20 -111h-93l60 334h147q50 0 79.5 -23.5t29.5 -72.5zM494 1386l-13 -71h45q27 0 42.5 12t15.5 31q0 17 -9 22.5t-30 5.5h-51z" />
    <glyph glyph-name="macron" unicode="&#xaf;" horiz-adv-x="1228" 
d="M158 1231l57 319h819l-57 -319h-819z" />
    <glyph glyph-name="degree" unicode="&#xb0;" horiz-adv-x="745" 
d="M467 1063q-133 0 -213 67.5t-80 180.5q0 135 97 221t247 86q131 0 209 -67t78 -177q0 -138 -93 -224.5t-245 -86.5zM481 1264q38 0 61 24.5t23 57.5q0 36 -18.5 54.5t-48.5 18.5q-39 0 -62.5 -25.5t-23.5 -58.5q0 -32 19 -51.5t50 -19.5z" />
    <glyph glyph-name="plusminus" unicode="&#xb1;" horiz-adv-x="1294" 
d="M934 1094h334l-60 -334h-334l-61 -346h-412l62 346h-334l59 334h336l62 344h409zM-8 -18l59 335h1077l-57 -335h-1079z" />
    <glyph glyph-name="uni00B2" unicode="&#xb2;" horiz-adv-x="776" 
d="M78 811l28 158l373 329q117 101 117 175q0 24 -14.5 38.5t-38.5 14.5q-31 0 -55.5 -30t-30.5 -73l-250 39q23 126 119.5 198.5t238.5 72.5q133 0 211 -60t78 -162q0 -98 -64 -186.5t-190 -187.5l-154 -121l334 2l-37 -207h-665z" />
    <glyph glyph-name="uni00B3" unicode="&#xb3;" horiz-adv-x="745" 
d="M825 1720l-28 -155l-203 -183q87 -19 135.5 -80t48.5 -151q0 -161 -117.5 -256.5t-300.5 -95.5q-86 0 -164 23.5t-122 60.5l116 174q60 -51 181 -51q61 0 105 31t44 77q0 86 -110 86q-49 0 -105 -33l-53 131l215 215h-236l37 207h557z" />
    <glyph glyph-name="acute" unicode="&#xb4;" horiz-adv-x="1228" 
d="M305 1264l354 354h457l-479 -354h-332z" />
    <glyph glyph-name="paragraph" unicode="&#xb6;" horiz-adv-x="1394" 
d="M1376 1516l-346 -1967h-299l295 1678h-133l-295 -1678h-299l213 1209h-147q-111 0 -171.5 73.5t-60.5 202.5q0 127 57.5 237.5t161 177.5t228.5 67h796z" />
    <glyph glyph-name="periodcentered" unicode="&#xb7;" horiz-adv-x="655" 
d="M297 348q-101 0 -166 68t-65 170q0 116 77 192t197 76q101 0 166 -68t65 -170q0 -116 -77 -192t-197 -76z" />
    <glyph glyph-name="cedilla" unicode="&#xb8;" horiz-adv-x="1228" 
d="M211 -92q70 -10 110.5 -51.5t40.5 -100.5q0 -101 -90.5 -164t-238.5 -63q-128 0 -205 45l92 139q43 -26 98 -26q37 0 57.5 12.5t20.5 32.5q0 28 -51 28q-27 0 -59 -14l-35 86l112 168h220z" />
    <glyph glyph-name="uni00B9" unicode="&#xb9;" horiz-adv-x="512" 
d="M190 811l123 702h-114l37 207h370l-162 -909h-254z" />
    <glyph glyph-name="ordmasculine" unicode="&#xba;" horiz-adv-x="876" 
d="M483 838q-154 0 -245 79t-91 213q0 176 123 291t308 115q155 0 244 -78.5t89 -212.5q0 -176 -122 -291.5t-306 -115.5zM512 1051q60 0 102.5 48.5t42.5 110.5q0 55 -28.5 87t-79.5 32q-63 0 -107.5 -50t-44.5 -112q0 -56 30 -86t85 -30z" />
    <glyph glyph-name="guillemotright" unicode="&#xbb;" horiz-adv-x="1558" 
d="M563 1034l297 -481l-457 -481h-446l455 481l-271 481h422zM1190 1034l297 -481l-457 -481h-446l454 481l-270 481h422z" />
    <glyph glyph-name="onequarter" unicode="&#xbc;" horiz-adv-x="1796" 
d="M342 -20l-199 126l1086 1430l198 -125zM154 606l122 703h-114l37 207h370l-161 -910h-254zM1264 0l26 154h-395l31 172l555 583h196l-96 -544h115l-37 -211h-117l-26 -154h-252zM1182 356h151l43 215z" />
    <glyph glyph-name="onehalf" unicode="&#xbd;" horiz-adv-x="1800" 
d="M342 -20l-199 126l1086 1430l198 -125zM154 606l122 703h-114l37 207h370l-161 -910h-254zM958 0l29 158l373 329q117 101 117 175q0 24 -14.5 38.5t-39.5 14.5q-31 0 -55.5 -30t-30.5 -73l-250 39q23 125 120 198t239 73q133 0 211 -60t78 -162q0 -98 -64 -186.5
t-190 -187.5l-154 -121l334 2l-37 -207h-666z" />
    <glyph glyph-name="threequarters" unicode="&#xbe;" horiz-adv-x="2029" 
d="M1462 1536l199 -125l-1086 -1431l-198 126zM741 946q0 -161 -117.5 -256.5t-299.5 -95.5q-87 0 -165 23.5t-122 60.5l117 174q60 -51 180 -51q61 0 105 31t44 77q0 86 -110 86q-51 0 -105 -32l-53 131l215 215h-235l36 207h557l-28 -156l-203 -182q87 -19 135.5 -80.5
t48.5 -151.5zM1815 365h114l-37 -211h-116l-27 -154h-252l27 154h-396l31 172l555 583h197zM1567 356l43 215l-195 -215h152z" />
    <glyph glyph-name="questiondown" unicode="&#xbf;" horiz-adv-x="1175" 
d="M627 682q-97 0 -156 57.5t-59 149.5q0 109 70.5 183.5t181.5 74.5q96 0 154.5 -57.5t58.5 -149.5q0 -109 -69.5 -183.5t-180.5 -74.5zM434 -471q-227 0 -361 103t-134 272q0 67 15 119.5t49 97t72.5 78.5t102.5 80q106 76 165.5 146t70.5 165l344 -29q-16 -90 -41.5 -160
t-61.5 -123t-73 -90t-90 -79q-40 -32 -59 -49t-38.5 -48t-19.5 -63q0 -72 96 -72q47 0 89 33t56 80l379 -47q-44 -192 -196.5 -303t-364.5 -111z" />
    <glyph glyph-name="Agrave" unicode="&#xc0;" horiz-adv-x="1611" 
d="M1198 1653h-336l-350 354h461zM1069 0l-39 207h-590l-116 -207h-457l897 1516h391l358 -1516h-444zM635 555h328l-84 434z" />
    <glyph glyph-name="Aacute" unicode="&#xc1;" horiz-adv-x="1611" 
d="M1548 2007l-479 -354h-332l355 354h456zM764 1516h391l358 -1516h-444l-39 207h-590l-116 -207h-457zM635 555h328l-84 434z" />
    <glyph glyph-name="Acircumflex" unicode="&#xc2;" horiz-adv-x="1611" 
d="M1008 1780l-123 -127h-361l336 354h381l207 -354h-363zM1069 0l-39 207h-590l-116 -207h-457l897 1516h391l358 -1516h-444zM635 555h328l-84 434z" />
    <glyph glyph-name="Atilde" unicode="&#xc3;" horiz-adv-x="1611" 
d="M850 1724q-38 0 -56.5 -14t-25.5 -51h-219q28 154 117 252t206 98q66 0 169.5 -41t132.5 -41q39 0 56 13t25 49h220q-26 -162 -114 -256.5t-210 -94.5q-60 0 -166 43t-135 43zM1069 0l-39 207h-590l-116 -207h-457l897 1516h391l358 -1516h-444zM635 555h328l-84 434z
" />
    <glyph glyph-name="Adieresis" unicode="&#xc4;" horiz-adv-x="1611" 
d="M702 1599q-97 0 -156 57.5t-59 149.5q0 109 70.5 183.5t181.5 74.5q96 0 154.5 -57.5t58.5 -148.5q0 -109 -70 -184t-180 -75zM1292 1599q-97 0 -156 57.5t-59 149.5q0 109 70.5 183.5t181.5 74.5q96 0 154.5 -57.5t58.5 -148.5q0 -109 -70 -184t-180 -75zM764 1516h391
l358 -1516h-444l-39 207h-590l-116 -207h-457zM635 555h328l-84 434z" />
    <glyph glyph-name="Aring" unicode="&#xc5;" horiz-adv-x="1611" 
d="M995 1585q-111 0 -176 57t-65 152q0 112 77 178t197 66q109 0 174.5 -57t65.5 -150q0 -113 -76.5 -179.5t-196.5 -66.5zM1016 1862q-27 0 -44.5 -16t-17.5 -40q0 -21 14 -33t38 -12q27 0 44 16.5t17 41.5q0 20 -14 31.5t-37 11.5zM1069 0l-39 207h-590l-116 -207h-457
l897 1516h391l358 -1516h-444zM635 555h328l-84 434z" />
    <glyph glyph-name="AE" unicode="&#xc6;" horiz-adv-x="2314" 
d="M2302 1167h-866l16 -229h729l-59 -348h-645l18 -242h678l-64 -348h-1034l-6 207h-569l-158 -207h-494l1250 1516h1265zM766 555h295l-10 371z" />
    <glyph glyph-name="Ccedilla" unicode="&#xc7;" horiz-adv-x="1308" 
d="M999 1188q-139 0 -251.5 -73.5t-174 -195t-61.5 -262.5q0 -153 88 -241t244 -88q205 0 354 108l-70 -399q-112 -48 -254 -55l-57 -74q70 -10 111 -51.5t41 -100.5q0 -100 -91 -163.5t-239 -63.5q-128 0 -205 45l92 139q43 -26 99 -26q37 0 57 12.5t20 32.5q0 28 -51 28
q-27 0 -59 -14l-35 86l105 158q-274 37 -429 206.5t-155 432.5q0 195 74 364t201.5 288t305 187t379.5 68q177 0 322 -74l-64 -358q-103 84 -297 84z" />
    <glyph glyph-name="Egrave" unicode="&#xc8;" horiz-adv-x="1382" 
d="M1106 1653h-336l-350 354h461zM1368 1167h-700l-41 -229h622l-61 -348h-623l-43 -242h717l-61 -348h-1139l268 1516h1123z" />
    <glyph glyph-name="Eacute" unicode="&#xc9;" horiz-adv-x="1382" 
d="M1456 2007l-479 -354h-332l354 354h457zM1430 1516l-62 -349h-700l-41 -229h622l-61 -348h-623l-43 -242h717l-61 -348h-1139l268 1516h1123z" />
    <glyph glyph-name="Ecircumflex" unicode="&#xca;" horiz-adv-x="1382" 
d="M915 1780l-122 -127h-361l336 354h381l207 -354h-363zM1368 1167h-700l-41 -229h622l-61 -348h-623l-43 -242h717l-61 -348h-1139l268 1516h1123z" />
    <glyph glyph-name="Edieresis" unicode="&#xcb;" horiz-adv-x="1382" 
d="M610 1599q-97 0 -156 57.5t-59 149.5q0 109 70.5 183.5t181.5 74.5q96 0 154.5 -57.5t58.5 -148.5q0 -109 -70 -184t-180 -75zM1200 1599q-97 0 -156 57.5t-59 149.5q0 109 70.5 183.5t181.5 74.5q96 0 154.5 -57.5t58.5 -148.5q0 -109 -70 -184t-180 -75zM1430 1516
l-62 -349h-700l-41 -229h622l-61 -348h-623l-43 -242h717l-61 -348h-1139l268 1516h1123z" />
    <glyph glyph-name="Igrave" unicode="&#xcc;" horiz-adv-x="729" 
d="M418 1653l-350 354h460l226 -354h-336zM39 0l268 1516h422l-268 -1516h-422z" />
    <glyph glyph-name="Iacute" unicode="&#xcd;" horiz-adv-x="729" 
d="M293 1653l354 354h457l-479 -354h-332zM39 0l268 1516h422l-268 -1516h-422z" />
    <glyph glyph-name="Icircumflex" unicode="&#xce;" horiz-adv-x="729" 
d="M563 1780l-123 -127h-360l336 354h381l207 -354h-363zM39 0l268 1516h422l-268 -1516h-422z" />
    <glyph glyph-name="Idieresis" unicode="&#xcf;" horiz-adv-x="729" 
d="M258 1599q-97 0 -156 57.5t-59 149.5q0 109 70.5 183.5t181.5 74.5q96 0 154.5 -57.5t58.5 -148.5q0 -109 -70 -184t-180 -75zM848 1599q-97 0 -156 57.5t-59 149.5q0 109 70.5 183.5t181.5 74.5q96 0 154.5 -57.5t58.5 -148.5q0 -109 -70 -184t-180 -75zM39 0l268 1516
h422l-268 -1516h-422z" />
    <glyph glyph-name="Eth" unicode="&#xd0;" horiz-adv-x="1658" 
d="M973 1516q297 0 471 -167.5t174 -449.5q0 -254 -114 -459.5t-318 -322.5t-459 -117h-688l108 616h-145l51 289h146l108 611h666zM778 348q79 0 147.5 30.5t116 82t82 117.5t50.5 137.5t16 142.5q0 148 -69 228.5t-206 80.5h-247l-47 -262h266l-51 -289h-267l-47 -268h256
z" />
    <glyph glyph-name="Ntilde" unicode="&#xd1;" horiz-adv-x="1835" 
d="M1264 1638q-60 0 -166 43t-135 43q-38 0 -56.5 -14t-25.5 -51h-219q28 154 117 252t206 98q66 0 169 -41t132 -41q40 0 57 13.5t25 48.5h219q-26 -162 -113.5 -256.5t-209.5 -94.5zM39 0l268 1516h254l715 -805l137 805h422l-268 -1516h-252l-715 805l-139 -805h-422z
" />
    <glyph glyph-name="Ograve" unicode="&#xd2;" horiz-adv-x="1802" 
d="M958 1653l-350 354h461l225 -354h-336zM811 -20q-340 0 -536.5 175.5t-196.5 473.5q0 195 74 364t201.5 288t305 187t379.5 68q336 0 530.5 -175t194.5 -470q0 -196 -73 -366t-199 -289.5t-302.5 -187.5t-377.5 -68zM844 328q139 0 251.5 74.5t173 196t60.5 263.5
q0 151 -87.5 238.5t-242.5 87.5q-140 0 -253 -73.5t-174.5 -195t-61.5 -262.5q0 -153 89 -241t245 -88z" />
    <glyph glyph-name="Oacute" unicode="&#xd3;" horiz-adv-x="1802" 
d="M834 1653l354 354h457l-480 -354h-331zM811 -20q-340 0 -536.5 175.5t-196.5 473.5q0 195 74 364t201.5 288t305 187t379.5 68q336 0 530.5 -175t194.5 -470q0 -196 -73 -366t-199 -289.5t-302.5 -187.5t-377.5 -68zM844 328q139 0 251.5 74.5t173 196t60.5 263.5
q0 151 -87.5 238.5t-242.5 87.5q-140 0 -253 -73.5t-174.5 -195t-61.5 -262.5q0 -153 89 -241t245 -88z" />
    <glyph glyph-name="Ocircumflex" unicode="&#xd4;" horiz-adv-x="1802" 
d="M1104 1780l-123 -127h-360l335 354h381l207 -354h-362zM1038 1536q336 0 530.5 -175t194.5 -470q0 -196 -73 -366t-199 -289.5t-302.5 -187.5t-377.5 -68q-340 0 -536.5 175.5t-196.5 473.5q0 195 74 364t201.5 288t305 187t379.5 68zM844 328q139 0 251.5 74.5t173 196
t60.5 263.5q0 151 -87.5 238.5t-242.5 87.5q-140 0 -253 -73.5t-174.5 -195t-61.5 -262.5q0 -153 89 -241t245 -88z" />
    <glyph glyph-name="Otilde" unicode="&#xd5;" horiz-adv-x="1802" 
d="M1247 1638q-60 0 -166 43t-135 43q-38 0 -56.5 -14t-25.5 -51h-219q28 154 117.5 252t206.5 98q66 0 169 -41t132 -41q40 0 57 13.5t25 48.5h219q-26 -162 -114 -256.5t-210 -94.5zM811 -20q-340 0 -536.5 175.5t-196.5 473.5q0 195 74 364t201.5 288t305 187t379.5 68
q336 0 530.5 -175t194.5 -470q0 -196 -73 -366t-199 -289.5t-302.5 -187.5t-377.5 -68zM844 328q139 0 251.5 74.5t173 196t60.5 263.5q0 151 -87.5 238.5t-242.5 87.5q-140 0 -253 -73.5t-174.5 -195t-61.5 -262.5q0 -153 89 -241t245 -88z" />
    <glyph glyph-name="Odieresis" unicode="&#xd6;" horiz-adv-x="1802" 
d="M799 1599q-97 0 -156 57.5t-59 149.5q0 109 70.5 183.5t181.5 74.5q96 0 154.5 -57.5t58.5 -148.5q0 -109 -70 -184t-180 -75zM1389 1599q-97 0 -156 57.5t-59 149.5q0 109 70 183.5t181 74.5q96 0 154.5 -57.5t58.5 -148.5q0 -110 -69.5 -184.5t-179.5 -74.5zM811 -20
q-340 0 -536.5 175.5t-196.5 473.5q0 195 74 364t201.5 288t305 187t379.5 68q336 0 530.5 -175t194.5 -470q0 -196 -73 -366t-199 -289.5t-302.5 -187.5t-377.5 -68zM844 328q139 0 251.5 74.5t173 196t60.5 263.5q0 151 -87.5 238.5t-242.5 87.5q-140 0 -253 -73.5
t-174.5 -195t-61.5 -262.5q0 -153 89 -241t245 -88z" />
    <glyph glyph-name="multiply" unicode="&#xd7;" horiz-adv-x="1110" 
d="M1085 950l-268 -231l187 -221l-285 -250l-189 225l-260 -225l-217 250l264 227l-188 225l287 250l190 -227l264 227z" />
    <glyph glyph-name="Oslash" unicode="&#xd8;" horiz-adv-x="1802" 
d="M1638 1286q125 -159 125 -395q0 -196 -73 -366t-199 -289.5t-302.5 -187.5t-377.5 -68q-276 0 -461 118l-129 -118l-141 139l123 112q-125 162 -125 398q0 195 74 364t201.5 288t305 187t379.5 68q272 0 455 -117l127 117l137 -139zM510 657q0 -69 18 -125l662 609
q-77 47 -191 47q-140 0 -253 -73.5t-174.5 -195t-61.5 -262.5zM844 328q139 0 251.5 74.5t173 196t60.5 263.5q0 68 -18 123l-660 -608q76 -49 193 -49z" />
    <glyph glyph-name="Ugrave" unicode="&#xd9;" horiz-adv-x="1679" 
d="M893 1653l-350 354h461l225 -354h-336zM741 -20q-288 0 -456 143.5t-168 380.5q0 49 10 117l158 895h422l-156 -883q-8 -54 -8 -78q0 -108 62 -167.5t173 -59.5q124 0 218.5 84.5t117.5 212.5l156 891h422l-164 -924q-51 -282 -264.5 -447t-522.5 -165z" />
    <glyph glyph-name="Uacute" unicode="&#xda;" horiz-adv-x="1679" 
d="M768 1653l354 354h457l-479 -354h-332zM741 -20q-288 0 -456 143.5t-168 380.5q0 49 10 117l158 895h422l-156 -883q-8 -54 -8 -78q0 -108 62 -167.5t173 -59.5q124 0 218.5 84.5t117.5 212.5l156 891h422l-164 -924q-51 -282 -264.5 -447t-522.5 -165z" />
    <glyph glyph-name="Ucircumflex" unicode="&#xdb;" horiz-adv-x="1679" 
d="M1038 1780l-123 -127h-360l336 354h381l207 -354h-363zM1270 1516h422l-164 -924q-51 -282 -264.5 -447t-522.5 -165q-288 0 -456 143.5t-168 380.5q0 49 10 117l158 895h422l-156 -883q-8 -54 -8 -78q0 -108 62 -167.5t173 -59.5q124 0 218.5 84.5t117.5 212.5z" />
    <glyph glyph-name="Udieresis" unicode="&#xdc;" horiz-adv-x="1679" 
d="M733 1599q-97 0 -156 57.5t-59 149.5q0 109 70.5 183.5t181.5 74.5q96 0 154.5 -57.5t58.5 -148.5q0 -109 -70 -184t-180 -75zM1323 1599q-97 0 -156 57.5t-59 149.5q0 109 70.5 183.5t181.5 74.5q96 0 154.5 -57.5t58.5 -148.5q0 -109 -70 -184t-180 -75zM741 -20
q-288 0 -456 143.5t-168 380.5q0 49 10 117l158 895h422l-156 -883q-8 -54 -8 -78q0 -108 62 -167.5t173 -59.5q124 0 218.5 84.5t117.5 212.5l156 891h422l-164 -924q-51 -282 -264.5 -447t-522.5 -165z" />
    <glyph glyph-name="Yacute" unicode="&#xdd;" horiz-adv-x="1486" 
d="M676 1653l354 354h457l-479 -354h-332zM412 0l96 504l-344 1012h436l182 -642l392 642h456l-700 -1012l-96 -504h-422z" />
    <glyph glyph-name="Thorn" unicode="&#xde;" horiz-adv-x="1435" 
d="M936 1305q225 0 357 -120.5t132 -320.5q0 -184 -89.5 -327t-243 -220t-344.5 -77h-244l-43 -240h-422l268 1516h422l-37 -211h244zM768 588q105 0 165 64.5t60 172.5q0 62 -35 96.5t-102 34.5h-225l-66 -368h203z" />
    <glyph glyph-name="germandbls" unicode="&#xdf;" horiz-adv-x="1325" 
d="M657 -20q-106 0 -188 28l57 332q45 -10 101 -10q86 0 143 57.5t57 147.5q0 75 -47.5 117t-138.5 42l59 320q72 0 116 49t44 115q0 43 -27.5 66.5t-76.5 23.5q-58 0 -97.5 -37.5t-48.5 -93.5l-202 -1137h-410l215 1204q34 191 192 302.5t388 111.5q227 0 360 -102.5
t133 -272.5q0 -242 -221 -389q81 -56 127.5 -138t46.5 -184q0 -153 -77 -280t-210.5 -199.5t-294.5 -72.5z" />
    <glyph glyph-name="agrave" unicode="&#xe0;" horiz-adv-x="1243" 
d="M963 1264h-336l-351 354h461zM205 1126h1009l-200 -1126h-393l12 88q-114 -108 -268 -108q-169 0 -269 87.5t-100 231.5q0 134 74.5 232t196 146t272.5 48q95 0 190 -18l19 100h-601zM496 268q65 0 116 47.5t72 122.5v4q-68 7 -94 7q-76 0 -124 -31.5t-48 -79.5
q0 -70 78 -70z" />
    <glyph glyph-name="aacute" unicode="&#xe1;" horiz-adv-x="1243" 
d="M1313 1618l-479 -354h-332l354 354h457zM147 807l58 319h1009l-200 -1126h-393l12 88q-114 -108 -268 -108q-169 0 -269 87.5t-100 231.5q0 134 74.5 232t196 146t272.5 48q95 0 190 -18l19 100h-601zM496 268q65 0 116 47.5t72 122.5v4q-68 7 -94 7q-76 0 -124 -31.5
t-48 -79.5q0 -70 78 -70z" />
    <glyph glyph-name="acircumflex" unicode="&#xe2;" horiz-adv-x="1243" 
d="M772 1391l-123 -127h-360l336 354h381l206 -354h-362zM205 1126h1009l-200 -1126h-393l12 88q-114 -108 -268 -108q-169 0 -269 87.5t-100 231.5q0 134 74.5 232t196 146t272.5 48q95 0 190 -18l19 100h-601zM496 268q65 0 116 47.5t72 122.5v4q-68 7 -94 7
q-76 0 -124 -31.5t-48 -79.5q0 -70 78 -70z" />
    <glyph glyph-name="atilde" unicode="&#xe3;" horiz-adv-x="1243" 
d="M614 1335q-38 0 -56.5 -14t-25.5 -51h-219q28 154 117.5 252t206.5 98q66 0 169 -41t132 -41q40 0 57.5 13t24.5 48h219q-26 -162 -114 -256t-210 -94q-60 0 -166 43t-135 43zM147 807l58 319h1009l-200 -1126h-393l12 88q-114 -108 -268 -108q-169 0 -269 87.5
t-100 231.5q0 134 74.5 232t196 146t272.5 48q95 0 190 -18l19 100h-601zM496 268q65 0 116 47.5t72 122.5v4q-68 7 -94 7q-76 0 -124 -31.5t-48 -79.5q0 -70 78 -70z" />
    <glyph glyph-name="adieresis" unicode="&#xe4;" horiz-adv-x="1243" 
d="M467 1210q-97 0 -156 57.5t-59 149.5q0 109 70.5 183.5t181.5 74.5q96 0 154.5 -57.5t58.5 -149.5q0 -109 -69.5 -183.5t-180.5 -74.5zM1094 1675q96 0 154.5 -57.5t58.5 -149.5q0 -109 -69.5 -183.5t-180.5 -74.5q-97 0 -156 57.5t-59 149.5q0 109 70.5 183.5
t181.5 74.5zM147 807l58 319h1009l-200 -1126h-393l12 88q-114 -108 -268 -108q-169 0 -269 87.5t-100 231.5q0 134 74.5 232t196 146t272.5 48q95 0 190 -18l19 100h-601zM496 268q65 0 116 47.5t72 122.5v4q-68 7 -94 7q-76 0 -124 -31.5t-48 -79.5q0 -70 78 -70z" />
    <glyph glyph-name="aring" unicode="&#xe5;" horiz-adv-x="1243" 
d="M760 1196q-112 0 -177 57t-65 152q0 112 77.5 178t197.5 66q109 0 174 -57t65 -150q0 -113 -76 -179.5t-196 -66.5zM780 1473q-27 0 -44 -16t-17 -40q0 -21 13.5 -33t37.5 -12q27 0 44 16.5t17 41.5q0 20 -14 31.5t-37 11.5zM205 1126h1009l-200 -1126h-393l12 88
q-114 -108 -268 -108q-169 0 -269 87.5t-100 231.5q0 134 74.5 232t196 146t272.5 48q95 0 190 -18l19 100h-601zM496 268q65 0 116 47.5t72 122.5v4q-68 7 -94 7q-76 0 -124 -31.5t-48 -79.5q0 -70 78 -70z" />
    <glyph glyph-name="ae" unicode="&#xe6;" horiz-adv-x="1916" 
d="M1855 676q0 -132 -43 -256h-737q0 -58 32 -89.5t95 -31.5q126 0 221 88l299 -174q-85 -108 -213.5 -170.5t-275.5 -62.5q-136 0 -242.5 47t-173.5 133q-77 -89 -190.5 -134.5t-237.5 -45.5q-183 0 -291 87.5t-108 231.5q0 134 74 232t195.5 146t272.5 48q96 0 191 -18v16
q0 56 -38.5 80t-123.5 24q-129 0 -242 -65l-149 256q108 68 220.5 98.5t254.5 30.5q214 0 338 -137q169 137 383 137q228 0 358.5 -127.5t130.5 -343.5zM1329 827q-125 0 -194 -135h311q-2 72 -29 103.5t-88 31.5zM489 268q65 0 116.5 48.5t70.5 125.5q-65 7 -92 7
q-76 0 -124 -31.5t-48 -79.5q0 -70 77 -70z" />
    <glyph glyph-name="ccedilla" unicode="&#xe7;" horiz-adv-x="993" 
d="M737 797q-122 0 -201 -86.5t-79 -200.5q0 -82 49.5 -131t142.5 -49q133 0 217 61l-65 -381q-62 -26 -170 -30l-56 -72q70 -10 111 -51.5t41 -100.5q0 -100 -91 -163.5t-239 -63.5q-127 0 -204 45l92 139q43 -26 98 -26q37 0 57.5 12.5t20.5 32.5q0 28 -51 28
q-28 0 -60 -14l-35 86l113 166q-185 41 -288 166t-103 309q0 194 95 348.5t260.5 240t369.5 85.5q118 0 217 -43l-61 -350q-79 43 -181 43z" />
    <glyph glyph-name="egrave" unicode="&#xe8;" horiz-adv-x="1290" 
d="M971 1264h-336l-350 354h460zM1229 670q0 -130 -43 -250h-737q0 -121 126 -121q115 0 222 88l299 -174q-89 -107 -227 -170t-294 -63q-250 0 -395 130t-145 351q0 191 87 348t242 247.5t345 90.5q243 0 381.5 -129t138.5 -348zM702 827q-129 0 -198 -135h315
q-3 135 -117 135z" />
    <glyph glyph-name="eacute" unicode="&#xe9;" horiz-adv-x="1290" 
d="M1321 1618l-479 -354h-332l354 354h457zM709 1147q243 0 381.5 -129t138.5 -348q0 -130 -43 -250h-737q0 -121 126 -121q115 0 222 88l299 -174q-89 -107 -227 -170t-294 -63q-250 0 -395 130t-145 351q0 191 87 348t242 247.5t345 90.5zM702 827q-129 0 -198 -135h315
q-3 135 -117 135z" />
    <glyph glyph-name="ecircumflex" unicode="&#xea;" horiz-adv-x="1290" 
d="M780 1391l-123 -127h-360l336 354h381l207 -354h-363zM1229 670q0 -130 -43 -250h-737q0 -121 126 -121q115 0 222 88l299 -174q-89 -107 -227 -170t-294 -63q-250 0 -395 130t-145 351q0 191 87 348t242 247.5t345 90.5q243 0 381.5 -129t138.5 -348zM702 827
q-129 0 -198 -135h315q-3 135 -117 135z" />
    <glyph glyph-name="edieresis" unicode="&#xeb;" horiz-adv-x="1290" 
d="M475 1210q-97 0 -156 57.5t-59 149.5q0 109 70.5 183.5t181.5 74.5q96 0 154.5 -57.5t58.5 -149.5q0 -109 -69.5 -183.5t-180.5 -74.5zM1102 1675q96 0 154.5 -57.5t58.5 -149.5q0 -109 -69.5 -183.5t-180.5 -74.5q-97 0 -156 57.5t-59 149.5q0 109 70.5 183.5
t181.5 74.5zM709 1147q243 0 381.5 -129t138.5 -348q0 -130 -43 -250h-737q0 -121 126 -121q115 0 222 88l299 -174q-89 -107 -227 -170t-294 -63q-250 0 -395 130t-145 351q0 191 87 348t242 247.5t345 90.5zM702 827q-129 0 -198 -135h315q-3 135 -117 135z" />
    <glyph glyph-name="igrave" unicode="&#xec;" horiz-adv-x="636" 
d="M307 1264l-350 354h461l225 -354h-336zM-2 0l201 1126h409l-200 -1126h-410z" />
    <glyph glyph-name="iacute" unicode="&#xed;" horiz-adv-x="636" 
d="M182 1264l355 354h456l-479 -354h-332zM-2 0l201 1126h409l-200 -1126h-410z" />
    <glyph glyph-name="icircumflex" unicode="&#xee;" horiz-adv-x="636" 
d="M453 1391l-123 -127h-361l336 354h381l207 -354h-363zM-2 0l201 1126h409l-200 -1126h-410z" />
    <glyph glyph-name="idieresis" unicode="&#xef;" horiz-adv-x="636" 
d="M147 1210q-97 0 -156 57.5t-59 149.5q0 109 70.5 183.5t181.5 74.5q96 0 154.5 -57.5t58.5 -149.5q0 -109 -69.5 -183.5t-180.5 -74.5zM737 1210q-97 0 -156 57.5t-59 149.5q0 109 70.5 183.5t181.5 74.5q96 0 154.5 -57.5t58.5 -149.5q0 -109 -69.5 -183.5t-180.5 -74.5
zM-2 0l201 1126h409l-200 -1126h-410z" />
    <glyph glyph-name="eth" unicode="&#xf0;" horiz-adv-x="1380" 
d="M1053 1403q276 -264 276 -604q0 -220 -92.5 -407t-261.5 -299.5t-379 -112.5q-256 0 -407.5 133t-151.5 356q0 172 80 320t223 237.5t315 89.5q153 0 246 -74q-18 36 -43 64q-46 50 -131 115l-115 -66l-200 143l96 56l-96 49l354 209q16 -8 88 -53l102 59l195 -160z
M647 330q86 0 153.5 68t84.5 173q4 28 4 47q0 85 -52.5 132t-142.5 47q-99 0 -168 -83t-69 -186q0 -93 50 -145.5t140 -52.5z" />
    <glyph glyph-name="ntilde" unicode="&#xf1;" horiz-adv-x="1372" 
d="M676 1335q-38 0 -56.5 -14t-25.5 -51h-219q28 154 117 252t206 98q66 0 169 -41t132 -41q40 0 57.5 13t24.5 48h219q-26 -162 -113.5 -256t-209.5 -94q-60 0 -166 43t-135 43zM901 1147q178 0 281.5 -100t103.5 -263q0 -50 -8 -94l-121 -690h-409l112 643q4 28 4 37
q0 117 -147 117q-74 0 -129 -42.5t-66 -103.5l-114 -651h-410l197 1126h395l-12 -94q141 115 323 115z" />
    <glyph glyph-name="ograve" unicode="&#xf2;" horiz-adv-x="1374" 
d="M676 1264l-350 354h460l226 -354h-336zM594 -20q-256 0 -407.5 133t-151.5 356q0 193 93 348.5t256.5 242.5t365.5 87q257 0 407 -132.5t150 -357.5q0 -145 -54 -271t-148.5 -215t-226.5 -140t-284 -51zM649 330q98 0 168 83.5t70 186.5q0 92 -51 144.5t-140 52.5
q-101 0 -171 -83.5t-70 -185.5q0 -93 51 -145.5t143 -52.5z" />
    <glyph glyph-name="oacute" unicode="&#xf3;" horiz-adv-x="1374" 
d="M551 1264l354 354h457l-479 -354h-332zM594 -20q-256 0 -407.5 133t-151.5 356q0 193 93 348.5t256.5 242.5t365.5 87q257 0 407 -132.5t150 -357.5q0 -145 -54 -271t-148.5 -215t-226.5 -140t-284 -51zM649 330q98 0 168 83.5t70 186.5q0 92 -51 144.5t-140 52.5
q-101 0 -171 -83.5t-70 -185.5q0 -93 51 -145.5t143 -52.5z" />
    <glyph glyph-name="ocircumflex" unicode="&#xf4;" horiz-adv-x="1374" 
d="M821 1391l-123 -127h-360l336 354h381l207 -354h-363zM750 1147q257 0 407 -132.5t150 -357.5q0 -145 -54 -271t-148.5 -215t-226.5 -140t-284 -51q-256 0 -407.5 133t-151.5 356q0 193 93 348.5t256.5 242.5t365.5 87zM649 330q98 0 168 83.5t70 186.5q0 92 -51 144.5
t-140 52.5q-101 0 -171 -83.5t-70 -185.5q0 -93 51 -145.5t143 -52.5z" />
    <glyph glyph-name="otilde" unicode="&#xf5;" horiz-adv-x="1374" 
d="M965 1249q-60 0 -166 43t-135 43q-38 0 -56.5 -14t-25.5 -51h-220q28 154 117.5 252t206.5 98q66 0 169 -41t132 -41q40 0 57.5 13t24.5 48h219q-26 -162 -113.5 -256t-209.5 -94zM594 -20q-256 0 -407.5 133t-151.5 356q0 193 93 348.5t256.5 242.5t365.5 87
q257 0 407 -132.5t150 -357.5q0 -145 -54 -271t-148.5 -215t-226.5 -140t-284 -51zM649 330q98 0 168 83.5t70 186.5q0 92 -51 144.5t-140 52.5q-101 0 -171 -83.5t-70 -185.5q0 -93 51 -145.5t143 -52.5z" />
    <glyph glyph-name="odieresis" unicode="&#xf6;" horiz-adv-x="1374" 
d="M516 1210q-97 0 -156 57.5t-59 149.5q0 109 70.5 183.5t181.5 74.5q96 0 154.5 -57.5t58.5 -149.5q0 -109 -69.5 -183.5t-180.5 -74.5zM1106 1210q-97 0 -156 57.5t-59 149.5q0 109 70.5 183.5t181.5 74.5q96 0 154.5 -57.5t58.5 -149.5q0 -109 -69.5 -183.5
t-180.5 -74.5zM594 -20q-256 0 -407.5 133t-151.5 356q0 193 93 348.5t256.5 242.5t365.5 87q257 0 407 -132.5t150 -357.5q0 -145 -54 -271t-148.5 -215t-226.5 -140t-284 -51zM649 330q98 0 168 83.5t70 186.5q0 92 -51 144.5t-140 52.5q-101 0 -171 -83.5t-70 -185.5
q0 -93 51 -145.5t143 -52.5z" />
    <glyph glyph-name="divide" unicode="&#xf7;" horiz-adv-x="1200" 
d="M676 946q-97 0 -156 57.5t-59 149.5q0 109 70.5 183.5t181.5 74.5q96 0 154.5 -57.5t58.5 -149.5q0 -109 -69.5 -183.5t-180.5 -74.5zM55 557l60 336h1056l-59 -336h-1057zM516 41q-97 0 -157 59t-60 154q0 103 72 177.5t180 74.5q97 0 157 -59t60 -154q0 -102 -72 -177
t-180 -75z" />
    <glyph glyph-name="oslash" unicode="&#xf8;" horiz-adv-x="1374" 
d="M1212 954q95 -125 95 -297q0 -145 -54 -271t-148.5 -215t-226.5 -140t-284 -51q-188 0 -322 73l-77 -73l-148 120l80 76q-92 122 -92 293q0 193 93 348.5t256.5 242.5t365.5 87q187 0 319 -72l76 72l145 -119zM455 528q0 -24 2 -36l309 294q-37 11 -70 11
q-101 0 -171 -83.5t-70 -185.5zM649 330q98 0 168 83.5t70 186.5q0 27 -2 39l-312 -297q35 -12 76 -12z" />
    <glyph glyph-name="ugrave" unicode="&#xf9;" horiz-adv-x="1304" 
d="M637 1264l-350 354h461l225 -354h-336zM557 -20q-230 0 -364 112.5t-134 298.5q0 43 9 90l112 645h410l-113 -645q-4 -28 -4 -43q0 -108 121 -108q62 0 111.5 41.5t58.5 99.5l115 655h409l-119 -673q-38 -217 -205 -345t-407 -128z" />
    <glyph glyph-name="uacute" unicode="&#xfa;" horiz-adv-x="1304" 
d="M512 1264l354 354h457l-479 -354h-332zM557 -20q-230 0 -364 112.5t-134 298.5q0 43 9 90l112 645h410l-113 -645q-4 -28 -4 -43q0 -108 121 -108q62 0 111.5 41.5t58.5 99.5l115 655h409l-119 -673q-38 -217 -205 -345t-407 -128z" />
    <glyph glyph-name="ucircumflex" unicode="&#xfb;" horiz-adv-x="1304" 
d="M782 1391l-123 -127h-360l336 354h381l207 -354h-363zM879 1126h409l-119 -673q-38 -217 -205 -345t-407 -128q-230 0 -364 112.5t-134 298.5q0 43 9 90l112 645h410l-113 -645q-4 -28 -4 -43q0 -108 121 -108q62 0 111.5 41.5t58.5 99.5z" />
    <glyph glyph-name="udieresis" unicode="&#xfc;" horiz-adv-x="1304" 
d="M477 1210q-97 0 -156 57.5t-59 149.5q0 109 70.5 183.5t181.5 74.5q96 0 154.5 -57.5t58.5 -149.5q0 -109 -69.5 -183.5t-180.5 -74.5zM1067 1210q-97 0 -156 57.5t-59 149.5q0 109 70.5 183.5t181.5 74.5q96 0 154.5 -57.5t58.5 -149.5q0 -109 -69.5 -183.5
t-180.5 -74.5zM557 -20q-230 0 -364 112.5t-134 298.5q0 43 9 90l112 645h410l-113 -645q-4 -28 -4 -43q0 -108 121 -108q62 0 111.5 41.5t58.5 99.5l115 655h409l-119 -673q-38 -217 -205 -345t-407 -128z" />
    <glyph glyph-name="yacute" unicode="&#xfd;" horiz-adv-x="1318" 
d="M1323 1618l-479 -354h-332l354 354h457zM766 479l115 647h409l-278 -1577h-1098l57 334h688l35 191q-128 -94 -280 -94q-166 0 -262.5 97.5t-96.5 260.5q0 51 8 98l121 690h410l-111 -641q-4 -27 -4 -45q0 -110 119 -110q64 0 110 40.5t58 108.5z" />
    <glyph glyph-name="thorn" unicode="&#xfe;" horiz-adv-x="1417" 
d="M887 1147q204 0 334.5 -132t130.5 -349q0 -136 -49.5 -262.5t-132.5 -219.5t-198 -148.5t-241 -55.5q-202 0 -301 141l-100 -572h-410l361 2048h405l-96 -559q124 109 297 109zM694 330q100 0 169 82.5t69 187.5q0 92 -51 144.5t-140 52.5q-86 0 -150.5 -65t-82.5 -163
q-4 -24 -4 -39q0 -98 49.5 -149t140.5 -51z" />
    <glyph glyph-name="ydieresis" unicode="&#xff;" horiz-adv-x="1318" 
d="M477 1210q-97 0 -156 57.5t-59 149.5q0 109 70.5 183.5t181.5 74.5q96 0 154.5 -57.5t58.5 -149.5q0 -109 -69.5 -183.5t-180.5 -74.5zM1067 1210q-97 0 -156 57.5t-59 149.5q0 109 70.5 183.5t181.5 74.5q96 0 154.5 -57.5t58.5 -149.5q0 -109 -69.5 -183.5
t-180.5 -74.5zM766 479l115 647h409l-278 -1577h-1098l57 334h688l35 191q-128 -94 -280 -94q-166 0 -262.5 97.5t-96.5 260.5q0 51 8 98l121 690h410l-111 -641q-4 -27 -4 -45q0 -110 119 -110q64 0 110 40.5t58 108.5z" />
    <glyph glyph-name="Amacron" unicode="&#x100;" horiz-adv-x="1611" 
d="M1444 1939l-58 -319h-819l58 319h819zM1069 0l-39 207h-590l-116 -207h-457l897 1516h391l358 -1516h-444zM635 555h328l-84 434z" />
    <glyph glyph-name="amacron" unicode="&#x101;" horiz-adv-x="1243" 
d="M1208 1550l-57 -319h-819l57 319h819zM205 1126h1009l-200 -1126h-393l12 88q-114 -108 -268 -108q-169 0 -269 87.5t-100 231.5q0 134 74.5 232t196 146t272.5 48q95 0 190 -18l19 100h-601zM496 268q65 0 116 47.5t72 122.5v4q-68 7 -94 7q-76 0 -124 -31.5t-48 -79.5
q0 -70 78 -70z" />
    <glyph glyph-name="Abreve" unicode="&#x102;" horiz-adv-x="1611" 
d="M1004 1636q-173 0 -275 84t-102 219q0 33 6 68h297q-6 -21 -6 -45q0 -96 96 -96q60 0 95.5 39.5t45.5 101.5h297q-29 -172 -151.5 -271.5t-302.5 -99.5zM1069 0l-39 207h-590l-116 -207h-457l897 1516h391l358 -1516h-444zM635 555h328l-84 434z" />
    <glyph glyph-name="abreve" unicode="&#x103;" horiz-adv-x="1243" 
d="M768 1247q-173 0 -275 84t-102 219q0 34 6 68h297q-6 -21 -6 -45q0 -96 96 -96q60 0 96 40t46 101h297q-29 -172 -152 -271.5t-303 -99.5zM147 807l58 319h1009l-200 -1126h-393l12 88q-114 -108 -268 -108q-169 0 -269 87.5t-100 231.5q0 134 74.5 232t196 146t272.5 48
q95 0 190 -18l19 100h-601zM496 268q65 0 116 47.5t72 122.5v4q-68 7 -94 7q-76 0 -124 -31.5t-48 -79.5q0 -70 78 -70z" />
    <glyph glyph-name="Aogonek" unicode="&#x104;" horiz-adv-x="1611" 
d="M1319 -199q0 -21 13 -33t36 -12q39 0 80 23l-2 -193q-98 -57 -223 -57q-96 0 -151.5 47.5t-55.5 124.5q0 151 207 299h-154l-39 207h-590l-116 -207h-457l897 1516h391l358 -1516q-194 -107 -194 -199zM635 555h328l-84 434z" />
    <glyph glyph-name="aogonek" unicode="&#x105;" horiz-adv-x="1243" 
d="M1014 0q-195 -107 -195 -199q0 -21 13 -33t36 -12q39 0 80 23l-2 -193q-98 -57 -223 -57q-96 0 -151.5 47.5t-55.5 124.5q0 151 207 299h-102l12 88q-114 -108 -268 -108q-169 0 -269 87.5t-100 231.5q0 134 74.5 232t196 146t272.5 48q95 0 190 -18l19 100h-601l58 319
h1009zM496 268q65 0 116 47.5t72 122.5v4q-68 7 -94 7q-76 0 -124 -31.5t-48 -79.5q0 -70 78 -70z" />
    <glyph glyph-name="Cacute" unicode="&#x106;" horiz-adv-x="1308" 
d="M815 1653l354 354h457l-479 -354h-332zM811 -20q-340 0 -536.5 175.5t-196.5 473.5q0 195 74 364t201.5 288t305 187t379.5 68q177 0 322 -74l-64 -358q-103 84 -297 84q-139 0 -251.5 -73.5t-174 -195t-61.5 -262.5q0 -153 88 -241t244 -88q205 0 354 108l-70 -399
q-129 -57 -317 -57z" />
    <glyph glyph-name="cacute" unicode="&#x107;" horiz-adv-x="993" 
d="M524 1264l355 354h456l-479 -354h-332zM606 -20q-262 0 -415.5 133.5t-153.5 359.5q0 194 95 348.5t260.5 240t369.5 85.5q118 0 217 -43l-61 -350q-79 43 -181 43q-122 0 -201 -86.5t-79 -200.5q0 -82 49.5 -131t142.5 -49q133 0 217 61l-65 -381q-67 -30 -195 -30z" />
    <glyph glyph-name="Cdotaccent" unicode="&#x10a;" horiz-adv-x="1308" 
d="M1073 1599q-97 0 -156 57.5t-59 149.5q0 109 70.5 183.5t181.5 74.5q96 0 154.5 -57.5t58.5 -148.5q0 -109 -70 -184t-180 -75zM811 -20q-340 0 -536.5 175.5t-196.5 473.5q0 195 74 364t201.5 288t305 187t379.5 68q177 0 322 -74l-64 -358q-103 84 -297 84
q-139 0 -251.5 -73.5t-174 -195t-61.5 -262.5q0 -153 88 -241t244 -88q205 0 354 108l-70 -399q-129 -57 -317 -57z" />
    <glyph glyph-name="cdotaccent" unicode="&#x10b;" horiz-adv-x="993" 
d="M782 1210q-97 0 -156 57.5t-59 149.5q0 109 70.5 183.5t181.5 74.5q96 0 154.5 -57.5t58.5 -149.5q0 -109 -69.5 -183.5t-180.5 -74.5zM606 -20q-262 0 -415.5 133.5t-153.5 359.5q0 194 95 348.5t260.5 240t369.5 85.5q118 0 217 -43l-61 -350q-79 43 -181 43
q-122 0 -201 -86.5t-79 -200.5q0 -82 49.5 -131t142.5 -49q133 0 217 61l-65 -381q-67 -30 -195 -30z" />
    <glyph glyph-name="Ccaron" unicode="&#x10c;" horiz-adv-x="1308" 
d="M870 1653l-217 354h373l74 -119l112 119h365l-332 -354h-375zM78 629q0 195 74 364t201.5 288t305 187t379.5 68q177 0 322 -74l-64 -358q-103 84 -297 84q-139 0 -251.5 -73.5t-174 -195t-61.5 -262.5q0 -153 88 -241t244 -88q205 0 354 108l-70 -399q-129 -57 -317 -57
q-340 0 -536.5 175.5t-196.5 473.5z" />
    <glyph glyph-name="ccaron" unicode="&#x10d;" horiz-adv-x="993" 
d="M580 1264l-218 354h373l74 -119l113 119h364l-332 -354h-374zM37 473q0 194 95 348.5t260.5 240t369.5 85.5q118 0 217 -43l-61 -350q-79 43 -181 43q-122 0 -201 -86.5t-79 -200.5q0 -82 49.5 -131t142.5 -49q133 0 217 61l-65 -381q-67 -30 -195 -30
q-262 0 -415.5 133.5t-153.5 359.5z" />
    <glyph glyph-name="Dcaron" unicode="&#x10e;" horiz-adv-x="1658" 
d="M717 1653l-217 354h372l74 -119l113 119h364l-331 -354h-375zM973 1516q297 0 471 -167.5t174 -449.5q0 -254 -114 -459.5t-318 -322.5t-459 -117h-688l268 1516h666zM778 348q79 0 147.5 30.5t116 82t82 117.5t50.5 137.5t16 142.5q0 148 -69 228.5t-206 80.5h-247
l-146 -819h256z" />
    <glyph glyph-name="dcaron" unicode="&#x10f;" horiz-adv-x="1462" 
d="M954 1006l105 591h409l-282 -1597h-395l12 94q-123 -114 -305 -114q-204 0 -334.5 132t-130.5 349q0 182 83 340t226 252t311 94q200 0 301 -141zM1638 1597h371l-201 -383h-313zM643 330q86 0 150.5 63.5t83.5 161.5v2q4 24 4 39q0 98 -50 149.5t-141 51.5
q-100 0 -168.5 -83t-68.5 -188q0 -92 50.5 -144t139.5 -52z" />
    <glyph glyph-name="Dcroat" unicode="&#x110;" horiz-adv-x="1658" 
d="M973 1516q297 0 471 -167.5t174 -449.5q0 -254 -114 -459.5t-318 -322.5t-459 -117h-688l108 616h-145l51 289h146l108 611h666zM778 348q79 0 147.5 30.5t116 82t82 117.5t50.5 137.5t16 142.5q0 148 -69 228.5t-206 80.5h-247l-47 -262h266l-51 -289h-267l-47 -268h256
z" />
    <glyph glyph-name="dcroat" unicode="&#x111;" horiz-adv-x="1413" 
d="M1585 1485l-51 -289h-137l-211 -1196h-395l12 94q-123 -114 -305 -114q-204 0 -334.5 132t-130.5 349q0 182 83 340t226 252t311 94q200 0 301 -141l35 190h-289l52 289h286l21 112h409l-20 -112h137zM643 330q86 0 150.5 63.5t83.5 161.5v2q4 24 4 39q0 98 -50 149.5
t-141 51.5q-100 0 -168.5 -83t-68.5 -188q0 -92 50.5 -144t139.5 -52z" />
    <glyph glyph-name="Emacron" unicode="&#x112;" horiz-adv-x="1382" 
d="M1352 1939l-58 -319h-819l57 319h820zM1368 1167h-700l-41 -229h622l-61 -348h-623l-43 -242h717l-61 -348h-1139l268 1516h1123z" />
    <glyph glyph-name="emacron" unicode="&#x113;" horiz-adv-x="1290" 
d="M1217 1550l-58 -319h-819l57 319h820zM1229 670q0 -130 -43 -250h-737q0 -121 126 -121q115 0 222 88l299 -174q-89 -107 -227 -170t-294 -63q-250 0 -395 130t-145 351q0 191 87 348t242 247.5t345 90.5q243 0 381.5 -129t138.5 -348zM702 827q-129 0 -198 -135h315
q-3 135 -117 135z" />
    <glyph glyph-name="Edotaccent" unicode="&#x116;" horiz-adv-x="1382" 
d="M903 1599q-97 0 -156 57.5t-59 149.5q0 109 70.5 183.5t181.5 74.5q96 0 154.5 -57.5t58.5 -148.5q0 -109 -70 -184t-180 -75zM1368 1167h-700l-41 -229h622l-61 -348h-623l-43 -242h717l-61 -348h-1139l268 1516h1123z" />
    <glyph glyph-name="edotaccent" unicode="&#x117;" horiz-adv-x="1290" 
d="M768 1210q-97 0 -156 57.5t-59 149.5q0 109 70.5 183.5t181.5 74.5q96 0 154.5 -57.5t58.5 -149.5q0 -109 -69.5 -183.5t-180.5 -74.5zM1229 670q0 -130 -43 -250h-737q0 -121 126 -121q115 0 222 88l299 -174q-89 -107 -227 -170t-294 -63q-250 0 -395 130t-145 351
q0 191 87 348t242 247.5t345 90.5q243 0 381.5 -129t138.5 -348zM702 827q-129 0 -198 -135h315q-3 135 -117 135z" />
    <glyph glyph-name="Eogonek" unicode="&#x118;" horiz-adv-x="1382" 
d="M1368 1167h-700l-41 -229h622l-61 -348h-623l-43 -242h717l-61 -348q-195 -107 -195 -199q0 -21 13 -33t36 -12q39 0 80 23l-2 -193q-98 -57 -223 -57q-96 0 -151.5 47.5t-55.5 124.5q0 151 207 299h-848l268 1516h1123z" />
    <glyph glyph-name="eogonek" unicode="&#x119;" horiz-adv-x="1290" 
d="M1229 670q0 -130 -43 -250h-737q0 -121 126 -121q115 0 222 88l299 -174q-130 -158 -351 -213q-194 -107 -194 -199q0 -21 13 -33t36 -12q39 0 80 23l-2 -193q-98 -57 -223 -57q-96 0 -151.5 47.5t-55.5 124.5q0 150 194 289q-192 34 -299.5 158t-107.5 313q0 191 87 348
t242 247.5t345 90.5q243 0 381.5 -129t138.5 -348zM702 827q-129 0 -198 -135h315q-3 135 -117 135z" />
    <glyph glyph-name="Ecaron" unicode="&#x11a;" horiz-adv-x="1382" 
d="M700 1653l-217 354h373l74 -119l112 119h365l-332 -354h-375zM1368 1167h-700l-41 -229h622l-61 -348h-623l-43 -242h717l-61 -348h-1139l268 1516h1123z" />
    <glyph glyph-name="ecaron" unicode="&#x11b;" horiz-adv-x="1290" 
d="M565 1264l-217 354h373l74 -119l112 119h365l-332 -354h-375zM709 1147q243 0 381.5 -129t138.5 -348q0 -130 -43 -250h-737q0 -121 126 -121q115 0 222 88l299 -174q-89 -107 -227 -170t-294 -63q-250 0 -395 130t-145 351q0 191 87 348t242 247.5t345 90.5zM702 827
q-129 0 -198 -135h315q-3 135 -117 135z" />
    <glyph glyph-name="Gbreve" unicode="&#x11e;" horiz-adv-x="1710" 
d="M1081 1636q-173 0 -274.5 84t-101.5 219q0 33 6 68h297q-7 -24 -7 -45q0 -96 97 -96q60 0 95.5 39.5t45.5 101.5h297q-29 -172 -152 -271.5t-303 -99.5zM1706 903q-5 -73 -23 -176q-38 -221 -158.5 -390t-309.5 -263t-418 -94q-330 0 -523.5 176t-193.5 471
q0 260 122 468t338 324.5t484 116.5q177 0 318 -50t233 -136l-305 -246q-97 84 -279 84q-102 0 -192.5 -45t-153 -119.5t-99 -171.5t-36.5 -199q0 -151 85.5 -238t235.5 -87q131 0 233 62.5t146 164.5h-301l62 348h735z" />
    <glyph glyph-name="gbreve" unicode="&#x11f;" horiz-adv-x="1417" 
d="M834 1247q-173 0 -275 84t-102 219q0 34 6 68h297q-6 -21 -6 -45q0 -96 96 -96q60 0 95.5 39.5t45.5 101.5h297q-29 -172 -151.5 -271.5t-302.5 -99.5zM995 1126h396l-279 -1577h-1175l57 334h766l37 201q-125 -104 -295 -104q-204 0 -334.5 132t-130.5 349q0 182 83 340
t226 252t311 94q210 0 310 -152zM647 330q86 0 150.5 63.5t83.5 161.5v2q4 24 4 39q0 98 -50 149.5t-141 51.5q-100 0 -168.5 -83t-68.5 -188q0 -92 50.5 -144t139.5 -52z" />
    <glyph glyph-name="Gdotaccent" unicode="&#x120;" horiz-adv-x="1710" 
d="M1073 1599q-97 0 -156 57.5t-59 149.5q0 109 70.5 183.5t181.5 74.5q96 0 154.5 -57.5t58.5 -148.5q0 -109 -70 -184t-180 -75zM1706 903q-5 -73 -23 -176q-38 -221 -158.5 -390t-309.5 -263t-418 -94q-330 0 -523.5 176t-193.5 471q0 260 122 468t338 324.5t484 116.5
q177 0 318 -50t233 -136l-305 -246q-97 84 -279 84q-102 0 -192.5 -45t-153 -119.5t-99 -171.5t-36.5 -199q0 -151 85.5 -238t235.5 -87q131 0 233 62.5t146 164.5h-301l62 348h735z" />
    <glyph glyph-name="gdotaccent" unicode="&#x121;" horiz-adv-x="1417" 
d="M825 1210q-97 0 -156 57.5t-59 149.5q0 109 70.5 183.5t181.5 74.5q96 0 154.5 -57.5t58.5 -149.5q0 -109 -69.5 -183.5t-180.5 -74.5zM995 1126h396l-279 -1577h-1175l57 334h766l37 201q-125 -104 -295 -104q-204 0 -334.5 132t-130.5 349q0 182 83 340t226 252t311 94
q210 0 310 -152zM647 330q86 0 150.5 63.5t83.5 161.5v2q4 24 4 39q0 98 -50 149.5t-141 51.5q-100 0 -168.5 -83t-68.5 -188q0 -92 50.5 -144t139.5 -52z" />
    <glyph glyph-name="Gcommaaccent" unicode="&#x122;" horiz-adv-x="1710" 
d="M1706 903q-5 -73 -23 -176q-38 -221 -158.5 -390t-309.5 -263t-418 -94q-330 0 -523.5 176t-193.5 471q0 260 122 468t338 324.5t484 116.5q177 0 318 -50t233 -136l-305 -246q-97 84 -279 84q-102 0 -192.5 -45t-153 -119.5t-99 -171.5t-36.5 -199q0 -151 85.5 -238
t235.5 -87q131 0 233 62.5t146 164.5h-301l62 348h735zM403 -451l125 345h371l-182 -345h-314z" />
    <glyph glyph-name="gcommaaccent" unicode="&#x123;" horiz-adv-x="1417" 
d="M1108 1597l-143 -383h-371l201 383h313zM995 1126h396l-279 -1577h-1175l57 334h766l37 201q-125 -104 -295 -104q-204 0 -334.5 132t-130.5 349q0 182 83 340t226 252t311 94q210 0 310 -152zM647 330q86 0 150.5 63.5t83.5 161.5v2q4 24 4 39q0 98 -50 149.5t-141 51.5
q-100 0 -168.5 -83t-68.5 -188q0 -92 50.5 -144t139.5 -52z" />
    <glyph glyph-name="Hbar" unicode="&#x126;" horiz-adv-x="1835" 
d="M1933 1370l-51 -289h-125l-190 -1081h-422l106 600h-684l-106 -600h-422l190 1081h-123l52 289h123l26 146h422l-27 -146h684l27 146h422l-27 -146h125zM1313 948l22 133h-684l-22 -133h684z" />
    <glyph glyph-name="hbar" unicode="&#x127;" horiz-adv-x="1372" 
d="M901 1147q178 0 281.5 -100t103.5 -263q0 -50 -8 -94l-121 -690h-409l112 643q4 28 4 37q0 117 -147 117q-74 0 -129 -42.5t-66 -103.5l-114 -651h-410l211 1196h-141l51 289h139l21 112h409l-20 -112h284l-51 -289h-283l-26 -154q136 105 309 105z" />
    <glyph glyph-name="Imacron" unicode="&#x12a;" horiz-adv-x="729" 
d="M123 1620l57 319h819l-57 -319h-819zM39 0l268 1516h422l-268 -1516h-422z" />
    <glyph glyph-name="imacron" unicode="&#x12b;" horiz-adv-x="636" 
d="M12 1231l58 319h819l-58 -319h-819zM-2 0l201 1126h409l-200 -1126h-410z" />
    <glyph glyph-name="Iogonek" unicode="&#x12e;" horiz-adv-x="729" 
d="M461 0q-195 -107 -195 -199q0 -21 13 -33t36 -12q39 0 80 23l-2 -193q-98 -57 -223 -57q-96 0 -151.5 47.5t-55.5 124.5q0 151 207 299h-131l268 1516h422z" />
    <glyph glyph-name="iogonek" unicode="&#x12f;" horiz-adv-x="636" 
d="M477 1675q96 0 154.5 -57.5t58.5 -149.5q0 -109 -69.5 -183.5t-180.5 -74.5q-97 0 -156 57.5t-59 149.5q0 109 70.5 183.5t181.5 74.5zM-2 0l201 1126h409l-200 -1126q-195 -107 -195 -199q0 -21 13 -33t36 -12q39 0 80 23l-2 -193q-98 -57 -223 -57q-96 0 -151.5 47.5
t-55.5 124.5q0 151 207 299h-119z" />
    <glyph glyph-name="Idotaccent" unicode="&#x130;" horiz-adv-x="729" 
d="M551 1599q-97 0 -156 57.5t-59 149.5q0 109 70.5 183.5t181.5 74.5q96 0 154.5 -57.5t58.5 -148.5q0 -109 -70 -184t-180 -75zM39 0l268 1516h422l-268 -1516h-422z" />
    <glyph glyph-name="dotlessi" unicode="&#x131;" horiz-adv-x="636" 
d="M-2 0l201 1126h409l-200 -1126h-410z" />
    <glyph glyph-name="Kcommaaccent" unicode="&#x136;" horiz-adv-x="1503" 
d="M1665 1516l-717 -746l471 -770h-493l-353 598h-6l-106 -598h-422l268 1516h422l-98 -551l518 551h516zM334 -451l125 345h370l-182 -345h-313z" />
    <glyph glyph-name="kcommaaccent" unicode="&#x137;" horiz-adv-x="1310" 
d="M1419 1126l-600 -538l414 -588h-494l-260 403l-71 -403h-410l283 1597h409l-139 -784l340 313h528zM233 -451l125 345h371l-182 -345h-314z" />
    <glyph glyph-name="Lacute" unicode="&#x139;" horiz-adv-x="1222" 
d="M1104 2007l-479 -354h-332l354 354h457zM522 348h625l-64 -348h-1044l268 1516h422z" />
    <glyph glyph-name="lacute" unicode="&#x13a;" horiz-adv-x="751" 
d="M264 1735l354 354h457l-479 -354h-332zM-2 0l283 1597h409l-223 -1261h186l-61 -336h-594z" />
    <glyph glyph-name="Lcommaaccent" unicode="&#x13b;" horiz-adv-x="1222" 
d="M522 348h625l-64 -348h-1044l268 1516h422zM170 -451l125 345h371l-183 -345h-313z" />
    <glyph glyph-name="lcommaaccent" unicode="&#x13c;" horiz-adv-x="751" 
d="M-2 0l283 1597h409l-223 -1261h186l-61 -336h-594zM-41 -451l125 345h371l-183 -345h-313z" />
    <glyph glyph-name="Lcaron" unicode="&#x13d;" horiz-adv-x="1245" 
d="M729 1516l-207 -1168h625l-64 -348h-1044l268 1516h422zM952 1516h432l-233 -472h-375z" />
    <glyph glyph-name="lcaron" unicode="&#x13e;" horiz-adv-x="800" 
d="M-2 0l283 1597h409l-223 -1261h186l-61 -336h-594zM719 1214l143 383h371l-201 -383h-313z" />
    <glyph glyph-name="Lslash" unicode="&#x141;" horiz-adv-x="1222" 
d="M522 348h625l-64 -348h-1044l82 461l-96 -60l51 306l98 61l133 748h422l-90 -504l223 141l-55 -309l-221 -139z" />
    <glyph glyph-name="lslash" unicode="&#x142;" horiz-adv-x="751" 
d="M700 844l-161 -103l-72 -405h186l-61 -336h-594l90 506l-170 -105l51 306l172 106l140 784h409l-96 -546l162 102z" />
    <glyph glyph-name="Nacute" unicode="&#x143;" horiz-adv-x="1835" 
d="M850 1653l354 354h457l-479 -354h-332zM39 0l268 1516h254l715 -805l137 805h422l-268 -1516h-252l-715 805l-139 -805h-422z" />
    <glyph glyph-name="nacute" unicode="&#x144;" horiz-adv-x="1372" 
d="M1374 1618l-479 -354h-332l355 354h456zM901 1147q178 0 281.5 -100t103.5 -263q0 -50 -8 -94l-121 -690h-409l112 643q4 28 4 37q0 117 -147 117q-74 0 -129 -42.5t-66 -103.5l-114 -651h-410l197 1126h395l-12 -94q141 115 323 115z" />
    <glyph glyph-name="Ncommaaccent" unicode="&#x145;" horiz-adv-x="1835" 
d="M39 0l268 1516h254l715 -805l137 805h422l-268 -1516h-252l-715 805l-139 -805h-422zM457 -451l125 345h370l-182 -345h-313z" />
    <glyph glyph-name="ncommaaccent" unicode="&#x146;" horiz-adv-x="1372" 
d="M901 1147q178 0 281.5 -100t103.5 -263q0 -50 -8 -94l-121 -690h-409l112 643q4 28 4 37q0 117 -147 117q-74 0 -129 -42.5t-66 -103.5l-114 -651h-410l197 1126h395l-12 -94q141 115 323 115zM231 -451l125 345h371l-182 -345h-314z" />
    <glyph glyph-name="Ncaron" unicode="&#x147;" horiz-adv-x="1835" 
d="M905 1653l-217 354h373l74 -119l112 119h365l-332 -354h-375zM1413 1516h422l-268 -1516h-252l-715 805l-139 -805h-422l268 1516h254l715 -805z" />
    <glyph glyph-name="ncaron" unicode="&#x148;" horiz-adv-x="1372" 
d="M618 1264l-217 354h373l74 -119l113 119h364l-332 -354h-375zM901 1147q178 0 281.5 -100t103.5 -263q0 -50 -8 -94l-121 -690h-409l112 643q4 28 4 37q0 117 -147 117q-74 0 -129 -42.5t-66 -103.5l-114 -651h-410l197 1126h395l-12 -94q141 115 323 115z" />
    <glyph glyph-name="Eng" unicode="&#x14a;" horiz-adv-x="1835" 
d="M1413 1516h422l-268 -1516l-21 -115q-30 -166 -163 -261t-320 -95q-208 0 -318 143l140 258q61 -53 135 -53q48 0 81.5 32t41.5 79l31 172l-574 645l-139 -805h-422l268 1516h254l715 -805z" />
    <glyph glyph-name="eng" unicode="&#x14b;" horiz-adv-x="1370" 
d="M901 1147q178 0 281.5 -100t103.5 -263q0 -50 -8 -94l-141 -794q-31 -171 -149 -269t-288 -98q-148 0 -249 43l61 315q27 -8 74 -8q64 0 109.5 35.5t56.5 105.5l108 623q4 28 4 37q0 117 -147 117q-74 0 -129 -42.5t-66 -103.5l-114 -651h-410l197 1126h395l-12 -94
q141 115 323 115z" />
    <glyph glyph-name="Omacron" unicode="&#x14c;" horiz-adv-x="1802" 
d="M664 1620l57 319h819l-57 -319h-819zM811 -20q-340 0 -536.5 175.5t-196.5 473.5q0 195 74 364t201.5 288t305 187t379.5 68q336 0 530.5 -175t194.5 -470q0 -196 -73 -366t-199 -289.5t-302.5 -187.5t-377.5 -68zM844 328q139 0 251.5 74.5t173 196t60.5 263.5
q0 151 -87.5 238.5t-242.5 87.5q-140 0 -253 -73.5t-174.5 -195t-61.5 -262.5q0 -153 89 -241t245 -88z" />
    <glyph glyph-name="omacron" unicode="&#x14d;" horiz-adv-x="1374" 
d="M381 1231l57 319h819l-57 -319h-819zM594 -20q-256 0 -407.5 133t-151.5 356q0 193 93 348.5t256.5 242.5t365.5 87q257 0 407 -132.5t150 -357.5q0 -145 -54 -271t-148.5 -215t-226.5 -140t-284 -51zM649 330q98 0 168 83.5t70 186.5q0 92 -51 144.5t-140 52.5
q-101 0 -171 -83.5t-70 -185.5q0 -93 51 -145.5t143 -52.5z" />
    <glyph glyph-name="Ohungarumlaut" unicode="&#x150;" horiz-adv-x="1802" 
d="M645 1653l281 354h456l-405 -354h-332zM1147 1653l280 354h457l-405 -354h-332zM811 -20q-340 0 -536.5 175.5t-196.5 473.5q0 195 74 364t201.5 288t305 187t379.5 68q336 0 530.5 -175t194.5 -470q0 -196 -73 -366t-199 -289.5t-302.5 -187.5t-377.5 -68zM844 328
q139 0 251.5 74.5t173 196t60.5 263.5q0 151 -87.5 238.5t-242.5 87.5q-140 0 -253 -73.5t-174.5 -195t-61.5 -262.5q0 -153 89 -241t245 -88z" />
    <glyph glyph-name="ohungarumlaut" unicode="&#x151;" horiz-adv-x="1374" 
d="M362 1264l281 354h457l-406 -354h-332zM864 1264l281 354h457l-406 -354h-332zM594 -20q-256 0 -407.5 133t-151.5 356q0 193 93 348.5t256.5 242.5t365.5 87q257 0 407 -132.5t150 -357.5q0 -145 -54 -271t-148.5 -215t-226.5 -140t-284 -51zM649 330q98 0 168 83.5
t70 186.5q0 92 -51 144.5t-140 52.5q-101 0 -171 -83.5t-70 -185.5q0 -93 51 -145.5t143 -52.5z" />
    <glyph glyph-name="OE" unicode="&#x152;" horiz-adv-x="2545" 
d="M2531 1167h-700l-41 -229h623l-62 -348h-622l-43 -242h716l-61 -348h-1139l15 86q-195 -106 -435 -106q-324 0 -514 175t-190 468q0 193 71.5 362.5t194.5 290.5t296 190.5t370 69.5q267 0 440 -131l20 111h1123zM848 328q139 0 251.5 74.5t173 196t60.5 263.5
q0 152 -87.5 239t-241.5 87q-105 0 -197 -43.5t-156 -116t-100.5 -169.5t-36.5 -202q0 -153 89 -241t245 -88z" />
    <glyph glyph-name="oe" unicode="&#x153;" horiz-adv-x="2127" 
d="M2066 676q0 -132 -43 -256h-737q0 -58 32 -89.5t95 -31.5q126 0 221 88l299 -174q-85 -108 -213.5 -170.5t-275.5 -62.5q-137 0 -242 51.5t-168 144.5q-190 -196 -469 -196q-242 0 -385 132t-143 351q0 192 87.5 348.5t244.5 246t352 89.5q143 0 251.5 -51t172.5 -146
q87 93 198 145t234 52q228 0 358.5 -127.5t130.5 -343.5zM1540 827q-125 0 -194 -135h311q-2 72 -29 103.5t-88 31.5zM651 330q99 0 168.5 83t69.5 187q0 92 -51 144.5t-140 52.5q-101 0 -171 -83.5t-70 -185.5q0 -93 51 -145.5t143 -52.5z" />
    <glyph glyph-name="Racute" unicode="&#x154;" horiz-adv-x="1554" 
d="M1456 2007l-479 -354h-332l354 354h457zM1485 1081q0 -175 -86.5 -305t-237.5 -203l266 -573h-481l-209 496h-188l-88 -496h-422l268 1516h699q221 0 350 -118.5t129 -316.5zM668 1167l-58 -323h193q132 0 192 54.5t60 139.5q0 62 -33.5 95.5t-97.5 33.5h-256z" />
    <glyph glyph-name="racute" unicode="&#x155;" horiz-adv-x="911" 
d="M350 1264l355 354h456l-479 -354h-332zM-2 0l201 1126h393l-17 -90q174 111 398 111l-68 -377q-147 0 -265.5 -67t-135.5 -160l-96 -543h-410z" />
    <glyph glyph-name="Rcommaaccent" unicode="&#x156;" horiz-adv-x="1554" 
d="M1485 1081q0 -175 -86.5 -305t-237.5 -203l266 -573h-481l-209 496h-188l-88 -496h-422l268 1516h699q221 0 350 -118.5t129 -316.5zM668 1167l-58 -323h193q132 0 192 54.5t60 139.5q0 62 -33.5 95.5t-97.5 33.5h-256zM348 -451l125 345h371l-182 -345h-314z" />
    <glyph glyph-name="rcommaaccent" unicode="&#x157;" horiz-adv-x="911" 
d="M-2 0l201 1126h393l-17 -90q174 111 398 111l-68 -377q-147 0 -265.5 -67t-135.5 -160l-96 -543h-410zM-43 -451l125 345h371l-183 -345h-313z" />
    <glyph glyph-name="Rcaron" unicode="&#x158;" horiz-adv-x="1554" 
d="M700 1653l-217 354h373l74 -119l112 119h365l-332 -354h-375zM1485 1081q0 -175 -86.5 -305t-237.5 -203l266 -573h-481l-209 496h-188l-88 -496h-422l268 1516h699q221 0 350 -118.5t129 -316.5zM668 1167l-58 -323h193q132 0 192 54.5t60 139.5q0 62 -33.5 95.5
t-97.5 33.5h-256z" />
    <glyph glyph-name="rcaron" unicode="&#x159;" horiz-adv-x="911" 
d="M406 1264l-218 354h373l74 -119l113 119h364l-332 -354h-374zM592 1126l-17 -90q174 111 398 111l-68 -377q-147 0 -265.5 -67t-135.5 -160l-96 -543h-410l201 1126h393z" />
    <glyph glyph-name="Sacute" unicode="&#x15a;" horiz-adv-x="1374" 
d="M633 1653l354 354h457l-479 -354h-332zM598 -20q-170 0 -313.5 55t-249.5 155l180 267q167 -129 393 -129q103 0 167.5 28t64.5 84q0 42 -46 66.5t-157 56.5l-70 21q-97 29 -167.5 61.5t-128.5 79t-87.5 109.5t-29.5 143q0 163 88.5 291t241.5 198t341 70q306 0 531 -182
l-209 -277q-144 111 -326 111q-93 0 -159 -31t-66 -80q0 -39 45 -62t152 -54l65 -19q86 -24 158 -60t134 -87.5t97 -124.5t35 -160q0 -154 -93 -276t-248.5 -188t-342.5 -66z" />
    <glyph glyph-name="sacute" unicode="&#x15b;" horiz-adv-x="1114" 
d="M426 1264l354 354h457l-479 -354h-332zM449 -20q-297 0 -461 155l170 230q125 -66 299 -66q53 0 89 13t36 40q0 25 -28 38t-95 24l-68 12q-139 25 -220 93.5t-81 185.5q0 124 72.5 226t196 159t270.5 57q294 0 458 -131l-194 -248q-98 59 -236 59q-143 0 -143 -41
q0 -29 91 -53l3 -1.5t3 -1t3.5 -1t3.5 -0.5l66 -18q72 -20 126 -45t98.5 -61t67.5 -86t23 -113q0 -131 -75 -229t-198.5 -147.5t-276.5 -49.5z" />
    <glyph glyph-name="Scedilla" unicode="&#x15e;" horiz-adv-x="1374" 
d="M858 942q86 -24 158 -60t134 -87.5t97 -124.5t35 -160q0 -138 -75.5 -251.5t-203.5 -183t-290 -89.5l-62 -78q70 -10 111 -51.5t41 -100.5q0 -100 -91 -163.5t-239 -63.5q-128 0 -205 45l92 139q43 -26 99 -26q37 0 57.5 12.5t20.5 32.5q0 28 -52 28q-27 0 -59 -14
l-35 86l103 154q-271 29 -459 204l180 267q167 -129 393 -129q103 0 167.5 28t64.5 84q0 42 -46 66.5t-157 56.5l-70 21q-97 29 -167.5 61.5t-128.5 79t-87.5 109.5t-29.5 143q0 163 88.5 291t241.5 198t341 70q306 0 531 -182l-209 -277q-144 111 -326 111q-93 0 -159 -31
t-66 -80q0 -39 45 -62t152 -54z" />
    <glyph glyph-name="scedilla" unicode="&#x15f;" horiz-adv-x="1114" 
d="M684 711q72 -20 126 -45t98.5 -61t67.5 -86t23 -113q0 -167 -116 -276.5t-303 -139.5l-64 -82q70 -10 111 -51.5t41 -100.5q0 -100 -91 -163.5t-239 -63.5q-128 0 -205 45l92 139q43 -26 99 -26q37 0 57 12.5t20 32.5q0 28 -51 28q-28 0 -59 -14l-35 86l102 152
q-230 21 -370 151l170 230q125 -66 299 -66q53 0 89 13t36 40q0 25 -28 38t-95 24l-68 12q-139 25 -220 93.5t-81 185.5q0 124 72.5 226t196 159t270.5 57q294 0 458 -131l-194 -248q-98 59 -236 59q-143 0 -143 -41q0 -29 91 -53l3 -1.5t3 -1t3.5 -1t3.5 -0.5z" />
    <glyph glyph-name="Scaron" unicode="&#x160;" horiz-adv-x="1374" 
d="M688 1653l-217 354h373l74 -119l112 119h365l-332 -354h-375zM821 1188q-93 0 -159 -31t-66 -80q0 -39 45 -62t152 -54l65 -19q86 -24 158 -60t134 -87.5t97 -124.5t35 -160q0 -154 -93 -276t-248.5 -188t-342.5 -66q-170 0 -313.5 55t-249.5 155l180 267
q167 -129 393 -129q103 0 167.5 28t64.5 84q0 42 -46 66.5t-157 56.5l-70 21q-97 29 -167.5 61.5t-128.5 79t-87.5 109.5t-29.5 143q0 163 88.5 291t241.5 198t341 70q306 0 531 -182l-209 -277q-144 111 -326 111z" />
    <glyph glyph-name="scaron" unicode="&#x161;" horiz-adv-x="1114" 
d="M481 1264l-217 354h373l74 -119l112 119h365l-332 -354h-375zM657 827q-143 0 -143 -41q0 -29 91 -53l3 -1.5t3 -1t3.5 -1t3.5 -0.5l66 -18q72 -20 126 -45t98.5 -61t67.5 -86t23 -113q0 -131 -75 -229t-198.5 -147.5t-276.5 -49.5q-297 0 -461 155l170 230
q125 -66 299 -66q53 0 89 13t36 40q0 25 -28 38t-95 24l-68 12q-139 25 -220 93.5t-81 185.5q0 124 72.5 226t196 159t270.5 57q294 0 458 -131l-194 -248q-98 59 -236 59z" />
    <glyph glyph-name="uni0162" unicode="&#x162;" horiz-adv-x="1351" 
d="M1475 1516l-62 -349h-438l-207 -1167h-96l-72 -92q70 -10 111 -51.5t41 -100.5q0 -100 -91 -163.5t-239 -63.5q-128 0 -205 45l92 139q43 -26 99 -26q37 0 57 12.5t20 32.5q0 28 -51 28q-28 0 -59 -14l-35 86l113 168h-107l207 1167h-434l61 349h1295z" />
    <glyph glyph-name="uni0163" unicode="&#x163;" horiz-adv-x="903" 
d="M942 1126l-59 -333h-201l-139 -793h-88l-72 -92q70 -10 111 -51.5t41 -100.5q0 -100 -91 -163.5t-239 -63.5q-128 0 -205 45l92 139q43 -26 98 -26q37 0 57.5 12.5t20.5 32.5q0 28 -51 28q-27 0 -59 -14l-35 86l113 168h-103l139 793h-194l59 333h195l57 330h410
l-58 -330h201z" />
    <glyph glyph-name="Tcaron" unicode="&#x164;" horiz-adv-x="1351" 
d="M657 1653l-217 354h373l74 -119l112 119h365l-332 -354h-375zM1475 1516l-62 -349h-438l-207 -1167h-422l207 1167h-434l61 349h1295z" />
    <glyph glyph-name="tcaron" unicode="&#x165;" horiz-adv-x="903" 
d="M993 1597h371l-201 -383h-313zM799 1456l-58 -330h201l-59 -333h-201l-139 -793h-410l139 793h-194l59 333h195l57 330h410z" />
    <glyph glyph-name="Tbar" unicode="&#x166;" horiz-adv-x="1351" 
d="M1413 1167h-438l-49 -280h204l-51 -289h-205l-106 -598h-422l107 598h-207l51 289h207l49 280h-434l61 349h1295z" />
    <glyph glyph-name="tbar" unicode="&#x167;" horiz-adv-x="929" 
d="M872 793h-200l-15 -84h189l-51 -289h-189l-74 -420h-409l74 420h-187l51 289h187l14 84h-194l59 333h195l57 330h409l-57 -330h201z" />
    <glyph glyph-name="Umacron" unicode="&#x16a;" horiz-adv-x="1679" 
d="M598 1620l57 319h820l-58 -319h-819zM741 -20q-288 0 -456 143.5t-168 380.5q0 49 10 117l158 895h422l-156 -883q-8 -54 -8 -78q0 -108 62 -167.5t173 -59.5q124 0 218.5 84.5t117.5 212.5l156 891h422l-164 -924q-51 -282 -264.5 -447t-522.5 -165z" />
    <glyph glyph-name="umacron" unicode="&#x16b;" horiz-adv-x="1304" 
d="M342 1231l57 319h820l-58 -319h-819zM557 -20q-230 0 -364 112.5t-134 298.5q0 43 9 90l112 645h410l-113 -645q-4 -28 -4 -43q0 -108 121 -108q62 0 111.5 41.5t58.5 99.5l115 655h409l-119 -673q-38 -217 -205 -345t-407 -128z" />
    <glyph glyph-name="Uring" unicode="&#x16e;" horiz-adv-x="1679" 
d="M1026 1585q-112 0 -177 57t-65 152q0 112 77.5 178t197.5 66q109 0 174 -57t65 -150q0 -113 -76 -179.5t-196 -66.5zM1036 1761q27 0 44.5 16.5t17.5 41.5q0 20 -14 31.5t-37 11.5q-27 0 -44.5 -16t-17.5 -40q0 -21 13.5 -33t37.5 -12zM741 -20q-288 0 -456 143.5
t-168 380.5q0 49 10 117l158 895h422l-156 -883q-8 -54 -8 -78q0 -108 62 -167.5t173 -59.5q124 0 218.5 84.5t117.5 212.5l156 891h422l-164 -924q-51 -282 -264.5 -447t-522.5 -165z" />
    <glyph glyph-name="uring" unicode="&#x16f;" horiz-adv-x="1304" 
d="M770 1196q-112 0 -177 57t-65 152q0 112 77.5 178t197.5 66q109 0 174 -57t65 -150q0 -113 -76 -179.5t-196 -66.5zM780 1372q27 0 44.5 16.5t17.5 41.5q0 20 -14 31.5t-37 11.5q-27 0 -44.5 -16t-17.5 -40q0 -21 13.5 -33t37.5 -12zM557 -20q-230 0 -364 112.5
t-134 298.5q0 43 9 90l112 645h410l-113 -645q-4 -28 -4 -43q0 -108 121 -108q62 0 111.5 41.5t58.5 99.5l115 655h409l-119 -673q-38 -217 -205 -345t-407 -128z" />
    <glyph glyph-name="Uhungarumlaut" unicode="&#x170;" horiz-adv-x="1679" 
d="M580 1653l280 354h457l-406 -354h-331zM1081 1653l281 354h457l-406 -354h-332zM741 -20q-288 0 -456 143.5t-168 380.5q0 49 10 117l158 895h422l-156 -883q-8 -54 -8 -78q0 -108 62 -167.5t173 -59.5q124 0 218.5 84.5t117.5 212.5l156 891h422l-164 -924
q-51 -282 -264.5 -447t-522.5 -165z" />
    <glyph glyph-name="uhungarumlaut" unicode="&#x171;" horiz-adv-x="1304" 
d="M324 1264l280 354h457l-406 -354h-331zM825 1264l281 354h457l-406 -354h-332zM557 -20q-230 0 -364 112.5t-134 298.5q0 43 9 90l112 645h410l-113 -645q-4 -28 -4 -43q0 -108 121 -108q62 0 111.5 41.5t58.5 99.5l115 655h409l-119 -673q-38 -217 -205 -345t-407 -128z
" />
    <glyph glyph-name="Uogonek" unicode="&#x172;" horiz-adv-x="1679" 
d="M1270 1516h422l-164 -924q-41 -232 -197 -388t-389 -204q-194 -107 -194 -199q0 -21 13 -33t36 -12q39 0 80 23l-3 -193q-98 -57 -223 -57q-96 0 -151.5 47.5t-55.5 124.5q0 144 187 285q-241 28 -377.5 166.5t-136.5 351.5q0 49 10 117l158 895h422l-156 -883
q-8 -54 -8 -78q0 -108 62 -167.5t173 -59.5q124 0 218.5 84.5t117.5 212.5z" />
    <glyph glyph-name="uogonek" unicode="&#x173;" horiz-adv-x="1304" 
d="M879 1126h409l-119 -673q-31 -173 -146 -292t-288 -161q-194 -107 -194 -199q0 -21 13 -33t36 -12q39 0 80 23l-2 -193q-98 -57 -224 -57q-96 0 -151 47t-55 125q0 149 192 289q-174 29 -272.5 135.5t-98.5 265.5q0 43 9 90l112 645h410l-113 -645q-4 -28 -4 -43
q0 -108 121 -108q62 0 111.5 41.5t58.5 99.5z" />
    <glyph glyph-name="Wcircumflex" unicode="&#x174;" horiz-adv-x="2394" 
d="M1397 1780l-123 -127h-361l336 354h381l207 -354h-362zM2097 1516h457l-772 -1516h-391l-140 952l-481 -952h-391l-238 1516h445l104 -951l457 951h389l123 -951z" />
    <glyph glyph-name="wcircumflex" unicode="&#x175;" horiz-adv-x="1888" 
d="M1075 1391l-123 -127h-360l336 354h381l207 -354h-363zM1520 1126h452l-588 -1126h-407l-29 653l-270 -653h-408l-188 1126h440l56 -663l278 663h330l37 -663z" />
    <glyph glyph-name="Ycircumflex" unicode="&#x176;" horiz-adv-x="1486" 
d="M946 1780l-123 -127h-360l336 354h381l206 -354h-362zM1174 1516h456l-700 -1012l-96 -504h-422l96 504l-344 1012h436l182 -642z" />
    <glyph glyph-name="ycircumflex" unicode="&#x177;" horiz-adv-x="1318" 
d="M782 1391l-123 -127h-360l336 354h381l207 -354h-363zM881 1126h409l-278 -1577h-1098l57 334h688l35 191q-128 -94 -280 -94q-166 0 -262.5 97.5t-96.5 260.5q0 51 8 98l121 690h410l-111 -641q-4 -27 -4 -45q0 -110 119 -110q64 0 110 40.5t58 108.5z" />
    <glyph glyph-name="Ydieresis" unicode="&#x178;" horiz-adv-x="1486" 
d="M641 1599q-97 0 -156 57.5t-59 149.5q0 109 70.5 183.5t181.5 74.5q96 0 154.5 -57.5t58.5 -148.5q0 -109 -70 -184t-180 -75zM1231 1599q-97 0 -156 57.5t-59 149.5q0 109 70.5 183.5t181.5 74.5q96 0 154.5 -57.5t58.5 -148.5q0 -109 -70 -184t-180 -75zM412 0l96 504
l-344 1012h436l182 -642l392 642h456l-700 -1012l-96 -504h-422z" />
    <glyph glyph-name="Zacute" unicode="&#x179;" horiz-adv-x="1318" 
d="M1399 2007l-479 -354h-332l354 354h457zM1409 1516l-776 -1168h575l-61 -348h-1215l777 1167h-551l61 349h1190z" />
    <glyph glyph-name="zacute" unicode="&#x17a;" horiz-adv-x="1146" 
d="M434 1264l354 354h457l-479 -354h-332zM-61 0l548 793h-391l58 333h1013l-549 -790h412l-57 -336h-1034z" />
    <glyph glyph-name="Zdotaccent" unicode="&#x17b;" horiz-adv-x="1318" 
d="M846 1599q-97 0 -156 57.5t-59 149.5q0 109 70.5 183.5t181.5 74.5q96 0 154.5 -57.5t58.5 -148.5q0 -109 -70 -184t-180 -75zM1409 1516l-776 -1168h575l-61 -348h-1215l777 1167h-551l61 349h1190z" />
    <glyph glyph-name="zdotaccent" unicode="&#x17c;" horiz-adv-x="1146" 
d="M692 1210q-97 0 -156 57.5t-59 149.5q0 109 70.5 183.5t181.5 74.5q96 0 154.5 -57.5t58.5 -149.5q0 -109 -69.5 -183.5t-180.5 -74.5zM-61 0l548 793h-391l58 333h1013l-549 -790h412l-57 -336h-1034z" />
    <glyph glyph-name="Zcaron" unicode="&#x17d;" horiz-adv-x="1318" 
d="M643 1653l-217 354h373l73 -119l113 119h365l-332 -354h-375zM1409 1516l-776 -1168h575l-61 -348h-1215l777 1167h-551l61 349h1190z" />
    <glyph glyph-name="zcaron" unicode="&#x17e;" horiz-adv-x="1146" 
d="M489 1264l-217 354h373l74 -119l112 119h365l-332 -354h-375zM154 1126h1013l-549 -790h412l-57 -336h-1034l548 793h-391z" />
    <glyph glyph-name="florin" unicode="&#x192;" horiz-adv-x="1083" 
d="M1010 1188q-44 0 -75.5 -10t-51.5 -31t-31 -41t-23 -53l-61 -176h252l-59 -334h-312l-264 -748h-414l265 748h-158l59 334h217l117 331q57 164 190.5 246t305.5 82q122 0 227 -43l-80 -315q-31 10 -104 10z" />
    <glyph glyph-name="Scommaaccent" unicode="&#x218;" horiz-adv-x="1374" 
d="M598 -20q-170 0 -313.5 55t-249.5 155l180 267q167 -129 393 -129q103 0 167.5 28t64.5 84q0 42 -46 66.5t-157 56.5l-70 21q-97 29 -167.5 61.5t-128.5 79t-87.5 109.5t-29.5 143q0 163 88.5 291t241.5 198t341 70q306 0 531 -182l-209 -277q-144 111 -326 111
q-93 0 -159 -31t-66 -80q0 -39 45 -62t152 -54l65 -19q86 -24 158 -60t134 -87.5t97 -124.5t35 -160q0 -154 -93 -276t-248.5 -188t-342.5 -66zM260 -451l125 345h371l-183 -345h-313z" />
    <glyph glyph-name="scommaaccent" unicode="&#x219;" horiz-adv-x="1114" 
d="M449 -20q-297 0 -461 155l170 230q125 -66 299 -66q53 0 89 13t36 40q0 25 -28 38t-95 24l-68 12q-139 25 -220 93.5t-81 185.5q0 124 72.5 226t196 159t270.5 57q294 0 458 -131l-194 -248q-98 59 -236 59q-143 0 -143 -41q0 -29 91 -53l3 -1.5t3 -1t3.5 -1t3.5 -0.5
l66 -18q72 -20 126 -45t98.5 -61t67.5 -86t23 -113q0 -131 -75 -229t-198.5 -147.5t-276.5 -49.5zM125 -451l125 345h371l-183 -345h-313z" />
    <glyph glyph-name="uni021A" unicode="&#x21a;" horiz-adv-x="1351" 
d="M1475 1516l-62 -349h-438l-207 -1167h-422l207 1167h-434l61 349h1295zM209 -451l125 345h371l-183 -345h-313z" />
    <glyph glyph-name="uni021B" unicode="&#x21b;" horiz-adv-x="903" 
d="M942 1126l-59 -333h-201l-139 -793h-410l139 793h-194l59 333h195l57 330h410l-58 -330h201zM-8 -451l125 345h370l-182 -345h-313z" />
    <glyph glyph-name="circumflex" unicode="&#x2c6;" horiz-adv-x="1228" 
d="M1108 1264h-363l-77 127l-123 -127h-361l336 354h381z" />
    <glyph glyph-name="caron" unicode="&#x2c7;" horiz-adv-x="1228" 
d="M795 1618h364l-332 -354h-374l-217 354h372l74 -119z" />
    <glyph glyph-name="breve" unicode="&#x2d8;" horiz-adv-x="1228" 
d="M600 1247q-173 0 -275 84t-102 219q0 34 6 68h297q-6 -21 -6 -45q0 -96 96 -96q60 0 96 40t46 101h297q-29 -172 -152 -271.5t-303 -99.5z" />
    <glyph glyph-name="dotaccent" unicode="&#x2d9;" horiz-adv-x="1228" 
d="M444 1210q-97 0 -156 57.5t-59 149.5q0 109 70.5 183.5t181.5 74.5q96 0 154.5 -57.5t58.5 -149.5q0 -109 -69.5 -183.5t-180.5 -74.5z" />
    <glyph glyph-name="ring" unicode="&#x2da;" horiz-adv-x="1228" 
d="M475 1196q-112 0 -177 57t-65 152q0 112 77.5 178t197.5 66q109 0 174.5 -57t65.5 -150q0 -113 -76.5 -179.5t-196.5 -66.5zM485 1372q27 0 44.5 16.5t17.5 41.5q0 20 -14 31.5t-37 11.5q-27 0 -44.5 -16t-17.5 -40q0 -21 13.5 -33t37.5 -12z" />
    <glyph glyph-name="ogonek" unicode="&#x2db;" horiz-adv-x="1228" 
d="M141 -471q-96 0 -151.5 47.5t-55.5 124.5q0 119 114.5 223.5t334.5 216.5l49 -141q-194 -107 -194 -199q0 -21 13 -33t36 -12q39 0 80 23l-2 -193q-98 -57 -224 -57z" />
    <glyph glyph-name="tilde" unicode="&#x2dc;" horiz-adv-x="1228" 
d="M756 1249q-60 0 -166 43t-135 43q-38 0 -56.5 -14t-25.5 -51h-219q28 154 117 252t206 98q66 0 169 -41t132 -41q40 0 57.5 13t24.5 48h219q-26 -162 -113.5 -256t-209.5 -94z" />
    <glyph glyph-name="hungarumlaut" unicode="&#x2dd;" horiz-adv-x="1228" 
d="M344 1264l281 354h456l-405 -354h-332zM846 1264l280 354h457l-405 -354h-332z" />
    <glyph glyph-name="gravecomb" unicode="&#x300;" horiz-adv-x="0" 
d="M-432 1264l-350 354h460l226 -354h-336z" />
    <glyph glyph-name="acutecomb" unicode="&#x301;" horiz-adv-x="0" 
d="M-565 1264l354 354h457l-479 -354h-332z" />
    <glyph glyph-name="uni0302" unicode="&#x302;" horiz-adv-x="0" 
d="M88 1264h-362l-78 127l-123 -127h-361l336 354h381z" />
    <glyph glyph-name="tildecomb" unicode="&#x303;" horiz-adv-x="0" 
d="M-170 1249q-60 0 -166 43t-135 43q-38 0 -56.5 -14t-25.5 -51h-219q28 154 117 252t206 98q66 0 169.5 -41t132.5 -41q40 0 56.5 13t24.5 48h220q-26 -162 -114 -256t-210 -94z" />
    <glyph glyph-name="uni0304" unicode="&#x304;" horiz-adv-x="0" 
d="M-743 1231l57 319h819l-57 -319h-819z" />
    <glyph glyph-name="uni0306" unicode="&#x306;" horiz-adv-x="0" 
d="M-313 1247q-173 0 -275 84t-102 219q0 34 6 68h297q-6 -21 -6 -45q0 -96 96 -96q60 0 95.5 39.5t45.5 101.5h297q-29 -172 -151.5 -271.5t-302.5 -99.5z" />
    <glyph glyph-name="uni0307" unicode="&#x307;" horiz-adv-x="0" 
d="M-172 1210q-97 0 -156 57.5t-59 149.5q0 109 70.5 183.5t181.5 74.5q96 0 154.5 -57.5t58.5 -149.5q0 -109 -69.5 -183.5t-180.5 -74.5z" />
    <glyph glyph-name="uni0308" unicode="&#x308;" horiz-adv-x="0" 
d="M-762 1210q-97 0 -156 57.5t-59 149.5q0 109 70.5 183.5t181.5 74.5q96 0 154.5 -57.5t58.5 -149.5q0 -109 -69.5 -183.5t-180.5 -74.5zM-172 1210q-97 0 -156 57.5t-59 149.5q0 109 70.5 183.5t181.5 74.5q96 0 154.5 -57.5t58.5 -149.5q0 -109 -69.5 -183.5
t-180.5 -74.5z" />
    <glyph glyph-name="uni030A" unicode="&#x30a;" horiz-adv-x="0" 
d="M-203 1196q-111 0 -176 57t-65 152q0 112 77 178t197 66q109 0 174.5 -57t65.5 -150q0 -113 -76.5 -179.5t-196.5 -66.5zM-193 1372q27 0 44.5 16.5t17.5 41.5q0 20 -14 31.5t-37 11.5q-27 0 -44.5 -16t-17.5 -40q0 -21 13.5 -33t37.5 -12z" />
    <glyph glyph-name="uni030B" unicode="&#x30b;" horiz-adv-x="0" 
d="M-963 1264l281 354h457l-406 -354h-332zM-461 1264l281 354h456l-405 -354h-332z" />
    <glyph glyph-name="uni030C" unicode="&#x30c;" horiz-adv-x="0" 
d="M-225 1618h364l-332 -354h-374l-217 354h372l74 -119z" />
    <glyph glyph-name="uni0312" unicode="&#x312;" horiz-adv-x="0" 
d="M-440 1214l200 383h314l-144 -383h-370z" />
    <glyph glyph-name="uni0326" unicode="&#x326;" horiz-adv-x="0" 
d="M-666 -451l125 345h371l-182 -345h-314z" />
    <glyph glyph-name="uni0327" unicode="&#x327;" horiz-adv-x="0" 
d="M-336 -92q70 -10 111 -51.5t41 -100.5q0 -100 -91 -163.5t-239 -63.5q-128 0 -205 45l92 139q43 -26 99 -26q37 0 57 12.5t20 32.5q0 28 -51 28q-28 0 -59 -14l-35 86l113 168h219z" />
    <glyph glyph-name="uni0328" unicode="&#x328;" horiz-adv-x="0" 
d="M-420 -471q-96 0 -151.5 47.5t-55.5 124.5q0 119 114.5 223.5t334.5 216.5l49 -141q-195 -107 -195 -199q0 -20 13.5 -32.5t36.5 -12.5q38 0 79 23l-2 -193q-98 -57 -223 -57z" />
    <glyph glyph-name="uni0335" unicode="&#x335;" horiz-adv-x="0" 
d="M-1137 455l52 288h833l-51 -288h-834z" />
    <glyph glyph-name="uni0336" unicode="&#x336;" horiz-adv-x="0" 
d="M-1847 455l51 288h1776l-52 -288h-1775z" />
    <glyph glyph-name="uni0337" unicode="&#x337;" horiz-adv-x="0" 
d="M-481 897l401 256l-55 -309l-400 -252l9 53l-392 -244l52 306l393 243z" />
    <glyph glyph-name="uni0338" unicode="&#x338;" horiz-adv-x="0" 
d="M-1016 -20l-201 126l1086 1430l199 -125z" />
    <glyph glyph-name="uni0394" unicode="&#x394;" horiz-adv-x="1781" 
d="M1241 1516l358 -1516h-1646l897 1516h391zM604 348h483l-122 641z" />
    <glyph glyph-name="uni03A9" unicode="&#x3a9;" horiz-adv-x="1687" 
d="M1657 997q0 -213 -121 -383t-336 -266h313l-61 -348h-664l111 625q142 25 235 115t93 208q0 112 -76.5 176t-208.5 64q-159 0 -274 -94.5t-115 -227.5q0 -92 51.5 -153.5t151.5 -87.5l-111 -625h-639l62 348h325l2 10q-129 70 -200.5 188.5t-71.5 270.5q0 162 68 298.5
t184 227.5t272 142t332 51q312 0 495 -146.5t183 -392.5z" />
    <glyph glyph-name="uni03BC" unicode="&#x3bc;" horiz-adv-x="1331" 
d="M893 1126h410l-201 -1126h-395l8 57q-88 -77 -178 -77q-69 0 -121 67l-88 -498h-410l279 1577h409l-112 -639q-27 -157 122 -157q60 0 104.5 42t55.5 103z" />
    <glyph glyph-name="pi" unicode="&#x3c0;" horiz-adv-x="1458" 
d="M1249 793l-73 -402q-2 -10 -2 -18q0 -43 45 -43q43 0 88 30l-35 -329q-107 -51 -232 -51q-132 0 -211 71.5t-79 188.5q0 33 4 57l88 496h-215l-142 -793h-409l141 793h-121l60 333h1294l-59 -333h-142z" />
    <glyph glyph-name="Wgrave" unicode="&#x1e80;" horiz-adv-x="2394" 
d="M1251 1653l-350 354h461l225 -354h-336zM379 0l-238 1516h445l104 -951l457 951h389l123 -951l438 951h457l-772 -1516h-391l-140 952l-481 -952h-391z" />
    <glyph glyph-name="wgrave" unicode="&#x1e81;" horiz-adv-x="1888" 
d="M930 1264l-350 354h460l226 -354h-336zM270 0l-188 1126h440l56 -663l278 663h330l37 -663l297 663h452l-588 -1126h-407l-29 653l-270 -653h-408z" />
    <glyph glyph-name="Wacute" unicode="&#x1e82;" horiz-adv-x="2394" 
d="M1126 1653l355 354h456l-479 -354h-332zM379 0l-238 1516h445l104 -951l457 951h389l123 -951l438 951h457l-772 -1516h-391l-140 952l-481 -952h-391z" />
    <glyph glyph-name="wacute" unicode="&#x1e83;" horiz-adv-x="1888" 
d="M805 1264l354 354h457l-479 -354h-332zM270 0l-188 1126h440l56 -663l278 663h330l37 -663l297 663h452l-588 -1126h-407l-29 653l-270 -653h-408z" />
    <glyph glyph-name="Wdieresis" unicode="&#x1e84;" horiz-adv-x="2394" 
d="M1092 1599q-97 0 -156 57.5t-59 149.5q0 109 70 183.5t181 74.5q96 0 154.5 -57.5t58.5 -148.5q0 -110 -69.5 -184.5t-179.5 -74.5zM1681 1599q-97 0 -156 57.5t-59 149.5q0 109 70.5 183.5t181.5 74.5q96 0 154.5 -57.5t58.5 -148.5q0 -109 -70 -184t-180 -75zM379 0
l-238 1516h445l104 -951l457 951h389l123 -951l438 951h457l-772 -1516h-391l-140 952l-481 -952h-391z" />
    <glyph glyph-name="wdieresis" unicode="&#x1e85;" horiz-adv-x="1888" 
d="M770 1210q-97 0 -156 57.5t-59 149.5q0 109 70.5 183.5t181.5 74.5q96 0 154.5 -57.5t58.5 -149.5q0 -109 -69.5 -183.5t-180.5 -74.5zM1360 1210q-97 0 -156 57.5t-59 149.5q0 109 70.5 183.5t181.5 74.5q96 0 154.5 -57.5t58.5 -149.5q0 -109 -69.5 -183.5
t-180.5 -74.5zM270 0l-188 1126h440l56 -663l278 663h330l37 -663l297 663h452l-588 -1126h-407l-29 653l-270 -653h-408z" />
    <glyph glyph-name="uni1E9E" unicode="&#x1e9e;" horiz-adv-x="1468" 
d="M782 -20q-141 0 -221 32l60 328q53 -12 114 -12q98 0 154.5 50.5t56.5 123.5q0 67 -54.5 101t-156.5 34l56 315q80 0 130 41.5t50 89.5q0 50 -39.5 77.5t-106.5 27.5q-73 0 -126 -44.5t-64 -107.5l-184 -1036h-422l198 1114q34 194 207 308t428 114q252 0 400.5 -102
t148.5 -269q0 -218 -227 -372q184 -113 184 -304q0 -146 -79 -263.5t-212.5 -181.5t-294.5 -64z" />
    <glyph glyph-name="Ygrave" unicode="&#x1ef2;" horiz-adv-x="1486" 
d="M801 1653l-350 354h460l226 -354h-336zM412 0l96 504l-344 1012h436l182 -642l392 642h456l-700 -1012l-96 -504h-422z" />
    <glyph glyph-name="ygrave" unicode="&#x1ef3;" horiz-adv-x="1318" 
d="M973 1264h-336l-350 354h461zM881 1126h409l-278 -1577h-1098l57 334h688l35 191q-128 -94 -280 -94q-166 0 -262.5 97.5t-96.5 260.5q0 51 8 98l121 690h410l-111 -641q-4 -27 -4 -45q0 -110 119 -110q64 0 110 40.5t58 108.5z" />
    <glyph glyph-name="endash" unicode="&#x2013;" horiz-adv-x="1353" 
d="M76 455l51 288h1135l-52 -288h-1134z" />
    <glyph glyph-name="emdash" unicode="&#x2014;" horiz-adv-x="2146" 
d="M76 455l51 288h1927l-51 -288h-1927z" />
    <glyph glyph-name="quoteleft" unicode="&#x2018;" horiz-adv-x="681" 
d="M778 1516l-237 -605h-432l294 605h375z" />
    <glyph glyph-name="quoteright" unicode="&#x2019;" horiz-adv-x="671" 
d="M119 911l237 605h432l-294 -605h-375z" />
    <glyph glyph-name="quotesinglbase" unicode="&#x201a;" horiz-adv-x="675" 
d="M-133 -244l237 604h433l-295 -604h-375z" />
    <glyph glyph-name="quotedblleft" unicode="&#x201c;" horiz-adv-x="1247" 
d="M778 1518l-237 -605h-432l294 605h375zM1343 1518l-237 -605h-432l295 605h374z" />
    <glyph glyph-name="quotedblright" unicode="&#x201d;" horiz-adv-x="1239" 
d="M119 909l237 604h432l-294 -604h-375zM684 909l238 604h432l-295 -604h-375z" />
    <glyph glyph-name="quotedblbase" unicode="&#x201e;" horiz-adv-x="1241" 
d="M-133 -244l237 604h433l-295 -604h-375zM432 -244l238 604h432l-295 -604h-375z" />
    <glyph glyph-name="dagger" unicode="&#x2020;" horiz-adv-x="1245" 
d="M1253 1126l-61 -348h-334l-217 -1229h-422l217 1229h-338l62 348h338l82 471h421l-81 -471h333z" />
    <glyph glyph-name="daggerdbl" unicode="&#x2021;" horiz-adv-x="1245" 
d="M1192 778h-334l-22 -123h335l-61 -348h-336l-133 -758h-422l133 758h-336l62 348h336l22 123h-338l62 348h338l82 471h421l-81 -471h333z" />
    <glyph glyph-name="bullet" unicode="&#x2022;" horiz-adv-x="872" 
d="M401 301q-131 0 -208.5 72.5t-77.5 195.5q0 149 94 249t246 100q131 0 208.5 -73t77.5 -196q0 -149 -94 -248.5t-246 -99.5z" />
    <glyph glyph-name="ellipsis" unicode="&#x2026;" horiz-adv-x="1912" 
d="M231 -20q-101 0 -166 67.5t-65 169.5q0 116 77 192t197 76q101 0 166.5 -67.5t65.5 -169.5q0 -116 -77.5 -192t-197.5 -76zM866 -20q-101 0 -166 67.5t-65 169.5q0 116 77 192t197 76q101 0 166.5 -67.5t65.5 -169.5q0 -116 -77.5 -192t-197.5 -76zM1501 -20
q-101 0 -166 67.5t-65 169.5q0 116 77 192t197 76q101 0 166.5 -67.5t65.5 -169.5q0 -116 -77.5 -192t-197.5 -76z" />
    <glyph glyph-name="perthousand" unicode="&#x2030;" horiz-adv-x="2869" 
d="M545 815q-181 0 -285 86.5t-104 233.5q0 122 64 214t170 139.5t237 47.5q180 0 283.5 -85.5t103.5 -229.5q0 -183 -134 -294.5t-335 -111.5zM535 -20l-199 126l1132 1430l199 -125zM582 1073q48 0 80 36.5t32 80.5q0 43 -27 65.5t-75 22.5t-81.5 -35.5t-33.5 -81.5
q0 -88 105 -88zM1380 -20q-181 0 -285 86t-104 233q0 122 64 214t170 139.5t237 47.5q180 0 283.5 -85.5t103.5 -229.5q0 -183 -134 -294t-335 -111zM2286 -20q-181 0 -285.5 86t-104.5 233q0 122 64 214t170 139.5t237 47.5q180 0 284 -85.5t104 -229.5q0 -183 -134 -294
t-335 -111zM1417 238q49 0 81 36t32 80q0 43 -27.5 65.5t-75.5 22.5t-81 -35t-33 -81q0 -88 104 -88zM2322 238q49 0 81 36t32 80q0 43 -27 65.5t-75 22.5t-81.5 -35t-33.5 -81q0 -88 104 -88z" />
    <glyph glyph-name="guilsinglleft" unicode="&#x2039;" horiz-adv-x="929" 
d="M334 72l-297 481l457 481h446l-455 -481l271 -481h-422z" />
    <glyph glyph-name="guilsinglright" unicode="&#x203a;" horiz-adv-x="931" 
d="M563 1034l297 -481l-457 -481h-446l455 481l-271 481h422z" />
    <glyph glyph-name="fraction" unicode="&#x2044;" horiz-adv-x="512" 
d="M-170 -20l-199 126l1086 1430l198 -125z" />
    <glyph glyph-name="uni2070" unicode="&#x2070;" horiz-adv-x="829" 
d="M467 799q-144 0 -227.5 98.5t-83.5 265.5q0 111 33.5 214.5t91.5 182t143 126t182 47.5q145 0 226 -97.5t81 -263.5q0 -150 -54.5 -280.5t-158 -211.5t-233.5 -81zM502 1006q45 0 82 60t55 140.5t18 155.5t-22 119.5t-62 44.5q-45 0 -83 -60t-57 -141.5t-19 -155.5
q0 -76 22.5 -119.5t65.5 -43.5z" />
    <glyph glyph-name="uni2074" unicode="&#x2074;" horiz-adv-x="837" 
d="M449 811l26 154h-395l31 172l555 583h196l-96 -544h115l-37 -211h-117l-27 -154h-251zM367 1167h151l43 215z" />
    <glyph glyph-name="uni2075" unicode="&#x2075;" horiz-adv-x="761" 
d="M348 799q-90 0 -164 22t-118 60l96 170q73 -45 184 -45q76 0 134.5 37.5t58.5 91.5q0 34 -21.5 53.5t-58.5 19.5t-66 -18t-37 -43l-168 31l158 542h504l-35 -207h-289l-37 -100q12 2 39 2q122 0 196.5 -64t74.5 -171q0 -110 -62 -198t-164.5 -135.5t-224.5 -47.5z" />
    <glyph glyph-name="uni2076" unicode="&#x2076;" horiz-adv-x="768" 
d="M575 1374q102 0 172 -63.5t70 -165.5q0 -150 -116.5 -248t-282.5 -98q-136 0 -214.5 64t-78.5 175q0 102 49 193t139 190l279 299h282l-331 -346h32zM455 1006q41 0 70.5 33.5t29.5 76.5q0 31 -18.5 49.5t-49.5 18.5q-42 0 -70 -33t-28 -78q0 -31 17.5 -49t48.5 -18z" />
    <glyph glyph-name="uni2077" unicode="&#x2077;" horiz-adv-x="694" 
d="M217 1720h657l-452 -909h-270l356 702h-328z" />
    <glyph glyph-name="uni2078" unicode="&#x2078;" horiz-adv-x="788" 
d="M717 1278q92 -61 92 -174q0 -138 -107.5 -221.5t-265.5 -83.5q-144 0 -226.5 66t-82.5 177q0 86 45 149.5t125 100.5q-76 57 -76 154q0 128 102 207.5t250 79.5q130 0 206.5 -62.5t76.5 -165.5q0 -153 -139 -227zM549 1526q-33 0 -54.5 -28t-21.5 -60q0 -52 49 -52
q33 0 54.5 26t21.5 58q0 25 -13 40.5t-36 15.5zM457 1006q44 0 72 32t28 74q0 31 -19 49.5t-51 18.5q-44 0 -72 -32.5t-28 -74.5q0 -31 19 -49t51 -18z" />
    <glyph glyph-name="uni2079" unicode="&#x2079;" horiz-adv-x="768" 
d="M575 1733q136 0 214.5 -64.5t78.5 -175.5q0 -102 -49 -193t-139 -190l-279 -299h-282l332 346h-33q-102 0 -172 63.5t-70 165.5q0 150 116.5 248.5t282.5 98.5zM539 1526q-41 0 -71 -34t-30 -77q0 -31 18.5 -49t49.5 -18q42 0 70 32.5t28 77.5q0 31 -17.5 49.5
t-47.5 18.5z" />
    <glyph glyph-name="uni2080" unicode="&#x2080;" horiz-adv-x="829" 
d="M287 -217q-144 0 -228 98.5t-84 265.5q0 149 56.5 279t161 210.5t233.5 80.5q145 0 226 -97.5t81 -263.5q0 -150 -54.5 -280.5t-158 -211.5t-233.5 -81zM322 -10q45 0 82 60t55 140.5t18 155.5t-22 119.5t-62 44.5q-45 0 -83 -60t-57.5 -141t-19.5 -155q0 -76 23 -120
t66 -44z" />
    <glyph glyph-name="uni2081" unicode="&#x2081;" horiz-adv-x="512" 
d="M10 -205l123 703h-115l37 207h371l-162 -910h-254z" />
    <glyph glyph-name="uni2082" unicode="&#x2082;" horiz-adv-x="776" 
d="M-102 -205l28 158l373 330q117 101 117 174q0 23 -15 38t-39 15q-31 0 -55.5 -30t-30.5 -72l-249 38q23 126 119.5 198.5t238.5 72.5q133 0 211 -60t78 -161q0 -98 -64.5 -187.5t-189.5 -187.5l-154 -121l334 2l-37 -207h-665z" />
    <glyph glyph-name="uni2083" unicode="&#x2083;" horiz-adv-x="745" 
d="M645 705l-29 -156l-202 -182q87 -19 135.5 -80.5t48.5 -151.5q0 -161 -117.5 -256.5t-300.5 -95.5q-86 0 -164 23.5t-122 60.5l116 174q60 -51 180 -51q61 0 105.5 31t44.5 77q0 41 -28.5 63.5t-82.5 22.5q-50 0 -104 -32l-53 131l215 215h-236l37 207h557z" />
    <glyph glyph-name="uni2084" unicode="&#x2084;" horiz-adv-x="837" 
d="M268 -205l27 154h-395l30 172l555 584h197l-96 -545h114l-36 -211h-117l-27 -154h-252zM186 152h152l43 215z" />
    <glyph glyph-name="uni2085" unicode="&#x2085;" horiz-adv-x="761" 
d="M168 -217q-90 0 -164.5 22t-118.5 60l97 170q73 -45 184 -45q76 0 134 37.5t58 91.5q0 34 -21 54t-58 20t-66 -18t-37 -44l-168 31l158 543h504l-35 -207h-289l-37 -101q12 2 39 2q122 0 196 -64t74 -171q0 -110 -61.5 -198t-164 -135.5t-224.5 -47.5z" />
    <glyph glyph-name="uni2086" unicode="&#x2086;" horiz-adv-x="768" 
d="M395 358q102 0 172 -63.5t70 -165.5q0 -150 -116.5 -248t-282.5 -98q-136 0 -214.5 64.5t-78.5 175.5q0 102 49 193t139 190l279 299h282l-332 -347h33zM274 -10q41 0 71 33.5t30 76.5q0 31 -18.5 49.5t-49.5 18.5q-42 0 -70 -33t-28 -78q0 -31 17 -49t48 -18z" />
    <glyph glyph-name="uni2087" unicode="&#x2087;" horiz-adv-x="694" 
d="M37 705h657l-452 -910h-271l357 703h-328z" />
    <glyph glyph-name="uni2088" unicode="&#x2088;" horiz-adv-x="788" 
d="M537 262q92 -61 92 -174q0 -138 -107.5 -221.5t-265.5 -83.5q-144 0 -226.5 66.5t-82.5 177.5q0 86 45 149t125 100q-76 57 -76 154q0 128 102 207.5t250 79.5q130 0 206.5 -62.5t76.5 -165.5q0 -153 -139 -227zM369 510q-33 0 -54.5 -28t-21.5 -60q0 -51 49 -51
q33 0 54.5 26t21.5 58q0 25 -13 40t-36 15zM276 -10q44 0 72.5 32t28.5 74q0 31 -19 49.5t-51 18.5q-44 0 -72 -32.5t-28 -74.5q0 -31 18.5 -49t50.5 -18z" />
    <glyph glyph-name="uni2089" unicode="&#x2089;" horiz-adv-x="768" 
d="M395 717q136 0 214.5 -64.5t78.5 -175.5q0 -102 -49 -193t-139 -190l-279 -299h-282l331 346h-32q-102 0 -172 64t-70 166q0 150 116.5 248t282.5 98zM358 510q-41 0 -70.5 -34t-29.5 -77q0 -31 18.5 -49t49.5 -18q42 0 70 32.5t28 77.5q0 31 -17.5 49.5t-48.5 18.5z" />
    <glyph glyph-name="Euro" unicode="&#x20ac;" horiz-adv-x="1794" 
d="M1006 328q107 0 220 63.5t189 167.5l252 -276q-277 -303 -706 -303q-287 0 -477.5 128.5t-245.5 352.5h-183l45 256h123q4 48 8 74h-118l47 256h157q116 227 346 358t521 131q399 0 596 -252l-295 -248q-57 74 -143.5 113t-192.5 39q-203 0 -344 -141h336l-45 -256h-428
q-11 -44 -13 -74h428l-45 -256h-333q87 -133 301 -133z" />
    <glyph glyph-name="uni20B9" unicode="&#x20b9;" horiz-adv-x="1265" 
d="M1286 1260h-270q54 -69 69 -160h160l-45 -256h-139q-33 -100 -102 -183t-164 -139l243 -522h-481l-176 414h-320l62 348h276q128 0 201 82h-463l45 256h467q-28 67 -114 67h-340l16 93l45 256h1075z" />
    <glyph glyph-name="uni20BD" unicode="&#x20bd;" horiz-adv-x="1503" 
d="M844 543h-207l-12 -74h374l-45 -256h-376l-37 -213h-422l37 213h-123l45 256h125l12 74h-123l43 256h125l127 717h627q225 0 360 -112t135 -298q0 -167 -88.5 -296.5t-239.5 -198t-337 -68.5zM932 1167h-184l-50 -276h162q97 0 157 42t60 126q0 53 -37.5 80.5
t-107.5 27.5z" />
    <glyph glyph-name="trademark" unicode="&#x2122;" horiz-adv-x="1538" 
d="M752 1425h-164l-74 -413h-209l74 413h-168l31 172h540zM1317 1597h227l-53 -585h-209l35 309l-172 -309h-76l-68 319l-75 -319h-209l151 585h224l65 -288z" />
    <glyph glyph-name="oneeighth" unicode="&#x215b;" horiz-adv-x="1812" 
d="M1229 1536l198 -125l-1085 -1431l-199 126zM408 606h-254l122 703h-114l37 207h370zM1597 467q93 -61 93 -174q0 -138 -107.5 -221.5t-265.5 -83.5q-144 0 -226.5 66t-82.5 177q0 86 45 149.5t125 100.5q-76 57 -76 154q0 128 102 207.5t250 79.5q130 0 206.5 -62.5
t76.5 -165.5q0 -152 -140 -227zM1430 715q-33 0 -54.5 -28t-21.5 -60q0 -52 49 -52q33 0 54.5 26t21.5 58q0 25 -13 40.5t-36 15.5zM1337 195q44 0 72.5 32t28.5 74q0 31 -19 49.5t-51 18.5q-44 0 -72 -32.5t-28 -74.5q0 -31 18.5 -49t50.5 -18z" />
    <glyph glyph-name="threeeighths" unicode="&#x215c;" horiz-adv-x="2045" 
d="M1462 1536l199 -125l-1086 -1431l-198 126zM741 946q0 -161 -117.5 -256.5t-299.5 -95.5q-87 0 -165 23.5t-122 60.5l117 174q60 -51 180 -51q61 0 105 31t44 77q0 86 -110 86q-51 0 -105 -32l-53 131l215 215h-235l36 207h557l-28 -156l-203 -182q87 -19 135.5 -80.5
t48.5 -151.5zM1831 467q92 -61 92 -174q0 -138 -107.5 -221.5t-265.5 -83.5q-144 0 -226.5 66t-82.5 177q0 86 45 149.5t125 100.5q-76 57 -76 154q0 128 102 207.5t251 79.5q130 0 206 -62.5t76 -165.5q0 -153 -139 -227zM1663 715q-33 0 -54.5 -28t-21.5 -60q0 -52 49 -52
q33 0 54.5 26t21.5 58q0 25 -13 40.5t-36 15.5zM1571 195q44 0 72 32t28 74q0 31 -18.5 49.5t-50.5 18.5q-44 0 -72.5 -32.5t-28.5 -74.5q0 -31 19 -49t51 -18z" />
    <glyph glyph-name="fiveeighths" unicode="&#x215d;" horiz-adv-x="2062" 
d="M1479 1536l198 -125l-1085 -1431l-199 126zM762 975q0 -110 -62 -198t-164.5 -135.5t-224.5 -47.5q-90 0 -164 22t-118 60l96 170q73 -45 184 -45q76 0 134.5 37.5t58.5 91.5q0 34 -21.5 54t-58.5 20t-66 -18t-37 -44l-167 31l157 543h504l-35 -207h-289l-36 -101
q12 2 39 2q122 0 196 -64t74 -171zM1847 467q92 -61 92 -174q0 -138 -107.5 -221.5t-264.5 -83.5q-144 0 -227 66t-83 177q0 86 45 149.5t125 100.5q-75 57 -75 154q0 128 102 207.5t250 79.5q130 0 206.5 -62.5t76.5 -165.5q0 -152 -140 -227zM1679 715q-33 0 -54 -28
t-21 -60q0 -52 49 -52q33 0 54.5 26t21.5 58q0 25 -13.5 40.5t-36.5 15.5zM1587 195q44 0 72.5 32t28.5 74q0 31 -19 49.5t-51 18.5q-44 0 -72 -32.5t-28 -74.5q0 -31 18.5 -49t50.5 -18z" />
    <glyph glyph-name="seveneighths" unicode="&#x215e;" horiz-adv-x="1947" 
d="M1364 1536l199 -125l-1086 -1431l-198 126zM385 606h-270l356 703h-328l37 207h658zM1733 467q92 -61 92 -174q0 -138 -107.5 -221.5t-265.5 -83.5q-144 0 -226.5 66t-82.5 177q0 86 45 149.5t125 100.5q-76 57 -76 154q0 128 102 207.5t250 79.5q130 0 206.5 -62.5
t76.5 -165.5q0 -153 -139 -227zM1565 715q-33 0 -54.5 -28t-21.5 -60q0 -52 49 -52q33 0 54.5 26t21.5 58q0 25 -13 40.5t-36 15.5zM1473 195q44 0 72 32t28 74q0 31 -19 49.5t-51 18.5q-44 0 -72 -32.5t-28 -74.5q0 -31 19 -49t51 -18z" />
    <glyph glyph-name="partialdiff" unicode="&#x2202;" horiz-adv-x="1480" 
d="M815 1536q293 0 462 -169t169 -458q0 -195 -66.5 -366.5t-183.5 -295.5t-284.5 -195.5t-360.5 -71.5q-248 0 -393.5 112.5t-145.5 302.5q0 119 55.5 217.5t149.5 167t223 118t269.5 76t296.5 34.5q-20 87 -74 133.5t-135 46.5q-107 0 -200 -48.5t-148 -125.5l-236 293
q237 229 602 229zM553 328q142 0 252.5 93.5t165.5 240.5q-98 -5 -191.5 -23t-173 -48.5t-128 -78t-48.5 -104.5q0 -38 33 -59t90 -21z" />
    <glyph glyph-name="emptyset" unicode="&#x2205;" horiz-adv-x="1427" 
d="M1272 1126q92 -122 92 -295q0 -145 -54 -271t-148.5 -215t-226.5 -140t-284 -51q-184 0 -321 73l-76 -73l-143 118l77 74q-96 122 -96 297q0 193 93 348.5t256.5 242.5t365.5 87q188 0 323 -74l78 74l142 -121zM512 702q0 -19 4 -43l313 299q-37 13 -75 13
q-101 0 -171.5 -83.5t-70.5 -185.5zM707 504q98 0 167.5 83.5t69.5 186.5q0 25 -2 37l-309 -297q33 -10 74 -10z" />
    <glyph glyph-name="product" unicode="&#x220f;" horiz-adv-x="1521" 
d="M1542 1597l-360 -2048h-422l299 1700h-385l-299 -1700h-422l360 2048h1229z" />
    <glyph glyph-name="summation" unicode="&#x2211;" horiz-adv-x="1456" 
d="M-119 -451l39 267l709 764l-406 751l41 266h1256l-60 -348h-725l363 -669l-631 -682h774l-59 -349h-1301z" />
    <glyph glyph-name="minus" unicode="&#x2212;" horiz-adv-x="1294" 
d="M100 557l60 336h1057l-60 -336h-1057z" />
    <glyph glyph-name="radical" unicode="&#x221a;" horiz-adv-x="1662" 
d="M242 -451l-252 1127h440l90 -664l844 1585h451l-1166 -2048h-407z" />
    <glyph glyph-name="infinity" unicode="&#x221e;" horiz-adv-x="1531" 
d="M1085 932q166 0 262.5 -86t96.5 -228q0 -183 -123.5 -295t-316.5 -112q-192 0 -279 127q-120 -127 -307 -127q-165 0 -262 86.5t-97 228.5q0 182 126 294t315 112q94 0 166 -33t114 -94q117 127 305 127zM475 469q50 0 84.5 35t34.5 82q0 88 -92 88q-53 0 -88 -35.5
t-35 -81.5q0 -88 96 -88zM1004 469q50 0 84 35t34 82q0 88 -92 88q-53 0 -88 -35.5t-35 -81.5q0 -88 97 -88z" />
    <glyph glyph-name="integral" unicode="&#x222b;" horiz-adv-x="937" 
d="M100 -471q-180 0 -278 123l141 258q33 -33 78 -33q39 0 64.5 22.5t31.5 57.5l236 1335q27 151 149 238.5t291 87.5q179 0 274 -123l-137 -258q-31 33 -78 33q-40 0 -65 -22.5t-31 -57.5l-235 -1335q-27 -151 -149.5 -238.5t-291.5 -87.5z" />
    <glyph glyph-name="approxequal" unicode="&#x2248;" horiz-adv-x="1275" 
d="M856 625q-78 0 -223.5 43t-188.5 43q-53 0 -80 -15t-34 -51h-217q25 153 126 251.5t238 98.5q85 0 227 -42t187 -42q56 0 81 12t32 52h217q-28 -162 -127 -256t-238 -94zM784 215q-78 0 -223 43t-188 43q-54 0 -81 -14.5t-34 -50.5h-217q25 153 126.5 251.5t238.5 98.5
q84 0 226 -42t187 -42q57 0 81.5 11.5t31.5 51.5h217q-28 -162 -127 -256t-238 -94z" />
    <glyph glyph-name="notequal" unicode="&#x2260;" horiz-adv-x="1292" 
d="M1196 772h-305l-43 -94h332l-60 -336h-422l-110 -250h-418l111 250h-218l60 336h307l43 94h-334l60 336h424l110 250h418l-111 -250h215z" />
    <glyph glyph-name="lessequal" unicode="&#x2264;" horiz-adv-x="1294" 
d="M1126 379l-1001 420l47 266l1151 420l-68 -381l-565 -172l504 -172zM-20 -18l59 335h1075l-59 -335h-1075z" />
    <glyph glyph-name="greaterequal" unicode="&#x2265;" horiz-adv-x="1290" 
d="M74 379l67 381l543 172l-483 172l67 381l1004 -420l-47 -266zM4 -18l59 335h1076l-60 -335h-1075z" />
    <glyph glyph-name="lozenge" unicode="&#x25ca;" horiz-adv-x="1388" 
d="M391 0l-321 666l544 665h385l324 -665l-547 -666h-385zM647 356l256 310l-153 309l-258 -309z" />
    <glyph glyph-name="i.loclTRK" horiz-adv-x="636" 
d="M440 1210q-97 0 -156 57.5t-59 149.5q0 109 70.5 183.5t181.5 74.5q96 0 154.5 -57.5t58.5 -149.5q0 -109 -69.5 -183.5t-180.5 -74.5zM-2 0l201 1126h409l-200 -1126h-410z" />
    <glyph glyph-name="zero.lf" horiz-adv-x="1370" 
d="M604 -20q-243 0 -382.5 163.5t-139.5 440.5q0 149 35 290.5t101.5 260.5t156.5 209.5t208 141t248 50.5q241 0 379 -162t138 -438q0 -150 -34.5 -292t-100 -261.5t-155 -210t-207 -141.5t-247.5 -51zM643 328q81 0 145.5 101t95.5 236t31 263q0 122 -33.5 191t-95.5 69
q-61 0 -114.5 -59.5t-87.5 -150.5t-53 -194t-19 -196q0 -120 34.5 -190t96.5 -70z" />
    <glyph glyph-name="one.lf" horiz-adv-x="831" 
d="M147 0l207 1167h-192l61 349h615l-269 -1516h-422z" />
    <glyph glyph-name="two.lf" horiz-adv-x="1269" 
d="M-41 0l45 264l617 557q200 177 200 281q0 39 -24 62.5t-66 23.5q-51 0 -92 -49.5t-53 -120.5l-414 67q36 209 198 330t396 121q222 0 351.5 -101t129.5 -268q0 -163 -105 -308.5t-315 -313.5l-256 -205l555 8l-61 -348h-1106z" />
    <glyph glyph-name="three.lf" horiz-adv-x="1226" 
d="M1202 1516l-45 -261l-338 -303q146 -31 227.5 -132.5t81.5 -252.5q0 -179 -92 -314t-249 -204t-355 -69q-145 0 -274.5 39t-204.5 100l192 289q50 -37 134 -58.5t172 -21.5q101 0 173 49t72 123q0 70 -48.5 108.5t-135.5 38.5q-91 0 -174 -55l-90 219l358 356h-391
l61 349h926z" />
    <glyph glyph-name="four.lf" horiz-adv-x="1386" 
d="M582 0l45 258h-654l47 285l922 973h328l-158 -910h191l-62 -348h-192l-45 -258h-422zM446 594h254l60 340z" />
    <glyph glyph-name="five.lf" horiz-adv-x="1255" 
d="M410 -20q-149 0 -271.5 36t-197.5 99l159 286q109 -73 312 -73q127 0 221 59.5t94 149.5q0 59 -35 89.5t-100 30.5q-61 0 -107 -29t-59 -69l-281 49l263 908h841l-59 -349h-479l-66 -166q45 5 66 5q203 0 328.5 -108t125.5 -284q0 -137 -61 -256.5t-163.5 -201.5
t-240.5 -129t-290 -47z" />
    <glyph glyph-name="six.lf" 
d="M780 938q172 0 289 -104t117 -273q0 -165 -91 -299t-242.5 -208t-330.5 -74q-227 0 -359 108t-132 291q0 88 23.5 173t69.5 165.5t97.5 149.5t122.5 147l467 502h471l-557 -578h55zM582 328q71 0 116 55t45 125q0 52 -29.5 82.5t-80.5 30.5q-69 0 -115.5 -53t-46.5 -128
q0 -53 29.5 -82.5t81.5 -29.5z" />
    <glyph glyph-name="seven.lf" horiz-adv-x="1171" 
d="M197 1516h1093l-749 -1516h-451l592 1167h-547z" />
    <glyph glyph-name="eight.lf" horiz-adv-x="1298" 
d="M1024 776q158 -102 158 -287q0 -116 -50.5 -213.5t-136 -161.5t-199 -99t-239.5 -35q-238 0 -377 109t-139 292q0 146 76.5 253.5t208.5 166.5q-127 98 -127 258q0 141 80.5 251t213 168t291.5 58q218 0 345.5 -103t127.5 -276q0 -130 -62 -226.5t-171 -154.5zM739 1188
q-50 0 -83 -45t-33 -96q0 -41 23 -65t63 -24q49 0 82.5 45.5t33.5 94.5q0 90 -86 90zM596 328q67 0 114.5 52.5t47.5 117.5q0 54 -31.5 83t-87.5 29q-69 0 -115.5 -53.5t-46.5 -118.5q0 -54 31 -82t88 -28z" />
    <glyph glyph-name="nine.lf" 
d="M774 1536q228 0 360 -108.5t132 -290.5q0 -167 -82.5 -319t-231.5 -316l-467 -502h-471l557 580q-16 -2 -55 -2q-172 0 -288.5 103.5t-116.5 272.5q0 165 90.5 299.5t242 208.5t330.5 74zM715 1188q-72 0 -117 -55t-45 -125q0 -52 30 -82.5t81 -30.5q69 0 115 52.5
t46 127.5q0 53 -29 83t-81 30z" />
    <glyph glyph-name="zero.osf" horiz-adv-x="1478" 
d="M659 -20q-272 0 -429.5 152t-157.5 407q0 174 60 325.5t164 258t248 168t308 61.5q272 0 429 -151t157 -406q0 -174 -60 -325.5t-163.5 -259t-247.5 -169t-308 -61.5zM705 330q81 0 149.5 61t106.5 157.5t38 201.5q0 119 -51 185t-143 66q-83 0 -152.5 -60t-108 -156.5
t-38.5 -204.5q0 -116 53 -183t146 -67z" />
    <glyph glyph-name="one.osf" horiz-adv-x="815" 
d="M145 0l177 997h-183l60 334h592l-236 -1331h-410z" />
    <glyph glyph-name="two.osf" horiz-adv-x="1286" 
d="M-33 0l47 264l600 436q6 4 30.5 21.5t34 24.5t31.5 24t32 26.5t25.5 26t23 28.5t13 27.5t5.5 30.5q0 42 -28.5 67t-78.5 25q-56 0 -98 -42t-53 -105l-401 68q36 199 196.5 314.5t394.5 115.5q221 0 351.5 -101.5t130.5 -269.5q0 -66 -18.5 -124.5t-48.5 -106t-80.5 -96.5
t-103 -89t-128.5 -90l-209 -139h498l-60 -336h-1106z" />
    <glyph glyph-name="three.osf" horiz-adv-x="1216" 
d="M1169 1331l-45 -260l-342 -313q141 -31 220 -133.5t79 -253.5q0 -136 -52.5 -249t-144 -188.5t-217.5 -117t-272 -41.5q-149 0 -278.5 40t-196.5 101l193 287q43 -36 118 -57t152 -21q113 0 197 53t84 133q0 68 -52.5 104t-146.5 36q-78 0 -162 -54l-90 219l373 381h-402
l60 334h925z" />
    <glyph glyph-name="four.osf" horiz-adv-x="1404" 
d="M573 -225l39 225h-669l45 256l956 1075h313l-174 -995h189l-60 -336h-190l-39 -225h-410zM420 324h262l72 381z" />
    <glyph glyph-name="five.osf" horiz-adv-x="1245" 
d="M373 -225q-150 0 -271.5 35t-197.5 98l162 291q110 -74 313 -74q127 0 221 62.5t94 154.5q0 57 -34.5 89t-94.5 32q-62 0 -110 -29t-64 -69l-280 49l264 917h844l-60 -334h-495l-66 -188q50 4 82 4q197 0 317.5 -107.5t120.5 -285.5q0 -139 -59.5 -260t-160 -205
t-237 -132t-288.5 -48z" />
    <glyph glyph-name="six.osf" horiz-adv-x="1249" 
d="M770 938q183 0 288 -97.5t105 -265.5q0 -171 -87.5 -308t-236 -212t-327.5 -75q-222 0 -350.5 107.5t-128.5 291.5q0 156 73 296t209 290l506 551h459l-559 -580q16 2 49 2zM571 328q72 0 117 55t45 125q0 52 -29.5 82.5t-80.5 30.5q-69 0 -115.5 -53t-46.5 -128
q0 -53 29 -82.5t81 -29.5z" />
    <glyph glyph-name="seven.osf" horiz-adv-x="1191" 
d="M172 1331h1096l-776 -1564l-383 104l553 1126h-547z" />
    <glyph glyph-name="eight.osf" horiz-adv-x="1277" 
d="M1006 778q155 -102 155 -286q0 -150 -84 -268.5t-224 -181t-308 -62.5q-232 0 -369 109.5t-137 293.5q0 142 77 250t210 168q-125 98 -125 256q0 141 78 251.5t208 169t287 58.5q214 0 339.5 -102t125.5 -273q0 -127 -62 -225.5t-171 -157.5zM731 1188q-51 0 -85 -46
t-34 -98q0 -41 22 -63.5t62 -22.5q51 0 85 45.5t34 96.5q0 41 -22 64.5t-62 23.5zM586 328q70 0 116 51t46 119q0 55 -31.5 83.5t-87.5 28.5q-70 0 -116 -52t-46 -120q0 -54 31 -82t88 -28z" />
    <glyph glyph-name="nine.osf" horiz-adv-x="1234" 
d="M737 1352q221 0 350.5 -107t129.5 -287q0 -154 -74.5 -299.5t-208.5 -296.5l-553 -595l-363 104l506 524q-16 -2 -47 -2q-183 0 -288 98.5t-105 266.5q0 129 51.5 240t139 188.5t208 121.5t254.5 44zM674 1004q-71 0 -116.5 -52t-45.5 -127q0 -53 29.5 -83.5t81.5 -30.5
q71 0 116 55.5t45 126.5q0 51 -29.5 81t-80.5 30z" />
    <glyph glyph-name="zero.tf" 
d="M539 -20q-222 0 -350 159t-128 430q0 117 22.5 234t63.5 224.5t104 200.5t139 161.5t173 107.5t203 39q220 0 345.5 -158.5t125.5 -427.5q0 -141 -30 -280t-90.5 -263t-143 -219.5t-195 -151.5t-239.5 -56zM584 328q63 0 117 117.5t81 264t27 263.5q0 103 -23 159t-67 56
q-49 0 -94 -68.5t-73.5 -169.5t-45.5 -210t-17 -195q0 -103 24 -160t71 -57z" />
    <glyph glyph-name="one.tf" 
d="M864 348h256l-61 -348h-1071l61 348h393l146 819h-256l61 349h678z" />
    <glyph glyph-name="two.tf" 
d="M-45 0l45 264l616 557q201 178 201 281q0 39 -24 62.5t-66 23.5q-51 0 -92 -49.5t-53 -120.5l-414 67q36 209 198 330t396 121q222 0 351.5 -101t129.5 -268q0 -163 -105 -308.5t-315 -313.5l-256 -205l555 8l-61 -348h-1106z" />
    <glyph glyph-name="three.tf" 
d="M1219 1516l-45 -261l-338 -303q146 -31 227.5 -132.5t81.5 -252.5q0 -179 -92 -314t-249 -204t-355 -69q-145 0 -275 39t-205 100l193 289q50 -37 133.5 -58.5t171.5 -21.5q102 0 174 49t72 123q0 70 -49 108.5t-136 38.5q-91 0 -174 -55l-90 219l359 356h-392l62 349
h926z" />
    <glyph glyph-name="four.tf" 
d="M496 0l45 258h-609l50 285l874 973h330l-162 -908h193l-62 -350h-192l-45 -258h-422zM408 596h206l70 332z" />
    <glyph glyph-name="five.tf" 
d="M412 -20q-149 0 -271.5 36t-197.5 99l159 286q128 -73 312 -73q127 0 221 59.5t94 149.5q0 59 -35 89.5t-100 30.5q-61 0 -107 -29t-59 -69l-281 49l263 908h841l-59 -349h-479l-66 -166q50 5 66 5q203 0 328.5 -108t125.5 -284q0 -137 -61 -256.5t-163.5 -201.5
t-240.5 -129t-290 -47z" />
    <glyph glyph-name="six.tf" 
d="M782 938q172 0 289 -104t117 -273q0 -165 -91 -299t-242.5 -208t-330.5 -74q-227 0 -359 108t-132 291q0 88 23.5 173t69.5 165.5t97.5 149.5t122.5 147l467 502h471l-557 -578h55zM584 328q71 0 116 55t45 125q0 52 -29.5 82.5t-80.5 30.5q-69 0 -115.5 -53t-46.5 -128
q0 -53 29.5 -82.5t81.5 -29.5z" />
    <glyph glyph-name="seven.tf" 
d="M240 1516h1093l-749 -1516h-451l592 1167h-547z" />
    <glyph glyph-name="eight.tf" 
d="M1006 776q157 -102 157 -287q0 -94 -32.5 -175.5t-90.5 -142t-136 -104t-171 -65.5t-194 -22q-238 0 -377 109t-139 292q0 146 76 253.5t208 166.5q-127 98 -127 258q0 141 80.5 251t213.5 168t292 58q218 0 345.5 -103t127.5 -276q0 -130 -62 -226.5t-171 -154.5z
M721 1188q-50 0 -83.5 -45t-33.5 -96q0 -41 23 -65t63 -24q49 0 83 45.5t34 94.5q0 90 -86 90zM578 328q67 0 114 52.5t47 117.5q0 54 -31 83t-87 29q-69 0 -115.5 -53.5t-46.5 -118.5q0 -54 31 -82t88 -28z" />
    <glyph glyph-name="nine.tf" 
d="M774 1536q228 0 360 -108.5t132 -290.5q0 -167 -82.5 -319t-231.5 -316l-467 -502h-471l557 578h-55q-172 0 -288.5 103.5t-116.5 272.5q0 165 90.5 299.5t242 208.5t330.5 74zM715 1188q-72 0 -117 -55t-45 -125q0 -52 30 -82.5t81 -30.5q69 0 115 52.5t46 127.5
q0 53 -29 83t-81 30z" />
    <glyph glyph-name="zero.tosf" 
d="M537 -20q-226 0 -357 145.5t-131 392.5q0 165 49 316t136 266t216 183.5t279 68.5q225 0 355 -146t130 -393q0 -163 -49 -314t-135 -266t-215 -184t-278 -69zM582 330q56 0 104 80.5t73 188t25 204.5q0 198 -98 198q-46 0 -86.5 -48t-66 -120.5t-40 -153.5t-14.5 -151
q0 -198 103 -198z" />
    <glyph glyph-name="one.tosf" 
d="M825 336h299l-59 -336h-1071l59 336h363l116 661h-243l59 334h653z" />
    <glyph glyph-name="two.tosf" 
d="M-45 0l47 264l600 436q6 4 30.5 21.5t34 24.5t31.5 24t32 26.5t25.5 26t23 28.5t13 27.5t5.5 30.5q0 42 -28.5 67t-78.5 25q-56 0 -98 -42t-53 -105l-402 68q36 199 197 314.5t395 115.5q221 0 351 -101.5t130 -269.5q0 -66 -18.5 -124.5t-48.5 -106t-80.5 -96.5
t-103 -89t-128.5 -90l-208 -139h497l-59 -336h-1106z" />
    <glyph glyph-name="three.tosf" 
d="M1190 1331l-45 -260l-342 -313q141 -31 220 -133.5t79 -253.5q0 -136 -52.5 -249t-144 -188.5t-217.5 -117t-272 -41.5q-149 0 -278.5 40t-196.5 101l192 287q43 -36 118 -57t152 -21q113 0 197 53t84 133q0 68 -52.5 104t-146.5 36q-77 0 -161 -54l-91 219l373 381h-401
l59 334h926z" />
    <glyph glyph-name="four.tosf" 
d="M477 -225l39 225h-620l43 256l909 1075h313l-176 -995h191l-60 -336h-190l-39 -225h-410zM371 324h215l76 356z" />
    <glyph glyph-name="five.tosf" 
d="M381 -225q-150 0 -271.5 35t-197.5 98l162 291q131 -74 313 -74q127 0 221 62.5t94 154.5q0 57 -34.5 89t-94.5 32q-62 0 -110 -29t-64 -69l-280 49l264 917h844l-60 -334h-495l-66 -188q29 4 82 4q197 0 317.5 -107.5t120.5 -285.5q0 -139 -59.5 -260t-160 -205
t-237 -132t-288.5 -48z" />
    <glyph glyph-name="six.tosf" 
d="M776 938q183 0 288 -97.5t105 -265.5q0 -171 -87.5 -308t-236 -212t-327.5 -75q-222 0 -350.5 107.5t-128.5 291.5q0 156 73 296t210 290l505 551h459l-557 -578h47zM578 328q71 0 116 55t45 125q0 52 -29.5 82.5t-80.5 30.5q-69 0 -115.5 -53t-46.5 -128
q0 -53 29.5 -82.5t81.5 -29.5z" />
    <glyph glyph-name="seven.tosf" 
d="M207 1331h1096l-777 -1564l-383 104l553 1126h-546z" />
    <glyph glyph-name="eight.tosf" 
d="M997 778q156 -103 156 -286q0 -150 -84 -268.5t-224 -181t-308 -62.5q-232 0 -369 109.5t-137 293.5q0 142 76.5 250t209.5 168q-124 98 -124 256q0 141 78 251.5t208 169t287 58.5q214 0 339.5 -102t125.5 -273q0 -127 -62.5 -225.5t-171.5 -157.5zM723 1188
q-51 0 -85 -46t-34 -98q0 -41 22 -63.5t62 -22.5q51 0 85 45.5t34 96.5q0 41 -22 64.5t-62 23.5zM578 328q70 0 115.5 51t45.5 119q0 55 -31 83.5t-87 28.5q-70 0 -116 -52t-46 -120q0 -54 31 -82t88 -28z" />
    <glyph glyph-name="nine.tosf" 
d="M745 1352q221 0 350.5 -107t129.5 -287q0 -154 -74.5 -299.5t-208.5 -296.5l-553 -595l-362 104l505 524q-16 -2 -47 -2q-183 0 -288 98.5t-105 266.5q0 129 51.5 240t139 188.5t208 121.5t254.5 44zM682 1004q-71 0 -116.5 -52t-45.5 -127q0 -53 29.5 -83.5t81.5 -30.5
q71 0 116.5 56t45.5 126q0 51 -30 81t-81 30z" />
    <glyph glyph-name="zero.dnom" horiz-adv-x="829" 
d="M324 -12q-144 0 -228 98.5t-84 265.5q0 149 56.5 279t161 210.5t233.5 80.5q145 0 226 -97.5t81 -263.5q0 -150 -54.5 -280.5t-158 -211.5t-233.5 -81zM358 195q45 0 82 60t55.5 140.5t18.5 155.5t-22 119.5t-62 44.5q-45 0 -83 -60t-57.5 -141.5t-19.5 -155.5
q0 -76 22.5 -119.5t65.5 -43.5z" />
    <glyph glyph-name="one.dnom" horiz-adv-x="512" 
d="M47 0l123 702h-115l37 207h371l-162 -909h-254z" />
    <glyph glyph-name="two.dnom" horiz-adv-x="776" 
d="M-66 0l29 158l373 329q117 101 117 175q0 24 -14.5 38.5t-39.5 14.5q-31 0 -55.5 -30t-30.5 -73l-250 39q23 125 120 198t239 73q133 0 211 -60t78 -162q0 -98 -64 -186.5t-190 -187.5l-154 -121l334 2l-37 -207h-666z" />
    <glyph glyph-name="three.dnom" horiz-adv-x="745" 
d="M682 909l-29 -155l-202 -183q87 -19 135.5 -80t48.5 -151q0 -161 -117.5 -256.5t-300.5 -95.5q-87 0 -165 23.5t-122 60.5l117 174q60 -51 180 -51q61 0 105.5 31t44.5 77q0 41 -28.5 63.5t-82.5 22.5q-48 0 -104 -33l-53 131l215 215h-236l37 207h557z" />
    <glyph glyph-name="four.dnom" horiz-adv-x="837" 
d="M305 0l27 154h-395l30 172l555 583h197l-96 -544h114l-37 -211h-116l-27 -154h-252zM223 356h152l43 215z" />
    <glyph glyph-name="five.dnom" horiz-adv-x="761" 
d="M205 -12q-90 0 -164.5 22t-118.5 60l96 170q73 -45 185 -45q76 0 134 37.5t58 91.5q0 34 -21.5 53.5t-58.5 19.5t-65.5 -17.5t-36.5 -43.5l-168 31l158 542h504l-35 -207h-289l-37 -100q12 2 39 2q122 0 196 -64t74 -171q0 -110 -61.5 -198t-164 -135.5t-224.5 -47.5z
" />
    <glyph glyph-name="six.dnom" horiz-adv-x="768" 
d="M432 563q102 0 172 -63.5t70 -165.5q0 -150 -117 -248t-283 -98q-136 0 -214 64t-78 175q0 102 49 193t139 190l279 299h282l-332 -346h33zM311 195q41 0 71 33.5t30 76.5q0 31 -18.5 49.5t-49.5 18.5q-42 0 -70 -33t-28 -78q0 -31 17 -49t48 -18z" />
    <glyph glyph-name="seven.dnom" horiz-adv-x="694" 
d="M74 909h657l-452 -909h-271l357 702h-328z" />
    <glyph glyph-name="eight.dnom" horiz-adv-x="788" 
d="M573 467q93 -61 93 -174q0 -138 -107.5 -221.5t-265.5 -83.5q-144 0 -226.5 66t-82.5 177q0 86 45 149.5t125 100.5q-76 57 -76 154q0 128 102 207.5t250 79.5q130 0 206.5 -62.5t76.5 -165.5q0 -152 -140 -227zM406 715q-33 0 -54.5 -28t-21.5 -60q0 -52 49 -52
q33 0 54.5 26t21.5 58q0 25 -13 40.5t-36 15.5zM313 195q44 0 72.5 32t28.5 74q0 31 -19 49.5t-51 18.5q-44 0 -72 -32.5t-28 -74.5q0 -31 18.5 -49t50.5 -18z" />
    <glyph glyph-name="nine.dnom" horiz-adv-x="768" 
d="M432 922q136 0 214.5 -64.5t78.5 -175.5q0 -102 -49 -193t-139 -190l-279 -299h-283l332 346h-33q-102 0 -171.5 63.5t-69.5 165.5q0 150 116.5 248.5t282.5 98.5zM395 715q-41 0 -70.5 -34t-29.5 -77q0 -31 18 -49t49 -18q42 0 70.5 32.5t28.5 77.5q0 31 -17.5 49.5
t-48.5 18.5z" />
    <glyph glyph-name="zero.numr" horiz-adv-x="829" 
d="M430 594q-144 0 -227.5 98.5t-83.5 265.5q0 111 33.5 214.5t91.5 182t143 126t182 47.5q145 0 226.5 -97.5t81.5 -263.5q0 -150 -55 -280.5t-158.5 -211.5t-233.5 -81zM465 801q45 0 82 60t55.5 140.5t18.5 155.5t-22 119.5t-62 44.5q-45 0 -83 -60t-57.5 -141
t-19.5 -155q0 -76 22.5 -120t65.5 -44z" />
    <glyph glyph-name="one.numr" horiz-adv-x="512" 
d="M154 606l122 703h-114l37 207h370l-161 -910h-254z" />
    <glyph glyph-name="two.numr" horiz-adv-x="776" 
d="M41 606l29 158l372 330q117 101 117 174q0 24 -14.5 38.5t-38.5 14.5q-31 0 -55.5 -30t-30.5 -72l-250 38q23 126 119.5 198.5t238.5 72.5q133 0 211 -60t78 -161q0 -98 -64.5 -187.5t-189.5 -187.5l-153 -121l333 2l-36 -207h-666z" />
    <glyph glyph-name="three.numr" horiz-adv-x="745" 
d="M788 1516l-28 -156l-203 -182q87 -19 135.5 -80.5t48.5 -151.5q0 -161 -117.5 -256.5t-299.5 -95.5q-87 0 -165 23.5t-122 60.5l117 174q60 -51 180 -51q61 0 105 31t44 77q0 86 -110 86q-51 0 -105 -32l-53 131l215 215h-235l36 207h557z" />
    <glyph glyph-name="four.numr" horiz-adv-x="837" 
d="M412 606l26 154h-395l31 172l555 584h196l-96 -545h115l-37 -211h-117l-26 -154h-252zM330 963h151l43 215z" />
    <glyph glyph-name="five.numr" horiz-adv-x="761" 
d="M311 594q-90 0 -164 22t-118 60l96 170q73 -45 184 -45q76 0 134.5 37.5t58.5 91.5q0 34 -21.5 54t-58.5 20t-66 -18t-37 -44l-167 31l157 543h504l-35 -207h-289l-36 -101q12 2 39 2q122 0 196 -64t74 -171q0 -110 -62 -198t-164.5 -135.5t-224.5 -47.5z" />
    <glyph glyph-name="six.numr" horiz-adv-x="768" 
d="M539 1169q102 0 171.5 -63.5t69.5 -165.5q0 -150 -116.5 -248t-282.5 -98q-136 0 -214.5 64.5t-78.5 175.5q0 102 49 193t139 190l279 299h283l-332 -347h33zM418 801q41 0 70.5 33.5t29.5 76.5q0 31 -18 49.5t-49 18.5q-42 0 -70.5 -33t-28.5 -78q0 -31 17.5 -49
t48.5 -18z" />
    <glyph glyph-name="seven.numr" horiz-adv-x="694" 
d="M180 1516h658l-453 -910h-270l356 703h-328z" />
    <glyph glyph-name="eight.numr" horiz-adv-x="788" 
d="M680 1073q92 -61 92 -174q0 -138 -107.5 -221.5t-265.5 -83.5q-144 0 -226.5 66.5t-82.5 177.5q0 86 45 149t125 100q-76 57 -76 154q0 128 102 207.5t251 79.5q130 0 206 -62.5t76 -165.5q0 -153 -139 -227zM512 1321q-33 0 -54.5 -28t-21.5 -60q0 -51 49 -51
q33 0 54.5 26t21.5 58q0 25 -13 40t-36 15zM420 801q44 0 72 32t28 74q0 31 -18.5 49.5t-50.5 18.5q-44 0 -72.5 -32.5t-28.5 -74.5q0 -31 19 -49t51 -18z" />
    <glyph glyph-name="nine.numr" horiz-adv-x="768" 
d="M539 1528q136 0 214 -64.5t78 -175.5q0 -102 -49 -193t-139 -190l-278 -299h-283l332 346h-33q-102 0 -172 64t-70 166q0 150 117 248t283 98zM502 1321q-41 0 -71 -34t-30 -77q0 -31 18.5 -49t49.5 -18q42 0 70 32.5t28 77.5q0 31 -17.5 49.5t-47.5 18.5z" />
    <glyph glyph-name="exclamdown.case" horiz-adv-x="675" 
d="M469 1536q97 0 156 -57.5t59 -149.5q0 -109 -70.5 -183.5t-181.5 -74.5q-96 0 -154.5 57.5t-58.5 149.5q0 109 69.5 183.5t180.5 74.5zM567 963l-133 -963h-424l209 963h348z" />
    <glyph glyph-name="questiondown.case" horiz-adv-x="1189" 
d="M735 1536q97 0 156 -57.5t59 -149.5q0 -109 -70.5 -183.5t-181.5 -74.5q-96 0 -154.5 57.5t-58.5 149.5q0 109 69.5 183.5t180.5 74.5zM487 977l342 -29q-19 -105 -58.5 -182t-80.5 -118.5t-106 -88.5q-125 -91 -125 -158q0 -73 100 -73q49 0 88.5 31t54.5 81l379 -47
q-44 -192 -197 -302.5t-366 -110.5q-227 0 -360 102.5t-133 271.5q0 89 29 156.5t76.5 114t133.5 104.5q52 36 81 57.5t64 54t53.5 66t24.5 70.5z" />
    <glyph glyph-name="slash.case" horiz-adv-x="964" 
d="M-47 0l680 1516h418l-680 -1516h-418z" />
    <glyph glyph-name="braceleft.case" horiz-adv-x="952" 
d="M502 -102q-165 0 -261 84.5t-96 220.5q0 29 7 69l36 197q2 14 2 37q0 78 -108 78h-21l62 348h14q136 0 150 106l30 234q21 163 139 254.5t289 91.5q134 0 277 -31l-57 -327q-33 10 -74 10q-79 0 -123.5 -35.5t-54.5 -118.5l-19 -155q-9 -77 -68 -131t-157 -78
q73 -16 111 -72t38 -125q0 -19 -2 -33l-24 -151q-4 -20 -4 -37q0 -88 94 -88q67 0 115 10l-58 -334q-111 -24 -237 -24z" />
    <glyph glyph-name="braceright.case" horiz-adv-x="950" 
d="M487 1618q165 0 261 -84.5t96 -220.5q0 -35 -6 -70l-37 -196q-2 -14 -2 -37q0 -78 108 -78h21l-62 -348h-14q-64 0 -103.5 -26.5t-46.5 -80.5l-30 -233q-21 -163 -139 -254.5t-289 -91.5q-138 0 -277 30l58 328q33 -10 73 -10q79 0 123.5 35t54.5 118l19 156q9 77 68 131
t157 78q-73 16 -111 72t-38 125q0 18 2 32l24 152q4 20 4 37q0 88 -94 88q-66 0 -114 -10l57 333q116 25 237 25z" />
    <glyph glyph-name="bracketleft.case" horiz-adv-x="911" 
d="M16 -82l297 1679h676l-61 -350h-250l-174 -979h250l-62 -350h-676z" />
    <glyph glyph-name="bracketright.case" horiz-adv-x="913" 
d="M934 1597l-297 -1679h-676l62 350h249l174 979h-249l61 350h676z" />
    <glyph glyph-name="parenleft.case" horiz-adv-x="808" 
d="M266 -82q-184 310 -184 645q0 545 463 1034h389q-190 -218 -314 -515.5t-124 -575.5q0 -173 40 -332.5t93 -255.5h-363z" />
    <glyph glyph-name="parenright.case" horiz-adv-x="808" 
d="M-88 -82q190 219 314 517.5t124 574.5q0 172 -39 330t-90 257h361q182 -310 182 -643q0 -551 -459 -1036h-393z" />
    <glyph glyph-name="logo" horiz-adv-x="2609" 
d="M156 -20q-15 0 -25 10.5t-10 25.5q0 21 10 31l700 698h-663q-47 0 -47 39q0 16 14 33l696 701h-669q-41 0 -41 38v3q0 38 41 38h758q47 0 47 -41q0 -20 -17 -34l-698 -697h676q17 0 29 -12t12 -29v-669l694 692q13 16 35 16q37 0 37 -45v-663l696 692q13 16 33 16
q15 0 25 -12t10 -27q0 -18 -13 -28l-753 -762q-14 -14 -35 -14q-41 0 -41 47v663l-694 -696q-14 -14 -35 -14q-41 0 -41 47v663l-697 -696q-14 -14 -34 -14z" />
    </font>
</defs>
</svg>
