<?xml version="1.0" standalone="no"?>
<!DOCTYPE svg PUBLIC "-//W3C//DTD SVG 1.1//EN" "http://www.w3.org/Graphics/SVG/1.1/DTD/svg11.dtd" >
<svg xmlns="http://www.w3.org/2000/svg" xmlns:xlink="http://www.w3.org/1999/xlink" version="1.1">
<metadata>
Created by FontForge 20170731 at Thu Dec  2 10:15:22 2021
 By Aleksey,,,
Copyright (c) 2016 by Alberto Romanos. All rights reserved.
</metadata>
<defs>
<font id="BwModelicaSS02-Light" horiz-adv-x="1259" >
  <font-face 
    font-family="Bw Modelica SS02 Light"
    font-weight="400"
    font-stretch="normal"
    units-per-em="2048"
    panose-1="0 0 5 0 0 0 0 0 0 0"
    ascent="1597"
    descent="-451"
    x-height="1075"
    cap-height="1516"
    bbox="-1745 -471 2529 2089"
    underline-thickness="102"
    underline-position="-307"
    unicode-range="U+000D-FB02"
  />
<missing-glyph horiz-adv-x="2609" 
d="M186 -20q-15 0 -24.5 10.5t-9.5 25.5q0 21 10 31l700 698h-663q-47 0 -47 39q0 16 14 33l696 701h-669q-41 0 -41 38v3q0 38 41 38h757q47 0 47 -41q0 -21 -16 -34l-698 -697h675q17 0 29 -12t12 -29v-669l695 692q13 16 35 16q36 0 36 -45v-663l697 692q13 16 32 16
q15 0 25 -12t10 -27q0 -18 -12 -28l-754 -762q-14 -14 -34 -14q-41 0 -41 47v663l-695 -696q-14 -14 -35 -14q-18 0 -27.5 8.5t-11 16.5t-1.5 22v663l-697 -696q-14 -14 -35 -14z" />
    <glyph glyph-name="fi" unicode="fi" horiz-adv-x="1204" 
d="M231 1075v522h506v-84h-407v-438h397v-84h-397v-991h-99v991h-190v84h190zM973 1532q32 0 54 -21.5t22 -52.5q0 -32 -22 -54t-54 -22q-31 0 -52.5 22t-21.5 54q0 31 21.5 52.5t52.5 21.5zM926 0v1075h98v-1075h-98z" />
    <glyph glyph-name="fl" unicode="fl" horiz-adv-x="1275" 
d="M231 1075v522h506v-84h-407v-438h397v-84h-397v-991h-99v991h-190v84h190zM1028 84h236v-84h-334v1597h98v-1513z" />
    <glyph glyph-name=".notdef" horiz-adv-x="2609" 
d="M186 -20q-15 0 -24.5 10.5t-9.5 25.5q0 21 10 31l700 698h-663q-47 0 -47 39q0 16 14 33l696 701h-669q-41 0 -41 38v3q0 38 41 38h757q47 0 47 -41q0 -21 -16 -34l-698 -697h675q17 0 29 -12t12 -29v-669l695 692q13 16 35 16q36 0 36 -45v-663l697 692q13 16 32 16
q15 0 25 -12t10 -27q0 -18 -12 -28l-754 -762q-14 -14 -34 -14q-41 0 -41 47v663l-695 -696q-14 -14 -35 -14q-18 0 -27.5 8.5t-11 16.5t-1.5 22v663l-697 -696q-14 -14 -35 -14z" />
    <glyph glyph-name=".null" horiz-adv-x="0" 
 />
    <glyph glyph-name="nonmarkingreturn" horiz-adv-x="682" 
 />
    <glyph glyph-name="CR" unicode="&#xd;" horiz-adv-x="477" 
 />
    <glyph glyph-name="space" unicode=" " horiz-adv-x="557" 
 />
    <glyph glyph-name="exclam" unicode="!" horiz-adv-x="507" 
d="M209 295l-8 1221h106l-8 -1221h-90zM254 -20q-32 0 -53 21t-21 52q0 32 21 53t53 21q31 0 52.5 -21t21.5 -53q0 -31 -21.5 -52t-52.5 -21z" />
    <glyph glyph-name="quotedbl" unicode="&#x22;" horiz-adv-x="638" 
d="M147 1155l-2 442h91l-3 -442h-86zM406 1155l-3 442h91l-2 -442h-86z" />
    <glyph glyph-name="numbersign" unicode="#" horiz-adv-x="1359" 
d="M1268 922h-252l-96 -418h251l-18 -74h-250l-100 -430h-80l100 430h-417l-101 -430h-82l101 430h-250l18 74h248l96 418h-250l19 73h248l102 439h82l-102 -439h417l103 439h80l-103 -439h252zM840 504l96 418h-418l-96 -418h418z" />
    <glyph glyph-name="dollar" unicode="$" horiz-adv-x="1251" 
d="M1143 381q0 -168 -129.5 -276.5t-343.5 -122.5v-166h-103v164q-136 6 -249.5 49t-184.5 123l47 75q147 -149 387 -159v665l-65 21q-66 19 -117 39.5t-102 53t-84 71.5t-53.5 95t-20.5 124q0 167 119.5 274.5t322.5 122.5v166h103v-164q256 -14 413 -174l-53 -76
q-145 149 -360 160v-633h2q76 -23 131.5 -43.5t124 -58t112 -80t73.5 -107.5t30 -143zM559 848l8 -2v600q-152 -13 -241.5 -93t-89.5 -202q0 -54 18 -98.5t46 -74.5t72.5 -55.5t87 -41.5t99.5 -33zM670 70q166 15 263 96t97 207q0 121 -91 196t-269 133v-632z" />
    <glyph glyph-name="percent" unicode="%" horiz-adv-x="1505" 
d="M401 866q-146 0 -234.5 92t-88.5 244q0 151 88.5 242.5t234.5 91.5t234 -91.5t88 -242.5q0 -152 -88 -244t-234 -92zM342 -20l-63 40l888 1516l64 -41zM401 938q105 0 168.5 72t63.5 192q0 118 -64 190t-168 72q-106 0 -169.5 -71.5t-63.5 -190.5q0 -120 63.5 -192
t169.5 -72zM1104 -20q-146 0 -235 91t-89 242q0 152 89 244t235 92t233.5 -92t87.5 -244q0 -151 -87.5 -242t-233.5 -91zM1104 51q104 0 167.5 72t63.5 190q0 120 -63.5 192.5t-167.5 72.5q-106 0 -170 -72.5t-64 -192.5q0 -118 64 -190t170 -72z" />
    <glyph glyph-name="ampersand" unicode="&#x26;" horiz-adv-x="1597" 
d="M1268 66q121 0 225 38v-81q-94 -43 -254 -43q-99 0 -169 51t-95 139q-59 -95 -166.5 -142.5t-239.5 -47.5q-203 0 -328.5 116.5t-125.5 306.5q0 154 90 263t246 149q-121 40 -189.5 132.5t-68.5 217.5q0 167 119.5 269t316.5 102q195 0 313.5 -102.5t118.5 -270.5v-309
h416v-82h-416v-493q0 -95 57.5 -154t149.5 -59zM297 1153q0 -135 91.5 -217t240.5 -82h334v297q0 135 -91.5 217t-242.5 82q-149 0 -240.5 -81.5t-91.5 -215.5zM594 66q72 0 137.5 18.5t117.5 54t83 92t31 127.5v414h-334q-185 0 -297.5 -97t-112.5 -257q0 -158 103 -255
t272 -97z" />
    <glyph glyph-name="quotesingle" unicode="'" horiz-adv-x="380" 
d="M147 1155l-2 442h91l-3 -442h-86z" />
    <glyph glyph-name="parenleft" unicode="(" horiz-adv-x="563" 
d="M416 -369q-40 62 -76 127.5t-79.5 165t-74.5 201t-52 231t-21 258.5t21 258.5t52 231t74.5 201t79.5 165t76 127.5h90q-26 -46 -32 -56.5t-36.5 -67t-43 -85.5t-41 -94.5t-42.5 -113t-35 -121t-31 -138.5t-18 -145.5t-8 -161.5t8 -161.5t18 -145.5t31 -138.5t35 -121
t42.5 -113t41 -94.5t43 -85.5t36.5 -67t32 -56.5h-90z" />
    <glyph glyph-name="parenright" unicode=")" horiz-adv-x="563" 
d="M57 -369q26 46 32 56.5t36.5 67t43 85.5t41 94.5t42.5 113t35 121t31 138.5t18 145.5t8 161.5t-8 161.5t-18 145.5t-31 138.5t-35 121t-42.5 113t-41 94.5t-43 85.5t-36.5 67t-32 56.5h90q52 -80 97.5 -169t96 -216t80.5 -283t30 -315t-30 -315t-80.5 -283t-96 -216
t-97.5 -169h-90z" />
    <glyph glyph-name="asterisk" unicode="*" horiz-adv-x="798" 
d="M674 1286l-219 -65l139 -183l-66 -45l-129 187l-131 -187l-63 45l139 183l-219 65l22 76l218 -76l-7 230h80l-4 -230l215 76z" />
    <glyph glyph-name="plus" unicode="+" horiz-adv-x="1064" 
d="M956 750v-84h-374v-369h-99v369h-374v84h374v370h99v-370h374z" />
    <glyph glyph-name="comma" unicode="," horiz-adv-x="428" 
d="M29 -297l141 426h121l-160 -426h-102z" />
    <glyph glyph-name="hyphen" unicode="-" horiz-adv-x="858" 
d="M152 549v76h555v-76h-555z" />
    <glyph glyph-name="period" unicode="." horiz-adv-x="430" 
d="M215 -20q-34 0 -59 24.5t-25 58.5q0 35 25 59.5t59 24.5t59 -24.5t25 -59.5q0 -34 -25 -58.5t-59 -24.5z" />
    <glyph glyph-name="slash" unicode="/" horiz-adv-x="776" 
d="M92 -205l490 1802h100l-489 -1802h-101z" />
    <glyph glyph-name="zero" unicode="0" horiz-adv-x="1257" 
d="M629 -20q-233 0 -376.5 214t-143.5 564t143.5 564t376.5 214q155 0 273 -96.5t182.5 -273.5t64.5 -408t-64.5 -408t-182.5 -273.5t-273 -96.5zM629 68q123 0 216 86t143 242.5t50 361.5t-50 361.5t-143 242.5t-216 86q-186 0 -298 -189.5t-112 -500.5t112 -500.5
t298 -189.5z" />
    <glyph glyph-name="one" unicode="1" horiz-adv-x="653" 
d="M332 0v1427h-293v89h397v-1516h-104z" />
    <glyph glyph-name="two" unicode="2" horiz-adv-x="1132" 
d="M98 0v70l455 489q7 8 52 55.5t60 64t55 63.5t57 73t45.5 72.5t41 81.5t23 80t10.5 88q0 144 -92 227.5t-244 83.5q-155 0 -248.5 -90t-93.5 -238l-108 8q0 183 123.5 295.5t324.5 112.5t323 -105.5t122 -283.5q0 -52 -12 -105.5t-29 -97.5t-49.5 -96.5t-57.5 -88t-70 -88
t-71 -80t-76 -80.5q-12 -13 -18 -19l-379 -404h784v-88h-928z" />
    <glyph glyph-name="three" unicode="3" horiz-adv-x="1140" 
d="M553 856q218 0 350.5 -118t132.5 -310q0 -203 -140.5 -325.5t-373.5 -122.5q-142 0 -254.5 45t-175.5 133l43 78q122 -168 375 -168q187 0 300.5 98.5t113.5 261.5q0 155 -111.5 249.5t-294.5 94.5q-140 0 -246 -53l-26 55l602 653h-705v89h848v-68l-563 -602
q65 10 125 10z" />
    <glyph glyph-name="four" unicode="4" horiz-adv-x="1222" 
d="M815 0v342h-768v82l784 1092h91v-1086h235v-88h-235v-342h-107zM166 428h653v911z" />
    <glyph glyph-name="five" unicode="5" horiz-adv-x="1148" 
d="M514 -20q-284 0 -430 143l33 82q137 -137 389 -137q192 0 310 103.5t118 270.5q0 164 -104 264.5t-273 100.5q-154 0 -305 -53l-74 10l105 752h694v-89h-600l-86 -571q140 41 284 41q211 0 340 -123.5t129 -324.5q0 -210 -146.5 -339.5t-383.5 -129.5z" />
    <glyph glyph-name="six" unicode="6" horiz-adv-x="1130" 
d="M592 911q204 0 331.5 -127t127.5 -335q0 -212 -131 -340.5t-347 -128.5q-215 0 -346 127.5t-131 336.5q0 181 101 322l499 750h121l-444 -652q92 47 219 47zM573 68q164 0 265.5 104t101.5 274q0 171 -101 276t-266 105q-164 0 -265 -104.5t-101 -276.5q0 -170 101 -274
t265 -104z" />
    <glyph glyph-name="seven" unicode="7" horiz-adv-x="1017" 
d="M43 1516h936l-553 -1516h-115l529 1427h-797v89z" />
    <glyph glyph-name="eight" unicode="8" horiz-adv-x="1202" 
d="M782 786q138 -42 217.5 -144t79.5 -245q0 -187 -131.5 -302t-345.5 -115q-216 0 -347.5 114t-131.5 301q0 143 80 246t219 145q-121 40 -189.5 134.5t-68.5 222.5q0 177 120.5 285t317.5 108q196 0 316 -107.5t120 -283.5q0 -128 -68.5 -222.5t-187.5 -136.5zM274 1137
q0 -138 90 -223t236 -85q147 0 236.5 85t89.5 223q0 140 -89.5 225.5t-236.5 85.5q-146 0 -236 -85.5t-90 -225.5zM600 68q166 0 266.5 91.5t100.5 243.5q0 151 -101 243.5t-266 92.5q-164 0 -265.5 -92.5t-101.5 -243.5q0 -152 101 -243.5t266 -91.5z" />
    <glyph glyph-name="nine" unicode="9" horiz-adv-x="1130" 
d="M557 1536q215 0 346 -128t131 -337q0 -182 -100 -321l-500 -750h-121l445 651q-92 -47 -219 -47q-204 0 -331.5 127.5t-127.5 335.5q0 212 131 340.5t346 128.5zM190 1069q0 -171 101 -276t266 -105t266 105t101 276q0 170 -101.5 274.5t-265.5 104.5t-265.5 -104.5
t-101.5 -274.5z" />
    <glyph glyph-name="colon" unicode=":" horiz-adv-x="468" 
d="M236 926q-35 0 -59.5 25.5t-24.5 60.5q0 34 24.5 59t59.5 25q34 0 58.5 -25t24.5 -59q0 -35 -24.5 -60.5t-58.5 -25.5zM236 -20q-35 0 -59.5 24.5t-24.5 58.5q0 35 24.5 59.5t59.5 24.5q34 0 58.5 -24.5t24.5 -59.5q0 -34 -24.5 -58.5t-58.5 -24.5z" />
    <glyph glyph-name="semicolon" unicode=";" horiz-adv-x="577" 
d="M297 926q-34 0 -59 25.5t-25 60.5q0 34 25 59t59 25t59 -25t25 -59q0 -35 -25 -60.5t-59 -25.5zM125 -297l141 426h121l-160 -426h-102z" />
    <glyph glyph-name="less" unicode="&#x3c;" horiz-adv-x="1042" 
d="M893 1171v-96l-692 -358l692 -359v-96l-815 426v57z" />
    <glyph glyph-name="equal" unicode="=" horiz-adv-x="1165" 
d="M158 907v84h850v-84h-850zM158 426v82h850v-82h-850z" />
    <glyph glyph-name="greater" unicode="&#x3e;" horiz-adv-x="1042" 
d="M150 1171l815 -426v-57l-815 -426v96l692 359l-692 358v96z" />
    <glyph glyph-name="question" unicode="?" horiz-adv-x="1042" 
d="M455 295q0 109 16 198.5t37 145.5t59.5 108t65.5 77.5t72 62.5q38 31 58 51t44 52t34.5 70t10.5 87q0 135 -93.5 218t-246.5 83q-147 0 -240.5 -83t-99.5 -218l-100 4q6 173 127 279t313 106q203 0 327 -105t124 -276q0 -62 -13 -110.5t-43 -89t-53.5 -64t-69.5 -62.5
q-34 -29 -50.5 -44t-47 -46.5t-46.5 -57t-37.5 -68t-32.5 -86t-19 -103.5t-8 -129h-88zM500 -20q-32 0 -54 21t-22 52q0 32 22 53t54 21q31 0 52 -21t21 -53q0 -31 -21 -52t-52 -21z" />
    <glyph glyph-name="at" unicode="@" horiz-adv-x="2146" 
d="M1378 963h95v-576q0 -97 47.5 -155t130.5 -58q121 0 196.5 129.5t75.5 339.5q0 241 -105.5 426.5t-294.5 286t-433 100.5q-262 0 -461 -116t-306.5 -327t-107.5 -487q0 -273 105.5 -479t304.5 -319t465 -113q121 0 276.5 21t273.5 57l35 -76q-124 -40 -286.5 -64
t-296.5 -24q-299 0 -521.5 124.5t-340 350t-117.5 524.5q0 226 69.5 414.5t196 320t309 204.5t402.5 73q274 0 486 -110t329.5 -312.5t117.5 -466.5q0 -252 -102.5 -407.5t-269.5 -155.5q-103 0 -172 61.5t-88 165.5q-45 -106 -138 -168.5t-227 -62.5q-190 0 -305 122.5
t-115 323.5q0 202 115 325.5t303 123.5q126 0 215.5 -57.5t134.5 -159.5zM1042 168q150 0 241 100t91 262q0 163 -91 263t-241 100t-241.5 -100t-91.5 -263t91 -262.5t242 -99.5z" />
    <glyph glyph-name="A" unicode="A" horiz-adv-x="1464" 
d="M1341 0l-188 432h-840l-190 -432h-113l672 1516h100l672 -1516h-113zM350 520h764l-381 871z" />
    <glyph glyph-name="B" unicode="B" horiz-adv-x="1380" 
d="M934 791q155 -31 244.5 -131.5t89.5 -245.5q0 -186 -130 -300t-343 -114h-578v1516h531q205 0 329.5 -104t124.5 -275q0 -127 -70.5 -216.5t-197.5 -129.5zM324 1427v-604h405q163 0 263 83t100 218q0 136 -103 219.5t-270 83.5h-395zM778 88q170 0 274.5 89t104.5 235
q0 144 -104 232.5t-273 88.5h-456v-645h454z" />
    <glyph glyph-name="C" unicode="C" horiz-adv-x="1390" 
d="M858 -20q-334 0 -538.5 214t-204.5 564t204.5 564t538.5 214q252 0 434 -137v-105q-175 154 -432 154q-286 0 -460.5 -190t-174.5 -500t174.5 -500t460.5 -190q258 0 432 153v-104q-182 -137 -434 -137z" />
    <glyph glyph-name="D" unicode="D" horiz-adv-x="1546" 
d="M700 1516q162 0 298.5 -55t232 -154t148.5 -241.5t53 -311.5q0 -339 -201.5 -546.5t-530.5 -207.5h-483v1516h483zM684 88q287 0 462 183t175 483q0 303 -175 488t-462 185h-360v-1339h360z" />
    <glyph glyph-name="E" unicode="E" 
d="M324 88h811v-88h-918v1516h899v-89h-792v-608h745v-90h-745v-641z" />
    <glyph glyph-name="F" unicode="F" horiz-adv-x="1112" 
d="M1036 1427h-712v-649h643v-90h-643v-688h-107v1516h819v-89z" />
    <glyph glyph-name="G" unicode="G" horiz-adv-x="1619" 
d="M1546 786v-28q0 -358 -189.5 -568t-512.5 -210q-327 0 -527 214t-200 564t200 564t527 214q150 0 267 -34.5t228 -117.5l-69 -69q-171 133 -424 133q-278 0 -448.5 -190t-170.5 -500t170.5 -500t448.5 -190q263 0 422 171t168 457h-516v90h626z" />
    <glyph glyph-name="H" unicode="H" horiz-adv-x="1630" 
d="M1307 1516h104v-1516h-104v725h-983v-725h-107v1516h107v-703h983v703z" />
    <glyph glyph-name="I" unicode="I" horiz-adv-x="540" 
d="M217 0v1516h107v-1516h-107z" />
    <glyph glyph-name="J" unicode="J" horiz-adv-x="821" 
d="M289 -20q-80 0 -151.5 27t-114.5 77l28 72q43 -43 102.5 -65.5t120.5 -22.5q109 0 172.5 65t63.5 172v1211h106v-1233q0 -138 -87.5 -220.5t-239.5 -82.5z" />
    <glyph glyph-name="K" unicode="K" horiz-adv-x="1366" 
d="M1214 0l-563 733h-327v-733h-107v1516h107v-695h329l543 695h131l-582 -740l601 -776h-132z" />
    <glyph glyph-name="L" unicode="L" horiz-adv-x="1085" 
d="M324 88h733v-88h-840v1516h107v-1428z" />
    <glyph glyph-name="M" unicode="M" horiz-adv-x="2013" 
d="M1837 0h-104l-72 1325l-619 -1325h-71l-619 1325l-69 -1325h-107l88 1532h105l639 -1370l639 1370h104z" />
    <glyph glyph-name="N" unicode="N" horiz-adv-x="1697" 
d="M217 0v1516h70l1089 -1330v1330h105v-1516h-70l-1089 1329l2 -1329h-107z" />
    <glyph glyph-name="O" unicode="O" horiz-adv-x="1714" 
d="M858 -20q-334 0 -538.5 214t-204.5 564t204.5 564t538.5 214q333 0 537 -214t204 -564t-204 -564t-537 -214zM858 68q284 0 457.5 189.5t173.5 500.5t-173.5 500.5t-457.5 189.5t-458.5 -190t-174.5 -500t174.5 -500t458.5 -190z" />
    <glyph glyph-name="P" unicode="P" horiz-adv-x="1300" 
d="M745 1516q217 0 349.5 -124t132.5 -327q0 -207 -131 -333t-348 -126h-424v-606h-107v1516h528zM727 694q176 0 282.5 101t106.5 266q0 164 -107 265t-282 101h-403v-733h403z" />
    <glyph glyph-name="Q" unicode="Q" horiz-adv-x="1716" 
d="M1632 0h-131l-153 147q-197 -167 -490 -167q-334 0 -538.5 214t-204.5 564t204.5 564t538.5 214q333 0 537 -214t204 -564q0 -337 -188 -547zM858 68q249 0 418 149l-295 285h127l229 -219q152 188 152 475q0 311 -173.5 500.5t-457.5 189.5t-458.5 -190t-174.5 -500
t174.5 -500t458.5 -190z" />
    <glyph glyph-name="R" unicode="R" horiz-adv-x="1404" 
d="M1348 0h-125l-426 643q-16 -2 -49 -2h-424v-641h-107v1516h531q226 0 362.5 -120.5t136.5 -318.5q0 -158 -91.5 -269t-250.5 -149zM739 729q178 0 288 96.5t110 251.5q0 158 -111 254t-293 96h-409v-698h415z" />
    <glyph glyph-name="S" unicode="S" horiz-adv-x="1251" 
d="M610 -20q-148 0 -274.5 43t-202.5 129l47 75q156 -159 420 -159q195 0 312.5 83.5t117.5 221.5q0 55 -21 101.5t-55.5 81t-90.5 65.5t-115.5 53.5t-139.5 46.5l-106 33q-66 19 -117 39.5t-102 53t-84 71.5t-53.5 95t-20.5 124q0 180 137.5 289.5t364.5 109.5
q287 0 456 -174l-53 -76q-159 162 -407 162q-174 0 -280.5 -82t-106.5 -215q0 -54 18 -98.5t46 -74.5t72.5 -55.5t87 -41.5t99.5 -33l113 -35q76 -23 131.5 -43.5t124 -58t112 -80t73.5 -107.5t30 -143q0 -180 -147.5 -290.5t-385.5 -110.5z" />
    <glyph glyph-name="T" unicode="T" horiz-adv-x="1155" 
d="M1128 1516v-89h-499v-1427h-105v1427h-497v89h1101z" />
    <glyph glyph-name="U" unicode="U" horiz-adv-x="1609" 
d="M805 -20q-274 0 -440 150t-166 398v988h104v-984q0 -209 138 -336.5t364 -127.5t364 127.5t138 336.5v984h106v-988q0 -247 -167 -397.5t-441 -150.5z" />
    <glyph glyph-name="V" unicode="V" horiz-adv-x="1466" 
d="M684 0l-672 1516h113l610 -1393l606 1393h115l-672 -1516h-100z" />
    <glyph glyph-name="W" unicode="W" horiz-adv-x="2236" 
d="M2099 1516h113l-549 -1516h-100l-445 1360l-444 -1360h-103l-548 1516h114l490 -1375l440 1375h102l443 -1375z" />
    <glyph glyph-name="X" unicode="X" horiz-adv-x="1280" 
d="M1266 0h-123l-502 702l-504 -702h-121l562 780l-512 736h122l453 -654l453 654h120l-512 -736z" />
    <glyph glyph-name="Y" unicode="Y" horiz-adv-x="1316" 
d="M1161 1516h119l-569 -881v-635h-105v635l-569 881h119l503 -785z" />
    <glyph glyph-name="Z" unicode="Z" horiz-adv-x="1153" 
d="M229 88h861v-88h-1027l848 1427h-835v89h1001z" />
    <glyph glyph-name="bracketleft" unicode="[" horiz-adv-x="700" 
d="M205 -369v1966h442v-86h-342v-1794h342v-86h-442z" />
    <glyph glyph-name="backslash" unicode="\" horiz-adv-x="776" 
d="M582 -205l-490 1802h101l489 -1802h-100z" />
    <glyph glyph-name="bracketright" unicode="]" horiz-adv-x="700" 
d="M496 -369h-443v86h342v1794h-342v86h443v-1966z" />
    <glyph glyph-name="asciicircum" unicode="^" horiz-adv-x="935" 
d="M823 674h-102l-252 502l-254 -502h-102l303 606h104z" />
    <glyph glyph-name="underscore" unicode="_" horiz-adv-x="1026" 
d="M51 -76v76h924v-76h-924z" />
    <glyph glyph-name="grave" unicode="`" horiz-adv-x="1228" 
d="M305 1270l-299 297h129l262 -297h-92z" />
    <glyph glyph-name="a" unicode="a" horiz-adv-x="1130" 
d="M152 1075h802v-1075h-96l-2 238v22q-55 -131 -171 -205.5t-257 -74.5q-156 0 -251 83.5t-95 221.5q0 145 118.5 233t313.5 88q180 0 342 -43v430h-704v82zM453 55q72 0 142.5 29.5t129 82.5t95 137.5t36.5 184.5q-154 43 -330 43q-154 0 -248 -67.5t-94 -177.5
q0 -105 73.5 -168.5t195.5 -63.5z" />
    <glyph glyph-name="b" unicode="b" horiz-adv-x="1351" 
d="M731 1096q229 0 372.5 -155t143.5 -406q0 -248 -143.5 -401.5t-372.5 -153.5q-172 0 -287 76.5t-170 211.5v-14l-2 -254h-96v1597h98v-792q55 136 170 213.5t287 77.5zM709 66q197 0 316.5 128.5t119.5 340.5q0 214 -120 344.5t-316 130.5q-195 0 -315 -130.5
t-120 -342.5t120 -341.5t315 -129.5z" />
    <glyph glyph-name="c" unicode="c" horiz-adv-x="980" 
d="M629 -20q-236 0 -380.5 153t-144.5 404q0 252 144.5 405.5t380.5 153.5q138 0 252 -86v-99q-104 99 -250 99q-191 0 -306.5 -129.5t-115.5 -343.5q0 -212 116 -341.5t306 -129.5q149 0 252 98v-96q-112 -88 -254 -88z" />
    <glyph glyph-name="d" unicode="d" horiz-adv-x="1351" 
d="M1077 1597h99v-1597h-97l-2 254v14q-55 -135 -169.5 -211.5t-286.5 -76.5q-230 0 -373.5 153.5t-143.5 401.5q0 251 143.5 406t373.5 155q172 0 286.5 -77.5t169.5 -213.5v792zM643 66q195 0 314.5 129.5t119.5 341.5t-119.5 342.5t-314.5 130.5q-196 0 -315 -130.5
t-119 -344.5q0 -212 119 -340.5t315 -128.5z" />
    <glyph glyph-name="e" unicode="e" horiz-adv-x="1193" 
d="M1100 551v-51h-887q9 -200 114.5 -320.5t278.5 -120.5q115 0 213 54.5t170 150.5l74 -47q-81 -116 -198.5 -176.5t-256.5 -60.5q-226 0 -364 154.5t-138 406.5q0 250 137 402.5t361 152.5q223 0 359.5 -150t136.5 -395zM604 1014q-174 0 -279.5 -119.5t-113.5 -321.5h786
q-8 201 -114 321t-279 120z" />
    <glyph glyph-name="f" unicode="f" horiz-adv-x="745" 
d="M737 1513h-407v-438h397v-84h-397v-991h-99v991h-190v84h190v522h506v-84z" />
    <glyph glyph-name="g" unicode="g" horiz-adv-x="1351" 
d="M1081 1075h97v-1526h-1031v84h932v637q-55 -136 -169.5 -213t-286.5 -77q-230 0 -373.5 154.5t-143.5 406.5q0 248 143.5 401.5t373.5 153.5q172 0 286.5 -77.5t169.5 -213.5v16zM645 66q195 0 314.5 129.5t119.5 341.5q0 213 -119.5 343t-314.5 130q-196 0 -315 -129.5
t-119 -341.5q0 -214 119 -343.5t315 -129.5z" />
    <glyph glyph-name="h" unicode="h" horiz-adv-x="1288" 
d="M680 1096q200 0 323 -114.5t123 -303.5v-678h-98v655q0 160 -104 257.5t-273 97.5t-273 -97.5t-104 -257.5v-655h-98v1597h98v-729q49 108 151.5 168t254.5 60z" />
    <glyph glyph-name="i" unicode="i" horiz-adv-x="458" 
d="M227 1382q-31 0 -52 22t-21 54q0 31 21 52.5t52 21.5q32 0 54 -21.5t22 -52.5q0 -32 -22 -54t-54 -22zM180 0v1075h99v-1075h-99z" />
    <glyph glyph-name="j" unicode="j" horiz-adv-x="458" 
d="M227 1382q-31 0 -52 22t-21 54q0 31 21 52.5t52 21.5q32 0 53 -21.5t21 -52.5q0 -32 -21 -54t-53 -22zM180 -451v1526h99v-1526h-99z" />
    <glyph glyph-name="k" unicode="k" horiz-adv-x="1138" 
d="M999 0l-456 522h-269v-522h-98v1597h98v-991h269l432 469h127l-477 -512l501 -563h-127z" />
    <glyph glyph-name="l" unicode="l" horiz-adv-x="530" 
d="M184 0v1597h99v-1513h235v-84h-334z" />
    <glyph glyph-name="m" unicode="m" horiz-adv-x="1984" 
d="M1401 1096q189 0 304.5 -114.5t115.5 -303.5v-678h-99v655q0 160 -92.5 257.5t-243.5 97.5q-152 0 -244.5 -97.5t-92.5 -257.5v-655h-99v655q0 160 -93 257.5t-245 97.5t-245 -97.5t-93 -257.5v-655h-98v1075h96l2 -198q46 104 138.5 161.5t228.5 57.5q135 0 234.5 -66.5
t144.5 -181.5q45 115 141.5 181.5t239.5 66.5z" />
    <glyph glyph-name="n" unicode="n" horiz-adv-x="1288" 
d="M680 1096q200 0 323 -114.5t123 -303.5v-678h-98v655q0 160 -104 257.5t-273 97.5t-273 -97.5t-104 -257.5v-655h-98v1075h96l2 -209q49 109 151 169.5t255 60.5z" />
    <glyph glyph-name="o" unicode="o" horiz-adv-x="1284" 
d="M643 -20q-243 0 -391 153t-148 404q0 252 148 405.5t391 153.5q242 0 389.5 -153.5t147.5 -405.5q0 -250 -147.5 -403.5t-389.5 -153.5zM643 66q195 0 314.5 129.5t119.5 341.5q0 213 -119.5 343t-314.5 130q-196 0 -315 -129.5t-119 -343.5q0 -212 119 -341.5
t315 -129.5z" />
    <glyph glyph-name="p" unicode="p" horiz-adv-x="1351" 
d="M731 1096q229 0 372.5 -153.5t143.5 -401.5q0 -252 -143 -406.5t-373 -154.5q-172 0 -287 77t-170 213v-721h-98v1526h96l2 -254v-16q55 136 170 213.5t287 77.5zM709 66q197 0 316.5 129.5t119.5 343.5q0 212 -120 341.5t-316 129.5q-195 0 -315 -130t-120 -343
q0 -212 120 -341.5t315 -129.5z" />
    <glyph glyph-name="q" unicode="q" horiz-adv-x="1351" 
d="M1079 1075h97v-1526h-99v721q-55 -136 -169.5 -213t-286.5 -77q-230 0 -373.5 154.5t-143.5 406.5q0 248 143.5 401.5t373.5 153.5q172 0 286.5 -77.5t169.5 -213.5v16zM643 66q195 0 314.5 129.5t119.5 341.5q0 213 -119.5 343t-314.5 130q-196 0 -315 -129.5
t-119 -341.5q0 -214 119 -343.5t315 -129.5z" />
    <glyph glyph-name="r" unicode="r" horiz-adv-x="729" 
d="M274 868q102 228 439 228l-8 -90q-205 0 -318 -98t-113 -267v-641h-98v1075h96z" />
    <glyph glyph-name="s" unicode="s" horiz-adv-x="958" 
d="M467 -20q-240 0 -354 108l45 64q118 -93 309 -93q129 0 208 59t79 154q0 151 -242 220l-125 36q-137 39 -207.5 100t-70.5 173q0 132 99.5 213.5t260.5 81.5q203 0 352 -92l-45 -72q-125 82 -299 82q-119 0 -192.5 -54.5t-73.5 -146.5q0 -80 55.5 -125.5t159.5 -75.5
l127 -37q50 -15 91 -31.5t81.5 -42.5t68.5 -56.5t45 -73t17 -92.5q0 -135 -105 -217t-284 -82z" />
    <glyph glyph-name="t" unicode="t" horiz-adv-x="677" 
d="M690 1075v-84h-282v-991h-99v991h-284v84h284v316h99v-316h282z" />
    <glyph glyph-name="u" unicode="u" horiz-adv-x="1251" 
d="M627 -20q-210 0 -337.5 115.5t-127.5 307.5v672h98v-655q0 -160 100.5 -257t266.5 -97q164 0 264 97t100 257v655h99v-672q0 -191 -127.5 -307t-335.5 -116z" />
    <glyph glyph-name="v" unicode="v" horiz-adv-x="1136" 
d="M518 0l-489 1075h110l430 -960l430 960h109l-490 -1075h-100z" />
    <glyph glyph-name="w" unicode="w" horiz-adv-x="1863" 
d="M1720 1075h111l-428 -1075h-100l-371 958l-371 -958h-100l-428 1075h110l373 -960l371 960h90l371 -960z" />
    <glyph glyph-name="x" unicode="x" horiz-adv-x="1085" 
d="M1053 0h-123l-387 485l-387 -485h-123l448 551l-424 524h121l365 -459l364 459h121l-424 -524z" />
    <glyph glyph-name="y" unicode="y" horiz-adv-x="1265" 
d="M991 1075h99v-1526h-916v84h817v570q-47 -106 -146.5 -164.5t-246.5 -58.5q-195 0 -314.5 114.5t-119.5 300.5v680h98v-655q0 -160 100.5 -257t264.5 -97t264 97t100 257v655z" />
    <glyph glyph-name="z" unicode="z" horiz-adv-x="993" 
d="M70 0l682 991h-674v84h835l-682 -991h693v-84h-854z" />
    <glyph glyph-name="braceleft" unicode="{" horiz-adv-x="778" 
d="M526 -389q-120 0 -192 77.5t-72 205.5v413q0 118 -49 190t-127 72h-18v90h18q78 0 127 72.5t49 190.5v413q0 128 72 205.5t192 77.5q99 0 197 -25v-86q-97 23 -176 23q-80 0 -130 -60t-50 -157v-402q0 -114 -42.5 -195.5t-111.5 -101.5q69 -20 111.5 -101.5t42.5 -195.5
v-401q0 -97 50 -157t130 -60q83 0 176 22v-86q-95 -24 -197 -24z" />
    <glyph glyph-name="bar" unicode="|" horiz-adv-x="518" 
d="M207 -451v2048h104v-2048h-104z" />
    <glyph glyph-name="braceright" unicode="}" horiz-adv-x="778" 
d="M252 -389q-104 0 -195 24v86q90 -22 174 -22q82 0 131.5 60t49.5 157v401q0 114 42 195.5t111 101.5q-69 20 -111 101.5t-42 195.5v402q0 97 -49.5 157t-131.5 60q-80 0 -174 -23v86q95 25 195 25q120 0 192 -77.5t72 -205.5v-413q0 -118 49 -190.5t127 -72.5h19v-90h-19
q-78 0 -127 -72t-49 -190v-413q0 -128 -72 -205.5t-192 -77.5z" />
    <glyph glyph-name="asciitilde" unicode="~" horiz-adv-x="1161" 
d="M770 487q-45 0 -88 16.5t-77.5 39.5t-67.5 46t-71 39.5t-75 16.5q-68 0 -115 -38t-47 -99h-67q0 98 65.5 159.5t165.5 61.5q45 0 88.5 -16.5t78 -40t67.5 -47t70.5 -40t74.5 -16.5q69 0 116.5 38.5t47.5 101.5h68q0 -100 -66.5 -161t-167.5 -61z" />
    <glyph glyph-name="uni00A0" unicode="&#xa0;" horiz-adv-x="557" 
 />
    <glyph glyph-name="exclamdown" unicode="&#xa1;" horiz-adv-x="475" 
d="M238 946q-31 0 -52.5 22t-21.5 54q0 31 21.5 52.5t52.5 21.5q32 0 52.5 -21.5t20.5 -52.5q0 -33 -20.5 -54.5t-52.5 -21.5zM184 -451l9 1231h90l8 -1231h-107z" />
    <glyph glyph-name="cent" unicode="&#xa2;" horiz-adv-x="1142" 
d="M1018 223q-124 -124 -326 -139v-166h-94v166q-223 12 -358.5 164t-135.5 393q0 238 135 389t359 166v166h94v-166q170 -12 295 -113l-59 -69q-107 85 -236 96v-940q161 13 269 121zM209 639q0 -198 106 -325t283 -144v940q-177 -15 -283 -142.5t-106 -328.5z" />
    <glyph glyph-name="sterling" unicode="&#xa3;" horiz-adv-x="1175" 
d="M344 86h703v-86h-934v86h127v576h-107v86h107v411q0 170 109 273.5t288 103.5q180 0 289.5 -104.5t109.5 -274.5l-104 -8q0 134 -81.5 216.5t-213.5 82.5q-131 0 -212 -83t-81 -218v-399h629v-86h-629v-576z" />
    <glyph glyph-name="currency" unicode="&#xa4;" horiz-adv-x="1222" 
d="M1061 705q0 -157 -103 -285l111 -111l-61 -63l-111 112q-124 -100 -285 -100q-159 0 -284 98l-111 -110l-63 61l112 113q-104 120 -104 285q0 158 102 284l-110 111l63 61l111 -110q125 98 284 98q161 0 285 -100l111 112l61 -63l-111 -111q103 -124 103 -282zM612 336
q149 0 255 108.5t106 260.5q0 151 -106 258.5t-255 107.5q-150 0 -256 -107.5t-106 -258.5q0 -153 106 -261t256 -108z" />
    <glyph glyph-name="yen" unicode="&#xa5;" horiz-adv-x="1368" 
d="M1307 1516l-539 -834h330v-74h-361v-131h361v-74h-361v-403h-104v403h-365v74h365v131h-365v74h334l-539 834h119l504 -785l502 785h119z" />
    <glyph glyph-name="brokenbar" unicode="&#xa6;" horiz-adv-x="509" 
d="M203 778v819h104v-819h-104zM203 -451v820h104v-820h-104z" />
    <glyph glyph-name="section" unicode="&#xa7;" horiz-adv-x="1175" 
d="M948 193q111 -103 111 -263q0 -180 -134 -290.5t-354 -110.5q-135 0 -250 43t-186 129l45 76q144 -160 383 -160q174 0 279.5 83t105.5 220q0 69 -27 123.5t-81 95.5t-116.5 70t-152.5 59l-98 33q-77 26 -133 54.5t-107.5 72.5t-78.5 109t-27 149q0 164 111 275
q-111 93 -111 258q0 180 126.5 289.5t332.5 109.5q265 0 418 -174l-52 -76q-144 162 -368 162q-156 0 -251 -82t-95 -215q0 -67 22.5 -117.5t67.5 -85.5t90 -56.5t112 -43.5l101 -35q49 -17 85 -30.5t83.5 -36.5t81.5 -46t69.5 -56.5t58 -70.5t36.5 -86.5t14 -105.5
q0 -159 -111 -270zM530 391l101 -33q154 -52 239 -106q82 82 82 203q0 56 -19 102.5t-51 82t-82 66.5t-103.5 54t-125.5 47l-98 31q-100 33 -158 67q-82 -85 -82 -205q0 -55 16.5 -99.5t41.5 -74.5t67 -56.5t79.5 -43t92.5 -35.5z" />
    <glyph glyph-name="dieresis" unicode="&#xa8;" horiz-adv-x="1228" 
d="M223 1382q-32 0 -54 22t-22 54q0 31 22 52.5t54 21.5q31 0 52.5 -21.5t21.5 -52.5q0 -32 -21.5 -54t-52.5 -22zM606 1382q-31 0 -52.5 22t-21.5 54q0 31 21.5 52.5t52.5 21.5q32 0 53 -21.5t21 -52.5q0 -32 -21 -54t-53 -22z" />
    <glyph glyph-name="copyright" unicode="&#xa9;" horiz-adv-x="1738" 
d="M870 -20q-225 0 -396 96.5t-264 273.5t-93 408t93 408t264 273.5t396 96.5q339 0 545.5 -213.5t206.5 -564.5t-206.5 -564.5t-545.5 -213.5zM870 41q304 0 489 197t185 520t-185 520t-489 197q-305 0 -490 -197t-185 -520t185 -520t490 -197zM881 324q-188 0 -304 117.5
t-116 310.5q0 192 115.5 310t304.5 118q188 0 313 -138l-49 -51q-107 119 -260 119q-152 0 -245 -97.5t-93 -258.5q0 -164 92.5 -263.5t243.5 -99.5q90 0 161.5 39t118.5 107l56 -52q-57 -77 -143.5 -119t-194.5 -42z" />
    <glyph glyph-name="ordfeminine" unicode="&#xaa;" horiz-adv-x="804" 
d="M391 1536q117 0 187.5 -69t70.5 -183v-407h-74v151q-33 -77 -100 -120.5t-149 -43.5q-95 0 -153 51t-58 136q0 88 71.5 141t190.5 53q103 0 198 -24v51q0 93 -54.5 148t-145.5 55q-112 0 -185 -76l-34 47q90 90 235 90zM346 920q89 0 159 67.5t70 179.5q-97 23 -188 23
q-88 0 -141 -37.5t-53 -101.5q0 -60 41.5 -95.5t111.5 -35.5z" />
    <glyph glyph-name="guillemotleft" unicode="&#xab;" horiz-adv-x="1107" 
d="M559 1008l-350 -455l350 -455h-104l-359 455l359 455h104zM1001 1008l-350 -455l350 -455h-106l-356 455l356 455h106z" />
    <glyph glyph-name="logicalnot" unicode="&#xac;" horiz-adv-x="1175" 
d="M1016 854v-385h-98v301h-752v84h850z" />
    <glyph glyph-name="uni00AD" unicode="&#xad;" horiz-adv-x="858" 
d="M152 549v76h555v-76h-555z" />
    <glyph glyph-name="registered" unicode="&#xae;" horiz-adv-x="856" 
d="M428 1618q138 0 222.5 -86t84.5 -227q0 -140 -84.5 -226t-222.5 -86t-222.5 86t-84.5 226q0 141 84.5 227t222.5 86zM428 1024q120 0 194 77.5t74 203.5t-74 204t-194 78q-121 0 -193.5 -77.5t-72.5 -204.5t72.5 -204t193.5 -77zM553 1368q0 -33 -18.5 -57t-51.5 -33
l95 -141h-54l-86 133h-4h-78v-133h-47v333h131q51 0 82 -28t31 -74zM356 1436v-129h76q33 0 53.5 17t20.5 44q0 31 -20 49.5t-52 18.5h-78z" />
    <glyph glyph-name="macron" unicode="&#xaf;" horiz-adv-x="1228" 
d="M145 1341v82h600v-82h-600z" />
    <glyph glyph-name="degree" unicode="&#xb0;" horiz-adv-x="722" 
d="M360 1141q-114 0 -182.5 65t-68.5 174q0 107 68.5 172.5t182.5 65.5q115 0 184.5 -65.5t69.5 -172.5q0 -109 -69 -174t-185 -65zM360 1202q79 0 128 49t49 129q0 78 -49 127t-128 49q-78 0 -126 -49t-48 -127q0 -80 48 -129t126 -49z" />
    <glyph glyph-name="plusminus" unicode="&#xb1;" horiz-adv-x="1173" 
d="M635 877h360v-84h-360v-369h-96v369h-361v84h361v368h96v-368zM178 186v86h817v-86h-817z" />
    <glyph glyph-name="uni00B2" unicode="&#xb2;" horiz-adv-x="712" 
d="M70 811v53l274 293q4 4 29.5 31.5t34 37t32 37t33.5 42.5t26.5 42t24 47.5t13.5 46t6 50.5q0 81 -51.5 127.5t-137.5 46.5q-89 0 -141.5 -50.5t-52.5 -135.5l-80 6q0 112 74.5 180t197.5 68q122 0 196.5 -64.5t74.5 -171.5q0 -44 -15 -89.5t-32 -78t-55 -80t-58.5 -69.5
t-67.5 -72l-219 -231l459 2v-68h-565z" />
    <glyph glyph-name="uni00B3" unicode="&#xb3;" horiz-adv-x="710" 
d="M346 1329q131 0 211 -70.5t80 -187.5q0 -123 -85.5 -197.5t-227.5 -74.5q-86 0 -155 27t-108 77l33 60q72 -97 219 -97q109 0 174.5 55.5t65.5 149.5q0 89 -64.5 143t-169.5 54q-77 0 -141 -31l-24 41l344 375h-402v67h512v-49l-323 -346q20 4 61 4z" />
    <glyph glyph-name="acute" unicode="&#xb4;" horiz-adv-x="1228" 
d="M272 1270l263 297h129l-302 -297h-90z" />
    <glyph glyph-name="paragraph" unicode="&#xb6;" horiz-adv-x="1112" 
d="M883 1516v-1967h-86v1887h-236v-1887h-86v1313h-135q-123 0 -197.5 91t-74.5 239q0 146 84 235t221 89h510z" />
    <glyph glyph-name="periodcentered" unicode="&#xb7;" horiz-adv-x="462" 
d="M231 504q-34 0 -59 25t-25 59q0 35 25 59.5t59 24.5t59 -24.5t25 -59.5q0 -34 -25 -59t-59 -25z" />
    <glyph glyph-name="cedilla" unicode="&#xb8;" horiz-adv-x="1228" 
d="M260 -141q97 0 156 -44.5t59 -115.5q0 -77 -64.5 -123.5t-172.5 -46.5q-130 0 -191 61l25 52q51 -54 157 -54q75 0 119.5 30.5t44.5 80.5q0 47 -44 75.5t-116 28.5q-53 0 -100 -18l-18 35l114 180h74l-94 -145q32 4 51 4z" />
    <glyph glyph-name="uni00B9" unicode="&#xb9;" horiz-adv-x="425" 
d="M207 811v842h-170v67h250v-909h-80z" />
    <glyph glyph-name="ordmasculine" unicode="&#xba;" horiz-adv-x="874" 
d="M438 864q-148 0 -237.5 92t-89.5 244q0 151 89.5 243.5t237.5 92.5q146 0 237 -92.5t91 -243.5q0 -152 -90.5 -244t-237.5 -92zM438 928q111 0 179.5 74.5t68.5 197.5q0 121 -68.5 195.5t-179.5 74.5q-112 0 -181 -74t-69 -196q0 -123 68.5 -197.5t181.5 -74.5z" />
    <glyph glyph-name="guillemotright" unicode="&#xbb;" horiz-adv-x="1107" 
d="M213 1008l356 -455l-356 -455h-107l351 455l-351 455h107zM653 1008l359 -455l-359 -455h-104l350 455l-350 455h104z" />
    <glyph glyph-name="onequarter" unicode="&#xbc;" horiz-adv-x="1497" 
d="M205 -20l-64 40l889 1516l64 -41zM207 606v842h-170v68h250v-910h-80zM1227 0v201h-455v59l467 649h68v-641h139v-67h-139v-201h-80zM856 264h373l2 520z" />
    <glyph glyph-name="onehalf" unicode="&#xbd;" horiz-adv-x="1521" 
d="M205 -20l-64 40l889 1516l64 -41zM207 606v842h-170v68h250v-910h-80zM879 0v53l274 293q4 4 29.5 31.5t34 37t32 37t33.5 42.5t26.5 42t24 47.5t13.5 46t6 50.5q0 81 -51.5 127.5t-137.5 46.5q-89 0 -141.5 -50.5t-52.5 -135.5l-80 6q0 112 74.5 180t197.5 68
q122 0 196.5 -64.5t74.5 -171.5q0 -44 -15 -89.5t-32 -78t-55 -80t-58.5 -69.5t-67.5 -72l-219 -231l459 2v-68h-565z" />
    <glyph glyph-name="threequarters" unicode="&#xbe;" horiz-adv-x="1781" 
d="M1315 1536l63 -41l-889 -1515l-63 40zM637 866q0 -123 -85.5 -197.5t-227.5 -74.5q-86 0 -155 27t-108 77l33 60q71 -96 219 -96q109 0 174.5 55.5t65.5 148.5q0 89 -64.5 143t-169.5 54q-77 0 -141 -31l-24 41l344 375h-402v68h512v-50l-323 -346q20 4 61 4
q131 0 211 -70.5t80 -187.5zM1591 268h140v-67h-140v-201h-80v201h-454v59l467 649h67v-641zM1513 264l3 520l-375 -520h372z" />
    <glyph glyph-name="questiondown" unicode="&#xbf;" horiz-adv-x="1026" 
d="M535 946q-31 0 -52.5 22t-21.5 54q0 31 21.5 52.5t52.5 21.5q32 0 53.5 -21.5t21.5 -52.5q0 -32 -21.5 -54t-53.5 -22zM522 -471q-202 0 -326 105t-124 276q0 50 10.5 93t23.5 71.5t41.5 62t46.5 50t56 49.5q47 41 71 64t62.5 73.5t58 100.5t35 130t15.5 176h88
q0 -111 -16 -202t-37 -148t-59 -110t-65 -79t-71 -63q-40 -33 -59 -51t-44.5 -50.5t-36 -71t-10.5 -87.5q0 -135 93.5 -218t246.5 -83q148 0 242 83t98 218l101 -4q-6 -173 -127.5 -279t-313.5 -106z" />
    <glyph glyph-name="Agrave" unicode="&#xc0;" horiz-adv-x="1464" 
d="M797 1710h-92l-299 297h129zM1341 0l-188 432h-840l-190 -432h-113l672 1516h100l672 -1516h-113zM350 520h764l-381 871z" />
    <glyph glyph-name="Aacute" unicode="&#xc1;" horiz-adv-x="1464" 
d="M1061 2007l-301 -297h-90l262 297h129zM1341 0l-188 432h-840l-190 -432h-113l672 1516h100l672 -1516h-113zM350 520h764l-381 871z" />
    <glyph glyph-name="Acircumflex" unicode="&#xc2;" horiz-adv-x="1464" 
d="M733 1948l-219 -238h-100l264 297h108l263 -297h-99zM1341 0l-188 432h-840l-190 -432h-113l672 1516h100l672 -1516h-113zM350 520h764l-381 871z" />
    <glyph glyph-name="Atilde" unicode="&#xc3;" horiz-adv-x="1464" 
d="M565 1890q-51 0 -86 -38.5t-35 -100.5h-67q0 99 53.5 160t136.5 61q48 0 95 -24.5t79 -54t74.5 -54t81.5 -24.5q51 0 86 38t35 99h67q0 -100 -53.5 -160.5t-136.5 -60.5q-47 0 -94 25t-79 54.5t-75 54.5t-82 25zM1341 0l-188 432h-840l-190 -432h-113l672 1516h100
l672 -1516h-113zM350 520h764l-381 871z" />
    <glyph glyph-name="Adieresis" unicode="&#xc4;" horiz-adv-x="1464" 
d="M541 1823q-32 0 -54 21.5t-22 53.5q0 31 22 52.5t54 21.5q31 0 52 -21.5t21 -52.5q0 -32 -21 -53.5t-52 -21.5zM924 1823q-31 0 -52.5 21.5t-21.5 53.5q0 31 21.5 52.5t52.5 21.5q32 0 52.5 -21.5t20.5 -52.5q0 -32 -20.5 -53.5t-52.5 -21.5zM1341 0l-188 432h-840
l-190 -432h-113l672 1516h100l672 -1516h-113zM350 520h764l-381 871z" />
    <glyph glyph-name="Aring" unicode="&#xc5;" horiz-adv-x="1464" 
d="M733 1636q-97 0 -157 58.5t-60 154.5t60 154.5t157 58.5t157 -58.5t60 -154.5t-60 -154.5t-157 -58.5zM733 2007q-67 0 -107 -43.5t-40 -114.5t40 -113t107 -42t107.5 42t40.5 113t-40.5 114.5t-107.5 43.5zM1341 0l-188 432h-840l-190 -432h-113l672 1516h100l672 -1516
h-113zM350 520h764l-381 871z" />
    <glyph glyph-name="AE" unicode="&#xc6;" horiz-adv-x="2164" 
d="M1370 88h670v-88h-760l-121 432h-813l-248 -432h-116l882 1516h1157v-89h-1036l174 -608h815v-90h-788zM395 520h740l-244 864z" />
    <glyph glyph-name="Ccedilla" unicode="&#xc7;" horiz-adv-x="1390" 
d="M860 1448q-286 0 -460.5 -190t-174.5 -500t174.5 -500t460.5 -190q258 0 432 153v-104q-173 -131 -407 -137l-82 -125q32 4 51 4q97 0 156 -44.5t59 -115.5q0 -77 -65 -123.5t-173 -46.5q-129 0 -190 61l25 52q51 -54 157 -54q75 0 119.5 30.5t44.5 80.5q0 47 -44 75.5
t-116 28.5q-53 0 -100 -18l-18 35l102 162q-315 15 -505.5 226.5t-190.5 549.5q0 350 204.5 564t538.5 214q252 0 434 -137v-105q-175 154 -432 154z" />
    <glyph glyph-name="Egrave" unicode="&#xc8;" 
d="M729 1710h-92l-299 297h129zM324 88h811v-88h-918v1516h899v-89h-792v-608h745v-90h-745v-641z" />
    <glyph glyph-name="Eacute" unicode="&#xc9;" 
d="M993 2007l-301 -297h-90l262 297h129zM324 88h811v-88h-918v1516h899v-89h-792v-608h745v-90h-745v-641z" />
    <glyph glyph-name="Ecircumflex" unicode="&#xca;" 
d="M666 1948l-220 -238h-100l264 297h109l262 -297h-98zM324 88h811v-88h-918v1516h899v-89h-792v-608h745v-90h-745v-641z" />
    <glyph glyph-name="Edieresis" unicode="&#xcb;" 
d="M473 1823q-32 0 -54 21.5t-22 53.5q0 31 22 52.5t54 21.5q31 0 52.5 -21.5t21.5 -52.5q0 -32 -21.5 -53.5t-52.5 -21.5zM856 1823q-31 0 -52.5 21.5t-21.5 53.5q0 31 21.5 52.5t52.5 21.5q32 0 53 -21.5t21 -52.5q0 -32 -21 -53.5t-53 -21.5zM324 88h811v-88h-918v1516
h899v-89h-792v-608h745v-90h-745v-641z" />
    <glyph glyph-name="Igrave" unicode="&#xcc;" horiz-adv-x="540" 
d="M242 1710l-299 297h129l262 -297h-92zM217 0v1516h107v-1516h-107z" />
    <glyph glyph-name="Iacute" unicode="&#xcd;" horiz-adv-x="540" 
d="M207 1710l262 297h129l-301 -297h-90zM217 0v1516h107v-1516h-107z" />
    <glyph glyph-name="Icircumflex" unicode="&#xce;" horiz-adv-x="540" 
d="M324 2007l262 -297h-99l-217 238l-219 -238h-100l264 297h109zM217 0v1516h107v-1516h-107z" />
    <glyph glyph-name="Idieresis" unicode="&#xcf;" horiz-adv-x="540" 
d="M78 1823q-32 0 -54 21.5t-22 53.5q0 31 22 52.5t54 21.5q31 0 52.5 -21.5t21.5 -52.5q0 -32 -21.5 -53.5t-52.5 -21.5zM461 1823q-31 0 -52.5 21.5t-21.5 53.5q0 31 21.5 52.5t52.5 21.5q32 0 53 -21.5t21 -52.5q0 -32 -21 -53.5t-53 -21.5zM217 0v1516h107v-1516h-107z
" />
    <glyph glyph-name="Eth" unicode="&#xd0;" horiz-adv-x="1546" 
d="M700 1516q162 0 298.5 -55t232 -154t148.5 -241.5t53 -311.5q0 -339 -201.5 -546.5t-530.5 -207.5h-483v725h-178v76h178v715h483zM684 88q287 0 462 183t175 483q0 303 -175 488t-462 185h-360v-626h440v-76h-440v-637h360z" />
    <glyph glyph-name="Ntilde" unicode="&#xd1;" horiz-adv-x="1697" 
d="M1010 1731q-47 0 -94 25t-79 54.5t-75 54.5t-82 25q-51 0 -86 -38.5t-35 -100.5h-67q0 99 53.5 160t136.5 61q48 0 95 -24.5t79 -54t74.5 -54t81.5 -24.5q51 0 86 38t35 99h67q0 -100 -53.5 -160.5t-136.5 -60.5zM217 0v1516h70l1089 -1330v1330h105v-1516h-70
l-1089 1329l2 -1329h-107z" />
    <glyph glyph-name="Ograve" unicode="&#xd2;" horiz-adv-x="1714" 
d="M829 1710l-299 297h129l263 -297h-93zM858 -20q-334 0 -538.5 214t-204.5 564t204.5 564t538.5 214q333 0 537 -214t204 -564t-204 -564t-537 -214zM858 68q284 0 457.5 189.5t173.5 500.5t-173.5 500.5t-457.5 189.5t-458.5 -190t-174.5 -500t174.5 -500t458.5 -190z
" />
    <glyph glyph-name="Oacute" unicode="&#xd3;" horiz-adv-x="1714" 
d="M795 1710l262 297h129l-301 -297h-90zM858 -20q-334 0 -538.5 214t-204.5 564t204.5 564t538.5 214q333 0 537 -214t204 -564t-204 -564t-537 -214zM858 68q284 0 457.5 189.5t173.5 500.5t-173.5 500.5t-457.5 189.5t-458.5 -190t-174.5 -500t174.5 -500t458.5 -190z
" />
    <glyph glyph-name="Ocircumflex" unicode="&#xd4;" horiz-adv-x="1714" 
d="M858 1948l-219 -238h-100l264 297h108l263 -297h-99zM858 1536q333 0 537 -214t204 -564t-204 -564t-537 -214q-334 0 -538.5 214t-204.5 564t204.5 564t538.5 214zM858 68q284 0 457.5 189.5t173.5 500.5t-173.5 500.5t-457.5 189.5t-458.5 -190t-174.5 -500t174.5 -500
t458.5 -190z" />
    <glyph glyph-name="Otilde" unicode="&#xd5;" horiz-adv-x="1714" 
d="M1020 1731q-47 0 -94 25t-79 54.5t-75 54.5t-82 25q-51 0 -86 -38.5t-35 -100.5h-67q0 99 53.5 160t136.5 61q48 0 95 -24.5t79 -54t74.5 -54t81.5 -24.5q51 0 86 38t35 99h67q0 -100 -53.5 -160.5t-136.5 -60.5zM858 -20q-334 0 -538.5 214t-204.5 564t204.5 564
t538.5 214q333 0 537 -214t204 -564t-204 -564t-537 -214zM858 68q284 0 457.5 189.5t173.5 500.5t-173.5 500.5t-457.5 189.5t-458.5 -190t-174.5 -500t174.5 -500t458.5 -190z" />
    <glyph glyph-name="Odieresis" unicode="&#xd6;" horiz-adv-x="1714" 
d="M666 1823q-32 0 -54 21.5t-22 53.5q0 31 22 52.5t54 21.5q31 0 52 -21.5t21 -52.5q0 -32 -21 -53.5t-52 -21.5zM1049 1823q-31 0 -52.5 21.5t-21.5 53.5q0 31 21.5 52.5t52.5 21.5q32 0 52.5 -21.5t20.5 -52.5q0 -32 -20.5 -53.5t-52.5 -21.5zM858 -20q-334 0 -538.5 214
t-204.5 564t204.5 564t538.5 214q333 0 537 -214t204 -564t-204 -564t-537 -214zM858 68q284 0 457.5 189.5t173.5 500.5t-173.5 500.5t-457.5 189.5t-458.5 -190t-174.5 -500t174.5 -500t458.5 -190z" />
    <glyph glyph-name="multiply" unicode="&#xd7;" horiz-adv-x="1011" 
d="M870 1010l-303 -303l303 -304l-61 -61l-303 303l-301 -303l-62 61l301 304l-303 303l64 61l303 -303l301 303z" />
    <glyph glyph-name="Oslash" unicode="&#xd8;" horiz-adv-x="1724" 
d="M1423 1290q176 -207 176 -532q0 -350 -204 -564t-537 -214q-302 0 -500 176l-163 -176l-68 61l168 180q-180 208 -180 537q0 350 204.5 564t538.5 214q303 0 502 -180l168 180l67 -61zM225 758q0 -276 142 -461l923 987q-172 164 -432 164q-284 0 -458.5 -190
t-174.5 -500zM858 68q284 0 457.5 189.5t173.5 500.5q0 274 -137 456l-924 -985q169 -161 430 -161z" />
    <glyph glyph-name="Ugrave" unicode="&#xd9;" horiz-adv-x="1609" 
d="M776 1710l-299 297h129l262 -297h-92zM805 -20q-274 0 -440 150t-166 398v988h104v-984q0 -209 138 -336.5t364 -127.5t364 127.5t138 336.5v984h106v-988q0 -247 -167 -397.5t-441 -150.5z" />
    <glyph glyph-name="Uacute" unicode="&#xda;" horiz-adv-x="1609" 
d="M741 1710l263 297h129l-302 -297h-90zM805 -20q-274 0 -440 150t-166 398v988h104v-984q0 -209 138 -336.5t364 -127.5t364 127.5t138 336.5v984h106v-988q0 -247 -167 -397.5t-441 -150.5z" />
    <glyph glyph-name="Ucircumflex" unicode="&#xdb;" horiz-adv-x="1609" 
d="M805 1948l-219 -238h-101l265 297h108l262 -297h-98zM1307 1516h106v-988q0 -247 -167 -397.5t-441 -150.5t-440 150t-166 398v988h104v-984q0 -209 138 -336.5t364 -127.5t364 127.5t138 336.5v984z" />
    <glyph glyph-name="Udieresis" unicode="&#xdc;" horiz-adv-x="1609" 
d="M612 1823q-32 0 -53.5 21.5t-21.5 53.5q0 31 21.5 52.5t53.5 21.5q31 0 52.5 -21.5t21.5 -52.5q0 -32 -21.5 -53.5t-52.5 -21.5zM995 1823q-31 0 -52 21.5t-21 53.5q0 31 21 52.5t52 21.5q32 0 53 -21.5t21 -52.5q0 -32 -21 -53.5t-53 -21.5zM805 -20q-274 0 -440 150
t-166 398v988h104v-984q0 -209 138 -336.5t364 -127.5t364 127.5t138 336.5v984h106v-988q0 -247 -167 -397.5t-441 -150.5z" />
    <glyph glyph-name="Yacute" unicode="&#xdd;" horiz-adv-x="1316" 
d="M989 2007l-301 -297h-90l262 297h129zM1161 1516h119l-569 -881v-635h-105v635l-569 881h119l503 -785z" />
    <glyph glyph-name="Thorn" unicode="&#xde;" horiz-adv-x="1306" 
d="M745 1223q217 0 349.5 -124t132.5 -327q0 -206 -131.5 -332.5t-347.5 -126.5h-424v-313h-107v1516h107v-293h421zM727 403q177 0 283 100t106 265q0 166 -107 266.5t-282 100.5h-403v-732h403z" />
    <glyph glyph-name="germandbls" unicode="&#xdf;" horiz-adv-x="1222" 
d="M784 856q158 -41 248 -154t90 -272q0 -203 -136 -326.5t-359 -123.5q-90 0 -158 24l12 84q55 -22 133 -22q183 0 293.5 102t110.5 270q0 169 -113 272t-297 103v82q151 0 242.5 87t91.5 232q0 143 -92 230.5t-242 87.5t-242 -87t-92 -231v-1214h-98v1227q0 177 119 284
t313 107q197 0 318 -107t121 -284q0 -134 -70 -231.5t-193 -139.5z" />
    <glyph glyph-name="agrave" unicode="&#xe0;" horiz-adv-x="1130" 
d="M621 1270h-93l-299 297h129zM152 1075h802v-1075h-96l-2 238v22q-55 -131 -171 -205.5t-257 -74.5q-156 0 -251 83.5t-95 221.5q0 145 118.5 233t313.5 88q180 0 342 -43v430h-704v82zM453 55q72 0 142.5 29.5t129 82.5t95 137.5t36.5 184.5q-154 43 -330 43
q-154 0 -248 -67.5t-94 -177.5q0 -105 73.5 -168.5t195.5 -63.5z" />
    <glyph glyph-name="aacute" unicode="&#xe1;" horiz-adv-x="1130" 
d="M885 1567l-301 -297h-90l262 297h129zM152 1075h802v-1075h-96l-2 238v22q-55 -131 -171 -205.5t-257 -74.5q-156 0 -251 83.5t-95 221.5q0 145 118.5 233t313.5 88q180 0 342 -43v430h-704v82zM453 55q72 0 142.5 29.5t129 82.5t95 137.5t36.5 184.5q-154 43 -330 43
q-154 0 -248 -67.5t-94 -177.5q0 -105 73.5 -168.5t195.5 -63.5z" />
    <glyph glyph-name="acircumflex" unicode="&#xe2;" horiz-adv-x="1130" 
d="M557 1507l-219 -237h-100l264 297h108l262 -297h-98zM152 1075h802v-1075h-96l-2 238v22q-55 -131 -171 -205.5t-257 -74.5q-156 0 -251 83.5t-95 221.5q0 145 118.5 233t313.5 88q180 0 342 -43v430h-704v82zM453 55q72 0 142.5 29.5t129 82.5t95 137.5t36.5 184.5
q-154 43 -330 43q-154 0 -248 -67.5t-94 -177.5q0 -105 73.5 -168.5t195.5 -63.5z" />
    <glyph glyph-name="atilde" unicode="&#xe3;" horiz-adv-x="1130" 
d="M389 1450q-51 0 -86 -38.5t-35 -100.5h-67q0 99 53.5 160t136.5 61q39 0 77 -16.5t67.5 -39.5t58.5 -46t61.5 -39.5t65.5 -16.5q51 0 86 38t35 99h67q0 -100 -53.5 -160.5t-136.5 -60.5q-39 0 -76.5 16.5t-67 40t-58.5 47t-62 40t-66 16.5zM152 1075h802v-1075h-96
l-2 238v22q-55 -131 -171 -205.5t-257 -74.5q-156 0 -251 83.5t-95 221.5q0 145 118.5 233t313.5 88q180 0 342 -43v430h-704v82zM453 55q72 0 142.5 29.5t129 82.5t95 137.5t36.5 184.5q-154 43 -330 43q-154 0 -248 -67.5t-94 -177.5q0 -105 73.5 -168.5t195.5 -63.5z" />
    <glyph glyph-name="adieresis" unicode="&#xe4;" horiz-adv-x="1130" 
d="M365 1382q-32 0 -54 22t-22 54q0 31 22 52.5t54 21.5q31 0 52 -21.5t21 -52.5q0 -32 -21 -54t-52 -22zM748 1382q-31 0 -52.5 22t-21.5 54q0 31 21.5 52.5t52.5 21.5q32 0 52.5 -21.5t20.5 -52.5q0 -33 -20.5 -54.5t-52.5 -21.5zM152 1075h802v-1075h-96l-2 238v22
q-55 -131 -171 -205.5t-257 -74.5q-156 0 -251 83.5t-95 221.5q0 145 118.5 233t313.5 88q180 0 342 -43v430h-704v82zM453 55q72 0 142.5 29.5t129 82.5t95 137.5t36.5 184.5q-154 43 -330 43q-154 0 -248 -67.5t-94 -177.5q0 -105 73.5 -168.5t195.5 -63.5z" />
    <glyph glyph-name="aring" unicode="&#xe5;" horiz-adv-x="1130" 
d="M557 1196q-97 0 -157 58.5t-60 154.5t60 154.5t157 58.5t157 -58.5t60 -154.5t-60 -154.5t-157 -58.5zM557 1567q-67 0 -107 -43.5t-40 -114.5t40 -113.5t107 -42.5t107.5 42.5t40.5 113.5t-40.5 114.5t-107.5 43.5zM152 1075h802v-1075h-96l-2 238v22
q-55 -131 -171 -205.5t-257 -74.5q-156 0 -251 83.5t-95 221.5q0 145 118.5 233t313.5 88q180 0 342 -43v430h-704v82zM453 55q72 0 142.5 29.5t129 82.5t95 137.5t36.5 184.5q-154 43 -330 43q-154 0 -248 -67.5t-94 -177.5q0 -105 73.5 -168.5t195.5 -63.5z" />
    <glyph glyph-name="ae" unicode="&#xe6;" horiz-adv-x="1937" 
d="M1845 551l-2 -51h-887q11 -200 116.5 -320.5t277.5 -120.5q115 0 213 54.5t170 150.5l73 -47q-79 -116 -195 -176.5t-255 -60.5q-160 0 -278.5 83.5t-174.5 231.5q-50 -147 -177 -231t-288 -84q-160 0 -258 83.5t-98 221.5q0 145 118.5 233t313.5 88q180 0 342 -43v96
q0 161 -93.5 258t-250.5 97q-192 0 -313 -133l-47 63q139 152 374 152q147 0 251.5 -72t146.5 -197q61 126 172.5 197.5t257.5 71.5q220 0 355.5 -150.5t135.5 -394.5zM1348 1014q-173 0 -279 -119.5t-115 -321.5h787q-8 201 -114 321t-279 120zM455 55q71 0 141.5 29.5
t128.5 82.5t94.5 137.5t36.5 184.5q-154 43 -330 43q-154 0 -247 -67.5t-93 -177.5q0 -105 73.5 -168.5t195.5 -63.5z" />
    <glyph glyph-name="ccedilla" unicode="&#xe7;" horiz-adv-x="980" 
d="M883 68q-109 -85 -242 -88l-82 -125q32 4 51 4q97 0 156 -44.5t59 -115.5q0 -77 -64.5 -123.5t-172.5 -46.5q-130 0 -191 61l25 52q51 -54 158 -54q74 0 118.5 30.5t44.5 80.5q0 47 -43.5 75.5t-115.5 28.5q-54 0 -101 -18l-18 35l104 162q-212 20 -338.5 171t-126.5 384
q0 252 144.5 405.5t380.5 153.5q138 0 252 -86v-99q-104 99 -250 99q-191 0 -306.5 -129.5t-115.5 -343.5q0 -212 116 -341.5t306 -129.5q149 0 252 98v-96z" />
    <glyph glyph-name="egrave" unicode="&#xe8;" horiz-adv-x="1193" 
d="M668 1270h-93l-299 297h130zM1100 551v-51h-887q9 -200 114.5 -320.5t278.5 -120.5q115 0 213 54.5t170 150.5l74 -47q-81 -116 -198.5 -176.5t-256.5 -60.5q-226 0 -364 154.5t-138 406.5q0 250 137 402.5t361 152.5q223 0 359.5 -150t136.5 -395zM604 1014
q-174 0 -279.5 -119.5t-113.5 -321.5h786q-8 201 -114 321t-279 120z" />
    <glyph glyph-name="eacute" unicode="&#xe9;" horiz-adv-x="1193" 
d="M932 1567l-301 -297h-90l262 297h129zM1100 551v-51h-887q9 -200 114.5 -320.5t278.5 -120.5q115 0 213 54.5t170 150.5l74 -47q-81 -116 -198.5 -176.5t-256.5 -60.5q-226 0 -364 154.5t-138 406.5q0 250 137 402.5t361 152.5q223 0 359.5 -150t136.5 -395zM604 1014
q-174 0 -279.5 -119.5t-113.5 -321.5h786q-8 201 -114 321t-279 120z" />
    <glyph glyph-name="ecircumflex" unicode="&#xea;" horiz-adv-x="1193" 
d="M604 1507l-219 -237h-100l264 297h108l263 -297h-99zM1100 551v-51h-887q9 -200 114.5 -320.5t278.5 -120.5q115 0 213 54.5t170 150.5l74 -47q-81 -116 -198.5 -176.5t-256.5 -60.5q-226 0 -364 154.5t-138 406.5q0 250 137 402.5t361 152.5q223 0 359.5 -150
t136.5 -395zM604 1014q-174 0 -279.5 -119.5t-113.5 -321.5h786q-8 201 -114 321t-279 120z" />
    <glyph glyph-name="edieresis" unicode="&#xeb;" horiz-adv-x="1193" 
d="M412 1382q-32 0 -54 22t-22 54q0 31 22 52.5t54 21.5q31 0 52 -21.5t21 -52.5q0 -32 -21 -54t-52 -22zM795 1382q-31 0 -52.5 22t-21.5 54q0 31 21.5 52.5t52.5 21.5q32 0 52.5 -21.5t20.5 -52.5q0 -33 -20.5 -54.5t-52.5 -21.5zM1100 551v-51h-887q9 -200 114.5 -320.5
t278.5 -120.5q115 0 213 54.5t170 150.5l74 -47q-81 -116 -198.5 -176.5t-256.5 -60.5q-226 0 -364 154.5t-138 406.5q0 250 137 402.5t361 152.5q223 0 359.5 -150t136.5 -395zM604 1014q-174 0 -279.5 -119.5t-113.5 -321.5h786q-8 201 -114 321t-279 120z" />
    <glyph glyph-name="igrave" unicode="&#xec;" horiz-adv-x="458" 
d="M201 1270l-299 297h129l262 -297h-92zM180 0v1075h99v-1075h-99z" />
    <glyph glyph-name="iacute" unicode="&#xed;" horiz-adv-x="458" 
d="M166 1270l262 297h129l-301 -297h-90zM180 0v1075h99v-1075h-99z" />
    <glyph glyph-name="icircumflex" unicode="&#xee;" horiz-adv-x="458" 
d="M283 1567l262 -297h-99l-217 237l-219 -237h-100l264 297h109zM180 0v1075h99v-1075h-99z" />
    <glyph glyph-name="idieresis" unicode="&#xef;" horiz-adv-x="458" 
d="M37 1382q-32 0 -54 22t-22 54q0 31 22 52.5t54 21.5q31 0 52.5 -21.5t21.5 -52.5q0 -32 -21.5 -54t-52.5 -22zM420 1382q-31 0 -52.5 22t-21.5 54q0 31 21.5 52.5t52.5 21.5q32 0 53 -21.5t21 -52.5q0 -32 -21 -54t-53 -22zM180 0v1075h99v-1075h-99z" />
    <glyph glyph-name="eth" unicode="&#xf0;" horiz-adv-x="1290" 
d="M696 1452q236 -182 360 -402.5t124 -465.5q0 -278 -147 -441t-390 -163t-391 153.5t-148 405.5q0 248 143.5 399.5t373.5 151.5q243 0 378 -158q-116 259 -385 465l-180 -121l-63 43l182 123q-95 69 -193 121l82 55q115 -64 193 -121l180 121l62 -45zM643 66
q195 0 314.5 129.5t119.5 341.5q0 213 -120.5 343t-313.5 130q-195 0 -314.5 -130t-119.5 -343q0 -212 119.5 -341.5t314.5 -129.5z" />
    <glyph glyph-name="ntilde" unicode="&#xf1;" horiz-adv-x="1288" 
d="M485 1450q-51 0 -85.5 -38.5t-34.5 -100.5h-68q0 99 53.5 160t136.5 61q39 0 77 -16.5t67.5 -39.5t58.5 -46t61.5 -39.5t65.5 -16.5q51 0 86 38t35 99h68q0 -100 -54 -160.5t-137 -60.5q-39 0 -76.5 16.5t-67 40t-58.5 47t-62 40t-66 16.5zM680 1096q200 0 323 -114.5
t123 -303.5v-678h-98v655q0 160 -104 257.5t-273 97.5t-273 -97.5t-104 -257.5v-655h-98v1075h96l2 -209q49 109 151 169.5t255 60.5z" />
    <glyph glyph-name="ograve" unicode="&#xf2;" horiz-adv-x="1284" 
d="M614 1270l-299 297h129l263 -297h-93zM643 -20q-243 0 -391 153t-148 404q0 252 148 405.5t391 153.5q242 0 389.5 -153.5t147.5 -405.5q0 -250 -147.5 -403.5t-389.5 -153.5zM643 66q195 0 314.5 129.5t119.5 341.5q0 213 -119.5 343t-314.5 130q-196 0 -315 -129.5
t-119 -343.5q0 -212 119 -341.5t315 -129.5z" />
    <glyph glyph-name="oacute" unicode="&#xf3;" horiz-adv-x="1284" 
d="M580 1270l262 297h129l-301 -297h-90zM643 -20q-243 0 -391 153t-148 404q0 252 148 405.5t391 153.5q242 0 389.5 -153.5t147.5 -405.5q0 -250 -147.5 -403.5t-389.5 -153.5zM643 66q195 0 314.5 129.5t119.5 341.5q0 213 -119.5 343t-314.5 130q-196 0 -315 -129.5
t-119 -343.5q0 -212 119 -341.5t315 -129.5z" />
    <glyph glyph-name="ocircumflex" unicode="&#xf4;" horiz-adv-x="1284" 
d="M643 1507l-219 -237h-100l264 297h108l262 -297h-98zM643 1096q242 0 389.5 -153.5t147.5 -405.5q0 -250 -147.5 -403.5t-389.5 -153.5q-243 0 -391 153t-148 404q0 252 148 405.5t391 153.5zM643 66q195 0 314.5 129.5t119.5 341.5q0 213 -119.5 343t-314.5 130
q-196 0 -315 -129.5t-119 -343.5q0 -212 119 -341.5t315 -129.5z" />
    <glyph glyph-name="otilde" unicode="&#xf5;" horiz-adv-x="1284" 
d="M805 1290q-39 0 -76.5 16.5t-67 40t-58.5 47t-62 40t-66 16.5q-51 0 -86 -38.5t-35 -100.5h-67q0 99 53.5 160t136.5 61q39 0 77 -16.5t67.5 -39.5t58.5 -46t61.5 -39.5t65.5 -16.5q51 0 86 38t35 99h67q0 -100 -53.5 -160.5t-136.5 -60.5zM643 -20q-243 0 -391 153
t-148 404q0 252 148 405.5t391 153.5q242 0 389.5 -153.5t147.5 -405.5q0 -250 -147.5 -403.5t-389.5 -153.5zM643 66q195 0 314.5 129.5t119.5 341.5q0 213 -119.5 343t-314.5 130q-196 0 -315 -129.5t-119 -343.5q0 -212 119 -341.5t315 -129.5z" />
    <glyph glyph-name="odieresis" unicode="&#xf6;" horiz-adv-x="1284" 
d="M451 1382q-32 0 -54 22t-22 54q0 31 22 52.5t54 21.5q31 0 52 -21.5t21 -52.5q0 -32 -21 -54t-52 -22zM834 1382q-31 0 -52.5 22t-21.5 54q0 31 21.5 52.5t52.5 21.5q32 0 52.5 -21.5t20.5 -52.5q0 -33 -20.5 -54.5t-52.5 -21.5zM643 -20q-243 0 -391 153t-148 404
q0 252 148 405.5t391 153.5q242 0 389.5 -153.5t147.5 -405.5q0 -250 -147.5 -403.5t-389.5 -153.5zM643 66q195 0 314.5 129.5t119.5 341.5q0 213 -119.5 343t-314.5 130q-196 0 -315 -129.5t-119 -343.5q0 -212 119 -341.5t315 -129.5z" />
    <glyph glyph-name="divide" unicode="&#xf7;" horiz-adv-x="1150" 
d="M575 930q-31 0 -52 22t-21 54q0 31 21 52t52 21q32 0 53 -21t21 -52q0 -32 -21 -54t-53 -22zM152 666v84h849v-84h-849zM575 336q-31 0 -52 22t-21 54q0 31 21 52t52 21q32 0 53 -21t21 -52q0 -32 -21 -54t-53 -22z" />
    <glyph glyph-name="oslash" unicode="&#xf8;" horiz-adv-x="1292" 
d="M1180 1036l-119 -127q119 -147 119 -372q0 -250 -147.5 -403.5t-389.5 -153.5q-212 0 -352 118l-113 -118l-67 59l116 123q-123 148 -123 375q0 252 148 405.5t391 153.5q216 0 354 -123l117 123zM209 537q0 -180 88 -304l635 672q-114 105 -289 105q-196 0 -315 -129.5
t-119 -343.5zM1077 537q0 179 -86 301l-635 -670q114 -102 287 -102q195 0 314.5 129.5t119.5 341.5z" />
    <glyph glyph-name="ugrave" unicode="&#xf9;" horiz-adv-x="1251" 
d="M598 1270l-299 297h129l262 -297h-92zM627 -20q-210 0 -337.5 115.5t-127.5 307.5v672h98v-655q0 -160 100.5 -257t266.5 -97q164 0 264 97t100 257v655h99v-672q0 -191 -127.5 -307t-335.5 -116z" />
    <glyph glyph-name="uacute" unicode="&#xfa;" horiz-adv-x="1251" 
d="M563 1270l262 297h129l-301 -297h-90zM627 -20q-210 0 -337.5 115.5t-127.5 307.5v672h98v-655q0 -160 100.5 -257t266.5 -97q164 0 264 97t100 257v655h99v-672q0 -191 -127.5 -307t-335.5 -116z" />
    <glyph glyph-name="ucircumflex" unicode="&#xfb;" horiz-adv-x="1251" 
d="M627 1507l-219 -237h-101l264 297h109l262 -297h-98zM991 1075h99v-672q0 -191 -127.5 -307t-335.5 -116q-210 0 -337.5 115.5t-127.5 307.5v672h98v-655q0 -160 100.5 -257t266.5 -97q164 0 264 97t100 257v655z" />
    <glyph glyph-name="udieresis" unicode="&#xfc;" horiz-adv-x="1251" 
d="M434 1382q-32 0 -54 22t-22 54q0 31 22 52.5t54 21.5q31 0 52.5 -21.5t21.5 -52.5q0 -32 -21.5 -54t-52.5 -22zM817 1382q-31 0 -52.5 22t-21.5 54q0 31 21.5 52.5t52.5 21.5q32 0 53 -21.5t21 -52.5q0 -32 -21 -54t-53 -22zM627 -20q-210 0 -337.5 115.5t-127.5 307.5
v672h98v-655q0 -160 100.5 -257t266.5 -97q164 0 264 97t100 257v655h99v-672q0 -191 -127.5 -307t-335.5 -116z" />
    <glyph glyph-name="yacute" unicode="&#xfd;" horiz-adv-x="1265" 
d="M954 1567l-301 -297h-90l262 297h129zM991 1075h99v-1526h-916v84h817v570q-47 -106 -146.5 -164.5t-246.5 -58.5q-195 0 -314.5 114.5t-119.5 300.5v680h98v-655q0 -160 100.5 -257t264.5 -97t264 97t100 257v655z" />
    <glyph glyph-name="thorn" unicode="&#xfe;" horiz-adv-x="1351" 
d="M731 1096q229 0 372.5 -153.5t143.5 -401.5q0 -252 -143 -406.5t-373 -154.5q-172 0 -287 77t-170 213v-721h-98v2048h98v-792q55 136 170 213.5t287 77.5zM709 66q197 0 316.5 129.5t119.5 343.5q0 212 -120 341.5t-316 129.5q-195 0 -315 -130t-120 -343
q0 -212 120 -341.5t315 -129.5z" />
    <glyph glyph-name="ydieresis" unicode="&#xff;" horiz-adv-x="1265" 
d="M434 1382q-32 0 -54 22t-22 54q0 31 22 52.5t54 21.5q31 0 52.5 -21.5t21.5 -52.5q0 -32 -21.5 -54t-52.5 -22zM817 1382q-31 0 -52.5 22t-21.5 54q0 31 21.5 52.5t52.5 21.5q32 0 53 -21.5t21 -52.5q0 -32 -21 -54t-53 -22zM991 1075h99v-1526h-916v84h817v570
q-47 -106 -146.5 -164.5t-246.5 -58.5q-195 0 -314.5 114.5t-119.5 300.5v680h98v-655q0 -160 100.5 -257t264.5 -97t264 97t100 257v655z" />
    <glyph glyph-name="Amacron" unicode="&#x100;" horiz-adv-x="1464" 
d="M1034 1864v-82h-600v82h600zM1341 0l-188 432h-840l-190 -432h-113l672 1516h100l672 -1516h-113zM350 520h764l-381 871z" />
    <glyph glyph-name="amacron" unicode="&#x101;" horiz-adv-x="1130" 
d="M858 1423v-82h-600v82h600zM152 1075h802v-1075h-96l-2 238v22q-55 -131 -171 -205.5t-257 -74.5q-156 0 -251 83.5t-95 221.5q0 145 118.5 233t313.5 88q180 0 342 -43v430h-704v82zM453 55q72 0 142.5 29.5t129 82.5t95 137.5t36.5 184.5q-154 43 -330 43
q-154 0 -248 -67.5t-94 -177.5q0 -105 73.5 -168.5t195.5 -63.5z" />
    <glyph glyph-name="Abreve" unicode="&#x102;" horiz-adv-x="1464" 
d="M733 1690q-141 0 -227 87t-86 230h86q0 -113 62.5 -182.5t164.5 -69.5q101 0 163 69.5t62 182.5h86q0 -142 -85.5 -229.5t-225.5 -87.5zM1341 0l-188 432h-840l-190 -432h-113l672 1516h100l672 -1516h-113zM350 520h764l-381 871z" />
    <glyph glyph-name="abreve" unicode="&#x103;" horiz-adv-x="1130" 
d="M557 1249q-141 0 -227 87.5t-86 230.5h86q0 -113 62.5 -182.5t164.5 -69.5q101 0 163 69.5t62 182.5h86q0 -143 -86 -230.5t-225 -87.5zM152 1075h802v-1075h-96l-2 238v22q-55 -131 -171 -205.5t-257 -74.5q-156 0 -251 83.5t-95 221.5q0 145 118.5 233t313.5 88
q180 0 342 -43v430h-704v82zM453 55q72 0 142.5 29.5t129 82.5t95 137.5t36.5 184.5q-154 43 -330 43q-154 0 -248 -67.5t-94 -177.5q0 -105 73.5 -168.5t195.5 -63.5z" />
    <glyph glyph-name="Aogonek" unicode="&#x104;" horiz-adv-x="1464" 
d="M1448 -352l12 -62q-66 -57 -155 -57q-74 0 -120 42.5t-46 111.5q0 80 58.5 162.5t160.5 154.5h-17l-188 432h-840l-190 -432h-113l672 1516h100l672 -1516q-115 -76 -173 -155t-58 -152q0 -43 27 -71t71 -28q70 0 127 54zM350 520h764l-381 871z" />
    <glyph glyph-name="aogonek" unicode="&#x105;" horiz-adv-x="1130" 
d="M948 -352l13 -62q-66 -57 -156 -57q-74 0 -120 42.5t-46 111.5q0 157 221 317h-2l-2 238v22q-55 -131 -171 -205.5t-257 -74.5q-156 0 -251 83.5t-95 221.5q0 145 118.5 233t313.5 88q180 0 342 -43v430h-704v82h802v-1075q-115 -76 -173 -155t-58 -152q0 -43 27 -71
t71 -28q70 0 127 54zM453 55q72 0 142.5 29.5t129 82.5t95 137.5t36.5 184.5q-154 43 -330 43q-154 0 -248 -67.5t-94 -177.5q0 -105 73.5 -168.5t195.5 -63.5z" />
    <glyph glyph-name="Cacute" unicode="&#x106;" horiz-adv-x="1390" 
d="M782 1710l262 297h130l-302 -297h-90zM858 -20q-334 0 -538.5 214t-204.5 564t204.5 564t538.5 214q252 0 434 -137v-105q-175 154 -432 154q-286 0 -460.5 -190t-174.5 -500t174.5 -500t460.5 -190q258 0 432 153v-104q-182 -137 -434 -137z" />
    <glyph glyph-name="cacute" unicode="&#x107;" horiz-adv-x="980" 
d="M547 1270l262 297h129l-301 -297h-90zM629 -20q-236 0 -380.5 153t-144.5 404q0 252 144.5 405.5t380.5 153.5q138 0 252 -86v-99q-104 99 -250 99q-191 0 -306.5 -129.5t-115.5 -343.5q0 -212 116 -341.5t306 -129.5q149 0 252 98v-96q-112 -88 -254 -88z" />
    <glyph glyph-name="Cdotaccent" unicode="&#x10a;" horiz-adv-x="1390" 
d="M846 1823q-32 0 -54 21.5t-22 53.5q0 31 22 52.5t54 21.5q31 0 52.5 -21.5t21.5 -52.5q0 -32 -21.5 -53.5t-52.5 -21.5zM858 -20q-334 0 -538.5 214t-204.5 564t204.5 564t538.5 214q252 0 434 -137v-105q-175 154 -432 154q-286 0 -460.5 -190t-174.5 -500t174.5 -500
t460.5 -190q258 0 432 153v-104q-182 -137 -434 -137z" />
    <glyph glyph-name="cdotaccent" unicode="&#x10b;" horiz-adv-x="980" 
d="M610 1382q-32 0 -53.5 22t-21.5 54q0 31 21.5 52.5t53.5 21.5q31 0 52.5 -21.5t21.5 -52.5q0 -32 -21.5 -54t-52.5 -22zM629 -20q-236 0 -380.5 153t-144.5 404q0 252 144.5 405.5t380.5 153.5q138 0 252 -86v-99q-104 99 -250 99q-191 0 -306.5 -129.5t-115.5 -343.5
q0 -212 116 -341.5t306 -129.5q149 0 252 98v-96q-112 -88 -254 -88z" />
    <glyph glyph-name="Ccaron" unicode="&#x10c;" horiz-adv-x="1390" 
d="M899 1710h-108l-265 297h101l219 -238l217 238h98zM860 1448q-286 0 -460.5 -190t-174.5 -500t174.5 -500t460.5 -190q258 0 432 153v-104q-182 -137 -434 -137q-334 0 -538.5 214t-204.5 564t204.5 564t538.5 214q252 0 434 -137v-105q-175 154 -432 154z" />
    <glyph glyph-name="ccaron" unicode="&#x10d;" horiz-adv-x="980" 
d="M664 1270h-109l-264 297h100l219 -238l217 238h99zM209 537q0 -212 116 -341.5t306 -129.5q149 0 252 98v-96q-112 -88 -254 -88q-236 0 -380.5 153t-144.5 404q0 252 144.5 405.5t380.5 153.5q138 0 252 -86v-99q-104 99 -250 99q-191 0 -306.5 -129.5t-115.5 -343.5z
" />
    <glyph glyph-name="Dcaron" unicode="&#x10e;" horiz-adv-x="1546" 
d="M694 1710h-108l-264 297h100l219 -238l217 238h98zM700 1516q162 0 298.5 -55t232 -154t148.5 -241.5t53 -311.5q0 -339 -201.5 -546.5t-530.5 -207.5h-483v1516h483zM684 88q287 0 462 183t175 483q0 303 -175 488t-462 185h-360v-1339h360z" />
    <glyph glyph-name="dcaron" unicode="&#x10f;" horiz-adv-x="1368" 
d="M1077 805v792h99v-1597h-97l-2 254v14q-55 -135 -169.5 -211.5t-286.5 -76.5q-230 0 -373.5 153.5t-143.5 401.5q0 251 143.5 406t373.5 155q172 0 286.5 -77.5t169.5 -213.5zM1403 1597h94l-145 -383h-78zM643 66q195 0 314.5 129.5t119.5 341.5t-119.5 342.5
t-314.5 130.5q-196 0 -315 -130.5t-119 -344.5q0 -212 119 -340.5t315 -128.5z" />
    <glyph glyph-name="Dcroat" unicode="&#x110;" horiz-adv-x="1546" 
d="M700 1516q162 0 298.5 -55t232 -154t148.5 -241.5t53 -311.5q0 -339 -201.5 -546.5t-530.5 -207.5h-483v725h-178v76h178v715h483zM684 88q287 0 462 183t175 483q0 303 -175 488t-462 185h-360v-626h440v-76h-440v-637h360z" />
    <glyph glyph-name="dcroat" unicode="&#x111;" horiz-adv-x="1351" 
d="M1356 1380v-75h-180v-1305h-97l-2 254v14q-55 -135 -169.5 -211.5t-286.5 -76.5q-230 0 -373.5 153.5t-143.5 401.5q0 251 143.5 406t373.5 155q172 0 286.5 -77.5t169.5 -213.5v500h-446v75h446v217h99v-217h180zM643 66q195 0 314.5 129.5t119.5 341.5t-119.5 342.5
t-314.5 130.5q-196 0 -315 -130.5t-119 -344.5q0 -212 119 -340.5t315 -128.5z" />
    <glyph glyph-name="Emacron" unicode="&#x112;" 
d="M967 1864v-82h-600v82h600zM324 88h811v-88h-918v1516h899v-89h-792v-608h745v-90h-745v-641z" />
    <glyph glyph-name="emacron" unicode="&#x113;" horiz-adv-x="1193" 
d="M905 1423v-82h-600v82h600zM1100 551v-51h-887q9 -200 114.5 -320.5t278.5 -120.5q115 0 213 54.5t170 150.5l74 -47q-81 -116 -198.5 -176.5t-256.5 -60.5q-226 0 -364 154.5t-138 406.5q0 250 137 402.5t361 152.5q223 0 359.5 -150t136.5 -395zM604 1014
q-174 0 -279.5 -119.5t-113.5 -321.5h786q-8 201 -114 321t-279 120z" />
    <glyph glyph-name="Edotaccent" unicode="&#x116;" 
d="M666 1823q-32 0 -54 21.5t-22 53.5q0 31 22 52.5t54 21.5q31 0 52 -21.5t21 -52.5q0 -32 -21 -53.5t-52 -21.5zM324 88h811v-88h-918v1516h899v-89h-792v-608h745v-90h-745v-641z" />
    <glyph glyph-name="edotaccent" unicode="&#x117;" horiz-adv-x="1193" 
d="M604 1382q-32 0 -54 22t-22 54q0 31 22 52.5t54 21.5q31 0 52.5 -21.5t21.5 -52.5q0 -32 -21.5 -54t-52.5 -22zM1100 551v-51h-887q9 -200 114.5 -320.5t278.5 -120.5q115 0 213 54.5t170 150.5l74 -47q-81 -116 -198.5 -176.5t-256.5 -60.5q-226 0 -364 154.5
t-138 406.5q0 250 137 402.5t361 152.5q223 0 359.5 -150t136.5 -395zM604 1014q-174 0 -279.5 -119.5t-113.5 -321.5h786q-8 201 -114 321t-279 120z" />
    <glyph glyph-name="Eogonek" unicode="&#x118;" 
d="M1128 -352l13 -62q-66 -57 -156 -57q-74 0 -120 42.5t-46 111.5q0 157 221 317h-823v1516h899v-89h-792v-608h745v-90h-745v-641h811v-88q-116 -76 -174 -155t-58 -152q0 -43 27 -71t71 -28q70 0 127 54z" />
    <glyph glyph-name="eogonek" unicode="&#x119;" horiz-adv-x="1193" 
d="M1100 551v-51h-887q9 -200 114.5 -320.5t278.5 -120.5q115 0 213 54.5t170 150.5l74 -47q-117 -166 -301 -217q-116 -76 -174 -155t-58 -152q0 -43 27.5 -71t71.5 -28q70 0 127 54l12 -62q-66 -57 -156 -57q-74 0 -120 42.5t-46 111.5q0 147 195 297h-33
q-226 0 -364 154.5t-138 406.5q0 250 137 402.5t361 152.5q223 0 359.5 -150t136.5 -395zM604 1014q-174 0 -279.5 -119.5t-113.5 -321.5h786q-8 201 -114 321t-279 120z" />
    <glyph glyph-name="Ecaron" unicode="&#x11a;" 
d="M719 1710h-109l-264 297h100l220 -238l217 238h98zM324 88h811v-88h-918v1516h899v-89h-792v-608h745v-90h-745v-641z" />
    <glyph glyph-name="ecaron" unicode="&#x11b;" horiz-adv-x="1193" 
d="M657 1270h-108l-264 297h100l219 -238l217 238h99zM1100 551v-51h-887q9 -200 114.5 -320.5t278.5 -120.5q115 0 213 54.5t170 150.5l74 -47q-81 -116 -198.5 -176.5t-256.5 -60.5q-226 0 -364 154.5t-138 406.5q0 250 137 402.5t361 152.5q223 0 359.5 -150t136.5 -395z
M604 1014q-174 0 -279.5 -119.5t-113.5 -321.5h786q-8 201 -114 321t-279 120z" />
    <glyph glyph-name="Gbreve" unicode="&#x11e;" horiz-adv-x="1619" 
d="M844 1690q-141 0 -227.5 87.5t-86.5 229.5h86q0 -113 62.5 -182.5t165.5 -69.5q101 0 163 69.5t62 182.5h86q0 -142 -85.5 -229.5t-225.5 -87.5zM1546 786v-28q0 -358 -189.5 -568t-512.5 -210q-327 0 -527 214t-200 564t200 564t527 214q150 0 267 -34.5t228 -117.5
l-69 -69q-171 133 -424 133q-278 0 -448.5 -190t-170.5 -500t170.5 -500t448.5 -190q263 0 422 171t168 457h-516v90h626z" />
    <glyph glyph-name="gbreve" unicode="&#x11f;" horiz-adv-x="1351" 
d="M668 1249q-141 0 -227.5 87.5t-86.5 230.5h86q0 -113 62.5 -182.5t165.5 -69.5q101 0 163 69.5t62 182.5h86q0 -143 -86 -230.5t-225 -87.5zM1081 1075h97v-1526h-1031v84h932v637q-55 -136 -169.5 -213t-286.5 -77q-230 0 -373.5 154.5t-143.5 406.5q0 248 143.5 401.5
t373.5 153.5q172 0 286.5 -77.5t169.5 -213.5v16zM645 66q195 0 314.5 129.5t119.5 341.5q0 213 -119.5 343t-314.5 130q-196 0 -315 -129.5t-119 -341.5q0 -214 119 -343.5t315 -129.5z" />
    <glyph glyph-name="Gdotaccent" unicode="&#x120;" horiz-adv-x="1619" 
d="M844 1823q-32 0 -54 21.5t-22 53.5q0 31 22 52.5t54 21.5q31 0 52.5 -21.5t21.5 -52.5q0 -32 -21.5 -53.5t-52.5 -21.5zM1546 786v-28q0 -358 -189.5 -568t-512.5 -210q-327 0 -527 214t-200 564t200 564t527 214q150 0 267 -34.5t228 -117.5l-69 -69q-171 133 -424 133
q-278 0 -448.5 -190t-170.5 -500t170.5 -500t448.5 -190q263 0 422 171t168 457h-516v90h626z" />
    <glyph glyph-name="gdotaccent" unicode="&#x121;" horiz-adv-x="1351" 
d="M668 1382q-32 0 -54 22t-22 54q0 31 22 52.5t54 21.5q31 0 52 -21.5t21 -52.5q0 -32 -21 -54t-52 -22zM1081 1075h97v-1526h-1031v84h932v637q-55 -136 -169.5 -213t-286.5 -77q-230 0 -373.5 154.5t-143.5 406.5q0 248 143.5 401.5t373.5 153.5q172 0 286.5 -77.5
t169.5 -213.5v16zM645 66q195 0 314.5 129.5t119.5 341.5q0 213 -119.5 343t-314.5 130q-196 0 -315 -129.5t-119 -341.5q0 -214 119 -343.5t315 -129.5z" />
    <glyph glyph-name="Gcommaaccent" unicode="&#x122;" horiz-adv-x="1619" 
d="M1546 786v-28q0 -358 -189.5 -568t-512.5 -210q-327 0 -527 214t-200 564t200 564t527 214q150 0 267 -34.5t228 -117.5l-69 -69q-171 133 -424 133q-278 0 -448.5 -190t-170.5 -500t170.5 -500t448.5 -190q263 0 422 171t168 457h-516v90h626zM686 -451l115 345h96
l-133 -345h-78z" />
    <glyph glyph-name="gcommaaccent" unicode="&#x123;" horiz-adv-x="1351" 
d="M817 1597l-129 -383h-96l145 383h80zM1081 1075h97v-1526h-1031v84h932v637q-55 -136 -169.5 -213t-286.5 -77q-230 0 -373.5 154.5t-143.5 406.5q0 248 143.5 401.5t373.5 153.5q172 0 286.5 -77.5t169.5 -213.5v16zM645 66q195 0 314.5 129.5t119.5 341.5
q0 213 -119.5 343t-314.5 130q-196 0 -315 -129.5t-119 -341.5q0 -214 119 -343.5t315 -129.5z" />
    <glyph glyph-name="Hbar" unicode="&#x126;" horiz-adv-x="1630" 
d="M1593 1225v-76h-182v-1149h-104v725h-983v-725h-107v1149h-186v76h186v291h107v-291h983v291h104v-291h182zM1307 813v336h-983v-336h983z" />
    <glyph glyph-name="hbar" unicode="&#x127;" horiz-adv-x="1288" 
d="M680 1096q200 0 323 -114.5t123 -303.5v-678h-98v655q0 160 -104 257.5t-273 97.5t-273 -97.5t-104 -257.5v-655h-98v1305h-180v75h180v217h98v-217h447v-75h-447v-437q49 108 151.5 168t254.5 60z" />
    <glyph glyph-name="Imacron" unicode="&#x12a;" horiz-adv-x="540" 
d="M-29 1782v82h600v-82h-600zM217 0v1516h107v-1516h-107z" />
    <glyph glyph-name="imacron" unicode="&#x12b;" horiz-adv-x="458" 
d="M-70 1341v82h600v-82h-600zM180 0v1075h99v-1075h-99z" />
    <glyph glyph-name="Iogonek" unicode="&#x12e;" horiz-adv-x="540" 
d="M317 -352l13 -62q-66 -57 -156 -57q-74 0 -120 42.5t-46 111.5q0 157 221 317h-12v1516h107v-1516q-116 -76 -174 -155t-58 -152q0 -43 27 -71t71 -28q70 0 127 54z" />
    <glyph glyph-name="iogonek" unicode="&#x12f;" horiz-adv-x="458" 
d="M229 1382q-32 0 -53.5 22t-21.5 54q0 31 21.5 52.5t53.5 21.5q31 0 52.5 -21.5t21.5 -52.5q0 -32 -21.5 -54t-52.5 -22zM145 -406q70 0 127 54l13 -62q-66 -57 -156 -57q-74 0 -120 42.5t-46 111.5q0 157 221 317h-4v1075h99v-1075q-116 -76 -174 -155t-58 -152
q0 -43 27 -71t71 -28z" />
    <glyph glyph-name="Idotaccent" unicode="&#x130;" horiz-adv-x="540" 
d="M270 1823q-32 0 -53.5 21.5t-21.5 53.5q0 31 21.5 52.5t53.5 21.5q31 0 52.5 -21.5t21.5 -52.5q0 -32 -21.5 -53.5t-52.5 -21.5zM217 0v1516h107v-1516h-107z" />
    <glyph glyph-name="dotlessi" unicode="&#x131;" horiz-adv-x="458" 
d="M180 0v1075h99v-1075h-99z" />
    <glyph glyph-name="Kcommaaccent" unicode="&#x136;" horiz-adv-x="1366" 
d="M745 776l601 -776h-132l-563 733h-327v-733h-107v1516h107v-695h329l543 695h131zM586 -451l114 345h97l-133 -345h-78z" />
    <glyph glyph-name="kcommaaccent" unicode="&#x137;" horiz-adv-x="1138" 
d="M625 563l501 -563h-127l-456 522h-269v-522h-98v1597h98v-991h269l432 469h127zM436 -451l115 345h96l-133 -345h-78z" />
    <glyph glyph-name="Lacute" unicode="&#x139;" horiz-adv-x="1085" 
d="M598 2007l-301 -297h-90l262 297h129zM324 88h733v-88h-840v1516h107v-1428z" />
    <glyph glyph-name="lacute" unicode="&#x13a;" horiz-adv-x="530" 
d="M170 1792l262 297h129l-301 -297h-90zM184 0v1597h99v-1513h235v-84h-334z" />
    <glyph glyph-name="Lcommaaccent" unicode="&#x13b;" horiz-adv-x="1085" 
d="M324 88h733v-88h-840v1516h107v-1428zM442 -451l115 345h96l-133 -345h-78z" />
    <glyph glyph-name="lcommaaccent" unicode="&#x13c;" horiz-adv-x="530" 
d="M184 0v1597h99v-1513h235v-84h-334zM190 -451l115 345h96l-133 -345h-78z" />
    <glyph glyph-name="Lcaron" unicode="&#x13d;" horiz-adv-x="1058" 
d="M324 88h733v-88h-840v1516h107v-1428zM936 1516l-148 -398h-88l131 398h105z" />
    <glyph glyph-name="lcaron" unicode="&#x13e;" horiz-adv-x="538" 
d="M184 0v1597h99v-1513h235v-84h-334zM381 1214l129 383h94l-145 -383h-78z" />
    <glyph glyph-name="Lslash" unicode="&#x141;" horiz-adv-x="1085" 
d="M324 88h733v-88h-840v733l-168 -119v88l168 119v695h107v-633l227 157v-88l-227 -157v-707z" />
    <glyph glyph-name="lslash" unicode="&#x142;" horiz-adv-x="530" 
d="M283 84h235v-84h-334v758l-204 -144v88l204 144v751h99v-694l198 137v-88l-198 -137v-731z" />
    <glyph glyph-name="Nacute" unicode="&#x143;" horiz-adv-x="1697" 
d="M784 1710l263 297h129l-302 -297h-90zM217 0v1516h70l1089 -1330v1330h105v-1516h-70l-1089 1329l2 -1329h-107z" />
    <glyph glyph-name="nacute" unicode="&#x144;" horiz-adv-x="1288" 
d="M981 1567l-301 -297h-90l262 297h129zM680 1096q200 0 323 -114.5t123 -303.5v-678h-98v655q0 160 -104 257.5t-273 97.5t-273 -97.5t-104 -257.5v-655h-98v1075h96l2 -209q49 109 151 169.5t255 60.5z" />
    <glyph glyph-name="Ncommaaccent" unicode="&#x145;" horiz-adv-x="1697" 
d="M217 0v1516h70l1089 -1330v1330h105v-1516h-70l-1089 1329l2 -1329h-107zM705 -451l114 345h96l-133 -345h-77z" />
    <glyph glyph-name="ncommaaccent" unicode="&#x146;" horiz-adv-x="1288" 
d="M680 1096q200 0 323 -114.5t123 -303.5v-678h-98v655q0 160 -104 257.5t-273 97.5t-273 -97.5t-104 -257.5v-655h-98v1075h96l2 -209q49 109 151 169.5t255 60.5zM506 -451l115 345h96l-133 -345h-78z" />
    <glyph glyph-name="Ncaron" unicode="&#x147;" horiz-adv-x="1697" 
d="M901 1710h-108l-265 297h101l219 -238l217 238h98zM1376 1516h105v-1516h-70l-1089 1329l2 -1329h-107v1516h70l1089 -1330v1330z" />
    <glyph glyph-name="ncaron" unicode="&#x148;" horiz-adv-x="1288" 
d="M707 1270h-109l-264 297h100l219 -238l217 238h99zM680 1096q200 0 323 -114.5t123 -303.5v-678h-98v655q0 160 -104 257.5t-273 97.5t-273 -97.5t-104 -257.5v-655h-98v1075h96l2 -209q49 109 151 169.5t255 60.5z" />
    <glyph glyph-name="Eng" unicode="&#x14a;" horiz-adv-x="1697" 
d="M1376 1516h105v-1684q0 -138 -88 -220.5t-240 -82.5q-80 0 -151.5 26.5t-114.5 75.5l28 74q91 -88 226 -88q109 0 172 65.5t63 172.5v188l-1054 1286l2 -1329h-107v1516h70l1089 -1330v1330z" />
    <glyph glyph-name="eng" unicode="&#x14b;" horiz-adv-x="1288" 
d="M680 1096q200 0 323 -114.5t123 -303.5v-846q0 -136 -79.5 -219.5t-208.5 -83.5q-102 0 -172 31l8 82q61 -27 143 -27q94 0 152.5 65.5t58.5 172.5v802q0 160 -104 257.5t-273 97.5t-273 -97.5t-104 -257.5v-655h-98v1075h96l2 -209q49 109 151 169.5t255 60.5z" />
    <glyph glyph-name="Omacron" unicode="&#x14c;" horiz-adv-x="1714" 
d="M559 1782v82h600v-82h-600zM858 -20q-334 0 -538.5 214t-204.5 564t204.5 564t538.5 214q333 0 537 -214t204 -564t-204 -564t-537 -214zM858 68q284 0 457.5 189.5t173.5 500.5t-173.5 500.5t-457.5 189.5t-458.5 -190t-174.5 -500t174.5 -500t458.5 -190z" />
    <glyph glyph-name="omacron" unicode="&#x14d;" horiz-adv-x="1284" 
d="M344 1341v82h600v-82h-600zM643 -20q-243 0 -391 153t-148 404q0 252 148 405.5t391 153.5q242 0 389.5 -153.5t147.5 -405.5q0 -250 -147.5 -403.5t-389.5 -153.5zM643 66q195 0 314.5 129.5t119.5 341.5q0 213 -119.5 343t-314.5 130q-196 0 -315 -129.5t-119 -343.5
q0 -212 119 -341.5t315 -129.5z" />
    <glyph glyph-name="Ohungarumlaut" unicode="&#x150;" horiz-adv-x="1714" 
d="M666 1710l217 297h127l-254 -297h-90zM934 1710l217 297h127l-254 -297h-90zM858 -20q-334 0 -538.5 214t-204.5 564t204.5 564t538.5 214q333 0 537 -214t204 -564t-204 -564t-537 -214zM858 68q284 0 457.5 189.5t173.5 500.5t-173.5 500.5t-457.5 189.5t-458.5 -190
t-174.5 -500t174.5 -500t458.5 -190z" />
    <glyph glyph-name="ohungarumlaut" unicode="&#x151;" horiz-adv-x="1284" 
d="M451 1270l217 297h127l-254 -297h-90zM719 1270l217 297h127l-254 -297h-90zM643 -20q-243 0 -391 153t-148 404q0 252 148 405.5t391 153.5q242 0 389.5 -153.5t147.5 -405.5q0 -250 -147.5 -403.5t-389.5 -153.5zM643 66q195 0 314.5 129.5t119.5 341.5
q0 213 -119.5 343t-314.5 130q-196 0 -315 -129.5t-119 -343.5q0 -212 119 -341.5t315 -129.5z" />
    <glyph glyph-name="OE" unicode="&#x152;" horiz-adv-x="2537" 
d="M1599 88h814v-88h-918v360q-89 -180 -255.5 -280t-385.5 -100q-333 0 -536 214t-203 564t203 564t536 214q219 0 385.5 -100.5t255.5 -280.5v361h897v-89h-793v-608h748v-90h-748v-641zM858 68q284 0 457.5 189.5t173.5 500.5t-173.5 500.5t-457.5 189.5t-458.5 -190
t-174.5 -500t174.5 -500t458.5 -190z" />
    <glyph glyph-name="oe" unicode="&#x153;" horiz-adv-x="2164" 
d="M2071 551v-51h-889q11 -200 116.5 -320.5t278.5 -120.5q115 0 213 54.5t170 150.5l74 -47q-81 -116 -197 -176.5t-254 -60.5q-167 0 -287 93.5t-168 256.5q-51 -164 -180 -257t-309 -93q-241 0 -388 153t-147 404q0 252 147 405.5t388 153.5q179 0 307.5 -92.5
t181.5 -255.5q46 162 165.5 255t285.5 93q221 0 356.5 -150t135.5 -395zM1575 1014q-174 0 -280 -119.5t-115 -321.5h788q-8 201 -114 321t-279 120zM643 66q195 0 314.5 129.5t119.5 341.5q0 213 -119.5 343t-314.5 130t-314.5 -130t-119.5 -343q0 -212 119.5 -341.5
t314.5 -129.5z" />
    <glyph glyph-name="Racute" unicode="&#x154;" horiz-adv-x="1404" 
d="M993 2007l-301 -297h-90l262 297h129zM1348 0h-125l-426 643q-16 -2 -49 -2h-424v-641h-107v1516h531q226 0 362.5 -120.5t136.5 -318.5q0 -158 -91.5 -269t-250.5 -149zM739 729q178 0 288 96.5t110 251.5q0 158 -111 254t-293 96h-409v-698h415z" />
    <glyph glyph-name="racute" unicode="&#x155;" horiz-adv-x="729" 
d="M743 1567l-301 -297h-90l262 297h129zM274 868q102 228 439 228l-8 -90q-205 0 -318 -98t-113 -267v-641h-98v1075h96z" />
    <glyph glyph-name="Rcommaaccent" unicode="&#x156;" horiz-adv-x="1404" 
d="M1348 0h-125l-426 643q-16 -2 -49 -2h-424v-641h-107v1516h531q226 0 362.5 -120.5t136.5 -318.5q0 -158 -91.5 -269t-250.5 -149zM739 729q178 0 288 96.5t110 251.5q0 158 -111 254t-293 96h-409v-698h415zM571 -451l115 345h96l-133 -345h-78z" />
    <glyph glyph-name="rcommaaccent" unicode="&#x157;" horiz-adv-x="729" 
d="M274 868q102 228 439 228l-8 -90q-205 0 -318 -98t-113 -267v-641h-98v1075h96zM109 -451l114 345h96l-133 -345h-77z" />
    <glyph glyph-name="Rcaron" unicode="&#x158;" horiz-adv-x="1404" 
d="M719 1710h-109l-264 297h100l220 -238l217 238h98zM1348 0h-125l-426 643q-16 -2 -49 -2h-424v-641h-107v1516h531q226 0 362.5 -120.5t136.5 -318.5q0 -158 -91.5 -269t-250.5 -149zM739 729q178 0 288 96.5t110 251.5q0 158 -111 254t-293 96h-409v-698h415z" />
    <glyph glyph-name="rcaron" unicode="&#x159;" horiz-adv-x="729" 
d="M469 1270h-109l-264 297h101l219 -238l217 238h98zM274 868q102 228 439 228l-8 -90q-205 0 -318 -98t-113 -267v-641h-98v1075h96z" />
    <glyph glyph-name="Sacute" unicode="&#x15a;" horiz-adv-x="1251" 
d="M565 1710l262 297h129l-301 -297h-90zM610 -20q-148 0 -274.5 43t-202.5 129l47 75q156 -159 420 -159q195 0 312.5 83.5t117.5 221.5q0 55 -21 101.5t-55.5 81t-90.5 65.5t-115.5 53.5t-139.5 46.5l-106 33q-66 19 -117 39.5t-102 53t-84 71.5t-53.5 95t-20.5 124
q0 180 137.5 289.5t364.5 109.5q287 0 456 -174l-53 -76q-159 162 -407 162q-174 0 -280.5 -82t-106.5 -215q0 -54 18 -98.5t46 -74.5t72.5 -55.5t87 -41.5t99.5 -33l113 -35q76 -23 131.5 -43.5t124 -58t112 -80t73.5 -107.5t30 -143q0 -180 -147.5 -290.5t-385.5 -110.5z
" />
    <glyph glyph-name="sacute" unicode="&#x15b;" horiz-adv-x="958" 
d="M408 1270l262 297h129l-301 -297h-90zM467 -20q-240 0 -354 108l45 64q118 -93 309 -93q129 0 208 59t79 154q0 151 -242 220l-125 36q-137 39 -207.5 100t-70.5 173q0 132 99.5 213.5t260.5 81.5q203 0 352 -92l-45 -72q-125 82 -299 82q-119 0 -192.5 -54.5
t-73.5 -146.5q0 -80 55.5 -125.5t159.5 -75.5l127 -37q50 -15 91 -31.5t81.5 -42.5t68.5 -56.5t45 -73t17 -92.5q0 -135 -105 -217t-284 -82z" />
    <glyph glyph-name="Scedilla" unicode="&#x15e;" horiz-adv-x="1251" 
d="M1143 381q0 -165 -126.5 -273.5t-336.5 -125.5l-82 -127q32 4 51 4q97 0 156 -44.5t59 -115.5q0 -77 -64.5 -123.5t-172.5 -46.5q-130 0 -191 61l25 52q51 -54 157 -54q75 0 119.5 30.5t44.5 80.5q0 47 -43.5 75.5t-115.5 28.5q-55 0 -101 -18l-18 35l102 160
q-147 0 -271.5 43t-201.5 129l47 75q156 -159 420 -159q195 0 312.5 83.5t117.5 221.5q0 55 -21 101.5t-55.5 81t-90.5 65.5t-115.5 53.5t-139.5 46.5l-106 33q-66 19 -117 39.5t-102 53t-84 71.5t-53.5 95t-20.5 124q0 180 137.5 289.5t364.5 109.5q287 0 456 -174l-53 -76
q-159 162 -407 162q-174 0 -280.5 -82t-106.5 -215q0 -54 18 -98.5t46 -74.5t72.5 -55.5t87 -41.5t99.5 -33l113 -35q76 -23 131.5 -43.5t124 -58t112 -80t73.5 -107.5t30 -143z" />
    <glyph glyph-name="scedilla" unicode="&#x15f;" horiz-adv-x="958" 
d="M856 279q0 -125 -91 -205t-247 -92l-82 -127q32 4 51 4q97 0 156 -44.5t59 -115.5q0 -77 -64.5 -123.5t-172.5 -46.5q-130 0 -191 61l25 52q51 -54 158 -54q75 0 119.5 30.5t44.5 80.5q0 47 -44 75.5t-116 28.5q-55 0 -101 -18l-18 35l102 160q-223 6 -331 108l45 64
q118 -93 309 -93q129 0 208 59t79 154q0 151 -242 220l-125 36q-137 39 -207.5 100t-70.5 173q0 132 99.5 213.5t260.5 81.5q203 0 352 -92l-45 -72q-125 82 -299 82q-119 0 -192.5 -54.5t-73.5 -146.5q0 -80 55.5 -125.5t159.5 -75.5l127 -37q50 -15 91 -31.5t81.5 -42.5
t68.5 -56.5t45 -73t17 -92.5z" />
    <glyph glyph-name="Scaron" unicode="&#x160;" horiz-adv-x="1251" 
d="M682 1710h-109l-264 297h101l219 -238l217 238h98zM672 813q76 -23 131.5 -43.5t124 -58t112 -80t73.5 -107.5t30 -143q0 -180 -147.5 -290.5t-385.5 -110.5q-148 0 -274.5 43t-202.5 129l47 75q156 -159 420 -159q195 0 312.5 83.5t117.5 221.5q0 55 -21 101.5t-55.5 81
t-90.5 65.5t-115.5 53.5t-139.5 46.5l-106 33q-66 19 -117 39.5t-102 53t-84 71.5t-53.5 95t-20.5 124q0 180 137.5 289.5t364.5 109.5q287 0 456 -174l-53 -76q-159 162 -407 162q-174 0 -280.5 -82t-106.5 -215q0 -54 18 -98.5t46 -74.5t72.5 -55.5t87 -41.5t99.5 -33z
" />
    <glyph glyph-name="scaron" unicode="&#x161;" horiz-adv-x="958" 
d="M524 1270h-108l-264 297h100l219 -238l217 238h98zM553 575q50 -15 91 -31.5t81.5 -42.5t68.5 -56.5t45 -73t17 -92.5q0 -135 -105 -217t-284 -82q-240 0 -354 108l45 64q118 -93 309 -93q129 0 208 59t79 154q0 151 -242 220l-125 36q-137 39 -207.5 100t-70.5 173
q0 132 99.5 213.5t260.5 81.5q203 0 352 -92l-45 -72q-125 82 -299 82q-119 0 -192.5 -54.5t-73.5 -146.5q0 -80 55.5 -125.5t159.5 -75.5z" />
    <glyph glyph-name="uni0162" unicode="&#x162;" horiz-adv-x="1155" 
d="M629 0h-15l-94 -145q32 4 51 4q97 0 156 -44.5t59 -115.5q0 -77 -64.5 -123.5t-172.5 -46.5q-130 0 -191 61l25 52q51 -54 158 -54q75 0 119.5 30.5t44.5 80.5q0 47 -44 75.5t-116 28.5q-55 0 -101 -18l-18 35l115 180h-17v1427h-497v89h1101v-89h-499v-1427z" />
    <glyph glyph-name="uni0163" unicode="&#x163;" horiz-adv-x="677" 
d="M408 0h-15l-94 -145q36 4 55 4q97 0 156 -44.5t59 -115.5q0 -77 -64.5 -123.5t-172.5 -46.5q-130 0 -191 61l25 52q51 -54 156 -54q76 0 120.5 30.5t44.5 80.5q0 47 -43.5 75.5t-115.5 28.5q-54 0 -101 -18l-18 35l115 180h-15v991h-284v84h284v316h99v-316h282v-84h-282
v-991z" />
    <glyph glyph-name="Tcaron" unicode="&#x164;" horiz-adv-x="1155" 
d="M629 1710h-109l-264 297h100l219 -238l218 238h98zM1128 1516v-89h-499v-1427h-105v1427h-497v89h1101z" />
    <glyph glyph-name="tcaron" unicode="&#x165;" horiz-adv-x="677" 
d="M809 1597l-145 -383h-80l129 383h96zM408 1391v-316h282v-84h-282v-991h-99v991h-284v84h284v316h99z" />
    <glyph glyph-name="Tbar" unicode="&#x166;" horiz-adv-x="1155" 
d="M1128 1427h-499v-649h319v-76h-319v-702h-105v702h-301v76h301v649h-497v89h1101v-89z" />
    <glyph glyph-name="tbar" unicode="&#x167;" horiz-adv-x="686" 
d="M690 991h-282v-420h247v-75h-247v-496h-99v496h-246v75h246v420h-284v84h284v316h99v-316h282v-84z" />
    <glyph glyph-name="Umacron" unicode="&#x16a;" horiz-adv-x="1609" 
d="M506 1782v82h600v-82h-600zM805 -20q-274 0 -440 150t-166 398v988h104v-984q0 -209 138 -336.5t364 -127.5t364 127.5t138 336.5v984h106v-988q0 -247 -167 -397.5t-441 -150.5z" />
    <glyph glyph-name="umacron" unicode="&#x16b;" horiz-adv-x="1251" 
d="M328 1341v82h600v-82h-600zM627 -20q-210 0 -337.5 115.5t-127.5 307.5v672h98v-655q0 -160 100.5 -257t266.5 -97q164 0 264 97t100 257v655h99v-672q0 -191 -127.5 -307t-335.5 -116z" />
    <glyph glyph-name="Uring" unicode="&#x16e;" horiz-adv-x="1609" 
d="M805 1636q-97 0 -157 58.5t-60 154.5t60 154.5t157 58.5t157 -58.5t60 -154.5t-60 -154.5t-157 -58.5zM805 1694q67 0 107 42t40 113t-40 114.5t-107 43.5t-107.5 -43.5t-40.5 -114.5t40.5 -113t107.5 -42zM805 -20q-274 0 -440 150t-166 398v988h104v-984
q0 -209 138 -336.5t364 -127.5t364 127.5t138 336.5v984h106v-988q0 -247 -167 -397.5t-441 -150.5z" />
    <glyph glyph-name="uring" unicode="&#x16f;" horiz-adv-x="1251" 
d="M627 1196q-97 0 -157 58.5t-60 154.5t60 154.5t157 58.5t157 -58.5t60 -154.5t-60 -154.5t-157 -58.5zM627 1253q67 0 107 42.5t40 113.5t-40 114.5t-107 43.5t-107.5 -43.5t-40.5 -114.5t40.5 -113.5t107.5 -42.5zM627 -20q-210 0 -337.5 115.5t-127.5 307.5v672h98
v-655q0 -160 100.5 -257t266.5 -97q164 0 264 97t100 257v655h99v-672q0 -191 -127.5 -307t-335.5 -116z" />
    <glyph glyph-name="Uhungarumlaut" unicode="&#x170;" horiz-adv-x="1609" 
d="M612 1710l217 297h127l-254 -297h-90zM881 1710l217 297h127l-254 -297h-90zM805 -20q-274 0 -440 150t-166 398v988h104v-984q0 -209 138 -336.5t364 -127.5t364 127.5t138 336.5v984h106v-988q0 -247 -167 -397.5t-441 -150.5z" />
    <glyph glyph-name="uhungarumlaut" unicode="&#x171;" horiz-adv-x="1251" 
d="M434 1270l217 297h127l-254 -297h-90zM702 1270l218 297h127l-254 -297h-91zM627 -20q-210 0 -337.5 115.5t-127.5 307.5v672h98v-655q0 -160 100.5 -257t266.5 -97q164 0 264 97t100 257v655h99v-672q0 -191 -127.5 -307t-335.5 -116z" />
    <glyph glyph-name="Uogonek" unicode="&#x172;" horiz-adv-x="1609" 
d="M1307 1516h106v-988q0 -202 -114.5 -342t-311.5 -186q-115 -76 -173 -155t-58 -152q0 -43 27 -71t71 -28q70 0 127 54l12 -62q-66 -57 -155 -57q-74 0 -120 42.5t-46 111.5q0 151 196 299q-20 -2 -63 -2q-274 0 -440 150t-166 398v988h104v-984q0 -209 138 -336.5
t364 -127.5t364 127.5t138 336.5v984z" />
    <glyph glyph-name="uogonek" unicode="&#x173;" horiz-adv-x="1251" 
d="M991 1075h99v-672q0 -152 -83 -259t-227 -144q-114 -76 -171.5 -155t-57.5 -152q0 -43 27 -71t71 -28q70 0 127 54l12 -62q-66 -57 -155 -57q-74 0 -120 42.5t-46 111.5q0 147 195 297h-35q-210 0 -337.5 115.5t-127.5 307.5v672h98v-655q0 -160 100.5 -257t266.5 -97
q164 0 264 97t100 257v655z" />
    <glyph glyph-name="Wcircumflex" unicode="&#x174;" horiz-adv-x="2236" 
d="M1118 1948l-219 -238h-100l264 297h108l263 -297h-99zM2099 1516h113l-549 -1516h-100l-445 1360l-444 -1360h-103l-548 1516h114l490 -1375l440 1375h102l443 -1375z" />
    <glyph glyph-name="wcircumflex" unicode="&#x175;" horiz-adv-x="1863" 
d="M934 1507l-219 -237h-101l265 297h108l262 -297h-98zM1720 1075h111l-428 -1075h-100l-371 958l-371 -958h-100l-428 1075h110l373 -960l371 960h90l371 -960z" />
    <glyph glyph-name="Ycircumflex" unicode="&#x176;" horiz-adv-x="1316" 
d="M662 1948l-220 -238h-100l264 297h109l262 -297h-98zM1161 1516h119l-569 -881v-635h-105v635l-569 881h119l503 -785z" />
    <glyph glyph-name="ycircumflex" unicode="&#x177;" horiz-adv-x="1265" 
d="M627 1507l-219 -237h-101l264 297h109l262 -297h-98zM991 1075h99v-1526h-916v84h817v570q-47 -106 -146.5 -164.5t-246.5 -58.5q-195 0 -314.5 114.5t-119.5 300.5v680h98v-655q0 -160 100.5 -257t264.5 -97t264 97t100 257v655z" />
    <glyph glyph-name="Ydieresis" unicode="&#x178;" horiz-adv-x="1316" 
d="M469 1823q-32 0 -54 21.5t-22 53.5q0 31 22 52.5t54 21.5q31 0 52.5 -21.5t21.5 -52.5q0 -32 -21.5 -53.5t-52.5 -21.5zM852 1823q-31 0 -52.5 21.5t-21.5 53.5q0 31 21.5 52.5t52.5 21.5q32 0 53 -21.5t21 -52.5q0 -32 -21 -53.5t-53 -21.5zM1161 1516h119l-569 -881
v-635h-105v635l-569 881h119l503 -785z" />
    <glyph glyph-name="Zacute" unicode="&#x179;" horiz-adv-x="1153" 
d="M905 2007l-301 -297h-90l262 297h129zM229 88h861v-88h-1027l848 1427h-835v89h1001z" />
    <glyph glyph-name="zacute" unicode="&#x17a;" horiz-adv-x="993" 
d="M434 1270l262 297h129l-301 -297h-90zM70 0l682 991h-674v84h835l-682 -991h693v-84h-854z" />
    <glyph glyph-name="Zdotaccent" unicode="&#x17b;" horiz-adv-x="1153" 
d="M578 1823q-32 0 -54 21.5t-22 53.5q0 31 22 52.5t54 21.5q31 0 52 -21.5t21 -52.5q0 -32 -21 -53.5t-52 -21.5zM229 88h861v-88h-1027l848 1427h-835v89h1001z" />
    <glyph glyph-name="zdotaccent" unicode="&#x17c;" horiz-adv-x="993" 
d="M498 1382q-32 0 -54 22t-22 54q0 31 22 52.5t54 21.5q31 0 52 -21.5t21 -52.5q0 -32 -21 -54t-52 -22zM70 0l682 991h-674v84h835l-682 -991h693v-84h-854z" />
    <glyph glyph-name="Zcaron" unicode="&#x17d;" horiz-adv-x="1153" 
d="M631 1710h-109l-264 297h100l220 -238l217 238h98zM229 88h861v-88h-1027l848 1427h-835v89h1001z" />
    <glyph glyph-name="zcaron" unicode="&#x17e;" horiz-adv-x="993" 
d="M551 1270h-109l-264 297h101l219 -238l217 238h98zM231 84h693v-84h-854l682 991h-674v84h835z" />
    <glyph glyph-name="florin" unicode="&#x192;" horiz-adv-x="954" 
d="M756 1448q-101 0 -175 -64.5t-94 -179.5l-79 -454h428v-88h-445l-151 -867h-103l152 867h-180v88h194l84 477q26 149 124.5 229t248.5 80q78 0 151 -27l-14 -84q-62 23 -141 23z" />
    <glyph glyph-name="Scommaaccent" unicode="&#x218;" horiz-adv-x="1251" 
d="M610 -20q-148 0 -274.5 43t-202.5 129l47 75q156 -159 420 -159q195 0 312.5 83.5t117.5 221.5q0 55 -21 101.5t-55.5 81t-90.5 65.5t-115.5 53.5t-139.5 46.5l-106 33q-66 19 -117 39.5t-102 53t-84 71.5t-53.5 95t-20.5 124q0 180 137.5 289.5t364.5 109.5
q287 0 456 -174l-53 -76q-159 162 -407 162q-174 0 -280.5 -82t-106.5 -215q0 -54 18 -98.5t46 -74.5t72.5 -55.5t87 -41.5t99.5 -33l113 -35q76 -23 131.5 -43.5t124 -58t112 -80t73.5 -107.5t30 -143q0 -180 -147.5 -290.5t-385.5 -110.5zM508 -451l115 345h96l-133 -345
h-78z" />
    <glyph glyph-name="scommaaccent" unicode="&#x219;" horiz-adv-x="958" 
d="M467 -20q-240 0 -354 108l45 64q118 -93 309 -93q129 0 208 59t79 154q0 151 -242 220l-125 36q-137 39 -207.5 100t-70.5 173q0 132 99.5 213.5t260.5 81.5q203 0 352 -92l-45 -72q-125 82 -299 82q-119 0 -192.5 -54.5t-73.5 -146.5q0 -80 55.5 -125.5t159.5 -75.5
l127 -37q50 -15 91 -31.5t81.5 -42.5t68.5 -56.5t45 -73t17 -92.5q0 -135 -105 -217t-284 -82zM346 -451l115 345h96l-133 -345h-78z" />
    <glyph glyph-name="uni021A" unicode="&#x21a;" horiz-adv-x="1155" 
d="M1128 1516v-89h-499v-1427h-105v1427h-497v89h1101zM430 -451l115 345h96l-133 -345h-78z" />
    <glyph glyph-name="uni021B" unicode="&#x21b;" horiz-adv-x="677" 
d="M408 1075h282v-84h-282v-991h-99v991h-284v84h284v316h99v-316zM213 -451l115 345h96l-133 -345h-78z" />
    <glyph glyph-name="circumflex" unicode="&#x2c6;" horiz-adv-x="1228" 
d="M729 1270h-98l-217 237l-219 -237h-101l264 297h109z" />
    <glyph glyph-name="caron" unicode="&#x2c7;" horiz-adv-x="1228" 
d="M631 1567h98l-262 -297h-109l-264 297h101l219 -238z" />
    <glyph glyph-name="breve" unicode="&#x2d8;" horiz-adv-x="1228" 
d="M406 1249q-141 0 -227.5 87.5t-86.5 230.5h86q0 -113 62.5 -182.5t165.5 -69.5q101 0 163 69.5t62 182.5h86q0 -143 -86 -230.5t-225 -87.5z" />
    <glyph glyph-name="dotaccent" unicode="&#x2d9;" horiz-adv-x="1228" 
d="M223 1382q-32 0 -54 22t-22 54q0 31 22 52.5t54 21.5q31 0 52.5 -21.5t21.5 -52.5q0 -32 -21.5 -54t-52.5 -22z" />
    <glyph glyph-name="ring" unicode="&#x2da;" horiz-adv-x="1228" 
d="M350 1196q-97 0 -157 58.5t-60 154.5t60 154.5t157 58.5t157 -58.5t60 -154.5t-60 -154.5t-157 -58.5zM350 1253q67 0 107.5 42.5t40.5 113.5t-40.5 114.5t-107.5 43.5t-107 -43.5t-40 -114.5t40 -113.5t107 -42.5z" />
    <glyph glyph-name="ogonek" unicode="&#x2db;" horiz-adv-x="1228" 
d="M336 -471q-74 0 -120 42.5t-46 111.5q0 93 81.5 190.5t233.5 187.5v-61q-115 -76 -173 -155t-58 -152q0 -43 27 -71t71 -28q70 0 127 54l13 -62q-66 -57 -156 -57z" />
    <glyph glyph-name="tilde" unicode="&#x2dc;" horiz-adv-x="1228" 
d="M639 1290q-39 0 -76.5 16.5t-67 40t-58.5 47t-62 40t-66 16.5q-51 0 -86 -38.5t-35 -100.5h-67q0 99 53.5 160t136.5 61q39 0 77 -16.5t67.5 -39.5t58.5 -46t61.5 -39.5t65.5 -16.5q51 0 86 38t35 99h67q0 -100 -53.5 -160.5t-136.5 -60.5z" />
    <glyph glyph-name="hungarumlaut" unicode="&#x2dd;" horiz-adv-x="1228" 
d="M299 1270l217 297h127l-254 -297h-90zM567 1270l217 297h127l-254 -297h-90z" />
    <glyph glyph-name="gravecomb" unicode="&#x300;" horiz-adv-x="0" 
d="M-365 1270l-299 297h129l263 -297h-93z" />
    <glyph glyph-name="acutecomb" unicode="&#x301;" horiz-adv-x="0" 
d="M-397 1270l262 297h129l-301 -297h-90z" />
    <glyph glyph-name="uni0302" unicode="&#x302;" horiz-adv-x="0" 
d="M-96 1270h-99l-217 237l-219 -237h-100l264 297h109z" />
    <glyph glyph-name="tildecomb" unicode="&#x303;" horiz-adv-x="0" 
d="M-313 1290q-39 0 -76.5 16.5t-67 40t-58.5 47t-62 40t-66 16.5q-51 0 -86 -38.5t-35 -100.5h-67q0 99 53.5 160t136.5 61q39 0 77 -16.5t67.5 -39.5t58.5 -46t61.5 -39.5t65.5 -16.5q51 0 86 38t35 99h67q0 -100 -53.5 -160.5t-136.5 -60.5z" />
    <glyph glyph-name="uni0304" unicode="&#x304;" horiz-adv-x="0" 
d="M-745 1341v82h600v-82h-600z" />
    <glyph glyph-name="uni0306" unicode="&#x306;" horiz-adv-x="0" 
d="M-403 1249q-141 0 -227.5 87.5t-86.5 230.5h86q0 -113 62.5 -182.5t165.5 -69.5q101 0 163 69.5t62 182.5h86q0 -143 -86 -230.5t-225 -87.5z" />
    <glyph glyph-name="uni0307" unicode="&#x307;" horiz-adv-x="0" 
d="M-221 1382q-32 0 -54 22t-22 54q0 31 22 52.5t54 21.5q31 0 52.5 -21.5t21.5 -52.5q0 -32 -21.5 -54t-52.5 -22z" />
    <glyph glyph-name="uni0308" unicode="&#x308;" horiz-adv-x="0" 
d="M-606 1382q-32 0 -54 22t-22 54q0 31 22 52.5t54 21.5q31 0 52.5 -21.5t21.5 -52.5q0 -32 -21.5 -54t-52.5 -22zM-223 1382q-31 0 -52.5 22t-21.5 54q0 31 21.5 52.5t52.5 21.5q32 0 52.5 -21.5t20.5 -52.5q0 -33 -20.5 -54.5t-52.5 -21.5z" />
    <glyph glyph-name="uni030A" unicode="&#x30a;" horiz-adv-x="0" 
d="M-350 1196q-97 0 -157 58.5t-60 154.5t60 154.5t157 58.5t157 -58.5t60 -154.5t-60 -154.5t-157 -58.5zM-350 1253q67 0 107 42.5t40 113.5t-40 114.5t-107 43.5t-107.5 -43.5t-40.5 -114.5t40.5 -113.5t107.5 -42.5z" />
    <glyph glyph-name="uni030B" unicode="&#x30b;" horiz-adv-x="0" 
d="M-680 1270l217 297h127l-254 -297h-90zM-412 1270l217 297h127l-254 -297h-90z" />
    <glyph glyph-name="uni030C" unicode="&#x30c;" horiz-adv-x="0" 
d="M-195 1567h99l-262 -297h-109l-264 297h100l219 -238z" />
    <glyph glyph-name="uni0312" unicode="&#x312;" horiz-adv-x="0" 
d="M-250 1214l146 383h79l-129 -383h-96z" />
    <glyph glyph-name="uni0326" unicode="&#x326;" horiz-adv-x="0" 
d="M-238 -451l115 345h96l-133 -345h-78z" />
    <glyph glyph-name="uni0327" unicode="&#x327;" horiz-adv-x="0" 
d="M-264 -141q97 0 156 -44.5t59 -115.5q0 -77 -65 -123.5t-173 -46.5q-129 0 -190 61l24 52q51 -54 158 -54q75 0 119.5 30.5t44.5 80.5q0 47 -44 75.5t-116 28.5q-53 0 -100 -18l-19 35l115 180h74l-94 -145q32 4 51 4z" />
    <glyph glyph-name="uni0328" unicode="&#x328;" horiz-adv-x="0" 
d="M-188 -471q-74 0 -120 42.5t-46 111.5q0 93 81.5 190.5t233.5 187.5v-61q-115 -76 -173 -155t-58 -152q0 -43 27 -71t71 -28q70 0 127 54l12 -62q-66 -57 -155 -57z" />
    <glyph glyph-name="uni0335" unicode="&#x335;" horiz-adv-x="0" 
d="M-1038 549v76h725v-76h-725z" />
    <glyph glyph-name="uni0336" unicode="&#x336;" horiz-adv-x="0" 
d="M-1745 549v76h1563v-76h-1563z" />
    <glyph glyph-name="uni0337" unicode="&#x337;" horiz-adv-x="0" 
d="M-567 918l252 174v-88l-252 -175v13l-250 -176v88l250 176v-12z" />
    <glyph glyph-name="uni0338" unicode="&#x338;" horiz-adv-x="0" 
d="M-922 -20l-63 40l889 1516l63 -41z" />
    <glyph glyph-name="uni0394" unicode="&#x394;" horiz-adv-x="1579" 
d="M840 1516l671 -1516h-1443l671 1516h101zM219 88h1141l-569 1303z" />
    <glyph glyph-name="uni03A9" unicode="&#x3a9;" horiz-adv-x="1574" 
d="M1030 307v-219h420v-88h-512v377q191 41 301.5 181t110.5 345q0 246 -155 395.5t-407 149.5t-406.5 -149.5t-154.5 -395.5q0 -204 110.5 -343.5t301.5 -182.5v-377h-510v88h420v219q-202 64 -317 220.5t-115 375.5q0 284 184.5 458.5t486.5 174.5q301 0 485.5 -174.5
t184.5 -458.5q0 -220 -113.5 -377t-314.5 -219z" />
    <glyph glyph-name="uni03BC" unicode="&#x3bc;" horiz-adv-x="1280" 
d="M1006 1075h98v-1075h-96l-2 199q-44 -104 -136.5 -161.5t-230.5 -57.5q-270 0 -365 217v-648h-98v1526h98v-655q0 -160 100.5 -257t264.5 -97q166 0 266.5 97t100.5 257v655z" />
    <glyph glyph-name="pi" unicode="&#x3c0;" horiz-adv-x="1390" 
d="M1298 991h-274v-778q0 -66 35 -106.5t92 -40.5q81 0 147 38v-81q-65 -43 -176 -43q-88 0 -142 59t-54 156v796h-502v-991h-98v991h-275v84h1247v-84z" />
    <glyph glyph-name="Wgrave" unicode="&#x1e80;" horiz-adv-x="2236" 
d="M1182 1710h-92l-299 297h129zM2099 1516h113l-549 -1516h-100l-445 1360l-444 -1360h-103l-548 1516h114l490 -1375l440 1375h102l443 -1375z" />
    <glyph glyph-name="wgrave" unicode="&#x1e81;" horiz-adv-x="1863" 
d="M997 1270h-92l-299 297h129zM1720 1075h111l-428 -1075h-100l-371 958l-371 -958h-100l-428 1075h110l373 -960l371 960h90l371 -960z" />
    <glyph glyph-name="Wacute" unicode="&#x1e82;" horiz-adv-x="2236" 
d="M1446 2007l-301 -297h-90l262 297h129zM2099 1516h113l-549 -1516h-100l-445 1360l-444 -1360h-103l-548 1516h114l490 -1375l440 1375h102l443 -1375z" />
    <glyph glyph-name="wacute" unicode="&#x1e83;" horiz-adv-x="1863" 
d="M1262 1567l-301 -297h-91l263 297h129zM1720 1075h111l-428 -1075h-100l-371 958l-371 -958h-100l-428 1075h110l373 -960l371 960h90l371 -960z" />
    <glyph glyph-name="Wdieresis" unicode="&#x1e84;" horiz-adv-x="2236" 
d="M926 1823q-32 0 -54 21.5t-22 53.5q0 31 22 52.5t54 21.5q31 0 52 -21.5t21 -52.5q0 -32 -21 -53.5t-52 -21.5zM1309 1823q-31 0 -52.5 21.5t-21.5 53.5q0 31 21.5 52.5t52.5 21.5q32 0 52.5 -21.5t20.5 -52.5q0 -32 -20.5 -53.5t-52.5 -21.5zM2099 1516h113l-549 -1516
h-100l-445 1360l-444 -1360h-103l-548 1516h114l490 -1375l440 1375h102l443 -1375z" />
    <glyph glyph-name="wdieresis" unicode="&#x1e85;" horiz-adv-x="1863" 
d="M741 1382q-32 0 -53.5 22t-21.5 54q0 31 21.5 52.5t53.5 21.5q31 0 52.5 -21.5t21.5 -52.5q0 -32 -21.5 -54t-52.5 -22zM1124 1382q-31 0 -52 22t-21 54q0 31 21 52.5t52 21.5q32 0 53 -21.5t21 -52.5q0 -32 -21 -54t-53 -22zM1720 1075h111l-428 -1075h-100l-371 958
l-371 -958h-100l-428 1075h110l373 -960l371 960h90l371 -960z" />
    <glyph glyph-name="uni1E9E" unicode="&#x1e9e;" horiz-adv-x="1353" 
d="M891 795q164 -38 258 -143.5t94 -252.5q0 -189 -138 -304t-364 -115q-123 0 -217 43l11 86q84 -41 192 -41q183 0 294.5 94t111.5 246q0 154 -119 249t-312 95v84q160 0 257.5 84.5t97.5 222.5t-103 221.5t-272 83.5q-167 0 -271 -84.5t-104 -220.5v-1143h-104v1155
q0 172 131 276.5t348 104.5q218 0 351.5 -104.5t133.5 -274.5q0 -131 -73 -225.5t-203 -136.5z" />
    <glyph glyph-name="Ygrave" unicode="&#x1ef2;" horiz-adv-x="1316" 
d="M725 1710h-92l-299 297h129zM1161 1516h119l-569 -881v-635h-105v635l-569 881h119l503 -785z" />
    <glyph glyph-name="ygrave" unicode="&#x1ef3;" horiz-adv-x="1265" 
d="M690 1270h-92l-299 297h129zM991 1075h99v-1526h-916v84h817v570q-47 -106 -146.5 -164.5t-246.5 -58.5q-195 0 -314.5 114.5t-119.5 300.5v680h98v-655q0 -160 100.5 -257t264.5 -97t264 97t100 257v655z" />
    <glyph glyph-name="endash" unicode="&#x2013;" horiz-adv-x="1128" 
d="M152 549v76h823v-76h-823z" />
    <glyph glyph-name="emdash" unicode="&#x2014;" horiz-adv-x="1785" 
d="M152 549v76h1480v-76h-1480z" />
    <glyph glyph-name="quoteleft" unicode="&#x2018;" horiz-adv-x="434" 
d="M350 1516l-137 -418h-104l153 418h88z" />
    <glyph glyph-name="quoteright" unicode="&#x2019;" horiz-adv-x="434" 
d="M113 1098l137 418h104l-153 -418h-88z" />
    <glyph glyph-name="quotesinglbase" unicode="&#x201a;" horiz-adv-x="411" 
d="M31 -287l137 418h104l-153 -418h-88z" />
    <glyph glyph-name="quotedblleft" unicode="&#x201c;" horiz-adv-x="700" 
d="M356 1513l-139 -415h-104l155 415h88zM616 1513l-137 -415h-104l153 415h88z" />
    <glyph glyph-name="quotedblright" unicode="&#x201d;" horiz-adv-x="694" 
d="M113 1100l137 418h104l-153 -418h-88zM373 1100l137 418h104l-153 -418h-88z" />
    <glyph glyph-name="quotedblbase" unicode="&#x201e;" horiz-adv-x="671" 
d="M31 -287l137 418h104l-153 -418h-88zM291 -287l139 418h105l-154 -418h-90z" />
    <glyph glyph-name="dagger" unicode="&#x2020;" horiz-adv-x="1056" 
d="M973 1075v-90h-391v-1436h-107v1436h-393v90h393v522h107v-522h391z" />
    <glyph glyph-name="daggerdbl" unicode="&#x2021;" horiz-adv-x="1056" 
d="M973 985h-391v-330h391v-88h-391v-1018h-107v1018h-393v88h393v330h-393v90h393v522h107v-522h391v-90z" />
    <glyph glyph-name="bullet" unicode="&#x2022;" horiz-adv-x="716" 
d="M358 496q-74 0 -118.5 45t-44.5 118q0 74 45 119t118 45q74 0 119 -45.5t45 -118.5t-45 -118t-119 -45z" />
    <glyph glyph-name="ellipsis" unicode="&#x2026;" horiz-adv-x="1179" 
d="M215 -20q-34 0 -59 24.5t-25 58.5q0 35 25 59.5t59 24.5t59 -24.5t25 -59.5q0 -34 -25 -58.5t-59 -24.5zM590 -20q-34 0 -59 24.5t-25 58.5q0 35 25 59.5t59 24.5q35 0 59.5 -24.5t24.5 -59.5q0 -34 -24.5 -58.5t-59.5 -24.5zM967 -20q-35 0 -60.5 24.5t-25.5 58.5
q0 35 25.5 59.5t60.5 24.5q34 0 59 -24.5t25 -59.5q0 -34 -25 -58.5t-59 -24.5z" />
    <glyph glyph-name="perthousand" unicode="&#x2030;" horiz-adv-x="2256" 
d="M401 866q-146 0 -234.5 92t-88.5 244q0 151 88.5 242.5t234.5 91.5t234 -91.5t88 -242.5q0 -152 -88 -244t-234 -92zM342 -20l-63 40l888 1516l64 -41zM401 938q105 0 168.5 72t63.5 192q0 118 -64 190t-168 72q-106 0 -169.5 -71.5t-63.5 -190.5q0 -120 63.5 -192
t169.5 -72zM1104 -20q-146 0 -235 91t-89 242q0 152 89 244t235 92t233.5 -92t87.5 -244q0 -151 -87.5 -242t-233.5 -91zM1864 -20q-145 0 -234.5 91.5t-89.5 241.5q0 152 89.5 244t234.5 92q146 0 234.5 -92t88.5 -244q0 -151 -88.5 -242t-234.5 -91zM1104 51
q104 0 167.5 72t63.5 190q0 120 -63.5 192.5t-167.5 72.5q-106 0 -170 -72.5t-64 -192.5q0 -118 64 -190t170 -72zM1864 51q104 0 167.5 72t63.5 190q0 120 -63.5 192.5t-167.5 72.5q-106 0 -170 -72.5t-64 -192.5q0 -118 64 -190t170 -72z" />
    <glyph glyph-name="guilsinglleft" unicode="&#x2039;" horiz-adv-x="665" 
d="M559 1008l-350 -455l350 -455h-104l-359 455l359 455h104z" />
    <glyph glyph-name="guilsinglright" unicode="&#x203a;" horiz-adv-x="665" 
d="M213 1008l356 -455l-356 -455h-107l351 455l-351 455h107z" />
    <glyph glyph-name="fraction" unicode="&#x2044;" horiz-adv-x="382" 
d="M-221 -20l-64 40l889 1516l64 -41z" />
    <glyph glyph-name="uni2070" unicode="&#x2070;" horiz-adv-x="780" 
d="M391 799q-143 0 -230 128t-87 339t87 339t230 128t229.5 -128t86.5 -339t-86.5 -339t-229.5 -128zM391 866q107 0 172.5 110t65.5 290t-65.5 289.5t-172.5 109.5q-106 0 -170.5 -109.5t-64.5 -289.5t64.5 -290t170.5 -110z" />
    <glyph glyph-name="uni2074" unicode="&#x2074;" horiz-adv-x="763" 
d="M494 811v201h-455v59l467 649h67v-641h140v-67h-140v-201h-79zM123 1075h373l2 520z" />
    <glyph glyph-name="uni2075" unicode="&#x2075;" horiz-adv-x="716" 
d="M319 799q-171 0 -260 86l23 59q81 -78 229 -78q114 0 182 58.5t68 156.5q0 93 -58.5 150t-156.5 57q-89 0 -176 -35l-53 9l61 458h424v-67h-354l-47 -322q84 23 159 23q128 0 206.5 -75t78.5 -196q0 -127 -90.5 -205.5t-235.5 -78.5z" />
    <glyph glyph-name="uni2076" unicode="&#x2076;" horiz-adv-x="708" 
d="M373 1360q121 0 198.5 -78t77.5 -203q0 -126 -80 -203t-211 -77q-132 0 -212 76.5t-80 203.5q0 108 67 203l293 438h90l-264 -381q61 21 121 21zM358 866q94 0 151.5 58.5t57.5 154.5q0 98 -57.5 158.5t-151.5 60.5t-151 -60.5t-57 -158.5q0 -97 57 -155t151 -58z" />
    <glyph glyph-name="uni2077" unicode="&#x2077;" horiz-adv-x="634" 
d="M35 1720h567l-326 -909h-83l305 842h-463v67z" />
    <glyph glyph-name="uni2078" unicode="&#x2078;" horiz-adv-x="751" 
d="M496 1282q81 -27 126.5 -87t45.5 -144q0 -113 -80.5 -182.5t-210.5 -69.5q-132 0 -211.5 69t-79.5 183q0 84 45 144.5t125 86.5q-68 26 -106.5 82.5t-38.5 130.5q0 106 72.5 172t193.5 66q120 0 193 -65t73 -171q0 -75 -39 -131t-108 -84zM193 1491q0 -80 50.5 -128
t133.5 -48q82 0 133 48.5t51 127.5q0 78 -51 126t-133 48q-83 0 -133.5 -48t-50.5 -126zM377 866q94 0 151.5 51.5t57.5 137.5q0 88 -57.5 141t-151.5 53t-151.5 -53t-57.5 -141q0 -86 57.5 -137.5t151.5 -51.5z" />
    <glyph glyph-name="uni2079" unicode="&#x2079;" horiz-adv-x="708" 
d="M350 1733q132 0 212.5 -77t80.5 -204q0 -107 -68 -203l-292 -438h-90l264 381q-61 -21 -121 -21q-121 0 -199 78t-78 203q0 126 80.5 203.5t210.5 77.5zM141 1452q0 -98 57.5 -158.5t151.5 -60.5t151.5 60.5t57.5 158.5q0 96 -57.5 154.5t-151.5 58.5t-151.5 -58.5
t-57.5 -154.5z" />
    <glyph glyph-name="uni2080" unicode="&#x2080;" horiz-adv-x="780" 
d="M391 -217q-143 0 -230 128t-87 339t87 339t230 128t229.5 -128t86.5 -339t-86.5 -339t-229.5 -128zM391 -150q107 0 172.5 110t65.5 290t-65.5 289.5t-172.5 109.5q-106 0 -170.5 -109.5t-64.5 -289.5t64.5 -290t170.5 -110z" />
    <glyph glyph-name="uni2081" unicode="&#x2081;" horiz-adv-x="425" 
d="M207 -205v842h-170v68h250v-910h-80z" />
    <glyph glyph-name="uni2082" unicode="&#x2082;" horiz-adv-x="712" 
d="M70 -205v53l274 293q4 4 29.5 31.5t34 37t32 37t33.5 42.5t26.5 42t24 47.5t13.5 46t6 50.5q0 81 -51.5 127.5t-137.5 46.5q-89 0 -141.5 -50.5t-52.5 -135.5l-80 6q0 112 74.5 180t197.5 68q122 0 196.5 -64.5t74.5 -171.5q0 -44 -15 -89.5t-32 -78t-55 -80t-58.5 -69.5
t-67.5 -72l-219 -231l459 2v-68h-565z" />
    <glyph glyph-name="uni2083" unicode="&#x2083;" horiz-adv-x="710" 
d="M346 313q131 0 211 -70.5t80 -187.5q0 -123 -85.5 -197.5t-227.5 -74.5q-86 0 -155 27t-108 77l33 60q72 -97 219 -97q109 0 174.5 55.5t65.5 149.5q0 89 -64.5 143t-169.5 54q-77 0 -141 -31l-24 41l344 375h-402v68h512v-50l-323 -346q20 4 61 4z" />
    <glyph glyph-name="uni2084" unicode="&#x2084;" horiz-adv-x="763" 
d="M494 -205v201h-455v59l467 650h67v-642h140v-67h-140v-201h-79zM123 59h373l2 521z" />
    <glyph glyph-name="uni2085" unicode="&#x2085;" horiz-adv-x="716" 
d="M319 -217q-171 0 -260 86l23 59q81 -78 229 -78q114 0 182 59t68 157q0 93 -58.5 149.5t-156.5 56.5q-92 0 -176 -34l-53 8l61 459h424v-68h-354l-47 -322q84 23 159 23q128 0 206.5 -74.5t78.5 -195.5q0 -127 -90.5 -206t-235.5 -79z" />
    <glyph glyph-name="uni2086" unicode="&#x2086;" horiz-adv-x="708" 
d="M373 344q121 0 198.5 -78t77.5 -203q0 -126 -80 -203t-211 -77q-132 0 -212 76.5t-80 203.5q0 108 67 203l293 439h90l-264 -381q58 20 121 20zM358 -150q94 0 151.5 58.5t57.5 154.5q0 98 -57.5 159t-151.5 61t-151 -61t-57 -159q0 -97 57 -155t151 -58z" />
    <glyph glyph-name="uni2087" unicode="&#x2087;" horiz-adv-x="634" 
d="M35 705h567l-326 -910h-83l305 842h-463v68z" />
    <glyph glyph-name="uni2088" unicode="&#x2088;" horiz-adv-x="751" 
d="M496 266q81 -27 126.5 -87t45.5 -144q0 -113 -80.5 -182.5t-210.5 -69.5q-132 0 -211.5 69t-79.5 183q0 84 45 144.5t125 86.5q-68 26 -106.5 82.5t-38.5 130.5q0 106 72.5 172t193.5 66q120 0 193 -65t73 -171q0 -75 -39 -131t-108 -84zM193 475q0 -80 50.5 -128
t133.5 -48q82 0 133 48.5t51 127.5q0 78 -51 126t-133 48q-83 0 -133.5 -48t-50.5 -126zM377 -150q94 0 151.5 51.5t57.5 137.5q0 88 -57.5 141t-151.5 53t-151.5 -53t-57.5 -141q0 -86 57.5 -137.5t151.5 -51.5z" />
    <glyph glyph-name="uni2089" unicode="&#x2089;" horiz-adv-x="708" 
d="M350 717q132 0 212.5 -77t80.5 -204q0 -107 -68 -203l-292 -438h-90l264 381q-58 -20 -121 -20q-121 0 -199 77.5t-78 202.5q0 126 80.5 203.5t210.5 77.5zM141 436q0 -98 57.5 -158.5t151.5 -60.5t151.5 60.5t57.5 158.5q0 96 -57.5 154.5t-151.5 58.5t-151.5 -58.5
t-57.5 -154.5z" />
    <glyph glyph-name="Euro" unicode="&#x20ac;" horiz-adv-x="1648" 
d="M1477 340l73 -68q-101 -136 -257.5 -214t-346.5 -78q-292 0 -488.5 162t-246.5 440h-125v73h115q-6 53 -6 105v26h-109v76h113q32 307 234.5 490.5t512.5 183.5q336 0 563 -248l-67 -67q-202 227 -488 227q-266 0 -439 -159.5t-202 -426.5h602v-76h-608v-24q0 -54 6 -107
h602v-73h-589q48 -236 213.5 -375t406.5 -139q168 0 305.5 73.5t225.5 198.5z" />
    <glyph glyph-name="uni20B9" unicode="&#x20b9;" horiz-adv-x="1331" 
d="M1235 1516v-74h-428q107 -53 170 -147.5t70 -219.5h178v-74h-178q-9 -148 -87 -255.5t-208 -153.5l395 -592h-125l-373 565q-46 -6 -94 -6h-397v88h381q170 0 278 97t119 257h-778v74h778q-12 161 -122 256.5t-282 95.5h-374v89h1077z" />
    <glyph glyph-name="uni20BD" unicode="&#x20bd;" horiz-adv-x="1267" 
d="M330 672v-131h557v-74h-557v-467h-105v467h-106v74h106v131h-106v76h106v768h486q218 0 350.5 -115t132.5 -303q0 -192 -132 -309t-347 -117h-385zM330 1427v-665h364q175 0 282 91.5t107 240.5q0 150 -107 241.5t-282 91.5h-364z" />
    <glyph glyph-name="trademark" unicode="&#x2122;" horiz-adv-x="1456" 
d="M537 1597v-57h-195v-528h-70v528h-192v57h457zM1300 1012h-69l-27 467l-221 -467h-49l-221 469l-27 -469h-70l37 585h70l235 -505l236 505h68z" />
    <glyph glyph-name="oneeighth" unicode="&#x215b;" horiz-adv-x="1560" 
d="M1030 1536l64 -41l-889 -1515l-64 40zM207 606v842h-170v68h250v-910h-80zM1305 471q81 -27 126.5 -87t45.5 -144q0 -113 -80.5 -182.5t-210.5 -69.5q-132 0 -211.5 69t-79.5 183q0 84 45 144.5t125 86.5q-68 26 -106.5 82.5t-38.5 130.5q0 106 72.5 172t193.5 66
q120 0 193 -65t73 -171q0 -75 -39 -131t-108 -84zM1001 680q0 -79 51 -127.5t134 -48.5q82 0 133 48.5t51 127.5q0 78 -51 126t-133 48q-83 0 -134 -48t-51 -126zM1186 55q94 0 151.5 51.5t57.5 137.5q0 88 -57.5 141t-151.5 53t-151.5 -53t-57.5 -141q0 -86 57.5 -137.5
t151.5 -51.5z" />
    <glyph glyph-name="threeeighths" unicode="&#x215c;" horiz-adv-x="1845" 
d="M1315 1536l63 -41l-889 -1515l-63 40zM637 866q0 -123 -85.5 -197.5t-227.5 -74.5q-86 0 -155 27t-108 77l33 60q71 -96 219 -96q109 0 174.5 55.5t65.5 148.5q0 89 -64.5 143t-169.5 54q-77 0 -141 -31l-24 41l344 375h-402v68h512v-50l-323 -346q20 4 61 4
q131 0 211 -70.5t80 -187.5zM1589 471q81 -27 126.5 -87t45.5 -144q0 -113 -80.5 -182.5t-210.5 -69.5q-132 0 -211 69t-79 183q0 84 45 144.5t125 86.5q-68 26 -107 82.5t-39 130.5q0 106 72.5 172t193.5 66q120 0 193.5 -65t73.5 -171q0 -74 -39 -130.5t-109 -84.5z
M1286 680q0 -80 50.5 -128t133.5 -48q82 0 133.5 48.5t51.5 127.5q0 78 -51.5 126t-133.5 48q-83 0 -133.5 -48t-50.5 -126zM1470 55q94 0 151.5 51.5t57.5 137.5q0 88 -57.5 141t-151.5 53t-151 -53t-57 -141q0 -86 57 -137.5t151 -51.5z" />
    <glyph glyph-name="fiveeighths" unicode="&#x215d;" horiz-adv-x="1851" 
d="M1321 1536l63 -41l-888 -1515l-64 40zM645 879q0 -127 -90.5 -206t-235.5 -79q-171 0 -260 86l23 59q80 -77 229 -77q114 0 182 58.5t68 156.5q0 93 -58.5 149.5t-156.5 56.5q-92 0 -176 -34l-53 8l61 459h424v-68h-354l-47 -322q84 23 159 23q128 0 206.5 -74.5
t78.5 -195.5zM1595 471q81 -27 126.5 -87t45.5 -144q0 -113 -80 -182.5t-210 -69.5q-132 0 -211.5 69t-79.5 183q0 84 45 144.5t125 86.5q-68 26 -107 82.5t-39 130.5q0 106 73 172t194 66q120 0 193 -65t73 -171q0 -74 -39 -130.5t-109 -84.5zM1292 680q0 -79 51 -127.5
t134 -48.5q82 0 133 48.5t51 127.5q0 78 -51 126t-133 48q-83 0 -134 -48t-51 -126zM1477 55q94 0 151.5 51.5t57.5 137.5q0 88 -57.5 141t-151.5 53t-151.5 -53t-57.5 -141q0 -86 57.5 -137.5t151.5 -51.5z" />
    <glyph glyph-name="seveneighths" unicode="&#x215e;" horiz-adv-x="1705" 
d="M1176 1536l63 -41l-889 -1515l-63 40zM35 1516h567l-326 -910h-83l305 842h-463v68zM1450 471q81 -27 126.5 -87t45.5 -144q0 -113 -80.5 -182.5t-210.5 -69.5q-132 0 -211.5 69t-79.5 183q0 84 45 144.5t125 86.5q-68 26 -106.5 82.5t-38.5 130.5q0 106 72.5 172
t193.5 66q120 0 193 -65t73 -171q0 -75 -39 -131t-108 -84zM1147 680q0 -80 50.5 -128t133.5 -48q82 0 133.5 48.5t51.5 127.5q0 78 -51.5 126t-133.5 48q-83 0 -133.5 -48t-50.5 -126zM1331 55q94 0 151.5 51.5t57.5 137.5q0 88 -57.5 141t-151.5 53t-151.5 -53t-57.5 -141
q0 -86 57.5 -137.5t151.5 -51.5z" />
    <glyph glyph-name="partialdiff" unicode="&#x2202;" horiz-adv-x="1280" 
d="M618 1536q247 0 398 -213.5t151 -562.5q0 -352 -179 -566t-472 -214q-201 0 -323.5 102.5t-122.5 269.5q0 143 122.5 253.5t346 173t516.5 67.5q-17 275 -137.5 438.5t-307.5 163.5q-236 0 -405 -227l-68 67q197 248 481 248zM516 68q242 0 391 190t150 500
q-262 -3 -461.5 -54.5t-308.5 -144t-109 -213.5q0 -125 93 -201.5t245 -76.5z" />
    <glyph glyph-name="emptyset" unicode="&#x2205;" horiz-adv-x="1353" 
d="M1079 1094q133 -155 133 -392q0 -251 -147.5 -404t-388.5 -153q-217 0 -357 121l-112 -121l-51 39l116 127q-135 154 -135 391q0 252 148 406t391 154q214 0 356 -123l113 121l51 -39zM242 702q0 -193 98 -317l629 682q-115 109 -293 109q-196 0 -315 -130t-119 -344z
M676 231q195 0 314.5 129.5t119.5 341.5q0 194 -98 318l-629 -682q120 -107 293 -107z" />
    <glyph glyph-name="product" unicode="&#x220f;" horiz-adv-x="1482" 
d="M1266 1597v-2048h-107v1960h-837v-1960h-105v2048h1049z" />
    <glyph glyph-name="summation" unicode="&#x2211;" horiz-adv-x="1245" 
d="M68 -451v68l677 963l-659 950v67h1057v-88h-928l657 -929l-675 -942h966v-89h-1095z" />
    <glyph glyph-name="minus" unicode="&#x2212;" horiz-adv-x="1167" 
d="M158 666v84h850v-84h-850z" />
    <glyph glyph-name="radical" unicode="&#x221a;" horiz-adv-x="1546" 
d="M508 -451l-488 1076h109l430 -961l871 1933h110l-930 -2048h-102z" />
    <glyph glyph-name="infinity" unicode="&#x221e;" horiz-adv-x="1458" 
d="M1014 905q143 0 230 -91.5t87 -242.5q0 -150 -87 -241.5t-230 -91.5q-101 0 -175.5 49t-109.5 137q-34 -88 -108 -137t-175 -49q-143 0 -231 91.5t-88 241.5t88 242t231 92q101 0 175 -49t108 -137q35 88 109.5 137t175.5 49zM453 307q104 0 167.5 72.5t63.5 191.5
t-63.5 192t-167.5 73q-105 0 -169.5 -73t-64.5 -192t64 -191.5t170 -72.5zM1008 307q104 0 167.5 72.5t63.5 191.5t-63.5 192t-167.5 73q-105 0 -169.5 -73t-64.5 -192t64 -191.5t170 -72.5z" />
    <glyph glyph-name="integral" unicode="&#x222b;" horiz-adv-x="923" 
d="M696 1618q67 0 127.5 -21.5t98.5 -60.5l-31 -74q-74 68 -182 68q-90 0 -142.5 -54t-52.5 -143v-1542q0 -119 -77 -190.5t-208 -71.5q-69 0 -129 21.5t-98 60.5l31 74q74 -68 182 -68q90 0 142.5 54t52.5 143v1542q0 119 76.5 190.5t209.5 71.5z" />
    <glyph glyph-name="approxequal" unicode="&#x2248;" horiz-adv-x="1159" 
d="M770 692q-45 0 -88 16.5t-77.5 39.5t-67.5 46t-71 39.5t-75 16.5q-68 0 -115 -38t-47 -99h-67q0 98 65.5 159.5t165.5 61.5q45 0 88.5 -16.5t78 -40t67.5 -47t70.5 -40t74.5 -16.5q70 0 117 38t47 101h68q0 -100 -66 -160.5t-168 -60.5zM770 283q-45 0 -88 16t-77.5 39.5
t-67.5 46.5t-71 39t-75 16q-68 0 -115 -38t-47 -99h-67q0 98 65.5 159.5t165.5 61.5q55 0 109.5 -25t91 -54.5t85 -54.5t93.5 -25q70 0 117 38t47 101h68q0 -100 -66 -160.5t-168 -60.5z" />
    <glyph glyph-name="notequal" unicode="&#x2260;" horiz-adv-x="1165" 
d="M1008 907h-320l-108 -399h428v-82h-451l-63 -229h-101l64 229h-299v82h321l109 399h-430v84h454l62 228h100l-61 -228h295v-84z" />
    <glyph glyph-name="lessequal" unicode="&#x2264;" horiz-adv-x="1150" 
d="M981 1200v-96l-676 -301l676 -303v-94l-815 366v59zM166 186v84h815v-84h-815z" />
    <glyph glyph-name="greaterequal" unicode="&#x2265;" horiz-adv-x="1150" 
d="M170 1200l815 -369v-59l-815 -366v94l678 303l-678 301v96zM170 186v84h815v-84h-815z" />
    <glyph glyph-name="lozenge" unicode="&#x25ca;" horiz-adv-x="1103" 
d="M594 1280l420 -641l-420 -639h-84l-418 639l418 641h84zM553 92l352 547l-352 549l-354 -549z" />
    <glyph glyph-name="i.loclTRK" horiz-adv-x="458" 
d="M229 1382q-32 0 -53.5 22t-21.5 54q0 31 21.5 52.5t53.5 21.5q31 0 52.5 -21.5t21.5 -52.5q0 -32 -21.5 -54t-52.5 -22zM180 0v1075h99v-1075h-99z" />
    <glyph glyph-name="zero.lf" horiz-adv-x="1394" 
d="M629 -20q-233 0 -376.5 214t-143.5 564t143.5 564t376.5 214q155 0 273 -96.5t182.5 -273.5t64.5 -408t-64.5 -408t-182.5 -273.5t-273 -96.5zM629 68q123 0 216 86t143 242.5t50 361.5t-50 361.5t-143 242.5t-216 86q-186 0 -298 -189.5t-112 -500.5t112 -500.5
t298 -189.5z" />
    <glyph glyph-name="one.lf" horiz-adv-x="653" 
d="M332 0v1427h-293v89h397v-1516h-104z" />
    <glyph glyph-name="two.lf" horiz-adv-x="1132" 
d="M98 0v70l455 489q7 8 52 55.5t60 64t55 63.5t57 73t45.5 72.5t41 81.5t23 80t10.5 88q0 144 -92 227.5t-244 83.5q-155 0 -248.5 -90t-93.5 -238l-108 8q0 183 123.5 295.5t324.5 112.5t323 -105.5t122 -283.5q0 -52 -12 -105.5t-29 -97.5t-49.5 -96.5t-57.5 -88t-70 -88
t-71 -80t-76 -80.5q-12 -13 -18 -19l-379 -404h784v-88h-928z" />
    <glyph glyph-name="three.lf" horiz-adv-x="1140" 
d="M553 856q218 0 350.5 -118t132.5 -310q0 -203 -140.5 -325.5t-373.5 -122.5q-142 0 -254.5 45t-175.5 133l43 78q122 -168 375 -168q187 0 300.5 98.5t113.5 261.5q0 155 -111.5 249.5t-294.5 94.5q-140 0 -246 -53l-26 55l602 653h-705v89h848v-68l-563 -602
q65 10 125 10z" />
    <glyph glyph-name="four.lf" horiz-adv-x="1222" 
d="M815 0v342h-768v82l784 1092h91v-1086h235v-88h-235v-342h-107zM166 428h653v911z" />
    <glyph glyph-name="five.lf" horiz-adv-x="1148" 
d="M514 -20q-284 0 -430 143l33 82q137 -137 389 -137q192 0 310 103.5t118 270.5q0 164 -104 264.5t-273 100.5q-154 0 -305 -53l-74 10l105 752h694v-89h-600l-86 -571q140 41 284 41q211 0 340 -123.5t129 -324.5q0 -210 -146.5 -339.5t-383.5 -129.5z" />
    <glyph glyph-name="six.lf" horiz-adv-x="1130" 
d="M592 911q204 0 331.5 -127t127.5 -335q0 -212 -131 -340.5t-347 -128.5q-215 0 -346 127.5t-131 336.5q0 181 101 322l499 750h121l-444 -652q92 47 219 47zM573 68q164 0 265.5 104t101.5 274q0 171 -101 276t-266 105q-164 0 -265 -104.5t-101 -276.5q0 -170 101 -274
t265 -104z" />
    <glyph glyph-name="seven.lf" horiz-adv-x="1017" 
d="M43 1516h936l-553 -1516h-115l529 1427h-797v89z" />
    <glyph glyph-name="eight.lf" horiz-adv-x="1202" 
d="M782 786q138 -42 217.5 -144t79.5 -245q0 -187 -131.5 -302t-345.5 -115q-216 0 -347.5 114t-131.5 301q0 143 80 246t219 145q-121 40 -189.5 134.5t-68.5 222.5q0 177 120.5 285t317.5 108q196 0 316 -107.5t120 -283.5q0 -128 -68.5 -222.5t-187.5 -136.5zM274 1137
q0 -138 90 -223t236 -85q147 0 236.5 85t89.5 223q0 140 -89.5 225.5t-236.5 85.5q-146 0 -236 -85.5t-90 -225.5zM600 68q166 0 266.5 91.5t100.5 243.5q0 151 -101 243.5t-266 92.5q-164 0 -265.5 -92.5t-101.5 -243.5q0 -152 101 -243.5t266 -91.5z" />
    <glyph glyph-name="nine.lf" horiz-adv-x="1130" 
d="M557 1536q215 0 346 -128t131 -337q0 -182 -100 -321l-500 -750h-121l445 651q-92 -47 -219 -47q-204 0 -331.5 127.5t-127.5 335.5q0 212 131 340.5t346 128.5zM190 1069q0 -171 101 -276t266 -105t266 105t101 276q0 170 -101.5 274.5t-265.5 104.5t-265.5 -104.5
t-101.5 -274.5z" />
    <glyph glyph-name="zero.osf" horiz-adv-x="1331" 
d="M668 -20q-252 0 -405.5 181.5t-153.5 477.5q0 298 153.5 479.5t405.5 181.5q249 0 402 -182t153 -479q0 -296 -153 -477.5t-402 -181.5zM668 66q201 0 324.5 157.5t123.5 415.5q0 259 -123.5 417t-324.5 158q-204 0 -328.5 -158t-124.5 -417q0 -258 124.5 -415.5
t328.5 -157.5z" />
    <glyph glyph-name="one.osf" horiz-adv-x="667" 
d="M356 0v1196h-274v84h373v-1280h-99z" />
    <glyph glyph-name="two.osf" horiz-adv-x="1159" 
d="M115 0v70l495 385q48 37 80 63t80 74t77 91t51 101t22 117q0 141 -93.5 227t-248.5 86q-157 0 -253 -90.5t-96 -238.5l-100 8q0 183 123.5 295t325.5 112q200 0 322 -107t122 -284q0 -52 -13 -102t-31 -90t-51.5 -83.5t-60 -72.5t-71 -68t-69.5 -59t-71 -55l-387 -295
h774v-84h-927z" />
    <glyph glyph-name="three.osf" horiz-adv-x="1165" 
d="M571 635q214 0 345 -115.5t131 -304.5q0 -198 -139 -319t-369 -121q-142 0 -253.5 45t-176.5 133l43 78q119 -170 376 -170q187 0 300.5 97t113.5 257q0 154 -112 247t-295 93q-137 0 -244 -55l-27 55l608 641h-710v84h848v-70l-564 -585q65 10 125 10z" />
    <glyph glyph-name="four.osf" horiz-adv-x="1214" 
d="M823 -225v225h-774v76l785 1204h88v-1196h237v-84h-237v-225h-99zM164 82h663v1016z" />
    <glyph glyph-name="five.osf" horiz-adv-x="1157" 
d="M514 -225q-284 0 -430 143l31 78q135 -135 389 -135q193 0 311.5 101.5t118.5 266.5q0 161 -104 260t-273 99q-147 0 -307 -56l-72 11l105 737h694v-84h-606l-86 -565q136 43 290 43q206 0 334.5 -121t128.5 -317q0 -206 -145.5 -333.5t-378.5 -127.5z" />
    <glyph glyph-name="six.osf" horiz-adv-x="1120" 
d="M586 911q204 0 328 -126.5t124 -335.5q0 -212 -129.5 -340.5t-341.5 -128.5q-211 0 -340 127.5t-129 336.5q0 182 97 322l503 750h115l-444 -654q94 49 217 49zM567 68q166 0 266.5 104t100.5 274q0 172 -100.5 276.5t-266.5 104.5q-164 0 -265 -104.5t-101 -276.5
q0 -170 101 -274t265 -104z" />
    <glyph glyph-name="seven.osf" horiz-adv-x="1085" 
d="M82 1280h936l-543 -1493l-94 27l500 1382h-799v84z" />
    <glyph glyph-name="eight.osf" horiz-adv-x="1187" 
d="M772 786q137 -42 215 -144t78 -245q0 -188 -129.5 -302.5t-341.5 -114.5t-341.5 114t-129.5 301q0 143 78.5 246t214.5 145q-118 40 -185 134.5t-67 222.5q0 177 118 285t312 108t312 -107t118 -284q0 -128 -67 -222.5t-185 -136.5zM268 1137q0 -138 89.5 -223t236.5 -85
q146 0 236 85t90 223q0 140 -90 225.5t-236 85.5q-147 0 -236.5 -85.5t-89.5 -225.5zM594 68q165 0 266 91.5t101 243.5q0 151 -101.5 243.5t-265.5 92.5q-165 0 -266 -92.5t-101 -243.5q0 -152 100.5 -243.5t266.5 -91.5z" />
    <glyph glyph-name="nine.osf" horiz-adv-x="1124" 
d="M551 1300q212 0 341.5 -127.5t129.5 -338.5q0 -183 -98 -320l-488 -727l-96 27l410 602q-94 -49 -215 -49q-204 0 -329.5 127.5t-125.5 336.5q0 212 129.5 340.5t341.5 128.5zM184 831q0 -170 101.5 -275t265.5 -105t265.5 105t101.5 275q0 171 -101 275t-266 104
t-266 -104t-101 -275z" />
    <glyph glyph-name="zero.tf" 
d="M631 -20q-212 0 -342.5 214t-130.5 564t130.5 564t342.5 214t341.5 -214t129.5 -564t-129.5 -564t-341.5 -214zM631 68q107 0 189 86t126.5 242.5t44.5 361.5t-44.5 361.5t-126.5 242.5t-189 86q-164 0 -263.5 -189.5t-99.5 -500.5t99.5 -500.5t263.5 -189.5z" />
    <glyph glyph-name="one.tf" 
d="M772 88h311v-88h-884v88h467v1339h-355v89h461v-1428z" />
    <glyph glyph-name="two.tf" 
d="M162 0v70l454 489q9 9 46.5 49t52 56t49.5 55.5t51 63.5t44 63t41.5 69.5t29 69t22 76.5t6.5 76q0 144 -90.5 227.5t-242.5 83.5q-155 0 -248.5 -90t-93.5 -238l-109 8q0 183 123.5 295.5t325.5 112.5q201 0 322.5 -105.5t121.5 -283.5q0 -88 -28 -172t-91.5 -172.5
t-106.5 -138.5t-131 -144q-6 -6 -9 -9.5t-8 -9t-9 -9.5l-379 -404h785v-88h-928z" />
    <glyph glyph-name="three.tf" 
d="M612 856q218 0 351 -118t133 -310q0 -203 -140.5 -325.5t-373.5 -122.5q-144 0 -255.5 45t-174.5 133l43 78q122 -168 374 -168q187 0 300.5 98.5t113.5 261.5q0 155 -112 249.5t-296 94.5q-137 0 -243 -53l-27 55l602 653h-704v89h848v-68l-564 -602q65 10 125 10z" />
    <glyph glyph-name="four.tf" 
d="M819 0v342h-741v82l756 1092h90v-1088h237v-86h-237v-342h-105zM195 426h628v913z" />
    <glyph glyph-name="five.tf" 
d="M569 -20q-284 0 -430 143l33 82q137 -137 389 -137q193 0 310.5 103t117.5 271q0 164 -104 264.5t-273 100.5q-154 0 -305 -53l-74 10l105 752h694v-89h-600l-86 -571q140 41 285 41q211 0 340 -123.5t129 -324.5q0 -210 -147 -339.5t-384 -129.5z" />
    <glyph glyph-name="six.tf" 
d="M655 911q204 0 331.5 -127t127.5 -335q0 -212 -131 -340.5t-346 -128.5t-346 127.5t-131 336.5q0 176 100 322l500 750h121l-445 -652q92 47 219 47zM637 68q166 0 266.5 104t100.5 274q0 172 -100.5 276.5t-266.5 104.5q-165 0 -266 -105t-101 -276q0 -170 101.5 -274
t265.5 -104z" />
    <glyph glyph-name="seven.tf" 
d="M164 1516h936l-553 -1516h-115l529 1427h-797v89z" />
    <glyph glyph-name="eight.tf" 
d="M809 786q139 -42 218 -144t79 -245q0 -188 -131 -302.5t-346 -114.5t-346 114t-131 301q0 144 79 246.5t218 144.5q-120 40 -188 134t-68 223q0 177 120 285t316 108q197 0 316.5 -107t119.5 -284q0 -129 -68 -223.5t-188 -135.5zM303 1137q0 -138 90 -223t236 -85
t235.5 85t89.5 223q0 140 -89.5 225.5t-235.5 85.5t-236 -85.5t-90 -225.5zM629 68q165 0 265.5 91.5t100.5 243.5q0 151 -101 243.5t-265 92.5t-265.5 -92.5t-101.5 -243.5q0 -152 101 -243.5t266 -91.5z" />
    <glyph glyph-name="nine.tf" 
d="M621 1536q215 0 346 -128t131 -337q0 -180 -101 -321l-499 -750h-121l444 651q-92 -47 -219 -47q-204 0 -331.5 127.5t-127.5 335.5q0 212 131 340.5t347 128.5zM254 1069q0 -171 101 -276t266 -105q164 0 265 104.5t101 276.5q0 170 -101 274.5t-265 104.5
t-265.5 -104.5t-101.5 -274.5z" />
    <glyph glyph-name="zero.tosf" 
d="M631 -20q-212 0 -340.5 181t-128.5 478q0 298 128.5 479.5t340.5 181.5q211 0 339 -181.5t128 -479.5q0 -196 -58 -345.5t-164 -231.5t-245 -82zM631 66q163 0 261.5 157.5t98.5 415.5q0 260 -98.5 417.5t-261.5 157.5q-164 0 -263.5 -157.5t-99.5 -417.5
q0 -258 99.5 -415.5t263.5 -157.5z" />
    <glyph glyph-name="one.tosf" 
d="M772 84h320v-84h-885v84h467v1112h-336v84h434v-1196z" />
    <glyph glyph-name="two.tosf" 
d="M164 0v70l495 385q49 37 80.5 63t80.5 74t77.5 90.5t51 101t22.5 117.5q0 141 -94 227t-248 86q-158 0 -254 -90.5t-96 -238.5l-101 8q0 183 123.5 295t325.5 112q200 0 322 -107t122 -284q0 -60 -15 -116t-45.5 -106t-61 -89.5t-79.5 -83.5t-81 -70t-84 -65l-386 -295
h773v-84h-928z" />
    <glyph glyph-name="three.tosf" 
d="M618 635q214 0 344 -115.5t130 -304.5q0 -199 -138 -319.5t-368 -120.5q-144 0 -255.5 45t-174.5 133l41 78q122 -170 378 -170q187 0 300.5 97t113.5 257q0 154 -112 247t-297 93q-135 0 -242 -55l-29 55l611 641h-711v84h848v-70l-563 -585q65 10 124 10z" />
    <glyph glyph-name="four.tosf" 
d="M834 -225v225h-750v76l760 1204h88v-1196h235v-84h-235v-225h-98zM195 82h641l2 1016z" />
    <glyph glyph-name="five.tosf" 
d="M565 -225q-284 0 -430 143l31 78q135 -135 389 -135q193 0 311.5 101.5t118.5 266.5q0 161 -104 260t-273 99q-144 0 -307 -56l-72 11l105 737h694v-84h-606l-86 -565q136 43 291 43q206 0 334.5 -121t128.5 -317q0 -206 -146 -333.5t-379 -127.5z" />
    <glyph glyph-name="six.tosf" 
d="M655 911q204 0 328.5 -126.5t124.5 -335.5q0 -212 -128.5 -340.5t-340.5 -128.5t-341.5 127.5t-129.5 336.5q0 185 98 322l504 750h115l-447 -654q94 49 217 49zM639 68q164 0 265.5 104t101.5 274q0 171 -101 276t-266 105q-166 0 -266.5 -104.5t-100.5 -276.5
q0 -170 100.5 -274t266.5 -104z" />
    <glyph glyph-name="seven.tosf" 
d="M170 1280h936l-543 -1493l-94 27l500 1382h-799v84z" />
    <glyph glyph-name="eight.tosf" 
d="M807 786q137 -42 215 -144t78 -245q0 -188 -129.5 -302.5t-341.5 -114.5t-341.5 114t-129.5 301q0 143 78.5 246t214.5 145q-118 40 -185 134.5t-67 222.5q0 177 118 285t312 108t312 -107t118 -284q0 -128 -67 -222.5t-185 -136.5zM303 1137q0 -138 90 -223t236 -85
t235.5 85t89.5 223q0 140 -89.5 225.5t-235.5 85.5t-236 -85.5t-90 -225.5zM629 68q165 0 265.5 91.5t100.5 243.5q0 151 -101 243.5t-265 92.5t-265.5 -92.5t-101.5 -243.5q0 -152 101 -243.5t266 -91.5z" />
    <glyph glyph-name="nine.tosf" 
d="M621 1300q211 0 340 -128t129 -338q0 -181 -99 -320l-487 -727l-94 27l411 604q-102 -51 -219 -51q-204 0 -328 127.5t-124 336.5q0 212 129.5 340.5t341.5 128.5zM252 831q0 -170 101 -275t265 -105q165 0 266 104.5t101 275.5q0 172 -100.5 275.5t-266.5 103.5
q-165 0 -265.5 -104t-100.5 -275z" />
    <glyph glyph-name="zero.dnom" horiz-adv-x="780" 
d="M391 -12q-143 0 -230 128t-87 339t87 339t230 128t229.5 -128t86.5 -339t-86.5 -339t-229.5 -128zM391 55q107 0 172.5 110t65.5 290t-65.5 289.5t-172.5 109.5q-106 0 -170.5 -109.5t-64.5 -289.5t64.5 -290t170.5 -110z" />
    <glyph glyph-name="one.dnom" horiz-adv-x="425" 
d="M207 0v842h-170v67h250v-909h-80z" />
    <glyph glyph-name="two.dnom" horiz-adv-x="712" 
d="M70 0v53l274 293q4 4 29.5 31.5t34 37t32 37t33.5 42.5t26.5 42t24 47.5t13.5 46t6 50.5q0 81 -51.5 127.5t-137.5 46.5q-89 0 -141.5 -50.5t-52.5 -135.5l-80 6q0 112 74.5 180t197.5 68q122 0 196.5 -64.5t74.5 -171.5q0 -44 -15 -89.5t-32 -78t-55 -80t-58.5 -69.5
t-67.5 -72l-219 -231l459 2v-68h-565z" />
    <glyph glyph-name="three.dnom" horiz-adv-x="710" 
d="M346 518q131 0 211 -70.5t80 -187.5q0 -123 -85.5 -197.5t-227.5 -74.5q-86 0 -155 27t-108 77l33 60q72 -97 219 -97q109 0 174.5 55.5t65.5 149.5q0 89 -64.5 143t-169.5 54q-77 0 -141 -31l-24 41l344 375h-402v67h512v-49l-323 -346q20 4 61 4z" />
    <glyph glyph-name="four.dnom" horiz-adv-x="763" 
d="M494 0v201h-455v59l467 649h67v-641h140v-67h-140v-201h-79zM123 264h373l2 520z" />
    <glyph glyph-name="five.dnom" horiz-adv-x="716" 
d="M319 -12q-171 0 -260 86l23 59q81 -78 229 -78q114 0 182 58.5t68 156.5q0 93 -58.5 150t-156.5 57q-89 0 -176 -35l-53 9l61 458h424v-67h-354l-47 -322q84 23 159 23q128 0 206.5 -75t78.5 -196q0 -127 -90.5 -205.5t-235.5 -78.5z" />
    <glyph glyph-name="six.dnom" horiz-adv-x="708" 
d="M373 549q121 0 198.5 -78t77.5 -203q0 -126 -80 -203t-211 -77q-132 0 -212 76.5t-80 203.5q0 108 67 203l293 438h90l-264 -381q61 21 121 21zM358 55q94 0 151.5 58.5t57.5 154.5q0 98 -57.5 158.5t-151.5 60.5t-151 -60.5t-57 -158.5q0 -97 57 -155t151 -58z" />
    <glyph glyph-name="seven.dnom" horiz-adv-x="634" 
d="M35 909h567l-326 -909h-83l305 842h-463v67z" />
    <glyph glyph-name="eight.dnom" horiz-adv-x="751" 
d="M496 471q81 -27 126.5 -87t45.5 -144q0 -113 -80.5 -182.5t-210.5 -69.5q-132 0 -211.5 69t-79.5 183q0 84 45 144.5t125 86.5q-68 26 -106.5 82.5t-38.5 130.5q0 106 72.5 172t193.5 66q120 0 193 -65t73 -171q0 -75 -39 -131t-108 -84zM193 680q0 -80 50.5 -128
t133.5 -48q82 0 133 48.5t51 127.5q0 78 -51 126t-133 48q-83 0 -133.5 -48t-50.5 -126zM377 55q94 0 151.5 51.5t57.5 137.5q0 88 -57.5 141t-151.5 53t-151.5 -53t-57.5 -141q0 -86 57.5 -137.5t151.5 -51.5z" />
    <glyph glyph-name="nine.dnom" horiz-adv-x="708" 
d="M350 922q132 0 212.5 -77t80.5 -204q0 -107 -68 -203l-292 -438h-90l264 381q-61 -21 -121 -21q-121 0 -199 78t-78 203q0 126 80.5 203.5t210.5 77.5zM141 641q0 -98 57.5 -158.5t151.5 -60.5t151.5 60.5t57.5 158.5q0 96 -57.5 154.5t-151.5 58.5t-151.5 -58.5
t-57.5 -154.5z" />
    <glyph glyph-name="zero.numr" horiz-adv-x="780" 
d="M391 594q-143 0 -230 128t-87 339t87 339t230 128t229.5 -128t86.5 -339t-86.5 -339t-229.5 -128zM391 662q107 0 172.5 109.5t65.5 289.5t-65.5 289.5t-172.5 109.5q-106 0 -170.5 -109.5t-64.5 -289.5t64.5 -289.5t170.5 -109.5z" />
    <glyph glyph-name="one.numr" horiz-adv-x="425" 
d="M207 606v842h-170v68h250v-910h-80z" />
    <glyph glyph-name="two.numr" horiz-adv-x="712" 
d="M70 606v53l274 293q4 4 29.5 31.5t34 37t32 37t33.5 42.5t26.5 42t24 47.5t13.5 46t6 50.5q0 81 -51.5 127.5t-137.5 46.5q-89 0 -141.5 -50.5t-52.5 -135.5l-80 6q0 112 74.5 180t197.5 68q122 0 196.5 -64.5t74.5 -171.5q0 -44 -15 -89.5t-32 -78t-55 -80t-58.5 -69.5
t-67.5 -72l-219 -231l459 2v-68h-565z" />
    <glyph glyph-name="three.numr" horiz-adv-x="710" 
d="M346 1124q131 0 211 -70.5t80 -187.5q0 -123 -85.5 -197.5t-227.5 -74.5q-86 0 -155 27t-108 77l33 60q71 -96 219 -96q109 0 174.5 55.5t65.5 148.5q0 89 -64.5 143t-169.5 54q-77 0 -141 -31l-24 41l344 375h-402v68h512v-50l-323 -346q20 4 61 4z" />
    <glyph glyph-name="four.numr" horiz-adv-x="763" 
d="M494 606v201h-455v59l467 650h67v-642h140v-67h-140v-201h-79zM123 870h373l2 521z" />
    <glyph glyph-name="five.numr" horiz-adv-x="716" 
d="M319 594q-171 0 -260 86l23 59q80 -77 229 -77q114 0 182 58.5t68 156.5q0 93 -58.5 149.5t-156.5 56.5q-92 0 -176 -34l-53 8l61 459h424v-68h-354l-47 -322q84 23 159 23q128 0 206.5 -74.5t78.5 -195.5q0 -127 -90.5 -206t-235.5 -79z" />
    <glyph glyph-name="six.numr" horiz-adv-x="708" 
d="M373 1155q121 0 198.5 -78t77.5 -203q0 -126 -80 -203t-211 -77q-132 0 -212 76.5t-80 203.5q0 108 67 203l293 439h90l-264 -381q58 20 121 20zM358 662q94 0 151.5 58t57.5 154q0 98 -57.5 159t-151.5 61t-151 -61t-57 -159q0 -96 57 -154t151 -58z" />
    <glyph glyph-name="seven.numr" horiz-adv-x="634" 
d="M35 1516h567l-326 -910h-83l305 842h-463v68z" />
    <glyph glyph-name="eight.numr" horiz-adv-x="751" 
d="M496 1077q81 -27 126.5 -87t45.5 -144q0 -113 -80.5 -182.5t-210.5 -69.5q-132 0 -211.5 69t-79.5 183q0 84 45 144.5t125 86.5q-68 26 -106.5 82.5t-38.5 130.5q0 106 72.5 172t193.5 66q120 0 193 -65t73 -171q0 -75 -39 -131t-108 -84zM193 1286q0 -80 50.5 -128
t133.5 -48q82 0 133 48.5t51 127.5q0 78 -51 126t-133 48q-83 0 -133.5 -48t-50.5 -126zM377 662q94 0 151.5 51t57.5 137q0 88 -57.5 141t-151.5 53t-151.5 -53t-57.5 -141q0 -86 57.5 -137t151.5 -51z" />
    <glyph glyph-name="nine.numr" horiz-adv-x="708" 
d="M350 1528q132 0 212.5 -77t80.5 -204q0 -107 -68 -203l-292 -438h-90l264 381q-58 -20 -121 -20q-121 0 -199 77.5t-78 202.5q0 126 80.5 203.5t210.5 77.5zM141 1247q0 -98 57.5 -158.5t151.5 -60.5t151.5 60.5t57.5 158.5q0 96 -57.5 154.5t-151.5 58.5t-151.5 -58.5
t-57.5 -154.5z" />
    <glyph glyph-name="exclamdown.case" horiz-adv-x="528" 
d="M264 1536q31 0 52.5 -21.5t21.5 -52.5q0 -32 -21.5 -52.5t-52.5 -20.5q-32 0 -53 20.5t-21 52.5q0 31 21 52.5t53 21.5zM219 1221h90l8 -1221h-106z" />
    <glyph glyph-name="questiondown.case" horiz-adv-x="1040" 
d="M543 1536q32 0 52.5 -21.5t20.5 -52.5q0 -32 -20.5 -52.5t-52.5 -20.5q-31 0 -52.5 20.5t-21.5 52.5q0 31 21.5 52.5t52.5 21.5zM588 1221q0 -79 -8.5 -147.5t-20.5 -118.5t-34 -96.5t-40 -75.5t-48 -61.5t-48.5 -49t-50.5 -43.5q-30 -25 -47 -40t-39 -40.5t-33.5 -49
t-20 -57.5t-8.5 -73q0 -135 93 -218t245 -83q149 0 242.5 83t99.5 218l101 -4q-6 -173 -128 -279t-315 -106q-202 0 -325 104.5t-123 275.5q0 62 13 110.5t42.5 89t53.5 64t69 62.5q33 28 50 43.5t47 47t46.5 57.5t37.5 68t32 86t19 104t8 129h90z" />
    <glyph glyph-name="slash.case" horiz-adv-x="714" 
d="M100 0l412 1516h100l-411 -1516h-101z" />
    <glyph glyph-name="braceleft.case" horiz-adv-x="817" 
d="M541 -102q-120 0 -192.5 77t-72.5 205v271q0 118 -49 190t-127 72h-18v90h18q78 0 127 72t49 190v270q0 128 72.5 205.5t192.5 77.5q98 0 196 -25v-86q-97 23 -176 23q-80 0 -130 -60t-50 -157v-258q0 -114 -42.5 -195.5t-111.5 -101.5q69 -20 111.5 -101.5t42.5 -195.5
v-258q0 -97 50 -157t130 -60q83 0 176 22v-86q-95 -24 -196 -24z" />
    <glyph glyph-name="braceright.case" horiz-adv-x="817" 
d="M276 -102q-102 0 -194 24v86q93 -22 174 -22t130.5 60t49.5 157v258q0 114 42.5 195.5t111.5 101.5q-69 20 -111.5 101.5t-42.5 195.5v258q0 97 -49.5 157t-130.5 60q-77 0 -174 -23v86q95 25 194 25q120 0 193.5 -78t73.5 -205v-270q0 -118 48 -190t126 -72h18v-90h-18
q-78 0 -126 -72t-48 -190v-271q0 -127 -73.5 -204.5t-193.5 -77.5z" />
    <glyph glyph-name="bracketleft.case" horiz-adv-x="737" 
d="M217 -82v1679h442v-86h-342v-1507h342v-86h-442z" />
    <glyph glyph-name="bracketright.case" horiz-adv-x="737" 
d="M520 -82h-442v86h342v1507h-342v86h442v-1679z" />
    <glyph glyph-name="parenleft.case" horiz-adv-x="589" 
d="M424 -82q-59 78 -105.5 154.5t-95 183t-75.5 235.5t-27 267t27 267t75.5 235t95 182.5t105.5 154.5h90q-44 -61 -89 -144t-92 -193.5t-76.5 -243.5t-29.5 -258t29.5 -258t76.5 -244t92 -194t89 -144h-90z" />
    <glyph glyph-name="parenright.case" horiz-adv-x="589" 
d="M76 -82q44 61 89 144t91.5 194t76 244t29.5 258t-29.5 258t-76 243.5t-91.5 193.5t-89 144h90q59 -78 105.5 -154.5t95 -182.5t75.5 -235t27 -267t-27 -267t-75.5 -235.5t-95 -183t-105.5 -154.5h-90z" />
    <glyph glyph-name="logo" horiz-adv-x="2609" 
d="M156 -20q-15 0 -25 10.5t-10 25.5q0 21 10 31l700 698h-663q-47 0 -47 39q0 16 14 33l696 701h-669q-41 0 -41 38v3q0 38 41 38h758q47 0 47 -41q0 -20 -17 -34l-698 -697h676q17 0 29 -12t12 -29v-669l694 692q13 16 35 16q37 0 37 -45v-663l696 692q13 16 33 16
q15 0 25 -12t10 -27q0 -18 -13 -28l-753 -762q-14 -14 -35 -14q-41 0 -41 47v663l-694 -696q-14 -14 -35 -14q-41 0 -41 47v663l-697 -696q-14 -14 -34 -14z" />
    </font>
</defs>
</svg>
