<?xml version="1.0" standalone="no"?>
<!DOCTYPE svg PUBLIC "-//W3C//DTD SVG 1.1//EN" "http://www.w3.org/Graphics/SVG/1.1/DTD/svg11.dtd" >
<svg xmlns="http://www.w3.org/2000/svg" xmlns:xlink="http://www.w3.org/1999/xlink" version="1.1">
<metadata>
Created by FontForge 20170731 at Thu Dec  2 10:15:20 2021
 By Aleksey,,,
Copyright (c) 2016 by Alberto Romanos. All rights reserved.
</metadata>
<defs>
<font id="BwModelicaSS02-Thin" horiz-adv-x="1259" >
  <font-face 
    font-family="Bw Modelica SS02 Thin"
    font-weight="300"
    font-stretch="normal"
    units-per-em="2048"
    panose-1="0 0 4 0 0 0 0 0 0 0"
    ascent="1597"
    descent="-451"
    x-height="1069"
    cap-height="1516"
    bbox="-1735 -471 2531 2089"
    underline-thickness="102"
    underline-position="-307"
    unicode-range="U+000D-FB02"
  />
<missing-glyph horiz-adv-x="2609" 
d="M188 -20q-15 0 -24.5 10.5t-9.5 25.5q0 21 10 31l700 698h-663q-47 0 -47 39q0 16 14 33l696 701h-669q-41 0 -41 38v3q0 38 41 38h757q47 0 47 -41q0 -21 -16 -34l-698 -697h676q17 0 28.5 -12t11.5 -29v-669l695 692q13 16 35 16q36 0 36 -45v-663l697 692q13 16 33 16
q15 0 24.5 -11.5t9.5 -27.5q0 -18 -12 -28l-754 -762q-14 -14 -34 -14q-41 0 -41 47v663l-695 -696q-14 -14 -34 -14q-41 0 -41 47v663l-697 -696q-14 -14 -35 -14z" />
    <glyph glyph-name="fi" unicode="fi" horiz-adv-x="1167" 
d="M231 1069v528h490v-53h-428v-475h418v-53h-418v-1016h-62v1016h-192v53h192zM946 1516q23 0 39 -16.5t16 -39.5t-16 -40t-39 -17t-39 17t-16 40t16 39.5t39 16.5zM918 0v1069h61v-1069h-61z" />
    <glyph glyph-name="fl" unicode="fl" horiz-adv-x="1232" 
d="M231 1069v528h490v-53h-428v-475h418v-53h-418v-1016h-62v1016h-192v53h192zM983 53h242v-53h-303v1597h61v-1544z" />
    <glyph glyph-name=".notdef" horiz-adv-x="2609" 
d="M188 -20q-15 0 -24.5 10.5t-9.5 25.5q0 21 10 31l700 698h-663q-47 0 -47 39q0 16 14 33l696 701h-669q-41 0 -41 38v3q0 38 41 38h757q47 0 47 -41q0 -21 -16 -34l-698 -697h676q17 0 28.5 -12t11.5 -29v-669l695 692q13 16 35 16q36 0 36 -45v-663l697 692q13 16 33 16
q15 0 24.5 -11.5t9.5 -27.5q0 -18 -12 -28l-754 -762q-14 -14 -34 -14q-41 0 -41 47v663l-695 -696q-14 -14 -34 -14q-41 0 -41 47v663l-697 -696q-14 -14 -35 -14z" />
    <glyph glyph-name=".null" horiz-adv-x="0" 
 />
    <glyph glyph-name="nonmarkingreturn" horiz-adv-x="682" 
 />
    <glyph glyph-name="CR" unicode="&#xd;" horiz-adv-x="487" 
 />
    <glyph glyph-name="space" unicode=" " horiz-adv-x="567" 
 />
    <glyph glyph-name="exclam" unicode="!" horiz-adv-x="489" 
d="M215 264l-6 1252h72l-7 -1252h-59zM244 -20q-23 0 -39.5 16t-16.5 39t16.5 39t39.5 16t40 -16t17 -39t-17 -39t-40 -16z" />
    <glyph glyph-name="quotedbl" unicode="&#x22;" horiz-adv-x="600" 
d="M154 1155l-2 442h63l-2 -442h-59zM387 1155l-2 442h64l-3 -442h-59z" />
    <glyph glyph-name="numbersign" unicode="#" horiz-adv-x="1327" 
d="M1237 934h-248l-102 -440h250l-13 -52h-250l-102 -442h-57l102 442h-436l-102 -442h-58l103 442h-248l12 52h248l102 440h-250l13 51h248l104 449h57l-104 -449h436l105 449h57l-105 -449h250zM829 494l103 440h-436l-103 -440h436z" />
    <glyph glyph-name="dollar" unicode="$" horiz-adv-x="1234" 
d="M1122 373q0 -168 -131.5 -275t-347.5 -116v-166h-68v164q-138 3 -254.5 45t-185.5 122l35 54q145 -157 405 -164v713l-81 24q-62 18 -111.5 38t-98.5 52t-81.5 70t-53 93t-20.5 122q0 165 121.5 269.5t324.5 115.5v166h68v-164q269 -8 422 -174l-39 -49
q-148 157 -383 166v-678l10 -4q54 -16 92 -29t90.5 -35.5t89.5 -44.5t77 -55t64 -69.5t40 -85.5t16 -105zM535 834l40 -13v658q-170 -10 -272 -98.5t-102 -225.5q0 -71 26 -125.5t77.5 -91.5t103.5 -59.5t127 -44.5zM643 39q185 11 295.5 100t110.5 228q0 70 -29 126.5
t-86 99t-126 73.5t-165 61v-688z" />
    <glyph glyph-name="percent" unicode="%" horiz-adv-x="1452" 
d="M391 872q-140 0 -225.5 91.5t-85.5 240.5q0 150 85.5 241t225.5 91t224.5 -90.5t84.5 -241.5q0 -149 -85 -240.5t-224 -91.5zM303 -20l-45 30l895 1526l47 -31zM391 922q111 0 179.5 77.5t68.5 204.5t-68.5 205t-179.5 78q-114 0 -182 -77.5t-68 -205.5t68 -205t182 -77z
M1061 -20q-140 0 -226.5 90.5t-86.5 240.5q0 149 86.5 240.5t226.5 91.5q139 0 224 -91.5t85 -240.5q0 -150 -84.5 -240.5t-224.5 -90.5zM1061 29q111 0 179.5 77.5t68.5 204.5t-68.5 205t-179.5 78q-114 0 -182 -77.5t-68 -205.5t68 -205t182 -77z" />
    <glyph glyph-name="ampersand" unicode="&#x26;" horiz-adv-x="1599" 
d="M1257 35q134 0 234 39v-54q-87 -40 -248 -40q-101 0 -170 54.5t-88 149.5q-53 -102 -164.5 -153t-249.5 -51q-202 0 -326 115.5t-124 305.5q0 159 95 268.5t259 145.5q-130 34 -204 127.5t-74 226.5q0 166 116.5 266.5t307.5 100.5q189 0 304 -101t115 -266v-329h435v-54
h-435v-528q0 -101 60 -162t157 -61zM262 1161q0 -146 98.5 -233.5t260.5 -87.5h358v321q0 145 -98.5 233.5t-259.5 88.5t-260 -88.5t-99 -233.5zM588 35q103 0 190 33.5t144 104t57 165.5v448h-358q-195 0 -315 -103t-120 -273q0 -169 110.5 -272t291.5 -103z" />
    <glyph glyph-name="quotesingle" unicode="'" horiz-adv-x="364" 
d="M154 1155l-2 442h63l-2 -442h-59z" />
    <glyph glyph-name="parenleft" unicode="(" horiz-adv-x="538" 
d="M422 -369q-40 62 -76 127.5t-79.5 165t-74.5 201t-52 231t-21 258.5t21 258.5t52 231t74.5 201t79.5 165t76 127.5h55q-34 -59 -43 -75.5t-48.5 -93t-58 -123.5t-50.5 -138t-47.5 -167.5t-28.5 -179.5t-13 -206t13 -206t28.5 -179.5t47.5 -167.5t50.5 -138t58 -123.5
t48.5 -93t43 -75.5h-55z" />
    <glyph glyph-name="parenright" unicode=")" horiz-adv-x="538" 
d="M61 -369q34 59 43 75.5t48.5 93t58 123.5t50.5 138t47.5 167.5t28.5 179.5t13 206t-13 206t-28.5 179.5t-47.5 167.5t-50.5 138t-58 123.5t-48.5 93t-43 75.5h56q40 -62 76 -127.5t79.5 -165t74.5 -201t52 -231t21 -258.5t-21 -258.5t-52 -231t-74.5 -201t-79.5 -165
t-76 -127.5h-56z" />
    <glyph glyph-name="asterisk" unicode="*" horiz-adv-x="796" 
d="M666 1298l-230 -67l146 -191l-47 -34l-138 194l-135 -194l-47 34l143 191l-227 67l16 58l228 -82l-6 242h59l-6 -240l225 80z" />
    <glyph glyph-name="plus" unicode="+" horiz-adv-x="1048" 
d="M938 733v-53h-383v-375h-61v375h-381v53h381v373h61v-373h383z" />
    <glyph glyph-name="comma" unicode="," horiz-adv-x="395" 
d="M31 -297l141 399h80l-156 -399h-65z" />
    <glyph glyph-name="hyphen" unicode="-" horiz-adv-x="833" 
d="M158 559v51h518v-51h-518z" />
    <glyph glyph-name="period" unicode="." horiz-adv-x="403" 
d="M203 -20q-27 0 -46.5 18.5t-19.5 44.5t20 46t46 20t44.5 -19.5t18.5 -46.5q0 -26 -18.5 -44.5t-44.5 -18.5z" />
    <glyph glyph-name="slash" unicode="/" horiz-adv-x="745" 
d="M96 -205l490 1802h63l-489 -1802h-64z" />
    <glyph glyph-name="zero" unicode="0" horiz-adv-x="1245" 
d="M623 -20q-151 0 -266.5 96.5t-178.5 273.5t-63 408t63 408t178.5 273.5t266.5 96.5q152 0 267 -96.5t177.5 -273t62.5 -408.5t-62.5 -408.5t-177.5 -273t-267 -96.5zM623 37q196 0 316 198.5t120 522.5t-120 522.5t-316 198.5q-198 0 -318.5 -198.5t-120.5 -522.5
t120.5 -522.5t318.5 -198.5z" />
    <glyph glyph-name="one" unicode="1" horiz-adv-x="632" 
d="M340 0v1458h-305v58h373v-1516h-68z" />
    <glyph glyph-name="two" unicode="2" horiz-adv-x="1116" 
d="M100 0v45l453 485q11 12 56 60t63 68t58 68t59.5 77t48 76.5t42 85.5t24.5 85t11 93q0 155 -99 245.5t-263 90.5q-167 0 -268 -96t-101 -253l-71 5q0 180 120.5 290.5t317.5 110.5q196 0 315 -105t119 -282q0 -52 -12 -105t-28 -96t-48.5 -96t-55.5 -86.5t-68.5 -87
t-67.5 -77.5t-71 -77q-26 -28 -38 -41l-399 -426h811v-57h-908z" />
    <glyph glyph-name="three" unicode="3" horiz-adv-x="1130" 
d="M541 844q217 0 349 -116.5t132 -307.5q0 -198 -137.5 -319t-364.5 -121q-142 0 -251 46.5t-173 137.5l31 51q127 -178 387 -178q196 0 315 105.5t119 277.5q0 166 -118 266t-312 100q-146 0 -252 -53l-18 37l641 688h-744v58h840v-46l-604 -645q74 19 160 19z" />
    <glyph glyph-name="four" unicode="4" horiz-adv-x="1204" 
d="M829 0v350h-780v60l787 1106h61v-1106h244v-60h-244v-350h-68zM123 408h708l3 997z" />
    <glyph glyph-name="five" unicode="5" horiz-adv-x="1136" 
d="M516 -20q-281 0 -426 145l21 55q140 -143 399 -143q201 0 323.5 109t122.5 288q0 175 -111 283t-294 108q-160 0 -322 -51l-49 8l105 734h678v-58h-615l-92 -618q155 45 307 45q210 0 337.5 -124t127.5 -327t-142 -328.5t-370 -125.5z" />
    <glyph glyph-name="six" unicode="6" horiz-adv-x="1114" 
d="M575 909q204 0 330.5 -128t126.5 -337q0 -210 -128 -337t-339 -127t-339 126.5t-128 335.5q0 164 88 295l514 779h80l-450 -672q106 65 245 65zM565 37q179 0 287.5 111.5t108.5 295.5q0 183 -109 295.5t-287 112.5q-177 0 -285 -112.5t-108 -295.5q0 -184 108 -295.5
t285 -111.5z" />
    <glyph glyph-name="seven" unicode="7" horiz-adv-x="999" 
d="M41 1516h917l-559 -1516h-75l544 1458h-827v58z" />
    <glyph glyph-name="eight" unicode="8" horiz-adv-x="1189" 
d="M752 786q144 -39 227.5 -142.5t83.5 -252.5q0 -184 -129 -297.5t-338 -113.5q-210 0 -338.5 113t-128.5 296q0 150 82.5 254t228.5 143q-127 37 -198.5 133t-71.5 230q0 174 117 280.5t309 106.5q191 0 308.5 -106t117.5 -279q0 -135 -72 -231.5t-198 -133.5zM242 1145
q0 -149 97 -240.5t257 -91.5q158 0 255 91.5t97 240.5t-97 241.5t-255 92.5q-159 0 -256.5 -92t-97.5 -242zM596 37q177 0 285 98.5t108 259.5q0 162 -108 261.5t-285 99.5q-178 0 -286.5 -99.5t-108.5 -261.5q0 -161 108.5 -259.5t286.5 -98.5z" />
    <glyph glyph-name="nine" unicode="9" horiz-adv-x="1114" 
d="M549 1536q211 0 339 -127t128 -336q0 -164 -88 -295l-514 -778h-80l450 672q-107 -66 -245 -66q-204 0 -330.5 128t-126.5 337q0 211 128 338t339 127zM549 664q177 0 285 112t108 295q0 184 -108 296t-285 112q-179 0 -287 -112t-108 -296q0 -183 108.5 -295t286.5 -112
z" />
    <glyph glyph-name="colon" unicode=":" horiz-adv-x="444" 
d="M223 961q-26 0 -45.5 18.5t-19.5 44.5t19.5 46t45.5 20t45 -20t19 -46t-19 -44.5t-45 -18.5zM223 -20q-26 0 -45.5 18.5t-19.5 44.5t19.5 46t45.5 20t45 -20t19 -46t-19 -44.5t-45 -18.5z" />
    <glyph glyph-name="semicolon" unicode=";" horiz-adv-x="561" 
d="M289 961q-27 0 -46.5 18.5t-19.5 44.5t20 46t46 20t44.5 -19.5t18.5 -46.5q0 -26 -18.5 -44.5t-44.5 -18.5zM139 -297l140 399h79l-153 -399h-66z" />
    <glyph glyph-name="less" unicode="&#x3c;" horiz-adv-x="1015" 
d="M864 1155v-61l-708 -377l708 -377v-61l-784 421v33z" />
    <glyph glyph-name="equal" unicode="=" horiz-adv-x="1150" 
d="M164 924v53h823v-53h-823zM164 434v53h823v-53h-823z" />
    <glyph glyph-name="greater" unicode="&#x3e;" horiz-adv-x="1015" 
d="M152 1155l784 -422v-33l-784 -421v61l706 377l-706 377v61z" />
    <glyph glyph-name="question" unicode="?" horiz-adv-x="1026" 
d="M461 264q0 114 16.5 207.5t38 151.5t61 111.5t67 79.5t73.5 63q41 34 61 53.5t46 54t37 75t11 93.5q0 147 -100.5 236.5t-265.5 89.5q-161 0 -261.5 -90t-105.5 -236l-65 4q4 170 123.5 274.5t308.5 104.5q197 0 317.5 -103.5t120.5 -271.5q0 -63 -12.5 -112t-42 -89.5
t-52.5 -63.5t-69 -62q-34 -29 -51.5 -45t-48.5 -49t-48 -60.5t-39.5 -72.5t-34 -92t-20 -112t-8.5 -139h-57zM489 -20q-23 0 -39 16t-16 39t16 39t39 16t39.5 -16t16.5 -39t-16.5 -39t-39.5 -16z" />
    <glyph glyph-name="at" unicode="@" horiz-adv-x="2113" 
d="M1384 958h62v-583q0 -105 50.5 -167.5t137.5 -62.5q127 0 207 136.5t80 357.5q0 252 -107.5 445t-301 298t-443.5 105q-265 0 -467 -120t-311 -338t-109 -503q0 -282 107.5 -495.5t309 -331t470.5 -117.5q120 0 276 22t275 60l25 -49q-122 -39 -281 -62.5t-289 -23.5
q-294 0 -511.5 124t-332 349.5t-114.5 525.5q0 302 116.5 531.5t332.5 356t503 126.5q269 0 477.5 -111.5t324.5 -316t116 -469.5q0 -248 -98 -401.5t-255 -153.5q-103 0 -168.5 66.5t-76.5 177.5q-42 -114 -137 -181t-236 -67q-191 0 -304.5 121.5t-113.5 320.5
q0 203 114 325t304 122q136 0 231 -66t137 -182v231zM1024 139q162 0 261 107.5t99 281.5q0 177 -98.5 285.5t-261.5 108.5t-261.5 -108.5t-98.5 -285.5q0 -175 98.5 -282t261.5 -107z" />
    <glyph glyph-name="A" unicode="A" horiz-adv-x="1445" 
d="M1360 0l-203 459h-868l-203 -459h-74l678 1516h66l678 -1516h-74zM315 516h815l-407 922z" />
    <glyph glyph-name="B" unicode="B" horiz-adv-x="1366" 
d="M891 786q164 -23 260 -124t96 -254q0 -183 -127 -295.5t-336 -112.5h-559v1516h506q205 0 330 -103t125 -272q0 -136 -78 -227.5t-217 -127.5zM293 1458v-651h430q175 0 282 90t107 236t-111 235.5t-292 89.5h-416zM770 57q183 0 294.5 95.5t111.5 250.5
q0 156 -111.5 251.5t-294.5 95.5h-477v-693h477z" />
    <glyph glyph-name="C" unicode="C" horiz-adv-x="1398" 
d="M854 -20q-330 0 -531.5 214t-201.5 564t201.5 564t531.5 214q260 0 446 -147v-70q-184 160 -446 160q-196 0 -346.5 -89.5t-232.5 -253.5t-82 -378t82 -378t232.5 -253.5t346.5 -89.5q262 0 446 160v-70q-186 -147 -446 -147z" />
    <glyph glyph-name="D" unicode="D" horiz-adv-x="1533" 
d="M684 1516q328 0 528.5 -210t200.5 -554q0 -338 -200.5 -545t-528.5 -207h-459v1516h459zM666 57q304 0 489.5 191.5t185.5 503.5q0 318 -185.5 512t-489.5 194h-373v-1401h373z" />
    <glyph glyph-name="E" unicode="E" horiz-adv-x="1245" 
d="M293 57h823v-57h-891v1516h871v-58h-803v-653h760v-57h-760v-691z" />
    <glyph glyph-name="F" unicode="F" horiz-adv-x="1091" 
d="M1016 1458h-723v-694h657v-57h-657v-707h-68v1516h791v-58z" />
    <glyph glyph-name="G" unicode="G" horiz-adv-x="1609" 
d="M1532 772v-14q0 -359 -187 -568.5t-507 -209.5q-321 0 -518 214t-197 564t197 564t518 214q149 0 261.5 -33.5t225.5 -116.5l-45 -45q-182 138 -440 138q-290 0 -467.5 -198.5t-177.5 -522.5t177.5 -522.5t467.5 -198.5q278 0 445 184.5t175 491.5h-540v59h612z" />
    <glyph glyph-name="H" unicode="H" horiz-adv-x="1605" 
d="M1313 1516h67v-1516h-67v739h-1020v-739h-68v1516h68v-719h1020v719z" />
    <glyph glyph-name="I" unicode="I" horiz-adv-x="518" 
d="M225 0v1516h68v-1516h-68z" />
    <glyph glyph-name="J" unicode="J" horiz-adv-x="811" 
d="M285 -20q-78 0 -148.5 26t-111.5 74l20 49q44 -44 107.5 -68t128.5 -24q116 0 182.5 69t66.5 183v1227h68v-1242q0 -135 -82.5 -214.5t-230.5 -79.5z" />
    <glyph glyph-name="K" unicode="K" horiz-adv-x="1349" 
d="M1235 0l-573 750h-369v-750h-68v1516h68v-709h371l557 709h86l-582 -740l596 -776h-86z" />
    <glyph glyph-name="L" unicode="L" horiz-adv-x="1069" 
d="M293 57h747v-57h-815v1516h68v-1459z" />
    <glyph glyph-name="M" unicode="M" horiz-adv-x="2007" 
d="M1821 0h-68l-74 1384l-649 -1384h-53l-649 1384l-74 -1384h-68l82 1534h62l674 -1438l673 1438h60z" />
    <glyph glyph-name="N" unicode="N" horiz-adv-x="1681" 
d="M225 0v1516h47l1119 -1391l-2 1391h67v-1516h-47l-1116 1391v-1391h-68z" />
    <glyph glyph-name="O" unicode="O" horiz-adv-x="1703" 
d="M854 -20q-330 0 -531.5 214t-201.5 564t201.5 564t531.5 214q327 0 528 -214t201 -564t-201 -564t-528 -214zM854 37q295 0 476 198.5t181 522.5t-181 522.5t-476 198.5q-196 0 -346.5 -89.5t-232.5 -253.5t-82 -378t82 -378t232.5 -253.5t346.5 -89.5z" />
    <glyph glyph-name="P" unicode="P" horiz-adv-x="1284" 
d="M735 1516q212 0 341.5 -122.5t129.5 -320.5q0 -202 -128 -325t-337 -123h-448v-625h-68v1516h510zM721 682q186 0 300 107t114 282q0 173 -114 280t-300 107h-428v-776h428z" />
    <glyph glyph-name="Q" unicode="Q" horiz-adv-x="1705" 
d="M1612 0h-86l-174 164q-193 -184 -498 -184q-330 0 -531.5 214t-201.5 564t201.5 564t531.5 214q327 0 528 -214t201 -564q0 -341 -190 -553zM854 37q273 0 449 170l-302 282h86l256 -239q168 198 168 508q0 324 -181 522.5t-476 198.5q-196 0 -346.5 -89.5t-232.5 -253.5
t-82 -378t82 -378t232.5 -253.5t346.5 -89.5z" />
    <glyph glyph-name="R" unicode="R" horiz-adv-x="1386" 
d="M1323 0h-80l-442 659q-18 -2 -60 -2h-448v-657h-68v1516h510q223 0 357.5 -117.5t134.5 -311.5q0 -162 -94.5 -272.5t-258.5 -144.5zM733 717q191 0 306.5 101.5t115.5 268.5t-119 269t-313 102h-430v-741h440z" />
    <glyph glyph-name="S" unicode="S" horiz-adv-x="1234" 
d="M600 -20q-146 0 -269.5 41.5t-195.5 125.5l35 54q151 -164 422 -164q206 0 331.5 90.5t125.5 239.5q0 74 -31.5 132t-95 101.5t-137 75t-179.5 63.5l-112 35q-62 18 -111.5 38t-98.5 52t-81.5 70t-53 93t-20.5 122q0 175 134 281t355 106q286 0 447 -174l-39 -49
q-155 166 -414 166q-185 0 -298 -89.5t-113 -234.5q0 -71 26 -125.5t77.5 -91.5t103.5 -59.5t127 -44.5l118 -37q54 -16 92 -29t90.5 -35.5t89.5 -44.5t77 -55t64 -69.5t40 -85.5t16 -105q0 -177 -144 -285t-378 -108z" />
    <glyph glyph-name="T" unicode="T" horiz-adv-x="1130" 
d="M1104 1516v-58h-506v-1458h-68v1458h-505v58h1079z" />
    <glyph glyph-name="U" unicode="U" horiz-adv-x="1601" 
d="M801 -20q-269 0 -432.5 148t-163.5 392v996h67v-994q0 -218 145.5 -351.5t383.5 -133.5t383 133.5t145 351.5v994h68v-996q0 -244 -163.5 -392t-432.5 -148z" />
    <glyph glyph-name="V" unicode="V" horiz-adv-x="1449" 
d="M692 0l-678 1516h74l637 -1442l637 1442h74l-678 -1516h-66z" />
    <glyph glyph-name="W" unicode="W" horiz-adv-x="2215" 
d="M2116 1516h73l-553 -1516h-67l-461 1409l-461 -1409h-65l-555 1516h73l516 -1424l457 1424h70l459 -1424z" />
    <glyph glyph-name="X" unicode="X" horiz-adv-x="1255" 
d="M1235 0h-78l-530 727l-527 -727h-80l566 780l-514 736h80l477 -682l475 682h80l-514 -734z" />
    <glyph glyph-name="Y" unicode="Y" horiz-adv-x="1296" 
d="M1178 1516h77l-573 -865v-651h-68v651l-575 865h80l530 -801z" />
    <glyph glyph-name="Z" unicode="Z" horiz-adv-x="1134" 
d="M174 57h895v-57h-1003l882 1458h-870v58h979z" />
    <glyph glyph-name="bracketleft" unicode="[" horiz-adv-x="679" 
d="M213 -369v1966h414v-53h-353v-1859h353v-54h-414z" />
    <glyph glyph-name="backslash" unicode="\" horiz-adv-x="745" 
d="M586 -205l-490 1802h64l489 -1802h-63z" />
    <glyph glyph-name="bracketright" unicode="]" horiz-adv-x="679" 
d="M467 -369h-416v54h352v1859h-352v53h416v-1966z" />
    <glyph glyph-name="asciicircum" unicode="^" horiz-adv-x="897" 
d="M780 680h-69l-262 526l-263 -526h-67l297 594h67z" />
    <glyph glyph-name="underscore" unicode="_" horiz-adv-x="989" 
d="M51 -51v51h887v-51h-887z" />
    <glyph glyph-name="grave" unicode="`" horiz-adv-x="1228" 
d="M301 1270l-285 291h88l258 -291h-61z" />
    <glyph glyph-name="a" unicode="a" horiz-adv-x="1118" 
d="M154 1069h780v-1069h-62v293q-52 -145 -174 -229t-274 -84q-153 0 -246.5 81.5t-93.5 214.5q0 141 117 228.5t309 87.5q191 0 362 -47v471h-718v53zM438 31q77 0 153 31.5t139 88t102.5 146.5t39.5 197q-165 47 -356 47q-165 0 -265.5 -72t-100.5 -190q0 -112 78.5 -180
t209.5 -68z" />
    <glyph glyph-name="b" unicode="b" horiz-adv-x="1343" 
d="M721 1090q230 0 372 -154t142 -404q0 -249 -141.5 -400.5t-372.5 -151.5q-185 0 -305.5 86t-169.5 233v-299h-62v1597h62v-829q49 149 169.5 235.5t305.5 86.5zM707 35q207 0 333.5 136.5t126.5 360.5q0 226 -126.5 364t-333.5 138t-334 -137.5t-127 -361.5
q0 -225 127 -362.5t334 -137.5z" />
    <glyph glyph-name="c" unicode="c" horiz-adv-x="978" 
d="M618 -20q-229 0 -368 152.5t-139 402.5q0 249 139.5 402t367.5 153q142 0 259 -93v-65q-105 102 -256 102q-200 0 -322.5 -137.5t-122.5 -361.5q0 -225 122.5 -362.5t322.5 -137.5q154 0 256 102v-65q-113 -92 -259 -92z" />
    <glyph glyph-name="d" unicode="d" horiz-adv-x="1343" 
d="M1098 1597h61v-1597h-59l-2 244v55q-49 -147 -169.5 -233t-305.5 -86q-229 0 -370.5 152t-141.5 400q0 250 141.5 404t370.5 154q185 0 305.5 -86.5t169.5 -235.5v829zM637 35q207 0 334 137.5t127 362.5q0 224 -127 361.5t-334 137.5t-334 -138t-127 -364
q0 -224 127 -360.5t334 -136.5z" />
    <glyph glyph-name="e" unicode="e" horiz-adv-x="1181" 
d="M1083 547v-39h-905q9 -216 123.5 -345.5t298.5 -129.5q121 0 225.5 58t180.5 161l43 -35q-81 -117 -196.5 -177t-252.5 -60q-220 0 -353.5 154.5t-133.5 406.5q0 247 133.5 398t351.5 151t351.5 -150t133.5 -393zM598 1036q-187 0 -301 -130t-119 -347h840
q-5 217 -119 347t-301 130z" />
    <glyph glyph-name="f" unicode="f" horiz-adv-x="729" 
d="M721 1544h-428v-475h418v-53h-418v-1016h-62v1016h-192v53h192v528h490v-53z" />
    <glyph glyph-name="g" unicode="g" horiz-adv-x="1343" 
d="M1102 1069h59v-1520h-1011v54h950v696q-49 -147 -169.5 -233t-305.5 -86q-229 0 -370.5 153t-141.5 404q0 247 141.5 400t370.5 153q185 0 305.5 -86.5t169.5 -235.5v57zM639 35q207 0 334 137.5t127 362.5q0 224 -127 361.5t-334 137.5t-334 -136.5t-127 -360.5
q0 -227 127 -364.5t334 -137.5z" />
    <glyph glyph-name="h" unicode="h" horiz-adv-x="1277" 
d="M659 1090q201 0 325 -114t124 -300v-676h-61v657q0 170 -110 273.5t-292 103.5q-180 0 -289.5 -103.5t-109.5 -273.5v-657h-62v1597h62v-755q45 117 147.5 182.5t265.5 65.5z" />
    <glyph glyph-name="i" unicode="i" horiz-adv-x="438" 
d="M217 1403q-23 0 -39 17t-16 40t16 39.5t39 16.5t39 -16.5t16 -39.5t-16 -40t-39 -17zM188 0v1069h62v-1069h-62z" />
    <glyph glyph-name="j" unicode="j" horiz-adv-x="438" 
d="M217 1403q-23 0 -39 17t-16 40t16 39.5t39 16.5t39 -16.5t16 -39.5t-16 -40t-39 -17zM188 -451v1520h62v-1520h-62z" />
    <glyph glyph-name="k" unicode="k" horiz-adv-x="1118" 
d="M1018 0l-469 535h-303v-535h-62v1597h62v-1009h301l448 481h78l-473 -508l498 -561h-80z" />
    <glyph glyph-name="l" unicode="l" horiz-adv-x="503" 
d="M193 0v1597h61v-1544h242v-53h-303z" />
    <glyph glyph-name="m" unicode="m" horiz-adv-x="1978" 
d="M1395 1090q187 0 300 -114t113 -300v-676h-61v657q0 170 -98.5 273.5t-259.5 103.5q-163 0 -262 -103.5t-99 -273.5v-657h-61v657q0 170 -99.5 273.5t-261.5 103.5t-261 -103.5t-99 -273.5v-657h-62v1069h62v-219q41 113 135 176.5t240 63.5q143 0 245.5 -73.5
t141.5 -199.5q40 125 137.5 199t249.5 74z" />
    <glyph glyph-name="n" unicode="n" horiz-adv-x="1277" 
d="M659 1090q201 0 325 -114t124 -300v-676h-61v657q0 170 -110 273.5t-292 103.5q-180 0 -289.5 -103.5t-109.5 -273.5v-657h-62v1069h62v-227q45 117 147.5 182.5t265.5 65.5z" />
    <glyph glyph-name="o" unicode="o" horiz-adv-x="1273" 
d="M639 -20q-238 0 -383 152.5t-145 402.5q0 249 145 402t383 153q235 0 379.5 -153t144.5 -402q0 -250 -144.5 -402.5t-379.5 -152.5zM637 35q207 0 334 137.5t127 362.5q0 224 -127 361.5t-334 137.5t-334 -137.5t-127 -361.5q0 -225 127 -362.5t334 -137.5z" />
    <glyph glyph-name="p" unicode="p" horiz-adv-x="1343" 
d="M721 1090q230 0 372 -152.5t142 -400.5q0 -251 -141.5 -404t-372.5 -153q-185 0 -305.5 86t-169.5 233v-750h-62v1520h62v-301q49 149 169.5 235.5t305.5 86.5zM707 35q207 0 333.5 137.5t126.5 364.5q0 224 -126.5 360.5t-333.5 136.5t-334 -137.5t-127 -361.5
q0 -225 127 -362.5t334 -137.5z" />
    <glyph glyph-name="q" unicode="q" horiz-adv-x="1343" 
d="M1100 1069h59v-1520h-61v750q-49 -147 -169.5 -233t-305.5 -86q-229 0 -370.5 153t-141.5 404q0 247 141.5 400t370.5 153q185 0 305.5 -86.5t169.5 -235.5v57zM637 35q207 0 334 137.5t127 362.5q0 224 -127 361.5t-334 137.5t-334 -136.5t-127 -360.5
q0 -227 127 -364.5t334 -137.5z" />
    <glyph glyph-name="r" unicode="r" horiz-adv-x="706" 
d="M246 844q90 246 446 246l-8 -58q-211 0 -324.5 -101.5t-113.5 -279.5v-651h-62v1069h62v-225z" />
    <glyph glyph-name="s" unicode="s" horiz-adv-x="937" 
d="M459 -20q-110 0 -199.5 26t-140.5 76l31 43q108 -92 309 -92q139 0 224 63.5t85 167.5q0 166 -252 238l-133 41q-64 19 -109.5 40t-84 51.5t-57.5 74t-19 100.5q0 126 95.5 203.5t250.5 77.5q189 0 338 -89l-29 -49q-127 84 -303 84q-128 0 -207.5 -61t-79.5 -160
q0 -87 58 -136.5t167 -80.5l134 -39q48 -15 87.5 -31.5t80 -42t68 -55t44.5 -71t17 -89.5q0 -131 -101.5 -210.5t-273.5 -79.5z" />
    <glyph glyph-name="t" unicode="t" horiz-adv-x="651" 
d="M670 1069v-53h-293v-1016h-62v1016h-292v53h292v313h62v-313h293z" />
    <glyph glyph-name="u" unicode="u" horiz-adv-x="1245" 
d="M623 -20q-204 0 -328.5 114t-124.5 301v674h61v-657q0 -170 107.5 -273.5t284.5 -103.5t284 103.5t107 273.5v657h61v-674q0 -187 -124 -301t-328 -114z" />
    <glyph glyph-name="v" unicode="v" horiz-adv-x="1116" 
d="M526 0l-493 1069h69l457 -995l457 995h67l-491 -1069h-66z" />
    <glyph glyph-name="w" unicode="w" horiz-adv-x="1859" 
d="M1753 1069h70l-432 -1069h-66l-395 991l-395 -991h-66l-432 1069h69l398 -995l395 995h62l397 -995z" />
    <glyph glyph-name="x" unicode="x" horiz-adv-x="1062" 
d="M1024 0h-78l-414 506l-415 -506h-78l453 549l-429 520h76l393 -479l392 479h75l-428 -520z" />
    <glyph glyph-name="y" unicode="y" 
d="M1014 1069h61v-1520h-895v54h834v622q-45 -116 -145.5 -180.5t-260.5 -64.5q-196 0 -317 114t-121 299v676h61v-657q0 -170 107.5 -273.5t284.5 -103.5t284 103.5t107 273.5v657z" />
    <glyph glyph-name="z" unicode="z" horiz-adv-x="976" 
d="M72 0l714 1016h-706v53h815l-717 -1016h727v-53h-833z" />
    <glyph glyph-name="braceleft" unicode="{" horiz-adv-x="761" 
d="M518 -389q-113 0 -181.5 74.5t-68.5 197.5v418q0 128 -49.5 206.5t-130.5 78.5h-18v57h18q81 0 130.5 78.5t49.5 206.5v418q0 123 68.5 197.5t181.5 74.5q97 0 189 -25v-57q-98 25 -185 25q-83 0 -134.5 -62.5t-51.5 -165.5v-413q0 -117 -41.5 -201.5t-108.5 -104.5
q68 -20 109 -104t41 -201v-413q0 -103 51.5 -165.5t134.5 -62.5q87 0 185 25v-58q-89 -24 -189 -24z" />
    <glyph glyph-name="bar" unicode="|" horiz-adv-x="497" 
d="M215 -451v2048h68v-2048h-68z" />
    <glyph glyph-name="braceright" unicode="}" horiz-adv-x="761" 
d="M244 -389q-98 0 -189 24v58q98 -25 187 -25q83 0 133.5 62.5t50.5 165.5v413q0 116 41.5 200.5t107.5 104.5q-66 20 -107.5 104.5t-41.5 201.5v413q0 103 -50.5 165.5t-133.5 62.5q-89 0 -187 -25v57q95 25 189 25q114 0 182 -74.5t68 -197.5v-418q0 -127 50 -206
t130 -79h20v-57h-20q-80 0 -130 -79t-50 -206v-418q0 -123 -68 -197.5t-182 -74.5z" />
    <glyph glyph-name="asciitilde" unicode="~" horiz-adv-x="1146" 
d="M760 496q-45 0 -87 17.5t-75 42t-65 49t-69.5 42t-76.5 17.5q-71 0 -120.5 -41.5t-49.5 -106.5h-49q0 91 63.5 148t159.5 57q54 0 106.5 -26.5t88 -57.5t83.5 -57.5t95 -26.5q71 0 120.5 40.5t49.5 106.5h49q0 -92 -63 -148t-160 -56z" />
    <glyph glyph-name="uni00A0" unicode="&#xa0;" horiz-adv-x="567" 
 />
    <glyph glyph-name="exclamdown" unicode="&#xa1;" horiz-adv-x="456" 
d="M229 979q-23 0 -40 16t-17 39t17 39.5t40 16.5t39.5 -16.5t16.5 -39.5t-16.5 -39t-39.5 -16zM193 -451l6 1254h59l6 -1254h-71z" />
    <glyph glyph-name="cent" unicode="&#xa2;" horiz-adv-x="1132" 
d="M1006 221q-130 -127 -336 -139v-164h-64v164q-225 9 -360 161t-135 396q0 238 135.5 389.5t359.5 163.5v164h64v-164q171 -9 305 -113l-39 -45q-117 94 -266 103v-1000q177 10 297 127zM176 637q0 -216 117.5 -351.5t312.5 -146.5v998q-195 -11 -312.5 -147t-117.5 -353z
" />
    <glyph glyph-name="sterling" unicode="&#xa3;" horiz-adv-x="1155" 
d="M307 57h715v-57h-907v57h125v617h-105v57h105v432q0 169 106 271t279 102t280 -103t107 -270l-68 -8q0 145 -88 234.5t-231 89.5t-230.5 -90t-87.5 -238v-420h643v-57h-643v-617z" />
    <glyph glyph-name="currency" unicode="&#xa4;" horiz-adv-x="1204" 
d="M1047 705q0 -170 -111 -291l106 -109l-41 -43l-106 111q-125 -109 -293 -109t-291 107l-106 -109l-43 41l108 109q-112 125 -112 293t112 290l-108 109l43 41l106 -109q123 107 291 107t293 -109l106 111l41 -43l-106 -109q111 -121 111 -288zM219 705
q0 -161 112.5 -275.5t270.5 -114.5t270.5 114.5t112.5 275.5q0 160 -112.5 273.5t-270.5 113.5t-270.5 -113.5t-112.5 -273.5z" />
    <glyph glyph-name="yen" unicode="&#xa5;" horiz-adv-x="1343" 
d="M1280 1516l-559 -842h356v-53h-370v-138h370v-53h-370v-430h-68v430h-373v53h373v138h-373v53h359l-562 842h80l531 -801l528 801h78z" />
    <glyph glyph-name="brokenbar" unicode="&#xa6;" horiz-adv-x="489" 
d="M211 778v819h68v-819h-68zM211 -451v820h68v-820h-68z" />
    <glyph glyph-name="section" unicode="&#xa7;" horiz-adv-x="1159" 
d="M924 186q114 -106 114 -264q0 -177 -131 -285t-346 -108q-133 0 -245.5 42t-178.5 126l33 53q140 -164 383 -164q187 0 299.5 90.5t112.5 239.5q0 74 -28.5 132t-85.5 102t-123 75.5t-161 63.5l-102 33q-74 25 -127 52.5t-103.5 70.5t-77 107t-26.5 146q0 166 113 273
q-113 95 -113 260q0 175 123 281t324 106q259 0 407 -174l-37 -49q-140 166 -373 166q-167 0 -269.5 -89.5t-102.5 -234.5q0 -58 17 -105t43 -79t68.5 -59.5t81.5 -44t93 -34.5l106 -36q49 -16 83.5 -29t82.5 -35.5t81.5 -44.5t69.5 -55t58 -69.5t36.5 -85.5t14.5 -105
q0 -167 -114 -269zM506 381l106 -35q181 -65 260 -121q95 89 95 224q0 59 -20 109.5t-53.5 87.5t-86.5 70t-109 57.5t-131 49.5l-102 33q-97 33 -168 76q-94 -88 -94 -227q0 -71 23.5 -125.5t70.5 -91.5t93.5 -60t115.5 -47z" />
    <glyph glyph-name="dieresis" unicode="&#xa8;" horiz-adv-x="1228" 
d="M213 1403q-23 0 -39 17t-16 40t16 39.5t39 16.5t39 -16.5t16 -39.5t-16 -40t-39 -17zM571 1403q-23 0 -39 17t-16 40t16 39.5t39 16.5t39.5 -16.5t16.5 -39.5t-16.5 -40t-39.5 -17z" />
    <glyph glyph-name="copyright" unicode="&#xa9;" horiz-adv-x="1732" 
d="M866 -20q-336 0 -539.5 213.5t-203.5 564.5t203.5 564.5t539.5 213.5q221 0 390 -96.5t261.5 -273.5t92.5 -408t-92.5 -408t-261.5 -273.5t-390 -96.5zM866 29q204 0 359.5 90.5t240 256t84.5 382.5t-84.5 382.5t-240 256t-359.5 90.5t-359.5 -90.5t-240 -256
t-84.5 -382.5t84.5 -382.5t240 -256t359.5 -90.5zM877 324q-186 0 -300 117.5t-114 310.5q0 192 114 310t300 118q184 0 309 -138l-37 -38q-109 124 -268 124q-160 0 -257.5 -102.5t-97.5 -271.5q0 -171 97 -276t254 -105q93 0 168 39.5t124 109.5l41 -39
q-123 -159 -333 -159z" />
    <glyph glyph-name="ordfeminine" unicode="&#xaa;" horiz-adv-x="802" 
d="M389 1536q115 0 183.5 -68.5t68.5 -181.5v-407h-53v165q-32 -84 -102 -131t-158 -47q-93 0 -150 50.5t-57 132.5q0 86 70.5 138t187.5 52q98 0 209 -27v62q0 98 -58 157.5t-153 59.5q-113 0 -189 -82l-26 35q83 92 227 92zM340 909q95 0 171.5 72.5t76.5 192.5
q-102 26 -203 26q-94 0 -151.5 -41t-57.5 -110q0 -63 45 -101.5t119 -38.5z" />
    <glyph glyph-name="guillemotleft" unicode="&#xab;" horiz-adv-x="1054" 
d="M524 1006l-350 -453l350 -453h-67l-355 453l355 453h67zM944 1006l-350 -453l350 -453h-67l-355 453l355 453h67z" />
    <glyph glyph-name="logicalnot" unicode="&#xac;" horiz-adv-x="1163" 
d="M999 836v-347h-61v293h-762v54h823z" />
    <glyph glyph-name="uni00AD" unicode="&#xad;" horiz-adv-x="833" 
d="M158 559v51h518v-51h-518z" />
    <glyph glyph-name="registered" unicode="&#xae;" horiz-adv-x="860" 
d="M430 1618q136 0 219.5 -85.5t83.5 -225.5t-83.5 -226t-219.5 -86t-219.5 86t-83.5 226t83.5 225.5t219.5 85.5zM430 1022q120 0 194 78.5t74 206.5q0 126 -74 204t-194 78q-121 0 -194.5 -78t-73.5 -204q0 -128 73.5 -206.5t194.5 -78.5zM553 1370q0 -70 -70 -92l95 -139
h-48l-86 133h-8h-82v-133h-39v334h127q49 0 80 -28.5t31 -74.5zM354 1440v-135h80q35 0 56.5 18t21.5 47q0 32 -20.5 51t-55.5 19h-82z" />
    <glyph glyph-name="macron" unicode="&#xaf;" horiz-adv-x="1228" 
d="M158 1354v53h575v-53h-575z" />
    <glyph glyph-name="degree" unicode="&#xb0;" horiz-adv-x="718" 
d="M360 1151q-112 0 -179.5 63.5t-67.5 169.5t67.5 170t179.5 64q110 0 177 -64t67 -170t-67 -169.5t-177 -63.5zM360 1196q84 0 135.5 52t51.5 136q0 85 -52 137t-135 52q-85 0 -136.5 -52t-51.5 -137t51.5 -136.5t136.5 -51.5z" />
    <glyph glyph-name="plusminus" unicode="&#xb1;" horiz-adv-x="1157" 
d="M608 852h363v-55h-363v-371h-59v371h-363v55h363v371h59v-371zM186 211v55h785v-55h-785z" />
    <glyph glyph-name="uni00B2" unicode="&#xb2;" horiz-adv-x="704" 
d="M72 811v39l272 293q2 2 31.5 33.5t36.5 39.5t33 38t35 45t27.5 43.5t25.5 49.5t13.5 48t6.5 53q0 89 -55.5 139.5t-149.5 50.5t-151.5 -54.5t-57.5 -143.5l-57 4q0 111 72.5 177.5t193.5 66.5q119 0 192.5 -63.5t73.5 -170.5q0 -53 -17.5 -104t-54 -103t-64.5 -84.5
t-78 -85.5l-6 -6t-5 -5.5t-6 -6.5l-229 -244l473 2v-51h-555z" />
    <glyph glyph-name="uni00B3" unicode="&#xb3;" horiz-adv-x="704" 
d="M340 1323q130 0 209.5 -70t79.5 -186q0 -121 -83.5 -194.5t-221.5 -73.5q-181 0 -258 106l24 45q73 -100 225 -100q116 0 184 58.5t68 158.5q0 94 -67.5 151.5t-177.5 57.5q-81 0 -148 -31l-18 31l366 395h-424v49h506v-37l-344 -366q37 6 80 6z" />
    <glyph glyph-name="acute" unicode="&#xb4;" horiz-adv-x="1228" 
d="M283 1270l260 291h88l-287 -291h-61z" />
    <glyph glyph-name="paragraph" unicode="&#xb6;" horiz-adv-x="1079" 
d="M844 1516v-1967h-62v1911h-250v-1911h-59v1325h-135q-121 0 -194.5 89t-73.5 235q0 143 82 230.5t215 87.5h477z" />
    <glyph glyph-name="periodcentered" unicode="&#xb7;" horiz-adv-x="438" 
d="M219 522q-26 0 -44.5 19t-18.5 45t18.5 45.5t44.5 19.5t46 -19.5t20 -45.5t-20 -45t-46 -19z" />
    <glyph glyph-name="cedilla" unicode="&#xb8;" horiz-adv-x="1228" 
d="M254 -147q97 0 156 -44t59 -114q0 -75 -63.5 -120.5t-167.5 -45.5q-127 0 -191 61l23 41q55 -55 161 -55q80 0 128.5 32.5t48.5 86.5q0 52 -47.5 83.5t-124.5 31.5q-56 0 -105 -19l-14 27l116 182h56l-101 -154q35 7 66 7z" />
    <glyph glyph-name="uni00B9" unicode="&#xb9;" horiz-adv-x="415" 
d="M213 811v860h-178v49h235v-909h-57z" />
    <glyph glyph-name="ordmasculine" unicode="&#xba;" horiz-adv-x="872" 
d="M438 866q-146 0 -233.5 92t-87.5 244q0 150 87.5 242t233.5 92q143 0 232.5 -92.5t89.5 -241.5q0 -151 -89.5 -243.5t-232.5 -92.5zM438 913q118 0 190 79t72 210q0 128 -72 206.5t-190 78.5q-119 0 -192.5 -79t-73.5 -206q0 -130 73.5 -209.5t192.5 -79.5z" />
    <glyph glyph-name="guillemotright" unicode="&#xbb;" horiz-adv-x="1054" 
d="M178 1006l357 -453l-357 -453h-65l348 453l-348 453h65zM598 1006l356 -453l-356 -453h-66l349 453l-349 453h66z" />
    <glyph glyph-name="onequarter" unicode="&#xbc;" horiz-adv-x="1460" 
d="M174 -20l-45 30l895 1526l47 -31zM213 606v860h-178v50h235v-910h-57zM1210 0v207h-462v45l469 657h51v-653h141v-49h-141v-207h-58zM807 254h405v565z" />
    <glyph glyph-name="onehalf" unicode="&#xbd;" horiz-adv-x="1486" 
d="M174 -20l-45 30l895 1526l47 -31zM213 606v860h-178v50h235v-910h-57zM854 0v39l272 293q2 2 31.5 33.5t36.5 39.5t33 38t35 45t27.5 43.5t25.5 49.5t13.5 48t6.5 53q0 89 -55.5 139.5t-149.5 50.5t-151 -54.5t-57 -143.5l-58 4q0 111 72.5 177.5t193.5 66.5
q119 0 193 -64t74 -170q0 -53 -17.5 -104t-53.5 -102t-65 -84.5t-77 -84.5q-13 -13 -19 -20l-229 -244l473 2v-51h-555z" />
    <glyph glyph-name="threequarters" unicode="&#xbe;" horiz-adv-x="1748" 
d="M1313 1536l47 -31l-897 -1525l-45 30zM629 862q0 -121 -83.5 -194.5t-221.5 -73.5q-181 0 -258 106l24 45q73 -100 225 -100q116 0 184 58.5t68 158.5q0 94 -67.5 151.5t-177.5 57.5q-81 0 -148 -31l-18 31l366 395h-424v50h506v-37l-344 -367q37 6 80 6q130 0 209.5 -70
t79.5 -186zM1556 256h142v-49h-142v-207h-57v207h-463v45l469 657h51v-653zM1501 254v565l-405 -565h405z" />
    <glyph glyph-name="questiondown" unicode="&#xbf;" horiz-adv-x="1009" 
d="M528 979q-23 0 -39 16t-16 39t16 39.5t39 16.5t39.5 -16.5t16.5 -39.5t-16.5 -39t-39.5 -16zM512 -471q-197 0 -317.5 103.5t-120.5 271.5q0 63 12.5 112t42 89.5t52.5 63.5t69 62q34 30 51 45.5t48.5 49.5t48.5 61.5t39.5 72.5t34 92t20 112t8.5 139h57
q0 -115 -16.5 -208.5t-38 -152t-61 -112t-67 -79.5t-73.5 -63q-34 -28 -49.5 -42t-40.5 -42t-36.5 -52t-20.5 -60.5t-9 -79.5q0 -146 101 -236t266 -90q160 0 261.5 90t105.5 236l65 -4q-4 -170 -123.5 -274.5t-308.5 -104.5z" />
    <glyph glyph-name="Agrave" unicode="&#xc0;" horiz-adv-x="1445" 
d="M764 1716h-62l-284 291h88zM1360 0l-203 459h-868l-203 -459h-74l678 1516h66l678 -1516h-74zM315 516h815l-407 922z" />
    <glyph glyph-name="Aacute" unicode="&#xc1;" horiz-adv-x="1445" 
d="M1030 2007l-287 -291h-61l260 291h88zM1360 0l-203 459h-868l-203 -459h-74l678 1516h66l678 -1516h-74zM315 516h815l-407 922z" />
    <glyph glyph-name="Acircumflex" unicode="&#xc2;" horiz-adv-x="1445" 
d="M725 1966l-233 -250h-68l262 291h76l262 -291h-68zM1360 0l-203 459h-868l-203 -459h-74l678 1516h66l678 -1516h-74zM315 516h815l-407 922z" />
    <glyph glyph-name="Atilde" unicode="&#xc3;" horiz-adv-x="1445" 
d="M555 1909q-54 0 -91.5 -41t-37.5 -105h-51q0 91 52 148t130 57q39 0 76.5 -17.5t66.5 -42t57.5 -49t62 -42t67.5 -17.5q54 0 90.5 41t36.5 107h51q0 -92 -52 -148.5t-130 -56.5q-39 0 -76 17t-66.5 41.5t-57.5 49t-61 41.5t-67 17zM1360 0l-203 459h-868l-203 -459h-74
l678 1516h66l678 -1516h-74zM315 516h815l-407 922z" />
    <glyph glyph-name="Adieresis" unicode="&#xc4;" horiz-adv-x="1445" 
d="M543 1849q-23 0 -39.5 17.5t-16.5 40.5t16.5 39t39.5 16t39 -16t16 -39q0 -24 -16 -41t-39 -17zM901 1849q-23 0 -39 17t-16 41q0 23 16 39t39 16t39 -16t16 -39q0 -24 -16 -41t-39 -17zM1360 0l-203 459h-868l-203 -459h-74l678 1516h66l678 -1516h-74zM315 516h815
l-407 922z" />
    <glyph glyph-name="Aring" unicode="&#xc5;" horiz-adv-x="1445" 
d="M723 1642q-95 0 -154 58t-59 153q0 96 58.5 154.5t154.5 58.5q94 0 152.5 -58.5t58.5 -154.5q0 -95 -58.5 -153t-152.5 -58zM723 2023q-72 0 -116 -46.5t-44 -123.5q0 -75 44 -121t116 -46t116 46t44 121q0 77 -44 123.5t-116 46.5zM1360 0l-203 459h-868l-203 -459h-74
l678 1516h66l678 -1516h-74zM315 516h815l-407 922z" />
    <glyph glyph-name="AE" unicode="&#xc6;" horiz-adv-x="2148" 
d="M1350 57h671v-57h-727l-131 459h-841l-263 -459h-75l870 1516h1147v-58h-1059l191 -653h825v-57h-809zM354 516h791l-264 922z" />
    <glyph glyph-name="Ccedilla" unicode="&#xc7;" horiz-adv-x="1398" 
d="M854 1479q-196 0 -346.5 -89.5t-232.5 -253.5t-82 -378t82 -378t232.5 -253.5t346.5 -89.5q262 0 446 160v-70q-180 -141 -426 -147l-88 -134q35 7 66 7q97 0 156 -44t59 -114q0 -75 -63.5 -120.5t-167.5 -45.5q-127 0 -191 61l23 41q55 -55 161 -55q80 0 128.5 32.5
t48.5 86.5q0 52 -47.5 83.5t-124.5 31.5q-56 0 -105 -19l-14 27l104 162q-317 12 -507.5 224.5t-190.5 553.5q0 350 201.5 564t531.5 214q260 0 446 -147v-70q-184 160 -446 160z" />
    <glyph glyph-name="Egrave" unicode="&#xc8;" horiz-adv-x="1245" 
d="M702 1716h-61l-285 291h88zM293 57h823v-57h-891v1516h871v-58h-803v-653h760v-57h-760v-691z" />
    <glyph glyph-name="Eacute" unicode="&#xc9;" horiz-adv-x="1245" 
d="M969 2007l-287 -291h-61l260 291h88zM293 57h823v-57h-891v1516h871v-58h-803v-653h760v-57h-760v-691z" />
    <glyph glyph-name="Ecircumflex" unicode="&#xca;" horiz-adv-x="1245" 
d="M664 1966l-234 -250h-68l263 291h75l263 -291h-68zM293 57h823v-57h-891v1516h871v-58h-803v-653h760v-57h-760v-691z" />
    <glyph glyph-name="Edieresis" unicode="&#xcb;" horiz-adv-x="1245" 
d="M481 1849q-23 0 -39 17t-16 41q0 23 16 39t39 16t39.5 -16t16.5 -39t-16.5 -40.5t-39.5 -17.5zM840 1849q-23 0 -39.5 17.5t-16.5 40.5t16.5 39t39.5 16t39 -16t16 -39q0 -24 -16 -41t-39 -17zM293 57h823v-57h-891v1516h871v-58h-803v-653h760v-57h-760v-691z" />
    <glyph glyph-name="Igrave" unicode="&#xcc;" horiz-adv-x="518" 
d="M240 1716l-285 291h88l258 -291h-61zM225 0v1516h68v-1516h-68z" />
    <glyph glyph-name="Iacute" unicode="&#xcd;" horiz-adv-x="518" 
d="M219 1716l260 291h88l-286 -291h-62zM225 0v1516h68v-1516h-68z" />
    <glyph glyph-name="Icircumflex" unicode="&#xce;" horiz-adv-x="518" 
d="M299 2007l262 -291h-67l-232 250l-233 -250h-68l262 291h76zM225 0v1516h68v-1516h-68z" />
    <glyph glyph-name="Idieresis" unicode="&#xcf;" horiz-adv-x="518" 
d="M80 1849q-23 0 -39 17t-16 41q0 23 16 39t39 16t39 -16t16 -39q0 -24 -16 -41t-39 -17zM438 1849q-23 0 -39 17t-16 41q0 23 16 39t39 16t39.5 -16t16.5 -39t-16.5 -40.5t-39.5 -17.5zM225 0v1516h68v-1516h-68z" />
    <glyph glyph-name="Eth" unicode="&#xd0;" horiz-adv-x="1533" 
d="M684 1516q328 0 528.5 -210t200.5 -554q0 -338 -200.5 -545t-528.5 -207h-459v737h-182v51h182v728h459zM666 57q304 0 489.5 191.5t185.5 503.5q0 318 -185.5 512t-489.5 194h-373v-670h461v-51h-461v-680h373z" />
    <glyph glyph-name="Ntilde" unicode="&#xd1;" horiz-adv-x="1681" 
d="M999 1743q-48 0 -94 26t-77 57t-73 57t-83 26q-54 0 -91.5 -41t-37.5 -105h-51q0 91 52 148t130 57q39 0 76.5 -17.5t66.5 -42t57.5 -49t62 -42t67.5 -17.5q54 0 90 41t36 107h52q0 -92 -52.5 -148.5t-130.5 -56.5zM225 0v1516h47l1119 -1391l-2 1391h67v-1516h-47
l-1116 1391v-1391h-68z" />
    <glyph glyph-name="Ograve" unicode="&#xd2;" horiz-adv-x="1703" 
d="M834 1716l-285 291h88l258 -291h-61zM854 -20q-330 0 -531.5 214t-201.5 564t201.5 564t531.5 214q327 0 528 -214t201 -564t-201 -564t-528 -214zM854 37q295 0 476 198.5t181 522.5t-181 522.5t-476 198.5q-196 0 -346.5 -89.5t-232.5 -253.5t-82 -378t82 -378
t232.5 -253.5t346.5 -89.5z" />
    <glyph glyph-name="Oacute" unicode="&#xd3;" horiz-adv-x="1703" 
d="M813 1716l260 291h88l-287 -291h-61zM854 -20q-330 0 -531.5 214t-201.5 564t201.5 564t531.5 214q327 0 528 -214t201 -564t-201 -564t-528 -214zM854 37q295 0 476 198.5t181 522.5t-181 522.5t-476 198.5q-196 0 -346.5 -89.5t-232.5 -253.5t-82 -378t82 -378
t232.5 -253.5t346.5 -89.5z" />
    <glyph glyph-name="Ocircumflex" unicode="&#xd4;" horiz-adv-x="1703" 
d="M856 1966l-233 -250h-68l262 291h76l262 -291h-68zM854 1536q327 0 528 -214t201 -564t-201 -564t-528 -214q-330 0 -531.5 214t-201.5 564t201.5 564t531.5 214zM854 37q295 0 476 198.5t181 522.5t-181 522.5t-476 198.5q-196 0 -346.5 -89.5t-232.5 -253.5t-82 -378
t82 -378t232.5 -253.5t346.5 -89.5z" />
    <glyph glyph-name="Otilde" unicode="&#xd5;" horiz-adv-x="1703" 
d="M1014 1743q-39 0 -76 17t-66.5 41.5t-57.5 49t-61 41.5t-67 17q-54 0 -91.5 -41t-37.5 -105h-51q0 91 52 148t130 57q39 0 76.5 -17.5t66.5 -42t57.5 -49t62 -42t67.5 -17.5q54 0 90.5 41t36.5 107h51q0 -92 -52 -148.5t-130 -56.5zM854 -20q-330 0 -531.5 214
t-201.5 564t201.5 564t531.5 214q327 0 528 -214t201 -564t-201 -564t-528 -214zM854 37q295 0 476 198.5t181 522.5t-181 522.5t-476 198.5q-196 0 -346.5 -89.5t-232.5 -253.5t-82 -378t82 -378t232.5 -253.5t346.5 -89.5z" />
    <glyph glyph-name="Odieresis" unicode="&#xd6;" horiz-adv-x="1703" 
d="M674 1849q-23 0 -39.5 17.5t-16.5 40.5t16.5 39t39.5 16t39 -16t16 -39q0 -24 -16 -41t-39 -17zM1032 1849q-23 0 -39 17t-16 41q0 23 16 39t39 16t39 -16t16 -39q0 -24 -16 -41t-39 -17zM854 -20q-330 0 -531.5 214t-201.5 564t201.5 564t531.5 214q327 0 528 -214
t201 -564t-201 -564t-528 -214zM854 37q295 0 476 198.5t181 522.5t-181 522.5t-476 198.5q-196 0 -346.5 -89.5t-232.5 -253.5t-82 -378t82 -378t232.5 -253.5t346.5 -89.5z" />
    <glyph glyph-name="multiply" unicode="&#xd7;" horiz-adv-x="999" 
d="M850 1016l-311 -311l311 -312l-39 -39l-311 312l-312 -312l-38 39l311 312l-311 311l38 39l312 -312l311 312z" />
    <glyph glyph-name="Oslash" unicode="&#xd8;" horiz-adv-x="1716" 
d="M1401 1303q182 -210 182 -545q0 -350 -201 -564t-528 -214q-305 0 -504 186l-172 -186l-45 40l174 189q-186 211 -186 549q0 350 201.5 564t531.5 214q308 0 504 -190l176 190l45 -41zM193 758q0 -306 161 -500l959 1040q-178 181 -459 181q-196 0 -346.5 -89.5
t-232.5 -253.5t-82 -378zM854 37q295 0 476 198.5t181 522.5q0 300 -157 493l-959 -1038q179 -176 459 -176z" />
    <glyph glyph-name="Ugrave" unicode="&#xd9;" horiz-adv-x="1601" 
d="M780 1716l-284 291h88l258 -291h-62zM801 -20q-269 0 -432.5 148t-163.5 392v996h67v-994q0 -218 145.5 -351.5t383.5 -133.5t383 133.5t145 351.5v994h68v-996q0 -244 -163.5 -392t-432.5 -148z" />
    <glyph glyph-name="Uacute" unicode="&#xda;" horiz-adv-x="1601" 
d="M760 1716l260 291h88l-287 -291h-61zM801 -20q-269 0 -432.5 148t-163.5 392v996h67v-994q0 -218 145.5 -351.5t383.5 -133.5t383 133.5t145 351.5v994h68v-996q0 -244 -163.5 -392t-432.5 -148z" />
    <glyph glyph-name="Ucircumflex" unicode="&#xdb;" horiz-adv-x="1601" 
d="M803 1966l-234 -250h-67l262 291h76l262 -291h-68zM1329 1516h68v-996q0 -244 -163.5 -392t-432.5 -148t-432.5 148t-163.5 392v996h67v-994q0 -218 145.5 -351.5t383.5 -133.5t383 133.5t145 351.5v994z" />
    <glyph glyph-name="Udieresis" unicode="&#xdc;" horiz-adv-x="1601" 
d="M621 1849q-23 0 -39.5 17.5t-16.5 40.5t16.5 39t39.5 16t39 -16t16 -39q0 -24 -16 -41t-39 -17zM979 1849q-23 0 -39 17t-16 41q0 23 16 39t39 16t39 -16t16 -39q0 -24 -16 -41t-39 -17zM801 -20q-269 0 -432.5 148t-163.5 392v996h67v-994q0 -218 145.5 -351.5
t383.5 -133.5t383 133.5t145 351.5v994h68v-996q0 -244 -163.5 -392t-432.5 -148z" />
    <glyph glyph-name="Yacute" unicode="&#xdd;" horiz-adv-x="1296" 
d="M958 2007l-286 -291h-62l260 291h88zM1178 1516h77l-573 -865v-651h-68v651l-575 865h80l530 -801z" />
    <glyph glyph-name="Thorn" unicode="&#xde;" horiz-adv-x="1290" 
d="M735 1214q212 0 341.5 -122t129.5 -322q0 -201 -128 -323.5t-337 -122.5h-448v-324h-68v1516h68v-302h442zM721 381q186 0 300 107t114 280q0 175 -114 281t-300 106h-428v-774h428z" />
    <glyph glyph-name="germandbls" unicode="&#xdf;" horiz-adv-x="1210" 
d="M745 856q167 -35 264 -150.5t97 -281.5q0 -199 -136.5 -321.5t-357.5 -122.5q-84 0 -155 24l8 53q60 -22 141 -22q195 0 313.5 108.5t118.5 286.5q0 180 -119.5 288.5t-314.5 108.5v54q162 0 260.5 93.5t98.5 248.5q0 154 -99 248t-260 94t-259.5 -94t-98.5 -248v-1223
h-62v1231q0 175 115.5 281t304.5 106q191 0 308.5 -106.5t117.5 -280.5q0 -141 -76.5 -240t-208.5 -135z" />
    <glyph glyph-name="agrave" unicode="&#xe0;" horiz-adv-x="1118" 
d="M588 1270h-62l-284 291h88zM154 1069h780v-1069h-62v293q-52 -145 -174 -229t-274 -84q-153 0 -246.5 81.5t-93.5 214.5q0 141 117 228.5t309 87.5q191 0 362 -47v471h-718v53zM438 31q77 0 153 31.5t139 88t102.5 146.5t39.5 197q-165 47 -356 47q-165 0 -265.5 -72
t-100.5 -190q0 -112 78.5 -180t209.5 -68z" />
    <glyph glyph-name="aacute" unicode="&#xe1;" horiz-adv-x="1118" 
d="M854 1561l-287 -291h-61l260 291h88zM154 1069h780v-1069h-62v293q-52 -145 -174 -229t-274 -84q-153 0 -246.5 81.5t-93.5 214.5q0 141 117 228.5t309 87.5q191 0 362 -47v471h-718v53zM438 31q77 0 153 31.5t139 88t102.5 146.5t39.5 197q-165 47 -356 47
q-165 0 -265.5 -72t-100.5 -190q0 -112 78.5 -180t209.5 -68z" />
    <glyph glyph-name="acircumflex" unicode="&#xe2;" horiz-adv-x="1118" 
d="M549 1520l-234 -250h-67l262 291h76l262 -291h-68zM154 1069h780v-1069h-62v293q-52 -145 -174 -229t-274 -84q-153 0 -246.5 81.5t-93.5 214.5q0 141 117 228.5t309 87.5q191 0 362 -47v471h-718v53zM438 31q77 0 153 31.5t139 88t102.5 146.5t39.5 197q-165 47 -356 47
q-165 0 -265.5 -72t-100.5 -190q0 -112 78.5 -180t209.5 -68z" />
    <glyph glyph-name="atilde" unicode="&#xe3;" horiz-adv-x="1118" 
d="M379 1462q-54 0 -91.5 -40.5t-37.5 -104.5h-51q0 91 52 148t130 57q39 0 76.5 -17.5t66.5 -42t57.5 -49t62 -42t67.5 -17.5q54 0 90.5 40.5t36.5 106.5h51q0 -92 -52 -148.5t-130 -56.5q-39 0 -76 17t-66.5 41.5t-57.5 49t-61 41.5t-67 17zM154 1069h780v-1069h-62v293
q-52 -145 -174 -229t-274 -84q-153 0 -246.5 81.5t-93.5 214.5q0 141 117 228.5t309 87.5q191 0 362 -47v471h-718v53zM438 31q77 0 153 31.5t139 88t102.5 146.5t39.5 197q-165 47 -356 47q-165 0 -265.5 -72t-100.5 -190q0 -112 78.5 -180t209.5 -68z" />
    <glyph glyph-name="adieresis" unicode="&#xe4;" horiz-adv-x="1118" 
d="M367 1403q-23 0 -39.5 17t-16.5 40t16.5 39.5t39.5 16.5t39 -16.5t16 -39.5t-16 -40t-39 -17zM725 1403q-23 0 -39 17t-16 40t16 39.5t39 16.5t39 -16.5t16 -39.5t-16 -40t-39 -17zM154 1069h780v-1069h-62v293q-52 -145 -174 -229t-274 -84q-153 0 -246.5 81.5
t-93.5 214.5q0 141 117 228.5t309 87.5q191 0 362 -47v471h-718v53zM438 31q77 0 153 31.5t139 88t102.5 146.5t39.5 197q-165 47 -356 47q-165 0 -265.5 -72t-100.5 -190q0 -112 78.5 -180t209.5 -68z" />
    <glyph glyph-name="aring" unicode="&#xe5;" horiz-adv-x="1118" 
d="M547 1196q-95 0 -154 58t-59 153q0 96 58.5 154.5t154.5 58.5q94 0 152.5 -58.5t58.5 -154.5q0 -95 -58.5 -153t-152.5 -58zM547 1577q-72 0 -116 -46.5t-44 -123.5q0 -75 44 -121.5t116 -46.5t116 46.5t44 121.5q0 77 -44 123.5t-116 46.5zM154 1069h780v-1069h-62v293
q-52 -145 -174 -229t-274 -84q-153 0 -246.5 81.5t-93.5 214.5q0 141 117 228.5t309 87.5q191 0 362 -47v471h-718v53zM438 31q77 0 153 31.5t139 88t102.5 146.5t39.5 197q-165 47 -356 47q-165 0 -265.5 -72t-100.5 -190q0 -112 78.5 -180t209.5 -68z" />
    <glyph glyph-name="ae" unicode="&#xe6;" horiz-adv-x="1939" 
d="M1843 547q0 -31 -2 -39h-905q9 -216 123.5 -345.5t298.5 -129.5q122 0 225.5 58t179.5 161l45 -35q-82 -117 -197 -177t-251 -60q-167 0 -287 94t-168 258q-44 -161 -176 -256.5t-301 -95.5q-154 0 -248 81.5t-94 214.5q0 141 117 228.5t309 87.5t360 -47v114
q0 171 -98 274t-262 103q-203 0 -324 -143l-32 43q132 154 364 154q155 0 261 -82t139 -220q55 141 169 221.5t269 80.5q218 0 351.5 -150t133.5 -393zM1358 1036q-189 0 -303 -130t-119 -347h842q-4 217 -119 347t-301 130zM440 31q77 0 152.5 31.5t138.5 88t102 146.5
t39 197q-165 47 -354 47q-166 0 -266 -71.5t-100 -190.5q0 -112 78.5 -180t209.5 -68z" />
    <glyph glyph-name="ccedilla" unicode="&#xe7;" horiz-adv-x="978" 
d="M621 1034q-200 0 -322.5 -137.5t-122.5 -361.5q0 -225 122.5 -362.5t322.5 -137.5q154 0 256 102v-65q-110 -89 -250 -92l-86 -134q35 7 65 7q97 0 156 -44t59 -114q0 -75 -63.5 -120.5t-167.5 -45.5q-127 0 -191 61l23 41q55 -55 162 -55q80 0 128 32.5t48 86.5
q0 52 -47.5 83.5t-124.5 31.5q-56 0 -105 -19l-14 27l104 164q-211 15 -336.5 165t-125.5 388q0 249 139.5 402t367.5 153q142 0 259 -93v-65q-105 102 -256 102z" />
    <glyph glyph-name="egrave" unicode="&#xe8;" horiz-adv-x="1181" 
d="M639 1270h-61l-285 291h88zM1083 547v-39h-905q9 -216 123.5 -345.5t298.5 -129.5q121 0 225.5 58t180.5 161l43 -35q-81 -117 -196.5 -177t-252.5 -60q-220 0 -353.5 154.5t-133.5 406.5q0 247 133.5 398t351.5 151t351.5 -150t133.5 -393zM598 1036q-187 0 -301 -130
t-119 -347h840q-5 217 -119 347t-301 130z" />
    <glyph glyph-name="eacute" unicode="&#xe9;" horiz-adv-x="1181" 
d="M905 1561l-287 -291h-61l260 291h88zM1083 547v-39h-905q9 -216 123.5 -345.5t298.5 -129.5q121 0 225.5 58t180.5 161l43 -35q-81 -117 -196.5 -177t-252.5 -60q-220 0 -353.5 154.5t-133.5 406.5q0 247 133.5 398t351.5 151t351.5 -150t133.5 -393zM598 1036
q-187 0 -301 -130t-119 -347h840q-5 217 -119 347t-301 130z" />
    <glyph glyph-name="ecircumflex" unicode="&#xea;" horiz-adv-x="1181" 
d="M600 1520l-233 -250h-68l262 291h76l262 -291h-68zM1083 547v-39h-905q9 -216 123.5 -345.5t298.5 -129.5q121 0 225.5 58t180.5 161l43 -35q-81 -117 -196.5 -177t-252.5 -60q-220 0 -353.5 154.5t-133.5 406.5q0 247 133.5 398t351.5 151t351.5 -150t133.5 -393z
M598 1036q-187 0 -301 -130t-119 -347h840q-5 217 -119 347t-301 130z" />
    <glyph glyph-name="edieresis" unicode="&#xeb;" horiz-adv-x="1181" 
d="M418 1403q-23 0 -39.5 17t-16.5 40t16.5 39.5t39.5 16.5t39 -16.5t16 -39.5t-16 -40t-39 -17zM776 1403q-23 0 -39 17t-16 40t16 39.5t39 16.5t39 -16.5t16 -39.5t-16 -40t-39 -17zM1083 547v-39h-905q9 -216 123.5 -345.5t298.5 -129.5q121 0 225.5 58t180.5 161l43 -35
q-81 -117 -196.5 -177t-252.5 -60q-220 0 -353.5 154.5t-133.5 406.5q0 247 133.5 398t351.5 151t351.5 -150t133.5 -393zM598 1036q-187 0 -301 -130t-119 -347h840q-5 217 -119 347t-301 130z" />
    <glyph glyph-name="igrave" unicode="&#xec;" horiz-adv-x="438" 
d="M199 1270l-285 291h88l258 -291h-61zM188 0v1069h62v-1069h-62z" />
    <glyph glyph-name="iacute" unicode="&#xed;" horiz-adv-x="438" 
d="M178 1270l260 291h88l-286 -291h-62zM188 0v1069h62v-1069h-62z" />
    <glyph glyph-name="icircumflex" unicode="&#xee;" horiz-adv-x="438" 
d="M258 1561l262 -291h-67l-232 250l-233 -250h-68l262 291h76zM188 0v1069h62v-1069h-62z" />
    <glyph glyph-name="idieresis" unicode="&#xef;" horiz-adv-x="438" 
d="M39 1403q-23 0 -39 17t-16 40t16 39.5t39 16.5t39 -16.5t16 -39.5t-16 -40t-39 -17zM397 1403q-23 0 -39 17t-16 40t16 39.5t39 16.5t39.5 -16.5t16.5 -39.5t-16.5 -40t-39.5 -17zM188 0v1069h62v-1069h-62z" />
    <glyph glyph-name="eth" unicode="&#xf0;" horiz-adv-x="1280" 
d="M670 1456q241 -184 367 -408.5t126 -474.5q0 -274 -143.5 -433.5t-380.5 -159.5q-238 0 -383 152.5t-145 402.5q0 248 141.5 400t370.5 152q143 0 250 -56.5t171 -156.5q-112 305 -426 547l-194 -131l-43 31l194 133q-100 71 -204 129l51 35q109 -60 205 -129l190 129
l43 -33zM639 35q206 0 332.5 137.5t126.5 362.5q0 223 -128 361t-331 138q-209 0 -336 -137t-127 -362q0 -226 127 -363t336 -137z" />
    <glyph glyph-name="ntilde" unicode="&#xf1;" horiz-adv-x="1277" 
d="M479 1462q-54 0 -91.5 -40.5t-37.5 -104.5h-51q0 91 52 148t130 57q39 0 76.5 -17.5t66.5 -42t57.5 -49t62 -42t67.5 -17.5q54 0 90.5 40.5t36.5 106.5h51q0 -92 -52 -148.5t-130 -56.5q-39 0 -76 17t-66.5 41.5t-57.5 49t-61 41.5t-67 17zM659 1090q201 0 325 -114
t124 -300v-676h-61v657q0 170 -110 273.5t-292 103.5q-180 0 -289.5 -103.5t-109.5 -273.5v-657h-62v1069h62v-227q45 117 147.5 182.5t265.5 65.5z" />
    <glyph glyph-name="ograve" unicode="&#xf2;" horiz-adv-x="1273" 
d="M618 1270l-284 291h88l258 -291h-62zM639 -20q-238 0 -383 152.5t-145 402.5q0 249 145 402t383 153q235 0 379.5 -153t144.5 -402q0 -250 -144.5 -402.5t-379.5 -152.5zM637 35q207 0 334 137.5t127 362.5q0 224 -127 361.5t-334 137.5t-334 -137.5t-127 -361.5
q0 -225 127 -362.5t334 -137.5z" />
    <glyph glyph-name="oacute" unicode="&#xf3;" horiz-adv-x="1273" 
d="M598 1270l260 291h88l-287 -291h-61zM639 -20q-238 0 -383 152.5t-145 402.5q0 249 145 402t383 153q235 0 379.5 -153t144.5 -402q0 -250 -144.5 -402.5t-379.5 -152.5zM637 35q207 0 334 137.5t127 362.5q0 224 -127 361.5t-334 137.5t-334 -137.5t-127 -361.5
q0 -225 127 -362.5t334 -137.5z" />
    <glyph glyph-name="ocircumflex" unicode="&#xf4;" horiz-adv-x="1273" 
d="M641 1520l-233 -250h-68l262 291h76l262 -291h-68zM639 1090q235 0 379.5 -153t144.5 -402q0 -250 -144.5 -402.5t-379.5 -152.5q-238 0 -383 152.5t-145 402.5q0 249 145 402t383 153zM637 35q207 0 334 137.5t127 362.5q0 224 -127 361.5t-334 137.5t-334 -137.5
t-127 -361.5q0 -225 127 -362.5t334 -137.5z" />
    <glyph glyph-name="otilde" unicode="&#xf5;" horiz-adv-x="1273" 
d="M799 1296q-39 0 -76 17t-66.5 41.5t-57.5 49t-61 41.5t-67 17q-54 0 -91.5 -40.5t-37.5 -104.5h-51q0 91 52 148t130 57q39 0 76.5 -17.5t66.5 -42t57.5 -49t62 -42t67.5 -17.5q54 0 90.5 40.5t36.5 106.5h51q0 -92 -52 -148.5t-130 -56.5zM639 -20q-238 0 -383 152.5
t-145 402.5q0 249 145 402t383 153q235 0 379.5 -153t144.5 -402q0 -250 -144.5 -402.5t-379.5 -152.5zM637 35q207 0 334 137.5t127 362.5q0 224 -127 361.5t-334 137.5t-334 -137.5t-127 -361.5q0 -225 127 -362.5t334 -137.5z" />
    <glyph glyph-name="odieresis" unicode="&#xf6;" horiz-adv-x="1273" 
d="M459 1403q-23 0 -39.5 17t-16.5 40t16.5 39.5t39.5 16.5t39 -16.5t16 -39.5t-16 -40t-39 -17zM817 1403q-23 0 -39 17t-16 40t16 39.5t39 16.5t39 -16.5t16 -39.5t-16 -40t-39 -17zM639 -20q-238 0 -383 152.5t-145 402.5q0 249 145 402t383 153q235 0 379.5 -153
t144.5 -402q0 -250 -144.5 -402.5t-379.5 -152.5zM637 35q207 0 334 137.5t127 362.5q0 224 -127 361.5t-334 137.5t-334 -137.5t-127 -361.5q0 -225 127 -362.5t334 -137.5z" />
    <glyph glyph-name="divide" unicode="&#xf7;" horiz-adv-x="1146" 
d="M573 930q-23 0 -39 16t-16 39t16 39t39 16t39.5 -16t16.5 -39t-16.5 -39t-39.5 -16zM160 680v53h825v-53h-825zM573 373q-23 0 -39 16t-16 39t16 39t39 16t39.5 -16t16.5 -39t-16.5 -39t-39.5 -16z" />
    <glyph glyph-name="oslash" unicode="&#xf8;" horiz-adv-x="1282" 
d="M1163 1053l-127 -135q127 -149 127 -383q0 -250 -144.5 -402.5t-379.5 -152.5q-220 0 -358 126l-119 -126l-45 36l123 134q-129 148 -129 385q0 249 145 402t383 153q217 0 358 -132l123 132zM176 535q0 -205 107 -340l671 718q-124 121 -317 121q-207 0 -334 -137.5
t-127 -361.5zM1098 535q0 202 -105 335l-669 -718q123 -117 313 -117q207 0 334 137.5t127 362.5z" />
    <glyph glyph-name="ugrave" unicode="&#xf9;" horiz-adv-x="1245" 
d="M602 1270l-285 291h89l258 -291h-62zM623 -20q-204 0 -328.5 114t-124.5 301v674h61v-657q0 -170 107.5 -273.5t284.5 -103.5t284 103.5t107 273.5v657h61v-674q0 -187 -124 -301t-328 -114z" />
    <glyph glyph-name="uacute" unicode="&#xfa;" horiz-adv-x="1245" 
d="M582 1270l260 291h88l-287 -291h-61zM623 -20q-204 0 -328.5 114t-124.5 301v674h61v-657q0 -170 107.5 -273.5t284.5 -103.5t284 103.5t107 273.5v657h61v-674q0 -187 -124 -301t-328 -114z" />
    <glyph glyph-name="ucircumflex" unicode="&#xfb;" horiz-adv-x="1245" 
d="M625 1520l-234 -250h-67l262 291h76l262 -291h-68zM1014 1069h61v-674q0 -187 -124 -301t-328 -114t-328.5 114t-124.5 301v674h61v-657q0 -170 107.5 -273.5t284.5 -103.5t284 103.5t107 273.5v657z" />
    <glyph glyph-name="udieresis" unicode="&#xfc;" horiz-adv-x="1245" 
d="M442 1403q-23 0 -39 17t-16 40t16 39.5t39 16.5t39.5 -16.5t16.5 -39.5t-16.5 -40t-39.5 -17zM801 1403q-23 0 -39.5 17t-16.5 40t16.5 39.5t39.5 16.5t39 -16.5t16 -39.5t-16 -40t-39 -17zM623 -20q-204 0 -328.5 114t-124.5 301v674h61v-657q0 -170 107.5 -273.5
t284.5 -103.5t284 103.5t107 273.5v657h61v-674q0 -187 -124 -301t-328 -114z" />
    <glyph glyph-name="yacute" unicode="&#xfd;" 
d="M930 1561l-287 -291h-61l260 291h88zM1014 1069h61v-1520h-895v54h834v622q-45 -116 -145.5 -180.5t-260.5 -64.5q-196 0 -317 114t-121 299v676h61v-657q0 -170 107.5 -273.5t284.5 -103.5t284 103.5t107 273.5v657z" />
    <glyph glyph-name="thorn" unicode="&#xfe;" horiz-adv-x="1343" 
d="M721 1090q230 0 372 -152.5t142 -400.5q0 -251 -141.5 -404t-372.5 -153q-185 0 -305.5 86t-169.5 233v-750h-62v2048h62v-829q49 149 169.5 235.5t305.5 86.5zM707 35q207 0 333.5 137.5t126.5 364.5q0 224 -126.5 360.5t-333.5 136.5t-334 -137.5t-127 -361.5
q0 -225 127 -362.5t334 -137.5z" />
    <glyph glyph-name="ydieresis" unicode="&#xff;" 
d="M442 1403q-23 0 -39 17t-16 40t16 39.5t39 16.5t39.5 -16.5t16.5 -39.5t-16.5 -40t-39.5 -17zM801 1403q-23 0 -39.5 17t-16.5 40t16.5 39.5t39.5 16.5t39 -16.5t16 -39.5t-16 -40t-39 -17zM1014 1069h61v-1520h-895v54h834v622q-45 -116 -145.5 -180.5t-260.5 -64.5
q-196 0 -317 114t-121 299v676h61v-657q0 -170 107.5 -273.5t284.5 -103.5t284 103.5t107 273.5v657z" />
    <glyph glyph-name="Amacron" unicode="&#x100;" horiz-adv-x="1445" 
d="M1012 1853v-53h-576v53h576zM1360 0l-203 459h-868l-203 -459h-74l678 1516h66l678 -1516h-74zM315 516h815l-407 922z" />
    <glyph glyph-name="amacron" unicode="&#x101;" horiz-adv-x="1118" 
d="M836 1407v-53h-576v53h576zM154 1069h780v-1069h-62v293q-52 -145 -174 -229t-274 -84q-153 0 -246.5 81.5t-93.5 214.5q0 141 117 228.5t309 87.5q191 0 362 -47v471h-718v53zM438 31q77 0 153 31.5t139 88t102.5 146.5t39.5 197q-165 47 -356 47q-165 0 -265.5 -72
t-100.5 -190q0 -112 78.5 -180t209.5 -68z" />
    <glyph glyph-name="Abreve" unicode="&#x102;" horiz-adv-x="1445" 
d="M723 1696q-135 0 -218 86t-83 225h59q0 -119 66.5 -191.5t175.5 -72.5q107 0 173.5 73t66.5 191h59q0 -140 -82 -225.5t-217 -85.5zM1360 0l-203 459h-868l-203 -459h-74l678 1516h66l678 -1516h-74zM315 516h815l-407 922z" />
    <glyph glyph-name="abreve" unicode="&#x103;" horiz-adv-x="1118" 
d="M547 1249q-135 0 -218 86t-83 226h59q0 -119 66.5 -192t175.5 -73q107 0 173 73t66 192h60q0 -140 -82 -226t-217 -86zM154 1069h780v-1069h-62v293q-52 -145 -174 -229t-274 -84q-153 0 -246.5 81.5t-93.5 214.5q0 141 117 228.5t309 87.5q191 0 362 -47v471h-718v53z
M438 31q77 0 153 31.5t139 88t102.5 146.5t39.5 197q-165 47 -356 47q-165 0 -265.5 -72t-100.5 -190q0 -112 78.5 -180t209.5 -68z" />
    <glyph glyph-name="Aogonek" unicode="&#x104;" horiz-adv-x="1445" 
d="M1430 -369l10 -45q-66 -57 -150 -57q-70 0 -113.5 40.5t-43.5 106.5q0 81 60 166t167 158l-203 459h-868l-203 -459h-74l678 1516h66l678 -1516q-242 -162 -242 -319q0 -47 28.5 -76t75.5 -29q72 0 134 55zM315 516h815l-407 922z" />
    <glyph glyph-name="aogonek" unicode="&#x105;" horiz-adv-x="1118" 
d="M932 -369l8 -45q-63 -57 -147 -57q-71 0 -114.5 40.5t-43.5 106.5q0 80 61 166.5t176 165.5v285q-52 -145 -174 -229t-274 -84q-153 0 -246.5 81.5t-93.5 214.5q0 141 117 228.5t309 87.5q191 0 362 -47v471h-718v53h780v-1069q-240 -162 -240 -319q0 -47 28.5 -76
t74.5 -29q73 0 135 55zM438 31q77 0 153 31.5t139 88t102.5 146.5t39.5 197q-165 47 -356 47q-165 0 -265.5 -72t-100.5 -190q0 -112 78.5 -180t209.5 -68z" />
    <glyph glyph-name="Cacute" unicode="&#x106;" horiz-adv-x="1398" 
d="M799 1716l260 291h88l-287 -291h-61zM854 -20q-330 0 -531.5 214t-201.5 564t201.5 564t531.5 214q260 0 446 -147v-70q-184 160 -446 160q-196 0 -346.5 -89.5t-232.5 -253.5t-82 -378t82 -378t232.5 -253.5t346.5 -89.5q262 0 446 160v-70q-186 -147 -446 -147z" />
    <glyph glyph-name="cacute" unicode="&#x107;" horiz-adv-x="978" 
d="M563 1270l260 291h88l-286 -291h-62zM618 -20q-229 0 -368 152.5t-139 402.5q0 249 139.5 402t367.5 153q142 0 259 -93v-65q-105 102 -256 102q-200 0 -322.5 -137.5t-122.5 -361.5q0 -225 122.5 -362.5t322.5 -137.5q154 0 256 102v-65q-113 -92 -259 -92z" />
    <glyph glyph-name="Cdotaccent" unicode="&#x10a;" horiz-adv-x="1398" 
d="M840 1849q-23 0 -39.5 17.5t-16.5 40.5t16.5 39t39.5 16t39 -16t16 -39q0 -24 -16 -41t-39 -17zM854 -20q-330 0 -531.5 214t-201.5 564t201.5 564t531.5 214q260 0 446 -147v-70q-184 160 -446 160q-196 0 -346.5 -89.5t-232.5 -253.5t-82 -378t82 -378t232.5 -253.5
t346.5 -89.5q262 0 446 160v-70q-186 -147 -446 -147z" />
    <glyph glyph-name="cdotaccent" unicode="&#x10b;" horiz-adv-x="978" 
d="M604 1403q-23 0 -39 17t-16 40t16 39.5t39 16.5t39 -16.5t16 -39.5t-16 -40t-39 -17zM618 -20q-229 0 -368 152.5t-139 402.5q0 249 139.5 402t367.5 153q142 0 259 -93v-65q-105 102 -256 102q-200 0 -322.5 -137.5t-122.5 -361.5q0 -225 122.5 -362.5t322.5 -137.5
q154 0 256 102v-65q-113 -92 -259 -92z" />
    <glyph glyph-name="Ccaron" unicode="&#x10c;" horiz-adv-x="1398" 
d="M879 1716h-76l-262 291h67l234 -250l231 250h68zM854 1479q-196 0 -346.5 -89.5t-232.5 -253.5t-82 -378t82 -378t232.5 -253.5t346.5 -89.5q262 0 446 160v-70q-186 -147 -446 -147q-330 0 -531.5 214t-201.5 564t201.5 564t531.5 214q260 0 446 -147v-70
q-184 160 -446 160z" />
    <glyph glyph-name="ccaron" unicode="&#x10d;" horiz-adv-x="978" 
d="M643 1270h-76l-262 291h68l233 -250l232 250h67zM111 535q0 249 139.5 402t367.5 153q142 0 259 -93v-65q-105 102 -256 102q-200 0 -322.5 -137.5t-122.5 -361.5q0 -225 122.5 -362.5t322.5 -137.5q154 0 256 102v-65q-113 -92 -259 -92q-229 0 -368 152.5t-139 402.5z
" />
    <glyph glyph-name="Dcaron" unicode="&#x10e;" horiz-adv-x="1533" 
d="M670 1716h-76l-262 291h67l234 -250l231 250h68zM684 1516q328 0 528.5 -210t200.5 -554q0 -338 -200.5 -545t-528.5 -207h-459v1516h459zM666 57q304 0 489.5 191.5t185.5 503.5q0 318 -185.5 512t-489.5 194h-373v-1401h373z" />
    <glyph glyph-name="dcaron" unicode="&#x10f;" horiz-adv-x="1355" 
d="M1098 768v829h61v-1597h-59l-2 244v55q-49 -147 -169.5 -233t-305.5 -86q-229 0 -370.5 152t-141.5 400q0 250 141.5 404t370.5 154q185 0 305.5 -86.5t169.5 -235.5zM1395 1597h61l-145 -383h-54zM637 35q207 0 334 137.5t127 362.5q0 224 -127 361.5t-334 137.5
t-334 -138t-127 -364q0 -224 127 -360.5t334 -136.5z" />
    <glyph glyph-name="Dcroat" unicode="&#x110;" horiz-adv-x="1533" 
d="M684 1516q328 0 528.5 -210t200.5 -554q0 -338 -200.5 -545t-528.5 -207h-459v737h-182v51h182v728h459zM666 57q304 0 489.5 191.5t185.5 503.5q0 318 -185.5 512t-489.5 194h-373v-670h461v-51h-461v-680h373z" />
    <glyph glyph-name="dcroat" unicode="&#x111;" horiz-adv-x="1343" 
d="M1346 1368v-51h-187v-1317h-59l-2 244v55q-49 -147 -169.5 -233t-305.5 -86q-229 0 -370.5 152t-141.5 400q0 250 141.5 404t370.5 154q185 0 305.5 -86.5t169.5 -235.5v549h-463v51h463v229h61v-229h187zM637 35q207 0 334 137.5t127 362.5q0 224 -127 361.5t-334 137.5
t-334 -138t-127 -364q0 -224 127 -360.5t334 -136.5z" />
    <glyph glyph-name="Emacron" unicode="&#x112;" horiz-adv-x="1245" 
d="M950 1853v-53h-575v53h575zM293 57h823v-57h-891v1516h871v-58h-803v-653h760v-57h-760v-691z" />
    <glyph glyph-name="emacron" unicode="&#x113;" horiz-adv-x="1181" 
d="M887 1407v-53h-576v53h576zM1083 547v-39h-905q9 -216 123.5 -345.5t298.5 -129.5q121 0 225.5 58t180.5 161l43 -35q-81 -117 -196.5 -177t-252.5 -60q-220 0 -353.5 154.5t-133.5 406.5q0 247 133.5 398t351.5 151t351.5 -150t133.5 -393zM598 1036q-187 0 -301 -130
t-119 -347h840q-5 217 -119 347t-301 130z" />
    <glyph glyph-name="Edotaccent" unicode="&#x116;" horiz-adv-x="1245" 
d="M662 1849q-23 0 -39.5 17.5t-16.5 40.5t16.5 39t39.5 16t39 -16t16 -39q0 -24 -16 -41t-39 -17zM293 57h823v-57h-891v1516h871v-58h-803v-653h760v-57h-760v-691z" />
    <glyph glyph-name="edotaccent" unicode="&#x117;" horiz-adv-x="1181" 
d="M598 1403q-23 0 -39 17t-16 40t16 39.5t39 16.5t39 -16.5t16 -39.5t-16 -40t-39 -17zM1083 547v-39h-905q9 -216 123.5 -345.5t298.5 -129.5q121 0 225.5 58t180.5 161l43 -35q-81 -117 -196.5 -177t-252.5 -60q-220 0 -353.5 154.5t-133.5 406.5q0 247 133.5 398
t351.5 151t351.5 -150t133.5 -393zM598 1036q-187 0 -301 -130t-119 -347h840q-5 217 -119 347t-301 130z" />
    <glyph glyph-name="Eogonek" unicode="&#x118;" horiz-adv-x="1245" 
d="M1114 -369l8 -45q-63 -57 -147 -57q-71 0 -114.5 40.5t-43.5 106.5q0 78 58.5 162t168.5 162h-819v1516h871v-58h-803v-653h760v-57h-760v-691h823v-57q-239 -162 -239 -319q0 -47 28 -76t74 -29q73 0 135 55z" />
    <glyph glyph-name="eogonek" unicode="&#x119;" horiz-adv-x="1181" 
d="M1083 547v-39h-905q9 -216 123.5 -345.5t298.5 -129.5q121 0 225.5 58t180.5 161l43 -35q-114 -166 -295 -217q-240 -162 -240 -319q0 -47 28 -76t74 -29q74 0 136 55l8 -45q-63 -57 -148 -57q-70 0 -113.5 40.5t-43.5 106.5q0 74 52 153.5t150 152.5q-18 -2 -57 -2
q-220 0 -353.5 154.5t-133.5 406.5q0 247 133.5 398t351.5 151t351.5 -150t133.5 -393zM598 1036q-187 0 -301 -130t-119 -347h840q-5 217 -119 347t-301 130z" />
    <glyph glyph-name="Ecaron" unicode="&#x11a;" horiz-adv-x="1245" 
d="M700 1716h-75l-263 291h68l234 -250l231 250h68zM293 57h823v-57h-891v1516h871v-58h-803v-653h760v-57h-760v-691z" />
    <glyph glyph-name="ecaron" unicode="&#x11b;" horiz-adv-x="1181" 
d="M637 1270h-76l-262 291h68l233 -250l231 250h68zM1083 547v-39h-905q9 -216 123.5 -345.5t298.5 -129.5q121 0 225.5 58t180.5 161l43 -35q-81 -117 -196.5 -177t-252.5 -60q-220 0 -353.5 154.5t-133.5 406.5q0 247 133.5 398t351.5 151t351.5 -150t133.5 -393z
M598 1036q-187 0 -301 -130t-119 -347h840q-5 217 -119 347t-301 130z" />
    <glyph glyph-name="Gbreve" unicode="&#x11e;" horiz-adv-x="1609" 
d="M838 1696q-135 0 -218 86t-83 225h59q0 -119 66.5 -191.5t175.5 -72.5q107 0 173 73t66 191h60q0 -140 -82 -225.5t-217 -85.5zM1532 772v-14q0 -359 -187 -568.5t-507 -209.5q-321 0 -518 214t-197 564t197 564t518 214q149 0 261.5 -33.5t225.5 -116.5l-45 -45
q-182 138 -440 138q-290 0 -467.5 -198.5t-177.5 -522.5t177.5 -522.5t467.5 -198.5q278 0 445 184.5t175 491.5h-540v59h612z" />
    <glyph glyph-name="gbreve" unicode="&#x11f;" horiz-adv-x="1343" 
d="M662 1249q-135 0 -218.5 86.5t-83.5 225.5h60q0 -119 66.5 -192t175.5 -73q107 0 173 73t66 192h60q0 -140 -82 -226t-217 -86zM1102 1069h59v-1520h-1011v54h950v696q-49 -147 -169.5 -233t-305.5 -86q-229 0 -370.5 153t-141.5 404q0 247 141.5 400t370.5 153
q185 0 305.5 -86.5t169.5 -235.5v57zM639 35q207 0 334 137.5t127 362.5q0 224 -127 361.5t-334 137.5t-334 -136.5t-127 -360.5q0 -227 127 -364.5t334 -137.5z" />
    <glyph glyph-name="Gdotaccent" unicode="&#x120;" horiz-adv-x="1609" 
d="M838 1849q-23 0 -39.5 17.5t-16.5 40.5t16.5 39t39.5 16t39 -16t16 -39q0 -24 -16 -41t-39 -17zM1532 772v-14q0 -359 -187 -568.5t-507 -209.5q-321 0 -518 214t-197 564t197 564t518 214q149 0 261.5 -33.5t225.5 -116.5l-45 -45q-182 138 -440 138
q-290 0 -467.5 -198.5t-177.5 -522.5t177.5 -522.5t467.5 -198.5q278 0 445 184.5t175 491.5h-540v59h612z" />
    <glyph glyph-name="gdotaccent" unicode="&#x121;" horiz-adv-x="1343" 
d="M662 1403q-23 0 -39.5 17t-16.5 40t16.5 39.5t39.5 16.5t39 -16.5t16 -39.5t-16 -40t-39 -17zM1102 1069h59v-1520h-1011v54h950v696q-49 -147 -169.5 -233t-305.5 -86q-229 0 -370.5 153t-141.5 404q0 247 141.5 400t370.5 153q185 0 305.5 -86.5t169.5 -235.5v57z
M639 35q207 0 334 137.5t127 362.5q0 224 -127 361.5t-334 137.5t-334 -136.5t-127 -360.5q0 -227 127 -364.5t334 -137.5z" />
    <glyph glyph-name="Gcommaaccent" unicode="&#x122;" horiz-adv-x="1609" 
d="M1532 772v-14q0 -359 -187 -568.5t-507 -209.5q-321 0 -518 214t-197 564t197 564t518 214q149 0 261.5 -33.5t225.5 -116.5l-45 -45q-182 138 -440 138q-290 0 -467.5 -198.5t-177.5 -522.5t177.5 -522.5t467.5 -198.5q278 0 445 184.5t175 491.5h-540v59h612zM696 -451
l121 345h64l-133 -345h-52z" />
    <glyph glyph-name="gcommaaccent" unicode="&#x123;" horiz-adv-x="1343" 
d="M801 1597l-135 -383h-64l148 383h51zM1102 1069h59v-1520h-1011v54h950v696q-49 -147 -169.5 -233t-305.5 -86q-229 0 -370.5 153t-141.5 404q0 247 141.5 400t370.5 153q185 0 305.5 -86.5t169.5 -235.5v57zM639 35q207 0 334 137.5t127 362.5q0 224 -127 361.5
t-334 137.5t-334 -136.5t-127 -360.5q0 -227 127 -364.5t334 -137.5z" />
    <glyph glyph-name="Hbar" unicode="&#x126;" horiz-adv-x="1605" 
d="M1571 1206v-51h-191v-1155h-67v739h-1020v-739h-68v1155h-192v51h192v310h68v-310h1020v310h67v-310h191zM1313 797v358h-1020v-358h1020z" />
    <glyph glyph-name="hbar" unicode="&#x127;" horiz-adv-x="1277" 
d="M659 1090q201 0 325 -114t124 -300v-676h-61v657q0 170 -110 273.5t-292 103.5q-180 0 -289.5 -103.5t-109.5 -273.5v-657h-62v1317h-184v51h184v229h62v-229h465v-51h-465v-475q45 117 147.5 182.5t265.5 65.5z" />
    <glyph glyph-name="Imacron" unicode="&#x12a;" horiz-adv-x="518" 
d="M-27 1800v53h576v-53h-576zM225 0v1516h68v-1516h-68z" />
    <glyph glyph-name="imacron" unicode="&#x12b;" horiz-adv-x="438" 
d="M-68 1354v53h576v-53h-576zM188 0v1069h62v-1069h-62z" />
    <glyph glyph-name="Iogonek" unicode="&#x12e;" horiz-adv-x="518" 
d="M291 -369l8 -45q-63 -57 -147 -57q-71 0 -114.5 40.5t-43.5 106.5q0 80 59.5 164t171.5 162v1514h68v-1516q-240 -162 -240 -319q0 -47 28.5 -76t74.5 -29q73 0 135 55z" />
    <glyph glyph-name="iogonek" unicode="&#x12f;" horiz-adv-x="438" 
d="M219 1516q23 0 39 -16.5t16 -39.5t-16 -40t-39 -17t-39 17t-16 40t16 39.5t39 16.5zM113 -424q73 0 135 55l8 -45q-63 -57 -147 -57q-71 0 -114.5 40.5t-43.5 106.5q0 80 61 166.5t176 165.5v1061h62v-1069q-240 -162 -240 -319q0 -47 28.5 -76t74.5 -29z" />
    <glyph glyph-name="Idotaccent" unicode="&#x130;" horiz-adv-x="518" 
d="M260 1849q-23 0 -39 17t-16 41q0 23 16 39t39 16t39 -16t16 -39q0 -24 -16 -41t-39 -17zM225 0v1516h68v-1516h-68z" />
    <glyph glyph-name="dotlessi" unicode="&#x131;" horiz-adv-x="438" 
d="M188 0v1069h62v-1069h-62z" />
    <glyph glyph-name="Kcommaaccent" unicode="&#x136;" horiz-adv-x="1349" 
d="M725 776l596 -776h-86l-573 750h-369v-750h-68v1516h68v-709h371l557 709h86zM592 -451l121 345h63l-133 -345h-51z" />
    <glyph glyph-name="kcommaaccent" unicode="&#x137;" horiz-adv-x="1118" 
d="M600 561l498 -561h-80l-469 535h-303v-535h-62v1597h62v-1009h301l448 481h78zM438 -451l121 345h64l-134 -345h-51z" />
    <glyph glyph-name="Lacute" unicode="&#x139;" horiz-adv-x="1069" 
d="M567 2007l-286 -291h-62l260 291h88zM293 57h747v-57h-815v1516h68v-1459z" />
    <glyph glyph-name="lacute" unicode="&#x13a;" horiz-adv-x="503" 
d="M182 1798l260 291h88l-286 -291h-62zM193 0v1597h61v-1544h242v-53h-303z" />
    <glyph glyph-name="Lcommaaccent" unicode="&#x13b;" horiz-adv-x="1069" 
d="M293 57h747v-57h-815v1516h68v-1459zM451 -451l120 345h64l-133 -345h-51z" />
    <glyph glyph-name="lcommaaccent" unicode="&#x13c;" horiz-adv-x="503" 
d="M193 0v1597h61v-1544h242v-53h-303zM195 -451l120 345h64l-133 -345h-51z" />
    <glyph glyph-name="Lcaron" unicode="&#x13d;" horiz-adv-x="1038" 
d="M293 57h747v-57h-815v1516h68v-1459zM901 1516l-147 -388h-56l138 388h65z" />
    <glyph glyph-name="lcaron" unicode="&#x13e;" horiz-adv-x="507" 
d="M193 0v1597h61v-1544h242v-53h-303zM352 1214l135 383h64l-148 -383h-51z" />
    <glyph glyph-name="Lslash" unicode="&#x141;" horiz-adv-x="1069" 
d="M293 57h747v-57h-815v768l-178 -127v61l178 127v687h68v-648l231 160v-61l-231 -158v-752z" />
    <glyph glyph-name="lslash" unicode="&#x142;" horiz-adv-x="503" 
d="M254 53h242v-53h-303v788l-209 -147v61l209 148v747h61v-712l207 143v-61l-207 -142v-772z" />
    <glyph glyph-name="Nacute" unicode="&#x143;" horiz-adv-x="1681" 
d="M799 1716l260 291h88l-287 -291h-61zM225 0v1516h47l1119 -1391l-2 1391h67v-1516h-47l-1116 1391v-1391h-68z" />
    <glyph glyph-name="nacute" unicode="&#x144;" horiz-adv-x="1277" 
d="M954 1561l-286 -291h-62l260 291h88zM659 1090q201 0 325 -114t124 -300v-676h-61v657q0 170 -110 273.5t-292 103.5q-180 0 -289.5 -103.5t-109.5 -273.5v-657h-62v1069h62v-227q45 117 147.5 182.5t265.5 65.5z" />
    <glyph glyph-name="Ncommaaccent" unicode="&#x145;" horiz-adv-x="1681" 
d="M225 0v1516h47l1119 -1391l-2 1391h67v-1516h-47l-1116 1391v-1391h-68zM711 -451l120 345h64l-133 -345h-51z" />
    <glyph glyph-name="ncommaaccent" unicode="&#x146;" horiz-adv-x="1277" 
d="M659 1090q201 0 325 -114t124 -300v-676h-61v657q0 170 -110 273.5t-292 103.5q-180 0 -289.5 -103.5t-109.5 -273.5v-657h-62v1069h62v-227q45 117 147.5 182.5t265.5 65.5zM514 -451l121 345h63l-133 -345h-51z" />
    <glyph glyph-name="Ncaron" unicode="&#x147;" horiz-adv-x="1681" 
d="M879 1716h-76l-262 291h67l234 -250l231 250h68zM1389 1516h67v-1516h-47l-1116 1391v-1391h-68v1516h47l1119 -1391z" />
    <glyph glyph-name="ncaron" unicode="&#x148;" horiz-adv-x="1277" 
d="M686 1270h-76l-262 291h68l233 -250l232 250h67zM659 1090q201 0 325 -114t124 -300v-676h-61v657q0 170 -110 273.5t-292 103.5q-180 0 -289.5 -103.5t-109.5 -273.5v-657h-62v1069h62v-227q45 117 147.5 182.5t265.5 65.5z" />
    <glyph glyph-name="Eng" unicode="&#x14a;" horiz-adv-x="1681" 
d="M1389 1516h67v-1694q0 -134 -82.5 -213.5t-228.5 -79.5q-79 0 -149.5 26t-110.5 74l18 49q46 -45 108.5 -68.5t127.5 -23.5q117 0 183.5 69t66.5 183v187l-1096 1366v-1391h-68v1516h47l1119 -1391z" />
    <glyph glyph-name="eng" unicode="&#x14b;" horiz-adv-x="1277" 
d="M659 1090q201 0 325 -114t124 -300v-854q0 -132 -76 -212.5t-201 -80.5q-93 0 -163 31l8 53q64 -31 149 -31q99 0 160.5 69.5t61.5 182.5v823q0 170 -110 273.5t-292 103.5q-180 0 -289.5 -103.5t-109.5 -273.5v-657h-62v1069h62v-227q45 117 147.5 182.5t265.5 65.5z
" />
    <glyph glyph-name="Omacron" unicode="&#x14c;" horiz-adv-x="1703" 
d="M567 1800v53h576v-53h-576zM854 -20q-330 0 -531.5 214t-201.5 564t201.5 564t531.5 214q327 0 528 -214t201 -564t-201 -564t-528 -214zM854 37q295 0 476 198.5t181 522.5t-181 522.5t-476 198.5q-196 0 -346.5 -89.5t-232.5 -253.5t-82 -378t82 -378t232.5 -253.5
t346.5 -89.5z" />
    <glyph glyph-name="omacron" unicode="&#x14d;" horiz-adv-x="1273" 
d="M352 1354v53h576v-53h-576zM639 -20q-238 0 -383 152.5t-145 402.5q0 249 145 402t383 153q235 0 379.5 -153t144.5 -402q0 -250 -144.5 -402.5t-379.5 -152.5zM637 35q207 0 334 137.5t127 362.5q0 224 -127 361.5t-334 137.5t-334 -137.5t-127 -361.5
q0 -225 127 -362.5t334 -137.5z" />
    <glyph glyph-name="Ohungarumlaut" unicode="&#x150;" horiz-adv-x="1703" 
d="M690 1716l217 291h88l-243 -291h-62zM932 1716l217 291h88l-244 -291h-61zM854 -20q-330 0 -531.5 214t-201.5 564t201.5 564t531.5 214q327 0 528 -214t201 -564t-201 -564t-528 -214zM854 37q295 0 476 198.5t181 522.5t-181 522.5t-476 198.5q-196 0 -346.5 -89.5
t-232.5 -253.5t-82 -378t82 -378t232.5 -253.5t346.5 -89.5z" />
    <glyph glyph-name="ohungarumlaut" unicode="&#x151;" horiz-adv-x="1273" 
d="M475 1270l217 291h88l-243 -291h-62zM717 1270l217 291h88l-244 -291h-61zM639 -20q-238 0 -383 152.5t-145 402.5q0 249 145 402t383 153q235 0 379.5 -153t144.5 -402q0 -250 -144.5 -402.5t-379.5 -152.5zM637 35q207 0 334 137.5t127 362.5q0 224 -127 361.5
t-334 137.5t-334 -137.5t-127 -361.5q0 -225 127 -362.5t334 -137.5z" />
    <glyph glyph-name="OE" unicode="&#x152;" horiz-adv-x="2535" 
d="M1583 57h823v-57h-890v424q-79 -207 -253.5 -325.5t-410.5 -118.5q-218 0 -384 96.5t-256.5 273.5t-90.5 408t90.5 408t256.5 273.5t384 96.5q236 0 410.5 -118.5t253.5 -325.5v424h872v-58h-805v-653h762v-57h-762v-691zM854 37q295 0 476 198.5t181 522.5t-181 522.5
t-476 198.5q-196 0 -346.5 -89.5t-232.5 -253.5t-82 -378t82 -378t232.5 -253.5t346.5 -89.5z" />
    <glyph glyph-name="oe" unicode="&#x153;" horiz-adv-x="2168" 
d="M2071 547v-39h-908q9 -216 124 -345.5t300 -129.5q122 0 226 58t178 161l45 -35q-81 -117 -196 -177t-251 -60q-176 0 -297.5 104.5t-161.5 284.5q-43 -181 -173.5 -285t-319.5 -104q-238 0 -382 152t-144 403q0 249 144.5 402t381.5 153q188 0 318 -103.5t173 -281.5
q40 178 161.5 281.5t297.5 103.5q217 0 350.5 -150t133.5 -393zM1585 1036q-187 0 -302 -130t-120 -347h842q-5 217 -119 347t-301 130zM639 35q206 0 332.5 137.5t126.5 362.5q0 224 -126.5 361.5t-332.5 137.5q-209 0 -336 -137t-127 -362q0 -226 127 -363t336 -137z" />
    <glyph glyph-name="Racute" unicode="&#x154;" horiz-adv-x="1386" 
d="M969 2007l-287 -291h-61l260 291h88zM1323 0h-80l-442 659q-18 -2 -60 -2h-448v-657h-68v1516h510q223 0 357.5 -117.5t134.5 -311.5q0 -162 -94.5 -272.5t-258.5 -144.5zM733 717q191 0 306.5 101.5t115.5 268.5t-119 269t-313 102h-430v-741h440z" />
    <glyph glyph-name="racute" unicode="&#x155;" horiz-adv-x="706" 
d="M713 1561l-287 -291h-61l260 291h88zM246 844q90 246 446 246l-8 -58q-211 0 -324.5 -101.5t-113.5 -279.5v-651h-62v1069h62v-225z" />
    <glyph glyph-name="Rcommaaccent" unicode="&#x156;" horiz-adv-x="1386" 
d="M1323 0h-80l-442 659q-18 -2 -60 -2h-448v-657h-68v1516h510q223 0 357.5 -117.5t134.5 -311.5q0 -162 -94.5 -272.5t-258.5 -144.5zM733 717q191 0 306.5 101.5t115.5 268.5t-119 269t-313 102h-430v-741h440zM573 -451l121 345h64l-133 -345h-52z" />
    <glyph glyph-name="rcommaaccent" unicode="&#x157;" horiz-adv-x="706" 
d="M246 844q90 246 446 246l-8 -58q-211 0 -324.5 -101.5t-113.5 -279.5v-651h-62v1069h62v-225zM102 -451l121 345h64l-133 -345h-52z" />
    <glyph glyph-name="Rcaron" unicode="&#x158;" horiz-adv-x="1386" 
d="M700 1716h-75l-263 291h68l234 -250l231 250h68zM1323 0h-80l-442 659q-18 -2 -60 -2h-448v-657h-68v1516h510q223 0 357.5 -117.5t134.5 -311.5q0 -162 -94.5 -272.5t-258.5 -144.5zM733 717q191 0 306.5 101.5t115.5 268.5t-119 269t-313 102h-430v-741h440z" />
    <glyph glyph-name="rcaron" unicode="&#x159;" horiz-adv-x="706" 
d="M444 1270h-75l-263 291h68l234 -250l231 250h68zM246 844q90 246 446 246l-8 -58q-211 0 -324.5 -101.5t-113.5 -279.5v-651h-62v1069h62v-225z" />
    <glyph glyph-name="Sacute" unicode="&#x15a;" horiz-adv-x="1234" 
d="M580 1716l260 291h88l-287 -291h-61zM600 -20q-146 0 -269.5 41.5t-195.5 125.5l35 54q151 -164 422 -164q206 0 331.5 90.5t125.5 239.5q0 74 -31.5 132t-95 101.5t-137 75t-179.5 63.5l-112 35q-62 18 -111.5 38t-98.5 52t-81.5 70t-53 93t-20.5 122q0 175 134 281
t355 106q286 0 447 -174l-39 -49q-155 166 -414 166q-185 0 -298 -89.5t-113 -234.5q0 -71 26 -125.5t77.5 -91.5t103.5 -59.5t127 -44.5l118 -37q54 -16 92 -29t90.5 -35.5t89.5 -44.5t77 -55t64 -69.5t40 -85.5t16 -105q0 -177 -144 -285t-378 -108z" />
    <glyph glyph-name="sacute" unicode="&#x15b;" horiz-adv-x="937" 
d="M418 1270l260 291h88l-287 -291h-61zM459 -20q-110 0 -199.5 26t-140.5 76l31 43q108 -92 309 -92q139 0 224 63.5t85 167.5q0 166 -252 238l-133 41q-64 19 -109.5 40t-84 51.5t-57.5 74t-19 100.5q0 126 95.5 203.5t250.5 77.5q189 0 338 -89l-29 -49q-127 84 -303 84
q-128 0 -207.5 -61t-79.5 -160q0 -87 58 -136.5t167 -80.5l134 -39q48 -15 87.5 -31.5t80 -42t68 -55t44.5 -71t17 -89.5q0 -131 -101.5 -210.5t-273.5 -79.5z" />
    <glyph glyph-name="Scedilla" unicode="&#x15e;" horiz-adv-x="1234" 
d="M1122 373q0 -164 -125 -270t-333 -121l-89 -136q35 7 66 7q97 0 156 -44t59 -114q0 -75 -63.5 -120.5t-167.5 -45.5q-127 0 -191 61l23 41q55 -55 161 -55q80 0 128.5 32.5t48.5 86.5q0 52 -47.5 83.5t-124.5 31.5q-56 0 -105 -19l-14 27l104 162h-8q-146 0 -269.5 41.5
t-195.5 125.5l35 54q151 -164 422 -164q206 0 331.5 90.5t125.5 239.5q0 74 -31.5 132t-95 101.5t-137 75t-179.5 63.5l-112 35q-62 18 -111.5 38t-98.5 52t-81.5 70t-53 93t-20.5 122q0 175 134 281t355 106q286 0 447 -174l-39 -49q-155 166 -414 166q-185 0 -298 -89.5
t-113 -234.5q0 -71 26 -125.5t77.5 -91.5t103.5 -59.5t127 -44.5l118 -37q54 -16 92 -29t90.5 -35.5t89.5 -44.5t77 -55t64 -69.5t40 -85.5t16 -105z" />
    <glyph glyph-name="scedilla" unicode="&#x15f;" horiz-adv-x="937" 
d="M834 270q0 -123 -89.5 -201t-244.5 -87l-88 -136q35 7 65 7q97 0 156 -44t59 -114q0 -75 -63.5 -120.5t-167.5 -45.5q-127 0 -191 61l23 41q55 -55 162 -55q80 0 128 32.5t48 86.5q0 52 -47.5 83.5t-124.5 31.5q-56 0 -105 -19l-14 27l104 162q-223 3 -325 102l31 43
q108 -92 309 -92q139 0 224 63.5t85 167.5q0 166 -252 238l-133 41q-64 19 -109.5 40t-84 51.5t-57.5 74t-19 100.5q0 126 95.5 203.5t250.5 77.5q189 0 338 -89l-29 -49q-127 84 -303 84q-128 0 -207.5 -61t-79.5 -160q0 -87 58 -136.5t167 -80.5l134 -39
q48 -15 87.5 -31.5t80 -42t68 -55t44.5 -71t17 -89.5z" />
    <glyph glyph-name="Scaron" unicode="&#x160;" horiz-adv-x="1234" 
d="M659 1716h-75l-262 291h67l234 -250l231 250h68zM653 797q54 -16 92 -29t90.5 -35.5t89.5 -44.5t77 -55t64 -69.5t40 -85.5t16 -105q0 -177 -144 -285t-378 -108q-146 0 -269.5 41.5t-195.5 125.5l35 54q151 -164 422 -164q206 0 331.5 90.5t125.5 239.5q0 74 -31.5 132
t-95 101.5t-137 75t-179.5 63.5l-112 35q-62 18 -111.5 38t-98.5 52t-81.5 70t-53 93t-20.5 122q0 175 134 281t355 106q286 0 447 -174l-39 -49q-155 166 -414 166q-185 0 -298 -89.5t-113 -234.5q0 -71 26 -125.5t77.5 -91.5t103.5 -59.5t127 -44.5z" />
    <glyph glyph-name="scaron" unicode="&#x161;" horiz-adv-x="937" 
d="M498 1270h-76l-262 291h67l234 -250l231 250h68zM537 559q48 -15 87.5 -31.5t80 -42t68 -55t44.5 -71t17 -89.5q0 -131 -101.5 -210.5t-273.5 -79.5q-110 0 -199.5 26t-140.5 76l31 43q108 -92 309 -92q139 0 224 63.5t85 167.5q0 166 -252 238l-133 41q-64 19 -109.5 40
t-84 51.5t-57.5 74t-19 100.5q0 126 95.5 203.5t250.5 77.5q189 0 338 -89l-29 -49q-127 84 -303 84q-128 0 -207.5 -61t-79.5 -160q0 -87 58 -136.5t167 -80.5z" />
    <glyph glyph-name="uni0162" unicode="&#x162;" horiz-adv-x="1130" 
d="M598 0h-6l-100 -154q35 7 65 7q97 0 156 -44t59 -114q0 -75 -63.5 -120.5t-167.5 -45.5q-127 0 -191 61l23 41q55 -55 162 -55q80 0 128 32.5t48 86.5q0 52 -47.5 83.5t-124.5 31.5q-56 0 -105 -19l-14 27l117 182h-7v1458h-505v58h1079v-58h-506v-1458z" />
    <glyph glyph-name="uni0163" unicode="&#x163;" horiz-adv-x="651" 
d="M377 0h-4l-101 -154q35 7 68 7q97 0 156 -44t59 -114q0 -75 -63.5 -120.5t-167.5 -45.5q-128 0 -189 61l21 41q55 -55 161 -55q81 0 129 32.5t48 86.5q0 52 -46.5 83.5t-123.5 31.5q-58 0 -107 -19l-14 27l119 182h-7v1016h-292v53h292v313h62v-313h293v-53h-293v-1016z
" />
    <glyph glyph-name="Tcaron" unicode="&#x164;" horiz-adv-x="1130" 
d="M602 1716h-76l-262 291h68l233 -250l232 250h67zM1104 1516v-58h-506v-1458h-68v1458h-505v58h1079z" />
    <glyph glyph-name="tcaron" unicode="&#x165;" horiz-adv-x="651" 
d="M762 1597l-146 -383h-53l137 383h62zM377 1382v-313h293v-53h-293v-1016h-62v1016h-292v53h292v313h62z" />
    <glyph glyph-name="Tbar" unicode="&#x166;" horiz-adv-x="1130" 
d="M1104 1458h-506v-692h332v-51h-332v-715h-68v715h-311v51h311v692h-505v58h1079v-58z" />
    <glyph glyph-name="tbar" unicode="&#x167;" horiz-adv-x="659" 
d="M670 1016h-293v-457h256v-51h-256v-508h-62v508h-252v51h252v457h-292v53h292v313h62v-313h293v-53z" />
    <glyph glyph-name="Umacron" unicode="&#x16a;" horiz-adv-x="1601" 
d="M514 1800v53h576v-53h-576zM801 -20q-269 0 -432.5 148t-163.5 392v996h67v-994q0 -218 145.5 -351.5t383.5 -133.5t383 133.5t145 351.5v994h68v-996q0 -244 -163.5 -392t-432.5 -148z" />
    <glyph glyph-name="umacron" unicode="&#x16b;" horiz-adv-x="1245" 
d="M336 1354v53h575v-53h-575zM623 -20q-204 0 -328.5 114t-124.5 301v674h61v-657q0 -170 107.5 -273.5t284.5 -103.5t284 103.5t107 273.5v657h61v-674q0 -187 -124 -301t-328 -114z" />
    <glyph glyph-name="Uring" unicode="&#x16e;" horiz-adv-x="1601" 
d="M801 1642q-95 0 -154 58t-59 153q0 96 58.5 154.5t154.5 58.5q94 0 152.5 -58.5t58.5 -154.5q0 -95 -58.5 -153t-152.5 -58zM801 1686q72 0 116 46t44 121q0 77 -44 123.5t-116 46.5t-116 -46.5t-44 -123.5q0 -75 44 -121t116 -46zM801 -20q-269 0 -432.5 148t-163.5 392
v996h67v-994q0 -218 145.5 -351.5t383.5 -133.5t383 133.5t145 351.5v994h68v-996q0 -244 -163.5 -392t-432.5 -148z" />
    <glyph glyph-name="uring" unicode="&#x16f;" horiz-adv-x="1245" 
d="M623 1196q-95 0 -154 58t-59 153q0 96 58.5 154.5t154.5 58.5q94 0 152.5 -58.5t58.5 -154.5q0 -95 -58.5 -153t-152.5 -58zM623 1239q72 0 115.5 46.5t43.5 121.5q0 77 -43.5 123.5t-115.5 46.5t-116 -46.5t-44 -123.5q0 -75 44 -121.5t116 -46.5zM623 -20
q-204 0 -328.5 114t-124.5 301v674h61v-657q0 -170 107.5 -273.5t284.5 -103.5t284 103.5t107 273.5v657h61v-674q0 -187 -124 -301t-328 -114z" />
    <glyph glyph-name="Uhungarumlaut" unicode="&#x170;" horiz-adv-x="1601" 
d="M637 1716l217 291h88l-244 -291h-61zM879 1716l217 291h88l-244 -291h-61zM801 -20q-269 0 -432.5 148t-163.5 392v996h67v-994q0 -218 145.5 -351.5t383.5 -133.5t383 133.5t145 351.5v994h68v-996q0 -244 -163.5 -392t-432.5 -148z" />
    <glyph glyph-name="uhungarumlaut" unicode="&#x171;" horiz-adv-x="1245" 
d="M459 1270l217 291h88l-244 -291h-61zM700 1270l218 291h88l-244 -291h-62zM623 -20q-204 0 -328.5 114t-124.5 301v674h61v-657q0 -170 107.5 -273.5t284.5 -103.5t284 103.5t107 273.5v657h61v-674q0 -187 -124 -301t-328 -114z" />
    <glyph glyph-name="Uogonek" unicode="&#x172;" horiz-adv-x="1601" 
d="M1329 1516h68v-996q0 -200 -111.5 -337.5t-304.5 -182.5q-240 -162 -240 -319q0 -47 28.5 -76t74.5 -29q73 0 135 55l8 -45q-63 -57 -147 -57q-71 0 -114.5 40.5t-43.5 106.5q0 154 205 308q-54 -4 -86 -4q-269 0 -432.5 148t-163.5 392v996h67v-994q0 -218 145.5 -351.5
t383.5 -133.5t383 133.5t145 351.5v994z" />
    <glyph glyph-name="uogonek" unicode="&#x173;" horiz-adv-x="1245" 
d="M1014 1069h61v-674q0 -148 -79.5 -252t-217.5 -143q-239 -162 -239 -319q0 -47 28 -76t74 -29q73 0 135 55l8 -45q-63 -57 -147 -57q-71 0 -114.5 40.5t-43.5 106.5q0 74 52.5 153.5t150.5 152.5q-18 -2 -59 -2q-204 0 -328.5 114t-124.5 301v674h61v-657
q0 -170 107.5 -273.5t284.5 -103.5t284 103.5t107 273.5v657z" />
    <glyph glyph-name="Wcircumflex" unicode="&#x174;" horiz-adv-x="2215" 
d="M1112 1966l-233 -250h-68l262 291h76l262 -291h-68zM2116 1516h73l-553 -1516h-67l-461 1409l-461 -1409h-65l-555 1516h73l516 -1424l457 1424h70l459 -1424z" />
    <glyph glyph-name="wcircumflex" unicode="&#x175;" horiz-adv-x="1859" 
d="M934 1520l-234 -250h-67l262 291h76l262 -291h-68zM1753 1069h70l-432 -1069h-66l-395 991l-395 -991h-66l-432 1069h69l398 -995l395 995h62l397 -995z" />
    <glyph glyph-name="Ycircumflex" unicode="&#x176;" horiz-adv-x="1296" 
d="M653 1966l-233 -250h-68l262 291h76l262 -291h-67zM1178 1516h77l-573 -865v-651h-68v651l-575 865h80l530 -801z" />
    <glyph glyph-name="ycircumflex" unicode="&#x177;" 
d="M625 1520l-234 -250h-67l262 291h76l262 -291h-68zM1014 1069h61v-1520h-895v54h834v622q-45 -116 -145.5 -180.5t-260.5 -64.5q-196 0 -317 114t-121 299v676h61v-657q0 -170 107.5 -273.5t284.5 -103.5t284 103.5t107 273.5v657z" />
    <glyph glyph-name="Ydieresis" unicode="&#x178;" horiz-adv-x="1296" 
d="M471 1849q-23 0 -39 17t-16 41q0 23 16 39t39 16t39 -16t16 -39q0 -24 -16 -41t-39 -17zM829 1849q-23 0 -39 17t-16 41q0 23 16 39t39 16t39.5 -16t16.5 -39t-16.5 -40.5t-39.5 -17.5zM1178 1516h77l-573 -865v-651h-68v651l-575 865h80l530 -801z" />
    <glyph glyph-name="Zacute" unicode="&#x179;" horiz-adv-x="1134" 
d="M877 2007l-287 -291h-62l260 291h89zM174 57h895v-57h-1003l882 1458h-870v58h979z" />
    <glyph glyph-name="zacute" unicode="&#x17a;" horiz-adv-x="976" 
d="M446 1270l261 291h88l-287 -291h-62zM72 0l714 1016h-706v53h815l-717 -1016h727v-53h-833z" />
    <glyph glyph-name="Zdotaccent" unicode="&#x17b;" horiz-adv-x="1134" 
d="M569 1849q-23 0 -39 17t-16 41q0 23 16 39t39 16t39.5 -16t16.5 -39t-16.5 -40.5t-39.5 -17.5zM174 57h895v-57h-1003l882 1458h-870v58h979z" />
    <glyph glyph-name="zdotaccent" unicode="&#x17c;" horiz-adv-x="976" 
d="M487 1403q-23 0 -39 17t-16 40t16 39.5t39 16.5t39.5 -16.5t16.5 -39.5t-16.5 -40t-39.5 -17zM72 0l714 1016h-706v53h815l-717 -1016h727v-53h-833z" />
    <glyph glyph-name="Zcaron" unicode="&#x17d;" horiz-adv-x="1134" 
d="M608 1716h-76l-262 291h68l233 -250l232 250h67zM174 57h895v-57h-1003l882 1458h-870v58h979z" />
    <glyph glyph-name="zcaron" unicode="&#x17e;" horiz-adv-x="976" 
d="M526 1270h-75l-263 291h68l233 -250l232 250h67zM178 53h727v-53h-833l714 1016h-706v53h815z" />
    <glyph glyph-name="florin" unicode="&#x192;" horiz-adv-x="937" 
d="M739 1479q-104 0 -183.5 -68t-100.5 -190l-86 -488h450v-57h-461l-153 -881h-66l154 881h-182v57h192l86 498q25 147 120.5 226t242.5 79q76 0 143 -25l-10 -55q-65 23 -146 23z" />
    <glyph glyph-name="Scommaaccent" unicode="&#x218;" horiz-adv-x="1234" 
d="M600 -20q-146 0 -269.5 41.5t-195.5 125.5l35 54q151 -164 422 -164q206 0 331.5 90.5t125.5 239.5q0 74 -31.5 132t-95 101.5t-137 75t-179.5 63.5l-112 35q-62 18 -111.5 38t-98.5 52t-81.5 70t-53 93t-20.5 122q0 175 134 281t355 106q286 0 447 -174l-39 -49
q-155 166 -414 166q-185 0 -298 -89.5t-113 -234.5q0 -71 26 -125.5t77.5 -91.5t103.5 -59.5t127 -44.5l118 -37q54 -16 92 -29t90.5 -35.5t89.5 -44.5t77 -55t64 -69.5t40 -85.5t16 -105q0 -177 -144 -285t-378 -108zM516 -451l121 345h63l-133 -345h-51z" />
    <glyph glyph-name="scommaaccent" unicode="&#x219;" horiz-adv-x="937" 
d="M459 -20q-110 0 -199.5 26t-140.5 76l31 43q108 -92 309 -92q139 0 224 63.5t85 167.5q0 166 -252 238l-133 41q-64 19 -109.5 40t-84 51.5t-57.5 74t-19 100.5q0 126 95.5 203.5t250.5 77.5q189 0 338 -89l-29 -49q-127 84 -303 84q-128 0 -207.5 -61t-79.5 -160
q0 -87 58 -136.5t167 -80.5l134 -39q48 -15 87.5 -31.5t80 -42t68 -55t44.5 -71t17 -89.5q0 -131 -101.5 -210.5t-273.5 -79.5zM352 -451l121 345h64l-134 -345h-51z" />
    <glyph glyph-name="uni021A" unicode="&#x21a;" horiz-adv-x="1130" 
d="M1104 1516v-58h-506v-1458h-68v1458h-505v58h1079zM432 -451l121 345h63l-133 -345h-51z" />
    <glyph glyph-name="uni021B" unicode="&#x21b;" horiz-adv-x="651" 
d="M377 1069h293v-53h-293v-1016h-62v1016h-292v53h292v313h62v-313zM215 -451l121 345h63l-133 -345h-51z" />
    <glyph glyph-name="circumflex" unicode="&#x2c6;" horiz-adv-x="1228" 
d="M700 1270h-67l-232 250l-233 -250h-68l262 291h76z" />
    <glyph glyph-name="caron" unicode="&#x2c7;" horiz-adv-x="1228" 
d="M633 1561h67l-262 -291h-76l-262 291h68l233 -250z" />
    <glyph glyph-name="breve" unicode="&#x2d8;" horiz-adv-x="1228" 
d="M399 1249q-135 0 -218 86t-83 226h60q0 -119 66 -192t175 -73q107 0 173.5 73.5t66.5 191.5h59q0 -140 -82 -226t-217 -86z" />
    <glyph glyph-name="dotaccent" unicode="&#x2d9;" horiz-adv-x="1228" 
d="M213 1403q-23 0 -39 17t-16 40t16 39.5t39 16.5t39 -16.5t16 -39.5t-16 -40t-39 -17z" />
    <glyph glyph-name="ring" unicode="&#x2da;" horiz-adv-x="1228" 
d="M352 1196q-95 0 -154 58t-59 153q0 96 58.5 154.5t154.5 58.5q94 0 152.5 -58.5t58.5 -154.5q0 -95 -58.5 -153t-152.5 -58zM352 1239q72 0 116 46.5t44 121.5q0 77 -44 123.5t-116 46.5t-115.5 -46.5t-43.5 -123.5q0 -75 43.5 -121.5t115.5 -46.5z" />
    <glyph glyph-name="ogonek" unicode="&#x2db;" horiz-adv-x="1228" 
d="M338 -471q-71 0 -114.5 40.5t-43.5 106.5q0 91 77.5 187.5t221.5 183.5v-47q-239 -162 -239 -319q0 -47 28 -76t74 -29q73 0 135 55l8 -45q-63 -57 -147 -57z" />
    <glyph glyph-name="tilde" unicode="&#x2dc;" horiz-adv-x="1228" 
d="M639 1296q-39 0 -76 17t-66.5 41.5t-57.5 49t-61 41.5t-67 17q-54 0 -91.5 -40.5t-37.5 -104.5h-51q0 91 52 148t130 57q39 0 76.5 -17.5t66.5 -42t57.5 -49t62 -42t67.5 -17.5q54 0 90.5 40.5t36.5 106.5h51q0 -92 -52 -148.5t-130 -56.5z" />
    <glyph glyph-name="hungarumlaut" unicode="&#x2dd;" horiz-adv-x="1228" 
d="M307 1270l217 291h88l-243 -291h-62zM549 1270l217 291h88l-244 -291h-61z" />
    <glyph glyph-name="gravecomb" unicode="&#x300;" horiz-adv-x="0" 
d="M-344 1270l-285 291h88l258 -291h-61z" />
    <glyph glyph-name="acutecomb" unicode="&#x301;" horiz-adv-x="0" 
d="M-362 1270l260 291h88l-287 -291h-61z" />
    <glyph glyph-name="uni0302" unicode="&#x302;" horiz-adv-x="0" 
d="M-100 1270h-68l-231 250l-234 -250h-67l262 291h76z" />
    <glyph glyph-name="tildecomb" unicode="&#x303;" horiz-adv-x="0" 
d="M-315 1296q-39 0 -76 17t-66.5 41.5t-57.5 49t-61 41.5t-67 17q-54 0 -91.5 -40.5t-37.5 -104.5h-51q0 91 52 148t130 57q39 0 76.5 -17.5t66.5 -42t57.5 -49t62 -42t67.5 -17.5q54 0 90.5 40.5t36.5 106.5h51q0 -92 -52 -148.5t-130 -56.5z" />
    <glyph glyph-name="uni0304" unicode="&#x304;" horiz-adv-x="0" 
d="M-731 1354v53h575v-53h-575z" />
    <glyph glyph-name="uni0306" unicode="&#x306;" horiz-adv-x="0" 
d="M-397 1249q-135 0 -218 86t-83 226h59q0 -119 66.5 -192t175.5 -73q107 0 173 73t66 192h60q0 -140 -82 -226t-217 -86z" />
    <glyph glyph-name="uni0307" unicode="&#x307;" horiz-adv-x="0" 
d="M-213 1403q-23 0 -39 17t-16 40t16 39.5t39 16.5t39 -16.5t16 -39.5t-16 -40t-39 -17z" />
    <glyph glyph-name="uni0308" unicode="&#x308;" horiz-adv-x="0" 
d="M-571 1403q-23 0 -39.5 17t-16.5 40t16.5 39.5t39.5 16.5t39 -16.5t16 -39.5t-16 -40t-39 -17zM-213 1403q-23 0 -39 17t-16 40t16 39.5t39 16.5t39 -16.5t16 -39.5t-16 -40t-39 -17z" />
    <glyph glyph-name="uni030A" unicode="&#x30a;" horiz-adv-x="0" 
d="M-350 1196q-95 0 -154 58t-59 153q0 96 58.5 154.5t154.5 58.5q94 0 152.5 -58.5t58.5 -154.5q0 -95 -58.5 -153t-152.5 -58zM-350 1239q72 0 116 46.5t44 121.5q0 77 -44 123.5t-116 46.5t-116 -46.5t-44 -123.5q0 -75 44 -121.5t116 -46.5z" />
    <glyph glyph-name="uni030B" unicode="&#x30b;" horiz-adv-x="0" 
d="M-635 1270l217 291h88l-243 -291h-62zM-393 1270l217 291h88l-244 -291h-61z" />
    <glyph glyph-name="uni030C" unicode="&#x30c;" horiz-adv-x="0" 
d="M-168 1561h68l-262 -291h-76l-262 291h67l234 -250z" />
    <glyph glyph-name="uni0312" unicode="&#x312;" horiz-adv-x="0" 
d="M-215 1214l147 383h52l-136 -383h-63z" />
    <glyph glyph-name="uni0326" unicode="&#x326;" horiz-adv-x="0" 
d="M-211 -451l121 345h63l-133 -345h-51z" />
    <glyph glyph-name="uni0327" unicode="&#x327;" horiz-adv-x="0" 
d="M-266 -147q97 0 156 -44t59 -114q0 -75 -64 -120.5t-168 -45.5q-126 0 -190 61l22 41q55 -55 162 -55q80 0 128 32.5t48 86.5q0 52 -47.5 83.5t-124.5 31.5q-55 0 -104 -19l-14 27l116 182h56l-101 -154q35 7 66 7z" />
    <glyph glyph-name="uni0328" unicode="&#x328;" horiz-adv-x="0" 
d="M-182 -471q-71 0 -114.5 40.5t-43.5 106.5q0 91 77.5 187.5t221.5 183.5v-47q-240 -162 -240 -319q0 -47 28.5 -76t74.5 -29q73 0 135 55l8 -45q-63 -57 -147 -57z" />
    <glyph glyph-name="uni0335" unicode="&#x335;" horiz-adv-x="0" 
d="M-1028 559v51h711v-51h-711z" />
    <glyph glyph-name="uni0336" unicode="&#x336;" horiz-adv-x="0" 
d="M-1735 559v51h1538v-51h-1538z" />
    <glyph glyph-name="uni0337" unicode="&#x337;" horiz-adv-x="0" 
d="M-571 920l239 165v-61l-239 -164v6l-238 -168v62l238 168v-8z" />
    <glyph glyph-name="uni0338" unicode="&#x338;" horiz-adv-x="0" 
d="M-922 -20l-45 30l895 1526l47 -31z" />
    <glyph glyph-name="uni0394" unicode="&#x394;" horiz-adv-x="1554" 
d="M811 1516l676 -1516h-1419l677 1516h66zM166 57h1225l-613 1381z" />
    <glyph glyph-name="uni03A9" unicode="&#x3a9;" horiz-adv-x="1562" 
d="M1004 303v-246h432v-57h-496v346q199 45 314.5 192.5t115.5 364.5q0 259 -162.5 417.5t-425.5 158.5q-265 0 -427 -158t-162 -418q0 -217 115.5 -364.5t314.5 -192.5v-346h-494v57h432v244q-206 61 -323 219t-117 383q0 284 181.5 458.5t479.5 174.5q296 0 478 -174.5
t182 -458.5q0 -226 -116.5 -383.5t-321.5 -216.5z" />
    <glyph glyph-name="uni03BC" unicode="&#x3bc;" horiz-adv-x="1273" 
d="M1028 1069h62v-1069h-62v223q-91 -243 -391 -243t-391 243v-674h-62v1520h62v-657q0 -170 107 -273.5t284 -103.5t284 103.5t107 273.5v657z" />
    <glyph glyph-name="pi" unicode="&#x3c0;" horiz-adv-x="1382" 
d="M1290 1016h-289v-821q0 -72 37.5 -116t98.5 -44q88 0 151 39v-54q-59 -40 -168 -40q-82 0 -131 56t-49 148v832h-537v-1016h-61v1016h-293v53h1241v-53z" />
    <glyph glyph-name="Wgrave" unicode="&#x1e80;" horiz-adv-x="2215" 
d="M1151 1716h-61l-285 291h88zM2116 1516h73l-553 -1516h-67l-461 1409l-461 -1409h-65l-555 1516h73l516 -1424l457 1424h70l459 -1424z" />
    <glyph glyph-name="wgrave" unicode="&#x1e81;" horiz-adv-x="1859" 
d="M973 1270h-62l-284 291h88zM1753 1069h70l-432 -1069h-66l-395 991l-395 -991h-66l-432 1069h69l398 -995l395 995h62l397 -995z" />
    <glyph glyph-name="Wacute" unicode="&#x1e82;" horiz-adv-x="2215" 
d="M1417 2007l-287 -291h-61l260 291h88zM2116 1516h73l-553 -1516h-67l-461 1409l-461 -1409h-65l-555 1516h73l516 -1424l457 1424h70l459 -1424z" />
    <glyph glyph-name="wacute" unicode="&#x1e83;" horiz-adv-x="1859" 
d="M1239 1561l-287 -291h-61l260 291h88zM1753 1069h70l-432 -1069h-66l-395 991l-395 -991h-66l-432 1069h69l398 -995l395 995h62l397 -995z" />
    <glyph glyph-name="Wdieresis" unicode="&#x1e84;" horiz-adv-x="2215" 
d="M930 1849q-23 0 -39.5 17.5t-16.5 40.5t16.5 39t39.5 16t39 -16t16 -39q0 -24 -16 -41t-39 -17zM1288 1849q-23 0 -39 17t-16 41q0 23 16 39t39 16t39 -16t16 -39q0 -24 -16 -41t-39 -17zM2116 1516h73l-553 -1516h-67l-461 1409l-461 -1409h-65l-555 1516h73l516 -1424
l457 1424h70l459 -1424z" />
    <glyph glyph-name="wdieresis" unicode="&#x1e85;" horiz-adv-x="1859" 
d="M752 1403q-23 0 -39.5 17t-16.5 40t16.5 39.5t39.5 16.5t39 -16.5t16 -39.5t-16 -40t-39 -17zM1110 1403q-23 0 -39 17t-16 40t16 39.5t39 16.5t39 -16.5t16 -39.5t-16 -40t-39 -17zM1753 1069h70l-432 -1069h-66l-395 991l-395 -991h-66l-432 1069h69l398 -995l395 995
h62l397 -995z" />
    <glyph glyph-name="uni1E9E" unicode="&#x1e9e;" horiz-adv-x="1341" 
d="M858 795q170 -35 268.5 -142t98.5 -260q0 -186 -137 -299.5t-363 -113.5q-121 0 -217 43l8 57q88 -43 203 -43q195 0 314.5 99.5t119.5 262.5q0 164 -126.5 264.5t-330.5 100.5v57q171 0 276 90.5t105 239.5q0 148 -110.5 238t-290.5 90q-179 0 -289.5 -90.5
t-110.5 -237.5v-1151h-67v1159q0 170 128 273.5t339 103.5q214 0 343.5 -103.5t129.5 -273.5q0 -134 -77.5 -230.5t-213.5 -133.5z" />
    <glyph glyph-name="Ygrave" unicode="&#x1ef2;" horiz-adv-x="1296" 
d="M692 1716h-61l-285 291h88zM1178 1516h77l-573 -865v-651h-68v651l-575 865h80l530 -801z" />
    <glyph glyph-name="ygrave" unicode="&#x1ef3;" 
d="M664 1270h-62l-285 291h89zM1014 1069h61v-1520h-895v54h834v622q-45 -116 -145.5 -180.5t-260.5 -64.5q-196 0 -317 114t-121 299v676h61v-657q0 -170 107.5 -273.5t284.5 -103.5t284 103.5t107 273.5v657z" />
    <glyph glyph-name="endash" unicode="&#x2013;" horiz-adv-x="1099" 
d="M158 559v51h786v-51h-786z" />
    <glyph glyph-name="emdash" unicode="&#x2014;" horiz-adv-x="1742" 
d="M158 559v51h1427v-51h-1427z" />
    <glyph glyph-name="quoteleft" unicode="&#x2018;" horiz-adv-x="407" 
d="M319 1516l-139 -396h-65l149 396h55z" />
    <glyph glyph-name="quoteright" unicode="&#x2019;" horiz-adv-x="405" 
d="M117 1120l139 396h66l-150 -396h-55z" />
    <glyph glyph-name="quotesinglbase" unicode="&#x201a;" horiz-adv-x="380" 
d="M33 -293l137 395h68l-150 -395h-55z" />
    <glyph glyph-name="quotedblleft" unicode="&#x201c;" horiz-adv-x="636" 
d="M326 1513l-140 -395h-67l151 395h56zM549 1513l-137 -395h-68l150 395h55z" />
    <glyph glyph-name="quotedblright" unicode="&#x201d;" horiz-adv-x="630" 
d="M117 1122l139 396h66l-150 -396h-55zM342 1122l137 396h68l-150 -396h-55z" />
    <glyph glyph-name="quotedblbase" unicode="&#x201e;" horiz-adv-x="606" 
d="M33 -293l137 395h68l-150 -395h-55zM256 -293l139 395h68l-152 -395h-55z" />
    <glyph glyph-name="dagger" unicode="&#x2020;" horiz-adv-x="1034" 
d="M950 1069v-59h-399v-1461h-68v1461h-399v59h399v528h68v-528h399z" />
    <glyph glyph-name="daggerdbl" unicode="&#x2021;" horiz-adv-x="1034" 
d="M950 1010h-399v-355h399v-57h-399v-1049h-68v1049h-399v57h399v355h-399v59h399v528h68v-528h399v-59z" />
    <glyph glyph-name="bullet" unicode="&#x2022;" horiz-adv-x="698" 
d="M350 518q-66 0 -106.5 41t-40.5 107t40.5 106.5t106.5 40.5q65 0 105.5 -40.5t40.5 -106.5t-40.5 -107t-105.5 -41z" />
    <glyph glyph-name="ellipsis" unicode="&#x2026;" horiz-adv-x="1093" 
d="M203 -20q-27 0 -46.5 18.5t-19.5 44.5t20 46t46 20t44.5 -19.5t18.5 -46.5q0 -26 -18.5 -44.5t-44.5 -18.5zM547 -20q-27 0 -46.5 18.5t-19.5 44.5t20 46t46 20t44.5 -19.5t18.5 -46.5q0 -26 -18.5 -44.5t-44.5 -18.5zM891 -20q-26 0 -45 18.5t-19 44.5t19 46t45 20
t45.5 -20t19.5 -46t-19.5 -44.5t-45.5 -18.5z" />
    <glyph glyph-name="perthousand" unicode="&#x2030;" horiz-adv-x="2181" 
d="M391 872q-140 0 -225.5 91.5t-85.5 240.5q0 150 85.5 241t225.5 91t224.5 -90.5t84.5 -241.5q0 -149 -85 -240.5t-224 -91.5zM303 -20l-45 30l895 1526l47 -31zM391 922q111 0 179.5 77.5t68.5 204.5t-68.5 205t-179.5 78q-114 0 -182 -77.5t-68 -205.5t68 -205t182 -77z
M1061 -20q-140 0 -226.5 90.5t-86.5 240.5q0 149 86.5 240.5t226.5 91.5q139 0 224 -91.5t85 -240.5q0 -150 -84.5 -240.5t-224.5 -90.5zM1800 -20q-140 0 -226.5 90.5t-86.5 240.5q0 149 86.5 240.5t226.5 91.5q139 0 224 -91.5t85 -240.5q0 -150 -84.5 -240.5
t-224.5 -90.5zM1061 29q111 0 179.5 77.5t68.5 204.5t-68.5 205t-179.5 78q-114 0 -182 -77.5t-68 -205.5t68 -205t182 -77zM1800 29q110 0 178 77.5t68 204.5t-68 205t-178 78q-114 0 -182 -77.5t-68 -205.5t68 -205t182 -77z" />
    <glyph glyph-name="guilsinglleft" unicode="&#x2039;" horiz-adv-x="634" 
d="M524 1006l-350 -453l350 -453h-67l-355 453l355 453h67z" />
    <glyph glyph-name="guilsinglright" unicode="&#x203a;" horiz-adv-x="634" 
d="M178 1006l357 -453l-357 -453h-65l348 453l-348 453h65z" />
    <glyph glyph-name="fraction" unicode="&#x2044;" horiz-adv-x="366" 
d="M-242 -20l-45 30l895 1526l47 -31z" />
    <glyph glyph-name="uni2070" unicode="&#x2070;" horiz-adv-x="776" 
d="M389 799q-140 0 -225.5 128.5t-85.5 338.5t85.5 338.5t225.5 128.5q139 0 224 -128t85 -339t-85 -339t-224 -128zM389 850q113 0 182.5 114.5t69.5 301.5t-69.5 302t-182.5 115q-114 0 -183 -114.5t-69 -302.5t69 -302t183 -114z" />
    <glyph glyph-name="uni2074" unicode="&#x2074;" horiz-adv-x="753" 
d="M504 811v207h-463v45l469 657h51v-653h141v-49h-141v-207h-57zM100 1065h406v565z" />
    <glyph glyph-name="uni2075" unicode="&#x2075;" horiz-adv-x="712" 
d="M322 799q-171 0 -259 88l17 45q79 -82 235 -82q117 0 187.5 61t70.5 164q0 100 -62.5 160.5t-166.5 60.5q-92 0 -184 -30l-41 6l61 448h416v-49h-363l-51 -348q102 25 172 25q127 0 205 -74.5t78 -196.5q0 -124 -87.5 -201t-227.5 -77z" />
    <glyph glyph-name="uni2076" unicode="&#x2076;" horiz-adv-x="700" 
d="M362 1358q124 0 200.5 -77t76.5 -202q0 -127 -78.5 -203.5t-206.5 -76.5q-129 0 -207.5 76t-78.5 202q0 101 59 189l301 454h68l-267 -391q63 29 133 29zM354 850q101 0 162.5 62.5t61.5 166.5t-61.5 168t-162.5 64q-100 0 -162.5 -64t-62.5 -168t62.5 -166.5
t162.5 -62.5z" />
    <glyph glyph-name="uni2077" unicode="&#x2077;" horiz-adv-x="628" 
d="M35 1720h559l-332 -909h-63l317 860h-481v49z" />
    <glyph glyph-name="uni2078" unicode="&#x2078;" horiz-adv-x="747" 
d="M479 1282q84 -25 131 -85.5t47 -147.5q0 -113 -77.5 -181.5t-204.5 -68.5q-129 0 -208 68t-79 182q0 87 48 147.5t132 85.5q-73 25 -114 81.5t-41 133.5q0 106 72 171t190 65q117 0 187.5 -64t70.5 -170q0 -78 -41 -135t-113 -82zM174 1495q0 -85 55 -136.5t146 -51.5
q88 0 143 52t55 136t-55 136t-143 52q-91 0 -146 -51.5t-55 -136.5zM375 850q100 0 161.5 54.5t61.5 146.5t-61.5 149t-161.5 57q-101 0 -163 -57t-62 -149t61.5 -146.5t163.5 -54.5z" />
    <glyph glyph-name="uni2079" unicode="&#x2079;" horiz-adv-x="700" 
d="M346 1733q129 0 208 -76.5t79 -202.5q0 -99 -60 -188l-301 -455h-67l266 391q-61 -28 -133 -28q-124 0 -200.5 76.5t-76.5 201.5q0 127 78.5 204t206.5 77zM123 1452q0 -104 61 -167.5t162 -63.5q100 0 162.5 63.5t62.5 167.5t-62.5 166.5t-162.5 62.5q-101 0 -162 -62.5
t-61 -166.5z" />
    <glyph glyph-name="uni2080" unicode="&#x2080;" horiz-adv-x="776" 
d="M389 -217q-140 0 -225.5 128.5t-85.5 338.5t85.5 338.5t225.5 128.5q139 0 224 -128t85 -339t-85 -339t-224 -128zM389 -166q113 0 182.5 114.5t69.5 301.5t-69.5 302.5t-182.5 115.5q-114 0 -183 -115t-69 -303t69 -302t183 -114z" />
    <glyph glyph-name="uni2081" unicode="&#x2081;" horiz-adv-x="415" 
d="M213 -205v860h-178v50h235v-910h-57z" />
    <glyph glyph-name="uni2082" unicode="&#x2082;" horiz-adv-x="704" 
d="M72 -205v39l272 293q2 2 31.5 33.5t36.5 39.5t33 38t35 45t27.5 43.5t25.5 49.5t13.5 48t6.5 53q0 89 -55.5 140t-149.5 51t-151.5 -55t-57.5 -144l-57 4q0 111 72.5 177.5t193.5 66.5q119 0 192.5 -63.5t73.5 -170.5q0 -53 -17.5 -104t-54 -103t-64.5 -84.5t-78 -85.5
l-6 -6t-5 -5.5t-6 -6.5l-229 -244l473 2v-51h-555z" />
    <glyph glyph-name="uni2083" unicode="&#x2083;" horiz-adv-x="704" 
d="M340 307q130 0 209.5 -70t79.5 -186q0 -121 -83.5 -194.5t-221.5 -73.5q-181 0 -258 106l24 45q73 -100 225 -100q116 0 184 58.5t68 158.5q0 94 -67.5 151.5t-177.5 57.5q-81 0 -148 -31l-18 31l366 395h-424v50h506v-37l-344 -367q38 6 80 6z" />
    <glyph glyph-name="uni2084" unicode="&#x2084;" horiz-adv-x="753" 
d="M504 -205v207h-463v45l469 658h51v-654h141v-49h-141v-207h-57zM100 49h406v565z" />
    <glyph glyph-name="uni2085" unicode="&#x2085;" horiz-adv-x="712" 
d="M322 -217q-171 0 -259 88l17 45q79 -82 235 -82q117 0 187.5 61t70.5 164q0 100 -62.5 161t-166.5 61q-89 0 -184 -31l-41 6l61 449h416v-50h-363l-51 -348q102 25 172 25q127 0 205 -74.5t78 -196.5q0 -124 -87.5 -201t-227.5 -77z" />
    <glyph glyph-name="uni2086" unicode="&#x2086;" horiz-adv-x="700" 
d="M362 342q124 0 200.5 -77t76.5 -202q0 -127 -78.5 -203.5t-206.5 -76.5q-129 0 -207.5 76t-78.5 202q0 101 59 189l301 455h68l-267 -392q63 29 133 29zM354 -166q101 0 162.5 62.5t61.5 166.5t-61.5 168t-162.5 64q-100 0 -162.5 -64t-62.5 -168t62.5 -166.5
t162.5 -62.5z" />
    <glyph glyph-name="uni2087" unicode="&#x2087;" horiz-adv-x="628" 
d="M35 705h559l-332 -910h-63l317 860h-481v50z" />
    <glyph glyph-name="uni2088" unicode="&#x2088;" horiz-adv-x="747" 
d="M479 266q84 -25 131 -85.5t47 -147.5q0 -113 -77.5 -181.5t-204.5 -68.5q-129 0 -208 68t-79 182q0 87 48 147.5t132 85.5q-73 25 -114 81.5t-41 133.5q0 106 72 171t190 65q117 0 187.5 -64t70.5 -170q0 -78 -41 -135t-113 -82zM174 479q0 -85 55 -136.5t146 -51.5
q88 0 143 52t55 136q0 85 -55 137t-143 52q-91 0 -146 -52t-55 -137zM375 -166q100 0 161.5 54.5t61.5 146.5t-61.5 149.5t-161.5 57.5q-101 0 -163 -57.5t-62 -149.5t61.5 -146.5t163.5 -54.5z" />
    <glyph glyph-name="uni2089" unicode="&#x2089;" horiz-adv-x="700" 
d="M346 717q129 0 208 -76.5t79 -202.5q0 -99 -60 -188l-301 -455h-67l266 391q-61 -28 -133 -28q-124 0 -200.5 76.5t-76.5 201.5q0 127 78.5 204t206.5 77zM123 436q0 -104 61 -167.5t162 -63.5q100 0 162.5 63.5t62.5 167.5t-62.5 167t-162.5 63q-101 0 -162 -63
t-61 -167z" />
    <glyph glyph-name="Euro" unicode="&#x20ac;" horiz-adv-x="1632" 
d="M1481 315l49 -45q-100 -134 -255 -212t-341 -78q-292 0 -486.5 166t-240.5 450h-121v53h115q-6 53 -6 111v26h-109v54h111q25 316 225.5 506t511.5 190q328 0 555 -248l-43 -43q-216 234 -504 234q-285 0 -467 -174t-207 -465h629v-54h-631v-24q0 -58 6 -113h625v-53
h-616q45 -257 219 -408t432 -151q173 0 315.5 75t233.5 203z" />
    <glyph glyph-name="uni20B9" unicode="&#x20b9;" horiz-adv-x="1337" 
d="M1241 1516v-54h-455q119 -50 188.5 -151t76.5 -238h180v-53h-180q-7 -155 -89 -265t-219 -155l404 -600h-82l-391 584q-49 -9 -103 -9h-407v60h391q184 0 298.5 105t123.5 280h-813v53h813q-9 175 -127.5 280t-304.5 105h-381v58h1077z" />
    <glyph glyph-name="uni20BD" unicode="&#x20bd;" horiz-adv-x="1241" 
d="M293 688v-137h577v-53h-577v-498h-70v498h-102v53h102v137h-102v53h102v775h469q213 0 343 -113.5t130 -298.5q0 -188 -128 -302t-339 -114h-405zM293 1458v-713h385q187 0 300.5 98.5t113.5 258.5t-114 258t-300 98h-385z" />
    <glyph glyph-name="trademark" unicode="&#x2122;" horiz-adv-x="1447" 
d="M528 1597v-45h-198v-540h-54v540h-196v45h448zM1284 1012h-51l-29 491l-233 -491h-45l-232 489l-28 -489h-54l37 585h49l252 -532l250 532h49z" />
    <glyph glyph-name="oneeighth" unicode="&#x215b;" horiz-adv-x="1529" 
d="M1024 1536l47 -31l-897 -1525l-45 30zM213 606v860h-178v50h235v-910h-57zM1262 471q84 -25 131 -85.5t47 -147.5q0 -113 -78 -181.5t-205 -68.5q-129 0 -208 68t-79 182q0 86 48 147t133 86q-73 25 -114.5 81.5t-41.5 133.5q0 106 72 171t190 65q117 0 187.5 -64
t70.5 -170q0 -78 -40.5 -135t-112.5 -82zM956 684q0 -85 55 -136.5t146 -51.5q88 0 143.5 52t55.5 136t-55.5 136t-143.5 52q-91 0 -146 -51.5t-55 -136.5zM1157 39q100 0 161.5 54.5t61.5 146.5t-61.5 149t-161.5 57q-101 0 -163 -57t-62 -149t61.5 -146.5t163.5 -54.5z
" />
    <glyph glyph-name="threeeighths" unicode="&#x215c;" horiz-adv-x="1818" 
d="M1313 1536l47 -31l-897 -1525l-45 30zM629 862q0 -121 -83.5 -194.5t-221.5 -73.5q-181 0 -258 106l24 45q73 -100 225 -100q116 0 184 58.5t68 158.5q0 94 -67.5 151.5t-177.5 57.5q-81 0 -148 -31l-18 31l366 395h-424v50h506v-37l-344 -367q37 6 80 6q130 0 209.5 -70
t79.5 -186zM1550 471q84 -25 131.5 -85.5t47.5 -147.5q0 -113 -78 -181.5t-205 -68.5q-129 0 -208 68t-79 182q0 87 48 147.5t132 85.5q-73 25 -114 81.5t-41 133.5q0 106 72 171t190 65q117 0 187.5 -64t70.5 -170q0 -78 -41 -135t-113 -82zM1245 684q0 -85 55 -136.5
t146 -51.5q88 0 143.5 52t55.5 136t-55.5 136t-143.5 52q-91 0 -146 -51.5t-55 -136.5zM1446 39q100 0 161.5 54.5t61.5 146.5t-61.5 149t-161.5 57q-101 0 -163 -57t-62 -149t61.5 -146.5t163.5 -54.5z" />
    <glyph glyph-name="fiveeighths" unicode="&#x215d;" horiz-adv-x="1826" 
d="M1321 1536l47 -31l-897 -1525l-45 30zM637 872q0 -124 -87.5 -201t-227.5 -77q-171 0 -259 88l17 45q79 -82 235 -82q117 0 187.5 61t70.5 164q0 100 -62.5 161t-166.5 61q-89 0 -184 -31l-41 6l61 449h416v-50h-363l-51 -348q102 25 172 25q127 0 205 -74.5t78 -196.5z
M1559 471q84 -25 131 -85.5t47 -147.5q0 -113 -78 -181.5t-205 -68.5q-129 0 -208 68t-79 182q0 86 48 147t133 86q-73 25 -114.5 81.5t-41.5 133.5q0 106 72 171t190 65q117 0 187.5 -64t70.5 -170q0 -78 -40.5 -135t-112.5 -82zM1253 684q0 -85 55 -136.5t146 -51.5
q88 0 143.5 52t55.5 136t-55.5 136t-143.5 52q-91 0 -146 -51.5t-55 -136.5zM1454 39q100 0 161.5 54.5t61.5 146.5t-61.5 149t-161.5 57q-101 0 -163 -57t-62 -149t61.5 -146.5t163.5 -54.5z" />
    <glyph glyph-name="seveneighths" unicode="&#x215e;" horiz-adv-x="1679" 
d="M1174 1536l47 -31l-897 -1525l-45 30zM35 1516h559l-332 -910h-63l317 860h-481v50zM1411 471q84 -25 131 -85.5t47 -147.5q0 -113 -77.5 -181.5t-204.5 -68.5q-129 0 -208 68t-79 182q0 87 48 147.5t132 85.5q-73 25 -114.5 81.5t-41.5 133.5q0 106 72.5 171t190.5 65
q117 0 187.5 -64t70.5 -170q0 -78 -41 -135t-113 -82zM1106 684q0 -85 55 -136.5t146 -51.5q88 0 143 52t55 136t-55 136t-143 52q-91 0 -146 -51.5t-55 -136.5zM1307 39q100 0 161.5 54.5t61.5 146.5t-61.5 149t-161.5 57q-101 0 -163.5 -57t-62.5 -149t62 -146.5
t164 -54.5z" />
    <glyph glyph-name="partialdiff" unicode="&#x2202;" horiz-adv-x="1257" 
d="M610 1536q157 0 277 -96.5t186 -273t66 -406.5q0 -351 -176 -565.5t-463 -214.5q-192 0 -310 99t-118 261q0 142 123.5 251t348.5 169.5t521 64.5q-12 296 -138.5 475t-324.5 179q-239 0 -418 -234l-43 43q197 248 469 248zM502 37q167 0 295.5 90.5t199 255t70.5 379.5
v6q-275 -3 -484.5 -57t-324.5 -151.5t-115 -225.5q0 -133 99 -215t260 -82z" />
    <glyph glyph-name="emptyset" unicode="&#x2205;" horiz-adv-x="1343" 
d="M1065 1087q133 -152 133 -389q0 -250 -144.5 -402.5t-379.5 -152.5q-221 0 -361 131l-120 -131l-39 31l125 135q-134 150 -134 389q0 249 145.5 402t383.5 153q216 0 356 -131l121 131l39 -30zM211 698q0 -211 111 -344l667 723q-124 121 -317 121q-207 0 -334 -138
t-127 -362zM672 199q207 0 334 137t127 362q0 209 -111 342l-668 -721q123 -120 318 -120z" />
    <glyph glyph-name="product" unicode="&#x220f;" horiz-adv-x="1476" 
d="M1253 1597v-2048h-69v1991h-891v-1991h-68v2048h1028z" />
    <glyph glyph-name="summation" unicode="&#x2211;" horiz-adv-x="1222" 
d="M68 -451v43l694 988l-678 974v43h1034v-57h-950l676 -960l-692 -973h987v-58h-1071z" />
    <glyph glyph-name="minus" unicode="&#x2212;" horiz-adv-x="1150" 
d="M164 680v53h823v-53h-823z" />
    <glyph glyph-name="radical" unicode="&#x221a;" horiz-adv-x="1531" 
d="M516 -451l-493 1069h69l457 -995l907 1974h70l-944 -2048h-66z" />
    <glyph glyph-name="infinity" unicode="&#x221e;" horiz-adv-x="1449" 
d="M1010 903q137 0 221 -91t84 -241q0 -149 -84 -240t-221 -91q-102 0 -177.5 53t-107.5 147q-31 -94 -105.5 -147t-177.5 -53q-138 0 -223.5 91t-85.5 240q0 150 85 241t224 91q102 0 177 -52.5t106 -145.5q32 93 107.5 145.5t177.5 52.5zM446 289q110 0 178 77.5t68 204.5
t-68 205t-178 78q-114 0 -181.5 -77.5t-67.5 -205.5t67.5 -205t181.5 -77zM1006 289q111 0 179 77.5t68 204.5t-68.5 205t-178.5 78q-114 0 -182 -77.5t-68 -205.5t68 -205t182 -77z" />
    <glyph glyph-name="integral" unicode="&#x222b;" horiz-adv-x="921" 
d="M698 1618q65 0 124.5 -20.5t95.5 -59.5l-21 -49q-78 72 -195 72q-96 0 -152 -58t-56 -153v-1569q0 -115 -72.5 -183.5t-198.5 -68.5q-67 0 -126 20.5t-93 59.5l19 49q81 -72 194 -72q97 0 153 58t56 153v1569q0 115 72 183.5t200 68.5z" />
    <glyph glyph-name="approxequal" unicode="&#x2248;" horiz-adv-x="1146" 
d="M760 700q-45 0 -87 17.5t-75 42t-65 49t-69.5 42t-76.5 17.5q-71 0 -120.5 -41t-49.5 -106h-49q0 91 63.5 148t159.5 57q45 0 87 -17.5t75 -42t65 -49t69.5 -42t76.5 -17.5q71 0 120.5 40.5t49.5 106.5h49q0 -92 -63 -148.5t-160 -56.5zM760 291q-54 0 -106.5 26.5
t-88 57.5t-83.5 57.5t-95 26.5q-71 0 -120.5 -41.5t-49.5 -106.5h-49q0 91 63.5 148t159.5 57q45 0 87 -17.5t75 -42t65 -49t69.5 -42t76.5 -17.5q71 0 120.5 41t49.5 107h49q0 -92 -63 -148.5t-160 -56.5z" />
    <glyph glyph-name="notequal" unicode="&#x2260;" horiz-adv-x="1150" 
d="M987 924h-319l-121 -437h440v-53h-455l-61 -225h-63l61 225h-305v53h319l121 437h-440v53h454l62 225h63l-61 -225h305v-53z" />
    <glyph glyph-name="lessequal" unicode="&#x2264;" horiz-adv-x="1134" 
d="M958 1165v-61l-696 -318l696 -317v-61l-784 362v35zM174 211v55h784v-55h-784z" />
    <glyph glyph-name="greaterequal" unicode="&#x2265;" horiz-adv-x="1134" 
d="M176 1165l785 -360v-35l-785 -362v61l696 317l-696 318v61zM176 211v55h785v-55h-785z" />
    <glyph glyph-name="lozenge" unicode="&#x25ca;" horiz-adv-x="1071" 
d="M559 1274l418 -637l-418 -637h-47l-418 637l418 637h47zM537 61l370 576l-370 575l-373 -575z" />
    <glyph glyph-name="i.loclTRK" horiz-adv-x="438" 
d="M219 1403q-23 0 -39 17t-16 40t16 39.5t39 16.5t39 -16.5t16 -39.5t-16 -40t-39 -17zM188 0v1069h62v-1069h-62z" />
    <glyph glyph-name="zero.lf" horiz-adv-x="1382" 
d="M623 -20q-151 0 -266.5 96.5t-178.5 273.5t-63 408t63 408t178.5 273.5t266.5 96.5q152 0 267 -96.5t177.5 -273t62.5 -408.5t-62.5 -408.5t-177.5 -273t-267 -96.5zM623 37q196 0 316 198.5t120 522.5t-120 522.5t-316 198.5q-198 0 -318.5 -198.5t-120.5 -522.5
t120.5 -522.5t318.5 -198.5z" />
    <glyph glyph-name="one.lf" horiz-adv-x="632" 
d="M340 0v1458h-305v58h373v-1516h-68z" />
    <glyph glyph-name="two.lf" horiz-adv-x="1116" 
d="M100 0v45l453 485q11 12 56 60t63 68t58 68t59.5 77t48 76.5t42 85.5t24.5 85t11 93q0 155 -99 245.5t-263 90.5q-167 0 -268 -96t-101 -253l-71 5q0 180 120.5 290.5t317.5 110.5q196 0 315 -105t119 -282q0 -52 -12 -105t-28 -96t-48.5 -96t-55.5 -86.5t-68.5 -87
t-67.5 -77.5t-71 -77q-26 -28 -38 -41l-399 -426h811v-57h-908z" />
    <glyph glyph-name="three.lf" horiz-adv-x="1130" 
d="M541 844q217 0 349 -116.5t132 -307.5q0 -198 -137.5 -319t-364.5 -121q-142 0 -251 46.5t-173 137.5l31 51q127 -178 387 -178q196 0 315 105.5t119 277.5q0 166 -118 266t-312 100q-146 0 -252 -53l-18 37l641 688h-744v58h840v-46l-604 -645q74 19 160 19z" />
    <glyph glyph-name="four.lf" horiz-adv-x="1204" 
d="M829 0v350h-780v60l787 1106h61v-1106h244v-60h-244v-350h-68zM123 408h708l3 997z" />
    <glyph glyph-name="five.lf" horiz-adv-x="1136" 
d="M516 -20q-281 0 -426 145l21 55q140 -143 399 -143q201 0 323.5 109t122.5 288q0 175 -111 283t-294 108q-160 0 -322 -51l-49 8l105 734h678v-58h-615l-92 -618q155 45 307 45q210 0 337.5 -124t127.5 -327t-142 -328.5t-370 -125.5z" />
    <glyph glyph-name="six.lf" horiz-adv-x="1114" 
d="M575 909q204 0 330.5 -128t126.5 -337q0 -210 -128 -337t-339 -127t-339 126.5t-128 335.5q0 164 88 295l514 779h80l-450 -672q106 65 245 65zM565 37q179 0 287.5 111.5t108.5 295.5q0 183 -109 295.5t-287 112.5q-177 0 -285 -112.5t-108 -295.5q0 -184 108 -295.5
t285 -111.5z" />
    <glyph glyph-name="seven.lf" horiz-adv-x="999" 
d="M41 1516h917l-559 -1516h-75l544 1458h-827v58z" />
    <glyph glyph-name="eight.lf" horiz-adv-x="1189" 
d="M752 786q144 -39 227.5 -142.5t83.5 -252.5q0 -184 -129 -297.5t-338 -113.5q-210 0 -338.5 113t-128.5 296q0 150 82.5 254t228.5 143q-127 37 -198.5 133t-71.5 230q0 174 117 280.5t309 106.5q191 0 308.5 -106t117.5 -279q0 -135 -72 -231.5t-198 -133.5zM242 1145
q0 -149 97 -240.5t257 -91.5q158 0 255 91.5t97 240.5t-97 241.5t-255 92.5q-159 0 -256.5 -92t-97.5 -242zM596 37q177 0 285 98.5t108 259.5q0 162 -108 261.5t-285 99.5q-178 0 -286.5 -99.5t-108.5 -261.5q0 -161 108.5 -259.5t286.5 -98.5z" />
    <glyph glyph-name="nine.lf" horiz-adv-x="1114" 
d="M549 1536q211 0 339 -127t128 -336q0 -164 -88 -295l-514 -778h-80l450 672q-107 -66 -245 -66q-204 0 -330.5 128t-126.5 337q0 211 128 338t339 127zM549 664q177 0 285 112t108 295q0 184 -108 296t-285 112q-179 0 -287 -112t-108 -296q0 -183 108.5 -295t286.5 -112
z" />
    <glyph glyph-name="zero.osf" horiz-adv-x="1314" 
d="M657 -20q-244 0 -393 180.5t-149 476.5q0 295 149 476t393 181t393.5 -181t149.5 -476q0 -296 -149 -476.5t-394 -180.5zM657 35q214 0 345 165.5t131 436.5q0 270 -131 436t-345 166t-345.5 -166t-131.5 -436q0 -271 131.5 -436.5t345.5 -165.5z" />
    <glyph glyph-name="one.osf" horiz-adv-x="651" 
d="M369 0v1221h-287v53h348v-1274h-61z" />
    <glyph glyph-name="two.osf" horiz-adv-x="1142" 
d="M119 0v45l487 375q54 42 86 68.5t85.5 79.5t84 98t54.5 108.5t24 126.5q0 152 -102 245t-269 93q-168 0 -271 -96.5t-103 -253.5l-64 4q0 180 120 290.5t318 110.5q195 0 315 -107t120 -280q0 -52 -13.5 -103t-32.5 -92.5t-52.5 -85t-61.5 -74t-71.5 -68.5t-71 -59
t-70.5 -54l-414 -318h809v-53h-907z" />
    <glyph glyph-name="three.osf" horiz-adv-x="1159" 
d="M559 618q214 0 344.5 -112.5t130.5 -298.5q0 -195 -135 -313.5t-358 -118.5q-142 0 -252 46.5t-172 135.5l28 51q123 -180 390 -180q195 0 314.5 104t119.5 273q0 163 -118.5 262.5t-313.5 99.5q-142 0 -250 -57l-19 37l652 674h-754v53h838v-45l-605 -627q63 16 160 16z
" />
    <glyph glyph-name="four.osf" horiz-adv-x="1193" 
d="M836 -225v225h-789v55l789 1219h61v-1221h242v-53h-242v-225h-61zM117 53h721v1112z" />
    <glyph glyph-name="five.osf" horiz-adv-x="1146" 
d="M516 -225q-281 0 -426 145l19 51q140 -143 401 -143q201 0 323.5 108t122.5 283q0 172 -111 277.5t-294 105.5q-150 0 -322 -51l-49 8l105 715h678v-53h-621l-92 -609q158 45 313 45q205 0 332 -120.5t127 -315.5q0 -199 -140.5 -322.5t-365.5 -123.5z" />
    <glyph glyph-name="six.osf" horiz-adv-x="1105" 
d="M569 909q204 0 328.5 -128t124.5 -337q0 -210 -126.5 -337t-334.5 -127q-207 0 -334 126.5t-127 335.5q0 171 88 299l514 775h74l-450 -674q104 67 243 67zM561 37q177 0 285 111.5t108 295.5q0 183 -108 295.5t-285 112.5q-178 0 -286.5 -112.5t-108.5 -295.5
q0 -184 108 -295.5t287 -111.5z" />
    <glyph glyph-name="seven.osf" horiz-adv-x="1071" 
d="M84 1274h917l-544 -1485l-62 18l520 1414h-831v53z" />
    <glyph glyph-name="eight.osf" horiz-adv-x="1177" 
d="M741 786q143 -39 225.5 -142.5t82.5 -252.5q0 -185 -127 -298t-334 -113q-205 0 -332 113t-127 296q0 149 82 253.5t223 143.5q-123 37 -193.5 133t-70.5 230q0 173 115.5 280t302.5 107q189 0 304.5 -106t115.5 -279q0 -135 -71.5 -231.5t-195.5 -133.5zM236 1145
q0 -149 97 -240.5t255 -91.5q160 0 257 91.5t97 240.5q0 150 -97.5 242t-256.5 92q-158 0 -255 -92.5t-97 -241.5zM588 37q178 0 286.5 98.5t108.5 259.5q0 162 -108.5 261.5t-286.5 99.5q-177 0 -285 -99.5t-108 -261.5q0 -161 108 -259.5t285 -98.5z" />
    <glyph glyph-name="nine.osf" horiz-adv-x="1112" 
d="M545 1294q207 0 334 -128t127 -335q0 -171 -88 -299l-494 -743l-62 18l418 625q-104 -67 -243 -67q-204 0 -328.5 127.5t-124.5 336.5t127 337t334 128zM545 420q177 0 285 112.5t108 296.5q0 183 -108 294.5t-285 111.5q-178 0 -286.5 -111.5t-108.5 -294.5
q0 -185 108.5 -297t286.5 -112z" />
    <glyph glyph-name="zero.tf" 
d="M631 -20q-207 0 -334 214t-127 564t127 564t334 214t333 -214t126 -564t-126 -564t-333 -214zM631 37q115 0 203.5 89.5t137 253.5t48.5 378t-48.5 378t-137 253.5t-203.5 89.5q-117 0 -205.5 -90t-137 -253.5t-48.5 -377.5t48.5 -377.5t137 -253.5t205.5 -90z" />
    <glyph glyph-name="one.tf" 
d="M756 57h317v-57h-862v57h475v1401h-364v58h434v-1459z" />
    <glyph glyph-name="two.tf" 
d="M172 0v45l453 485q11 12 56 60t63 68t58 68t59.5 77t48 76.5t42 85.5t24.5 85t11 93q0 156 -99 246t-265 90t-266.5 -96t-100.5 -253l-72 5q0 180 120.5 290.5t318.5 110.5q196 0 315 -105t119 -282q0 -52 -12 -105t-28 -96t-48.5 -96t-55.5 -86.5t-68.5 -87t-67.5 -77.5
t-71 -77q-26 -28 -38 -41l-400 -426h811v-57h-907z" />
    <glyph glyph-name="three.tf" 
d="M604 844q217 0 349 -116.5t132 -307.5q0 -198 -137 -319t-362 -121q-142 0 -252 46.5t-172 137.5l31 51q124 -178 387 -178q195 0 314.5 105.5t119.5 277.5q0 166 -118.5 266t-313.5 100q-144 0 -250 -53l-19 37l641 688h-743v58h838v-46l-603 -645q71 19 158 19z" />
    <glyph glyph-name="four.tf" 
d="M844 0v350h-756v60l762 1106h61v-1108h244v-58h-244v-350h-67zM160 406h686l2 997z" />
    <glyph glyph-name="five.tf" 
d="M578 -20q-282 0 -424 145l20 55q137 -143 397 -143q201 0 324 109t123 288q0 175 -111.5 283t-292.5 108q-161 0 -323 -51l-47 8l104 734h676v-58h-614l-93 -618q155 45 308 45q210 0 338.5 -124t128.5 -327q0 -204 -142.5 -329t-371.5 -125z" />
    <glyph glyph-name="six.tf" 
d="M645 909q206 0 332.5 -128t126.5 -337q0 -210 -128 -337t-339 -127t-339 126.5t-128 335.5q0 168 88 295l514 779h80l-451 -672q106 65 244 65zM637 37q179 0 287 111.5t108 295.5q0 183 -108.5 295.5t-286.5 112.5q-177 0 -285 -112.5t-108 -295.5q0 -184 108 -295.5
t285 -111.5z" />
    <glyph glyph-name="seven.tf" 
d="M172 1516h918l-562 -1516h-75l544 1458h-825v58z" />
    <glyph glyph-name="eight.tf" 
d="M784 786q146 -39 229 -142.5t83 -252.5q0 -185 -128.5 -298t-338.5 -113t-338.5 113t-128.5 296q0 150 82.5 254t228.5 143q-127 37 -198.5 133t-71.5 230q0 174 117 280.5t309 106.5t309 -106t117 -279q0 -136 -72 -232t-199 -133zM276 1145q0 -149 97.5 -240.5
t255.5 -91.5q160 0 257 91.5t97 240.5q0 150 -97.5 242t-256.5 92q-158 0 -255.5 -92.5t-97.5 -241.5zM629 37q178 0 286.5 98.5t108.5 259.5q0 162 -108.5 261.5t-286.5 99.5q-177 0 -285 -99.5t-108 -261.5q0 -161 108 -259.5t285 -98.5z" />
    <glyph glyph-name="nine.tf" 
d="M621 1536q211 0 338.5 -127t127.5 -336q0 -164 -88 -295l-514 -778h-79l450 672q-107 -66 -246 -66q-204 0 -330 128t-126 337q0 211 128 338t339 127zM621 664q177 0 285 112t108 295q0 184 -108 296t-285 112q-179 0 -287.5 -112t-108.5 -296q0 -183 109 -295t287 -112
z" />
    <glyph glyph-name="zero.tosf" 
d="M631 -20q-206 0 -331.5 180.5t-125.5 476.5q0 295 126 476t331 181q204 0 329 -181t125 -476q0 -296 -125 -476.5t-329 -180.5zM631 35q175 0 282 165.5t107 436.5q0 270 -107 436t-282 166q-177 0 -284 -165.5t-107 -436.5q0 -272 107 -437t284 -165z" />
    <glyph glyph-name="one.tosf" 
d="M760 53h321v-53h-862v53h479v1168h-348v53h410v-1221z" />
    <glyph glyph-name="two.tosf" 
d="M176 0v45l486 375q43 33 71 56t73 63t74 77t58.5 83t44 97.5t14.5 104.5q0 152 -101.5 245t-268.5 93q-169 0 -272 -96.5t-103 -253.5l-64 4q0 180 120.5 290.5t318.5 110.5q195 0 314.5 -107t119.5 -280q0 -52 -13.5 -103t-32.5 -92.5t-52.5 -85t-61.5 -74t-71.5 -68.5
t-71 -59t-70.5 -54l-414 -318h809v-53h-907z" />
    <glyph glyph-name="three.tosf" 
d="M608 618q214 0 344.5 -112.5t130.5 -298.5q0 -195 -135 -313.5t-358 -118.5q-141 0 -250.5 46t-173.5 136l29 51q123 -180 389 -180q196 0 315 104t119 273q0 163 -118.5 262.5t-313.5 99.5q-142 0 -250 -57l-19 37l652 674h-754v53h840v-45l-606 -627q63 16 159 16z" />
    <glyph glyph-name="four.tosf" 
d="M856 -225v225h-762v55l762 1219h62v-1221h243v-53h-243v-225h-62zM160 53h700v1112z" />
    <glyph glyph-name="five.tosf" 
d="M571 -225q-282 0 -424 145l19 51q70 -71 174 -107t225 -36q201 0 324 108t123 283q0 172 -111.5 277.5t-292.5 105.5q-148 0 -323 -51l-47 8l104 715h676v-53h-619l-94 -609q158 45 316 45q205 0 331.5 -120.5t126.5 -315.5q0 -199 -141 -322.5t-367 -123.5z" />
    <glyph glyph-name="six.tosf" 
d="M647 909q204 0 328.5 -128t124.5 -337q0 -210 -126.5 -337t-334.5 -127q-207 0 -334 126.5t-127 335.5q0 171 88 299l514 775h74l-451 -674q104 67 244 67zM639 37q177 0 285 111.5t108 295.5q0 183 -108 295.5t-285 112.5q-178 0 -286.5 -112.5t-108.5 -295.5
q0 -184 108 -295.5t287 -111.5z" />
    <glyph glyph-name="seven.tosf" 
d="M178 1274h918l-545 -1485l-62 18l523 1414h-834v53z" />
    <glyph glyph-name="eight.tosf" 
d="M782 786q143 -39 225.5 -142.5t82.5 -252.5q0 -185 -127 -298t-334 -113t-334 113t-127 296q0 149 82 253.5t225 143.5q-124 37 -195 133t-71 230q0 173 115.5 280t304.5 107t304.5 -106t115.5 -279q0 -135 -71.5 -231.5t-195.5 -133.5zM276 1145q0 -149 97.5 -240.5
t255.5 -91.5q160 0 257 91.5t97 240.5q0 150 -97.5 242t-256.5 92q-158 0 -255.5 -92.5t-97.5 -241.5zM629 37q178 0 286.5 98.5t108.5 259.5q0 162 -108.5 261.5t-286.5 99.5q-177 0 -285 -99.5t-108 -261.5q0 -161 108 -259.5t285 -98.5z" />
    <glyph glyph-name="nine.tosf" 
d="M618 1294q207 0 334 -128t127 -335q0 -175 -88 -299l-491 -743l-64 18l418 623q-106 -65 -244 -65q-203 0 -327.5 127.5t-124.5 336.5t127 337t333 128zM618 420q179 0 287.5 112.5t108.5 296.5q0 183 -109 294.5t-287 111.5q-177 0 -285 -111.5t-108 -294.5
q0 -184 108 -296.5t285 -112.5z" />
    <glyph glyph-name="zero.dnom" horiz-adv-x="776" 
d="M389 -12q-140 0 -225.5 128.5t-85.5 338.5t85.5 338.5t225.5 128.5q139 0 224 -128t85 -339t-85 -339t-224 -128zM389 39q113 0 182.5 114.5t69.5 301.5t-69.5 302t-182.5 115q-114 0 -183 -114.5t-69 -302.5t69 -302t183 -114z" />
    <glyph glyph-name="one.dnom" horiz-adv-x="415" 
d="M213 0v860h-178v49h235v-909h-57z" />
    <glyph glyph-name="two.dnom" horiz-adv-x="704" 
d="M72 0v39l272 293q2 2 31.5 33.5t36.5 39.5t33 38t35 45t27.5 43.5t25.5 49.5t13.5 48t6.5 53q0 89 -55.5 139.5t-149.5 50.5t-151.5 -54.5t-57.5 -143.5l-57 4q0 111 72.5 177.5t193.5 66.5q119 0 192.5 -63.5t73.5 -170.5q0 -53 -17.5 -104t-54 -103t-64.5 -84.5
t-78 -85.5l-6 -6t-5 -5.5t-6 -6.5l-229 -244l473 2v-51h-555z" />
    <glyph glyph-name="three.dnom" horiz-adv-x="704" 
d="M340 512q130 0 209.5 -70t79.5 -186q0 -121 -83.5 -194.5t-221.5 -73.5q-181 0 -258 106l24 45q73 -100 225 -100q116 0 184 58.5t68 158.5q0 94 -67.5 151.5t-177.5 57.5q-81 0 -148 -31l-18 31l366 395h-424v49h506v-37l-344 -366q38 6 80 6z" />
    <glyph glyph-name="four.dnom" horiz-adv-x="753" 
d="M504 0v207h-463v45l469 657h51v-653h141v-49h-141v-207h-57zM100 254h406v565z" />
    <glyph glyph-name="five.dnom" horiz-adv-x="712" 
d="M322 -12q-171 0 -259 88l17 45q79 -82 235 -82q117 0 187.5 61t70.5 164q0 100 -62.5 160.5t-166.5 60.5q-92 0 -184 -30l-41 6l61 448h416v-49h-363l-51 -348q102 25 172 25q127 0 205 -74.5t78 -196.5q0 -124 -87.5 -201t-227.5 -77z" />
    <glyph glyph-name="six.dnom" horiz-adv-x="700" 
d="M362 547q124 0 200.5 -76.5t76.5 -202.5q0 -127 -78.5 -203.5t-206.5 -76.5q-129 0 -207.5 76t-78.5 202q0 101 59 189l301 454h68l-267 -391q63 29 133 29zM354 39q101 0 162.5 62.5t61.5 166.5t-61.5 168t-162.5 64q-100 0 -162.5 -64t-62.5 -168t62.5 -166.5
t162.5 -62.5z" />
    <glyph glyph-name="seven.dnom" horiz-adv-x="628" 
d="M35 909h559l-332 -909h-63l317 860h-481v49z" />
    <glyph glyph-name="eight.dnom" horiz-adv-x="747" 
d="M479 471q84 -25 131 -85.5t47 -147.5q0 -113 -77.5 -181.5t-204.5 -68.5q-129 0 -208 68t-79 182q0 87 48 147.5t132 85.5q-73 25 -114 81.5t-41 133.5q0 106 72 171t190 65q117 0 187.5 -64t70.5 -170q0 -78 -41 -135t-113 -82zM174 684q0 -85 55 -136.5t146 -51.5
q88 0 143 52t55 136t-55 136t-143 52q-91 0 -146 -51.5t-55 -136.5zM375 39q100 0 161.5 54.5t61.5 146.5t-61.5 149t-161.5 57q-101 0 -163 -57t-62 -149t61.5 -146.5t163.5 -54.5z" />
    <glyph glyph-name="nine.dnom" horiz-adv-x="700" 
d="M346 922q129 0 208 -76.5t79 -202.5q0 -99 -60 -188l-301 -455h-67l266 391q-63 -29 -133 -29q-124 0 -200.5 77t-76.5 202q0 127 78.5 204t206.5 77zM123 641q0 -104 61 -167.5t162 -63.5q100 0 162.5 63.5t62.5 167.5t-62.5 166.5t-162.5 62.5q-101 0 -162 -62.5
t-61 -166.5z" />
    <glyph glyph-name="zero.numr" horiz-adv-x="776" 
d="M389 594q-140 0 -225.5 128.5t-85.5 338.5t85.5 338.5t225.5 128.5q139 0 224 -128t85 -339t-85 -339t-224 -128zM389 645q113 0 182.5 114.5t69.5 301.5t-69.5 302.5t-182.5 115.5q-114 0 -183 -115t-69 -303t69 -302t183 -114z" />
    <glyph glyph-name="one.numr" horiz-adv-x="415" 
d="M213 606v860h-178v50h235v-910h-57z" />
    <glyph glyph-name="two.numr" horiz-adv-x="704" 
d="M72 606v39l272 293q2 2 31.5 33.5t36.5 39.5t33 38t35 45t27.5 43.5t25.5 49.5t13.5 48t6.5 53q0 89 -55.5 140t-149.5 51t-151.5 -55t-57.5 -144l-57 4q0 111 72.5 177.5t193.5 66.5q119 0 192.5 -63.5t73.5 -170.5q0 -53 -17.5 -104t-54 -103t-64.5 -84.5t-78 -85.5
l-6 -6t-5 -5.5t-6 -6.5l-229 -244l473 2v-51h-555z" />
    <glyph glyph-name="three.numr" horiz-adv-x="704" 
d="M340 1118q130 0 209.5 -70t79.5 -186q0 -121 -83.5 -194.5t-221.5 -73.5q-181 0 -258 106l24 45q73 -100 225 -100q116 0 184 58.5t68 158.5q0 94 -67.5 151.5t-177.5 57.5q-81 0 -148 -31l-18 31l366 395h-424v50h506v-37l-344 -367q37 6 80 6z" />
    <glyph glyph-name="four.numr" horiz-adv-x="753" 
d="M504 606v207h-463v45l469 658h51v-654h141v-49h-141v-207h-57zM100 860h406v565z" />
    <glyph glyph-name="five.numr" horiz-adv-x="712" 
d="M322 594q-171 0 -259 88l17 45q79 -82 235 -82q117 0 187.5 61t70.5 164q0 100 -62.5 161t-166.5 61q-89 0 -184 -31l-41 6l61 449h416v-50h-363l-51 -348q102 25 172 25q127 0 205 -74.5t78 -196.5q0 -124 -87.5 -201t-227.5 -77z" />
    <glyph glyph-name="six.numr" horiz-adv-x="700" 
d="M362 1153q124 0 200.5 -76.5t76.5 -202.5q0 -127 -78.5 -203.5t-206.5 -76.5q-129 0 -207.5 76t-78.5 202q0 101 59 189l301 455h68l-267 -392q63 29 133 29zM354 645q101 0 162.5 62.5t61.5 166.5t-61.5 168t-162.5 64q-100 0 -162.5 -64t-62.5 -168t62.5 -166.5
t162.5 -62.5z" />
    <glyph glyph-name="seven.numr" horiz-adv-x="628" 
d="M35 1516h559l-332 -910h-63l317 860h-481v50z" />
    <glyph glyph-name="eight.numr" horiz-adv-x="747" 
d="M479 1077q84 -25 131 -85.5t47 -147.5q0 -113 -77.5 -181.5t-204.5 -68.5q-129 0 -208 68t-79 182q0 87 48 147.5t132 85.5q-73 25 -114 81.5t-41 133.5q0 106 72 171t190 65q117 0 187.5 -64t70.5 -170q0 -78 -41 -135t-113 -82zM174 1290q0 -85 55 -136.5t146 -51.5
q88 0 143 52t55 136q0 85 -55 137t-143 52q-91 0 -146 -52t-55 -137zM375 645q100 0 161.5 54.5t61.5 146.5t-61.5 149.5t-161.5 57.5q-101 0 -163 -57.5t-62 -149.5t61.5 -146.5t163.5 -54.5z" />
    <glyph glyph-name="nine.numr" horiz-adv-x="700" 
d="M346 1528q129 0 208 -76.5t79 -202.5q0 -99 -60 -188l-301 -455h-67l266 391q-61 -28 -133 -28q-124 0 -200.5 76.5t-76.5 201.5q0 127 78.5 204t206.5 77zM123 1247q0 -104 61 -167.5t162 -63.5q100 0 162.5 63.5t62.5 167.5t-62.5 167t-162.5 63q-101 0 -162 -63
t-61 -167z" />
    <glyph glyph-name="exclamdown.case" horiz-adv-x="509" 
d="M254 1536q23 0 40 -16t17 -39t-17 -39.5t-40 -16.5t-39 16.5t-16 39.5t16 39t39 16zM225 1251h60l6 -1251h-72z" />
    <glyph glyph-name="questiondown.case" horiz-adv-x="1024" 
d="M537 1536q23 0 39 -16t16 -39t-16 -39.5t-39 -16.5t-39.5 16.5t-16.5 39.5t16.5 39t39.5 16zM565 1251q0 -83 -8.5 -154.5t-21 -123.5t-34.5 -99.5t-41 -78t-49 -63t-50 -50t-52 -43.5q-41 -34 -61.5 -54t-46 -54t-36.5 -75t-11 -94q0 -146 100 -235.5t266 -89.5
q160 0 261.5 89.5t105.5 235.5l65 -4q-5 -169 -124 -273.5t-308 -104.5q-197 0 -317.5 103t-120.5 271q0 51 10 94.5t23.5 73t40.5 62t46.5 50t55.5 48.5q34 29 51.5 45t48.5 49t48 60.5t39.5 72.5t34 91.5t20 111.5t8.5 139h57z" />
    <glyph glyph-name="slash.case" horiz-adv-x="686" 
d="M104 0l412 1516h64l-412 -1516h-64z" />
    <glyph glyph-name="braceleft.case" horiz-adv-x="800" 
d="M532 -102q-113 0 -181 75t-68 199v272q0 128 -49.5 206.5t-131.5 78.5h-18v57h18q82 0 131.5 78.5t49.5 206.5v275q0 123 68 197.5t181 74.5q97 0 189 -25v-57q-98 25 -184 25q-83 0 -135 -63t-52 -165v-270q0 -117 -41 -201t-108 -104q67 -20 108 -104t41 -201v-271
q0 -102 51.5 -164.5t135.5 -62.5q86 0 184 25v-58q-89 -24 -189 -24z" />
    <glyph glyph-name="braceright.case" horiz-adv-x="800" 
d="M268 -102q-96 0 -188 24v58q98 -25 186 -25q83 0 134 62t51 165v271q0 116 41.5 200.5t107.5 104.5q-66 20 -107.5 104.5t-41.5 200.5v270q0 103 -51 165.5t-134 62.5q-88 0 -186 -25v57q95 25 188 25q114 0 182 -74.5t68 -197.5v-275q0 -127 50 -206t130 -79h21v-57h-21
q-80 0 -130 -79t-50 -206v-272q0 -125 -68 -199.5t-182 -74.5z" />
    <glyph glyph-name="bracketleft.case" horiz-adv-x="716" 
d="M225 -82v1679h414v-53h-352v-1571h352v-55h-414z" />
    <glyph glyph-name="bracketright.case" horiz-adv-x="716" 
d="M492 -82h-416v55h354v1571h-354v53h416v-1679z" />
    <glyph glyph-name="parenleft.case" horiz-adv-x="563" 
d="M428 -82q-59 78 -105.5 154.5t-95 183t-75.5 235.5t-27 267t27 267t75.5 235t95 182.5t105.5 154.5h55q-44 -62 -89 -144.5t-92.5 -193.5t-77 -243.5t-29.5 -257.5t29.5 -258t77 -244t92.5 -193.5t89 -144.5h-55z" />
    <glyph glyph-name="parenright.case" horiz-adv-x="563" 
d="M80 -82q44 62 89 144.5t92.5 193.5t77.5 244t30 258t-30 257.5t-77.5 243.5t-92.5 193.5t-89 144.5h55q59 -78 105.5 -154.5t95 -182.5t75.5 -235t27 -267t-27 -267t-75.5 -235.5t-95 -183t-105.5 -154.5h-55z" />
    <glyph glyph-name="logo" horiz-adv-x="2609" 
d="M156 -20q-15 0 -25 10.5t-10 25.5q0 21 10 31l700 698h-663q-47 0 -47 39q0 16 14 33l696 701h-669q-41 0 -41 38v3q0 38 41 38h758q47 0 47 -41q0 -20 -17 -34l-698 -697h676q17 0 29 -12t12 -29v-669l694 692q13 16 35 16q37 0 37 -45v-663l696 692q13 16 33 16
q15 0 25 -12t10 -27q0 -18 -13 -28l-753 -762q-14 -14 -35 -14q-41 0 -41 47v663l-694 -696q-14 -14 -35 -14q-41 0 -41 47v663l-697 -696q-14 -14 -34 -14z" />
    </font>
</defs>
</svg>
