<?xml version="1.0" standalone="no"?>
<!DOCTYPE svg PUBLIC "-//W3C//DTD SVG 1.1//EN" "http://www.w3.org/Graphics/SVG/1.1/DTD/svg11.dtd" >
<svg xmlns="http://www.w3.org/2000/svg" xmlns:xlink="http://www.w3.org/1999/xlink" version="1.1">
<metadata>
Created by FontForge 20170731 at Thu Dec  2 10:15:25 2021
 By Aleksey,,,
Copyright (c) 2016 by Alberto Romanos. All rights reserved.
</metadata>
<defs>
<font id="BwModelicaSS02-ExtraBoldItalic" horiz-adv-x="1259" >
  <font-face 
    font-family="Bw Modelica SS02 ExtraBold"
    font-weight="800"
    font-style="italic"
    font-stretch="normal"
    units-per-em="2048"
    panose-1="0 0 9 0 0 0 0 0 0 0"
    ascent="1597"
    descent="-451"
    x-height="1116"
    cap-height="1516"
    bbox="-1827 -471 2628 2089"
    underline-thickness="102"
    underline-position="-307"
    slope="-10"
    unicode-range="U+000D-FB02"
  />
<missing-glyph horiz-adv-x="2609" 
d="M242 -20q-15 0 -25 10.5t-10 25.5q0 21 10 31l701 698h-664q-47 0 -47 39q0 16 14 33l697 701h-670q-41 0 -41 38v3q0 38 41 38h758q47 0 47 -41q0 -20 -17 -34l-698 -697h676q17 0 29 -12t12 -29v-669l694 692q13 16 35 16q37 0 37 -45v-663l696 692q13 16 33 16
q15 0 25 -12t10 -27q0 -18 -13 -28l-753 -762q-14 -14 -35 -14q-41 0 -41 47v663l-694 -696q-14 -14 -35 -14q-41 0 -41 47v663l-697 -696q-14 -14 -34 -14z" />
    <glyph glyph-name="fi" unicode="fi" horiz-adv-x="1466" 
d="M1321 1647q83 0 133.5 -50t50.5 -129q0 -95 -61 -159t-156 -64q-84 0 -135 49.5t-51 128.5q0 95 61.5 159.5t157.5 64.5zM911 1116l-49 -285h-252l-147 -831h-348l147 831h-174l49 285h174l86 481h621l-49 -284h-275l-35 -197h252zM877 0l198 1116h348l-198 -1116h-348z
" />
    <glyph glyph-name="fl" unicode="fl" horiz-adv-x="1570" 
d="M911 1116l-49 -285h-252l-147 -831h-348l147 831h-174l49 285h174l86 481h621l-49 -284h-275l-35 -197h252zM1507 1597l-231 -1310h197l-54 -287h-542l282 1597h348z" />
    <glyph glyph-name=".notdef" horiz-adv-x="2609" 
d="M242 -20q-15 0 -25 10.5t-10 25.5q0 21 10 31l701 698h-664q-47 0 -47 39q0 16 14 33l697 701h-670q-41 0 -41 38v3q0 38 41 38h758q47 0 47 -41q0 -20 -17 -34l-698 -697h676q17 0 29 -12t12 -29v-669l694 692q13 16 35 16q37 0 37 -45v-663l696 692q13 16 33 16
q15 0 25 -12t10 -27q0 -18 -13 -28l-753 -762q-14 -14 -35 -14q-41 0 -41 47v663l-694 -696q-14 -14 -35 -14q-41 0 -41 47v663l-697 -696q-14 -14 -34 -14z" />
    <glyph glyph-name=".null" horiz-adv-x="0" 
 />
    <glyph glyph-name="nonmarkingreturn" horiz-adv-x="682" 
 />
    <glyph glyph-name="CR" unicode="&#xd;" horiz-adv-x="415" 
 />
    <glyph glyph-name="space" unicode=" " horiz-adv-x="489" 
 />
    <glyph glyph-name="exclam" unicode="!" horiz-adv-x="624" 
d="M137 502l148 1014h362l-213 -1014h-297zM215 -20q-84 0 -135 50.5t-51 129.5q0 94 62 158.5t157 64.5q82 0 133 -50.5t51 -129.5q0 -95 -61 -159t-156 -64z" />
    <glyph glyph-name="quotedbl" unicode="&#x22;" horiz-adv-x="901" 
d="M199 1155l71 442h275l-86 -442h-260zM616 1155l72 442h275l-86 -442h-261z" />
    <glyph glyph-name="numbersign" unicode="#" horiz-adv-x="1605" 
d="M1516 846h-254l-109 -266h256l-96 -226h-252l-146 -354h-251l145 354h-289l-145 -354h-252l145 354h-250l99 226h243l109 266h-246l92 225h246l148 363h252l-148 -363h289l147 363h252l-147 -363h254zM901 580l109 266h-289l-109 -266h289z" />
    <glyph glyph-name="dollar" unicode="$" horiz-adv-x="1368" 
d="M846 918q67 -20 124.5 -44.5t113.5 -61.5t95 -81t63 -104t24 -129q0 -190 -140 -325.5t-360 -176.5l-31 -180h-360l33 184q-214 47 -351 184l156 228q161 -136 393 -136q122 0 202.5 43.5t80.5 118.5q0 54 -55.5 86.5t-178.5 69.5l-75 22q-92 28 -159 59.5t-123 76
t-85 105.5t-29 138q0 202 137 344t357 183l31 178h358l-33 -187q178 -41 312 -157l-181 -236q-142 119 -334 119q-113 0 -191.5 -44.5t-78.5 -113.5q0 -52 50 -81t161 -62z" />
    <glyph glyph-name="percent" unicode="%" horiz-adv-x="1873" 
d="M526 825q-171 0 -269.5 84t-98.5 226q0 180 130 290.5t324 110.5q169 0 267 -83t98 -222q0 -181 -128.5 -293.5t-322.5 -112.5zM473 -20l-170 110l1137 1446l172 -109zM557 1047q62 0 103.5 48t41.5 109q0 55 -31 83t-87 28q-64 0 -107 -48t-43 -110q0 -54 32 -82t91 -28
zM1305 -20q-170 0 -268.5 83.5t-98.5 225.5q0 120 61 212.5t163.5 140.5t228.5 48q169 0 266.5 -83t97.5 -222q0 -181 -128 -293t-322 -112zM1335 201q62 0 104 48t42 109q0 55 -31.5 83t-87.5 28q-64 0 -107 -48t-43 -110q0 -54 32 -82t91 -28z" />
    <glyph glyph-name="ampersand" unicode="&#x26;" horiz-adv-x="1581" 
d="M1196 678l-43 -264q-6 -21 -6 -39q0 -46 27 -71t77 -25q96 0 183 40l-33 -290q-118 -49 -289 -49q-97 0 -169.5 37t-111.5 104q-167 -141 -374 -141q-191 0 -305.5 103t-114.5 273q0 167 94 287.5t254 183.5q-139 100 -139 265q0 137 80 239.5t209 153.5t286 51
q212 0 336.5 -97t124.5 -255q0 -32 -6 -70l-29 -164h289l-47 -272h-293zM788 1239q-81 0 -137.5 -50.5t-56.5 -121.5q0 -56 34 -86.5t99 -30.5h172l27 154q2 14 2 33q0 50 -37 76t-103 26zM571 279q92 0 159.5 56t88.5 167l29 176h-150q-120 0 -208.5 -73.5t-88.5 -172.5
q0 -72 46 -112.5t124 -40.5z" />
    <glyph glyph-name="quotesingle" unicode="'" horiz-adv-x="483" 
d="M199 1155l71 442h275l-86 -442h-260z" />
    <glyph glyph-name="parenleft" unicode="(" horiz-adv-x="735" 
d="M207 -369q-160 353 -160 711q0 335 135 659t363 596h327q-475 -653 -475 -1339q0 -334 121 -627h-311z" />
    <glyph glyph-name="parenright" unicode=")" horiz-adv-x="733" 
d="M-152 -369q229 308 354.5 646t125.5 692q0 326 -119 628h307q160 -342 160 -714q0 -651 -496 -1252h-332z" />
    <glyph glyph-name="asterisk" unicode="*" horiz-adv-x="811" 
d="M821 1206l-164 -47l80 -125l-186 -125l-72 133l-110 -133l-158 125l119 129l-146 43l101 203l145 -55l23 162h213l-33 -162l158 55z" />
    <glyph glyph-name="plus" unicode="+" horiz-adv-x="1169" 
d="M1130 864l-51 -284h-331l-62 -351h-348l61 351h-336l52 284h334l61 350h348l-61 -350h333z" />
    <glyph glyph-name="comma" unicode="," horiz-adv-x="659" 
d="M-152 -297l254 614h404l-301 -614h-357z" />
    <glyph glyph-name="hyphen" unicode="-" horiz-adv-x="1028" 
d="M88 473l43 248h793l-45 -248h-791z" />
    <glyph glyph-name="period" unicode="." horiz-adv-x="600" 
d="M207 -20q-87 0 -144 59t-57 147q0 100 68 167t172 67q87 0 143.5 -59.5t56.5 -147.5q0 -100 -67.5 -166.5t-171.5 -66.5z" />
    <glyph glyph-name="slash" unicode="/" horiz-adv-x="991" 
d="M-78 -205l807 1802h356l-806 -1802h-357z" />
    <glyph glyph-name="zero" unicode="0" horiz-adv-x="1347" 
d="M590 -20q-233 0 -366.5 160.5t-133.5 432.5q0 123 24.5 243.5t68.5 227t110 197t146 156t178.5 102.5t205.5 37q231 0 363.5 -159.5t132.5 -430.5q0 -149 -33.5 -292t-98 -264.5t-152 -213.5t-202.5 -144t-243 -52zM623 276q73 0 137 64.5t104 164.5t63 214.5t23 220.5
q0 140 -42.5 219.5t-121.5 79.5q-74 0 -138 -64.5t-104.5 -164t-63.5 -213.5t-23 -219q0 -140 43.5 -221t122.5 -81z" />
    <glyph glyph-name="one" unicode="1" horiz-adv-x="794" 
d="M160 0l215 1219h-213l53 297h571l-268 -1516h-358z" />
    <glyph glyph-name="two" unicode="2" horiz-adv-x="1241" 
d="M-37 0l39 225l604 545q38 34 58.5 53t62 63t65 77.5t43 77.5t19.5 81q0 54 -33.5 85.5t-93.5 31.5q-72 0 -127 -57.5t-70 -143.5l-352 58q35 203 193 321.5t385 118.5q214 0 338.5 -97t124.5 -261q0 -89 -31.5 -173.5t-94.5 -165.5t-136 -151.5t-175 -152.5l-295 -244
l600 6l-53 -297h-1071z" />
    <glyph glyph-name="three" unicode="3" horiz-adv-x="1208" 
d="M1190 1516l-39 -222l-395 -354q163 -22 255.5 -124.5t92.5 -260.5q0 -174 -90 -306t-243 -200.5t-345 -68.5q-145 0 -269.5 40.5t-193.5 106.5l164 246q50 -46 134.5 -71.5t180.5 -25.5q122 0 207.5 63.5t85.5 158.5q0 83 -57.5 128.5t-159.5 45.5q-100 0 -190 -56
l-76 189l424 414h-449l54 297h909z" />
    <glyph glyph-name="four" unicode="4" horiz-adv-x="1353" 
d="M606 0l47 274h-676l41 246l932 996h281l-164 -945h201l-54 -297h-200l-49 -274h-359zM383 561h334l80 457z" />
    <glyph glyph-name="five" unicode="5" horiz-adv-x="1234" 
d="M410 -20q-148 0 -266.5 36.5t-192.5 100.5l137 245q112 -86 322 -86q144 0 249 73t105 183q0 75 -45 115.5t-127 40.5q-63 0 -116 -26t-79 -64l-241 41l258 877h813l-51 -297h-502l-90 -246q66 12 108 12q200 0 322.5 -106.5t122.5 -280.5q0 -178 -100 -320.5
t-265.5 -220t-361.5 -77.5z" />
    <glyph glyph-name="six" unicode="6" horiz-adv-x="1234" 
d="M754 934q172 0 286.5 -103t114.5 -272q0 -123 -51.5 -231t-138.5 -184t-205.5 -120t-249.5 -44q-220 0 -347.5 106.5t-127.5 286.5q0 156 75 299.5t209 292.5l500 551h402l-551 -584q13 0 40.5 1t43.5 1zM561 276q95 0 156 71.5t61 164.5q0 69 -40 109.5t-109 40.5
q-94 0 -155.5 -69.5t-61.5 -166.5q0 -69 39.5 -109.5t109.5 -40.5z" />
    <glyph glyph-name="seven" unicode="7" horiz-adv-x="1140" 
d="M195 1516h1062l-763 -1516h-385l628 1219h-596z" />
    <glyph glyph-name="eight" unicode="8" horiz-adv-x="1280" 
d="M985 780q168 -105 168 -295q0 -152 -83.5 -268.5t-221.5 -176.5t-305 -60q-229 0 -362.5 106.5t-133.5 284.5q0 150 80 259.5t219 168.5q-137 95 -137 264q0 139 77.5 248t206.5 167t285 58q209 0 332 -100t123 -267q0 -135 -66.5 -234t-181.5 -155zM739 1239
q-71 0 -120.5 -58t-49.5 -130q0 -55 33 -86t92 -31q71 0 120.5 57.5t49.5 126.5q0 58 -32 89.5t-93 31.5zM578 276q89 0 152 66t63 152q0 66 -42.5 104.5t-115.5 38.5q-91 0 -153 -66.5t-62 -152.5q0 -68 42 -105t116 -37z" />
    <glyph glyph-name="nine" unicode="9" horiz-adv-x="1234" 
d="M762 1536q220 0 347.5 -106.5t127.5 -286.5q0 -155 -75.5 -299t-209.5 -293l-499 -551h-402l553 588q-54 -4 -86 -4q-173 0 -287 102t-114 272q0 163 87.5 296.5t235 207.5t322.5 74zM494 1004q0 -69 40 -109.5t109 -40.5q94 0 155.5 69.5t61.5 168.5q0 68 -39.5 107.5
t-109.5 39.5q-95 0 -156 -71t-61 -164z" />
    <glyph glyph-name="colon" unicode=":" horiz-adv-x="636" 
d="M346 698q-87 0 -144 58.5t-57 146.5q0 100 68 167t172 67q87 0 144 -58.5t57 -148.5q0 -100 -68 -166t-172 -66zM221 -20q-87 0 -144 59t-57 147q0 100 68 167t172 67q87 0 144 -59.5t57 -147.5q0 -100 -68 -166.5t-172 -66.5z" />
    <glyph glyph-name="semicolon" unicode=";" horiz-adv-x="692" 
d="M389 698q-87 0 -144 58.5t-57 146.5q0 100 68 167t170 67q89 0 145 -58.5t56 -148.5q0 -100 -67.5 -166t-170.5 -66zM-137 -297l254 614h403l-301 -614h-356z" />
    <glyph glyph-name="less" unicode="&#x3c;" horiz-adv-x="1232" 
d="M1006 160l-943 444l41 225l1098 447l-57 -326l-629 -233l545 -234z" />
    <glyph glyph-name="equal" unicode="=" horiz-adv-x="1269" 
d="M152 799l51 286h1016l-52 -286h-1015zM76 358l49 287h1016l-49 -287h-1016z" />
    <glyph glyph-name="greater" unicode="&#x3e;" horiz-adv-x="1230" 
d="M55 160l56 323l630 234l-546 233l57 326l940 -447l-39 -225z" />
    <glyph glyph-name="question" unicode="?" horiz-adv-x="1163" 
d="M690 489l-291 25q16 91 43 160.5t65.5 119t73 81t85.5 67.5q139 102 139 191q0 106 -137 106q-69 0 -122.5 -41.5t-70.5 -107.5l-323 38q42 189 191.5 298.5t358.5 109.5q218 0 346 -99t128 -263q0 -68 -15 -121.5t-48.5 -98.5t-73.5 -80t-103 -79q-44 -31 -68.5 -49
t-59.5 -49.5t-55 -59t-38 -66.5t-25 -82zM473 -20q-84 0 -135 50.5t-51 129.5q0 94 62 158.5t157 64.5q82 0 133 -50.5t51 -129.5q0 -95 -61 -159t-156 -64z" />
    <glyph glyph-name="at" unicode="@" horiz-adv-x="2363" 
d="M1729 993l-93 -518q-2 -16 -2 -35q0 -71 64 -71q69 0 127.5 68t89.5 165.5t31 192.5q0 208 -163 325t-446 117q-207 0 -381 -63t-294.5 -176.5t-188 -276t-67.5 -356.5q0 -251 172.5 -395t492.5 -144q120 0 285 20t289 50l75 -277q-147 -41 -340 -65.5t-346 -24.5
q-464 0 -723.5 221.5t-259.5 603.5q0 263 95 483.5t266.5 374t416.5 239t537 85.5q430 0 679 -190.5t249 -520.5q0 -147 -45 -284t-123 -241t-191.5 -167t-242.5 -63q-118 0 -202.5 48t-123.5 134q-131 -180 -348 -180q-171 0 -279 106.5t-108 280.5q0 106 39 207
t105.5 176.5t160.5 121.5t197 46q161 0 239 -115l21 98h336zM1126 369q64 0 112 44.5t62 112.5q5 35 5 47q0 67 -35 102.5t-101 35.5q-75 0 -125.5 -63.5t-50.5 -143.5q0 -63 34 -99t99 -36z" />
    <glyph glyph-name="A" unicode="A" horiz-adv-x="1581" 
d="M1100 0l-53 252h-639l-146 -252h-391l907 1516h334l367 -1516h-379zM578 549h407l-108 520z" />
    <glyph glyph-name="B" unicode="B" horiz-adv-x="1476" 
d="M1180 803q92 -45 142 -123t50 -180q0 -147 -79 -262t-212.5 -176.5t-296.5 -61.5h-733l268 1516h717q170 0 269.5 -94t99.5 -251q0 -240 -225 -368zM891 1219h-264l-52 -291h238q102 0 159.5 47t57.5 131q0 55 -35.5 84t-103.5 29zM768 297q118 0 180 55t62 146
q0 63 -43.5 98t-120.5 35h-322l-59 -334h303z" />
    <glyph glyph-name="C" unicode="C" horiz-adv-x="1323" 
d="M799 -20q-330 0 -521.5 174t-191.5 467q0 195 72.5 365.5t198 291t301 189.5t374.5 69q193 0 340 -86l-55 -307q-108 96 -318 96q-154 0 -279.5 -83t-194 -218.5t-68.5 -292.5q0 -170 98 -269.5t270 -99.5q221 0 377 119l-59 -342q-142 -73 -344 -73z" />
    <glyph glyph-name="D" unicode="D" horiz-adv-x="1636" 
d="M948 1516q295 0 467 -166t172 -447q0 -190 -66.5 -357.5t-183 -287.5t-282 -189t-355.5 -69h-649l268 1516h629zM739 297q90 0 169 33t136 89t98 129.5t61 155t20 164.5q0 166 -83 258.5t-243 92.5h-270l-162 -922h274z" />
    <glyph glyph-name="E" unicode="E" horiz-adv-x="1357" 
d="M1346 1219h-719l-54 -304h648l-54 -297h-647l-55 -321h735l-53 -297h-1096l268 1516h1080z" />
    <glyph glyph-name="F" unicode="F" horiz-adv-x="1249" 
d="M1278 1219h-651l-60 -345h545l-53 -296h-545l-102 -578h-361l268 1516h1010z" />
    <glyph glyph-name="G" unicode="G" horiz-adv-x="1691" 
d="M1679 881q-8 -88 -18 -148q-23 -167 -99.5 -307.5t-191 -238.5t-265.5 -152.5t-321 -54.5q-321 0 -508.5 173t-187.5 465q0 195 70.5 365t193 291.5t295.5 191.5t371 70q340 0 536 -180l-260 -209q-108 92 -303 92q-114 0 -215 -50t-170.5 -133t-110 -191.5t-40.5 -223.5
q0 -168 96 -266.5t262 -98.5q162 0 285.5 85.5t165.5 222.5h-351l54 297h712z" />
    <glyph glyph-name="H" unicode="H" horiz-adv-x="1794" 
d="M1423 1516h359l-269 -1516h-358l111 625h-744l-110 -625h-361l268 1516h361l-105 -594h744z" />
    <glyph glyph-name="I" unicode="I" horiz-adv-x="692" 
d="M51 0l268 1516h361l-268 -1516h-361z" />
    <glyph glyph-name="J" unicode="J" horiz-adv-x="894" 
d="M219 -20q-202 0 -305 137l119 219q66 -60 149 -60q60 0 102.5 39.5t53.5 100.5l194 1100h359l-211 -1188q-27 -161 -154 -254.5t-307 -93.5z" />
    <glyph glyph-name="K" unicode="K" horiz-adv-x="1476" 
d="M1630 1516l-717 -744l469 -772h-421l-367 625h-72l-110 -625h-361l268 1516h361l-105 -594h54l561 594h440z" />
    <glyph glyph-name="L" unicode="L" horiz-adv-x="1191" 
d="M465 297h645l-53 -297h-1006l268 1516h361z" />
    <glyph glyph-name="M" unicode="M" horiz-adv-x="2060" 
d="M1587 1520h400l-158 -1520h-361l111 915l-569 -915h-191l-244 918l-215 -918h-360l375 1520h401l242 -926z" />
    <glyph glyph-name="N" unicode="N" horiz-adv-x="1808" 
d="M51 0l268 1516h220l741 -908l156 908h360l-268 -1516h-215l-744 909l-157 -909h-361z" />
    <glyph glyph-name="O" unicode="O" horiz-adv-x="1783" 
d="M799 -20q-330 0 -521.5 174t-191.5 467q0 195 72.5 365.5t198 291t301 189.5t374.5 69q327 0 517 -173t190 -466q0 -260 -122.5 -470t-337.5 -328.5t-480 -118.5zM825 276q155 0 281 84t194 220.5t68 293.5q0 168 -98.5 266.5t-270.5 98.5q-155 0 -281 -83t-194.5 -218.5
t-68.5 -292.5q0 -170 99 -269.5t271 -99.5z" />
    <glyph glyph-name="P" unicode="P" horiz-adv-x="1413" 
d="M958 1516q218 0 346 -115.5t128 -310.5q0 -177 -86.5 -316.5t-236 -216t-333.5 -76.5h-278l-86 -481h-361l268 1516h639zM791 778q123 0 197.5 78t74.5 201q0 76 -45 119t-129 43h-262l-78 -441h242z" />
    <glyph glyph-name="Q" unicode="Q" horiz-adv-x="1785" 
d="M1743 0h-424l-68 84q-203 -104 -452 -104q-330 0 -521.5 174t-191.5 467q0 195 72.5 365.5t198 291t301 189.5t374.5 69q327 0 517 -173t190 -466q0 -180 -60.5 -338t-171.5 -280zM825 276q119 0 226 52l-217 266h403l43 -49q88 154 88 329q0 168 -98.5 266.5
t-270.5 98.5q-155 0 -281 -83t-194.5 -218.5t-68.5 -292.5q0 -170 99 -269.5t271 -99.5z" />
    <glyph glyph-name="R" unicode="R" horiz-adv-x="1525" 
d="M1454 1096q0 -177 -91.5 -307.5t-250.5 -198.5l277 -590h-410l-227 524h-248l-92 -524h-361l268 1516h666q217 0 343 -114t126 -306zM627 1219l-70 -398h236q146 0 220 67.5t74 172.5q0 74 -45 116t-129 42h-286z" />
    <glyph glyph-name="S" unicode="S" horiz-adv-x="1347" 
d="M578 -20q-166 0 -305 53.5t-236 150.5l156 228q163 -136 393 -136q123 0 202.5 43t79.5 119q0 54 -55 86.5t-178 69.5l-76 22q-73 22 -129 46t-107.5 57t-85 71.5t-53.5 90.5t-20 114q0 158 86 282t234 191.5t331 67.5q302 0 512 -180l-180 -236q-142 119 -336 119
q-112 0 -191 -44.5t-79 -113.5q0 -52 50 -81t161 -62l75 -20q85 -25 154.5 -59t131.5 -83.5t97 -120.5t35 -157q0 -113 -53 -210.5t-143 -164.5t-212 -105t-259 -38z" />
    <glyph glyph-name="T" unicode="T" horiz-adv-x="1310" 
d="M1436 1516l-54 -297h-450l-215 -1219h-359l215 1219h-446l53 297h1256z" />
    <glyph glyph-name="U" unicode="U" horiz-adv-x="1665" 
d="M733 -20q-280 0 -443 138.5t-163 368.5q0 49 10 117l162 912h358l-159 -904q-9 -61 -9 -80q0 -121 73 -188.5t202 -67.5q144 0 251.5 93t133.5 237l160 910h358l-166 -936q-33 -182 -139 -318.5t-268.5 -209t-360.5 -72.5z" />
    <glyph glyph-name="V" unicode="V" horiz-adv-x="1583" 
d="M510 0l-369 1516h379l228 -1065l612 1065h387l-903 -1516h-334z" />
    <glyph glyph-name="W" unicode="W" horiz-adv-x="2361" 
d="M393 0l-246 1516h379l133 -1035l502 1035h332l137 -1035l498 1035h389l-782 -1516h-334l-152 1034l-522 -1034h-334z" />
    <glyph glyph-name="X" unicode="X" horiz-adv-x="1447" 
d="M1577 1516l-627 -719l408 -797h-424l-240 504l-415 -504h-406l676 778l-383 738h424l213 -447l371 447h403z" />
    <glyph glyph-name="Y" unicode="Y" horiz-adv-x="1452" 
d="M426 0l100 530l-358 986h375l217 -668l440 668h391l-704 -986l-101 -530h-360z" />
    <glyph glyph-name="Z" unicode="Z" horiz-adv-x="1284" 
d="M1374 1516l-835 -1219h626l-53 -297h-1178l838 1219h-604l53 297h1153z" />
    <glyph glyph-name="bracketleft" unicode="[" horiz-adv-x="839" 
d="M-29 -369l346 1966h629l-51 -297h-270l-242 -1372h270l-53 -297h-629z" />
    <glyph glyph-name="backslash" unicode="\" horiz-adv-x="966" 
d="M406 -205l-173 1802h347l172 -1802h-346z" />
    <glyph glyph-name="bracketright" unicode="]" horiz-adv-x="839" 
d="M856 1597l-346 -1966h-629l51 297h271l241 1372h-270l53 297h629z" />
    <glyph glyph-name="asciicircum" unicode="^" horiz-adv-x="1193" 
d="M1114 627h-346l-113 358l-235 -358h-340l471 694h338z" />
    <glyph glyph-name="underscore" unicode="_" horiz-adv-x="1282" 
d="M-104 -248l43 248h1179l-45 -248h-1177z" />
    <glyph glyph-name="grave" unicode="`" horiz-adv-x="1228" 
d="M436 1266l-330 342h396l221 -342h-287z" />
    <glyph glyph-name="a" unicode="a" horiz-adv-x="1220" 
d="M209 1116h969l-199 -1116h-334l17 115q-63 -66 -143.5 -100.5t-164.5 -34.5q-163 0 -259.5 84t-96.5 223q0 130 73.5 225.5t192.5 142.5t266 47q111 0 222 -24l28 166h-620zM465 227q83 0 154 63t94 163q-82 12 -140 12q-94 0 -154.5 -41t-60.5 -105q0 -43 26.5 -67.5
t80.5 -24.5z" />
    <glyph glyph-name="b" unicode="b" horiz-adv-x="1406" 
d="M872 1137q203 0 331 -129.5t128 -343.5q0 -182 -82 -339.5t-225.5 -251t-312.5 -93.5q-233 0 -330 174l-33 -154h-338l283 1597h348l-104 -593q136 133 335 133zM680 279q83 0 152 47.5t106 123t37 160.5q0 106 -60 168t-165 62q-106 0 -186.5 -76.5t-102.5 -194.5v-6
l-4 -22q-2 -10 -2 -31q0 -112 59 -171.5t166 -59.5z" />
    <glyph glyph-name="c" unicode="c" horiz-adv-x="989" 
d="M588 -20q-250 0 -396.5 130.5t-146.5 352.5q0 144 54 269.5t147.5 214t224.5 139.5t279 51q57 0 118.5 -15t102.5 -37l-51 -299q-85 54 -191 54q-95 0 -171.5 -50t-116.5 -128.5t-40 -167.5q0 -99 58.5 -157t165.5 -58q137 0 227 67l-55 -326q-79 -40 -209 -40z" />
    <glyph glyph-name="d" unicode="d" horiz-adv-x="1400" 
d="M1096 1597h348l-283 -1597h-336l17 121q-135 -141 -342 -141q-203 0 -331 129.5t-128 343.5q0 182 82.5 339.5t226 251t312.5 93.5q222 0 323 -164zM623 279q106 0 185 74.5t101 191.5l2 8l4 22q3 15 3 31q0 113 -59.5 173.5t-166.5 60.5q-124 0 -209.5 -101t-85.5 -231
q0 -107 60.5 -168t165.5 -61z" />
    <glyph glyph-name="e" unicode="e" horiz-adv-x="1269" 
d="M1163 436h-768v-16q0 -79 42 -123.5t122 -44.5q136 0 262 113l252 -152q-90 -108 -226 -170.5t-288 -62.5q-239 0 -377.5 128t-138.5 345q0 142 50 268t136.5 217.5t209.5 145t263 53.5q233 0 366.5 -126.5t133.5 -340.5q0 -127 -39 -234zM696 864q-88 0 -152.5 -52
t-101.5 -142h412v14q0 90 -42 135t-116 45z" />
    <glyph glyph-name="f" unicode="f" horiz-adv-x="864" 
d="M969 1313h-275l-35 -197h252l-49 -285h-252l-147 -831h-348l147 831h-174l49 285h174l86 481h621z" />
    <glyph glyph-name="g" unicode="g" horiz-adv-x="1404" 
d="M1028 1116h336l-277 -1567h-1148l49 285h800l50 279q-136 -133 -334 -133q-203 0 -331 129.5t-128 343.5q0 182 82.5 339.5t226 251t312.5 93.5q228 0 327 -172zM627 279q106 0 186 75.5t100 192.5l2 6l5 27q2 10 2 26q0 113 -59.5 173.5t-166.5 60.5q-125 0 -210 -100.5
t-85 -231.5q0 -107 60 -168t166 -61z" />
    <glyph glyph-name="h" unicode="h" horiz-adv-x="1355" 
d="M872 1137q178 0 281.5 -98.5t103.5 -260.5q0 -49 -8 -90l-121 -688h-348l113 645q6 27 6 45q0 72 -47.5 111t-134.5 39q-92 0 -160 -54t-82 -135l-117 -651h-348l283 1597h348l-102 -579q142 119 333 119z" />
    <glyph glyph-name="i" unicode="i" horiz-adv-x="602" 
d="M424 1245q-84 0 -135 49.5t-51 128.5q0 95 61.5 159.5t157.5 64.5q83 0 133.5 -50t50.5 -129q0 -95 -61 -159t-156 -64zM12 0l199 1116h348l-199 -1116h-348z" />
    <glyph glyph-name="j" unicode="j" horiz-adv-x="602" 
d="M422 1245q-84 0 -135 49.5t-51 128.5q0 95 61.5 159.5t157.5 64.5q83 0 133.5 -50t50.5 -129q0 -95 -61 -159t-156 -64zM-68 -451l279 1567h348l-276 -1567h-351z" />
    <glyph glyph-name="k" unicode="k" horiz-adv-x="1275" 
d="M1372 1116l-594 -534l412 -582h-422l-289 444h-43l-78 -444h-348l283 1597h348l-154 -868h15l420 387h450z" />
    <glyph glyph-name="l" unicode="l" horiz-adv-x="706" 
d="M12 0l283 1597h348l-231 -1310h196l-53 -287h-543z" />
    <glyph glyph-name="m" unicode="m" horiz-adv-x="2011" 
d="M1505 1137q187 0 297.5 -99t110.5 -262q0 -47 -8 -88l-121 -688h-348l110 641q6 25 6 51q0 71 -39.5 109.5t-111.5 38.5q-81 0 -140.5 -53t-74.5 -134l-115 -653h-348l111 641q6 37 6 51q0 70 -40 109t-112 39q-81 0 -140 -53t-73 -134l-117 -653h-348l197 1116h336
l-15 -98q134 119 316 119q205 0 299 -146q143 146 362 146z" />
    <glyph glyph-name="n" unicode="n" horiz-adv-x="1355" 
d="M872 1137q178 0 281.5 -98.5t103.5 -260.5q0 -49 -8 -90l-121 -688h-348l113 645q6 27 6 45q0 72 -47.5 111t-134.5 39q-92 0 -160 -54t-82 -135l-117 -651h-348l197 1116h336l-15 -108q144 129 344 129z" />
    <glyph glyph-name="o" unicode="o" horiz-adv-x="1355" 
d="M582 -20q-247 0 -393 130.5t-146 350.5q0 192 91 346.5t251 242t358 87.5q248 0 392.5 -130t144.5 -350q0 -192 -90.5 -347t-250 -242.5t-357.5 -87.5zM629 279q124 0 208.5 100.5t84.5 230.5q0 106 -60 168t-164 62q-127 0 -213 -101t-86 -231q0 -106 61.5 -167.5
t168.5 -61.5z" />
    <glyph glyph-name="p" unicode="p" horiz-adv-x="1402" 
d="M870 1137q203 0 331 -129.5t128 -343.5q0 -182 -82 -339.5t-225.5 -251t-312.5 -93.5q-223 0 -324 163l-104 -594h-349l277 1567h336l-17 -121q136 142 342 142zM678 279q83 0 152 47.5t106 123t37 160.5q0 106 -60 168t-165 62q-106 0 -185.5 -75.5t-101.5 -193.5l-2 -8
l-4 -22q-2 -12 -2 -31q0 -112 59 -171.5t166 -59.5z" />
    <glyph glyph-name="q" unicode="q" horiz-adv-x="1404" 
d="M1026 1116h336l-277 -1567h-348l99 564q-136 -133 -334 -133q-203 0 -331 129.5t-128 343.5q0 182 82.5 339.5t226 251t312.5 93.5q228 0 327 -172zM625 279q106 0 186 76t102 194v4l5 27q2 10 2 26q0 113 -59.5 173.5t-166.5 60.5q-125 0 -210 -100.5t-85 -231.5
q0 -107 60 -168t166 -61z" />
    <glyph glyph-name="r" unicode="r" horiz-adv-x="876" 
d="M10 0l199 1116h336l-21 -115q165 136 414 136l-59 -320q-158 0 -279 -73.5t-141 -182.5l-101 -561h-348z" />
    <glyph glyph-name="s" unicode="s" horiz-adv-x="1081" 
d="M430 -20q-283 0 -436 147l145 195q120 -70 299 -70q68 0 117 25t49 67q0 33 -34 52t-105 34l-78 16q-134 27 -211.5 92.5t-77.5 176.5q0 181 149 301.5t365 120.5q276 0 435 -123l-166 -213q-98 63 -244 63q-74 0 -126 -20.5t-52 -59.5q0 -21 17 -35.5t38 -22t66 -19.5
l75 -23q143 -41 223 -109.5t80 -185.5q0 -125 -71.5 -219.5t-190.5 -142t-266 -47.5z" />
    <glyph glyph-name="t" unicode="t" horiz-adv-x="856" 
d="M907 1116l-51 -285h-219l-145 -831h-349l146 831h-211l51 285h211l57 328h348l-57 -328h219z" />
    <glyph glyph-name="u" unicode="u" horiz-adv-x="1294" 
d="M549 -20q-221 0 -350 109t-129 290q0 47 8 88l115 649h348l-115 -647q-4 -32 -4 -49q0 -68 41 -104.5t117 -36.5q83 0 146 52.5t75 129.5l114 655h349l-119 -674q-37 -213 -199 -337.5t-397 -124.5z" />
    <glyph glyph-name="v" unicode="v" horiz-adv-x="1267" 
d="M346 0l-260 1116h375l119 -721l383 721h385l-656 -1116h-346z" />
    <glyph glyph-name="w" unicode="w" horiz-adv-x="1882" 
d="M285 0l-199 1116h375l86 -721l330 721h282l70 -721l344 721h385l-592 -1116h-348l-62 713l-323 -713h-348z" />
    <glyph glyph-name="x" unicode="x" horiz-adv-x="1232" 
d="M1300 1116l-491 -551l307 -565h-403l-152 307l-258 -307h-424l518 580l-284 536h403l131 -274l230 274h423z" />
    <glyph glyph-name="y" unicode="y" horiz-adv-x="1308" 
d="M918 1116h348l-277 -1567h-1063l49 285h715l45 258q-129 -112 -307 -112q-167 0 -263.5 96.5t-96.5 257.5q0 49 8 96l119 686h348l-111 -643q-4 -29 -4 -51q0 -70 40.5 -106.5t115.5 -36.5q85 0 144.5 51.5t74.5 136.5z" />
    <glyph glyph-name="z" unicode="z" horiz-adv-x="1114" 
d="M-59 0l610 831h-447l50 285h979l-611 -829h467l-49 -287h-999z" />
    <glyph glyph-name="braceleft" unicode="{" horiz-adv-x="884" 
d="M416 -389q-153 0 -241.5 79t-88.5 210q0 32 6 67l66 361q4 14 4 43q0 96 -115 96h-22l53 297h14q67 0 110.5 35t53.5 102l66 385q28 154 138 243t269 89q129 0 260 -29l-49 -276q-41 8 -92 8q-78 0 -127 -41.5t-62 -124.5l-55 -319q-15 -87 -72 -145.5t-149 -80.5
q70 -16 105.5 -71t35.5 -127q0 -25 -4 -41l-53 -320q-6 -18 -6 -41q0 -102 104 -102q67 0 129 10l-51 -283q-108 -24 -227 -24z" />
    <glyph glyph-name="bar" unicode="|" horiz-adv-x="659" 
d="M-43 -451l360 2048h359l-361 -2048h-358z" />
    <glyph glyph-name="braceright" unicode="}" horiz-adv-x="884" 
d="M455 1618q153 0 241 -79t88 -210q0 -33 -6 -67l-65 -361q-4 -14 -4 -43q0 -96 114 -96h23l-53 -297h-15q-67 0 -110.5 -35t-53.5 -102l-65 -385q-28 -154 -138.5 -243t-269.5 -89q-129 0 -260 29l49 276q41 -8 93 -8q162 0 188 166l55 319q15 87 72 145t149 80
q-70 16 -105.5 71.5t-35.5 127.5q0 25 4 41l53 320q7 21 7 41q0 50 -27.5 76t-77.5 26q-67 0 -129 -10l51 282q112 25 228 25z" />
    <glyph glyph-name="asciitilde" unicode="~" horiz-adv-x="1255" 
d="M809 434q-64 0 -141.5 25t-147 50.5t-112.5 25.5q-112 0 -129 -80h-187q23 142 118.5 232.5t225.5 90.5q67 0 144 -24.5t145.5 -49t114.5 -24.5q58 0 88 16.5t39 61.5h186q-25 -149 -118.5 -236.5t-225.5 -87.5z" />
    <glyph glyph-name="uni00A0" unicode="&#xa0;" horiz-adv-x="489" 
 />
    <glyph glyph-name="exclamdown" unicode="&#xa1;" horiz-adv-x="636" 
d="M352 735q-84 0 -135 49.5t-51 128.5q0 95 61.5 159.5t157.5 64.5q83 0 133.5 -50.5t50.5 -130.5q0 -94 -61 -157.5t-156 -63.5zM-55 -451l219 1067h297l-154 -1067h-362z" />
    <glyph glyph-name="cent" unicode="&#xa2;" horiz-adv-x="1218" 
d="M901 481l172 -250q-129 -110 -313 -139l-31 -174h-326l33 188q-163 43 -254.5 163t-91.5 292q0 253 150.5 433.5t394.5 228.5l31 180h325l-35 -186q131 -37 220 -117l-224 -221q-60 63 -182 63q-93 0 -168.5 -51t-115.5 -130t-40 -167q0 -100 58.5 -156.5t171.5 -56.5
q135 0 225 100z" />
    <glyph glyph-name="sterling" unicode="&#xa3;" horiz-adv-x="1302" 
d="M1280 1114h-350q2 10 2 33q0 43 -29.5 67.5t-77.5 24.5q-60 0 -98 -36t-49 -95l-43 -240h526l-55 -284h-520l-54 -299h615l-51 -285h-1116l49 281h143l55 303h-123l52 284h120l50 275q32 182 176.5 287.5t355.5 105.5q196 0 312 -95.5t116 -252.5q0 -34 -6 -74z" />
    <glyph glyph-name="currency" unicode="&#xa4;" horiz-adv-x="1343" 
d="M1167 770q0 -156 -92 -295l119 -135l-240 -211l-125 141q-106 -45 -213 -45q-121 0 -219 56l-176 -154l-180 211l178 158q-24 64 -24 143q0 158 94 295l-119 137l240 211l125 -145q105 43 210 43q122 0 220 -56l176 154l180 -209l-178 -158q24 -65 24 -141zM465 659
q0 -78 51 -127t131 -49q101 0 174.5 78t73.5 189q0 78 -49.5 128t-130.5 50q-101 0 -175.5 -79t-74.5 -190z" />
    <glyph glyph-name="yen" unicode="&#xa5;" horiz-adv-x="1540" 
d="M1628 1516l-553 -773h187l-39 -221h-303l-15 -84h301l-39 -221h-303l-41 -217h-360l41 217h-289l39 221h291l16 84h-293l39 221h178l-280 773h373l219 -668l440 668h391z" />
    <glyph glyph-name="brokenbar" unicode="&#xa6;" horiz-adv-x="655" 
d="M170 778l145 819h359l-146 -819h-358zM-45 -451l143 820h359l-144 -820h-358z" />
    <glyph glyph-name="section" unicode="&#xa7;" horiz-adv-x="1286" 
d="M1182 586q0 -98 -40 -190t-114 -163q57 -82 57 -190q0 -150 -85 -269t-226.5 -182t-310.5 -63q-154 0 -281.5 53t-218.5 150l160 229q145 -135 354 -135q102 0 168 43t66 119q0 56 -46.5 89.5t-148.5 65.5l-67 23q-173 52 -268 139.5t-95 233.5q0 99 37.5 193.5
t105.5 170.5q-51 70 -51 168q0 158 82 284t222 194.5t309 68.5q274 0 475 -180l-187 -236q-128 119 -295 119q-93 0 -160 -45.5t-67 -116.5q0 -50 44 -79.5t138 -59.5l66 -21q76 -25 139 -59t119 -83t87.5 -118.5t31.5 -152.5zM709 440q9 -3 19 -6.5t23 -8t21 -7.5
q59 53 59 121q0 58 -53.5 94.5t-163.5 68.5l-67 19q-9 2 -26 7.5t-21 6.5q-60 -48 -60 -121q0 -55 48.5 -86t156.5 -65z" />
    <glyph glyph-name="dieresis" unicode="&#xa8;" horiz-adv-x="1228" 
d="M432 1245q-85 0 -135.5 49.5t-50.5 128.5q0 95 61.5 159.5t157.5 64.5q82 0 132 -50t50 -129q0 -95 -60.5 -159t-154.5 -64zM981 1245q-84 0 -135 49.5t-51 128.5q0 95 61.5 159.5t157.5 64.5q83 0 133.5 -50t50.5 -129q0 -95 -61.5 -159t-155.5 -64z" />
    <glyph glyph-name="copyright" unicode="&#xa9;" horiz-adv-x="1808" 
d="M809 -20q-330 0 -521.5 173t-191.5 465q0 195 71.5 365.5t196.5 292t301.5 191t378.5 69.5q329 0 519 -172t190 -463q0 -198 -71.5 -369.5t-196 -292.5t-299.5 -190t-377 -69zM811 131q168 0 309.5 57t239.5 157.5t152.5 240.5t54.5 303q0 228 -142.5 362.5t-390.5 134.5
q-167 0 -308.5 -57t-239.5 -157.5t-152.5 -241t-54.5 -303.5q0 -227 143 -361.5t389 -134.5zM858 324q-177 0 -281 97.5t-104 262.5q0 218 148 357t374 139q220 0 336 -144l-164 -129q-61 82 -184 82q-116 0 -196 -86t-80 -196q0 -90 51 -141.5t143 -51.5q138 0 234 125
l125 -143q-153 -172 -402 -172z" />
    <glyph glyph-name="ordfeminine" unicode="&#xaa;" horiz-adv-x="813" 
d="M545 1536q121 0 192.5 -59.5t71.5 -159.5q0 -19 -4 -47l-72 -414h-203l9 68q-74 -80 -181 -80q-98 0 -156.5 49.5t-58.5 132.5q0 118 91.5 185t228.5 67q52 0 131 -14v2q2 12 2 26q0 80 -107 80q-84 0 -157 -47l-78 131q125 80 291 80zM420 993q52 0 94 37t55 96
q-47 7 -69 7q-61 0 -100.5 -25t-39.5 -64q0 -24 15.5 -37.5t44.5 -13.5z" />
    <glyph glyph-name="guillemotleft" unicode="&#xab;" horiz-adv-x="1468" 
d="M340 78l-295 475l455 477h379l-451 -477l270 -475h-358zM930 78l-293 475l453 477h378l-450 -477l270 -475h-358z" />
    <glyph glyph-name="logicalnot" unicode="&#xac;" horiz-adv-x="1249" 
d="M1174 975l-113 -635h-348l61 350h-668l52 285h1016z" />
    <glyph glyph-name="uni00AD" unicode="&#xad;" horiz-adv-x="1028" 
d="M88 473l43 248h793l-45 -248h-791z" />
    <glyph glyph-name="registered" unicode="&#xae;" horiz-adv-x="829" 
d="M565 1618q135 0 213 -74t78 -198q0 -159 -102.5 -262t-261.5 -103q-137 0 -216 74t-79 198q0 159 104 262t264 103zM494 1036q97 0 167 45t102 113t32 149q0 103 -62.5 162.5t-171.5 59.5q-144 0 -223.5 -91t-79.5 -219q0 -102 63.5 -160.5t172.5 -58.5zM674 1372
q0 -79 -80 -110l59 -129h-82l-51 114h-6h-47l-21 -114h-81l59 333h143q48 0 77.5 -24t29.5 -70zM530 1313q29 0 46.5 13.5t17.5 35.5q0 35 -43 35h-57l-15 -84h51z" />
    <glyph glyph-name="macron" unicode="&#xaf;" horiz-adv-x="1228" 
d="M182 1253l49 273h777l-50 -273h-776z" />
    <glyph glyph-name="degree" unicode="&#xb0;" horiz-adv-x="739" 
d="M463 1079q-127 0 -203 65t-76 173q0 132 94.5 216.5t239.5 84.5q125 0 200 -64.5t75 -169.5q0 -135 -91.5 -220t-238.5 -85zM475 1251q49 0 80 33t31 76q0 40 -23 63t-61 23q-50 0 -80.5 -32.5t-30.5 -76.5q0 -38 23 -62t61 -24z" />
    <glyph glyph-name="plusminus" unicode="&#xb1;" horiz-adv-x="1269" 
d="M883 1051h338l-50 -285h-340l-61 -350h-350l63 350h-340l52 285h337l64 350h348zM12 23l51 286h1027l-50 -286h-1028z" />
    <glyph glyph-name="uni00B2" unicode="&#xb2;" horiz-adv-x="761" 
d="M82 811l24 137l365 324q145 122 145 213q0 31 -20 50t-55 19q-42 0 -73.5 -34t-39.5 -86l-217 34q23 123 117.5 194t232.5 71q127 0 203 -58.5t76 -156.5q0 -101 -68.5 -193.5t-196.5 -194.5l-174 -141l359 2l-33 -180h-645z" />
    <glyph glyph-name="uni00B3" unicode="&#xb3;" horiz-adv-x="737" 
d="M819 1720l-24 -135l-234 -211q96 -12 150.5 -73.5t54.5 -155.5q0 -157 -115.5 -251.5t-292.5 -94.5q-86 0 -161 24.5t-117 63.5l102 151q59 -59 185 -59q73 0 124.5 38t51.5 97q0 47 -34 73.5t-95 26.5q-51 0 -113 -32l-47 112l252 248h-266l30 178h549z" />
    <glyph glyph-name="acute" unicode="&#xb4;" horiz-adv-x="1228" 
d="M324 1266l346 342h393l-455 -342h-284z" />
    <glyph glyph-name="paragraph" unicode="&#xb6;" horiz-adv-x="1339" 
d="M1311 1516l-348 -1967h-256l303 1719h-154l-303 -1719h-258l217 1229h-145q-109 0 -169.5 72.5t-60.5 198.5q0 124 55.5 231t155.5 171.5t221 64.5h742z" />
    <glyph glyph-name="periodcentered" unicode="&#xb7;" horiz-adv-x="616" 
d="M281 379q-87 0 -144 59.5t-57 147.5q0 100 67.5 166.5t169.5 66.5q88 0 144.5 -59t56.5 -148q0 -100 -67.5 -166.5t-169.5 -66.5z" />
    <glyph glyph-name="cedilla" unicode="&#xb8;" horiz-adv-x="1228" 
d="M188 -100q78 -7 122 -48t44 -104q0 -97 -88 -158t-227 -61q-130 0 -203 49l82 121q46 -33 109 -33q45 0 71.5 17.5t26.5 44.5q0 41 -68 41q-26 0 -69 -15l-31 76l119 170h190z" />
    <glyph glyph-name="uni00B9" unicode="&#xb9;" horiz-adv-x="493" 
d="M199 811l127 731h-125l30 178h349l-162 -909h-219z" />
    <glyph glyph-name="ordmasculine" unicode="&#xba;" horiz-adv-x="874" 
d="M481 844q-149 0 -236 77.5t-87 208.5q0 175 120 290.5t302 115.5q150 0 236.5 -77.5t86.5 -209.5q0 -174 -121 -289.5t-301 -115.5zM506 1026q74 0 125 59.5t51 135.5q0 62 -34 99.5t-93 37.5q-76 0 -129 -60.5t-53 -136.5q0 -64 35.5 -99.5t97.5 -35.5z" />
    <glyph glyph-name="guillemotright" unicode="&#xbb;" horiz-adv-x="1470" 
d="M508 1030l293 -477l-453 -475h-381l451 475l-271 477h361zM1098 1030l293 -477l-453 -475h-381l451 475l-271 477h361z" />
    <glyph glyph-name="onequarter" unicode="&#xbc;" horiz-adv-x="1738" 
d="M291 -20l-172 110l1100 1446l172 -109zM162 606l127 731h-125l31 179h348l-162 -910h-219zM1235 0l29 164h-408l27 149l561 596h170l-98 -563h118l-30 -182h-123l-27 -164h-219zM1104 338h196l54 276z" />
    <glyph glyph-name="onehalf" unicode="&#xbd;" horiz-adv-x="1742" 
d="M291 -20l-172 110l1100 1446l172 -109zM162 606l127 731h-125l31 179h348l-162 -910h-219zM920 0l24 137l365 324q145 122 145 213q0 31 -20.5 50t-55.5 19q-42 0 -73 -34t-39 -86l-217 34q23 123 117.5 194t232.5 71q127 0 202.5 -58.5t75.5 -156.5q0 -101 -68.5 -194
t-195.5 -194l-174 -141l358 2l-32 -180h-645z" />
    <glyph glyph-name="threequarters" unicode="&#xbe;" horiz-adv-x="1982" 
d="M1462 1536l172 -109l-1099 -1447l-173 110zM729 940q0 -157 -115 -251.5t-292 -94.5q-86 0 -161.5 24.5t-117.5 63.5l102 152q60 -60 185 -60q73 0 124.5 38t51.5 97q0 47 -34 74t-95 27q-49 0 -113 -33l-47 113l252 247h-266l30 179h549l-24 -136l-234 -211
q96 -12 150.5 -73.5t54.5 -155.5zM1759 346h119l-31 -182h-123l-26 -164h-219l28 164h-407l26 149l562 596h170zM1544 338l53 276l-249 -276h196z" />
    <glyph glyph-name="questiondown" unicode="&#xbf;" horiz-adv-x="1146" 
d="M623 735q-85 0 -136 49.5t-51 128.5q0 95 61 159.5t156 64.5q84 0 134.5 -50.5t50.5 -130.5q0 -94 -60.5 -157.5t-154.5 -63.5zM416 -471q-218 0 -347.5 99t-129.5 263q0 68 15 121t49.5 98.5t72.5 79.5t102 80q54 39 89 69.5t73.5 74.5t61.5 97.5t32 117.5l295 -25
q-18 -99 -46.5 -175t-68 -132t-77.5 -93.5t-93 -80.5q-67 -51 -100 -93t-33 -100q0 -104 135 -104q67 0 122.5 42t72.5 107l324 -38q-42 -189 -192 -298.5t-357 -109.5z" />
    <glyph glyph-name="Agrave" unicode="&#xc0;" horiz-adv-x="1581" 
d="M1153 1665h-287l-329 342h395zM1100 0l-53 252h-639l-146 -252h-391l907 1516h334l367 -1516h-379zM578 549h407l-108 520z" />
    <glyph glyph-name="Aacute" unicode="&#xc1;" horiz-adv-x="1581" 
d="M1499 2007l-455 -342h-284l346 342h393zM778 1516h334l367 -1516h-379l-53 252h-639l-146 -252h-391zM578 549h407l-108 520z" />
    <glyph glyph-name="Acircumflex" unicode="&#xc2;" horiz-adv-x="1581" 
d="M999 1817l-149 -152h-309l331 342h328l207 -342h-309zM1100 0l-53 252h-639l-146 -252h-391l907 1516h334l367 -1516h-379zM578 549h407l-108 520z" />
    <glyph glyph-name="Atilde" unicode="&#xc3;" horiz-adv-x="1581" 
d="M838 1757q-42 0 -65 -19t-30 -61h-190q27 142 111.5 234t193.5 92q52 0 110.5 -24.5t108.5 -49t82 -24.5q42 0 64.5 18t29.5 59h191q-25 -150 -107.5 -237.5t-197.5 -87.5q-49 0 -107.5 25t-110.5 50t-83 25zM1100 0l-53 252h-639l-146 -252h-391l907 1516h334l367 -1516
h-379zM578 549h407l-108 520z" />
    <glyph glyph-name="Adieresis" unicode="&#xc4;" horiz-adv-x="1581" 
d="M713 1645q-85 0 -136 49.5t-51 128.5q0 95 61.5 159t157.5 64q83 0 133 -49.5t50 -128.5q0 -95 -60.5 -159t-154.5 -64zM1262 1645q-84 0 -135.5 49.5t-51.5 128.5q0 95 61.5 159t157.5 64q83 0 134 -50t51 -128q0 -95 -61.5 -159t-155.5 -64zM778 1516h334l367 -1516
h-379l-53 252h-639l-146 -252h-391zM578 549h407l-108 520z" />
    <glyph glyph-name="Aring" unicode="&#xc5;" horiz-adv-x="1581" 
d="M979 1595q-106 0 -168.5 55.5t-62.5 147.5q0 111 76.5 178.5t193.5 67.5q105 0 167 -55.5t62 -145.5q0 -112 -75.5 -180t-192.5 -68zM1008 1890q-37 0 -61.5 -24.5t-24.5 -57.5q0 -29 17.5 -44t47.5 -15q37 0 61.5 24.5t24.5 59.5q0 26 -18 41.5t-47 15.5zM1100 0
l-53 252h-639l-146 -252h-391l907 1516h334l367 -1516h-379zM578 549h407l-108 520z" />
    <glyph glyph-name="AE" unicode="&#xc6;" horiz-adv-x="2287" 
d="M2275 1219h-897l25 -304h745l-51 -297h-672l27 -321h678l-53 -297h-981l-13 252h-616l-193 -252h-419l1228 1516h1246zM692 549h379l-22 467z" />
    <glyph glyph-name="Ccedilla" unicode="&#xc7;" horiz-adv-x="1323" 
d="M999 1239q-154 0 -279.5 -83t-194 -218.5t-68.5 -292.5q0 -170 98 -269.5t270 -99.5q221 0 377 119l-59 -342q-123 -64 -291 -71l-64 -82q78 -7 122 -48t44 -104q0 -97 -88 -158t-227 -61q-130 0 -203 49l82 121q46 -33 109 -33q45 0 71.5 17.5t26.5 44.5q0 41 -68 41
q-26 0 -69 -15l-31 76l111 158q-273 34 -427.5 202.5t-154.5 430.5q0 195 72.5 365.5t198 291t301 189.5t374.5 69q193 0 340 -86l-55 -307q-108 96 -318 96z" />
    <glyph glyph-name="Egrave" unicode="&#xc8;" horiz-adv-x="1357" 
d="M1067 1665h-287l-329 342h395zM1346 1219h-719l-54 -304h648l-54 -297h-647l-55 -321h735l-53 -297h-1096l268 1516h1080z" />
    <glyph glyph-name="Eacute" unicode="&#xc9;" horiz-adv-x="1357" 
d="M1413 2007l-455 -342h-284l346 342h393zM1399 1516l-53 -297h-719l-54 -304h648l-54 -297h-647l-55 -321h735l-53 -297h-1096l268 1516h1080z" />
    <glyph glyph-name="Ecircumflex" unicode="&#xca;" horiz-adv-x="1357" 
d="M913 1817l-149 -152h-309l331 342h328l207 -342h-309zM1346 1219h-719l-54 -304h648l-54 -297h-647l-55 -321h735l-53 -297h-1096l268 1516h1080z" />
    <glyph glyph-name="Edieresis" unicode="&#xcb;" horiz-adv-x="1357" 
d="M627 1645q-85 0 -136 49.5t-51 128.5q0 95 61.5 159t157.5 64q83 0 133 -49.5t50 -128.5q0 -95 -60.5 -159t-154.5 -64zM1176 1645q-84 0 -135.5 49.5t-51.5 128.5q0 95 61.5 159t157.5 64q83 0 134 -50t51 -128q0 -95 -61.5 -159t-155.5 -64zM1346 1219h-719l-54 -304
h648l-54 -297h-647l-55 -321h735l-53 -297h-1096l268 1516h1080z" />
    <glyph glyph-name="Igrave" unicode="&#xcc;" horiz-adv-x="692" 
d="M418 1665l-330 342h395l222 -342h-287zM51 0l268 1516h361l-268 -1516h-361z" />
    <glyph glyph-name="Iacute" unicode="&#xcd;" horiz-adv-x="692" 
d="M311 1665l346 342h394l-455 -342h-285zM51 0l268 1516h361l-268 -1516h-361z" />
    <glyph glyph-name="Icircumflex" unicode="&#xce;" horiz-adv-x="692" 
d="M551 1817l-150 -152h-309l332 342h328l206 -342h-309zM51 0l268 1516h361l-268 -1516h-361z" />
    <glyph glyph-name="Idieresis" unicode="&#xcf;" horiz-adv-x="692" 
d="M264 1645q-85 0 -135.5 49.5t-50.5 128.5q0 95 61.5 159t157.5 64q82 0 132 -49.5t50 -128.5q0 -95 -60.5 -159t-154.5 -64zM813 1645q-84 0 -135 49.5t-51 128.5q0 95 61.5 159t157.5 64q83 0 133.5 -49.5t50.5 -128.5q0 -95 -61.5 -159t-155.5 -64zM51 0l268 1516h361
l-268 -1516h-361z" />
    <glyph glyph-name="Eth" unicode="&#xd0;" horiz-adv-x="1636" 
d="M948 1516q295 0 467 -166t172 -447q0 -190 -66.5 -357.5t-183 -287.5t-282 -189t-355.5 -69h-649l113 637h-152l43 248h152l112 631h629zM739 297q90 0 169 33t136 89t98 129.5t61 155t20 164.5q0 166 -83 258.5t-243 92.5h-270l-60 -334h301l-45 -248h-299l-59 -340h274
z" />
    <glyph glyph-name="Ntilde" unicode="&#xd1;" horiz-adv-x="1808" 
d="M1253 1657q-49 0 -107.5 25t-110.5 50t-83 25q-42 0 -64.5 -19t-29.5 -61h-190q27 142 111.5 234t193.5 92q52 0 110.5 -24.5t108.5 -49t82 -24.5q42 0 64.5 18t29.5 59h191q-25 -150 -108 -237.5t-198 -87.5zM51 0l268 1516h220l741 -908l156 908h360l-268 -1516h-215
l-744 909l-157 -909h-361z" />
    <glyph glyph-name="Ograve" unicode="&#xd2;" horiz-adv-x="1783" 
d="M969 1665l-330 342h395l221 -342h-286zM799 -20q-330 0 -521.5 174t-191.5 467q0 195 72.5 365.5t198 291t301 189.5t374.5 69q327 0 517 -173t190 -466q0 -260 -122.5 -470t-337.5 -328.5t-480 -118.5zM825 276q155 0 281 84t194 220.5t68 293.5q0 168 -98.5 266.5
t-270.5 98.5q-155 0 -281 -83t-194.5 -218.5t-68.5 -292.5q0 -170 99 -269.5t271 -99.5z" />
    <glyph glyph-name="Oacute" unicode="&#xd3;" horiz-adv-x="1783" 
d="M862 1665l346 342h394l-455 -342h-285zM799 -20q-330 0 -521.5 174t-191.5 467q0 195 72.5 365.5t198 291t301 189.5t374.5 69q327 0 517 -173t190 -466q0 -260 -122.5 -470t-337.5 -328.5t-480 -118.5zM825 276q155 0 281 84t194 220.5t68 293.5q0 168 -98.5 266.5
t-270.5 98.5q-155 0 -281 -83t-194.5 -218.5t-68.5 -292.5q0 -170 99 -269.5t271 -99.5z" />
    <glyph glyph-name="Ocircumflex" unicode="&#xd4;" horiz-adv-x="1783" 
d="M1102 1817l-150 -152h-309l332 342h328l206 -342h-309zM1032 1536q327 0 517 -173t190 -466q0 -260 -122.5 -470t-337.5 -328.5t-480 -118.5q-330 0 -521.5 174t-191.5 467q0 195 72.5 365.5t198 291t301 189.5t374.5 69zM825 276q155 0 281 84t194 220.5t68 293.5
q0 168 -98.5 266.5t-270.5 98.5q-155 0 -281 -83t-194.5 -218.5t-68.5 -292.5q0 -170 99 -269.5t271 -99.5z" />
    <glyph glyph-name="Otilde" unicode="&#xd5;" horiz-adv-x="1783" 
d="M1241 1657q-49 0 -107.5 25t-110.5 50t-83 25q-42 0 -64.5 -19t-29.5 -61h-191q26 142 111.5 234t194.5 92q52 0 110.5 -24.5t108.5 -49t82 -24.5q42 0 64.5 18t29.5 59h190q-25 -150 -107.5 -237.5t-197.5 -87.5zM799 -20q-330 0 -521.5 174t-191.5 467
q0 195 72.5 365.5t198 291t301 189.5t374.5 69q327 0 517 -173t190 -466q0 -260 -122.5 -470t-337.5 -328.5t-480 -118.5zM825 276q155 0 281 84t194 220.5t68 293.5q0 168 -98.5 266.5t-270.5 98.5q-155 0 -281 -83t-194.5 -218.5t-68.5 -292.5q0 -170 99 -269.5t271 -99.5
z" />
    <glyph glyph-name="Odieresis" unicode="&#xd6;" horiz-adv-x="1783" 
d="M815 1645q-85 0 -135.5 49.5t-50.5 128.5q0 95 61.5 159t157.5 64q82 0 132 -49.5t50 -128.5q0 -95 -60.5 -159t-154.5 -64zM1364 1645q-84 0 -135 49.5t-51 128.5q0 95 61.5 159t157.5 64q83 0 133.5 -49.5t50.5 -128.5q0 -95 -61.5 -159t-155.5 -64zM799 -20
q-330 0 -521.5 174t-191.5 467q0 195 72.5 365.5t198 291t301 189.5t374.5 69q327 0 517 -173t190 -466q0 -260 -122.5 -470t-337.5 -328.5t-480 -118.5zM825 276q155 0 281 84t194 220.5t68 293.5q0 168 -98.5 266.5t-270.5 98.5q-155 0 -281 -83t-194.5 -218.5
t-68.5 -292.5q0 -170 99 -269.5t271 -99.5z" />
    <glyph glyph-name="multiply" unicode="&#xd7;" horiz-adv-x="1089" 
d="M1055 963l-285 -246l199 -238l-244 -213l-201 240l-278 -240l-185 213l283 244l-201 240l244 213l203 -242l282 242z" />
    <glyph glyph-name="Oslash" unicode="&#xd8;" horiz-adv-x="1783" 
d="M1751 1415l-135 -125q123 -160 123 -393q0 -260 -122.5 -470t-337.5 -328.5t-480 -118.5q-278 0 -465 129l-141 -129l-123 120l139 127q-123 160 -123 394q0 195 72.5 365.5t198 291t301 189.5t374.5 69q281 0 461 -129l139 129zM455 645q0 -91 28 -164l752 690
q-96 68 -236 68q-155 0 -281 -83t-194.5 -218.5t-68.5 -292.5zM1368 874q0 86 -29 162l-749 -690q95 -70 235 -70q155 0 281 84t194 220.5t68 293.5z" />
    <glyph glyph-name="Ugrave" unicode="&#xd9;" horiz-adv-x="1665" 
d="M905 1665l-330 342h396l221 -342h-287zM733 -20q-280 0 -443 138.5t-163 368.5q0 49 10 117l162 912h358l-159 -904q-9 -61 -9 -80q0 -121 73 -188.5t202 -67.5q144 0 251.5 93t133.5 237l160 910h358l-166 -936q-33 -182 -139 -318.5t-268.5 -209t-360.5 -72.5z" />
    <glyph glyph-name="Uacute" unicode="&#xda;" horiz-adv-x="1665" 
d="M799 1665l346 342h393l-455 -342h-284zM733 -20q-280 0 -443 138.5t-163 368.5q0 49 10 117l162 912h358l-159 -904q-9 -61 -9 -80q0 -121 73 -188.5t202 -67.5q144 0 251.5 93t133.5 237l160 910h358l-166 -936q-33 -182 -139 -318.5t-268.5 -209t-360.5 -72.5z" />
    <glyph glyph-name="Ucircumflex" unicode="&#xdb;" horiz-adv-x="1665" 
d="M1038 1817l-149 -152h-309l331 342h328l207 -342h-309zM1309 1516h358l-166 -936q-33 -182 -139 -318.5t-268.5 -209t-360.5 -72.5q-280 0 -443 138.5t-163 368.5q0 49 10 117l162 912h358l-159 -904q-9 -61 -9 -80q0 -121 73 -188.5t202 -67.5q144 0 251.5 93t133.5 237
z" />
    <glyph glyph-name="Udieresis" unicode="&#xdc;" horiz-adv-x="1665" 
d="M752 1645q-85 0 -136 49.5t-51 128.5q0 95 61.5 159t157.5 64q83 0 133 -49.5t50 -128.5q0 -95 -60.5 -159t-154.5 -64zM1300 1645q-84 0 -135 49.5t-51 128.5q0 95 61.5 159t157.5 64q83 0 134 -50t51 -128q0 -95 -62 -159t-156 -64zM733 -20q-280 0 -443 138.5
t-163 368.5q0 49 10 117l162 912h358l-159 -904q-9 -61 -9 -80q0 -121 73 -188.5t202 -67.5q144 0 251.5 93t133.5 237l160 910h358l-166 -936q-33 -182 -139 -318.5t-268.5 -209t-360.5 -72.5z" />
    <glyph glyph-name="Yacute" unicode="&#xdd;" horiz-adv-x="1452" 
d="M696 1665l346 342h394l-455 -342h-285zM426 0l100 530l-358 986h375l217 -668l440 668h391l-704 -986l-101 -530h-360z" />
    <glyph glyph-name="Thorn" unicode="&#xde;" horiz-adv-x="1411" 
d="M918 1288q219 0 347 -116t128 -310q0 -177 -86.5 -316.5t-236 -215.5t-333.5 -76h-280l-45 -254h-361l268 1516h361l-41 -228h279zM752 551q124 0 198 77t74 201q0 76 -45 119t-129 43h-262l-78 -440h242z" />
    <glyph glyph-name="germandbls" unicode="&#xdf;" horiz-adv-x="1304" 
d="M631 -20q-107 0 -182 28l49 283q43 -12 106 -12q110 0 183 71t73 180q0 87 -57.5 138t-161.5 51l49 272q93 0 151 60.5t58 146.5q0 57 -37.5 90t-103.5 33q-75 0 -128 -48t-65 -122l-205 -1151h-348l215 1210q32 188 186 298t378 110q217 0 344 -100t127 -265
q0 -126 -63 -228t-183 -171q91 -51 142.5 -134.5t51.5 -191.5q0 -115 -45 -216.5t-122.5 -174.5t-184.5 -115t-227 -42z" />
    <glyph glyph-name="agrave" unicode="&#xe0;" horiz-adv-x="1220" 
d="M913 1266h-286l-330 342h395zM209 1116h969l-199 -1116h-334l17 115q-63 -66 -143.5 -100.5t-164.5 -34.5q-163 0 -259.5 84t-96.5 223q0 130 73.5 225.5t192.5 142.5t266 47q111 0 222 -24l28 166h-620zM465 227q83 0 154 63t94 163q-82 12 -140 12q-94 0 -154.5 -41
t-60.5 -105q0 -43 26.5 -67.5t80.5 -24.5z" />
    <glyph glyph-name="aacute" unicode="&#xe1;" horiz-adv-x="1220" 
d="M1260 1608l-455 -342h-285l346 342h394zM160 844l49 272h969l-199 -1116h-334l17 115q-63 -66 -143.5 -100.5t-164.5 -34.5q-163 0 -259.5 84t-96.5 223q0 130 73.5 225.5t192.5 142.5t266 47q111 0 222 -24l28 166h-620zM465 227q83 0 154 63t94 163q-82 12 -140 12
q-94 0 -154.5 -41t-60.5 -105q0 -43 26.5 -67.5t80.5 -24.5z" />
    <glyph glyph-name="acircumflex" unicode="&#xe2;" horiz-adv-x="1220" 
d="M760 1417l-150 -151h-309l332 342h328l206 -342h-309zM209 1116h969l-199 -1116h-334l17 115q-63 -66 -143.5 -100.5t-164.5 -34.5q-163 0 -259.5 84t-96.5 223q0 130 73.5 225.5t192.5 142.5t266 47q111 0 222 -24l28 166h-620zM465 227q83 0 154 63t94 163
q-82 12 -140 12q-94 0 -154.5 -41t-60.5 -105q0 -43 26.5 -67.5t80.5 -24.5z" />
    <glyph glyph-name="atilde" unicode="&#xe3;" horiz-adv-x="1220" 
d="M598 1358q-42 0 -64.5 -19t-29.5 -61h-191q27 142 111.5 234t193.5 92q52 0 111 -25t109 -49.5t82 -24.5q41 0 64 18.5t30 59.5h190q-25 -150 -107.5 -238t-197.5 -88q-49 0 -107.5 25.5t-110.5 50.5t-83 25zM160 844l49 272h969l-199 -1116h-334l17 115
q-63 -66 -143.5 -100.5t-164.5 -34.5q-163 0 -259.5 84t-96.5 223q0 130 73.5 225.5t192.5 142.5t266 47q111 0 222 -24l28 166h-620zM465 227q83 0 154 63t94 163q-82 12 -140 12q-94 0 -154.5 -41t-60.5 -105q0 -43 26.5 -67.5t80.5 -24.5z" />
    <glyph glyph-name="adieresis" unicode="&#xe4;" horiz-adv-x="1220" 
d="M473 1245q-85 0 -135.5 49.5t-50.5 128.5q0 95 61.5 159.5t157.5 64.5q82 0 132 -50t50 -129q0 -95 -60.5 -159t-154.5 -64zM1022 1245q-84 0 -135 49.5t-51 128.5q0 95 61.5 159.5t157.5 64.5q83 0 133.5 -50t50.5 -129q0 -95 -61.5 -159t-155.5 -64zM160 844l49 272
h969l-199 -1116h-334l17 115q-63 -66 -143.5 -100.5t-164.5 -34.5q-163 0 -259.5 84t-96.5 223q0 130 73.5 225.5t192.5 142.5t266 47q111 0 222 -24l28 166h-620zM465 227q83 0 154 63t94 163q-82 12 -140 12q-94 0 -154.5 -41t-60.5 -105q0 -43 26.5 -67.5t80.5 -24.5z
" />
    <glyph glyph-name="aring" unicode="&#xe5;" horiz-adv-x="1220" 
d="M739 1196q-106 0 -168.5 55.5t-62.5 147.5q0 111 76.5 178.5t193.5 67.5q105 0 167.5 -55.5t62.5 -145.5q0 -112 -76 -180t-193 -68zM768 1491q-37 0 -61.5 -24.5t-24.5 -57.5q0 -29 18 -44t48 -15q37 0 61.5 24.5t24.5 59.5q0 26 -18 41.5t-48 15.5zM209 1116h969
l-199 -1116h-334l17 115q-63 -66 -143.5 -100.5t-164.5 -34.5q-163 0 -259.5 84t-96.5 223q0 130 73.5 225.5t192.5 142.5t266 47q111 0 222 -24l28 166h-620zM465 227q83 0 154 63t94 163q-82 12 -140 12q-94 0 -154.5 -41t-60.5 -105q0 -43 26.5 -67.5t80.5 -24.5z" />
    <glyph glyph-name="ae" unicode="&#xe6;" horiz-adv-x="1918" 
d="M1812 436h-768v-16q0 -79 42.5 -123.5t123.5 -44.5q147 0 260 113l254 -152q-89 -109 -217 -171t-272 -62q-140 0 -246.5 52.5t-169.5 147.5q-77 -97 -196 -148.5t-248 -51.5q-174 0 -277.5 84t-103.5 223q0 130 73 225.5t192 142.5t267 47q111 0 219 -24l3 8q4 14 4 41
q0 137 -187 137q-142 0 -260 -80l-129 220q102 70 212 101.5t249 31.5q113 0 200 -41t142 -113q179 154 399 154q221 0 347 -125t126 -336q0 -133 -39 -240zM1346 864q-87 0 -151 -52.5t-101 -141.5h409v14q0 93 -38 136.5t-119 43.5zM461 227q83 0 154 63.5t92 162.5
q-79 12 -138 12q-94 0 -155.5 -41t-61.5 -105q0 -43 27.5 -67.5t81.5 -24.5z" />
    <glyph glyph-name="ccedilla" unicode="&#xe7;" horiz-adv-x="989" 
d="M729 840q-95 0 -171.5 -50t-116.5 -128.5t-40 -167.5q0 -99 58.5 -157t165.5 -58q137 0 227 67l-55 -326q-68 -36 -189 -40l-61 -80q78 -7 122 -48t44 -104q0 -97 -88 -158t-228 -61q-129 0 -202 49l81 121q46 -33 109 -33q45 0 71.5 17.5t26.5 44.5q0 41 -67 41
q-27 0 -70 -15l-31 76l115 166q-181 37 -283 160t-102 307q0 144 54 269.5t147.5 214t224.5 139.5t279 51q57 0 118.5 -15t102.5 -37l-51 -299q-85 54 -191 54z" />
    <glyph glyph-name="egrave" unicode="&#xe8;" horiz-adv-x="1269" 
d="M930 1266h-287l-330 342h396zM1163 436h-768v-16q0 -79 42 -123.5t122 -44.5q136 0 262 113l252 -152q-90 -108 -226 -170.5t-288 -62.5q-239 0 -377.5 128t-138.5 345q0 142 50 268t136.5 217.5t209.5 145t263 53.5q233 0 366.5 -126.5t133.5 -340.5q0 -127 -39 -234z
M696 864q-88 0 -152.5 -52t-101.5 -142h412v14q0 90 -42 135t-116 45z" />
    <glyph glyph-name="eacute" unicode="&#xe9;" horiz-adv-x="1269" 
d="M1276 1608l-455 -342h-284l346 342h393zM702 1137q233 0 366.5 -126.5t133.5 -340.5q0 -127 -39 -234h-768v-16q0 -79 42 -123.5t122 -44.5q136 0 262 113l252 -152q-90 -108 -226 -170.5t-288 -62.5q-239 0 -377.5 128t-138.5 345q0 142 50 268t136.5 217.5t209.5 145
t263 53.5zM696 864q-88 0 -152.5 -52t-101.5 -142h412v14q0 90 -42 135t-116 45z" />
    <glyph glyph-name="ecircumflex" unicode="&#xea;" horiz-adv-x="1269" 
d="M776 1417l-149 -151h-310l332 342h328l207 -342h-310zM1163 436h-768v-16q0 -79 42 -123.5t122 -44.5q136 0 262 113l252 -152q-90 -108 -226 -170.5t-288 -62.5q-239 0 -377.5 128t-138.5 345q0 142 50 268t136.5 217.5t209.5 145t263 53.5q233 0 366.5 -126.5
t133.5 -340.5q0 -127 -39 -234zM696 864q-88 0 -152.5 -52t-101.5 -142h412v14q0 90 -42 135t-116 45z" />
    <glyph glyph-name="edieresis" unicode="&#xeb;" horiz-adv-x="1269" 
d="M489 1245q-85 0 -135.5 49.5t-50.5 128.5q0 95 61.5 159.5t157.5 64.5q82 0 132.5 -50t50.5 -129q0 -95 -61 -159t-155 -64zM1038 1245q-84 0 -135 49.5t-51 128.5q0 95 61.5 159.5t157.5 64.5q83 0 133.5 -50t50.5 -129q0 -95 -61.5 -159t-155.5 -64zM702 1137
q233 0 366.5 -126.5t133.5 -340.5q0 -127 -39 -234h-768v-16q0 -79 42 -123.5t122 -44.5q136 0 262 113l252 -152q-90 -108 -226 -170.5t-288 -62.5q-239 0 -377.5 128t-138.5 345q0 142 50 268t136.5 217.5t209.5 145t263 53.5zM696 864q-88 0 -152.5 -52t-101.5 -142h412
v14q0 90 -42 135t-116 45z" />
    <glyph glyph-name="igrave" unicode="&#xec;" horiz-adv-x="602" 
d="M307 1266l-330 342h396l221 -342h-287zM12 0l199 1116h348l-199 -1116h-348z" />
    <glyph glyph-name="iacute" unicode="&#xed;" horiz-adv-x="602" 
d="M201 1266l346 342h393l-455 -342h-284zM12 0l199 1116h348l-199 -1116h-348z" />
    <glyph glyph-name="icircumflex" unicode="&#xee;" horiz-adv-x="602" 
d="M440 1417l-149 -151h-309l331 342h328l207 -342h-309zM12 0l199 1116h348l-199 -1116h-348z" />
    <glyph glyph-name="idieresis" unicode="&#xef;" horiz-adv-x="602" 
d="M154 1245q-85 0 -136 49.5t-51 128.5q0 95 61.5 159.5t157.5 64.5q82 0 132.5 -50t50.5 -129q0 -95 -60.5 -159t-154.5 -64zM702 1245q-84 0 -135 49.5t-51 128.5q0 95 61.5 159.5t157.5 64.5q83 0 134 -50t51 -129q0 -95 -62 -159t-156 -64zM12 0l199 1116h348
l-199 -1116h-348z" />
    <glyph glyph-name="eth" unicode="&#xf0;" horiz-adv-x="1361" 
d="M1010 1413q290 -274 290 -627q0 -162 -53 -309.5t-146 -257t-227.5 -174.5t-289.5 -65q-248 0 -393.5 130.5t-145.5 350.5q0 173 80 322t223 239t316 90q147 0 245 -72q-1 2 -4 5.5t-4 5.5q-64 102 -180 198l-121 -69l-172 123l119 69q-56 35 -113 64l301 178
q60 -33 107 -68l121 72l165 -137zM627 279q108 0 189.5 79.5t103.5 206.5q4 46 4 60q0 101 -61.5 158t-166.5 57q-125 0 -210 -100.5t-85 -231.5q0 -106 60.5 -167.5t165.5 -61.5z" />
    <glyph glyph-name="ntilde" unicode="&#xf1;" horiz-adv-x="1355" 
d="M668 1358q-42 0 -65 -19t-30 -61h-190q27 142 111.5 234t193.5 92q52 0 110.5 -25t108.5 -49.5t82 -24.5q41 0 64 18.5t30 59.5h191q-25 -150 -107.5 -238t-197.5 -88q-49 0 -107.5 25.5t-110.5 50.5t-83 25zM872 1137q178 0 281.5 -98.5t103.5 -260.5q0 -49 -8 -90
l-121 -688h-348l113 645q6 27 6 45q0 72 -47.5 111t-134.5 39q-92 0 -160 -54t-82 -135l-117 -651h-348l197 1116h336l-15 -108q144 129 344 129z" />
    <glyph glyph-name="ograve" unicode="&#xf2;" horiz-adv-x="1355" 
d="M684 1266l-330 342h396l221 -342h-287zM582 -20q-247 0 -393 130.5t-146 350.5q0 192 91 346.5t251 242t358 87.5q248 0 392.5 -130t144.5 -350q0 -192 -90.5 -347t-250 -242.5t-357.5 -87.5zM629 279q124 0 208.5 100.5t84.5 230.5q0 106 -60 168t-164 62
q-127 0 -213 -101t-86 -231q0 -106 61.5 -167.5t168.5 -61.5z" />
    <glyph glyph-name="oacute" unicode="&#xf3;" horiz-adv-x="1355" 
d="M578 1266l346 342h393l-455 -342h-284zM582 -20q-247 0 -393 130.5t-146 350.5q0 192 91 346.5t251 242t358 87.5q248 0 392.5 -130t144.5 -350q0 -192 -90.5 -347t-250 -242.5t-357.5 -87.5zM629 279q124 0 208.5 100.5t84.5 230.5q0 106 -60 168t-164 62
q-127 0 -213 -101t-86 -231q0 -106 61.5 -167.5t168.5 -61.5z" />
    <glyph glyph-name="ocircumflex" unicode="&#xf4;" horiz-adv-x="1355" 
d="M817 1417l-149 -151h-310l332 342h328l207 -342h-310zM743 1137q248 0 392.5 -130t144.5 -350q0 -192 -90.5 -347t-250 -242.5t-357.5 -87.5q-247 0 -393 130.5t-146 350.5q0 192 91 346.5t251 242t358 87.5zM629 279q124 0 208.5 100.5t84.5 230.5q0 106 -60 168
t-164 62q-127 0 -213 -101t-86 -231q0 -106 61.5 -167.5t168.5 -61.5z" />
    <glyph glyph-name="otilde" unicode="&#xf5;" horiz-adv-x="1355" 
d="M956 1257q-49 0 -107.5 25.5t-110.5 50.5t-83 25q-42 0 -64.5 -19t-29.5 -61h-190q27 142 111.5 234t193.5 92q52 0 110.5 -25t108.5 -49.5t82 -24.5q41 0 64 18.5t30 59.5h191q-25 -150 -108 -238t-198 -88zM582 -20q-247 0 -393 130.5t-146 350.5q0 192 91 346.5
t251 242t358 87.5q248 0 392.5 -130t144.5 -350q0 -192 -90.5 -347t-250 -242.5t-357.5 -87.5zM629 279q124 0 208.5 100.5t84.5 230.5q0 106 -60 168t-164 62q-127 0 -213 -101t-86 -231q0 -106 61.5 -167.5t168.5 -61.5z" />
    <glyph glyph-name="odieresis" unicode="&#xf6;" horiz-adv-x="1355" 
d="M530 1245q-85 0 -135.5 49.5t-50.5 128.5q0 95 61.5 159.5t157.5 64.5q82 0 132 -50t50 -129q0 -95 -60.5 -159t-154.5 -64zM1079 1245q-84 0 -135 49.5t-51 128.5q0 95 61.5 159.5t157.5 64.5q83 0 133.5 -50t50.5 -129q0 -95 -61.5 -159t-155.5 -64zM582 -20
q-247 0 -393 130.5t-146 350.5q0 192 91 346.5t251 242t358 87.5q248 0 392.5 -130t144.5 -350q0 -192 -90.5 -347t-250 -242.5t-357.5 -87.5zM629 279q124 0 208.5 100.5t84.5 230.5q0 106 -60 168t-164 62q-127 0 -213 -101t-86 -231q0 -106 61.5 -167.5t168.5 -61.5z" />
    <glyph glyph-name="divide" unicode="&#xf7;" horiz-adv-x="1191" 
d="M668 944q-84 0 -135.5 49.5t-51.5 128.5q0 95 61.5 159.5t157.5 64.5q83 0 134 -50t51 -129q0 -95 -61.5 -159t-155.5 -64zM76 580l49 284h1016l-49 -284h-1016zM518 100q-83 0 -134.5 51t-51.5 134q0 89 62.5 153t154.5 64q85 0 136.5 -51t51.5 -134q0 -89 -62.5 -153
t-156.5 -64z" />
    <glyph glyph-name="oslash" unicode="&#xf8;" horiz-adv-x="1355" 
d="M1280 1032l-90 -84q90 -119 90 -291q0 -192 -90.5 -347t-250 -242.5t-357.5 -87.5q-194 0 -328 81l-86 -81l-127 106l92 86q-90 119 -90 289q0 192 91 346.5t251 242t358 87.5q191 0 326 -80l84 80zM399 508q0 -22 9 -74l405 381q-52 25 -115 25q-127 0 -213 -101
t-86 -231zM922 610q0 40 -9 74l-403 -381q49 -24 119 -24q124 0 208.5 100.5t84.5 230.5z" />
    <glyph glyph-name="ugrave" unicode="&#xf9;" horiz-adv-x="1294" 
d="M649 1266l-330 342h396l221 -342h-287zM549 -20q-221 0 -350 109t-129 290q0 47 8 88l115 649h348l-115 -647q-4 -32 -4 -49q0 -68 41 -104.5t117 -36.5q83 0 146 52.5t75 129.5l114 655h349l-119 -674q-37 -213 -199 -337.5t-397 -124.5z" />
    <glyph glyph-name="uacute" unicode="&#xfa;" horiz-adv-x="1294" 
d="M543 1266l346 342h393l-455 -342h-284zM549 -20q-221 0 -350 109t-129 290q0 47 8 88l115 649h348l-115 -647q-4 -32 -4 -49q0 -68 41 -104.5t117 -36.5q83 0 146 52.5t75 129.5l114 655h349l-119 -674q-37 -213 -199 -337.5t-397 -124.5z" />
    <glyph glyph-name="ucircumflex" unicode="&#xfb;" horiz-adv-x="1294" 
d="M782 1417l-149 -151h-309l331 342h328l207 -342h-309zM915 1116h349l-119 -674q-37 -213 -199 -337.5t-397 -124.5q-221 0 -350 109t-129 290q0 47 8 88l115 649h348l-115 -647q-4 -32 -4 -49q0 -68 41 -104.5t117 -36.5q83 0 146 52.5t75 129.5z" />
    <glyph glyph-name="udieresis" unicode="&#xfc;" horiz-adv-x="1294" 
d="M496 1245q-85 0 -136 49.5t-51 128.5q0 95 61.5 159.5t157.5 64.5q82 0 132.5 -50t50.5 -129q0 -95 -60.5 -159t-154.5 -64zM1044 1245q-84 0 -135 49.5t-51 128.5q0 95 61.5 159.5t157.5 64.5q83 0 134 -50t51 -129q0 -95 -62 -159t-156 -64zM549 -20q-221 0 -350 109
t-129 290q0 47 8 88l115 649h348l-115 -647q-4 -32 -4 -49q0 -68 41 -104.5t117 -36.5q83 0 146 52.5t75 129.5l114 655h349l-119 -674q-37 -213 -199 -337.5t-397 -124.5z" />
    <glyph glyph-name="yacute" unicode="&#xfd;" horiz-adv-x="1308" 
d="M1280 1608l-455 -342h-284l346 342h393zM803 467l115 649h348l-277 -1567h-1063l49 285h715l45 258q-129 -112 -307 -112q-167 0 -263.5 96.5t-96.5 257.5q0 49 8 96l119 686h348l-111 -643q-4 -29 -4 -51q0 -70 40.5 -106.5t115.5 -36.5q85 0 144.5 51.5t74.5 136.5z
" />
    <glyph glyph-name="thorn" unicode="&#xfe;" horiz-adv-x="1402" 
d="M870 1137q203 0 331 -129.5t128 -343.5q0 -182 -82 -339.5t-225.5 -251t-312.5 -93.5q-223 0 -324 163l-104 -594h-349l361 2048h346l-104 -593q136 133 335 133zM678 279q83 0 152 47.5t106 123t37 160.5q0 106 -60 168t-165 62q-106 0 -186.5 -76.5t-102.5 -194.5v-6
l-4 -22q-2 -12 -2 -31q0 -112 59 -171.5t166 -59.5z" />
    <glyph glyph-name="ydieresis" unicode="&#xff;" horiz-adv-x="1308" 
d="M494 1245q-85 0 -136 49.5t-51 128.5q0 95 61.5 159.5t157.5 64.5q82 0 132.5 -50t50.5 -129q0 -95 -60.5 -159t-154.5 -64zM1042 1245q-84 0 -135 49.5t-51 128.5q0 95 61.5 159.5t157.5 64.5q83 0 134 -50t51 -129q0 -95 -62 -159t-156 -64zM918 1116h348l-277 -1567
h-1063l49 285h715l45 258q-129 -112 -307 -112q-167 0 -263.5 96.5t-96.5 257.5q0 49 8 96l119 686h348l-111 -643q-4 -29 -4 -51q0 -70 40.5 -106.5t115.5 -36.5q85 0 144.5 51.5t74.5 136.5z" />
    <glyph glyph-name="Amacron" unicode="&#x100;" horiz-adv-x="1581" 
d="M1405 1925l-49 -272h-776l49 272h776zM1100 0l-53 252h-639l-146 -252h-391l907 1516h334l367 -1516h-379zM578 549h407l-108 520z" />
    <glyph glyph-name="amacron" unicode="&#x101;" horiz-adv-x="1220" 
d="M1165 1526l-49 -273h-776l49 273h776zM209 1116h969l-199 -1116h-334l17 115q-63 -66 -143.5 -100.5t-164.5 -34.5q-163 0 -259.5 84t-96.5 223q0 130 73.5 225.5t192.5 142.5t266 47q111 0 222 -24l28 166h-620zM465 227q83 0 154 63t94 163q-82 12 -140 12
q-94 0 -154.5 -41t-60.5 -105q0 -43 26.5 -67.5t80.5 -24.5z" />
    <glyph glyph-name="Abreve" unicode="&#x102;" horiz-adv-x="1581" 
d="M987 1647q-164 0 -260 80.5t-96 211.5q0 33 6 68h256q-6 -24 -6 -47q0 -115 114 -115q68 0 111.5 45.5t54.5 116.5h256q-29 -167 -147 -263.5t-289 -96.5zM1100 0l-53 252h-639l-146 -252h-391l907 1516h334l367 -1516h-379zM578 549h407l-108 520z" />
    <glyph glyph-name="abreve" unicode="&#x103;" horiz-adv-x="1220" 
d="M748 1247q-164 0 -260.5 81t-96.5 212q0 34 6 68h256q-6 -24 -6 -47q0 -115 115 -115q68 0 111.5 45.5t54.5 116.5h256q-29 -167 -147 -264t-289 -97zM160 844l49 272h969l-199 -1116h-334l17 115q-63 -66 -143.5 -100.5t-164.5 -34.5q-163 0 -259.5 84t-96.5 223
q0 130 73.5 225.5t192.5 142.5t266 47q111 0 222 -24l28 166h-620zM465 227q83 0 154 63t94 163q-82 12 -140 12q-94 0 -154.5 -41t-60.5 -105q0 -43 26.5 -67.5t80.5 -24.5z" />
    <glyph glyph-name="Aogonek" unicode="&#x104;" horiz-adv-x="1581" 
d="M1266 -223q0 -24 14.5 -38.5t40.5 -14.5q41 0 92 28l-2 -166q-90 -57 -211 -57q-90 0 -142 45t-52 119q0 154 219 307h-125l-53 252h-639l-146 -252h-391l907 1516h334l367 -1516q-213 -119 -213 -223zM578 549h407l-108 520z" />
    <glyph glyph-name="aogonek" unicode="&#x105;" horiz-adv-x="1220" 
d="M979 0q-213 -119 -213 -223q0 -24 14.5 -38.5t40.5 -14.5q41 0 92 28l-2 -166q-90 -57 -211 -57q-90 0 -142 45t-52 119q0 154 219 307h-80l17 115q-63 -66 -143.5 -100.5t-164.5 -34.5q-163 0 -259.5 84t-96.5 223q0 130 73.5 225.5t192.5 142.5t266 47q111 0 222 -24
l28 166h-620l49 272h969zM465 227q83 0 154 63t94 163q-82 12 -140 12q-94 0 -154.5 -41t-60.5 -105q0 -43 26.5 -67.5t80.5 -24.5z" />
    <glyph glyph-name="Cacute" unicode="&#x106;" horiz-adv-x="1323" 
d="M844 1665l346 342h393l-455 -342h-284zM799 -20q-330 0 -521.5 174t-191.5 467q0 195 72.5 365.5t198 291t301 189.5t374.5 69q193 0 340 -86l-55 -307q-108 96 -318 96q-154 0 -279.5 -83t-194 -218.5t-68.5 -292.5q0 -170 98 -269.5t270 -99.5q221 0 377 119l-59 -342
q-142 -73 -344 -73z" />
    <glyph glyph-name="cacute" unicode="&#x107;" horiz-adv-x="989" 
d="M549 1266l346 342h393l-454 -342h-285zM588 -20q-250 0 -396.5 130.5t-146.5 352.5q0 144 54 269.5t147.5 214t224.5 139.5t279 51q57 0 118.5 -15t102.5 -37l-51 -299q-85 54 -191 54q-95 0 -171.5 -50t-116.5 -128.5t-40 -167.5q0 -99 58.5 -157t165.5 -58
q137 0 227 67l-55 -326q-79 -40 -209 -40z" />
    <glyph glyph-name="Cdotaccent" unicode="&#x10a;" horiz-adv-x="1323" 
d="M1071 1645q-84 0 -135 49.5t-51 128.5q0 95 61.5 159t155.5 64q84 0 134 -49.5t50 -128.5q0 -95 -60 -159t-155 -64zM799 -20q-330 0 -521.5 174t-191.5 467q0 195 72.5 365.5t198 291t301 189.5t374.5 69q193 0 340 -86l-55 -307q-108 96 -318 96q-154 0 -279.5 -83
t-194 -218.5t-68.5 -292.5q0 -170 98 -269.5t270 -99.5q221 0 377 119l-59 -342q-142 -73 -344 -73z" />
    <glyph glyph-name="cdotaccent" unicode="&#x10b;" horiz-adv-x="989" 
d="M776 1245q-84 0 -135 49.5t-51 128.5q0 95 61.5 159.5t155.5 64.5q84 0 134 -50t50 -129q0 -95 -60 -159t-155 -64zM588 -20q-250 0 -396.5 130.5t-146.5 352.5q0 144 54 269.5t147.5 214t224.5 139.5t279 51q57 0 118.5 -15t102.5 -37l-51 -299q-85 54 -191 54
q-95 0 -171.5 -50t-116.5 -128.5t-40 -167.5q0 -99 58.5 -157t165.5 -58q137 0 227 67l-55 -326q-79 -40 -209 -40z" />
    <glyph glyph-name="Ccaron" unicode="&#x10c;" horiz-adv-x="1323" 
d="M891 1665l-215 342h319l92 -145l144 145h311l-328 -342h-323zM86 621q0 195 72.5 365.5t198 291t301 189.5t374.5 69q193 0 340 -86l-55 -307q-108 96 -318 96q-154 0 -279.5 -83t-194 -218.5t-68.5 -292.5q0 -170 98 -269.5t270 -99.5q221 0 377 119l-59 -342
q-142 -73 -344 -73q-330 0 -521.5 174t-191.5 467z" />
    <glyph glyph-name="ccaron" unicode="&#x10d;" horiz-adv-x="989" 
d="M596 1266l-215 342h319l93 -146l143 146h311l-327 -342h-324zM45 463q0 144 54 269.5t147.5 214t224.5 139.5t279 51q57 0 118.5 -15t102.5 -37l-51 -299q-85 54 -191 54q-95 0 -171.5 -50t-116.5 -128.5t-40 -167.5q0 -99 58.5 -157t165.5 -58q137 0 227 67l-55 -326
q-79 -40 -209 -40q-250 0 -396.5 130.5t-146.5 352.5z" />
    <glyph glyph-name="Dcaron" unicode="&#x10e;" horiz-adv-x="1636" 
d="M729 1665l-215 342h320l92 -145l143 145h311l-327 -342h-324zM948 1516q295 0 467 -166t172 -447q0 -190 -66.5 -357.5t-183 -287.5t-282 -189t-355.5 -69h-649l268 1516h629zM739 297q90 0 169 33t136 89t98 129.5t61 155t20 164.5q0 166 -83 258.5t-243 92.5h-270
l-162 -922h274z" />
    <glyph glyph-name="dcaron" unicode="&#x10f;" horiz-adv-x="1443" 
d="M985 973l111 624h348l-283 -1597h-336l17 121q-135 -141 -342 -141q-203 0 -331 129.5t-128 343.5q0 182 82.5 339.5t226 251t312.5 93.5q222 0 323 -164zM1624 1597h318l-203 -383h-269zM623 279q106 0 185 74.5t101 191.5l2 8l4 22q3 15 3 31q0 113 -59.5 173.5
t-166.5 60.5q-124 0 -209.5 -101t-85.5 -231q0 -107 60.5 -168t165.5 -61z" />
    <glyph glyph-name="Dcroat" unicode="&#x110;" horiz-adv-x="1636" 
d="M948 1516q295 0 467 -166t172 -447q0 -190 -66.5 -357.5t-183 -287.5t-282 -189t-355.5 -69h-649l113 637h-152l43 248h152l112 631h629zM739 297q90 0 169 33t136 89t98 129.5t61 155t20 164.5q0 166 -83 258.5t-243 92.5h-270l-60 -334h301l-45 -248h-299l-59 -340h274
z" />
    <glyph glyph-name="dcroat" unicode="&#x111;" horiz-adv-x="1400" 
d="M1565 1464l-45 -247h-144l-215 -1217h-336l17 121q-135 -141 -342 -141q-203 0 -331 129.5t-128 343.5q0 182 82.5 339.5t226 251t312.5 93.5q222 0 323 -164l43 244h-319l43 247h321l23 133h348l-23 -133h144zM623 279q106 0 185 74.5t101 191.5l2 8l4 22q3 15 3 31
q0 113 -59.5 173.5t-166.5 60.5q-124 0 -209.5 -101t-85.5 -231q0 -107 60.5 -168t165.5 -61z" />
    <glyph glyph-name="Emacron" unicode="&#x112;" horiz-adv-x="1357" 
d="M1319 1925l-49 -272h-776l49 272h776zM1346 1219h-719l-54 -304h648l-54 -297h-647l-55 -321h735l-53 -297h-1096l268 1516h1080z" />
    <glyph glyph-name="emacron" unicode="&#x113;" horiz-adv-x="1269" 
d="M1182 1526l-49 -273h-777l50 273h776zM1163 436h-768v-16q0 -79 42 -123.5t122 -44.5q136 0 262 113l252 -152q-90 -108 -226 -170.5t-288 -62.5q-239 0 -377.5 128t-138.5 345q0 142 50 268t136.5 217.5t209.5 145t263 53.5q233 0 366.5 -126.5t133.5 -340.5
q0 -127 -39 -234zM696 864q-88 0 -152.5 -52t-101.5 -142h412v14q0 90 -42 135t-116 45z" />
    <glyph glyph-name="Edotaccent" unicode="&#x116;" horiz-adv-x="1357" 
d="M901 1645q-84 0 -135 49.5t-51 128.5q0 95 61.5 159t155.5 64q84 0 134 -49.5t50 -128.5q0 -95 -60 -159t-155 -64zM1346 1219h-719l-54 -304h648l-54 -297h-647l-55 -321h735l-53 -297h-1096l268 1516h1080z" />
    <glyph glyph-name="edotaccent" unicode="&#x117;" horiz-adv-x="1269" 
d="M764 1245q-84 0 -135 49.5t-51 128.5q0 95 61.5 159.5t155.5 64.5q84 0 134 -50t50 -129q0 -95 -60 -159t-155 -64zM1163 436h-768v-16q0 -79 42 -123.5t122 -44.5q136 0 262 113l252 -152q-90 -108 -226 -170.5t-288 -62.5q-239 0 -377.5 128t-138.5 345q0 142 50 268
t136.5 217.5t209.5 145t263 53.5q233 0 366.5 -126.5t133.5 -340.5q0 -127 -39 -234zM696 864q-88 0 -152.5 -52t-101.5 -142h412v14q0 90 -42 135t-116 45z" />
    <glyph glyph-name="Eogonek" unicode="&#x118;" horiz-adv-x="1357" 
d="M1346 1219h-719l-54 -304h648l-54 -297h-647l-55 -321h735l-53 -297q-213 -119 -213 -223q0 -24 14.5 -38.5t40.5 -14.5q41 0 92 28l-2 -166q-90 -57 -211 -57q-90 0 -142 45t-52 119q0 154 219 307h-842l268 1516h1080z" />
    <glyph glyph-name="eogonek" unicode="&#x119;" horiz-adv-x="1269" 
d="M1163 436h-768v-16q0 -79 42 -123.5t122 -44.5q136 0 262 113l252 -152q-134 -159 -346 -213q-213 -119 -213 -223q0 -24 14.5 -38.5t40.5 -14.5q42 0 93 28l-3 -166q-90 -57 -210 -57q-90 0 -142.5 45t-52.5 119q0 151 201 293q-194 28 -303 151.5t-109 315.5
q0 142 50 268t136.5 217.5t209.5 145t263 53.5q233 0 366.5 -126.5t133.5 -340.5q0 -127 -39 -234zM696 864q-88 0 -152.5 -52t-101.5 -142h412v14q0 90 -42 135t-116 45z" />
    <glyph glyph-name="Ecaron" unicode="&#x11a;" horiz-adv-x="1357" 
d="M721 1665l-215 342h319l93 -145l143 145h311l-328 -342h-323zM1346 1219h-719l-54 -304h648l-54 -297h-647l-55 -321h735l-53 -297h-1096l268 1516h1080z" />
    <glyph glyph-name="ecaron" unicode="&#x11b;" horiz-adv-x="1269" 
d="M584 1266l-215 342h319l92 -146l144 146h311l-328 -342h-323zM702 1137q233 0 366.5 -126.5t133.5 -340.5q0 -127 -39 -234h-768v-16q0 -79 42 -123.5t122 -44.5q136 0 262 113l252 -152q-90 -108 -226 -170.5t-288 -62.5q-239 0 -377.5 128t-138.5 345q0 142 50 268
t136.5 217.5t209.5 145t263 53.5zM696 864q-88 0 -152.5 -52t-101.5 -142h412v14q0 90 -42 135t-116 45z" />
    <glyph glyph-name="Gbreve" unicode="&#x11e;" horiz-adv-x="1691" 
d="M1071 1647q-164 0 -260 80.5t-96 211.5q0 33 6 68h256q-6 -24 -6 -47q0 -115 114 -115q68 0 111.5 45.5t54.5 116.5h256q-29 -167 -147 -263.5t-289 -96.5zM1679 881q-8 -88 -18 -148q-23 -167 -99.5 -307.5t-191 -238.5t-265.5 -152.5t-321 -54.5q-321 0 -508.5 173
t-187.5 465q0 195 70.5 365t193 291.5t295.5 191.5t371 70q340 0 536 -180l-260 -209q-108 92 -303 92q-114 0 -215 -50t-170.5 -133t-110 -191.5t-40.5 -223.5q0 -168 96 -266.5t262 -98.5q162 0 285.5 85.5t165.5 222.5h-351l54 297h712z" />
    <glyph glyph-name="gbreve" unicode="&#x11f;" horiz-adv-x="1404" 
d="M821 1247q-164 0 -260 81t-96 212q0 34 6 68h256q-6 -24 -6 -47q0 -115 115 -115q68 0 111 45.5t54 116.5h256q-29 -167 -147 -264t-289 -97zM1028 1116h336l-277 -1567h-1148l49 285h800l50 279q-136 -133 -334 -133q-203 0 -331 129.5t-128 343.5q0 182 82.5 339.5
t226 251t312.5 93.5q228 0 327 -172zM627 279q106 0 186 75.5t100 192.5l2 6l5 27q2 10 2 26q0 113 -59.5 173.5t-166.5 60.5q-125 0 -210 -100.5t-85 -231.5q0 -107 60 -168t166 -61z" />
    <glyph glyph-name="Gdotaccent" unicode="&#x120;" horiz-adv-x="1691" 
d="M1071 1645q-84 0 -135 49.5t-51 128.5q0 95 61.5 159t155.5 64q84 0 134 -49.5t50 -128.5q0 -95 -60 -159t-155 -64zM1679 881q-8 -88 -18 -148q-23 -167 -99.5 -307.5t-191 -238.5t-265.5 -152.5t-321 -54.5q-321 0 -508.5 173t-187.5 465q0 195 70.5 365t193 291.5
t295.5 191.5t371 70q340 0 536 -180l-260 -209q-108 92 -303 92q-114 0 -215 -50t-170.5 -133t-110 -191.5t-40.5 -223.5q0 -168 96 -266.5t262 -98.5q162 0 285.5 85.5t165.5 222.5h-351l54 297h712z" />
    <glyph glyph-name="gdotaccent" unicode="&#x121;" horiz-adv-x="1404" 
d="M821 1245q-84 0 -135 49.5t-51 128.5q0 95 61.5 159.5t155.5 64.5q84 0 134 -50t50 -129q0 -95 -60 -159t-155 -64zM1028 1116h336l-277 -1567h-1148l49 285h800l50 279q-136 -133 -334 -133q-203 0 -331 129.5t-128 343.5q0 182 82.5 339.5t226 251t312.5 93.5
q228 0 327 -172zM627 279q106 0 186 75.5t100 192.5l2 6l5 27q2 10 2 26q0 113 -59.5 173.5t-166.5 60.5q-125 0 -210 -100.5t-85 -231.5q0 -107 60 -168t166 -61z" />
    <glyph glyph-name="Gcommaaccent" unicode="&#x122;" horiz-adv-x="1691" 
d="M1679 881q-8 -88 -18 -148q-23 -167 -99.5 -307.5t-191 -238.5t-265.5 -152.5t-321 -54.5q-321 0 -508.5 173t-187.5 465q0 195 70.5 365t193 291.5t295.5 191.5t371 70q340 0 536 -180l-260 -209q-108 92 -303 92q-114 0 -215 -50t-170.5 -133t-110 -191.5t-40.5 -223.5
q0 -168 96 -266.5t262 -98.5q162 0 285.5 85.5t165.5 222.5h-351l54 297h712zM420 -451l135 345h317l-184 -345h-268z" />
    <glyph glyph-name="gcommaaccent" unicode="&#x123;" horiz-adv-x="1404" 
d="M1083 1597l-153 -383h-318l203 383h268zM1028 1116h336l-277 -1567h-1148l49 285h800l50 279q-136 -133 -334 -133q-203 0 -331 129.5t-128 343.5q0 182 82.5 339.5t226 251t312.5 93.5q228 0 327 -172zM627 279q106 0 186 75.5t100 192.5l2 6l5 27q2 10 2 26
q0 113 -59.5 173.5t-166.5 60.5q-125 0 -210 -100.5t-85 -231.5q0 -107 60 -168t166 -61z" />
    <glyph glyph-name="Hbar" unicode="&#x126;" horiz-adv-x="1794" 
d="M1888 1341l-45 -247h-135l-195 -1094h-358l111 625h-744l-110 -625h-361l195 1094h-135l43 247h135l30 175h361l-31 -175h744l30 175h359l-31 -175h137zM1319 922l31 172h-744l-31 -172h744z" />
    <glyph glyph-name="hbar" unicode="&#x127;" horiz-adv-x="1355" 
d="M872 1137q178 0 281.5 -98.5t103.5 -260.5q0 -49 -8 -90l-121 -688h-348l113 645q6 27 6 45q0 72 -47.5 111t-134.5 39q-92 0 -160 -54t-82 -135l-117 -651h-348l215 1217h-147l43 247h149l23 133h348l-23 -133h316l-45 -247h-316l-34 -199q142 119 333 119z" />
    <glyph glyph-name="Imacron" unicode="&#x12a;" horiz-adv-x="692" 
d="M131 1653l49 272h776l-49 -272h-776zM51 0l268 1516h361l-268 -1516h-361z" />
    <glyph glyph-name="imacron" unicode="&#x12b;" horiz-adv-x="602" 
d="M20 1253l50 273h776l-49 -273h-777zM12 0l199 1116h348l-199 -1116h-348z" />
    <glyph glyph-name="Iogonek" unicode="&#x12e;" horiz-adv-x="692" 
d="M412 0q-213 -119 -213 -223q0 -24 14.5 -38.5t40.5 -14.5q41 0 92 28l-2 -166q-90 -57 -211 -57q-90 0 -142 45t-52 119q0 154 219 307h-107l268 1516h361z" />
    <glyph glyph-name="iogonek" unicode="&#x12f;" horiz-adv-x="602" 
d="M459 1647q84 0 134 -50t50 -129q0 -95 -60 -159t-155 -64q-84 0 -135 49.5t-51 128.5q0 95 61.5 159.5t155.5 64.5zM12 0l199 1116h348l-199 -1116q-213 -119 -213 -223q0 -24 15 -38.5t41 -14.5q41 0 92 28l-2 -166q-90 -57 -211 -57q-90 0 -142.5 45t-52.5 119
q0 154 219 307h-94z" />
    <glyph glyph-name="Idotaccent" unicode="&#x130;" horiz-adv-x="692" 
d="M539 1645q-84 0 -135.5 49.5t-51.5 128.5q0 95 61.5 159t155.5 64q84 0 134.5 -49.5t50.5 -128.5q0 -95 -60 -159t-155 -64zM51 0l268 1516h361l-268 -1516h-361z" />
    <glyph glyph-name="dotlessi" unicode="&#x131;" horiz-adv-x="602" 
d="M12 0l199 1116h348l-199 -1116h-348z" />
    <glyph glyph-name="Kcommaaccent" unicode="&#x136;" horiz-adv-x="1476" 
d="M1630 1516l-717 -744l469 -772h-421l-367 625h-72l-110 -625h-361l268 1516h361l-105 -594h54l561 594h440zM344 -451l135 345h318l-185 -345h-268z" />
    <glyph glyph-name="kcommaaccent" unicode="&#x137;" horiz-adv-x="1275" 
d="M1372 1116l-594 -534l412 -582h-422l-289 444h-43l-78 -444h-348l283 1597h348l-154 -868h15l420 387h450zM233 -451l136 345h317l-184 -345h-269z" />
    <glyph glyph-name="Lacute" unicode="&#x139;" horiz-adv-x="1191" 
d="M1051 2007l-455 -342h-285l346 342h394zM465 297h645l-53 -297h-1006l268 1516h361z" />
    <glyph glyph-name="lacute" unicode="&#x13a;" horiz-adv-x="706" 
d="M285 1747l346 342h393l-455 -342h-284zM12 0l283 1597h348l-231 -1310h196l-53 -287h-543z" />
    <glyph glyph-name="Lcommaaccent" unicode="&#x13b;" horiz-adv-x="1191" 
d="M465 297h645l-53 -297h-1006l268 1516h361zM184 -451l135 345h318l-184 -345h-269z" />
    <glyph glyph-name="lcommaaccent" unicode="&#x13c;" horiz-adv-x="706" 
d="M12 0l283 1597h348l-231 -1310h196l-53 -287h-543zM-35 -451l135 345h318l-185 -345h-268z" />
    <glyph glyph-name="Lcaron" unicode="&#x13d;" horiz-adv-x="1206" 
d="M680 1516l-215 -1219h645l-53 -297h-1006l268 1516h361zM1327 1516l-231 -457h-318l180 457h369z" />
    <glyph glyph-name="lcaron" unicode="&#x13e;" horiz-adv-x="747" 
d="M12 0l283 1597h348l-231 -1310h196l-53 -287h-543zM672 1214l153 383h318l-203 -383h-268z" />
    <glyph glyph-name="Lslash" unicode="&#x141;" horiz-adv-x="1191" 
d="M465 297h645l-53 -297h-1006l92 514l-114 -70l43 263l116 71l131 738h361l-94 -531l229 145l-49 -264l-227 -143z" />
    <glyph glyph-name="lslash" unicode="&#x142;" horiz-adv-x="706" 
d="M666 866l-170 -108l-84 -471h196l-53 -287h-543l99 557l-183 -113l43 263l187 114l137 776h348l-102 -577l174 110z" />
    <glyph glyph-name="Nacute" unicode="&#x143;" horiz-adv-x="1808" 
d="M874 1665l347 342h393l-455 -342h-285zM51 0l268 1516h220l741 -908l156 908h360l-268 -1516h-215l-744 909l-157 -909h-361z" />
    <glyph glyph-name="nacute" unicode="&#x144;" horiz-adv-x="1355" 
d="M1329 1608l-455 -342h-284l346 342h393zM872 1137q178 0 281.5 -98.5t103.5 -260.5q0 -49 -8 -90l-121 -688h-348l113 645q6 27 6 45q0 72 -47.5 111t-134.5 39q-92 0 -160 -54t-82 -135l-117 -651h-348l197 1116h336l-15 -108q144 129 344 129z" />
    <glyph glyph-name="Ncommaaccent" unicode="&#x145;" horiz-adv-x="1808" 
d="M51 0l268 1516h220l741 -908l156 908h360l-268 -1516h-215l-744 909l-157 -909h-361zM467 -451l135 345h318l-185 -345h-268z" />
    <glyph glyph-name="ncommaaccent" unicode="&#x146;" horiz-adv-x="1355" 
d="M872 1137q178 0 281.5 -98.5t103.5 -260.5q0 -49 -8 -90l-121 -688h-348l113 645q6 27 6 45q0 72 -47.5 111t-134.5 39q-92 0 -160 -54t-82 -135l-117 -651h-348l197 1116h336l-15 -108q144 129 344 129zM246 -451l135 345h317l-184 -345h-268z" />
    <glyph glyph-name="Ncaron" unicode="&#x147;" horiz-adv-x="1808" 
d="M922 1665l-215 342h319l92 -145l144 145h311l-328 -342h-323zM1436 1516h360l-268 -1516h-215l-744 909l-157 -909h-361l268 1516h220l741 -908z" />
    <glyph glyph-name="ncaron" unicode="&#x148;" horiz-adv-x="1355" 
d="M637 1266l-215 342h319l93 -146l143 146h311l-327 -342h-324zM872 1137q178 0 281.5 -98.5t103.5 -260.5q0 -49 -8 -90l-121 -688h-348l113 645q6 27 6 45q0 72 -47.5 111t-134.5 39q-92 0 -160 -54t-82 -135l-117 -651h-348l197 1116h336l-15 -108q144 129 344 129z" />
    <glyph glyph-name="Eng" unicode="&#x14a;" horiz-adv-x="1808" 
d="M1436 1516h360l-268 -1516l-23 -123q-29 -162 -156 -255t-307 -93q-202 0 -303 135l119 221q62 -59 150 -59q60 0 102 39t51 100l33 180l-625 764l-157 -909h-361l268 1516h220l741 -908z" />
    <glyph glyph-name="eng" unicode="&#x14b;" horiz-adv-x="1353" 
d="M872 1137q178 0 281.5 -98.5t103.5 -260.5q0 -49 -8 -90l-143 -807q-29 -163 -141.5 -257.5t-274.5 -94.5q-143 0 -233 41l51 268q38 -12 86 -12q70 0 120.5 42.5t63.5 119.5l115 657q6 27 6 45q0 72 -47.5 111t-134.5 39q-92 0 -160 -54t-82 -135l-117 -651h-348
l197 1116h336l-15 -108q144 129 344 129z" />
    <glyph glyph-name="Omacron" unicode="&#x14c;" horiz-adv-x="1783" 
d="M682 1653l49 272h776l-49 -272h-776zM799 -20q-330 0 -521.5 174t-191.5 467q0 195 72.5 365.5t198 291t301 189.5t374.5 69q327 0 517 -173t190 -466q0 -260 -122.5 -470t-337.5 -328.5t-480 -118.5zM825 276q155 0 281 84t194 220.5t68 293.5q0 168 -98.5 266.5
t-270.5 98.5q-155 0 -281 -83t-194.5 -218.5t-68.5 -292.5q0 -170 99 -269.5t271 -99.5z" />
    <glyph glyph-name="omacron" unicode="&#x14d;" horiz-adv-x="1355" 
d="M397 1253l49 273h777l-49 -273h-777zM582 -20q-247 0 -393 130.5t-146 350.5q0 192 91 346.5t251 242t358 87.5q248 0 392.5 -130t144.5 -350q0 -192 -90.5 -347t-250 -242.5t-357.5 -87.5zM629 279q124 0 208.5 100.5t84.5 230.5q0 106 -60 168t-164 62
q-127 0 -213 -101t-86 -231q0 -106 61.5 -167.5t168.5 -61.5z" />
    <glyph glyph-name="Ohungarumlaut" unicode="&#x150;" horiz-adv-x="1783" 
d="M686 1665l279 342h391l-385 -342h-285zM1143 1665l278 342h391l-387 -342h-282zM799 -20q-330 0 -521.5 174t-191.5 467q0 195 72.5 365.5t198 291t301 189.5t374.5 69q327 0 517 -173t190 -466q0 -260 -122.5 -470t-337.5 -328.5t-480 -118.5zM825 276q155 0 281 84
t194 220.5t68 293.5q0 168 -98.5 266.5t-270.5 98.5q-155 0 -281 -83t-194.5 -218.5t-68.5 -292.5q0 -170 99 -269.5t271 -99.5z" />
    <glyph glyph-name="ohungarumlaut" unicode="&#x151;" horiz-adv-x="1355" 
d="M401 1266l279 342h391l-385 -342h-285zM858 1266l279 342h391l-387 -342h-283zM582 -20q-247 0 -393 130.5t-146 350.5q0 192 91 346.5t251 242t358 87.5q248 0 392.5 -130t144.5 -350q0 -192 -90.5 -347t-250 -242.5t-357.5 -87.5zM629 279q124 0 208.5 100.5
t84.5 230.5q0 106 -60 168t-164 62q-127 0 -213 -101t-86 -231q0 -106 61.5 -167.5t168.5 -61.5z" />
    <glyph glyph-name="OE" unicode="&#x152;" horiz-adv-x="2543" 
d="M2531 1219h-719l-53 -304h647l-53 -297h-647l-55 -321h735l-53 -297h-1096l20 117q-213 -137 -483 -137q-317 0 -502.5 173t-185.5 463q0 193 70.5 363.5t192.5 292.5t293.5 193t367.5 71q294 0 471 -160l24 140h1080zM829 276q155 0 281 84t194 220.5t68 293.5
q0 168 -98.5 266.5t-269.5 98.5q-155 0 -281.5 -83t-195 -218.5t-68.5 -292.5q0 -170 99 -269.5t271 -99.5z" />
    <glyph glyph-name="oe" unicode="&#x153;" horiz-adv-x="2134" 
d="M2028 436h-768v-16q0 -80 41.5 -124t121.5 -44q147 0 263 113l251 -152q-88 -109 -215.5 -171t-271.5 -62q-142 0 -248 56.5t-164 158.5q-88 -102 -211.5 -158.5t-269.5 -56.5q-235 0 -373.5 129.5t-138.5 345.5q0 191 86 347t241 245.5t347 89.5q148 0 257.5 -56
t168.5 -159q87 101 202 158t244 57q222 0 348.5 -125t126.5 -336q0 -128 -38 -240zM1561 864q-87 0 -151 -52.5t-101 -141.5h409v14q0 92 -38.5 136t-118.5 44zM631 279q123 0 208 100t85 231q0 106 -60 168t-164 62q-127 0 -213 -101t-86 -231q0 -106 61 -167.5t169 -61.5z
" />
    <glyph glyph-name="Racute" unicode="&#x154;" horiz-adv-x="1525" 
d="M1413 2007l-455 -342h-284l346 342h393zM1454 1096q0 -177 -91.5 -307.5t-250.5 -198.5l277 -590h-410l-227 524h-248l-92 -524h-361l268 1516h666q217 0 343 -114t126 -306zM627 1219l-70 -398h236q146 0 220 67.5t74 172.5q0 74 -45 116t-129 42h-286z" />
    <glyph glyph-name="racute" unicode="&#x155;" horiz-adv-x="876" 
d="M371 1266l346 342h393l-455 -342h-284zM10 0l199 1116h336l-21 -115q165 136 414 136l-59 -320q-158 0 -279 -73.5t-141 -182.5l-101 -561h-348z" />
    <glyph glyph-name="Rcommaaccent" unicode="&#x156;" horiz-adv-x="1525" 
d="M1454 1096q0 -177 -91.5 -307.5t-250.5 -198.5l277 -590h-410l-227 524h-248l-92 -524h-361l268 1516h666q217 0 343 -114t126 -306zM627 1219l-70 -398h236q146 0 220 67.5t74 172.5q0 74 -45 116t-129 42h-286zM352 -451l135 345h318l-184 -345h-269z" />
    <glyph glyph-name="rcommaaccent" unicode="&#x157;" horiz-adv-x="876" 
d="M10 0l199 1116h336l-21 -115q165 136 414 136l-59 -320q-158 0 -279 -73.5t-141 -182.5l-101 -561h-348zM-53 -451l135 345h317l-184 -345h-268z" />
    <glyph glyph-name="Rcaron" unicode="&#x158;" horiz-adv-x="1525" 
d="M721 1665l-215 342h319l93 -145l143 145h311l-328 -342h-323zM1454 1096q0 -177 -91.5 -307.5t-250.5 -198.5l277 -590h-410l-227 524h-248l-92 -524h-361l268 1516h666q217 0 343 -114t126 -306zM627 1219l-70 -398h236q146 0 220 67.5t74 172.5q0 74 -45 116t-129 42
h-286z" />
    <glyph glyph-name="rcaron" unicode="&#x159;" horiz-adv-x="876" 
d="M418 1266l-215 342h319l92 -146l144 146h311l-328 -342h-323zM545 1116l-21 -115q165 136 414 136l-59 -320q-158 0 -279 -73.5t-141 -182.5l-101 -561h-348l199 1116h336z" />
    <glyph glyph-name="Sacute" unicode="&#x15a;" horiz-adv-x="1347" 
d="M657 1665l347 342h393l-455 -342h-285zM578 -20q-166 0 -305 53.5t-236 150.5l156 228q163 -136 393 -136q123 0 202.5 43t79.5 119q0 54 -55 86.5t-178 69.5l-76 22q-73 22 -129 46t-107.5 57t-85 71.5t-53.5 90.5t-20 114q0 158 86 282t234 191.5t331 67.5
q302 0 512 -180l-180 -236q-142 119 -336 119q-112 0 -191 -44.5t-79 -113.5q0 -52 50 -81t161 -62l75 -20q85 -25 154.5 -59t131.5 -83.5t97 -120.5t35 -157q0 -113 -53 -210.5t-143 -164.5t-212 -105t-259 -38z" />
    <glyph glyph-name="sacute" unicode="&#x15b;" horiz-adv-x="1081" 
d="M446 1266l347 342h393l-455 -342h-285zM430 -20q-283 0 -436 147l145 195q120 -70 299 -70q68 0 117 25t49 67q0 33 -34 52t-105 34l-78 16q-134 27 -211.5 92.5t-77.5 176.5q0 181 149 301.5t365 120.5q276 0 435 -123l-166 -213q-98 63 -244 63q-74 0 -126 -20.5
t-52 -59.5q0 -21 17 -35.5t38 -22t66 -19.5l75 -23q143 -41 223 -109.5t80 -185.5q0 -125 -71.5 -219.5t-190.5 -142t-266 -47.5z" />
    <glyph glyph-name="Scedilla" unicode="&#x15e;" horiz-adv-x="1347" 
d="M827 918q85 -25 154.5 -59t131.5 -83.5t97 -120.5t35 -157q0 -136 -75 -247.5t-202 -179t-286 -85.5l-66 -86q78 -7 122 -48t44 -104q0 -97 -88 -158t-227 -61q-130 0 -203 49l82 121q46 -33 109 -33q45 0 71.5 17.5t26.5 44.5q0 41 -68 41q-26 0 -69 -15l-31 76l107 154
q-279 24 -455 200l156 228q163 -136 393 -136q123 0 202.5 43t79.5 119q0 54 -55 86.5t-178 69.5l-76 22q-73 22 -129 46t-107.5 57t-85 71.5t-53.5 90.5t-20 114q0 158 86 282t234 191.5t331 67.5q302 0 512 -180l-180 -236q-142 119 -336 119q-112 0 -191 -44.5
t-79 -113.5q0 -52 50 -81t161 -62z" />
    <glyph glyph-name="scedilla" unicode="&#x15f;" horiz-adv-x="1081" 
d="M655 684q143 -41 223 -109.5t80 -185.5q0 -162 -114.5 -268t-298.5 -133l-68 -88q78 -7 122 -48t44 -104q0 -97 -88 -158t-227 -61q-130 0 -203 49l82 121q46 -33 108 -33q45 0 72 17.5t27 44.5q0 41 -68 41q-27 0 -70 -15l-30 76l106 154q-227 18 -358 143l145 195
q120 -70 299 -70q68 0 117 25t49 67q0 33 -34 52t-105 34l-78 16q-134 27 -211.5 92.5t-77.5 176.5q0 181 149 301.5t365 120.5q276 0 435 -123l-166 -213q-98 63 -244 63q-74 0 -126 -20.5t-52 -59.5q0 -21 17 -35.5t38 -22t66 -19.5z" />
    <glyph glyph-name="Scaron" unicode="&#x160;" horiz-adv-x="1347" 
d="M705 1665l-216 342h320l92 -145l143 145h312l-328 -342h-323zM811 1239q-112 0 -191 -44.5t-79 -113.5q0 -52 50 -81t161 -62l75 -20q85 -25 154.5 -59t131.5 -83.5t97 -120.5t35 -157q0 -113 -53 -210.5t-143 -164.5t-212 -105t-259 -38q-166 0 -305 53.5t-236 150.5
l156 228q163 -136 393 -136q123 0 202.5 43t79.5 119q0 54 -55 86.5t-178 69.5l-76 22q-73 22 -129 46t-107.5 57t-85 71.5t-53.5 90.5t-20 114q0 158 86 282t234 191.5t331 67.5q302 0 512 -180l-180 -236q-142 119 -336 119z" />
    <glyph glyph-name="scaron" unicode="&#x161;" horiz-adv-x="1081" 
d="M494 1266l-215 342h319l92 -146l144 146h311l-328 -342h-323zM637 864q-74 0 -126 -20.5t-52 -59.5q0 -21 17 -35.5t38 -22t66 -19.5l75 -23q143 -41 223 -109.5t80 -185.5q0 -125 -71.5 -219.5t-190.5 -142t-266 -47.5q-283 0 -436 147l145 195q120 -70 299 -70
q68 0 117 25t49 67q0 33 -34 52t-105 34l-78 16q-134 27 -211.5 92.5t-77.5 176.5q0 181 149 301.5t365 120.5q276 0 435 -123l-166 -213q-98 63 -244 63z" />
    <glyph glyph-name="uni0162" unicode="&#x162;" horiz-adv-x="1310" 
d="M717 0h-80l-78 -100q78 -7 122 -48t44 -104q0 -97 -88 -158t-229 -61q-128 0 -201 49l82 121q46 -33 106 -33q45 0 73 17.5t28 44.5q0 41 -68 41q-32 0 -70 -15l-30 76l118 170h-88l215 1219h-446l53 297h1256l-54 -297h-450z" />
    <glyph glyph-name="uni0163" unicode="&#x163;" horiz-adv-x="856" 
d="M492 0h-72l-80 -100q78 -7 123 -48t45 -104q0 -97 -88.5 -158t-229.5 -61q-127 0 -200 49l82 121q46 -33 106 -33q45 0 73 17.5t28 44.5q0 41 -70 41q-31 0 -68 -15l-30 76l118 170h-86l146 831h-211l51 285h211l57 328h348l-57 -328h219l-51 -285h-219z" />
    <glyph glyph-name="Tcaron" unicode="&#x164;" horiz-adv-x="1310" 
d="M666 1665l-215 342h319l92 -145l144 145h311l-328 -342h-323zM1436 1516l-54 -297h-450l-215 -1219h-359l215 1219h-446l53 297h1256z" />
    <glyph glyph-name="tcaron" unicode="&#x165;" horiz-adv-x="856" 
d="M971 1597h315l-203 -383h-266zM745 1444l-57 -328h219l-51 -285h-219l-145 -831h-349l146 831h-211l51 285h211l57 328h348z" />
    <glyph glyph-name="Tbar" unicode="&#x166;" horiz-adv-x="1310" 
d="M1382 1219h-450l-62 -353h228l-45 -248h-228l-108 -618h-359l109 618h-225l43 248h227l61 353h-446l53 297h1256z" />
    <glyph glyph-name="tbar" unicode="&#x167;" horiz-adv-x="894" 
d="M856 831h-219l-25 -149h199l-43 -246h-201l-75 -436h-349l76 436h-196l43 246h198l25 149h-211l51 285h211l57 328h348l-57 -328h217z" />
    <glyph glyph-name="Umacron" unicode="&#x16a;" horiz-adv-x="1665" 
d="M618 1653l50 272h776l-49 -272h-777zM733 -20q-280 0 -443 138.5t-163 368.5q0 49 10 117l162 912h358l-159 -904q-9 -61 -9 -80q0 -121 73 -188.5t202 -67.5q144 0 251.5 93t133.5 237l160 910h358l-166 -936q-33 -182 -139 -318.5t-268.5 -209t-360.5 -72.5z" />
    <glyph glyph-name="umacron" unicode="&#x16b;" horiz-adv-x="1294" 
d="M362 1253l50 273h776l-49 -273h-777zM549 -20q-221 0 -350 109t-129 290q0 47 8 88l115 649h348l-115 -647q-4 -32 -4 -49q0 -68 41 -104.5t117 -36.5q83 0 146 52.5t75 129.5l114 655h349l-119 -674q-37 -213 -199 -337.5t-397 -124.5z" />
    <glyph glyph-name="Uring" unicode="&#x16e;" horiz-adv-x="1665" 
d="M1018 1595q-106 0 -169 56t-63 147q0 111 76.5 178.5t194.5 67.5q105 0 167 -55.5t62 -145.5q0 -112 -75.5 -180t-192.5 -68zM1026 1749q37 0 61.5 24.5t24.5 59.5q0 26 -18 41.5t-47 15.5q-37 0 -61.5 -24.5t-24.5 -57.5q0 -29 17.5 -44t47.5 -15zM733 -20
q-280 0 -443 138.5t-163 368.5q0 49 10 117l162 912h358l-159 -904q-9 -61 -9 -80q0 -121 73 -188.5t202 -67.5q144 0 251.5 93t133.5 237l160 910h358l-166 -936q-33 -182 -139 -318.5t-268.5 -209t-360.5 -72.5z" />
    <glyph glyph-name="uring" unicode="&#x16f;" horiz-adv-x="1294" 
d="M762 1196q-106 0 -169 56t-63 147q0 111 76.5 178.5t194.5 67.5q105 0 167 -55.5t62 -145.5q0 -112 -75.5 -180t-192.5 -68zM770 1350q37 0 61.5 24.5t24.5 59.5q0 26 -18 41.5t-47 15.5q-37 0 -61.5 -24.5t-24.5 -57.5q0 -29 17.5 -44t47.5 -15zM549 -20
q-221 0 -350 109t-129 290q0 47 8 88l115 649h348l-115 -647q-4 -32 -4 -49q0 -68 41 -104.5t117 -36.5q83 0 146 52.5t75 129.5l114 655h349l-119 -674q-37 -213 -199 -337.5t-397 -124.5z" />
    <glyph glyph-name="Uhungarumlaut" unicode="&#x170;" horiz-adv-x="1665" 
d="M623 1665l278 342h391l-385 -342h-284zM1079 1665l279 342h391l-387 -342h-283zM733 -20q-280 0 -443 138.5t-163 368.5q0 49 10 117l162 912h358l-159 -904q-9 -61 -9 -80q0 -121 73 -188.5t202 -67.5q144 0 251.5 93t133.5 237l160 910h358l-166 -936
q-33 -182 -139 -318.5t-268.5 -209t-360.5 -72.5z" />
    <glyph glyph-name="uhungarumlaut" unicode="&#x171;" horiz-adv-x="1294" 
d="M367 1266l278 342h391l-385 -342h-284zM823 1266l279 342h391l-387 -342h-283zM549 -20q-221 0 -350 109t-129 290q0 47 8 88l115 649h348l-115 -647q-4 -32 -4 -49q0 -68 41 -104.5t117 -36.5q83 0 146 52.5t75 129.5l114 655h349l-119 -674q-37 -213 -199 -337.5
t-397 -124.5z" />
    <glyph glyph-name="Uogonek" unicode="&#x172;" horiz-adv-x="1665" 
d="M1309 1516h358l-166 -936q-41 -227 -193.5 -379.5t-379.5 -200.5q-211 -120 -211 -223q0 -24 14.5 -38.5t40.5 -14.5q41 0 92 28l-2 -166q-90 -57 -211 -57q-90 0 -142 45t-52 119q0 147 196 291q-246 20 -386 155.5t-140 347.5q0 49 10 117l162 912h358l-159 -904
q-9 -61 -9 -80q0 -121 73 -188.5t202 -67.5q144 0 251.5 93t133.5 237z" />
    <glyph glyph-name="uogonek" unicode="&#x173;" horiz-adv-x="1294" 
d="M915 1116h349l-119 -674q-29 -170 -142 -286t-282 -156q-211 -120 -211 -223q0 -24 14.5 -38.5t40.5 -14.5q41 0 92 28l-2 -166q-90 -57 -211 -57q-90 0 -142 45t-52 119q0 147 201 293q-178 25 -279.5 129.5t-101.5 263.5q0 47 8 88l115 649h348l-115 -647
q-4 -32 -4 -49q0 -68 41 -104.5t117 -36.5q83 0 146 52.5t75 129.5z" />
    <glyph glyph-name="Wcircumflex" unicode="&#x174;" horiz-adv-x="2361" 
d="M1386 1817l-149 -152h-309l332 342h327l207 -342h-309zM2128 1516h389l-782 -1516h-334l-152 1034l-522 -1034h-334l-246 1516h379l133 -1035l502 1035h332l137 -1035z" />
    <glyph glyph-name="wcircumflex" unicode="&#x175;" horiz-adv-x="1882" 
d="M1077 1417l-149 -151h-310l332 342h328l207 -342h-309zM1573 1116h385l-592 -1116h-348l-62 713l-323 -713h-348l-199 1116h375l86 -721l330 721h282l70 -721z" />
    <glyph glyph-name="Ycircumflex" unicode="&#x176;" horiz-adv-x="1452" 
d="M936 1817l-150 -152h-309l332 342h328l206 -342h-309zM1200 1516h391l-704 -986l-101 -530h-360l100 530l-358 986h375l217 -668z" />
    <glyph glyph-name="ycircumflex" unicode="&#x177;" horiz-adv-x="1308" 
d="M780 1417l-149 -151h-309l331 342h328l207 -342h-309zM918 1116h348l-277 -1567h-1063l49 285h715l45 258q-129 -112 -307 -112q-167 0 -263.5 96.5t-96.5 257.5q0 49 8 96l119 686h348l-111 -643q-4 -29 -4 -51q0 -70 40.5 -106.5t115.5 -36.5q85 0 144.5 51.5
t74.5 136.5z" />
    <glyph glyph-name="Ydieresis" unicode="&#x178;" horiz-adv-x="1452" 
d="M649 1645q-85 0 -135.5 49.5t-50.5 128.5q0 95 61.5 159t157.5 64q82 0 132 -49.5t50 -128.5q0 -95 -60.5 -159t-154.5 -64zM1198 1645q-84 0 -135 49.5t-51 128.5q0 95 61.5 159t157.5 64q83 0 133.5 -49.5t50.5 -128.5q0 -95 -61.5 -159t-155.5 -64zM426 0l100 530
l-358 986h375l217 -668l440 668h391l-704 -986l-101 -530h-360z" />
    <glyph glyph-name="Zacute" unicode="&#x179;" horiz-adv-x="1284" 
d="M1348 2007l-455 -342h-285l346 342h394zM1374 1516l-835 -1219h626l-53 -297h-1178l838 1219h-604l53 297h1153z" />
    <glyph glyph-name="zacute" unicode="&#x17a;" horiz-adv-x="1114" 
d="M455 1266l346 342h393l-455 -342h-284zM-59 0l610 831h-447l50 285h979l-611 -829h467l-49 -287h-999z" />
    <glyph glyph-name="Zdotaccent" unicode="&#x17b;" horiz-adv-x="1284" 
d="M836 1645q-84 0 -135.5 49.5t-51.5 128.5q0 95 61.5 159t155.5 64q84 0 134.5 -49.5t50.5 -128.5q0 -95 -60 -159t-155 -64zM1374 1516l-835 -1219h626l-53 -297h-1178l838 1219h-604l53 297h1153z" />
    <glyph glyph-name="zdotaccent" unicode="&#x17c;" horiz-adv-x="1114" 
d="M682 1245q-84 0 -135 49.5t-51 128.5q0 95 61.5 159.5t155.5 64.5q84 0 134 -50t50 -129q0 -95 -60 -159t-155 -64zM-59 0l610 831h-447l50 285h979l-611 -829h467l-49 -287h-999z" />
    <glyph glyph-name="Zcaron" unicode="&#x17d;" horiz-adv-x="1284" 
d="M655 1665l-215 342h320l92 -145l143 145h312l-328 -342h-324zM1374 1516l-835 -1219h626l-53 -297h-1178l838 1219h-604l53 297h1153z" />
    <glyph glyph-name="zcaron" unicode="&#x17e;" horiz-adv-x="1114" 
d="M502 1266l-215 342h319l92 -146l144 146h311l-328 -342h-323zM154 1116h979l-611 -829h467l-49 -287h-999l610 831h-447z" />
    <glyph glyph-name="florin" unicode="&#x192;" horiz-adv-x="1058" 
d="M956 1536q109 0 211 -39l-67 -270q-33 12 -111 12q-87 0 -134 -41t-73 -117l-82 -229h287l-51 -285h-336l-272 -772h-353l273 772h-164l51 285h213l127 360q56 161 185 242.5t296 81.5z" />
    <glyph glyph-name="Scommaaccent" unicode="&#x218;" horiz-adv-x="1347" 
d="M578 -20q-166 0 -305 53.5t-236 150.5l156 228q163 -136 393 -136q123 0 202.5 43t79.5 119q0 54 -55 86.5t-178 69.5l-76 22q-73 22 -129 46t-107.5 57t-85 71.5t-53.5 90.5t-20 114q0 158 86 282t234 191.5t331 67.5q302 0 512 -180l-180 -236q-142 119 -336 119
q-112 0 -191 -44.5t-79 -113.5q0 -52 50 -81t161 -62l75 -20q85 -25 154.5 -59t131.5 -83.5t97 -120.5t35 -157q0 -113 -53 -210.5t-143 -164.5t-212 -105t-259 -38zM270 -451l136 345h317l-184 -345h-269z" />
    <glyph glyph-name="scommaaccent" unicode="&#x219;" horiz-adv-x="1081" 
d="M430 -20q-283 0 -436 147l145 195q120 -70 299 -70q68 0 117 25t49 67q0 33 -34 52t-105 34l-78 16q-134 27 -211.5 92.5t-77.5 176.5q0 181 149 301.5t365 120.5q276 0 435 -123l-166 -213q-98 63 -244 63q-74 0 -126 -20.5t-52 -59.5q0 -21 17 -35.5t38 -22t66 -19.5
l75 -23q143 -41 223 -109.5t80 -185.5q0 -125 -71.5 -219.5t-190.5 -142t-266 -47.5zM131 -451l135 345h318l-185 -345h-268z" />
    <glyph glyph-name="uni021A" unicode="&#x21a;" horiz-adv-x="1310" 
d="M1436 1516l-54 -297h-450l-215 -1219h-359l215 1219h-446l53 297h1256zM211 -451l135 345h318l-185 -345h-268z" />
    <glyph glyph-name="uni021B" unicode="&#x21b;" horiz-adv-x="856" 
d="M907 1116l-51 -285h-219l-145 -831h-349l146 831h-211l51 285h211l57 328h348l-57 -328h219zM-6 -451l135 345h317l-184 -345h-268z" />
    <glyph glyph-name="circumflex" unicode="&#x2c6;" horiz-adv-x="1228" 
d="M1059 1266h-309l-99 151l-149 -151h-309l331 342h328z" />
    <glyph glyph-name="caron" unicode="&#x2c7;" horiz-adv-x="1228" 
d="M799 1608h311l-328 -342h-323l-215 342h319l92 -146z" />
    <glyph glyph-name="breve" unicode="&#x2d8;" horiz-adv-x="1228" 
d="M588 1247q-164 0 -260.5 81t-96.5 212q0 28 7 68h256q-7 -28 -7 -47q0 -115 115 -115q68 0 111.5 45.5t54.5 116.5h256q-29 -167 -147 -264t-289 -97z" />
    <glyph glyph-name="dotaccent" unicode="&#x2d9;" horiz-adv-x="1228" 
d="M432 1245q-84 0 -135 49.5t-51 128.5q0 95 61.5 159.5t155.5 64.5q84 0 134 -50t50 -129q0 -95 -60 -159t-155 -64z" />
    <glyph glyph-name="ring" unicode="&#x2da;" horiz-adv-x="1228" 
d="M475 1196q-106 0 -168.5 55.5t-62.5 147.5q0 111 76.5 178.5t193.5 67.5q105 0 167 -55.5t62 -145.5q0 -112 -75.5 -180t-192.5 -68zM483 1350q37 0 61.5 24.5t24.5 59.5q0 26 -18 41.5t-47 15.5q-37 0 -61.5 -24.5t-24.5 -57.5q0 -29 17.5 -44t47.5 -15z" />
    <glyph glyph-name="ogonek" unicode="&#x2db;" horiz-adv-x="1228" 
d="M145 -471q-90 0 -142 45t-52 119q0 114 109.5 217.5t318.5 212.5l45 -123q-213 -119 -213 -223q0 -24 14.5 -38.5t40.5 -14.5q41 0 92 28l-2 -166q-90 -57 -211 -57z" />
    <glyph glyph-name="tilde" unicode="&#x2dc;" horiz-adv-x="1228" 
d="M760 1257q-49 0 -107.5 25.5t-110.5 50.5t-83 25q-42 0 -64.5 -19t-29.5 -61h-191q27 142 111.5 234t193.5 92q52 0 110.5 -25t108.5 -49.5t82 -24.5q41 0 64 18.5t30 59.5h191q-25 -150 -107.5 -238t-197.5 -88z" />
    <glyph glyph-name="hungarumlaut" unicode="&#x2dd;" horiz-adv-x="1228" 
d="M360 1266l279 342h391l-385 -342h-285zM817 1266l279 342h391l-387 -342h-283z" />
    <glyph glyph-name="gravecomb" unicode="&#x300;" horiz-adv-x="0" 
d="M-395 1266l-330 342h395l221 -342h-286z" />
    <glyph glyph-name="acutecomb" unicode="&#x301;" horiz-adv-x="0" 
d="M-508 1266l346 342h393l-454 -342h-285z" />
    <glyph glyph-name="uni0302" unicode="&#x302;" horiz-adv-x="0" 
d="M72 1266h-310l-98 151l-149 -151h-310l332 342h328z" />
    <glyph glyph-name="tildecomb" unicode="&#x303;" horiz-adv-x="0" 
d="M-172 1257q-49 0 -107.5 25.5t-110.5 50.5t-83 25q-42 0 -64.5 -19t-29.5 -61h-191q27 142 111.5 234t193.5 92q52 0 110.5 -25t108.5 -49.5t82 -24.5q81 0 95 78h190q-25 -150 -107.5 -238t-197.5 -88z" />
    <glyph glyph-name="uni0304" unicode="&#x304;" horiz-adv-x="0" 
d="M-717 1253l49 273h777l-50 -273h-776z" />
    <glyph glyph-name="uni0306" unicode="&#x306;" horiz-adv-x="0" 
d="M-305 1247q-164 0 -260.5 81t-96.5 212q0 28 7 68h256q-7 -28 -7 -47q0 -115 115 -115q68 0 111.5 45.5t54.5 116.5h256q-29 -167 -147 -264t-289 -97z" />
    <glyph glyph-name="uni0307" unicode="&#x307;" horiz-adv-x="0" 
d="M-152 1245q-84 0 -135 49.5t-51 128.5q0 95 61.5 159.5t155.5 64.5q84 0 134 -50t50 -129q0 -95 -60 -159t-155 -64z" />
    <glyph glyph-name="uni0308" unicode="&#x308;" horiz-adv-x="0" 
d="M-700 1245q-85 0 -136 49.5t-51 128.5q0 95 61.5 159.5t157.5 64.5q82 0 132.5 -50t50.5 -129q0 -95 -60.5 -159t-154.5 -64zM-152 1245q-84 0 -135 49.5t-51 128.5q0 95 61.5 159.5t157.5 64.5q83 0 134 -50t51 -129q0 -95 -62 -159t-156 -64z" />
    <glyph glyph-name="uni030A" unicode="&#x30a;" horiz-adv-x="0" 
d="M-207 1196q-106 0 -168.5 55.5t-62.5 147.5q0 111 76.5 178.5t193.5 67.5q105 0 167 -55.5t62 -145.5q0 -112 -75.5 -180t-192.5 -68zM-199 1350q37 0 61.5 24.5t24.5 59.5q0 26 -18 41.5t-47 15.5q-37 0 -61.5 -24.5t-24.5 -57.5q0 -29 17.5 -44t47.5 -15z" />
    <glyph glyph-name="uni030B" unicode="&#x30b;" horiz-adv-x="0" 
d="M-883 1266l279 342h391l-385 -342h-285zM-426 1266l279 342h391l-387 -342h-283z" />
    <glyph glyph-name="uni030C" unicode="&#x30c;" horiz-adv-x="0" 
d="M-188 1608h311l-328 -342h-323l-215 342h319l92 -146z" />
    <glyph glyph-name="uni0312" unicode="&#x312;" horiz-adv-x="0" 
d="M-379 1214l203 383h268l-153 -383h-318z" />
    <glyph glyph-name="uni0326" unicode="&#x326;" horiz-adv-x="0" 
d="M-616 -451l135 345h317l-184 -345h-268z" />
    <glyph glyph-name="uni0327" unicode="&#x327;" horiz-adv-x="0" 
d="M-354 -100q78 -7 122 -48t44 -104q0 -97 -88 -158t-228 -61q-130 0 -203 49l82 121q46 -33 109 -33q45 0 71.5 17.5t26.5 44.5q0 41 -67 41q-27 0 -70 -15l-31 76l119 170h191z" />
    <glyph glyph-name="uni0328" unicode="&#x328;" horiz-adv-x="0" 
d="M-410 -471q-90 0 -142 45t-52 119q0 114 109.5 217.5t318.5 212.5l45 -123q-213 -119 -213 -223q0 -24 14.5 -38.5t40.5 -14.5q41 0 92 28l-2 -166q-90 -57 -211 -57z" />
    <glyph glyph-name="uni0335" unicode="&#x335;" horiz-adv-x="0" 
d="M-1116 473l43 248h813l-45 -248h-811z" />
    <glyph glyph-name="uni0336" unicode="&#x336;" horiz-adv-x="0" 
d="M-1827 473l43 248h1735l-45 -248h-1733z" />
    <glyph glyph-name="uni0337" unicode="&#x337;" horiz-adv-x="0" 
d="M-485 901l379 240l-50 -264l-374 -238l8 45l-371 -229l43 262l373 229z" />
    <glyph glyph-name="uni0338" unicode="&#x338;" horiz-adv-x="0" 
d="M-1018 -20l-172 110l1100 1446l170 -109z" />
    <glyph glyph-name="uni0394" unicode="&#x394;" horiz-adv-x="1742" 
d="M1194 1516l367 -1516h-1608l907 1516h334zM514 297h606l-162 772z" />
    <glyph glyph-name="uni03A9" unicode="&#x3a9;" horiz-adv-x="1665" 
d="M8 0l53 297h345l10 51q-136 67 -211.5 186.5t-75.5 276.5q0 161 66.5 298t181 230t268.5 145t328 52q303 0 480 -144.5t177 -387.5q0 -222 -127.5 -398t-349.5 -268l-6 -41h336l-53 -297h-633l100 575q160 29 263.5 138t103.5 250q0 129 -86 202.5t-236 73.5
q-185 0 -315.5 -113t-130.5 -274q0 -106 58.5 -177t168.5 -100l-100 -575h-615z" />
    <glyph glyph-name="uni03BC" unicode="&#x3bc;" horiz-adv-x="1320" 
d="M930 1116h348l-199 -1116h-336l11 78q-101 -98 -219 -98q-102 0 -164 92l-92 -523h-349l279 1567h348l-115 -643v-2q-17 -92 25 -142t135 -50q81 0 139 52.5t72 133.5z" />
    <glyph glyph-name="pi" unicode="&#x3c0;" horiz-adv-x="1443" 
d="M1217 831l-87 -475q-2 -10 -2 -22q0 -55 56 -55q48 0 100 30l-29 -280q-101 -49 -221 -49q-122 0 -194 66.5t-72 174.5q0 30 4 58l98 552h-272l-147 -831h-349l148 831h-152l52 285h1284l-50 -285h-167z" />
    <glyph glyph-name="Wgrave" unicode="&#x1e80;" horiz-adv-x="2361" 
d="M1253 1665l-329 342h395l221 -342h-287zM393 0l-246 1516h379l133 -1035l502 1035h332l137 -1035l498 1035h389l-782 -1516h-334l-152 1034l-522 -1034h-334z" />
    <glyph glyph-name="wgrave" unicode="&#x1e81;" horiz-adv-x="1882" 
d="M944 1266l-330 342h396l221 -342h-287zM285 0l-199 1116h375l86 -721l330 721h282l70 -721l344 721h385l-592 -1116h-348l-62 713l-323 -713h-348z" />
    <glyph glyph-name="Wacute" unicode="&#x1e82;" horiz-adv-x="2361" 
d="M1147 1665l346 342h393l-454 -342h-285zM393 0l-246 1516h379l133 -1035l502 1035h332l137 -1035l498 1035h389l-782 -1516h-334l-152 1034l-522 -1034h-334z" />
    <glyph glyph-name="wacute" unicode="&#x1e83;" horiz-adv-x="1882" 
d="M838 1266l346 342h393l-455 -342h-284zM285 0l-199 1116h375l86 -721l330 721h282l70 -721l344 721h385l-592 -1116h-348l-62 713l-323 -713h-348z" />
    <glyph glyph-name="Wdieresis" unicode="&#x1e84;" horiz-adv-x="2361" 
d="M1100 1645q-85 0 -136 49.5t-51 128.5q0 95 62 159t158 64q82 0 132 -49.5t50 -128.5q0 -95 -60.5 -159t-154.5 -64zM1649 1645q-84 0 -135.5 49.5t-51.5 128.5q0 95 61.5 159t157.5 64q83 0 134 -50t51 -128q0 -95 -61.5 -159t-155.5 -64zM393 0l-246 1516h379
l133 -1035l502 1035h332l137 -1035l498 1035h389l-782 -1516h-334l-152 1034l-522 -1034h-334z" />
    <glyph glyph-name="wdieresis" unicode="&#x1e85;" horiz-adv-x="1882" 
d="M791 1245q-85 0 -136 49.5t-51 128.5q0 95 61.5 159.5t157.5 64.5q82 0 132.5 -50t50.5 -129q0 -95 -60.5 -159t-154.5 -64zM1339 1245q-84 0 -135 49.5t-51 128.5q0 95 61.5 159.5t157.5 64.5q83 0 133.5 -50t50.5 -129q0 -95 -61.5 -159t-155.5 -64zM285 0l-199 1116
h375l86 -721l330 721h282l70 -721l344 721h385l-592 -1116h-348l-62 713l-323 -713h-348z" />
    <glyph glyph-name="uni1E9E" unicode="&#x1e9e;" horiz-adv-x="1445" 
d="M752 -20q-137 0 -220 34l52 281q56 -19 129 -19q119 0 191.5 64t72.5 156q0 79 -64 121t-180 42l47 271q98 0 163 53.5t65 122.5q0 62 -49.5 97.5t-133.5 35.5q-92 0 -157.5 -52t-79.5 -130l-189 -1057h-358l199 1122q34 190 201.5 302t414.5 112q241 0 383.5 -99
t142.5 -261q0 -120 -66.5 -217t-185.5 -166q96 -47 150.5 -126.5t54.5 -181.5q0 -146 -78.5 -262.5t-211.5 -179.5t-293 -63z" />
    <glyph glyph-name="Ygrave" unicode="&#x1ef2;" horiz-adv-x="1452" 
d="M803 1665l-330 342h395l222 -342h-287zM426 0l100 530l-358 986h375l217 -668l440 668h391l-704 -986l-101 -530h-360z" />
    <glyph glyph-name="ygrave" unicode="&#x1ef3;" horiz-adv-x="1308" 
d="M934 1266h-287l-330 342h396zM918 1116h348l-277 -1567h-1063l49 285h715l45 258q-129 -112 -307 -112q-167 0 -263.5 96.5t-96.5 257.5q0 49 8 96l119 686h348l-111 -643q-4 -29 -4 -51q0 -70 40.5 -106.5t115.5 -36.5q85 0 144.5 51.5t74.5 136.5z" />
    <glyph glyph-name="endash" unicode="&#x2013;" horiz-adv-x="1308" 
d="M88 473l43 248h1073l-43 -248h-1073z" />
    <glyph glyph-name="emdash" unicode="&#x2014;" horiz-adv-x="2074" 
d="M88 473l43 248h1839l-43 -248h-1839z" />
    <glyph glyph-name="quoteleft" unicode="&#x2018;" horiz-adv-x="634" 
d="M725 1516l-233 -568h-367l281 568h319z" />
    <glyph glyph-name="quoteright" unicode="&#x2019;" horiz-adv-x="626" 
d="M133 948l234 568h366l-280 -568h-320z" />
    <glyph glyph-name="quotesinglbase" unicode="&#x201a;" horiz-adv-x="624" 
d="M-131 -252l231 567h369l-283 -567h-317z" />
    <glyph glyph-name="quotedblleft" unicode="&#x201c;" horiz-adv-x="1140" 
d="M725 1518l-231 -568h-369l283 568h317zM1231 1518l-234 -568h-366l280 568h320z" />
    <glyph glyph-name="quotedblright" unicode="&#x201d;" horiz-adv-x="1132" 
d="M133 946l234 567h366l-280 -567h-320zM639 946l231 567h369l-283 -567h-317z" />
    <glyph glyph-name="quotedblbase" unicode="&#x201e;" horiz-adv-x="1128" 
d="M-131 -252l231 567h369l-283 -567h-317zM373 -252l233 567h367l-281 -567h-319z" />
    <glyph glyph-name="dagger" unicode="&#x2020;" horiz-adv-x="1206" 
d="M1212 1116l-53 -297h-346l-223 -1270h-359l224 1270h-349l54 297h348l84 481h358l-84 -481h346z" />
    <glyph glyph-name="daggerdbl" unicode="&#x2021;" horiz-adv-x="1206" 
d="M1159 819h-346l-29 -164h349l-54 -297h-346l-143 -809h-359l144 809h-348l51 297h348l29 164h-349l54 297h348l84 481h358l-84 -481h346z" />
    <glyph glyph-name="bullet" unicode="&#x2022;" horiz-adv-x="841" 
d="M391 340q-119 0 -189.5 66t-70.5 178q0 135 85.5 225t223.5 90q119 0 188.5 -66t69.5 -178q0 -135 -85 -225t-222 -90z" />
    <glyph glyph-name="ellipsis" unicode="&#x2026;" horiz-adv-x="1767" 
d="M207 -20q-87 0 -144 59t-57 147q0 100 68 167t172 67q87 0 143.5 -59.5t56.5 -147.5q0 -100 -67.5 -166.5t-171.5 -66.5zM791 -20q-87 0 -144 59t-57 147q0 100 67.5 167t171.5 67q87 0 144 -59.5t57 -147.5q0 -100 -67.5 -166.5t-171.5 -66.5zM1374 -20q-87 0 -143.5 59
t-56.5 147q0 100 67.5 167t171.5 67q87 0 144 -59.5t57 -147.5q0 -100 -68 -166.5t-172 -66.5z" />
    <glyph glyph-name="perthousand" unicode="&#x2030;" horiz-adv-x="2744" 
d="M526 825q-171 0 -269.5 84t-98.5 226q0 180 130 290.5t324 110.5q169 0 267 -83t98 -222q0 -181 -128.5 -293.5t-322.5 -112.5zM473 -20l-170 110l1137 1446l172 -109zM557 1047q62 0 103.5 48t41.5 109q0 55 -31 83t-87 28q-64 0 -107 -48t-43 -110q0 -54 32 -82t91 -28
zM1305 -20q-170 0 -268.5 83.5t-98.5 225.5q0 120 61 212.5t163.5 140.5t228.5 48q169 0 266.5 -83t97.5 -222q0 -181 -128 -293t-322 -112zM2177 -20q-170 0 -268.5 83.5t-98.5 225.5q0 120 61 212.5t163.5 140.5t228.5 48q169 0 267 -83t98 -222q0 -181 -128.5 -293
t-322.5 -112zM1335 201q62 0 104 48t42 109q0 55 -31.5 83t-87.5 28q-64 0 -107 -48t-43 -110q0 -54 32 -82t91 -28zM2208 201q62 0 103.5 48t41.5 109q0 55 -31.5 83t-87.5 28q-64 0 -106.5 -48t-42.5 -110q0 -54 32 -82t91 -28z" />
    <glyph glyph-name="guilsinglleft" unicode="&#x2039;" horiz-adv-x="878" 
d="M340 78l-295 475l455 477h379l-451 -477l270 -475h-358z" />
    <glyph glyph-name="guilsinglright" unicode="&#x203a;" horiz-adv-x="880" 
d="M508 1030l293 -477l-453 -475h-381l451 475l-271 477h361z" />
    <glyph glyph-name="fraction" unicode="&#x2044;" horiz-adv-x="487" 
d="M-203 -20l-172 110l1100 1446l172 -109z" />
    <glyph glyph-name="uni2070" unicode="&#x2070;" horiz-adv-x="819" 
d="M461 799q-139 0 -219 97t-80 261q0 148 54.5 279.5t156.5 214t229 82.5q140 0 218.5 -96t78.5 -259q0 -151 -53.5 -282.5t-155 -214t-229.5 -82.5zM489 979q55 0 100 65t67 153t22 173t-27 134.5t-76 49.5q-55 0 -100.5 -65t-68.5 -154t-23 -174t27 -133.5t79 -48.5z" />
    <glyph glyph-name="uni2074" unicode="&#x2074;" horiz-adv-x="823" 
d="M463 811l29 164h-408l27 149l561 596h170l-99 -563h119l-31 -182h-122l-27 -164h-219zM332 1149h196l54 276z" />
    <glyph glyph-name="uni2075" unicode="&#x2075;" horiz-adv-x="753" 
d="M348 799q-182 0 -276 84l84 147q68 -51 190 -51q86 0 149.5 44.5t63.5 109.5q0 42 -26.5 67t-73.5 25q-37 0 -70 -17t-47 -41l-145 27l153 526h490l-31 -178h-301l-51 -145q20 6 63 6q120 0 192 -63t72 -169q0 -108 -59.5 -193.5t-158.5 -132t-218 -46.5z" />
    <glyph glyph-name="uni2076" unicode="&#x2076;" horiz-adv-x="755" 
d="M561 1372q103 0 171.5 -63.5t68.5 -165.5q0 -147 -113.5 -245.5t-275.5 -98.5q-132 0 -208.5 63.5t-76.5 171.5q0 96 46 183t128 178l297 325h244l-328 -348h47zM444 979q54 0 91.5 42t37.5 97q0 40 -23.5 64t-64.5 24q-55 0 -92 -41t-37 -100q0 -40 23.5 -63t64.5 -23z
" />
    <glyph glyph-name="uni2077" unicode="&#x2077;" horiz-adv-x="681" 
d="M217 1720h641l-461 -909h-233l375 731h-353z" />
    <glyph glyph-name="uni2078" unicode="&#x2078;" horiz-adv-x="780" 
d="M696 1280q101 -63 101 -178q0 -136 -106 -219.5t-261 -83.5q-137 0 -218 64.5t-81 172.5q0 89 47.5 154t130.5 100q-82 59 -82 158q0 126 99.5 205.5t244.5 79.5q125 0 199 -61t74 -161q0 -79 -39.5 -138t-108.5 -93zM551 1554q-45 0 -75 -35t-30 -79q0 -32 19 -50
t51 -18q45 0 75 34t30 77q0 32 -19 51.5t-51 19.5zM449 979q56 0 92.5 38.5t36.5 92.5q0 38 -25 61t-66 23q-57 0 -94 -39t-37 -92q0 -38 25 -61t68 -23z" />
    <glyph glyph-name="uni2079" unicode="&#x2079;" horiz-adv-x="755" 
d="M569 1733q131 0 208 -64t77 -172q0 -96 -46 -182.5t-128 -177.5l-297 -326h-244l328 348h-47q-103 0 -171.5 63.5t-68.5 166.5q0 147 113.5 245.5t275.5 98.5zM408 1413q0 -40 23.5 -64t64.5 -24q55 0 92 41t37 100q0 40 -23.5 63t-64.5 23q-54 0 -91.5 -42t-37.5 -97z
" />
    <glyph glyph-name="uni2080" unicode="&#x2080;" horiz-adv-x="819" 
d="M281 -217q-139 0 -219 97t-80 261q0 148 54.5 279.5t156.5 214t229 82.5q140 0 218.5 -96t78.5 -259q0 -151 -53.5 -282.5t-155 -214t-229.5 -82.5zM309 -37q55 0 100 65t67 153t22 173t-27 135t-76 50q-55 0 -100.5 -65t-68.5 -154.5t-23 -174.5t27 -133.5t79 -48.5z
" />
    <glyph glyph-name="uni2081" unicode="&#x2081;" horiz-adv-x="493" 
d="M18 -205l127 731h-125l31 179h348l-161 -910h-220z" />
    <glyph glyph-name="uni2082" unicode="&#x2082;" horiz-adv-x="761" 
d="M-98 -205l24 137l365 324q145 122 145 213q0 31 -20.5 50.5t-55.5 19.5q-42 0 -73 -34.5t-39 -86.5l-217 35q23 123 117.5 193.5t232.5 70.5q127 0 202.5 -58.5t75.5 -156.5q0 -101 -68 -193t-196 -194l-174 -142l359 2l-33 -180h-645z" />
    <glyph glyph-name="uni2083" unicode="&#x2083;" horiz-adv-x="737" 
d="M639 705l-25 -136l-233 -211q96 -12 150.5 -73.5t54.5 -155.5q0 -157 -115.5 -251.5t-292.5 -94.5q-86 0 -161 24.5t-117 63.5l102 152q60 -60 184 -60q73 0 124.5 38t51.5 97q0 47 -34 74t-95 27q-48 0 -112 -33l-47 113l252 247h-267l31 179h549z" />
    <glyph glyph-name="uni2084" unicode="&#x2084;" horiz-adv-x="823" 
d="M283 -205l28 164h-407l26 150l562 596h170l-99 -564h119l-31 -182h-123l-26 -164h-219zM152 133h196l53 277z" />
    <glyph glyph-name="uni2085" unicode="&#x2085;" horiz-adv-x="753" 
d="M168 -217q-183 0 -277 84l84 147q68 -51 191 -51q86 0 149.5 44.5t63.5 109.5q0 42 -26.5 67t-73.5 25q-37 0 -70 -16.5t-47 -40.5l-146 26l154 527h489l-30 -179h-301l-52 -145q20 6 64 6q120 0 192 -62.5t72 -168.5q0 -163 -127 -268t-309 -105z" />
    <glyph glyph-name="uni2086" unicode="&#x2086;" horiz-adv-x="755" 
d="M381 356q103 0 171.5 -63.5t68.5 -165.5q0 -147 -114 -245.5t-276 -98.5q-131 0 -207.5 63.5t-76.5 171.5q0 96 46 183t128 178l297 326h244l-328 -349h47zM264 -37q54 0 91.5 42t37.5 97q0 40 -23.5 64t-64.5 24q-55 0 -92 -41t-37 -100q0 -40 23.5 -63t64.5 -23z" />
    <glyph glyph-name="uni2087" unicode="&#x2087;" horiz-adv-x="681" 
d="M37 705h641l-461 -910h-233l374 731h-352z" />
    <glyph glyph-name="uni2088" unicode="&#x2088;" horiz-adv-x="780" 
d="M516 264q100 -62 100 -178q0 -136 -105.5 -219.5t-260.5 -83.5q-137 0 -218 64.5t-81 172.5q0 89 47.5 154t130.5 100q-82 59 -82 158q0 126 99.5 205.5t244.5 79.5q125 0 199 -60.5t74 -160.5q0 -79 -40 -139t-108 -93zM371 539q-45 0 -75 -35.5t-30 -79.5q0 -32 19 -50
t51 -18q45 0 74.5 34t29.5 77q0 33 -18.5 52.5t-50.5 19.5zM268 -37q56 0 92.5 38.5t36.5 92.5q0 38 -24.5 61t-65.5 23q-57 0 -94 -39t-37 -92q0 -38 24.5 -61t67.5 -23z" />
    <glyph glyph-name="uni2089" unicode="&#x2089;" horiz-adv-x="755" 
d="M389 717q131 0 208 -64t77 -172q0 -96 -46 -182.5t-128 -177.5l-297 -326h-244l328 348h-47q-103 0 -171.5 63.5t-68.5 166.5q0 147 113.5 245.5t275.5 98.5zM227 397q0 -40 23.5 -64t64.5 -24q55 0 92 41.5t37 100.5q0 40 -23.5 63t-64.5 23q-54 0 -91.5 -42.5
t-37.5 -97.5z" />
    <glyph glyph-name="Euro" unicode="&#x20ac;" horiz-adv-x="1763" 
d="M971 276q119 0 239.5 66t202.5 174l215 -235q-273 -301 -694 -301q-290 0 -478 135t-231 370h-170l39 220h123q2 27 10 86h-118l41 219h145q108 241 340.5 383.5t529.5 142.5q386 0 582 -252l-252 -211q-128 166 -358 166q-140 0 -254 -61.5t-189 -167.5h414l-39 -219
h-471q-9 -44 -12 -86h469l-39 -220h-404q39 -100 130 -154.5t229 -54.5z" />
    <glyph glyph-name="uni20B9" unicode="&#x20b9;" horiz-adv-x="1277" 
d="M1303 1296h-297q73 -82 88 -200h159l-39 -222h-145q-33 -109 -107 -196.5t-178 -145.5l252 -532h-411l-193 442h-16h-340l53 297h295q85 0 152.5 35t107.5 100h-532l38 222h535q-12 59 -54 91t-110 32h-348l16 88l37 209h1075z" />
    <glyph glyph-name="uni20BD" unicode="&#x20bd;" horiz-adv-x="1458" 
d="M821 569h-243l-15 -86h412l-39 -219h-412l-47 -264h-358l47 264h-121l39 219h121l14 86h-121l39 219h121l129 728h598q219 0 349 -108t130 -290q0 -122 -50 -225.5t-136.5 -174t-204.5 -110t-252 -39.5zM913 1219h-221l-61 -353h200q115 0 190 56t75 157q0 66 -48 103
t-135 37z" />
    <glyph glyph-name="trademark" unicode="&#x2122;" horiz-adv-x="1521" 
d="M739 1448h-170l-77 -436h-181l78 436h-174l27 149h524zM1325 1597h197l-58 -585h-180l39 344l-199 -344h-69l-80 352l-84 -352h-182l149 585h193l82 -331z" />
    <glyph glyph-name="oneeighth" unicode="&#x215b;" horiz-adv-x="1761" 
d="M1219 1536l172 -109l-1100 -1447l-172 110zM381 606h-219l127 731h-125l31 179h348zM1534 469q100 -62 100 -178q0 -136 -105.5 -219.5t-260.5 -83.5q-137 0 -218 64.5t-81 172.5q0 89 47.5 154t130.5 100q-82 59 -82 158q0 126 99.5 205.5t244.5 79.5q125 0 198.5 -61
t73.5 -161q0 -79 -39.5 -138.5t-107.5 -92.5zM1389 743q-45 0 -75 -35t-30 -79q0 -32 19 -50t51 -18q45 0 74.5 34t29.5 77q0 32 -18.5 51.5t-50.5 19.5zM1286 168q56 0 92.5 38.5t36.5 92.5q0 38 -24.5 61t-65.5 23q-57 0 -94 -39t-37 -92q0 -38 24.5 -61t67.5 -23z" />
    <glyph glyph-name="threeeighths" unicode="&#x215c;" horiz-adv-x="2004" 
d="M1462 1536l172 -109l-1099 -1447l-173 110zM729 940q0 -157 -115 -251.5t-292 -94.5q-86 0 -161.5 24.5t-117.5 63.5l102 152q60 -60 185 -60q73 0 124.5 38t51.5 97q0 47 -34 74t-95 27q-49 0 -113 -33l-47 113l252 247h-266l30 179h549l-24 -136l-234 -211
q96 -12 150.5 -73.5t54.5 -155.5zM1778 469q100 -62 100 -178q0 -136 -106 -219.5t-261 -83.5q-137 0 -218 64.5t-81 172.5q0 89 48 154t131 100q-82 59 -82 158q0 126 99.5 205.5t244.5 79.5q125 0 198.5 -61t73.5 -161q0 -79 -39.5 -138.5t-107.5 -92.5zM1632 743
q-45 0 -74.5 -35t-29.5 -79q0 -32 18.5 -50t50.5 -18q45 0 75 34t30 77q0 32 -19 51.5t-51 19.5zM1530 168q56 0 92.5 38.5t36.5 92.5q0 38 -24.5 61t-65.5 23q-57 0 -94 -39t-37 -92q0 -38 24.5 -61t67.5 -23z" />
    <glyph glyph-name="fiveeighths" unicode="&#x215d;" horiz-adv-x="2021" 
d="M1479 1536l172 -109l-1100 -1447l-172 110zM748 967q0 -108 -59.5 -194t-159 -132.5t-218.5 -46.5q-182 0 -276 84l84 147q68 -51 190 -51q86 0 149.5 44.5t63.5 109.5q0 42 -26.5 67t-73.5 25q-37 0 -70 -16.5t-47 -40.5l-145 26l153 527h490l-31 -179h-301l-51 -145
q20 6 63 6q120 0 192.5 -63t72.5 -168zM1794 469q100 -62 100 -178q0 -136 -105.5 -219.5t-260.5 -83.5q-137 0 -218 64.5t-81 172.5q0 89 47.5 154t130.5 100q-82 59 -82 158q0 126 99.5 205.5t244.5 79.5q125 0 199 -61t74 -161q0 -79 -39.5 -138t-108.5 -93zM1649 743
q-45 0 -75 -35t-30 -79q0 -32 19 -50t51 -18q45 0 74.5 34t29.5 77q0 32 -18.5 51.5t-50.5 19.5zM1546 168q56 0 92.5 38.5t36.5 92.5q0 38 -24.5 61t-65.5 23q-57 0 -94 -39t-37 -92q0 -38 24.5 -61t67.5 -23z" />
    <glyph glyph-name="seveneighths" unicode="&#x215e;" horiz-adv-x="1900" 
d="M1358 1536l172 -109l-1100 -1447l-172 110zM360 606h-233l375 731h-352l30 179h641zM1673 469q101 -63 101 -178q0 -136 -106 -219.5t-261 -83.5q-137 0 -218 64.5t-81 172.5q0 89 47.5 154t130.5 100q-82 59 -82 158q0 126 99.5 205.5t244.5 79.5q125 0 199 -61t74 -161
q0 -79 -39.5 -138t-108.5 -93zM1528 743q-45 0 -75 -35t-30 -79q0 -32 19 -50t51 -18q45 0 74.5 34t29.5 77q0 32 -18.5 51.5t-50.5 19.5zM1425 168q56 0 92.5 38.5t36.5 92.5q0 38 -24.5 61t-65.5 23q-57 0 -94 -39t-37 -92q0 -38 24.5 -61t67.5 -23z" />
    <glyph glyph-name="partialdiff" unicode="&#x2202;" horiz-adv-x="1441" 
d="M807 1536q276 0 434 -165t158 -447q0 -156 -41 -299t-119 -260t-184 -203.5t-243 -134t-290 -47.5q-234 0 -372 107.5t-138 287.5q0 99 40 184t112 148.5t167 112.5t210.5 81.5t237 51t251.5 24.5q-12 123 -75.5 192.5t-166.5 69.5q-111 0 -208 -51t-158 -133l-201 250
q237 231 586 231zM524 276q164 0 289 114.5t182 289.5q-113 -4 -221 -24t-200.5 -55.5t-148.5 -91.5t-56 -124q0 -51 41.5 -80t113.5 -29z" />
    <glyph glyph-name="emptyset" unicode="&#x2205;" horiz-adv-x="1413" 
d="M1339 1204l-90 -84q90 -119 90 -291q0 -192 -90.5 -347t-250 -242.5t-357.5 -87.5q-197 0 -328 81l-86 -81l-123 104l91 84q-93 123 -93 293q0 192 91 346.5t251.5 242t358.5 87.5q194 0 327 -82l87 82zM459 682q0 -42 10 -80l405 383q-56 27 -116 27q-84 0 -153.5 -48
t-107.5 -123.5t-38 -158.5zM981 782q0 43 -8 74l-404 -381q49 -24 117 -24q124 0 209.5 100.5t85.5 230.5z" />
    <glyph glyph-name="product" unicode="&#x220f;" horiz-adv-x="1513" 
d="M1522 1597l-361 -2048h-360l307 1751h-473l-309 -1751h-359l361 2048h1194z" />
    <glyph glyph-name="summation" unicode="&#x2211;" horiz-adv-x="1415" 
d="M-119 -451l33 228l737 803l-424 790l35 227h1217l-52 -297h-763l387 -720l-670 -734h811l-51 -297h-1260z" />
    <glyph glyph-name="minus" unicode="&#x2212;" horiz-adv-x="1269" 
d="M113 580l51 284h1016l-52 -284h-1015z" />
    <glyph glyph-name="radical" unicode="&#x221a;" horiz-adv-x="1640" 
d="M254 -451l-260 1117h375l123 -723l915 1654h385l-1190 -2048h-348z" />
    <glyph glyph-name="infinity" unicode="&#x221e;" horiz-adv-x="1515" 
d="M1079 928q157 0 248.5 -83t91.5 -222q0 -180 -120.5 -293t-307.5 -113q-95 0 -165 35t-109 100q-116 -135 -307 -135q-157 0 -248.5 83t-91.5 222q0 179 122 292.5t306 113.5q94 0 164.5 -35.5t109.5 -99.5q119 135 307 135zM459 438q64 0 107.5 47.5t43.5 110.5
q0 54 -29 82.5t-83 28.5q-67 0 -111.5 -48t-44.5 -112q0 -53 30 -81t87 -28zM991 438q65 0 109.5 47.5t44.5 110.5q0 54 -29.5 82.5t-83.5 28.5q-67 0 -111 -48t-44 -112q0 -53 29.5 -81t84.5 -28z" />
    <glyph glyph-name="integral" unicode="&#x222b;" horiz-adv-x="935" 
d="M88 -471q-176 0 -266 115l121 221q39 -39 96 -39q50 0 82.5 28.5t40.5 73.5l244 1379q26 144 140.5 227.5t276.5 83.5q175 0 262 -115l-116 -221q-36 39 -97 39q-51 0 -82.5 -28t-39.5 -74l-244 -1379q-26 -144 -141 -227.5t-277 -83.5z" />
    <glyph glyph-name="approxequal" unicode="&#x2248;" horiz-adv-x="1253" 
d="M842 639q-62 0 -139.5 25t-148 50t-114.5 25q-112 0 -127 -80h-188q23 142 119.5 233t224.5 91q67 0 144 -24.5t145 -49t114 -24.5q58 0 88 16.5t39 61.5h189q-26 -150 -120 -237t-226 -87zM770 229q-64 0 -141.5 25.5t-147 50.5t-112.5 25q-112 0 -129 -80h-187
q23 142 118.5 232.5t225.5 90.5q67 0 144 -24.5t145.5 -49t114.5 -24.5q58 0 88 16.5t39 61.5h186q-25 -149 -118.5 -236.5t-225.5 -87.5z" />
    <glyph glyph-name="notequal" unicode="&#x2260;" horiz-adv-x="1269" 
d="M1169 799h-309l-67 -154h348l-49 -287h-428l-109 -245h-356l108 245h-231l49 287h311l68 154h-350l49 286h430l108 246h357l-109 -246h230z" />
    <glyph glyph-name="lessequal" unicode="&#x2264;" horiz-adv-x="1265" 
d="M1090 385l-953 410l41 225l1098 410l-57 -326l-598 -199l526 -196zM0 23l51 286h1024l-49 -286h-1026z" />
    <glyph glyph-name="greaterequal" unicode="&#x2265;" horiz-adv-x="1261" 
d="M84 385l57 324l580 198l-510 197l57 326l955 -410l-41 -225zM20 23l52 286h1024l-52 -286h-1024z" />
    <glyph glyph-name="lozenge" unicode="&#x25ca;" horiz-adv-x="1331" 
d="M391 0l-317 662l540 659h326l322 -659l-545 -662h-326zM608 305l295 357l-174 354l-295 -354z" />
    <glyph glyph-name="i.loclTRK" horiz-adv-x="602" 
d="M428 1245q-84 0 -135 49.5t-51 128.5q0 95 61.5 159.5t155.5 64.5q84 0 134 -50t50 -129q0 -95 -60 -159t-155 -64zM12 0l199 1116h348l-199 -1116h-348z" />
    <glyph glyph-name="zero.lf" horiz-adv-x="1347" 
d="M590 -20q-233 0 -366.5 160.5t-133.5 432.5q0 123 24.5 243.5t68.5 227t110 197t146 156t178.5 102.5t205.5 37q231 0 363.5 -159.5t132.5 -430.5q0 -149 -33.5 -292t-98 -264.5t-152 -213.5t-202.5 -144t-243 -52zM623 276q73 0 137 64.5t104 164.5t63 214.5t23 220.5
q0 140 -42.5 219.5t-121.5 79.5q-74 0 -138 -64.5t-104.5 -164t-63.5 -213.5t-23 -219q0 -140 43.5 -221t122.5 -81z" />
    <glyph glyph-name="one.lf" horiz-adv-x="794" 
d="M160 0l215 1219h-213l53 297h571l-268 -1516h-358z" />
    <glyph glyph-name="two.lf" horiz-adv-x="1241" 
d="M-37 0l39 225l604 545q38 34 58.5 53t62 63t65 77.5t43 77.5t19.5 81q0 54 -33.5 85.5t-93.5 31.5q-72 0 -127 -57.5t-70 -143.5l-352 58q35 203 193 321.5t385 118.5q214 0 338.5 -97t124.5 -261q0 -89 -31.5 -173.5t-94.5 -165.5t-136 -151.5t-175 -152.5l-295 -244
l600 6l-53 -297h-1071z" />
    <glyph glyph-name="three.lf" horiz-adv-x="1208" 
d="M1190 1516l-39 -222l-395 -354q163 -22 255.5 -124.5t92.5 -260.5q0 -174 -90 -306t-243 -200.5t-345 -68.5q-145 0 -269.5 40.5t-193.5 106.5l164 246q50 -46 134.5 -71.5t180.5 -25.5q122 0 207.5 63.5t85.5 158.5q0 83 -57.5 128.5t-159.5 45.5q-100 0 -190 -56
l-76 189l424 414h-449l54 297h909z" />
    <glyph glyph-name="four.lf" horiz-adv-x="1353" 
d="M606 0l47 274h-676l41 246l932 996h281l-164 -945h201l-54 -297h-200l-49 -274h-359zM383 561h334l80 457z" />
    <glyph glyph-name="five.lf" horiz-adv-x="1234" 
d="M410 -20q-148 0 -266.5 36.5t-192.5 100.5l137 245q112 -86 322 -86q144 0 249 73t105 183q0 75 -45 115.5t-127 40.5q-63 0 -116 -26t-79 -64l-241 41l258 877h813l-51 -297h-502l-90 -246q66 12 108 12q200 0 322.5 -106.5t122.5 -280.5q0 -178 -100 -320.5
t-265.5 -220t-361.5 -77.5z" />
    <glyph glyph-name="six.lf" horiz-adv-x="1234" 
d="M754 934q172 0 286.5 -103t114.5 -272q0 -123 -51.5 -231t-138.5 -184t-205.5 -120t-249.5 -44q-220 0 -347.5 106.5t-127.5 286.5q0 156 75 299.5t209 292.5l500 551h402l-551 -584q13 0 40.5 1t43.5 1zM561 276q95 0 156 71.5t61 164.5q0 69 -40 109.5t-109 40.5
q-94 0 -155.5 -69.5t-61.5 -166.5q0 -69 39.5 -109.5t109.5 -40.5z" />
    <glyph glyph-name="seven.lf" horiz-adv-x="1140" 
d="M195 1516h1062l-763 -1516h-385l628 1219h-596z" />
    <glyph glyph-name="eight.lf" horiz-adv-x="1280" 
d="M985 780q168 -105 168 -295q0 -152 -83.5 -268.5t-221.5 -176.5t-305 -60q-229 0 -362.5 106.5t-133.5 284.5q0 150 80 259.5t219 168.5q-137 95 -137 264q0 139 77.5 248t206.5 167t285 58q209 0 332 -100t123 -267q0 -135 -66.5 -234t-181.5 -155zM739 1239
q-71 0 -120.5 -58t-49.5 -130q0 -55 33 -86t92 -31q71 0 120.5 57.5t49.5 126.5q0 58 -32 89.5t-93 31.5zM578 276q89 0 152 66t63 152q0 66 -42.5 104.5t-115.5 38.5q-91 0 -153 -66.5t-62 -152.5q0 -68 42 -105t116 -37z" />
    <glyph glyph-name="nine.lf" horiz-adv-x="1234" 
d="M762 1536q220 0 347.5 -106.5t127.5 -286.5q0 -155 -75.5 -299t-209.5 -293l-499 -551h-402l553 588q-54 -4 -86 -4q-173 0 -287 102t-114 272q0 163 87.5 296.5t235 207.5t322.5 74zM494 1004q0 -69 40 -109.5t109 -40.5q94 0 155.5 69.5t61.5 168.5q0 68 -39.5 107.5
t-109.5 39.5q-95 0 -156 -71t-61 -164z" />
    <glyph glyph-name="zero.osf" horiz-adv-x="1449" 
d="M641 -20q-260 0 -411.5 149t-151.5 399q0 229 99.5 415.5t274 292t388.5 105.5q260 0 410.5 -148t150.5 -398q0 -229 -99 -416t-273 -293t-388 -106zM680 279q97 0 178 69t125.5 178.5t44.5 231.5q0 134 -60 210t-167 76q-98 0 -180 -68.5t-127 -178.5t-45 -234
q0 -132 61.5 -208t169.5 -76z" />
    <glyph glyph-name="one.osf" horiz-adv-x="784" 
d="M164 0l182 1036h-201l52 285h548l-233 -1321h-348z" />
    <glyph glyph-name="two.osf" 
d="M-27 0l41 225l592 426q119 83 161 125q75 75 75 144q0 57 -38.5 90.5t-105.5 33.5q-75 0 -131.5 -52.5t-70.5 -131.5l-342 58q37 195 193.5 309t383.5 114q213 0 338 -98t125 -262q0 -84 -28 -157t-86.5 -137.5t-121 -114.5t-159.5 -115l-256 -170h553l-52 -287h-1071z
" />
    <glyph glyph-name="three.osf" horiz-adv-x="1206" 
d="M1159 1321l-39 -221l-399 -361q159 -22 248.5 -124.5t89.5 -260.5q0 -132 -51 -241.5t-140 -183t-211 -114t-264 -40.5q-148 0 -273 41.5t-188 107.5l166 244q43 -45 120.5 -69.5t164.5 -24.5q132 0 227 66t95 165q0 79 -61.5 122.5t-168.5 43.5q-93 0 -180 -53l-76 186
l436 432h-456l49 285h911z" />
    <glyph glyph-name="four.osf" horiz-adv-x="1366" 
d="M594 -225l39 225h-690l39 221l964 1100h268l-182 -1034h199l-51 -287h-199l-39 -225h-348zM348 276h344l94 512z" />
    <glyph glyph-name="five.osf" horiz-adv-x="1228" 
d="M373 -225q-301 0 -459 135l139 248q110 -84 324 -84q144 0 248 74.5t104 185.5q0 72 -44.5 112.5t-121.5 40.5q-65 0 -119.5 -25.5t-83.5 -64.5l-239 43l258 881h815l-51 -285h-518l-90 -262q82 12 124 12q194 0 312.5 -106t118.5 -281q0 -135 -57 -252t-154 -198
t-228.5 -127.5t-277.5 -46.5z" />
    <glyph glyph-name="six.osf" horiz-adv-x="1224" 
d="M743 934q181 0 286.5 -98.5t105.5 -264.5q0 -127 -49.5 -237.5t-135 -187.5t-202.5 -121.5t-248 -44.5q-214 0 -338.5 106t-124.5 287q0 147 67.5 281t192.5 272l530 590h392l-553 -586q50 4 77 4zM551 276q96 0 156.5 71t60.5 165q0 69 -40.5 109.5t-109.5 40.5
q-94 0 -155.5 -69.5t-61.5 -166.5q0 -69 40 -109.5t110 -40.5z" />
    <glyph glyph-name="seven.osf" horiz-adv-x="1169" 
d="M174 1321h1065l-782 -1550l-326 88l590 1177h-596z" />
    <glyph glyph-name="eight.osf" 
d="M969 780q166 -103 166 -293q0 -112 -48 -207.5t-129.5 -160.5t-192 -102t-233.5 -37q-223 0 -355 106.5t-132 284.5q0 147 81 258t220 170q-135 94 -135 262q0 139 75.5 248.5t202.5 168t279 58.5q206 0 326 -99t120 -266q0 -132 -65 -232.5t-180 -158.5zM733 1239
q-74 0 -123 -58t-49 -130q0 -55 32 -86t89 -31q74 0 123 57t49 129q0 56 -32 87.5t-89 31.5zM567 276q92 0 153.5 64.5t61.5 153.5q0 67 -41.5 105t-115.5 38q-92 0 -153.5 -64.5t-61.5 -154.5q0 -68 41.5 -105t115.5 -37z" />
    <glyph glyph-name="nine.osf" horiz-adv-x="1212" 
d="M723 1341q215 0 340 -104.5t125 -282.5q0 -270 -260 -561l-566 -622l-309 88l504 534q-54 -4 -78 -4q-182 0 -286.5 98t-104.5 265q0 127 49.5 237t135 187t202.5 121t248 44zM453 811q0 -70 39.5 -111t109.5 -41q94 0 155.5 72t61.5 166q0 68 -40 107.5t-109 39.5
q-95 0 -156 -67.5t-61 -165.5z" />
    <glyph glyph-name="zero.tf" 
d="M535 -20q-211 0 -333 156t-122 421q0 176 49 349.5t135.5 314t219 228t286.5 87.5q210 0 329.5 -154.5t119.5 -418.5q0 -140 -29.5 -280.5t-88.5 -266.5t-139.5 -223.5t-191.5 -155t-235 -57.5zM573 276q60 0 115 74.5t90 184t55.5 229.5t20.5 217q0 124 -32 191t-93 67
q-62 0 -117.5 -73t-91 -182t-56 -228.5t-20.5 -218.5q0 -123 33.5 -192t95.5 -69z" />
    <glyph glyph-name="one.tf" 
d="M829 297h265l-52 -297h-1034l51 297h410l162 922h-275l54 297h634z" />
    <glyph glyph-name="two.tf" 
d="M-27 0l39 225l604 545q111 102 157 158q91 111 91 194q0 54 -34 85.5t-95 31.5q-71 0 -125.5 -57.5t-68.5 -143.5l-355 58q37 203 195 321.5t385 118.5q214 0 338.5 -97t124.5 -261q0 -88 -31.5 -173t-95 -166t-135.5 -150.5t-174 -153.5l-295 -244l600 6l-54 -297h-1071
z" />
    <glyph glyph-name="three.tf" 
d="M1217 1516l-39 -222l-396 -354q162 -22 254 -125t92 -260q0 -174 -89.5 -306t-242 -200.5t-343.5 -68.5q-145 0 -270.5 40.5t-194.5 106.5l166 246q50 -46 133.5 -71.5t179.5 -25.5q122 0 207.5 63.5t85.5 158.5q0 83 -57.5 128.5t-159.5 45.5q-101 0 -191 -56l-76 189
l426 414h-450l53 297h912z" />
    <glyph glyph-name="four.tf" 
d="M539 0l47 274h-635l43 246l889 996h282l-168 -943h203l-53 -299h-201l-49 -274h-358zM356 563h293l88 449z" />
    <glyph glyph-name="five.tf" 
d="M422 -20q-148 0 -266.5 36.5t-192.5 100.5l137 245q130 -86 322 -86q144 0 249 73t105 183q0 75 -45 115.5t-127 40.5q-63 0 -115 -26t-79 -64l-242 41l258 877h813l-51 -297h-502l-90 -246q70 12 109 12q200 0 322 -106t122 -281q0 -178 -100 -320.5t-265.5 -220
t-361.5 -77.5z" />
    <glyph glyph-name="six.tf" 
d="M768 934q172 0 286.5 -103t114.5 -272q0 -163 -87 -296.5t-234.5 -208t-323.5 -74.5q-220 0 -346.5 106.5t-126.5 286.5q0 157 74.5 300t208.5 292l500 551h403l-551 -582h82zM575 276q95 0 156.5 71.5t61.5 164.5q0 69 -40.5 109.5t-109.5 40.5q-94 0 -155.5 -69.5
t-61.5 -166.5q0 -69 39.5 -109.5t109.5 -40.5z" />
    <glyph glyph-name="seven.tf" 
d="M254 1516h1061l-762 -1516h-385l627 1219h-594z" />
    <glyph glyph-name="eight.tf" 
d="M977 780q168 -105 168 -295q0 -152 -83.5 -268.5t-221.5 -176.5t-305 -60q-229 0 -362.5 106.5t-133.5 284.5q0 150 80 259.5t219 168.5q-137 95 -137 264q0 139 77.5 248t206.5 167t285 58q209 0 332 -100t123 -267q0 -135 -66.5 -234t-181.5 -155zM731 1239
q-71 0 -120.5 -58t-49.5 -130q0 -55 33 -86t90 -31q72 0 122 57.5t50 126.5q0 57 -32.5 89t-92.5 32zM567 276q90 0 153.5 65.5t63.5 152.5q0 66 -42 104.5t-115 38.5q-91 0 -153 -66.5t-62 -152.5q0 -68 41 -105t114 -37z" />
    <glyph glyph-name="nine.tf" 
d="M774 1536q220 0 346.5 -106.5t126.5 -286.5q0 -157 -74.5 -300.5t-207.5 -291.5l-500 -551h-404l551 582h-82q-172 0 -286.5 103t-114.5 271q0 163 87 297t235 208.5t323 74.5zM506 1004q0 -69 40 -109.5t109 -40.5q94 0 155.5 69.5t61.5 166.5q0 69 -39.5 109t-109.5 40
q-95 0 -156 -71t-61 -164z" />
    <glyph glyph-name="zero.tosf" 
d="M532 -20q-215 0 -339.5 142.5t-124.5 383.5q0 163 47.5 313.5t132 266.5t210.5 185.5t273 69.5q216 0 339.5 -141.5t123.5 -384.5q0 -129 -30 -252t-88 -228t-137 -184.5t-184.5 -125t-222.5 -45.5zM571 279q74 0 135 88.5t92 208t31 231.5q0 111 -34.5 174t-98.5 63
q-59 0 -110 -52t-83 -132.5t-50.5 -171.5t-18.5 -174q0 -110 35 -172.5t102 -62.5z" />
    <glyph glyph-name="one.tosf" 
d="M797 287h303l-51 -287h-1035l52 287h383l133 749h-263l50 285h610z" />
    <glyph glyph-name="two.tosf" 
d="M-25 0l39 225l592 426q119 83 161 125q75 75 75 144q0 58 -38 91t-106 33q-74 0 -130 -52.5t-70 -131.5l-342 58q35 195 191.5 309t383.5 114q214 0 338.5 -98t124.5 -262q0 -84 -28 -157t-86.5 -137.5t-121 -114.5t-159.5 -115l-254 -170h551l-49 -287h-1072z" />
    <glyph glyph-name="three.tosf" 
d="M1186 1321l-39 -221l-399 -361q159 -22 248 -124.5t89 -260.5q0 -175 -87.5 -308t-237.5 -202t-340 -69q-148 0 -273 41.5t-188 107.5l166 244q43 -45 120.5 -69.5t164.5 -24.5q132 0 226.5 66t94.5 165q0 79 -61 122.5t-168 43.5q-93 0 -180 -53l-76 186l436 432h-457
l49 285h912z" />
    <glyph glyph-name="four.tosf" 
d="M518 -225l39 225h-645l37 221l921 1100h269l-183 -1034h201l-51 -287h-201l-39 -225h-348zM317 276h299l99 490z" />
    <glyph glyph-name="five.tosf" 
d="M389 -225q-301 0 -459 135l140 248q125 -84 323 -84q144 0 248 74.5t104 185.5q0 72 -44 112.5t-121 40.5q-65 0 -119.5 -25.5t-83.5 -64.5l-240 43l258 881h815l-51 -285h-518l-88 -262q61 12 123 12q195 0 312.5 -106t117.5 -281q0 -135 -57 -252t-154 -198
t-228.5 -127.5t-277.5 -46.5z" />
    <glyph glyph-name="six.tosf" 
d="M762 934q182 0 286.5 -98t104.5 -265q0 -126 -49.5 -237t-134.5 -188t-201.5 -121.5t-247.5 -44.5q-216 0 -340.5 106t-124.5 287q0 147 67.5 281t192.5 272l533 590h389l-549 -584q25 2 74 2zM569 276q96 0 156.5 71t60.5 165q0 69 -40 109.5t-109 40.5
q-92 0 -154.5 -69.5t-62.5 -166.5q0 -69 40 -109.5t109 -40.5z" />
    <glyph glyph-name="seven.tosf" 
d="M221 1321h1063l-780 -1550l-326 88l588 1177h-594z" />
    <glyph glyph-name="eight.tosf" 
d="M969 780q166 -103 166 -293q0 -112 -48 -207.5t-129.5 -160.5t-192 -102t-233.5 -37q-223 0 -354 106.5t-131 284.5q0 147 80 257.5t219 170.5q-135 96 -135 262q0 139 76 248.5t203 168t280 58.5q205 0 326 -99.5t121 -265.5q0 -132 -66 -232t-182 -159zM733 1239
q-74 0 -123 -58t-49 -130q0 -55 32 -86t89 -31q74 0 123 57t49 129q0 56 -32 87.5t-89 31.5zM567 276q93 0 154 64t61 154q0 67 -41.5 105t-113.5 38q-93 0 -155 -64.5t-62 -154.5q0 -68 42 -105t115 -37z" />
    <glyph glyph-name="nine.tosf" 
d="M743 1341q213 0 338 -105t125 -282q0 -272 -258 -561l-565 -622l-309 88l501 534q-50 -4 -75 -4q-183 0 -287 98t-104 265q0 127 49.5 237t134.5 187t202 121t248 44zM473 811q0 -70 40 -111t110 -41q95 0 156 72t61 166q0 68 -40.5 107.5t-109.5 39.5q-95 0 -156 -67.5
t-61 -165.5z" />
    <glyph glyph-name="zero.dnom" horiz-adv-x="819" 
d="M317 -12q-139 0 -219 97t-80 261q0 88 20.5 173t59.5 157.5t92 127.5t122.5 86.5t146.5 31.5q140 0 218.5 -96t78.5 -259q0 -112 -32 -216.5t-88 -185t-139.5 -129t-179.5 -48.5zM346 168q55 0 100 65t67 153t22 173t-27 134.5t-76 49.5q-55 0 -100.5 -65t-68.5 -154
t-23 -174t27 -133.5t79 -48.5z" />
    <glyph glyph-name="one.dnom" horiz-adv-x="493" 
d="M55 0l127 731h-125l31 178h348l-162 -909h-219z" />
    <glyph glyph-name="two.dnom" horiz-adv-x="761" 
d="M-61 0l24 137l365 324q145 122 145 213q0 31 -20.5 50t-55.5 19q-42 0 -73 -34t-39 -86l-217 34q23 123 117.5 194t232.5 71q127 0 202.5 -58.5t75.5 -156.5q0 -101 -68.5 -194t-195.5 -194l-174 -141l358 2l-32 -180h-645z" />
    <glyph glyph-name="three.dnom" horiz-adv-x="737" 
d="M676 909l-25 -135l-233 -211q96 -12 150.5 -73.5t54.5 -155.5q0 -157 -115.5 -251.5t-292.5 -94.5q-86 0 -161 24.5t-117 63.5l102 151q59 -59 184 -59q73 0 124.5 38t51.5 97q0 47 -34 73.5t-95 26.5q-50 0 -112 -32l-47 112l251 248h-266l31 178h549z" />
    <glyph glyph-name="four.dnom" horiz-adv-x="823" 
d="M319 0l29 164h-407l26 149l561 596h170l-98 -563h119l-31 -182h-123l-26 -164h-220zM188 338h197l53 276z" />
    <glyph glyph-name="five.dnom" horiz-adv-x="753" 
d="M205 -12q-183 0 -277 84l84 147q68 -51 191 -51q86 0 149.5 44.5t63.5 109.5q0 42 -27 67t-74 25q-37 0 -69.5 -17t-46.5 -41l-146 27l154 526h489l-30 -178h-301l-52 -145q20 6 64 6q120 0 192 -63t72 -169q0 -108 -59.5 -193.5t-158.5 -132t-218 -46.5z" />
    <glyph glyph-name="six.dnom" horiz-adv-x="755" 
d="M418 561q103 0 171 -63t68 -166q0 -147 -113.5 -245.5t-275.5 -98.5q-131 0 -207.5 63.5t-76.5 171.5q0 96 46 183t128 178l297 325h243l-327 -348h47zM301 168q54 0 91.5 42t37.5 97q0 40 -23.5 64t-64.5 24q-55 0 -92 -41t-37 -100q0 -40 23.5 -63t64.5 -23z" />
    <glyph glyph-name="seven.dnom" horiz-adv-x="681" 
d="M74 909h641l-461 -909h-234l375 731h-352z" />
    <glyph glyph-name="eight.dnom" horiz-adv-x="780" 
d="M553 469q100 -62 100 -178q0 -136 -105.5 -219.5t-260.5 -83.5q-137 0 -218 64.5t-81 172.5q0 89 47.5 154t130.5 100q-82 59 -82 158q0 126 99.5 205.5t244.5 79.5q125 0 198.5 -61t73.5 -161q0 -79 -39.5 -138.5t-107.5 -92.5zM408 743q-45 0 -75 -35t-30 -79
q0 -32 19 -50t51 -18q45 0 74.5 34t29.5 77q0 32 -18.5 51.5t-50.5 19.5zM305 168q56 0 92.5 38.5t36.5 92.5q0 38 -24.5 61t-65.5 23q-57 0 -94 -39t-37 -92q0 -38 24.5 -61t67.5 -23z" />
    <glyph glyph-name="nine.dnom" horiz-adv-x="755" 
d="M426 922q131 0 208 -64t77 -172q0 -96 -46 -182.5t-128 -177.5l-297 -326h-244l328 348h-48q-103 0 -171 63.5t-68 166.5q0 147 113.5 245.5t275.5 98.5zM264 602q0 -40 23.5 -64t64.5 -24q55 0 92 41t37 100q0 40 -23.5 63t-64.5 23q-54 0 -91.5 -42t-37.5 -97z" />
    <glyph glyph-name="zero.numr" horiz-adv-x="819" 
d="M424 594q-139 0 -219 97t-80 261q0 148 54.5 279.5t156.5 214t229 82.5q140 0 218.5 -95.5t78.5 -258.5q0 -151 -53.5 -282.5t-155 -214.5t-229.5 -83zM453 774q55 0 99.5 65t66.5 153t22 173t-26.5 135t-75.5 50q-55 0 -101 -65t-69 -154.5t-23 -174.5t27.5 -133.5
t79.5 -48.5z" />
    <glyph glyph-name="one.numr" horiz-adv-x="493" 
d="M162 606l127 731h-125l31 179h348l-162 -910h-219z" />
    <glyph glyph-name="two.numr" horiz-adv-x="761" 
d="M45 606l25 137l364 324q146 123 146 213q0 31 -20.5 50.5t-55.5 19.5q-42 0 -73.5 -34.5t-39.5 -86.5l-217 35q23 123 117.5 193.5t232.5 70.5q127 0 203 -58.5t76 -156.5q0 -101 -68 -193t-196 -194l-174 -142l358 2l-33 -180h-645z" />
    <glyph glyph-name="three.numr" horiz-adv-x="737" 
d="M782 1516l-24 -136l-234 -211q96 -12 150.5 -73.5t54.5 -155.5q0 -157 -115 -251.5t-292 -94.5q-86 0 -161.5 24.5t-117.5 63.5l102 152q60 -60 185 -60q73 0 124.5 38t51.5 97q0 47 -34 74t-95 27q-49 0 -113 -33l-47 113l252 247h-266l30 179h549z" />
    <glyph glyph-name="four.numr" horiz-adv-x="823" 
d="M426 606l29 164h-408l27 150l561 596h170l-98 -564h118l-30 -182h-123l-27 -164h-219zM295 944h197l53 277z" />
    <glyph glyph-name="five.numr" horiz-adv-x="753" 
d="M311 594q-182 0 -276 84l84 147q68 -51 190 -51q86 0 149.5 44.5t63.5 109.5q0 42 -26.5 67t-73.5 25q-37 0 -70 -16.5t-47 -40.5l-145 26l153 527h490l-31 -179h-301l-51 -145q20 6 63 6q120 0 192.5 -63t72.5 -168q0 -108 -59.5 -194t-159 -132.5t-218.5 -46.5z" />
    <glyph glyph-name="six.numr" horiz-adv-x="755" 
d="M524 1167q103 0 171.5 -63.5t68.5 -165.5q0 -147 -113.5 -245.5t-275.5 -98.5q-132 0 -208.5 63.5t-76.5 171.5q0 96 46 183t128 178l297 326h244l-328 -349h47zM408 774q54 0 91.5 42t37.5 97q0 40 -23.5 64t-64.5 24q-55 0 -92.5 -41t-37.5 -100q0 -40 24 -63t65 -23z
" />
    <glyph glyph-name="seven.numr" horiz-adv-x="681" 
d="M180 1516h641l-461 -910h-233l375 731h-352z" />
    <glyph glyph-name="eight.numr" horiz-adv-x="780" 
d="M659 1075q101 -63 101 -178q0 -136 -106 -219.5t-261 -83.5q-137 0 -218 64.5t-81 172.5q0 89 47.5 154t130.5 100q-82 59 -82 158q0 126 100 205.5t245 79.5q125 0 198.5 -60.5t73.5 -160.5q0 -79 -40 -139t-108 -93zM514 1350q-45 0 -74.5 -35.5t-29.5 -79.5
q0 -32 18.5 -50t50.5 -18q45 0 75 34t30 77q0 32 -19 52t-51 20zM412 774q56 0 92.5 38.5t36.5 92.5q0 38 -24.5 61t-65.5 23q-57 0 -94.5 -39t-37.5 -92q0 -38 25 -61t68 -23z" />
    <glyph glyph-name="nine.numr" horiz-adv-x="755" 
d="M532 1528q131 0 208 -64t77 -172q0 -96 -46 -182.5t-128 -177.5l-297 -326h-244l328 348h-47q-103 0 -171.5 63.5t-68.5 166.5q0 147 113.5 245.5t275.5 98.5zM371 1208q0 -40 23.5 -64t64.5 -24q55 0 92 41.5t37 100.5q0 40 -23.5 63t-64.5 23q-54 0 -91.5 -42.5
t-37.5 -97.5z" />
    <glyph glyph-name="exclamdown.case" horiz-adv-x="647" 
d="M459 1536q84 0 135 -50.5t51 -129.5q0 -94 -62 -158.5t-157 -64.5q-82 0 -133 50.5t-51 129.5q0 95 61 159t156 64zM537 1014l-148 -1014h-362l213 1014h297z" />
    <glyph glyph-name="questiondown.case" horiz-adv-x="1161" 
d="M729 1536q84 0 135 -50.5t51 -129.5q0 -94 -62 -158.5t-157 -64.5q-82 0 -133 50.5t-51 129.5q0 95 61 159t156 64zM512 1026l291 -25q-16 -91 -43 -160.5t-65.5 -119t-72.5 -81t-85 -67.5q-65 -48 -102.5 -93t-37.5 -97t36 -79.5t102 -27.5q69 0 122 42t70 108l324 -39
q-42 -189 -192 -298t-359 -109q-218 0 -345.5 99t-127.5 263q0 90 29.5 158.5t77 115.5t132.5 105q45 31 68.5 48.5t59 49.5t55.5 59t38 66t25 82z" />
    <glyph glyph-name="slash.case" horiz-adv-x="917" 
d="M-39 0l680 1516h354l-680 -1516h-354z" />
    <glyph glyph-name="braceleft.case" horiz-adv-x="923" 
d="M483 -102q-152 0 -240.5 79.5t-88.5 208.5q0 36 6 70l39 209q4 18 4 49q0 96 -115 96h-20l53 297h14q66 0 110 35.5t54 101.5l35 242q21 156 131.5 244t271.5 88q133 0 260 -29l-49 -280q-40 12 -90 12q-166 0 -188 -166l-23 -176q-12 -86 -70 -144.5t-151 -80.5
q69 -16 105 -71.5t36 -127.5q0 -9 -4 -45l-28 -172q-5 -30 -5 -41q0 -50 27.5 -76t77.5 -26q75 0 127 12l-49 -285q-108 -24 -230 -24z" />
    <glyph glyph-name="braceright.case" horiz-adv-x="923" 
d="M479 1618q152 0 241 -80t89 -209q0 -35 -6 -69l-39 -209q-4 -18 -4 -50q0 -96 114 -96h21l-53 -297h-15q-66 0 -109.5 -35.5t-53.5 -101.5l-35 -242q-21 -156 -132 -243.5t-272 -87.5q-137 0 -260 28l49 281q41 -12 90 -12q167 0 189 165l22 177q12 86 70.5 144.5
t151.5 80.5q-69 16 -105.5 71.5t-36.5 127.5q0 9 4 45l29 172q4 24 4 41q0 102 -104 102q-74 0 -127 -12l49 284q113 25 229 25z" />
    <glyph glyph-name="bracketleft.case" horiz-adv-x="876" 
d="M31 -82l297 1679h630l-53 -297h-268l-193 -1083h269l-51 -299h-631z" />
    <glyph glyph-name="bracketright.case" horiz-adv-x="878" 
d="M885 1597l-297 -1679h-631l53 297h269l192 1083h-268l51 299h631z" />
    <glyph glyph-name="parenleft.case" horiz-adv-x="765" 
d="M272 -82q-182 307 -182 641q0 546 463 1038h332q-192 -217 -317.5 -511.5t-125.5 -569.5q0 -175 42 -336.5t96 -261.5h-308z" />
    <glyph glyph-name="parenright.case" horiz-adv-x="765" 
d="M-82 -82q192 219 317 513.5t125 569.5q0 174 -40.5 334.5t-92.5 261.5h305q80 -137 131.5 -291t51.5 -348q0 -550 -461 -1040h-336z" />
    <glyph glyph-name="logo" horiz-adv-x="2609" 
d="M156 -20q-15 0 -25 10.5t-10 25.5q0 21 10 31l700 698h-663q-47 0 -47 39q0 16 14 33l696 701h-669q-41 0 -41 38v3q0 38 41 38h758q47 0 47 -41q0 -20 -17 -34l-698 -697h676q17 0 29 -12t12 -29v-669l694 692q13 16 35 16q37 0 37 -45v-663l696 692q13 16 33 16
q15 0 25 -12t10 -27q0 -18 -13 -28l-753 -762q-14 -14 -35 -14q-41 0 -41 47v663l-694 -696q-14 -14 -35 -14q-41 0 -41 47v663l-697 -696q-14 -14 -34 -14z" />
    </font>
</defs>
</svg>
